<?xml version="1.0" encoding="utf-8"?>
<!-- Generator: Adobe Illustrator 26.2.1, SVG Export Plug-In . SVG Version: 6.00 Build 0)  -->
<svg version="1.1" id="Layer_1" xmlns="http://www.w3.org/2000/svg" xmlns:xlink="http://www.w3.org/1999/xlink" x="0px" y="0px"
	 viewBox="0 0 2476.24 3335.88" style="enable-background:new 0 0 2476.24 3335.88;" xml:space="preserve">
<style type="text/css">
	.st0{fill:#FF9210;}
	.st1{opacity:0.51;}
	.st2{fill:#FFFFFF;}
	.st3{opacity:0.3;}
	.st4{fill:#371A45;}
	.st5{opacity:0.51;clip-path:url(#SVGID_00000086651453758080849230000005619395699374532750_);}
	.st6{clip-path:url(#SVGID_00000086651453758080849230000005619395699374532750_);}
	.st7{opacity:0.35;}
	.st8{fill:#FD6CCB;}
	.st9{fill:#102770;}
	.st10{fill:#FF55CB;}
	.st11{fill:#000072;}
	.st12{opacity:0.5;}
	.st13{fill:#111A28;}
	.st14{fill:#00FFCE;}
	.st15{opacity:0.25;}
	.st16{fill:#FFA1A8;}
	.st17{fill:#FF5794;}
	.st18{opacity:0.6;}
	.st19{opacity:0.2;}
	.st20{fill:#F9744B;}
	.st21{fill:#FA508E;}
	.st22{fill:#0F2675;}
	.st23{fill:#F27E80;}
	.st24{opacity:0.7;}
	.st25{fill:#1285DB;}
	.st26{fill:url(#SVGID_00000075147661865533187650000013316347998309103748_);}
	.st27{fill:url(#SVGID_00000163777978537386667740000007734431770962052493_);}
	.st28{fill:#FF45B4;}
	.st29{fill:url(#SVGID_00000016039124752840148180000008790072941467069320_);}
	.st30{fill:url(#SVGID_00000025427497305743399340000000585548049092775045_);}
	.st31{fill:#56E263;}
	.st32{fill:#F21449;}
	.st33{fill:#0BCBFF;}
	.st34{clip-path:url(#SVGID_00000118385503919550173130000013797112024312166533_);}
	.st35{fill:#FF5CB5;}
	.st36{fill:#FF27A8;}
	.st37{fill:#28B9E5;}
	.st38{fill:#32AEF1;}
	.st39{fill:#F9A429;}
	.st40{fill:#03036B;}
	.st41{fill:#FFF3E9;}
	.st42{fill:#FF9343;}
	.st43{fill:#FF1D74;}
	.st44{fill:#C1C1DB;}
	.st45{fill:#220F2D;}
	.st46{fill:#22A7F0;}
	.st47{fill:#AFAFB2;}
	.st48{fill:#2DE036;}
	.st49{fill:#E04F68;}
	.st50{fill:#FF559A;}
	.st51{opacity:0.4;}
	.st52{fill:#181558;}
	.st53{fill:#2276FC;}
	.st54{fill:#29B8FF;}
	.st55{fill:#1F8CDD;}
	.st56{fill:#6B184E;}
	.st57{fill:#1C64F4;}
	.st58{fill:#FF669D;}
	.st59{fill:#2036B7;}
	.st60{fill:#F25591;}
</style>
<g>
	<g>
		<g>
			<path class="st2" d="M656.86,1000.88c0,0-99.98-52.03-409.92-167.84c-229.67-85.82-327.36,171.42-104.72,331.33
				c247.77,177.96,543.25,157.21,543.25,157.21L656.86,1000.88z"/>
		</g>
		<g>
			<polygon class="st44" points="1891.8,2643.26 1265.08,2643.26 1256.83,2406.25 1227.9,1576.41 1547.21,1560.57 1816.25,2405.94 
							"/>
		</g>
		<g class="st24">
			<polygon class="st2" points="1776.25,2406.86 1851.5,2643.26 1901.8,2643.26 1826.25,2405.94 1557.21,1560.57 1507.7,1563.02 			
				"/>
		</g>
		<g>
			<path class="st4" d="M1914.61,2659.96h-665.66l-37.73-1082.97c-0.32-9.21,6.89-16.94,16.1-17.27c9.1-0.34,16.94,6.89,17.27,16.1
				l36.61,1050.74h587.75l-337.63-1060.93c-2.8-8.79,2.06-18.18,10.84-20.97c8.78-2.79,18.17,2.06,20.97,10.84L1914.61,2659.96z"/>
		</g>
		<g class="st7">
			<path class="st4" d="M1891.8,2643.26h-626.72l-8.25-237.01c17.37-3.4,35.35-5.19,53.75-5.19c28.67,0,56.38,4.31,82.45,12.37
				c41.07-65.24,113.75-108.6,196.55-108.6s155.48,43.36,196.55,108.6c9.81-3.05,19.85-5.54,30.12-7.48L1891.8,2643.26z"/>
		</g>
		<g>
			<path class="st44" d="M2459.54,2978c0,127.65-103.48,231.14-231.14,231.14c-31.79,0-61.99-6.36-89.55-17.97
				c-23.8,74.26-93.42,128.02-175.55,128.02c-46.83,0-89.63-17.49-122.11-46.34c-26.7,24.09-62.03,38.76-100.84,38.76
				c-43.41,0-82.49-18.3-109.92-47.61c-12.8,4.4-26.53,6.81-40.84,6.81s-28.04-2.4-40.84-6.81c-27.47,29.3-66.56,47.61-109.92,47.61
				c-38.8,0-74.18-14.67-100.88-38.72c-32.49,28.82-75.28,46.3-122.11,46.3c-82.13,0-151.74-53.76-175.55-128.02
				c-27.55,11.62-57.79,17.97-89.55,17.97c-127.61,0-231.14-103.49-231.14-231.14c0-127.61,103.53-231.14,231.14-231.14
				c28.49,0,55.76,5.18,80.95,14.59c4.89-149.75,127.86-269.7,278.87-269.7c28.69,0,56.41,4.32,82.45,12.39
				c41.08-65.25,113.76-108.62,196.58-108.62c82.78,0,155.45,43.37,196.54,108.62c26.04-8.07,53.76-12.39,82.45-12.39
				c151.01,0,273.98,119.95,278.87,269.7c25.15-9.42,52.46-14.59,80.95-14.59C2356.06,2746.86,2459.54,2850.38,2459.54,2978z"/>
		</g>
		<g class="st3">
			<path class="st4" d="M2459.54,2977.98c0,127.67-103.49,231.16-231.16,231.16c-31.78,0-61.96-6.35-89.53-17.98
				c-23.79,74.27-93.4,128.01-175.55,128.01c-46.81,0-89.61-17.48-122.12-46.32c-26.7,24.06-62,38.74-100.82,38.74
				c-43.41,0-82.5-18.28-109.92-47.62c-12.81,4.4-26.54,6.81-40.85,6.81s-28.03-2.41-40.85-6.81
				c-27.46,29.33-66.55,47.62-109.92,47.62c-38.78,0-74.16-14.69-100.85-38.7c-32.51,28.8-75.31,46.28-122.12,46.28
				c-82.15,0-151.76-53.74-175.55-128.01c-27.58,11.63-57.79,17.98-89.53,17.98c-127.63,0-231.16-103.49-231.16-231.16
				c0-14.5,1.34-28.72,3.9-42.49c19.96,107.36,100.44,185.91,223.96,205.15c31.37,4.88,117.55-4.38,160.63-46.91
				c23.79,74.27,25.6,140.42,107.75,140.42c46.81,0,89.61-17.48,122.12-46.32c26.7,24.06,62.11,36.99,100.85,38.71
				c56.02,2.48,16.4-31.3,43.86-60.6c12.81,4.4,49.92,41.17,87.74,41.17c40.5,0,51.97-11.47,60.01-28.15
				c27.42,29.3,66.51,47.58,109.92,47.58c38.82,0,74.12-14.65,100.82-38.74c32.51,28.88,75.31,46.35,122.12,46.35
				c82.15,0,151.76-53.77,175.55-128.05c27.58,11.63,57.75,17.98,89.53,17.98c113.13,0,207.29-81.23,227.26-188.59
				C2458.21,2949.26,2459.54,2963.49,2459.54,2977.98z"/>
		</g>
		<g class="st24">
			<path class="st2" d="M2459.54,2968.27c0,8.76-0.5,17.4-1.45,25.93c-12.85-115.46-110.8-205.27-229.71-205.27
				c-28.46,0-94.01,5.16-119.18,14.61c-4.9-149.77-89.61-269.71-240.61-269.71c-28.72,0-56.41,4.32-82.46,12.39
				c-41.08-65.25-113.78-108.62-196.55-108.62c-82.8,0-155.51,43.37-196.59,108.62c-26.05-8.07-53.73-12.39-82.46-12.39
				c-151,0-235.71,119.94-240.61,269.71c-25.2-9.45-90.72-14.61-119.17-14.61c-118.87,0-216.86,89.8-229.71,205.27
				c-0.96-8.53-1.45-17.17-1.45-25.93c0-127.59,103.53-231.12,231.16-231.12c28.45,0,55.72,5.16,80.93,14.57
				c4.9-149.73,127.86-269.67,278.85-269.67c28.72,0,56.41,4.32,82.46,12.39c41.08-65.25,113.78-108.62,196.59-108.62
				c82.76,0,155.47,43.37,196.55,108.62c26.05-8.07,53.74-12.39,82.46-12.39c151,0,273.96,119.94,278.85,269.67
				c25.17-9.41,52.47-14.57,80.93-14.57C2356.05,2737.15,2459.54,2840.68,2459.54,2968.27z"/>
		</g>
		<g>
			<path class="st4" d="M1963.31,3335.88c-44.38,0-87.21-14.61-122.11-41.4c-28.95,21.89-64.24,33.81-100.83,33.81
				c-42.61,0-83.83-16.45-114.67-45.43c-23.49,6.15-48.7,6.16-72.2,0c-30.87,29-72.08,45.44-114.66,45.44
				c-36.61,0-71.92-11.9-100.87-33.78c-34.92,26.77-77.75,41.37-122.11,41.37c-81.83,0-154.27-48.8-185.37-123.13
				c-25.52,8.69-52.27,13.08-79.73,13.08c-136.66,0-247.83-111.18-247.83-247.83s111.18-247.84,247.83-247.84
				c22.38,0,44.42,2.97,65.78,8.84c7.3-68.56,38.14-132.02,88.18-180.54c55.47-53.78,128.57-83.4,205.85-83.4
				c25.62,0,50.89,3.25,75.32,9.68c46.65-66.55,121.89-105.91,203.72-105.91c81.8,0,157.02,39.36,203.67,105.91
				c24.42-6.43,49.7-9.68,75.32-9.68c77.28,0,150.39,29.62,205.85,83.4c50.04,48.53,80.88,111.97,88.18,180.54
				c21.33-5.87,43.37-8.84,65.78-8.84c136.66,0,247.83,111.18,247.83,247.84s-111.18,247.83-247.83,247.83
				c-27.46,0-54.2-4.39-79.73-13.08C2117.58,3287.08,2045.14,3335.88,1963.31,3335.88z M1841.12,3250.44l11.17,9.93
				c30.58,27.17,70,42.13,111.02,42.13c73.17,0,137.33-46.79,159.65-116.43l5.57-17.37l16.81,7.09
				c26.23,11.05,54.17,16.66,83.06,16.66c118.25,0,214.44-96.2,214.44-214.44s-96.2-214.45-214.44-214.45
				c-25.85,0-51.11,4.55-75.09,13.53l-21.78,8.15l-0.76-23.24c-4.64-142.18-119.81-253.54-262.18-253.54
				c-26.51,0-52.59,3.92-77.51,11.64l-12.24,3.79l-6.83-10.84c-39.75-63.13-107.93-100.82-182.41-100.82
				c-74.5,0-142.71,37.69-182.45,100.82l-6.83,10.84l-12.24-3.79c-24.92-7.72-51-11.64-77.51-11.64
				c-142.37,0-257.54,111.37-262.18,253.54l-0.76,23.23l-21.77-8.14c-24.02-8.98-49.29-13.53-75.1-13.53
				c-118.25,0-214.44,96.2-214.44,214.45s96.2,214.44,214.44,214.44c28.89,0,56.84-5.61,83.06-16.66l16.81-7.09l5.57,17.37
				c22.32,69.64,86.48,116.43,159.65,116.43c41,0,80.43-14.95,111.03-42.1l11.17-9.9l11.08,9.99c24.65,22.2,56.5,34.43,89.7,34.43
				c37.45,0,72.16-15.03,97.75-42.33l7.39-7.89l10.22,3.52c22.74,7.83,48.07,7.83,70.81,0l10.23-3.52l7.39,7.9
				c25.55,27.29,60.26,42.32,97.74,42.32c33.18,0,65.02-12.24,89.65-34.46L1841.12,3250.44z"/>
		</g>
		<g class="st3">
			<path class="st4" d="M1373.28,2732.81c16.14-73.47,81.66-128.43,159.95-128.43c90.45,0,163.77,73.36,163.77,163.81
				L1373.28,2732.81z"/>
		</g>
		<g>
			<path class="st44" d="M1369.45,2771.06c16.14-73.47,81.66-128.43,159.95-128.43c90.45,0,163.77,73.36,163.77,163.81
				L1369.45,2771.06z"/>
		</g>
		<g class="st24">
			<path class="st2" d="M1693.17,2806.45l-10.94-1.19c-17.67-71.33-82.11-124.22-158.91-124.22c-64.22,0-119.86,36.98-146.64,90.83
				l-7.23-0.8c16.14-73.47,81.65-128.43,159.95-128.43C1619.85,2642.64,1693.17,2716,1693.17,2806.45z"/>
		</g>
		<g>
			<path class="st4" d="M1353.15,2767.47c4.21-21.62,12.92-42.36,24.9-60.9c12.16-18.44,27.69-34.63,45.6-47.58
				c17.96-12.85,38.33-22.47,59.78-27.73c21.45-5.3,43.74-6.56,65.5-3.83c43.55,5.57,84.56,27.71,112.14,60.92
				c13.85,16.5,24.71,35.41,31.59,55.6c6.77,20.21,9.91,41.51,8.87,62.49c-0.23,4.61-4.15,8.16-8.76,7.93
				c-4.29-0.21-7.66-3.62-7.93-7.81l0-0.12c-2.26-37.93-17.95-73.97-43.5-100.38c-12.79-13.14-27.72-24.04-44.01-31.98
				c-16.31-7.88-33.96-12.86-51.9-14.25c-17.94-1.24-36.05,0.06-53.24,4.9c-17.22,4.66-33.43,12.67-47.83,23.1
				c-14.45,10.37-27.02,23.39-36.87,38.21c-10.07,14.7-17.29,31.26-21.72,48.61l-0.04,0.16c-2.29,8.93-11.38,14.33-20.31,12.04
				C1356.8,2784.64,1351.49,2776.08,1353.15,2767.47z"/>
		</g>
		<g class="st24">
			<path class="st2" d="M2085.08,2949.3c-2.95,83.91-71.86,151-156.47,151c-39.16,0-74.96-14.38-102.42-38.17
				c35.65,6.23,76.42,5.85,101.28,0.46C1989.35,3049.2,2058.04,3007.43,2085.08,2949.3z"/>
		</g>
		<g>
			<path class="st4" d="M2093.53,2943.69c1.63,16.35,0.54,33.14-3.14,49.58c-2.38,8.02-4.45,16.28-7.98,23.98
				c-3.08,7.92-7.47,15.19-11.61,22.64c-9.19,14.34-20.62,27.24-33.65,38.38l-10.23,7.78c-3.44,2.55-7.22,4.62-10.83,6.93
				c-1.84,1.1-3.63,2.3-5.52,3.32l-5.77,2.86c-3.92,1.75-7.65,3.93-11.76,5.22c-31.98,12.55-67.73,15.2-100.68,6.67
				c-32.96-8.26-62.8-27.4-82.97-53.38c-2.84-3.66-2.18-8.93,1.48-11.77c3.18-2.47,7.57-2.29,10.53,0.19l0.06,0.05
				c22.66,18.96,49.28,31.66,77.08,36.31c27.78,4.65,56.46,1.46,82.14-8.89c12.66-5.55,25.05-12,35.91-20.76
				c10.9-8.64,20.7-18.65,29.24-29.82c3.87-5.83,8.15-11.49,11.24-17.85c3.79-6.03,6.27-12.69,9.2-19.22
				c5.18-13.36,8.29-27.5,10.59-42.19l0.07-0.46c0.72-4.57,5-7.7,9.58-6.98C2090.33,2936.85,2093.16,2939.99,2093.53,2943.69z"/>
		</g>
		<g>
			<path class="st4" d="M2093.53,2943.69c1.63,16.35,0.54,33.14-3.14,49.58c-2.38,8.02-4.45,16.28-7.98,23.98
				c-3.08,7.92-7.47,15.19-11.61,22.64c-9.19,14.34-20.62,27.24-33.65,38.38l-10.23,7.78c-3.44,2.55-7.22,4.62-10.83,6.93
				c-1.84,1.1-3.63,2.3-5.52,3.32l-5.77,2.86c-3.92,1.75-7.65,3.93-11.76,5.22c-31.98,12.55-67.73,15.2-100.68,6.67
				c-32.96-8.26-62.8-27.4-82.97-53.38c-2.84-3.66-2.18-8.93,1.48-11.77c3.18-2.47,7.57-2.29,10.53,0.19l0.06,0.05
				c22.66,18.96,49.28,31.66,77.08,36.31c27.78,4.65,56.46,1.46,82.14-8.89c12.66-5.55,25.05-12,35.91-20.76
				c10.9-8.64,20.7-18.65,29.24-29.82c3.87-5.83,8.15-11.49,11.24-17.85c3.79-6.03,6.27-12.69,9.2-19.22
				c5.18-13.36,8.29-27.5,10.59-42.19l0.07-0.46c0.72-4.57,5-7.7,9.58-6.98C2090.33,2936.85,2093.16,2939.99,2093.53,2943.69z"/>
		</g>
		<g>
			<path class="st4" d="M1197.81,2882.76c-0.93-13.28,0.16-26.86,3.45-40.09c3.42-13.19,9.16-25.83,16.69-37.37
				c1.98-2.81,3.81-5.77,5.97-8.47l6.67-7.97c4.87-4.91,9.77-9.9,15.37-14.06c10.93-8.59,23.19-15.85,36.54-20.33
				c13.26-4.55,27.22-7.64,41.34-7.8c14.08-0.48,28.24,1.64,41.84,5.53c27.11,7.72,51.76,26.75,62.04,52.63
				c1.77,4.45-0.41,9.49-4.86,11.26c-2.75,1.09-5.73,0.68-8.02-0.85l-0.37-0.25c-20-13.54-38.01-24.19-58.46-30.96
				c-20.41-6.33-42.87-6.03-63.42,0.23c-20.55,6.43-39.38,19.14-53.17,36.47c-6.77,8.71-12.7,18.3-16.83,28.81
				c-4.07,10.51-6.75,21.66-8.08,33.24l-0.04,0.37c-0.53,4.59-4.68,7.88-9.27,7.35C1201.12,2890.02,1198.08,2886.7,1197.81,2882.76z
				"/>
		</g>
		<g>
			<path class="st4" d="M1116.37,3094.87c-0.64,6.01-1.61,11.07-2.86,16.46c-1.25,5.3-2.8,10.51-4.56,15.68
				c-3.53,10.32-8.2,20.34-13.91,29.86c-2.7,4.86-6.07,9.33-9.28,13.93c-3.56,4.33-6.95,8.87-11,12.83
				c-7.66,8.4-16.74,15.4-26.12,22c-7.57,5.32-18.02,3.5-23.34-4.07c-5.32-7.57-3.5-18.02,4.07-23.34c0.57-0.41,1.17-0.77,1.77-1.09
				l0.84-0.44c7.92-4.15,15.89-8.57,22.88-14.45c3.71-2.69,6.88-6,10.31-9.1c3.1-3.4,6.43-6.67,9.22-10.42
				c5.86-7.27,11.04-15.25,15.33-23.78c4.29-8.37,7.93-17.81,10.13-26.36l0.17-0.67c1.15-4.46,5.69-7.14,10.15-6
				C1114.22,3086.96,1116.81,3090.82,1116.37,3094.87z"/>
		</g>
		<g>
			<path class="st4" d="M1491.02,3165.4c0.73,3.96,2.06,8.88,3.52,13.25c1.56,4.47,3.31,8.87,5.35,13.13
				c4.06,8.52,8.96,16.58,14.82,23.78c5.85,7.19,12.21,13.88,19.51,19.43c3.43,3,7.4,5.36,11.14,7.92c3.8,2.49,7.99,4.45,11.89,6.71
				l1.55,0.9c8.01,4.64,10.74,14.89,6.1,22.9c-4.64,8.01-14.89,10.74-22.9,6.11c-0.58-0.34-1.21-0.76-1.73-1.15
				c-4.55-3.45-9.25-6.59-13.54-10.31c-4.24-3.79-8.59-7.39-12.37-11.65c-7.95-8.04-14.62-17.26-20.38-26.8
				c-5.79-9.57-10.23-19.82-13.56-30.31c-1.67-5.25-2.99-10.59-4.07-15.97c-0.99-5.52-1.75-10.62-1.99-16.83
				c-0.18-4.6,3.41-8.47,8.01-8.65c4.19-0.16,7.78,2.8,8.52,6.81L1491.02,3165.4z"/>
		</g>
		<g>
			<path class="st2" d="M1121.18,1010.66c0,0,226.35-54.62,301.3-18.85c135.08,64.46,242.72,514.1,174.46,690.65
				c-50.11,129.61-484.39,137.11-484.39,137.11L1121.18,1010.66z"/>
		</g>
		<g class="st7">
			<path class="st4" d="M1596.94,1682.46c-50.1,129.6-484.4,137.09-484.4,137.09l2.36-221.49c94.08-4.01,415.94-25.79,458.65-136.25
				c13.32-34.42,19.95-79.26,20.96-129.57C1622.61,1464.14,1628.13,1601.81,1596.94,1682.46z"/>
		</g>
		<g>
			<path class="st4" d="M1112.54,1836.26c-9.09,0-16.53-7.29-16.68-16.41c-0.16-9.22,7.18-16.82,16.4-16.98
				c117.68-2.05,431.34-28.76,469.11-126.44c66.63-172.33-42.03-610.37-166.08-669.57c-57.12-27.26-228.85,5.21-290.2,20.01
				c-8.93,2.16-17.98-3.35-20.15-12.31c-2.16-8.96,3.35-17.98,12.31-20.14c23.75-5.73,234.36-54.94,312.4-17.69
				c67.26,32.09,131.75,149.61,172.5,314.35c30.93,125.04,49.9,295.09,10.35,397.39c-23.09,59.71-115.26,102.65-273.96,127.63
				c-114.65,18.05-224.61,20.14-225.71,20.15C1112.74,1836.26,1112.64,1836.26,1112.54,1836.26z"/>
		</g>
		<g>
			<path class="st2" d="M1586.05,1349.9l-116.22,28.13c-10.38,2.51-17.76,11.69-17.94,22.36c-0.64,39.09,2.56,129.44,44.28,152.61
				c34.63,19.23,83.92,8.22,109.03-21.24c28.09-32.96,17.04-120.28,9.47-163.16C1612.31,1355.28,1599.21,1346.72,1586.05,1349.9z"/>
		</g>
		<g class="st7">
			<path class="st4" d="M1451.9,1400.41c-0.66,39.08,2.56,129.44,44.27,152.59c34.63,19.24,83.91,8.23,109.04-21.24
				c17.26-20.28,19.73-61.12,17.31-99.52c-2.21,19.75-8.01,36.44-16.72,48.19c-49.86,67.35-105.28,6.67-105.28,6.67
				s-4.98,17.76-10.95,19.7c-24.97,8.11-32.82-72.92-35.9-114.94C1452.57,1394.49,1451.93,1397.38,1451.9,1400.41z"/>
		</g>
		<g>
			<path class="st4" d="M1535.23,1577.57c-16.32,0-32.39-3.69-46.36-11.45c-47.17-26.2-52.82-115.23-51.99-165.97
				c0.29-17.48,12.38-32.57,29.41-36.69l116.22-28.13c10.28-2.48,21.26-0.6,30.11,5.19c8.85,5.79,14.98,15.08,16.81,25.49
				c10.71,60.63,17.19,140.29-12.82,175.5C1596.78,1564.76,1565.6,1577.57,1535.23,1577.57z M1591.6,1364.23
				c-0.63,0-1.31,0.07-2.02,0.24v0l-116.22,28.13c-3.75,0.91-6.41,4.21-6.47,8.03c-0.93,56.98,8.18,123.49,36.56,139.25
				c27.63,15.35,69,7.17,90.33-17.85c16.99-19.94,19.28-76.32,6.11-150.82c-0.56-3.13-2.55-4.86-3.69-5.6
				C1595.32,1365.04,1593.71,1364.23,1591.6,1364.23z M1586.05,1349.9h0.05H1586.05z"/>
		</g>
		<g>
			<path class="st4" d="M1553.56,1571.92c-2.9-1.13-4.35-1.97-6.29-3.02c-1.78-1.02-3.52-2.08-5.14-3.21
				c-3.3-2.22-6.36-4.64-9.23-7.21c-5.7-5.17-10.88-10.74-15.14-16.88c-8.77-12.08-14.86-25.51-18.81-39.19
				c-3.93-13.74-5.86-27.65-7.08-41.34c-1.05-13.72-1.85-27.7,0.69-41.22c-0.45,13.66,2.41,27.07,5.48,40.22
				c3.25,13.2,7.15,26.06,12.62,37.95c5.5,11.89,12.73,22.74,21.5,31.56c4.27,4.52,9.16,8.3,14.12,11.59
				c2.5,1.63,5.08,3.08,7.67,4.28c1.29,0.64,2.59,1.16,3.86,1.65c1.13,0.42,2.81,0.96,3.13,0.95c7.17-0.26,13.2,5.34,13.47,12.51
				s-5.34,13.21-12.51,13.47c-1.8,0.07-3.53-0.24-5.12-0.84L1553.56,1571.92z"/>
		</g>
		<g>
			<path class="st4" d="M1270.45,1074.17c-5.39,0-10.67-2.6-13.89-7.41c-5.13-7.66-3.08-18.03,4.58-23.16
				c100.43-67.22,169.73-63.1,172.63-62.88c9.2,0.66,16.12,8.65,15.45,17.85c-0.66,9.17-8.65,16.08-17.75,15.46
				c-1.18-0.06-62.26-2.59-151.76,57.31C1276.88,1073.26,1273.65,1074.17,1270.45,1074.17z"/>
		</g>
		<g>
			<path class="st2" d="M1130.61,1868.94c22.12,132.74,79.57,135.1,96.24,243.36c31.19,202.65,16.49,321.96-176.99,311.5
				c-130.97-7.08-136.72-243.04-136.72-243.04s-161.75-89.81-160.87-450.87L1130.61,1868.94z"/>
		</g>
		<g class="st7">
			<path class="st4" d="M1049.85,2423.8c-39.44-2.13-67.53-25.04-87.52-55.97c11.73,3.34,23.62,5.47,35.6,6.09
				c193.48,10.48,208.17-108.84,177-311.51c-16.69-108.26-36.98-97.99-174.03-127.96c0,0-97.7-16.69-171.35-71.69
				c-46.19-34.49-88.87-80.35-54.5-103.11c-0.38-11.85-22.84-17.31-22.8-29.79l378.37,139.06c22.12,132.76,79.59,135.1,96.24,243.36
				C1258.02,2314.96,1243.33,2434.28,1049.85,2423.8z"/>
		</g>
		<g>
			<path class="st4" d="M1072.35,2441.13c-7.55,0-15.35-0.22-23.4-0.65c-130.84-7.08-149.55-204.93-152.12-250.39
				c-34.36-24.18-162.05-135.95-161.26-460.23c0.02-9.2,7.5-16.65,16.69-16.65c0.01,0,0.02,0,0.04,0
				c9.22,0.02,16.67,7.51,16.66,16.74c-0.84,344.94,150.83,435.41,152.36,436.28l8.18,4.67l0.32,9.47
				c0.05,2.21,6.9,220.62,120.94,226.78c66.88,3.59,112.25-8.78,138.63-37.9c45.16-49.85,36.76-151.73,20.96-254.39
				c-7.44-48.33-23.08-73.25-41.18-102.11c-20.12-32.08-42.93-68.44-55.03-141.04c-1.52-9.09,4.62-17.7,13.72-19.21
				c9.05-1.53,17.7,4.63,19.21,13.72c11,66.01,31.02,97.92,50.39,128.79c18.38,29.31,37.4,59.62,45.89,114.78
				c17.06,110.83,25.33,221.68-29.21,281.89C1184.05,2424.85,1137.53,2441.13,1072.35,2441.13z"/>
		</g>
		<g>
			<path class="st4" d="M987.12,2039.86c-52.22,0-103.26-7.66-141.19-17.83c-43.98-11.79-68.96-25.81-74.24-41.65
				c-2.18-6.55,1.36-13.63,7.91-15.82c6.53-2.17,13.56,1.33,15.79,7.82c2.45,5.05,26.24,19.85,81.42,31.25
				c97.07,20.04,221.81,16.51,281.69-36.56c5.17-4.58,13.07-4.1,17.65,1.06s4.1,13.07-1.06,17.65
				C1129.69,2026.01,1057.35,2039.86,987.12,2039.86z"/>
		</g>
		<g class="st7">
			<path class="st4" d="M685.46,1321.58c0,0-25.17,1.75-66.94-0.17c-101.42-4.63-300.83-31.01-476.28-157.05
				c-54.67-39.27-90.02-84.39-108.84-128.84c17.19,19.82,37.16,39.57,67.99,39.19c90.24-1.13,46.29-153.38,67.29-142.57
				c63.32,32.59,89.8,119.06,110.45,176.94c39.85,111.68,158.74,128,234.45,136.38c65.75,7.28,121.58-47.77,115.71-113.66l0,0
				l-13.4-150.33c2.04,0.92,4.01,1.79,5.88,2.67c24.62,11.31,35.1,16.74,35.1,16.74l18.07,202.75L685.46,1321.58z"/>
		</g>
		<g>
			<path class="st4" d="M389.08,1295.52c-5.43,0-10.42-3.56-12.01-9.04c-2.27-7.85-54.18-194.47,57.24-384.05
				c3.5-5.95,11.17-7.94,17.11-4.44c5.95,3.5,7.94,11.16,4.44,17.11c-106.04,180.41-55.3,362.64-54.77,364.46
				c1.91,6.63-1.91,13.56-8.54,15.47C391.39,1295.36,390.23,1295.52,389.08,1295.52z"/>
		</g>
		<g>
			<path class="st4" d="M653.59,1339.13c-85.01,0-317.14-14.72-521.11-161.21C-3.25,1080.44-21.49,954.39,18.99,878.53
				c40.14-75.21,131.89-99.21,233.79-61.13c307.36,114.85,407.66,166.53,411.78,168.67c8.18,4.26,11.36,14.33,7.1,22.51
				c-4.25,8.18-14.32,11.36-22.51,7.11c-1-0.52-103.28-53.13-408.06-167.02c-86.55-32.34-160.38-14.88-192.65,45.58
				c-33.86,63.44-15.9,170.79,103.51,256.56c240.1,172.44,529.42,154.32,532.34,154.12c9.25-0.65,17.17,6.29,17.82,15.48
				c0.64,9.2-6.29,17.18-15.49,17.82C684.38,1338.39,672.7,1339.13,653.59,1339.13z"/>
		</g>
		<g>
			<path class="st2" d="M1773.12,1155.39c-206.05,132.47-408.04,105.55-423.15,122.37c-11.02,12.27,116.98,191.61,96.57,410.59
				c-6.09,65.65-14.69,160.89-8.85,196.03c22.12,132.76,79.59,135.1,96.24,243.36c31.22,202.66,16.49,321.98-177,311.51
				c-130.96-7.09-136.72-243.02-136.72-243.02s-166.56-85.31-160.72-313.39c0,0-273.2,21.45-373.99-250.66
				c-40.73-109.93-59.1-213.98-66.98-310.76c-4.17-50.37-5.47-98.83-5.68-145.11c-0.25-56.68,1.17-110.14,1.17-160.05
				c0-11.98,2.71-22.66,7.76-32.09c65.82-123.66,529.99-40.02,529.99-40.02s89.56,9.85,222.74-8.72
				c74.87-10.48,163.56-29.92,257.88-65.19C2001.41,732.29,1985.51,1018.92,1773.12,1155.39z"/>
		</g>
		<g class="st7">
			<path class="st4" d="M979.4,1877.41c-55.88-9.47-131.88-33.81-196.91-94.99c99.16,50.58,195.19,43.03,195.19,43.03
				c40.84-0.74,111.59-25.03,81.82,57.37C1055.59,1893.68,978.39,1866.62,979.4,1877.41z"/>
		</g>
		<g class="st7">
			<path class="st4" d="M1773.12,1155.39c-206.05,132.47-408.04,105.55-423.15,122.37c-11.02,12.27,116.98,191.61,96.57,410.59
				c-6.09,65.65-14.69,160.89-8.85,196.03c22.12,132.76,79.59,135.1,96.24,243.36c31.22,202.66,16.49,321.98-177,311.51
				c-40.32-2.17-68.74-26.04-88.81-58.01c2.3,0.29,4.76-0.16,7.01,0.63c237.39,83.37,240.01-109.96,200.16-281.93
				c-24.73-106.71-97.28-140.18-119.4-272.93c-5.84-35.14,21.51-131.28,8.85-195.99c-13.23-67.56-186.86-56.18-161.3-81
				c101.03-98.13,140.18-200.77,84.67-259.24c-7.84-8.26-54.58-3.48-57.42-12.28c-3.11-9.64,73.03-36.32,70.7-42.72
				c-15.71-43.21-24.96-61.37-14.85-80.35c9.35-17.53,159.16,135.3,320.25-62.53c55.97-68.74,65.53-115.36,80.52-121.28
				c20.88-8.24,27.99,55.78,86.91,71.19c90.33,23.63,189.03-153.36,59.66-206.52C1982.5,861,1934.63,1051.6,1773.12,1155.39z"/>
		</g>
		<g>
			<path class="st4" d="M1379.45,2456.56c-7.55,0-15.35-0.22-23.4-0.65c-130.26-7.04-149.38-203.16-152.08-249.77
				c-34.7-21.07-159.13-110.23-161.28-306.22c-26.45-0.2-78.81-3.71-137.95-24.65c-77.17-27.33-180.57-90.68-234.88-237.31
				c-77.38-208.88-75.01-399.7-73.12-553.03c0.3-23.93,0.58-46.53,0.58-68.69c0-26.71,10.88-49.35,32.35-67.29
				c111.59-93.27,500.21-25.72,524.43-21.39c11.88,1.16,223.58,20.06,472.46-72.98c219.32-82,283.89-9.24,301.47,25.85
				c40.81,81.43-24.64,211.08-145.89,289.02c-154.26,99.15-307.95,111.16-381.82,116.93c-10.84,0.85-22.62,1.77-30.87,2.82
				c2.99,7.13,7.43,16.72,11.53,25.59c31.66,68.42,97.52,210.8,82.21,375.11c-5.13,55.09-14.69,157.62-9.01,191.73
				c11,66,31.02,97.92,50.38,128.78c18.39,29.32,37.4,59.63,45.89,114.79c17.06,110.83,25.33,221.68-29.21,281.88
				C1491.15,2440.29,1444.63,2456.56,1379.45,2456.56z M1076.65,1864.78l-0.45,18.47c-5.51,214.24,145.25,294.79,151.67,298.11
				l8.76,4.54l0.28,9.89c0.05,2.21,6.89,220.62,120.94,226.78c66.88,3.59,112.25-8.78,138.63-37.9
				c45.16-49.85,36.76-151.72,20.96-254.39c-7.44-48.33-23.08-73.26-41.18-102.12c-20.12-32.08-42.93-68.44-55.03-141.04
				c-5.9-35.41,1.39-121.96,8.7-200.31c14.47-155.35-48.84-292.22-79.27-358c-17.54-37.92-23.45-50.69-13.12-62.19
				c8.52-9.49,23.64-10.68,60.17-13.53c76.6-5.98,219.18-17.12,366.36-111.73c116.44-74.84,163.34-187.61,134.1-245.97
				c-28.2-56.27-125.37-59.84-259.93-9.53c-262.74,98.22-479.22,75.83-488.3,74.84l-1.13-0.16
				c-110.07-19.82-414.06-55.93-497.74,14.03c-13.71,11.46-20.37,25.09-20.37,41.67c0,22.38-0.28,45.08-0.58,69.11
				c-1.96,158.41-4.18,337.95,71.04,541.02c39.83,107.54,111.67,180.54,213.5,216.99c76.79,27.49,142.9,22.86,143.56,22.81
				L1076.65,1864.78z"/>
		</g>
		<g>
			<g class="st7">
				<path class="st4" d="M1374.51,935.41c-7.43,14.11-15.53,28-24.29,41.69c-114.85,179.38-313.6,272.4-512.09,260.8
					c-10.85-0.63-21.7-1.59-32.51-2.84c-29.76-3.46-59.39-9.31-88.6-17.65c-14.11-4.01-28.17-8.6-42.07-13.77
					c-9.93-3.67-19.82-7.64-29.63-11.94c-10.93-4.76-21.74-9.89-32.47-15.4c-16.07-8.22-66.12-48.78-95.09-90.29
					c-101.04-144.77,62.28-167.42,30.93-252.4c151.79,58.3,29.72,130.67,73.09,150.54c65.82-123.66,529.99-40.02,529.99-40.02
					S1241.33,953.98,1374.51,935.41z"/>
			</g>
			<g>
				<g>
					<path class="st2" d="M312.82,736.53c25.3,91.52,73.56,177.11,143.32,247.49c14.23,14.34,29.29,28.05,45.25,41.02
						c7.74,6.34,15.77,12.5,23.97,18.55c24.81,18.1,50.58,33.88,77.1,47.39c22.83,11.7,46.25,21.68,70,30.02
						c28.67,10.09,57.89,17.72,87.35,23.01c10.75,1.89,21.52,3.49,32.3,4.81c197.42,23.62,401.45-57.19,526.96-229.24
						c184.95-253.41,129.4-608.76-123.97-793.69c-48.82-35.58-101.44-62.36-155.9-80.37c-6.34-2.17-12.78-4.16-19.24-6.01
						c-17.26-5.07-34.65-9.29-52.15-12.66c-40.46-7.78-81.46-11.04-122.17-9.94c-40.7,1.05-81.22,6.49-120.7,16.17
						c-12.55,3.07-25.01,6.55-37.37,10.5c-18.52,5.92-36.75,12.73-54.68,20.59c-89.37,38.87-169.9,101.3-231.5,185.74
						C295,395.67,268.22,575.14,312.82,736.53z"/>
					<path class="st4" d="M859.65,1154.53c-22.49,0-45.08-1.33-67.73-4.04c-10.75-1.31-21.65-2.93-32.39-4.82
						c-29.87-5.36-59.35-13.13-87.61-23.08c-24.17-8.49-47.79-18.62-70.21-30.11c-26.79-13.65-52.81-29.64-77.32-47.53
						c-9.03-6.66-16.89-12.75-24.05-18.6c-15.66-12.74-30.93-26.59-45.38-41.14c-68.16-68.76-117.87-154.6-143.75-248.23l0,0
						c-46.67-168.87-14.29-346.77,88.84-488.07c59.62-81.74,139.92-146.16,232.19-186.29c17.47-7.66,35.92-14.6,54.84-20.65
						c12.13-3.87,24.74-7.41,37.48-10.53c39.6-9.7,80.33-15.16,121.05-16.22c41.12-1.11,82.35,2.25,122.53,9.97
						c17.48,3.36,35.07,7.64,52.3,12.7c6.89,1.97,13.21,3.95,19.31,6.03c55.58,18.38,108.19,45.51,156.35,80.61
						c253.74,185.2,309.52,542.3,124.34,796.04C1212.53,1068.47,1040.39,1154.53,859.65,1154.53z M314.44,736.09
						c25.73,93.07,75.14,178.4,142.9,246.75c14.36,14.47,29.54,28.23,45.12,40.9c7.11,5.82,14.94,11.87,23.91,18.5
						c24.37,17.78,50.23,33.68,76.87,47.25c22.29,11.42,45.77,21.49,69.79,29.93c28.1,9.89,57.4,17.61,87.09,22.94
						c10.67,1.88,21.51,3.49,32.21,4.79c203.44,24.35,404.79-63.24,525.4-228.57c184.09-252.24,128.64-607.23-123.6-791.34
						c-47.88-34.89-100.17-61.86-155.43-80.14c-6.06-2.07-12.33-4.03-19.17-5.99c-17.14-5.04-34.63-9.28-52-12.63
						c-39.96-7.68-80.93-11.02-121.81-9.91c-40.49,1.05-80.98,6.47-120.34,16.12c-12.67,3.1-25.2,6.62-37.26,10.47
						c-18.81,6.01-37.16,12.92-54.52,20.53c-91.73,39.9-171.54,103.93-230.82,185.19C300.24,391.35,268.06,568.21,314.44,736.09
						L314.44,736.09z"/>
				</g>
				<g class="st7">
					<path class="st4" d="M1319.08,919.56c-125.5,172.08-329.56,252.89-526.97,229.24c-10.79-1.3-21.55-2.9-32.28-4.8
						c-29.47-5.28-58.68-12.93-87.35-22.99c-23.74-8.36-47.17-18.33-69.99-30.02c-26.55-13.51-52.3-29.28-77.13-47.39
						c-8.17-6.08-16.2-12.21-23.97-18.54c-15.96-12.99-30.99-26.72-45.24-41.05c-69.76-70.38-118.04-155.94-143.33-247.5
						c-13.91-50.28-20.88-102.35-20.67-154.58c26.13,86.79,73.13,167.75,139.68,234.9c14.21,14.38,29.28,28.06,45.24,41.05
						c7.73,6.33,15.76,12.47,23.97,18.54c24.83,18.11,50.58,33.88,77.09,47.4c22.86,11.68,46.25,21.65,69.99,30.01
						c28.67,10.07,57.92,17.71,87.35,22.99c10.77,1.89,21.53,3.49,32.31,4.79c197.41,23.65,401.44-57.16,526.97-229.24
						c73.26-100.37,108.74-216.73,109.19-332.12C1453.61,584.89,1428.25,769.99,1319.08,919.56z"/>
				</g>
				<g>
					<path class="st4" d="M859.65,1165.78c-22.93,0-45.98-1.35-69.07-4.12c-10.97-1.34-22.07-2.99-33.01-4.91
						c-30.5-5.48-60.57-13.39-89.4-23.54c-24.64-8.66-48.73-18.99-71.6-30.71c-27.29-13.91-53.83-30.21-78.82-48.45
						c-9.23-6.81-17.24-13.01-24.55-18.98c-15.95-12.97-31.51-27.08-46.24-41.93C377.44,923,326.75,835.47,300.35,739.98l0,0
						c-47.6-172.21-14.58-353.62,90.59-497.71c60.81-83.35,142.69-149.05,236.79-189.98c17.79-7.8,36.61-14.89,55.9-21.05
						c12.38-3.95,25.24-7.56,38.24-10.74c40.37-9.9,81.9-15.46,123.43-16.54c41.91-1.13,83.96,2.29,124.95,10.17
						c17.83,3.43,35.78,7.79,53.35,12.95c7,2,13.5,4.03,19.78,6.18c56.58,18.72,110.23,46.37,159.34,82.16
						c258.76,188.87,315.64,553.03,126.8,811.78C1219.5,1078.03,1043.96,1165.78,859.65,1165.78z M325.29,733.09
						c25.22,91.22,73.65,174.84,140.04,241.83c14.08,14.18,28.96,27.68,44.22,40.1c7,5.73,14.67,11.66,23.5,18.17
						c23.83,17.39,49.18,32.97,75.29,46.27c21.86,11.2,44.87,21.07,68.41,29.34c27.53,9.69,56.25,17.26,85.34,22.48
						c10.44,1.84,21.08,3.42,31.58,4.7c199.44,23.88,396.73-61.98,514.94-224.02c180.43-247.22,126.08-595.16-121.14-775.61
						c-46.93-34.2-98.18-60.63-152.33-78.54c-5.99-2.04-12.08-3.95-18.74-5.85c-16.88-4.96-34.01-9.12-51.04-12.4
						c-39.15-7.52-79.29-10.8-119.38-9.71c-39.7,1.03-79.38,6.35-117.96,15.8c-12.42,3.04-24.7,6.49-36.51,10.26
						c-18.44,5.89-36.42,12.66-53.42,20.11c-89.92,39.11-168.14,101.87-226.24,181.51C311.37,395.2,279.82,568.54,325.29,733.09
						L325.29,733.09z"/>
				</g>
				<g>
					<path class="st4" d="M859.65,1169.54c-23.08,0-46.27-1.36-69.52-4.15c-11.05-1.35-22.21-3.01-33.21-4.94
						c-30.71-5.51-60.97-13.48-90-23.7c-24.79-8.71-49.04-19.11-72.07-30.91c-27.47-13.99-54.17-30.41-79.33-48.76
						c-9.3-6.86-17.36-13.1-24.71-19.11c-16.04-13.05-31.71-27.25-46.53-42.19c-69.97-70.59-121-158.7-147.56-254.8l0,0
						c-47.91-173.32-14.67-355.9,91.18-500.92c61.2-83.89,143.61-150.01,238.33-191.21c17.9-7.85,36.85-14.98,56.26-21.18
						c12.47-3.98,25.42-7.61,38.49-10.81C761.61,6.9,803.41,1.3,845.21,0.21c42.18-1.14,84.51,2.3,125.76,10.23
						c17.95,3.45,36.02,7.84,53.71,13.04c7.03,2.01,13.59,4.06,19.93,6.23c56.91,18.83,110.91,46.66,160.33,82.68
						c260.43,190.09,317.68,556.6,127.62,817.02C1221.82,1081.21,1045.15,1169.54,859.65,1169.54z M328.91,732.09
						c25.05,90.6,73.14,173.65,139.09,240.18c13.98,14.09,28.76,27.49,43.93,39.83c6.96,5.69,14.58,11.59,23.35,18.06
						c23.66,17.26,48.84,32.74,74.77,45.95c21.72,11.13,44.57,20.93,67.95,29.15c27.35,9.63,55.86,17.14,84.77,22.32
						c10.37,1.82,20.94,3.4,31.37,4.67c198.09,23.7,394.05-61.57,511.46-222.51c179.21-245.55,125.23-591.14-120.33-770.37
						c-46.61-33.97-97.51-60.22-151.3-78.01c-5.96-2.04-11.99-3.92-18.59-5.81c-16.78-4.93-33.8-9.06-50.71-12.32
						c-38.88-7.47-78.78-10.71-118.57-9.64c-39.43,1.02-78.85,6.3-117.17,15.7c-12.34,3.02-24.54,6.44-36.27,10.19
						c-18.31,5.85-36.16,12.57-53.05,19.98c-89.33,38.85-167.01,101.18-224.72,180.29C315.08,396.49,283.74,568.65,328.91,732.09
						L328.91,732.09z"/>
				</g>
				<g>
					<path class="st4" d="M369.27,870.7c272,301.39,750.37,241.6,863.87-144.15c77.22-262.44-120.12-540.67-376.93-598.7
						c-186.91-42.23-387.86-1.7-532.71,270.47c0,0-45.52,130.39-29.8,227.81s47.44,189.52,47.44,189.52L369.27,870.7z"/>
				</g>
				<g>
					<path class="st45" d="M1233.13,726.55c-113.49,385.74-591.88,445.53-863.86,144.16l-5.69-11.16
						c342.11,145.99,746.93,14.39,868.94-373.5C1254.66,563.08,1256.95,645.56,1233.13,726.55z"/>
				</g>
				<g>
					<path class="st4" d="M786.58,1135.28c-62.85,0-126.7-9.94-188.73-30.03l-2.18-0.9c-27.43-13.97-54.05-30.33-79.14-48.64
						c-9.27-6.84-17.3-13.05-24.63-19.05c-16-13.02-31.62-27.18-46.4-42.07c-69.77-70.38-120.64-158.23-147.13-254.06l0,0
						c-47.76-172.82-14.62-354.87,90.92-499.47C450.3,157.41,532.47,91.48,626.91,50.41l1.43-0.62l1.53-0.31
						c73.56-15.16,154.39-13,240.26,6.4c152.97,34.56,294.01,139.83,377.3,281.6c76.55,130.29,96.95,275.97,57.44,410.22
						c-42.94,145.89-132.58,258.33-259.22,325.18C967.22,1114.26,877.95,1135.28,786.58,1135.28z M608.22,1077.08
						c144.22,46.39,298.49,35.21,423.43-30.74c119.32-62.98,203.84-169.18,244.45-307.12c37.14-126.21,17.77-263.49-54.53-386.56
						C1142.4,217.91,1008.55,117.9,863.52,85.13c-81.09-18.33-157.14-20.54-226.07-6.59c-88.96,38.99-166.36,101.27-223.93,180.2
						c-100.11,137.16-131.53,309.87-86.24,473.8l0,0c25.12,90.88,73.37,174.19,139.52,240.93c14.02,14.13,28.85,27.58,44.06,39.95
						c6.97,5.71,14.62,11.62,23.42,18.11C557.7,1048.61,582.59,1063.95,608.22,1077.08z"/>
				</g>
				<g>
					<path class="st4" d="M784.74,1078.78c-157.06,0-313.7-70.39-427.86-196.89l-1.47-1.63l-30.03-59.16
						c-1.32-3.82-32.38-94.58-48.14-192.3c-16.2-100.44,28.6-230.48,30.52-235.97l1.03-2.34
						C435.95,151.52,621.37,57.67,859.9,111.58c136.98,30.95,263.27,125.19,337.83,252.09c68.57,116.71,86.84,247.26,51.43,367.6
						c-51.11,173.69-178.62,295.68-349.84,334.69C861.51,1074.57,823.11,1078.78,784.74,1078.78z M383.13,861.14
						c133.92,147.3,328.7,213.3,508.77,172.27c159.1-36.25,277.64-149.8,325.23-311.56c32.78-111.39,15.66-232.59-48.19-341.26
						c-69.97-119.09-188.25-207.48-316.4-236.44c-221.64-50.07-394.45,37.69-513.66,260.85c-4.36,12.97-42.77,131.19-28.69,218.49
						c14.39,89.21,42.82,175.11,46.38,185.67L383.13,861.14z"/>
				</g>
				<g>
					<path class="st2" d="M1484.23,758.84c-18.47,110.52-99.2,192.24-180.35,182.54c-81.11-9.7-131.92-107.16-113.45-217.67
						c0.53-3.27,1.15-6.49,1.8-9.72c21.43-105.57,99.81-182.25,178.55-172.82c60.85,7.3,104.62,63.85,114.93,138.36
						C1489.13,704.37,1488.84,731.19,1484.23,758.84z"/>
					<path class="st4" d="M1316.77,958.84c-4.95,0-9.91-0.29-14.88-0.89c-35.96-4.3-67.58-23.39-91.43-55.21
						c-34.76-46.38-48.07-112.64-36.51-181.78c0.56-3.42,1.21-6.85,1.91-10.29c23.3-114.77,109.77-196.51,196.89-186.07
						c66.94,8.03,117.76,67.94,129.49,152.65c3.75,27.27,3.23,55.64-1.55,84.34v0.01C1481.91,874.01,1401.28,958.84,1316.77,958.84z
						 M1357.39,557.07c-66.07,0-130.02,67.71-148.8,160.25c-0.62,3.01-1.19,6.02-1.68,9.08c-9.92,59.37,1.41,117.79,30.29,156.33
						c18.24,24.34,41.99,38.9,68.67,42.09c72.32,8.65,144.92-67.05,161.9-168.72c4.23-25.38,4.7-50.37,1.41-74.28
						c-9.58-69.2-48.98-117.9-100.38-124.07C1364.99,557.29,1361.18,557.07,1357.39,557.07z M1484.23,758.84h0.05H1484.23z"/>
				</g>
				<g class="st7">
					<path class="st4" d="M1484.23,758.84c-18.47,110.52-99.2,192.24-180.35,182.54c-81.11-9.7-131.92-107.16-113.45-217.67
						c0.53-3.27,1.15-6.49,1.8-9.72c11.42,14.28,26.12,27.68,41.95,28.64c34.83,2.12,69.02-42.47,69.02-42.47l182.51-20.64
						C1489.13,704.37,1488.84,731.19,1484.23,758.84z"/>
				</g>
				<g>
					
						<ellipse transform="matrix(0.2495 -0.9684 0.9684 0.2495 295.1312 1912.4595)" class="st2" cx="1381.46" cy="765.82" rx="161.22" ry="120.27"/>
					<path class="st4" d="M1363.61,926.61c-20.29,0-39.46-6.53-56.36-19.35c-55.33-41.98-67.21-139.54-26.5-217.48
						c22.8-43.65,57.97-73.64,96.51-82.27c28.37-6.35,55.49-0.53,78.4,16.85c55.33,41.97,67.22,139.53,26.51,217.48l0,0
						c-22.8,43.65-57.98,73.64-96.51,82.27C1378.2,925.78,1370.84,926.61,1363.61,926.61z M1399.27,608.52
						c-6.96,0-14.06,0.8-21.25,2.41c-37.53,8.4-71.86,37.73-94.17,80.48c-39.96,76.5-28.51,172.09,25.52,213.08
						c22.06,16.74,48.16,22.35,75.53,16.23c37.53-8.4,71.86-37.74,94.18-80.48c39.96-76.51,28.51-172.09-25.52-213.08
						C1437.29,614.81,1418.81,608.52,1399.27,608.52z"/>
				</g>
				<g class="st7">
					<path class="st4" d="M1258.15,814.45c-2.46-30.45,3.42-61.68,15.41-89.92c11.46,68.95,66.33,105.46,127.64,82.3
						c39.62-14.95,72.8-51.42,91.34-95.14c0.75,4.34,1.28,8.87,1.66,13.48c6.24,77.53-41.55,160.37-106.74,185.02
						C1322.26,934.84,1264.39,891.94,1258.15,814.45z"/>
				</g>
				<g>
					<path class="st4" d="M1363.72,940.31c-3.5,0-7-0.19-10.51-0.58c-26.46-2.95-49.85-17-67.65-40.64
						c-27.9-37.07-38.6-93.97-28.63-152.22c16.98-99.25,85.27-170.83,155.39-163.05c26.46,2.95,49.85,17,67.65,40.65
						c27.89,37.07,38.59,93.97,28.63,152.21C1492.47,870.96,1430.06,940.31,1363.72,940.31z M1402.2,613.26
						c-50.52,0-102.46,61.33-115.69,138.67c-8.6,50.26,0.01,98.53,23.03,129.12c12.71,16.88,28.96,26.86,47,28.87
						c52.51,5.81,108.66-57.47,122.5-138.29l0,0c8.6-50.26-0.01-98.53-23.03-129.11c-12.7-16.88-28.95-26.86-46.99-28.87
						C1406.74,613.38,1404.47,613.26,1402.2,613.26z"/>
				</g>
				<g class="st12">
					<path class="st2" d="M967.83,265.88c0,0-247.12-39.5-412.81,70.47c-0.17,0.12-0.35,0.23-0.52,0.35
						c-34.85,23.17-62.8,55.37-81.16,92.99c-24.27,49.74-33.72,87.58-40.74,121.2c-21.33,102.28-12.18,154.2-12.18,154.2
						c-46.91-66.17-66.9-134.36-49.98-219.73c1.69-8.41,3.74-17.02,6.13-25.79c0.54-2.02,1.13-4.02,1.74-6.02
						c-0.04-0.03-0.01-0.07,0.05-0.12c6.08-17.43,14.94-40.03,27.06-64.68c36.52-74.39,102.51-167.59,210.99-194.6
						C819.27,143.62,978.48,256.95,967.83,265.88z"/>
				</g>
				<g class="st12">
					
						<ellipse transform="matrix(0.9984 -0.0558 0.0558 0.9984 -29.2045 62.2375)" class="st2" cx="1099.58" cy="553.94" rx="75.93" ry="88.48"/>
				</g>
				<g class="st12">
					
						<ellipse transform="matrix(0.9902 -0.1399 0.1399 0.9902 -89.0444 162.1028)" class="st2" cx="1108.56" cy="714.45" rx="31.35" ry="36.54"/>
				</g>
			</g>
		</g>
		<g>
			<path class="st2" d="M694.57,1587l-37.85,1.97c-28.83,1.5-53.42-20.66-54.92-49.49v0c-1.5-28.83,20.66-53.42,49.49-54.92
				l37.85-1.97c28.83-1.5,53.42,20.66,54.92,49.49v0C745.56,1560.91,723.4,1585.5,694.57,1587z"/>
		</g>
		<g class="st7">
			<path class="st4" d="M744.13,1534.79c0,27.67-21.65,50.77-49.56,52.22l-37.86,1.98c-28.83,1.48-53.43-20.67-54.9-49.5
				c-0.06-0.92-0.06-1.86-0.06-2.78c0-6.35,1.15-12.46,3.25-18.13c8.98,18.1,28.09,30.09,49.56,29l37.86-1.98
				c21.5-1.12,39.28-15.06,46.31-34.02c3.07,6.2,4.96,13.14,5.35,20.5C744.13,1532.99,744.13,1533.9,744.13,1534.79z"/>
		</g>
		<g>
			<path class="st4" d="M653.92,1604.05c-16.66,0-32.5-6.07-44.96-17.3c-13.35-12.03-21.22-28.54-22.15-46.48
				c-1.92-37.05,26.65-68.75,63.69-70.68l37.85-1.97c37.11-1.93,68.75,26.65,70.68,63.69c1.92,37.05-26.65,68.75-63.69,70.68
				l-37.85,1.97C656.3,1604.01,655.11,1604.05,653.92,1604.05z M691.9,1497.52c-0.66,0-1.32,0.02-1.98,0.05l-37.85,1.97
				c-20.53,1.07-36.36,18.64-35.29,39.16c1.06,20.53,18.54,36.35,39.17,35.29l37.85-1.97c20.52-1.07,36.36-18.64,35.29-39.16
				c-0.52-9.94-4.87-19.09-12.27-25.76C709.9,1500.88,701.12,1497.52,691.9,1497.52z"/>
		</g>
		<g>
			<path class="st2" d="M1093.77,1656.7l53.22-22.6c11.37-4.83,18.33-16.45,17.2-28.76l-17.26-182.64
				c-1.33-14.06-12.37-25.24-26.41-26.75l-57.64-6.19L1093.77,1656.7z"/>
		</g>
		<g class="st7">
			<path class="st4" d="M1146.99,1634.09l-53.22,22.62l-16.57-143.42l51.27,27.38c7.53-3.19,21.26-1.24,29.33-3.13l6.41,67.81
				C1165.33,1617.64,1158.36,1629.27,1146.99,1634.09z"/>
		</g>
		<g>
			<path class="st4" d="M1093.78,1669.2c-4.86,0-9.49-2.86-11.51-7.62c-2.7-6.35,0.26-13.69,6.62-16.39l53.22-22.6
				c6.4-2.71,10.27-9.19,9.64-16.12l-17.25-182.6c-0.77-8.11-7.2-14.63-15.3-15.5l-57.64-6.19c-6.87-0.74-11.83-6.9-11.09-13.76
				c0.74-6.86,6.89-11.83,13.76-11.09l57.64,6.19c19.86,2.13,35.64,18.12,37.52,38.01l17.25,182.63
				c1.63,17.82-8.33,34.46-24.76,41.44l-53.22,22.6C1097.07,1668.88,1095.41,1669.2,1093.78,1669.2z"/>
		</g>
		<g>
			<path class="st2" d="M1393.67,1384.98c0,0,37.09-0.19,43.85,47.07c6.19,43.35-48.83,72.13-48.83,72.13s-86.55,67-243.52,58.53
				c0,0-53.94-52.09-9.47-94.07C1135.7,1468.63,1325.53,1448.14,1393.67,1384.98z"/>
		</g>
		<g class="st7">
			<path class="st4" d="M1388.7,1504.17c0,0-86.56,66.98-243.52,58.51c0,0-42.15-40.69-21.2-79.13c0.07,0.22,0.14,0.44,0.21,0.66
				c7.62,23.69,30.31,39.2,55.2,39c137.18-1.09,212.32-59.24,212.32-59.24s30.72-16.07,43.65-42.28c0.92,3.17,1.63,6.59,2.17,10.35
				C1443.7,1475.38,1388.7,1504.17,1388.7,1504.17z"/>
		</g>
		<g>
			<path class="st4" d="M1172.7,1575.95c-9.15,0-18.54-0.25-28.21-0.77l-4.65-0.25l-3.35-3.24c-1.27-1.22-31.06-30.4-30.87-65.62
				c0.1-17.51,7.33-33.16,21.5-46.54l3.06-2.89l4.18-0.45c1.86-0.2,186.51-20.78,250.82-80.39l3.56-3.31l4.87-0.02
				c0.06,0,0.12,0,0.18,0c16.66,0,49.57,12.04,56.11,57.8c6.94,48.56-46.19,79.9-54.43,84.45
				C1385.93,1521.79,1308.44,1575.95,1172.7,1575.95z M1150.83,1550.46c146.84,6.52,229.39-55.55,230.22-56.19l1.84-1.18
				c0.45-0.24,47.1-25.29,42.25-59.29c-3.91-27.37-19.55-34.13-27.35-35.79c-67.99,57.58-226.99,79.01-256.32,82.53
				c-7.22,7.8-10.78,16.2-10.85,25.58C1130.46,1525.16,1144.49,1543.26,1150.83,1550.46z"/>
		</g>
		<g>
			<path class="st2" d="M1074.98,1660.81c-67.78,10.66-205.82,26.34-345.13,6.41c-20.73-2.98-37.09-19.2-40.08-39.96l-8.54-59.89
				l-16.39-115.09c-4.11-28.77,18.58-54.31,47.61-53.63c75.13,1.71,213.8,2.54,335.33-9.81c26.05-2.66,49.17,16.69,51.42,42.77
				l5.58,65.09l9.72,113.68C1116.63,1634.97,1099.38,1657,1074.98,1660.81z"/>
		</g>
		<g class="st7">
			<path class="st4" d="M1074.98,1660.81c-67.78,10.66-205.82,26.34-345.13,6.41c-20.73-2.98-37.09-19.2-40.08-39.96l-8.54-59.89
				c59.33,50.71,160.07,74.16,276.41,55.88c8.92-1.39,17.31-3.16,25.22-5.29c-10.4-8.06-18.13-21.71-20.14-37.86
				c-3.48-27.88,11.4-52.66,33.23-55.38c0.06,0,0.15-0.03,0.21-0.03c1.89-0.24,17.66-2.19,31.48-3.9
				c20.79-2.6,40.37,15.77,45.16,41.61c17.1-21.15,26.67-44.6,31.99-65.71l9.72,113.68
				C1116.63,1634.97,1099.38,1657,1074.98,1660.81z"/>
		</g>
		<g>
			<path class="st4" d="M872.68,1689.32c-46.05,0-95.21-2.66-144.59-9.73c-26.13-3.74-46.97-24.53-50.67-50.55l-24.94-175.01
				c-2.48-17.35,2.77-34.81,14.4-47.91s28.17-20.37,45.87-19.98l0,0c72.4,1.67,212.07,2.61,333.77-9.74
				c15.92-1.62,31.44,3.12,43.77,13.34c12.39,10.27,19.98,24.76,21.35,40.8l15.32,178.77c2.65,30.99-19.33,59.05-50.04,63.87
				C1031.52,1680.31,957.38,1689.32,872.68,1689.32z M711.38,1411.12c-9.87,0-19.24,4.2-25.81,11.6
				c-6.74,7.59-9.79,17.72-8.35,27.78l24.94,175.01c2.15,15.09,14.27,27.15,29.47,29.33c136.98,19.62,272.71,4.44,341.42-6.36
				c17.8-2.8,30.54-19.07,29-37.04l-15.32-178.77c-0.8-9.31-5.2-17.72-12.39-23.68c-7.13-5.91-16.09-8.66-25.29-7.72
				c-123.06,12.49-263.88,11.54-336.87,9.86C711.91,1411.12,711.65,1411.12,711.38,1411.12z"/>
		</g>
		<g>
			<path class="st46" d="M976.15,1531c0.69,5.56,14.1,49.49,14.1,49.49s14.22-1.77,31.69-3.94c21.82-2.71,36.7-27.51,33.23-55.37
				s-23.96-48.26-45.78-45.55c-14.73,1.83-31.69,3.94-31.69,3.94S975.03,1521.94,976.15,1531z"/>
		</g>
		<g>
			<path class="st46" d="M976.15,1531c0.69,5.56,14.1,49.49,14.1,49.49s14.22-1.77,31.69-3.94c21.82-2.71,36.7-27.51,33.23-55.37
				s-23.96-48.26-45.78-45.55c-14.73,1.83-31.69,3.94-31.69,3.94S975.03,1521.94,976.15,1531z"/>
		</g>
		<g>
			<path class="st2" d="M1055.55,1525.4c-7.18-21-24.51-34.94-42.79-32.69c-14.74,1.83-31.69,3.96-31.69,3.96s-2.07,32.43-1.8,46.6
				c-1.68-5.94-2.92-10.66-3.1-12.26c-1.15-9.07,1.54-51.45,1.54-51.45s16.95-2.1,31.69-3.93c21.83-2.72,42.32,17.66,45.78,45.54
				C1055.34,1522.6,1055.46,1524.01,1055.55,1525.4z"/>
		</g>
		<g class="st7">
			<path class="st4" d="M1021.94,1576.55c-17.48,2.16-31.69,3.93-31.69,3.93s-13.41-43.92-14.09-49.47
				c-1.15-9.07,1.54-51.45,1.54-51.45s0.06,0,0.15-0.03c-0.09,4.43,0,8.03,0.24,10.04c0.68,5.55,14.09,49.47,14.09,49.47
				s14.24-1.74,31.69-3.93c12.97-1.62,23.48-11.05,29.15-24.28c0.97,3.31,1.71,6.76,2.16,10.34
				C1058.62,1549.03,1043.77,1573.84,1021.94,1576.55z"/>
		</g>
		<g>
			<path class="st4" d="M998.46,1589.38c-9.42,0-17.84-6.13-20.61-15.35c-10.95-36.43-11.44-40.32-11.62-41.79v0
				c-0.67-5.41-0.36-20.06,0.92-43.55c0.58-10.43,8.52-18.94,18.88-20.23l22.12-2.75c13.69-1.69,27.19,3.32,38.06,14.14
				c10.22,10.17,16.93,24.41,18.88,40.1c4.15,33.3-14.66,63.14-41.91,66.53l-22.01,2.74
				C1000.25,1589.32,999.35,1589.38,998.46,1589.38z M986.07,1529.73c0.35,2.15,3.41,13.52,10.93,38.55
				c0.22,0.73,1.02,1.2,1.69,1.09l22.01-2.74c16.31-2.03,27.32-21.86,24.54-44.21c-1.4-11.27-6.07-21.35-13.14-28.39
				c-6.43-6.39-14.08-9.41-21.48-8.47l-22.12,2.75c-0.76,0.09-1.34,0.71-1.38,1.47C985.77,1514.44,985.69,1526.57,986.07,1529.73z"
				/>
		</g>
		<g>
			
				<ellipse transform="matrix(0.9924 -0.1234 0.1234 0.9924 -181.3206 133.1458)" class="st46" cx="983.97" cy="1530.03" rx="39.81" ry="50.85"/>
		</g>
		<g>
			<path class="st2" d="M1023.21,1542.89c-4.13-26.91-24.19-46.28-45.51-43.62c-17.01,2.13-29.8,17.63-32.96,37.57
				c-0.09-0.62-0.18-1.24-0.27-1.89c-3.48-27.88,11.4-52.66,33.23-55.38c21.83-2.72,42.32,17.69,45.78,45.54
				C1024.25,1531.25,1024.1,1537.24,1023.21,1542.89z"/>
		</g>
		<g class="st7">
			<path class="st4" d="M990.25,1580.48c-21.83,2.72-42.32-17.66-45.78-45.54c-1.12-9.1-0.33-17.84,2.07-25.61
				c6.53,22.56,24.6,37.89,43.71,35.5c14.71-1.83,26.29-13.7,31.16-29.8c0.95,3.22,1.62,6.59,2.07,10.07
				C1026.93,1552.99,1012.08,1577.76,990.25,1580.48z"/>
		</g>
		<g>
			<path class="st4" d="M986.26,1590.74c-11.86,0-23.35-5.03-32.84-14.47c-10.22-10.17-16.93-24.41-18.88-40.1v0
				c-4.14-33.29,14.67-63.14,41.92-66.53c27.15-3.38,52.8,20.94,56.94,54.24c4.15,33.29-14.66,63.14-41.92,66.53
				C989.74,1590.63,988,1590.74,986.26,1590.74z M954.39,1533.71c1.4,11.27,6.07,21.35,13.14,28.39c6.42,6.38,14.02,9.38,21.49,8.47
				c16.31-2.03,27.32-21.87,24.55-44.21c-2.78-22.35-18.35-38.89-34.63-36.86C962.62,1491.52,951.61,1511.36,954.39,1533.71
				L954.39,1533.71z"/>
		</g>
		<g>
			<path class="st4" d="M877.07,1686.8c-5.12,0-9.48-3.9-9.95-9.1l-10.04-110.62c-0.76-8.38-5.61-15.83-12.96-19.92l-20.42-11.35
				c-12.76-7.09-21.37-19.98-23.05-34.47l-11.66-100.57c-0.64-5.49,3.3-10.45,8.78-11.09c5.48-0.6,10.45,3.3,11.08,8.78
				l11.66,100.57c0.94,8.11,5.77,15.32,12.91,19.29l20.42,11.35c13.14,7.31,21.81,20.61,23.17,35.59l10.04,110.62
				c0.5,5.5-3.55,10.36-9.06,10.86C877.68,1686.79,877.37,1686.8,877.07,1686.8z"/>
		</g>
		<g>
			<path class="st4" d="M1187.49,2052.09c-66.02,0-110.8-18.78-112.77-19.63c-6.35-2.71-9.3-10.05-6.58-16.41
				c2.71-6.34,10.04-9.29,16.39-6.59l0,0c0.46,0.2,47.4,19.64,113.96,17.44c88.87-3.04,168.95-41.41,238.04-114.06
				c4.76-5,12.67-5.2,17.67-0.44c5,4.76,5.2,12.67,0.44,17.67c-92.29,97.05-190.44,119.83-256.52,121.86
				C1194.52,2052.03,1190.97,2052.09,1187.49,2052.09z"/>
		</g>
		<g>
			<path class="st4" d="M1587.46,1251.38c-1.25,0-2.52-0.19-3.78-0.59c-79.65-25.24-127.43-91.66-138.15-192.07
				c-7.9-73.92,6.88-139.52,7.51-142.28c1.55-6.73,8.29-10.94,14.97-9.38c6.73,1.54,10.93,8.24,9.39,14.97
				c-0.57,2.51-55.34,251.32,113.83,304.93c6.58,2.08,10.22,9.11,8.14,15.69C1597.68,1247.97,1592.76,1251.38,1587.46,1251.38z"/>
		</g>
		<g>
			<path class="st4" d="M1600.63,1031.41c7.49-4.23,15.1-9.02,22.03-13.97c3.47-2.54,6.83-5.13,10.08-7.78
				c3.23-2.68,6.25-5.52,9.19-8.34c2.94-2.82,5.59-5.87,8.12-8.91c2.56-3.01,4.87-6.16,6.89-9.42c4.21-6.44,7.21-13.31,9.51-20.35
				l4.27-13.02l14.31,2.66c6.56,1.22,14.24,2.42,21.37,3.16c7.25,0.83,14.47,1.28,21.5,1.3c6.98-0.09,13.87-0.57,19.89-2.13
				c6.06-1.46,11.08-3.9,14.14-6.76c1.53-1.45,2.59-3.05,3.46-4.85c0.89-2.09,1.49-4.45,1.77-6.98c0.61-5.07-0.32-10.84-2.31-16.41
				c-4.09-11.25-12.81-21.32-23.57-28.12c-10.87-6.78-23.84-10.45-37.35-10.94c-3.39-0.1-6.8-0.06-10.23,0.16l-11.14,0.99
				c-7.5,0.84-15.01,1.88-22.53,3.12c-29.97,5.09-60.35,12.84-89.18,22.21l-0.41,0.13c-7.88,2.56-16.34-1.75-18.9-9.63
				c-2.56-7.88,1.75-16.34,9.62-18.9h0c31.04-10.09,61.84-17.92,93.94-23.41c8.02-1.32,16.09-2.44,24.24-3.35
				c4.13-0.36,8.11-0.8,12.38-1.09c4.42-0.29,8.89-0.34,13.37-0.21c17.9,0.63,36.3,5.59,52.18,15.53
				c15.76,10.01,28.97,24.78,35.76,43.2c3.3,9.21,5.13,19.35,3.96,29.97c-0.57,5.28-1.89,10.65-4.12,15.79
				c-2.4,5.37-5.91,10.3-10,14.36c-8.34,8.1-18.22,12.25-27.31,14.72c-9.22,2.47-18.11,3.51-26.84,3.92
				c-8.71,0.37-17.24,0.03-25.64-0.77c-8.51-0.94-16.43-2.09-25.24-4.24l18.57-10.35c-3.64,10.12-9.02,19.6-15.68,27.74
				c-6.63,8.18-14.37,15.16-22.75,20.76c-4.14,2.88-8.47,5.4-12.9,7.6c-4.4,2.26-8.91,4.21-13.51,5.85
				c-9.22,3.34-18.45,5.64-28.43,6.41c-2.79,0.21-5.23-1.87-5.45-4.67c-0.16-2.02,0.9-3.86,2.56-4.8L1600.63,1031.41z"/>
		</g>
		<g>
			<path class="st4" d="M257.64,1003.53c-9.98-0.77-19.21-3.07-28.43-6.41c-4.6-1.64-9.12-3.58-13.52-5.84
				c-4.43-2.2-8.76-4.73-12.9-7.6c-8.38-5.61-16.12-12.58-22.75-20.76c-6.66-8.14-12.04-17.62-15.67-27.74l18.57,10.35
				c-7.8,1.91-14.72,2.99-22.19,3.89c-7.36,0.83-14.81,1.31-22.39,1.25c-7.57-0.04-15.29-0.55-23.2-1.91
				c-7.89-1.32-16.09-3.44-24.28-7.62c-8.08-4.06-16.39-11.01-21.28-20.26l-1.74-3.46l-1.31-3.34c-0.77-2.27-1.53-4.58-1.97-6.97
				c-1.02-4.74-1.36-9.67-0.98-14.45c0.65-9.63,3.96-18.53,8.38-26.09c4.48-7.56,10.06-13.96,16.11-19.42
				c12.18-10.87,26.07-18.35,40.28-23.78c14.34-5.36,28.75-8.82,43.81-10.61c15.22-1.86,30.36-1.3,45.13,0.62
				c7.38,1.03,14.69,2.38,21.9,4.11c3.61,0.88,7.2,1.83,10.79,2.91c3.68,1.1,6.95,2.16,11.1,3.74c7.74,2.95,11.63,11.61,8.68,19.35
				c-2.95,7.74-11.61,11.63-19.35,8.68l-0.47-0.18c-2.31-0.87-5.61-1.99-8.56-2.85c-3.04-0.91-6.13-1.73-9.24-2.49
				c-6.23-1.5-12.54-2.66-18.85-3.54c-12.64-1.64-25.36-2.08-37.62-0.56c-24.89,3.07-50.36,11.59-67.5,26.87
				c-8.44,7.54-14.21,16.92-14.67,25.34c-0.18,2.11-0.03,4.16,0.42,6.17c0.15,1.02,0.53,2,0.84,3l0.57,1.49l0.62,1.16
				c1.56,3.05,4.38,5.46,8.59,7.54c8.48,4.21,21.1,5.44,33.45,4.99c6.25-0.21,12.62-0.72,18.99-1.51c6.27-0.73,13.02-1.8,18.74-2.87
				l14.31-2.67l4.27,13.02c2.31,7.04,5.3,13.91,9.51,20.35c2.02,3.27,4.33,6.41,6.89,9.42c2.52,3.04,5.17,6.08,8.11,8.91
				c2.94,2.81,5.96,5.66,9.19,8.33c3.25,2.65,6.61,5.24,10.08,7.78c6.94,4.95,14.54,9.74,22.03,13.97l0.38,0.21
				c2.44,1.38,3.3,4.47,1.92,6.91C261.45,1002.74,259.54,1003.68,257.64,1003.53z"/>
		</g>
	</g>
</g>
</svg>
