<?xml version="1.0" encoding="utf-8"?>
<!-- Generator: Adobe Illustrator 26.2.1, SVG Export Plug-In . SVG Version: 6.00 Build 0)  -->
<svg version="1.1" id="Layer_1" xmlns="http://www.w3.org/2000/svg" xmlns:xlink="http://www.w3.org/1999/xlink" x="0px" y="0px"
	 viewBox="0 0 3150.74 2311.88" style="enable-background:new 0 0 3150.74 2311.88;" xml:space="preserve">
<style type="text/css">
	.st0{fill:#4D2570;}
	.st1{fill:#401F63;}
	.st2{fill:#371A45;}
	.st3{fill:#FFFFFF;}
	.st4{fill:#D8D8D8;}
	.st5{fill:#FFC533;}
	.st6{opacity:0.35;}
	.st7{fill:#111A28;}
	.st8{opacity:0.5;}
	.st9{fill:#5F5F82;}
	.st10{opacity:0.3;}
	.st11{opacity:0.2;}
	.st12{fill:#000072;}
	.st13{fill:#686779;}
	.st14{fill:#545468;}
	.st15{fill:none;stroke:#4D1C54;stroke-width:30.9335;stroke-linecap:round;stroke-linejoin:round;stroke-miterlimit:10;}
	.st16{fill:#232333;}
	.st17{fill:#FF8D8D;}
	.st18{fill:none;stroke:#6B184E;stroke-width:30.9335;stroke-linecap:round;stroke-linejoin:round;stroke-miterlimit:10;}
	.st19{fill:#E8E8E8;}
	.st20{fill:#FFB81A;}
	.st21{fill:#F99C16;}
	.st22{fill:#FF9E1F;}
	.st23{fill:#FFD31A;}
	.st24{fill:#FFE266;}
	.st25{fill:#FDB71A;}
	.st26{fill:#FF0068;}
	.st27{fill:#55DFFF;}
	.st28{fill:#27ADFF;}
	.st29{fill:#C6A289;}
	.st30{fill:#9B7861;}
	.st31{fill:#512717;}
	.st32{fill:#FEE1CC;}
	.st33{fill:#E2E2E2;}
	.st34{fill:#F2CBB1;}
	.st35{fill:#FFA6A6;}
	.st36{fill:#C6A28A;}
	.st37{fill:#22A7F0;}
	.st38{fill:#1C7AEA;}
	.st39{opacity:0.7;}
	.st40{fill:#FAA327;}
	.st41{fill:#EF7F25;}
	.st42{fill:#F9D3B7;}
	.st43{opacity:0.15;}
	.st44{fill:#FFAD40;}
	.st45{fill:#FF9343;}
	.st46{fill:#FFF3E9;}
	.st47{fill:#FF8080;}
	.st48{fill:#AAAAAA;}
	.st49{fill:#CCCCCC;}
	.st50{fill:#FF9522;}
	.st51{fill:#FFD243;}
	.st52{fill:#9E9E9E;}
	.st53{fill:#7C7C7C;}
	.st54{fill:#E5711A;}
	.st55{fill:#F27E80;}
	.st56{fill:#FF5C64;}
	.st57{fill:#FF999E;}
	.st58{fill:#FC7581;}
	.st59{fill:#3A3A3A;}
	.st60{fill:#00BBF4;}
	.st61{fill:#62ED2E;}
	.st62{fill:#31C418;}
	.st63{fill:#2BC614;}
	.st64{fill:#99A4C4;}
	.st65{fill:#FFDE52;}
	.st66{fill:#F2A83D;}
	.st67{fill:#220F2D;}
	.st68{fill:#DB2C2C;}
	.st69{fill:#45CFFF;}
	.st70{fill:#52BF2E;}
	.st71{fill:#80D362;}
	.st72{fill:#30A010;}
</style>
<g>
	<g>
		<g>
			<path class="st0" d="M976.62,853.95c0,0-897.36,0.81-956.06,213.63c-58.76,213.03,465.85,267.39,465.85,267.39
				s-253.48,42.9-240.87,183.43C262.16,1703.69,683.07,1663,683.07,1663s-252.59,135.96-73.51,260.27
				c144.52,100.31,412.92,91.23,412.92,91.23s134.61,266.7,558.19,280.83c467.24,15.58,566.98-271.53,566.98-271.53
				s380.53,7.48,468.67-126.47c62.36-94.77-59.51-178.54-59.51-178.54s344.6-34.11,362.04-158.36
				c18.19-129.58-222.21-184.67-222.21-184.67s581.46-20.4,404.64-264.18c-159.04-219.26-1005.7-272.58-1005.7-272.58L976.62,853.95
				z"/>
		</g>
		<g>
			<path class="st1" d="M2806.06,1141.5c-84.75,99.31-461.73,72-461.73,72s-395.79,241.15-769.93,239.43
				c-374.1,1.71-769.89-239.43-769.89-239.43s-376.97,27.31-461.73-72c-69.77-81.84,120.87-119.24,120.87-119.24l1110.74-37.55
				l1110.78,37.55C2685.19,1022.26,2875.83,1059.65,2806.06,1141.5z"/>
		</g>
		<g>
			<path class="st1" d="M2655.75,1364.35c0,0,231.62,53.05,214.11,177.92c-16.82,119.69-348.86,152.57-348.86,152.57
				s117.42,80.7,57.35,172.05c-84.93,129.03-451.57,121.84-451.57,121.84s-96.11,276.64-546.29,261.62
				c-408.13-13.64-537.84-270.57-537.84-270.57s-258.63,8.72-397.87-87.92c-172.55-119.77,70.83-250.75,70.83-250.75
				s-405.55,39.18-421.57-139.36c-12.14-135.4,232.08-176.73,232.08-176.73s-505.46-52.39-448.84-257.63
				c0.5-1.73,1.04-3.5,1.61-5.19c87.35,165.63,641.78,266.12,641.78,266.12s-385.46-5.3-387.81,130.64
				c-2.92,167.51,524.86,161.56,524.86,161.56s-54.7,18.44-120.69,31.54c-87.27,17.32-147.58,116-46.02,186.49
				c139.24,96.64,385.65,109.47,385.65,109.47s88.89,219.91,497.13,229.89c301.99,7.38,431.48-79.97,455.53-141.09
				c13.94-35.38-53.74-56-53.74-56s460.48-28.92,545.41-157.99c24.81-37.72,6.07-121.11-45.48-121.11
				c-79.74,0-193.44-18.21-193.44-18.21s513.91-45.36,534.54-164.48c12.48-72.29-93.11-133.14-160.87-141.74
				c-109.51-13.94-229.09-25.16-229.09-25.16s576.02-45.52,641.21-204.24C3153.91,1346.87,2655.75,1364.35,2655.75,1364.35z"/>
		</g>
		<g>
			<path class="st2" d="M1616.35,2311.88c-11.83,0-23.87-0.2-36.21-0.61c-223.14-7.44-366.4-85.21-447.29-149.14
				c-70.72-55.89-107.14-110.47-119.6-131.48c-50.69,0.7-279.63-1.85-412.78-94.27c-49.44-34.32-73.28-73.43-70.86-116.25
				c3.24-57.29,54.13-106.91,94.94-137.79c-91.1,2.74-261.88-2.46-345.61-71.91c-29.51-24.48-46.09-54.96-49.29-90.6
				c-9-100.33,97.7-154.41,175.72-180.35c-113.22-19.44-314.13-66.9-381.77-165.94c-23.07-33.78-29.27-70.85-18.42-110.19
				c26.24-95.14,199.04-161.83,513.58-198.22c229.92-26.6,455.58-27.11,457.83-27.11c0,0,0.01,0,0.01,0
				c8.8,0,15.94,7.13,15.95,15.93c0.01,8.81-7.13,15.95-15.93,15.96c-246.22,0.23-895.2,36.96-940.7,201.91
				c-8.35,30.29-3.77,57.68,14,83.71c85.79,125.64,434.6,163.21,438.12,163.58c7.93,0.82,14.03,7.37,14.29,15.34
				c0.26,7.97-5.41,14.9-13.27,16.24c-2.39,0.41-238.8,42.07-227.66,166.28c2.45,27.24,14.83,49.78,37.87,68.89
				c104.71,86.9,379.49,61.55,382.25,61.27c7.54-0.72,14.57,3.97,16.78,11.23c2.21,7.26-1.01,15.08-7.69,18.68
				c-1.25,0.67-124.9,68.26-129.19,144.92c-1.74,30.98,17.51,60.66,57.2,88.21c138.43,96.09,400.66,88.51,403.29,88.39
				c6.24-0.19,11.98,3.21,14.77,8.75c0.32,0.62,33.87,65.39,117.33,130.91c77.02,60.47,213.65,134.05,427.17,141.17
				c235.09,7.9,372.49-63.58,446.35-124.89c79.78-66.22,104.8-135.28,105.04-135.97c2.29-6.48,8.32-10.97,15.36-10.67
				c3.74,0.08,372.75,5.78,455.03-119.29c52.96-80.49-50.8-153.57-55.24-156.65c-5.5-3.8-8.05-10.64-6.38-17.11
				c1.67-6.47,7.2-11.23,13.86-11.88c92.38-9.17,334.95-53.03,347.82-144.7c15.95-113.6-207.72-166.39-209.98-166.91
				c-7.8-1.79-13.07-9.09-12.3-17.06c0.76-7.97,7.31-14.14,15.31-14.42c99.42-3.51,367.85-33.96,415.42-131.45
				c14.83-30.39,7.26-65.53-23.13-107.43c-152.83-210.69-985.4-265.49-993.79-266.02c-8.79-0.55-15.46-8.13-14.91-16.92
				c0.55-8.79,8.09-15.53,16.92-14.91c34.88,2.2,856.02,56.35,1017.6,279.12c37.43,51.61,46.17,98.76,25.97,140.16
				c-47.11,96.52-246.62,131.12-361.34,143.17c73.07,29.4,168.64,85.84,155.82,177.1c-8.2,58.43-75.21,105.18-199.16,138.94
				c-53.98,14.71-106.61,23.64-140.29,28.45c41.05,40.35,79.57,107.5,34.46,176.05c-84.3,128.12-406.13,134.08-471.35,133.75
				c-10.49,23.47-41.14,81.2-108.68,137.79C1975.36,2239.85,1840.85,2311.87,1616.35,2311.88z"/>
		</g>
		<g>
			<g>
				<path class="st3" d="M874.27,1061.1c0,0-161.04-429.52-179.2-449.94s-98.35-89.15-182.65-199.75
					c-80.87-106.09-160.05-92.7-216.77-45.05c0,0-179.94,31.39-149.62,179.01C173.52,679.19,267.25,778.3,267.25,778.3
					s143.37,318.68,149.87,323.64C450.99,1127.82,712.81,1194.13,874.27,1061.1z"/>
			</g>
			<g>
				<path class="st3" d="M874.28,1061.09c-161.46,133.03-423.3,66.74-457.18,40.86c-5.74-4.39-118.28-253.63-144.43-311.67
					c-3.47-7.65-5.42-12-5.42-12s-93.72-99.11-121.19-232.9c-30.34-147.62,149.58-179.04,149.58-179.04
					c56.73-47.64,135.9-61.03,216.79,45.09c5.82,7.61,11.6,15.03,17.34,22.24c77.74,97.59,148.38,158.47,165.32,177.48
					C713.23,631.57,874.28,1061.09,874.28,1061.09z"/>
			</g>
			<g>
				<path class="st4" d="M874.28,1061.09c-161.46,133.03-423.3,66.74-457.18,40.86c-5.74-4.39-118.28-253.63-144.43-311.67
					c78.54,39.35,134.03,212.64,254.98,220.34c182.39,11.64,186.29-199.09,91.17-391.2c-43.37-87.59-199.97-7.06-267.94-0.52
					c-68.53,6.62,150.73-76.22,178.88-185.22c77.74,97.59,148.38,158.47,165.32,177.48C713.23,631.57,874.28,1061.09,874.28,1061.09
					z"/>
			</g>
			<g>
				<path class="st2" d="M619.22,1157.61c-103.5,0-191.57-27.54-211.79-42.99c-4.09-3.13-9.67-7.39-153.66-327.4
					c-14.03-15.41-97.12-110.91-123.36-238.64c-8.85-43.12-2.14-81.44,19.96-113.89c40.27-59.15,118.82-79.06,138.24-83.19
					c34.29-27.68,71.72-40.14,108.54-36.06c45.05,5,88.1,34.03,127.95,86.31c63.51,83.31,125.2,143.12,158.33,175.25
					c10.94,10.61,18.84,18.27,23.55,23.57c18.67,21.01,144.18,353.53,182.21,454.94c2.39,6.38,0.47,13.57-4.79,17.91
					C806.42,1137.67,707.24,1157.61,619.22,1157.61z M428.72,1090.57c15.92,9.71,82.02,31.51,169.69,34.61
					c73.01,2.6,175.61-7.63,256.84-69.36C794.41,893.85,697.35,641.94,682.93,621.5c-4-4.46-11.83-12.05-21.69-21.6
					c-33.74-32.71-96.54-93.6-161.5-178.81c-34.36-45.08-70.06-69.96-106.1-73.95c-29.49-3.27-59.01,7.31-87.73,31.44
					c-2.15,1.81-4.75,3.02-7.52,3.5c-0.82,0.15-84.26,15.48-121.74,70.68c-16.99,25.03-22.04,55.11-15,89.41
					c26.27,127.9,116.27,224.23,117.18,225.18c1.23,1.3,2.22,2.79,2.96,4.41C332.71,884.94,415.66,1067.19,428.72,1090.57z"/>
			</g>
			<g>
				<path class="st3" d="M437.61,590.78c0,0,55.26-48.46,152.59-56.53c0,0,47.18-98.19,113.95-110.8
					c61.87-11.69,103.22,24.24,90.18,78.27c-11.91,49.35-76.49,100.11-77.34,177.47L437.61,590.78z"/>
			</g>
			<g>
				<path class="st3" d="M794.35,501.73c-11.92,49.35-76.5,100.1-77.34,177.44l-82.64-26.15l-196.74-62.23
					c0,0,55.25-48.48,152.57-56.53c0,0,47.2-98.19,113.94-110.83c41.54-7.85,73.83,5.78,86.63,31.93
					C797.06,468.16,798.62,483.95,794.35,501.73z"/>
			</g>
			<g>
				<path class="st4" d="M794.35,501.73c-11.92,49.35-76.5,100.1-77.34,177.44l-82.64-26.15c-0.6-1.83-14.79-47,23.68-85.47
					c34.13-34.13,125.18-66.58,132.71-112.18C797.06,468.16,798.62,483.95,794.35,501.73z"/>
			</g>
			<g>
				<path class="st2" d="M432.36,584.79c11.18-10.14,22.65-18,34.97-25.46c12.28-7.28,25.06-13.78,38.3-19.25
					c13.27-5.34,26.83-10.27,40.79-13.77c13.91-3.65,28.07-6.79,42.46-8.03l-13.12,9.03l0,0c5.27-10.56,10.67-19.71,16.64-29.15
					c5.96-9.3,12.32-18.38,19.26-27.12c13.84-17.44,29.77-33.96,49.76-46.86c10.03-6.33,21.12-11.77,33.32-14.93
					c6.31-1.56,11.93-2.52,17.89-3.16c5.93-0.59,11.93-0.97,18.03-0.71c12.15,0.39,24.68,2.63,36.61,7.78
					c11.88,5.06,23.15,13.31,31.25,24.36c8.18,10.98,12.74,24.4,13.81,37.39c1.12,13.15-0.71,25.54-4.47,37.5
					c-3.82,11.84-9.24,22.14-14.83,31.78c-5.62,9.64-11.53,18.62-17.26,27.46c-11.48,17.62-22.31,34.75-30.12,52.65
					c-7.9,17.83-12.47,36.36-12.71,55.08c-0.1,8.81-7.32,15.86-16.13,15.76c-8.81-0.1-15.86-7.31-15.76-16.11
					c0.25-23.56,6.18-46.81,15.38-67.52c9.12-20.85,21.06-39.5,32.58-57.23c11.41-17.66,23.01-34.9,28.46-51.58
					c5.38-16.68,4.36-34.41-4.65-46.26c-8.79-12.12-25.36-18.78-43.2-19.16c-4.45-0.2-9.01,0.11-13.58,0.55
					c-4.54,0.47-9.34,1.35-13.27,2.33c-8.26,2.13-16.39,6.05-24.18,10.96c-15.57,10.02-29.55,24.18-41.84,39.77
					c-6.18,7.8-11.95,16.03-17.37,24.51c-5.32,8.38-10.6,17.48-14.75,25.81l0,0c-1.83,4.69-5.94,7.81-10.57,8.61l-2.55,0.43
					c-6.45,1.09-13.03,1.01-19.55,1.72c-6.49,0.79-13.07,1.27-19.51,2.51c-13.02,1.87-25.8,5.13-38.49,8.77
					c-12.66,3.78-25.03,8.56-37.05,14.12c-11.9,5.5-23.97,12.12-34.07,19.43l-0.49,0.36c-3.56,2.58-8.54,1.78-11.12-1.78
					C428.86,592.05,429.41,587.48,432.36,584.79z"/>
			</g>
			<g>
				<path class="st2" d="M467.25,1099.39c-36.17,0-60.11-2.72-63.37-3.12c-8.74-1.05-14.97-8.99-13.91-17.73
					c1.05-8.75,9.01-15,17.73-13.93c2.7,0.32,270.61,30.41,412.31-126.35c5.91-6.53,15.99-7.04,22.52-1.14s7.04,15.99,1.14,22.52
					C733.61,1081.4,560.15,1099.39,467.25,1099.39z"/>
			</g>
			<g>
				<path class="st2" d="M293.63,350.54c1.35-0.12,1.84-0.07,2.6-0.08c0.76-0.01,1.33,0.05,1.98,0.08c1.29,0.06,2.48,0.2,3.66,0.35
					c2.39,0.28,4.62,0.75,6.85,1.27c4.41,1.09,8.66,2.5,12.64,4.36c8.02,3.6,15.1,8.54,21.24,14.12
					c6.11,5.64,11.12,12.03,15.42,18.62c2.16,3.29,3.9,6.78,5.82,10.13l4.72,10.44c1.81,4.01,0.03,8.72-3.97,10.54
					c-3.55,1.6-7.65,0.39-9.8-2.68l-0.45-0.64l-5.75-8.21c-2.17-2.49-4.13-5.13-6.38-7.44c-4.47-4.64-9.25-8.76-14.37-11.94
					c-5.15-3.12-10.52-5.45-15.93-6.69c-2.69-0.68-5.41-0.98-8.01-1.11c-1.29-0.03-2.6-0.05-3.77,0.07
					c-0.6,0.04-1.19,0.09-1.69,0.19c-0.24,0.05-0.56,0.07-0.7,0.13c-0.13,0.05-0.53,0.12-0.06,0.11
					c-8.74,1.12-16.72-5.06-17.84-13.8C278.72,359.64,284.89,351.66,293.63,350.54z"/>
			</g>
		</g>
		<g>
			<g>
				<path class="st3" d="M2276.44,1061.1c0,0,161.04-429.52,179.19-449.94s98.35-89.15,182.65-199.75
					c80.87-106.09,160.05-92.7,216.77-45.05c0,0,179.94,31.39,149.62,179.01c-27.49,133.82-121.21,232.93-121.21,232.93
					s-143.37,318.68-149.87,323.64C2699.72,1127.82,2437.89,1194.13,2276.44,1061.1z"/>
			</g>
			<g>
				<path class="st3" d="M2276.42,1061.09c161.46,133.03,423.3,66.74,457.18,40.86c5.74-4.39,118.28-253.63,144.43-311.67
					c3.47-7.65,5.42-12,5.42-12s93.72-99.11,121.19-232.9c30.34-147.62-149.58-179.04-149.58-179.04
					c-56.73-47.64-135.9-61.03-216.79,45.09c-5.82,7.61-11.6,15.03-17.34,22.24c-77.74,97.59-148.38,158.47-165.32,177.48
					C2437.48,631.57,2276.42,1061.09,2276.42,1061.09z"/>
			</g>
			<g>
				<path class="st4" d="M2276.42,1061.09c161.46,133.03,423.3,66.74,457.18,40.86c5.74-4.39,118.28-253.63,144.43-311.67
					c-78.54,39.35-134.03,212.64-254.98,220.34c-182.39,11.64-186.29-199.09-91.17-391.2c43.37-87.59,199.97-7.06,267.94-0.52
					c68.53,6.62-150.73-76.22-178.88-185.22c-77.74,97.59-148.38,158.47-165.32,177.48
					C2437.48,631.57,2276.42,1061.09,2276.42,1061.09z"/>
			</g>
			<g>
				<path class="st2" d="M2531.48,1157.61c-88.03,0-187.19-19.93-265.19-84.19c-5.26-4.34-7.19-11.53-4.79-17.91
					c38.02-101.41,163.54-433.94,182.21-454.94c4.72-5.31,12.62-12.97,23.56-23.57c33.14-32.13,94.83-91.94,158.33-175.25
					c39.86-52.28,82.91-81.32,127.95-86.31c36.82-4.08,74.25,8.39,108.54,36.06c19.43,4.12,97.97,24.03,138.24,83.19
					c22.1,32.46,28.81,70.77,19.96,113.89c-26.23,127.72-109.33,223.23-123.36,238.64c-143.99,320.01-149.57,324.27-153.65,327.4
					C2723.06,1130.06,2634.97,1157.61,2531.48,1157.61z M2295.45,1055.82c81.23,61.74,183.85,71.93,256.84,69.36
					c87.67-3.11,153.76-24.9,169.69-34.61c13.06-23.38,96.01-205.63,146.93-318.81c0.73-1.63,1.73-3.12,2.96-4.41
					c0.9-0.95,90.98-97.62,117.18-225.18c7.04-34.3,2-64.38-15-89.41c-37.48-55.2-120.92-70.53-121.76-70.68
					c-2.75-0.49-5.35-1.7-7.5-3.5c-28.73-24.13-58.26-34.7-87.73-31.44c-36.04,3.99-71.74,28.87-106.1,73.95
					c-64.96,85.21-127.76,146.1-161.5,178.81c-9.86,9.56-17.69,17.15-21.69,21.6C2453.35,641.97,2356.29,893.85,2295.45,1055.82z"/>
			</g>
			<g>
				<path class="st3" d="M2713.09,590.78c0,0-55.26-48.46-152.59-56.53c0,0-47.18-98.19-113.95-110.8
					c-61.87-11.69-103.22,24.24-90.18,78.27c11.91,49.35,76.49,100.11,77.34,177.47L2713.09,590.78z"/>
			</g>
			<g>
				<path class="st3" d="M2356.35,501.73c11.92,49.35,76.5,100.1,77.34,177.44l82.64-26.15l196.74-62.23
					c0,0-55.25-48.48-152.57-56.53c0,0-47.2-98.19-113.94-110.83c-41.54-7.85-73.83,5.78-86.63,31.93
					C2353.64,468.16,2352.09,483.95,2356.35,501.73z"/>
			</g>
			<g>
				<path class="st4" d="M2356.35,501.73c11.92,49.35,76.5,100.1,77.34,177.44l82.64-26.15c0.6-1.83,14.79-47-23.68-85.47
					c-34.13-34.13-125.18-66.58-132.71-112.18C2353.64,468.16,2352.09,483.95,2356.35,501.73z"/>
			</g>
			<g>
				<path class="st2" d="M2707.83,596.78c-10.09-7.31-22.17-13.93-34.07-19.43c-12.02-5.56-24.39-10.34-37.05-14.12
					c-12.69-3.64-25.47-6.9-38.49-8.77c-6.44-1.24-13.02-1.71-19.51-2.51c-6.51-0.71-13.09-0.63-19.55-1.72l-2.53-0.42
					c-4.97-0.84-8.87-4.24-10.6-8.61l0,0c-4.15-8.34-9.43-17.43-14.75-25.81c-5.42-8.47-11.19-16.71-17.37-24.51
					c-12.29-15.59-26.27-29.75-41.84-39.77c-7.78-4.92-15.92-8.84-24.18-10.96c-3.93-0.97-8.73-1.86-13.27-2.33
					c-4.56-0.45-9.12-0.75-13.57-0.55c-17.84,0.38-34.41,7.04-43.2,19.16c-9.01,11.86-10.02,29.58-4.65,46.26
					c5.45,16.69,17.05,33.92,28.46,51.58c11.52,17.73,23.46,36.38,32.58,57.23c9.2,20.71,15.13,43.96,15.38,67.52
					c0.09,8.81-6.97,16.02-15.78,16.11c-8.81,0.09-16.02-6.96-16.11-15.76c-0.24-18.72-4.81-37.25-12.71-55.08
					c-7.81-17.9-18.64-35.03-30.12-52.65c-5.73-8.84-11.64-17.82-17.26-27.46c-5.59-9.64-11.01-19.94-14.83-31.78
					c-3.76-11.96-5.59-24.35-4.47-37.5c1.07-13,5.63-26.42,13.81-37.39c8.09-11.05,19.36-19.29,31.25-24.36
					c11.93-5.15,24.45-7.39,36.61-7.78c6.1-0.26,12.1,0.12,18.03,0.71c5.96,0.64,11.57,1.6,17.89,3.16
					c12.21,3.16,23.29,8.59,33.32,14.93c19.99,12.9,35.91,29.42,49.76,46.86c6.94,8.74,13.3,17.82,19.26,27.12
					c5.97,9.45,11.37,18.59,16.64,29.15l0,0l-13.12-9.03c14.39,1.24,28.55,4.38,42.46,8.03c13.96,3.5,27.51,8.44,40.78,13.77
					c13.24,5.47,26.02,11.97,38.3,19.25c12.32,7.46,23.79,15.32,34.97,25.46c3.26,2.95,3.51,7.99,0.55,11.25
					c-2.75,3.03-7.3,3.46-10.54,1.13L2707.83,596.78z"/>
			</g>
			<g>
				<path class="st2" d="M2683.46,1099.39c-92.9,0-266.36-17.99-376.42-139.74c-5.91-6.53-5.4-16.62,1.14-22.52
					s16.62-5.4,22.52,1.14c141.93,157.01,409.62,126.68,412.3,126.35c8.75-1.06,16.69,5.18,17.74,13.92
					c1.06,8.75-5.17,16.69-13.92,17.74C2743.57,1096.67,2719.61,1099.39,2683.46,1099.39z"/>
			</g>
			<g>
				<path class="st2" d="M2853.03,382.18c0.47,0.01,0.06-0.06-0.06-0.11c-0.13-0.06-0.45-0.09-0.7-0.13
					c-0.49-0.1-1.08-0.15-1.69-0.19c-1.17-0.12-2.49-0.1-3.77-0.07c-2.6,0.13-5.32,0.42-8.01,1.11c-5.41,1.24-10.78,3.57-15.93,6.69
					c-5.13,3.18-9.9,7.3-14.37,11.94c-2.25,2.31-4.21,4.95-6.38,7.44l-5.75,8.21l-0.44,0.63c-2.52,3.6-7.49,4.48-11.09,1.95
					c-3.19-2.23-4.24-6.38-2.69-9.8l4.72-10.44c1.92-3.35,3.65-6.84,5.82-10.13c4.31-6.59,9.31-12.98,15.42-18.62
					c6.14-5.58,13.22-10.53,21.24-14.12c3.98-1.86,8.22-3.26,12.64-4.36c2.23-0.52,4.46-0.99,6.85-1.27
					c1.18-0.15,2.37-0.29,3.66-0.35c0.65-0.03,1.22-0.09,1.98-0.08c0.76,0.01,1.25-0.04,2.6,0.08c8.74,1.12,14.91,9.1,13.8,17.84
					C2869.76,377.12,2861.77,383.29,2853.03,382.18z"/>
			</g>
		</g>
		<g>
			<path class="st3" d="M2291.05,575.24c0,0,165.86,62.88,182.91,93.59c23.38,42.12,26.25,236.24-9.25,369.71
				c-23.39,39.75-108.34,73.47-204.55,61.96c-74.61-8.93-94.63-38.16-94.63-38.16L2291.05,575.24z"/>
		</g>
		<g>
			<polygon class="st4" points="1572.05,924.44 1572.05,927.3 1570.24,925.9 			"/>
		</g>
		<g>
			<polygon class="st4" points="1570.24,925.9 1568.42,927.3 1568.42,924.44 			"/>
		</g>
		<g>
			<path class="st3" d="M857.97,575.24c0,0-165.86,62.88-182.91,93.59c-23.38,42.12-26.25,236.24,9.25,369.71
				c23.39,39.75,108.34,73.47,204.55,61.96c74.61-8.93,94.63-38.16,94.63-38.16L857.97,575.24z"/>
		</g>
		<g>
			<path class="st4" d="M2343.46,784.92c0,3.1,0,6.25-0.08,9.35c-0.04,3.1-0.12,6.21-0.17,9.31c-0.08,3.1-0.17,6.21-0.29,9.31
				c-0.12,3.06-0.25,6.17-0.37,9.27c-0.17,3.06-0.33,6.17-0.5,9.23c-0.37,6.13-0.83,12.29-1.32,18.38
				c-0.25,3.06-0.54,6.08-0.83,9.15c-0.29,3.06-0.58,6.08-0.91,9.11c-1.28,12.17-2.86,24.25-4.76,36.21
				c-0.46,2.98-0.95,5.96-1.45,8.94c-0.5,2.98-0.99,5.96-1.53,8.9c-0.54,2.98-1.08,5.96-1.66,8.9c-0.79,3.97-1.53,7.91-2.36,11.8
				c-0.17,0.74-0.33,1.53-0.5,2.28c-0.54,2.61-1.12,5.17-1.66,7.78c-0.08,0.29-0.17,0.54-0.21,0.83c-0.74,3.27-1.49,6.5-2.28,9.77
				c-1.12,4.8-2.28,9.56-3.52,14.32l-0.04,0.04c-24.29,94.11-83.06,164.72-158.1,217.57c-189.22,133.39-481.95,154-586.5,154
				c-104.59,0-397.44-20.61-586.66-154.13c-74.95-52.85-133.64-123.42-157.89-217.45c0-0.08-0.04-0.08-0.04-0.08
				c-1.24-4.8-2.44-9.64-3.6-14.49c-1.12-4.64-2.19-9.27-3.23-13.95c-0.83-3.89-1.61-7.78-2.4-11.67c-0.41-2.03-0.83-4.06-1.2-6.08
				c-0.08-0.33-0.17-0.7-0.21-1.03c-0.7-3.6-1.37-7.24-2.03-10.88c-0.04-0.17-0.04-0.29-0.08-0.46c0-0.04,0-0.04,0-0.04
				c-0.5-2.98-1.03-5.92-1.49-8.9c-1.37-8.24-2.61-16.51-3.68-24.87c-0.12-0.7-0.21-1.41-0.29-2.11c-0.41-3.35-0.83-6.66-1.2-10.02
				c-0.25-2.36-0.54-4.72-0.75-7.08c-0.17-1.41-0.33-2.77-0.46-4.18c-0.25-2.52-0.5-5.05-0.7-7.57c-0.91-10.1-1.61-20.24-2.15-30.42
				c-0.08-2.32-0.21-4.59-0.29-6.91c-0.12-2.57-0.21-5.17-0.25-7.74c-0.12-2.57-0.17-5.09-0.21-7.66c-0.08-2.23-0.12-4.51-0.12-6.79
				c-0.04-3.31-0.08-6.62-0.08-9.93c0-3.64,0.04-7.28,0.08-10.88c0.04-2.86,0.08-5.71,0.17-8.57c0.04-1.9,0.08-3.81,0.17-5.67
				c0.21-6.29,0.46-12.54,0.83-18.83c1.66-29.43,4.97-58.36,9.89-86.75c0.04-0.25,0.08-0.5,0.12-0.74
				c62.41,361.97,377.95,637.32,757.76,637.32c379.85,0,695.3-275.31,757.72-637.24c0.04-0.04,0.04-0.12,0.04-0.17
				C2339.61,696.1,2343.46,740.06,2343.46,784.92z"/>
		</g>
		<g>
			<path class="st5" d="M1053.74,1789.69c0,0-13.13,4.17-30.2,4.88c-0.58,22.38-4.93,39.77-4.93,39.77s-4.35-17.4-4.93-39.77
				c-17.07-0.71-30.2-4.88-30.2-4.88s13.13-4.17,30.2-4.88c0.58-22.36,4.93-39.76,4.93-39.76s4.35,17.4,4.93,39.76
				C1040.61,1785.52,1053.74,1789.69,1053.74,1789.69z"/>
		</g>
		<g>
			<path class="st3" d="M1480.42,1951.69c0,0-13.13,4.17-30.2,4.88c-0.58,22.38-4.93,39.77-4.93,39.77s-4.35-17.4-4.93-39.77
				c-17.07-0.71-30.2-4.88-30.2-4.88s13.13-4.17,30.2-4.88c0.58-22.36,4.93-39.76,4.93-39.76s4.35,17.4,4.93,39.76
				C1467.29,1947.52,1480.42,1951.69,1480.42,1951.69z"/>
		</g>
		<g>
			<path class="st3" d="M1393.17,1550.08c0,0-15.67,4.97-36.03,5.82c-0.69,26.69-5.88,47.45-5.88,47.45s-5.19-20.76-5.88-47.45
				c-20.36-0.85-36.03-5.82-36.03-5.82s15.67-4.97,36.03-5.82c0.69-26.67,5.88-47.43,5.88-47.43s5.19,20.76,5.88,47.43
				C1377.51,1545.11,1393.17,1550.08,1393.17,1550.08z"/>
		</g>
		<g>
			<path class="st3" d="M703.4,1447.66c0,0-18.53,5.88-42.61,6.88c-0.81,31.57-6.95,56.12-6.95,56.12s-6.14-24.55-6.95-56.12
				c-24.08-1-42.61-6.88-42.61-6.88s18.53-5.88,42.61-6.88c0.81-31.55,6.95-56.1,6.95-56.1s6.14,24.55,6.95,56.1
				C684.87,1441.78,703.4,1447.66,703.4,1447.66z"/>
		</g>
		<g>
			<path class="st5" d="M1011.37,1447.67c0,0-15.84,5.03-36.43,5.88c-0.7,26.99-5.94,47.98-5.94,47.98s-5.25-20.99-5.94-47.98
				c-20.59-0.85-36.43-5.88-36.43-5.88s15.84-5.03,36.43-5.88c0.7-26.97,5.94-47.96,5.94-47.96s5.25,20.99,5.94,47.96
				C995.53,1442.64,1011.37,1447.67,1011.37,1447.67z"/>
		</g>
		<g>
			<path class="st5" d="M1851.62,1679.07c0,0-13.82,4.39-31.78,5.13c-0.61,23.54-5.18,41.85-5.18,41.85s-4.58-18.31-5.18-41.85
				c-17.96-0.75-31.78-5.13-31.78-5.13s13.82-4.39,31.78-5.13c0.61-23.53,5.18-41.83,5.18-41.83s4.58,18.31,5.18,41.83
				C1837.81,1674.68,1851.62,1679.07,1851.62,1679.07z"/>
		</g>
		<g>
			<path class="st3" d="M2184.61,1464.3c0,0-13.82,4.39-31.78,5.13c-0.61,23.54-5.18,41.85-5.18,41.85s-4.58-18.31-5.18-41.85
				c-17.96-0.75-31.78-5.13-31.78-5.13s13.82-4.39,31.78-5.13c0.61-23.53,5.18-41.83,5.18-41.83s4.58,18.31,5.18,41.83
				C2170.8,1459.91,2184.61,1464.3,2184.61,1464.3z"/>
		</g>
		<g>
			<path class="st5" d="M278.26,1046.01c0,0-13.13,4.17-30.2,4.88c-0.58,22.38-4.93,39.77-4.93,39.77s-4.35-17.4-4.93-39.77
				c-17.07-0.71-30.2-4.88-30.2-4.88s13.13-4.17,30.2-4.88c0.58-22.36,4.93-39.76,4.93-39.76s4.35,17.4,4.93,39.76
				C265.13,1041.84,278.26,1046.01,278.26,1046.01z"/>
		</g>
		<g>
			<path class="st3" d="M2229.65,1818.54c0,0-13.13,4.17-30.2,4.88c-0.58,22.38-4.93,39.77-4.93,39.77s-4.35-17.4-4.93-39.77
				c-17.07-0.71-30.2-4.88-30.2-4.88s13.13-4.17,30.2-4.88c0.58-22.36,4.93-39.76,4.93-39.76s4.35,17.4,4.93,39.76
				C2216.52,1814.37,2229.65,1818.54,2229.65,1818.54z"/>
		</g>
		<g>
			<path class="st5" d="M2660.13,1508.94c0,0-13.13,4.17-30.2,4.88c-0.58,22.38-4.93,39.77-4.93,39.77s-4.35-17.4-4.93-39.77
				c-17.07-0.71-30.2-4.88-30.2-4.88s13.13-4.17,30.2-4.88c0.58-22.36,4.93-39.76,4.93-39.76s4.35,17.4,4.93,39.76
				C2647,1504.77,2660.13,1508.94,2660.13,1508.94z"/>
		</g>
		<g>
			<path class="st2" d="M2973.73,1432.76c17.53,6.22,34,14.89,49.33,25.51c15.31,10.62,29.44,23.39,41.3,38.66
				c11.84,15.2,21.13,33.46,25.08,53.68c1.84,10.05,2.9,20.61,1.19,30.82c-1.56,10.17-4.52,20.06-8.54,29.33
				c-8.12,18.57-20.37,34.3-34.03,47.51c-13.72,13.25-28.95,24.16-44.73,33.63c-31.77,18.84-65.34,32.27-100.66,41.77
				c-4.25,1.14-8.62-1.38-9.77-5.63c-1.09-4.07,1.17-8.25,5.09-9.6l0.36-0.12c16.08-5.51,32.31-12.51,47.75-20.19
				c15.49-7.74,30.51-16.28,44.52-26c14-9.7,27.06-20.52,38.08-32.7c11.01-12.14,19.93-25.68,25.08-40.06
				c2.56-7.19,4.21-14.55,4.84-21.97l0.83-11.04c0.1-3.69,0.05-7.4-0.32-11.12c-1.47-14.87-7.08-29.83-15.8-43.44
				c-8.68-13.64-20.01-26.12-32.9-36.93c-12.88-10.83-27.27-20.2-42.61-27.29l-0.09-0.04c-4-1.85-5.74-6.59-3.89-10.59
				C2965.56,1433.16,2969.9,1431.41,2973.73,1432.76z"/>
		</g>
		<g>
			<path class="st2" d="M2720.96,1759.2c16.58,5.95,32.31,13.95,47.04,23.79c14.71,9.85,28.51,21.55,40.15,35.96
				c11.61,14.28,21.04,31.83,24.33,51.83c1.5,9.9,1.9,20.42-0.68,30.22c-2.32,9.81-6.19,19.14-11.1,27.56
				c-9.87,16.93-23.43,30.22-37.8,41.13c-14.44,10.92-29.93,19.56-45.73,26.98c-31.77,14.7-64.57,24.59-98.63,31.13
				c-4.32,0.83-8.5-2-9.33-6.32c-0.79-4.13,1.75-8.12,5.74-9.2l0.33-0.09c15.64-4.18,31.54-9.61,46.79-15.66
				c15.3-6.1,30.28-12.89,44.47-20.77c14.17-7.87,27.67-16.75,39.42-27.01c11.74-10.23,21.75-21.91,27.98-34.66
				c3.13-6.36,5.28-12.95,6.36-19.63c0.74-6.69,2.11-13.19,1.54-20.01c-0.8-13.55-6.15-27.49-14.56-40.17
				c-8.33-12.75-19.38-24.33-31.73-34.46c-12.36-10.16-26.1-18.95-40.65-25.85l-0.09-0.04c-3.98-1.89-5.68-6.65-3.79-10.63
				C2712.82,1759.56,2717.15,1757.85,2720.96,1759.2z"/>
		</g>
		<g>
			<path class="st2" d="M463.15,1773.08c-13.5,8.77-25.95,19.32-36.84,31.03c-10.89,11.69-20.29,24.64-26.85,38.39
				c-6.64,13.69-10.08,28.22-9.07,41.75c0.34,6.84,2.57,13.09,4.2,19.63c1.96,6.48,4.98,12.72,8.92,18.61
				c7.87,11.81,19.36,22.05,32.35,30.62c13.02,8.61,27.58,15.6,42.67,21.52c15.12,5.92,30.86,10.65,46.84,14.66
				c15.92,3.96,32.4,7.23,48.46,9.29l0.31,0.04c4.37,0.56,7.45,4.55,6.89,8.92c-0.53,4.17-4.22,7.17-8.35,6.95
				c-34.63-1.94-68.45-7.37-101.9-17.71c-16.65-5.24-33.15-11.74-48.92-20.64c-15.69-8.9-30.9-20.26-42.94-35.72
				c-5.99-7.7-11.07-16.43-14.67-25.84c-3.86-9.37-4.86-19.85-4.7-29.86c0.59-20.26,7.6-38.92,17.2-54.61
				c9.62-15.83,21.74-29.27,35-40.99c13.29-11.72,27.81-21.74,43.45-29.85c3.91-2.03,8.73-0.5,10.76,3.41
				c1.9,3.67,0.68,8.13-2.7,10.34L463.15,1773.08z"/>
		</g>
		<g>
			<g>
				<path class="st3" d="M486.41,1334.97c0,0,124.86,7.41,201.93,3.45L486.41,1334.97z"/>
			</g>
			<g>
				<path class="st2" d="M487.35,1319.05c33.25,3.19,66.82,5.86,100.26,7.98c33.47,2.05,66.99,3.66,100.31,3.42l0.08,0
					c4.41-0.03,8,3.52,8.03,7.92c0.03,4.18-3.2,7.64-7.29,8.01c-33.96,2.92-67.83,3.97-101.68,4.57
					c-33.88,0.53-67.62,0.51-101.61-0.06c-8.81-0.15-15.84-7.41-15.69-16.22c0.15-8.81,7.41-15.84,16.22-15.69
					c0.41,0.01,0.82,0.03,1.22,0.07L487.35,1319.05z"/>
			</g>
		</g>
		<g>
			<g>
				<path class="st3" d="M683.07,1663c0,0,65.91-5.81,147.52-15.16L683.07,1663z"/>
			</g>
			<g>
				<path class="st2" d="M681.67,1647.12l148.01-7.19l0.19-0.01c4.4-0.21,8.14,3.18,8.36,7.58c0.2,4.1-2.77,7.63-6.73,8.27
					l-147.02,23.12c-8.72,1.37-16.9-4.58-18.27-13.3c-1.37-8.72,4.59-16.9,13.3-18.27c0.57-0.09,1.13-0.15,1.69-0.18L681.67,1647.12
					z"/>
			</g>
		</g>
		<g>
			<g>
				<path class="st3" d="M2147.65,2023.8c0,0-104.47-1.12-202.25-12.97L2147.65,2023.8z"/>
			</g>
			<g>
				<path class="st2" d="M2147.48,2039.75c-17.2-0.92-34.07-2.11-51.05-3.45c-16.95-1.35-33.88-2.89-50.8-4.59
					c-33.82-3.41-67.58-7.62-101.19-12.95c-4.35-0.69-7.32-4.78-6.63-9.13c0.66-4.13,4.38-7.02,8.48-6.71l0.07,0.01
					c33.51,2.64,67.12,4.18,100.75,4.91c16.81,0.37,33.63,0.57,50.44,0.58c16.78,0,33.69-0.14,50.28-0.56l0.11,0
					c8.81-0.22,16.13,6.74,16.35,15.56c0.22,8.81-6.75,16.13-15.56,16.35C2148.32,2039.77,2147.88,2039.77,2147.48,2039.75z"/>
			</g>
		</g>
		<g>
			<g>
				<path class="st3" d="M2556.8,1718.8c0,0-133.31,8.96-266.62-14.87L2556.8,1718.8z"/>
			</g>
			<g>
				<path class="st2" d="M2557.87,1734.71c-23.06,0.65-45.37,0.39-67.97-0.32c-22.52-0.7-45.01-2.03-67.45-3.87
					c-22.44-1.78-44.82-4.25-67.12-7.34c-22.31-2.91-44.48-7.03-66.55-11.39c-4.32-0.85-7.13-5.05-6.27-9.37
					c0.82-4.15,4.73-6.91,8.87-6.36l0.21,0.03c21.91,2.99,43.83,5.73,65.9,7.28c22.03,1.73,44.12,2.84,66.22,3.27
					c22.09,0.49,44.2,0.48,66.27-0.15c21.99-0.61,44.29-1.71,65.76-3.59l0.29-0.03c8.78-0.77,16.52,5.72,17.29,14.5
					c0.77,8.78-5.72,16.52-14.5,17.29C2558.52,1734.68,2558.17,1734.7,2557.87,1734.71z"/>
			</g>
		</g>
		<g>
			<g>
				<path class="st3" d="M2696.63,1375.77c0,0-142.07,0-267.03-16.13L2696.63,1375.77z"/>
			</g>
			<g>
				<path class="st2" d="M2696.63,1391.72c-22.65-0.77-44.94-1.93-67.35-3.31c-22.38-1.39-44.74-3.07-67.08-4.99
					c-44.67-3.87-89.27-8.92-133.62-15.86c-4.35-0.68-7.33-4.76-6.65-9.11c0.66-4.19,4.46-7.1,8.62-6.71l0.07,0.01
					c44.17,4.24,88.54,6.61,132.94,7.8c22.2,0.59,44.41,0.92,66.62,0.98c22.17,0.05,44.49-0.13,66.45-0.69l0.13,0
					c8.81-0.23,16.13,6.73,16.36,15.54c0.23,8.81-6.73,16.13-15.54,16.36C2697.28,1391.73,2696.93,1391.72,2696.63,1391.72z"/>
			</g>
		</g>
		<g>
			<path class="st2" d="M2042.65,1381.83c27.54-15.14,54.91-29.73,81.46-45.58c26.67-15.61,52.48-32.41,77.5-50.28
				c12.46-9,24.59-18.43,36.54-28.08c5.89-4.93,11.93-9.7,17.58-14.9c5.81-5.03,11.67-10.02,17.19-15.36
				c22.6-20.88,43.74-43.33,63.95-66.99l0.05-0.06c2.87-3.36,7.92-3.76,11.29-0.89c2.97,2.53,3.62,6.77,1.77,10.04
				c-15.86,27.98-35.58,53.78-57.49,77.46c-10.9,11.91-22.52,23.15-34.62,33.83c-11.99,10.81-24.63,20.87-37.59,30.46
				c-25.83,19.32-53.52,36.02-82.2,50.46c-28.8,14.2-58.63,26.23-89.49,34.7c-4.27,1.17-8.69-1.34-9.86-5.61
				c-1-3.65,0.69-7.41,3.87-9.16L2042.65,1381.83z"/>
		</g>
		<g>
			<path class="st2" d="M1610.71,1456.33c25.28-3.15,50.41-5.42,75.49-7.89c25.06-2.54,50.07-4.91,75.01-7.71
				c24.93-2.92,49.85-5.66,74.78-8.76c24.94-3.03,49.89-6.22,75.22-8.68l0.03,0c4.42-0.43,8.36,2.81,8.79,7.23
				c0.36,3.67-1.82,7-5.1,8.28c-24.09,9.35-48.98,16.21-74.14,21.62c-25.18,5.34-50.63,9.43-76.23,11.86
				c-25.59,2.55-51.27,4.06-76.95,4.07c-25.68,0.08-51.35-0.96-76.89-4.07c-4.4-0.54-7.54-4.54-7-8.94
				C1604.17,1459.6,1607.14,1456.78,1610.71,1456.33z"/>
		</g>
		<g>
			<path class="st2" d="M938.67,1275.7c39.93,23.25,82.58,43.48,125.42,61.77c42.96,18.35,86.85,34.42,131.28,48.95
				c11.15,3.5,22.39,6.72,33.58,10.1l16.8,5.04l16.96,4.51l33.95,8.97l34.23,7.94l17.13,3.98c5.72,1.27,11.49,2.31,17.24,3.48
				c11.5,2.31,23.03,4.48,34.54,6.91c11.48,2.61,23.16,3.88,34.73,6.07c11.6,1.94,23.2,4.05,34.82,6.18l0.35,0.06
				c4.33,0.8,7.2,4.96,6.4,9.29c-0.73,3.99-4.33,6.74-8.28,6.52c-11.89-0.65-23.8-1.33-35.71-2.18l-17.87-1.28
				c-5.96-0.4-11.91-0.91-17.83-1.72c-11.86-1.38-23.69-3.02-35.55-4.52c-5.92-0.8-11.87-1.46-17.78-2.39l-17.64-3.22l-35.32-6.45
				l-34.97-8.16l-17.49-4.11c-5.8-1.49-11.54-3.2-17.3-4.84c-11.5-3.35-23.05-6.54-34.52-10.02
				c-45.75-14.35-90.54-31.86-133.81-52.63l-16.15-7.94l-15.92-8.43c-10.63-5.55-20.97-11.71-31.31-17.81
				c-20.55-12.59-40.53-25.55-59.48-41.28c-3.39-2.81-3.86-7.84-1.04-11.24c2.53-3.05,6.84-3.73,10.15-1.8L938.67,1275.7z"/>
		</g>
		<g>
			<g>
				<path class="st3" d="M2476.77,998.88c-0.99,5.6-2.01,11.17-3.1,16.66c-1.24,6.33-2.57,12.58-3.97,18.75
					c-0.21,0.79-0.37,1.53-0.54,2.32c-1.41,6.08-2.86,12.04-4.43,17.88c0,0.04-0.04,0.04-0.04,0.08
					c-23.47,39.69-108.39,73.38-204.53,61.87c-74.58-8.94-94.61-38.16-94.61-38.16l45.28-175.77l80.25-311.31
					c0,0,165.84,62.87,182.89,93.58c20.16,36.34,25.05,185.59,3.26,311.56C2477.06,997.19,2476.92,998.03,2476.77,998.88z"/>
			</g>
			<g>
				<path class="st4" d="M2479.96,979.45c-1.86,12.21-3.93,24.29-6.29,36.09c-1.24,6.33-2.61,12.58-3.97,18.75
					c-0.21,0.79-0.37,1.53-0.54,2.32c-1.45,6.08-2.94,12.09-4.47,17.96c-23.47,39.69-108.39,73.38-204.53,61.87
					c-74.58-8.94-94.61-38.16-94.61-38.16l45.28-175.77c0.08,0.08,0.25,0.21,0.33,0.29
					C2388.32,1058.63,2477.18,981.98,2479.96,979.45z"/>
			</g>
			<g>
				<path class="st2" d="M2298.64,1134.69c-13.12,0-26.61-0.77-40.37-2.42c-79.49-9.51-103.42-41.38-105.89-44.99l-4.09-5.98
					l131.77-511.35l16.65,6.31c40.19,15.23,172.75,67.53,191.2,100.76c26.49,47.72,27.51,248.88-7.78,381.55l-0.56,2.11l-1.11,1.88
					C2455.91,1100.88,2385.43,1134.69,2298.64,1134.69z M2183.22,1073.55c8.76,7.17,31.49,21.39,78.84,27.05
					c86.28,10.36,165.81-18.57,187.83-52.48c35.76-136.75,28.82-321.93,10.12-355.62c-7.89-14.22-84.97-51.25-157.99-79.99
					L2183.22,1073.55z"/>
			</g>
			<g>
				<path class="st3" d="M672.26,998.88c0.99,5.6,2.01,11.17,3.1,16.66c1.24,6.33,2.57,12.58,3.97,18.75
					c0.21,0.79,0.37,1.53,0.54,2.32c1.41,6.08,2.86,12.04,4.43,17.88c0,0.04,0.04,0.04,0.04,0.08
					c23.47,39.69,108.39,73.38,204.54,61.87c74.58-8.94,94.61-38.16,94.61-38.16l-45.28-175.77L857.96,591.2
					c0,0-165.84,62.87-182.89,93.58c-20.16,36.34-25.05,185.59-3.26,311.56C671.96,997.19,672.11,998.03,672.26,998.88z"/>
			</g>
			<g>
				<path class="st4" d="M669.07,979.45c1.86,12.21,3.93,24.29,6.29,36.09c1.24,6.33,2.61,12.58,3.97,18.75
					c0.21,0.79,0.37,1.53,0.54,2.32c1.45,6.08,2.94,12.09,4.47,17.96c23.47,39.69,108.39,73.38,204.54,61.87
					c74.58-8.94,94.61-38.16,94.61-38.16l-45.28-175.77c-0.08,0.08-0.25,0.21-0.33,0.29C760.7,1058.63,671.84,981.98,669.07,979.45z
					"/>
			</g>
			<g>
				<path class="st2" d="M850.39,1134.69c-86.8,0-157.27-33.81-179.81-72.12l-1.11-1.88l-0.56-2.11
					c-35.29-132.67-34.27-333.82-7.78-381.55c18.44-33.23,151.01-85.52,191.2-100.76l16.65-6.31l131.77,511.35l-4.09,5.98
					c-2.47,3.6-26.4,35.47-105.89,44.99C877,1133.92,863.51,1134.69,850.39,1134.69z M699.13,1048.12
					c22.02,33.92,101.56,62.84,187.84,52.48c47.16-5.64,69.9-19.77,78.83-27.09L847,612.52c-73.02,28.74-150.1,65.77-157.99,79.99
					C670.31,726.2,663.37,911.38,699.13,1048.12z"/>
			</g>
			<g>
				<path class="st3" d="M2343.42,784.92c0,3.1,0,6.25-0.04,9.35c-0.04,3.1-0.12,6.21-0.17,9.31c-0.08,3.1-0.17,6.21-0.29,9.31
					c-0.12,3.06-0.25,6.17-0.37,9.27c-0.17,3.06-0.33,6.17-0.5,9.23c-0.37,6.13-0.83,12.29-1.32,18.38
					c-0.25,3.06-0.54,6.08-0.83,9.15c-0.29,3.06-0.58,6.08-0.91,9.11c-1.32,12.17-2.9,24.21-4.76,36.21
					c-0.46,2.98-0.95,5.96-1.45,8.94c-0.5,2.98-0.99,5.96-1.53,8.9c-0.54,2.98-1.08,5.96-1.66,8.9c-0.79,3.97-1.53,7.91-2.36,11.8
					c-0.17,0.74-0.33,1.53-0.5,2.28c-0.54,2.61-1.12,5.17-1.66,7.78c-0.08,0.29-0.17,0.54-0.21,0.83c-0.74,3.27-1.49,6.5-2.28,9.77
					c-1.12,4.8-2.28,9.56-3.52,14.32l-0.04,0.04c-24.29,94.11-83.06,164.72-158.1,217.57c-189.22,133.39-481.95,154-586.5,154
					c-104.59,0-397.44-20.61-586.66-154.13c-74.95-52.85-133.64-123.42-157.89-217.45c0-0.08-0.04-0.08-0.04-0.08
					c-1.24-4.8-2.44-9.64-3.6-14.49c-1.12-4.64-2.19-9.27-3.23-13.95c-0.83-3.89-1.61-7.78-2.4-11.67c-0.41-2.03-0.83-4.06-1.2-6.08
					c-0.08-0.33-0.17-0.7-0.21-1.03c-0.7-3.6-1.37-7.24-2.03-10.88c-0.04-0.17-0.04-0.29-0.08-0.46c0-0.04,0-0.04,0-0.04
					c-0.5-2.98-1.03-5.92-1.49-8.9c-1.37-8.24-2.61-16.55-3.68-24.87c-0.12-0.7-0.21-1.41-0.29-2.11c-0.41-3.35-0.83-6.66-1.2-10.02
					c-0.25-2.36-0.54-4.72-0.75-7.08c-0.17-1.41-0.33-2.77-0.46-4.18c-0.25-2.52-0.5-5.05-0.7-7.57
					c-0.91-10.1-1.61-20.24-2.15-30.42c-0.08-2.32-0.21-4.59-0.29-6.91c-0.12-2.57-0.21-5.17-0.25-7.74
					c-0.12-2.57-0.17-5.09-0.21-7.66c-0.08-2.23-0.12-4.51-0.12-6.79c-0.04-3.31-0.08-6.62-0.08-9.93c0-3.64,0.04-7.28,0.08-10.88
					c0.04-2.86,0.08-5.71,0.17-8.57c0.04-1.9,0.08-3.81,0.17-5.67c0.21-6.29,0.46-12.54,0.83-18.83c0.83-14.15,2.03-28.18,3.6-42.13
					c1.66-15.02,3.77-29.88,6.29-44.62c0.04-0.25,0.08-0.5,0.12-0.74c62.33-362.1,377.91-637.53,757.76-637.53
					c379.93,0,695.47,275.43,757.72,637.61c2.61,15.02,4.76,30.17,6.46,45.48c0.37,3.52,0.74,7.04,1.12,10.6
					C2342.18,734.39,2343.42,759.55,2343.42,784.92z"/>
			</g>
			<g>
				<path class="st2" d="M1574.45,1365.31c-38.21,0-379.53-4.41-595.86-157.05c-85.52-60.3-140.69-136.27-163.96-225.81
					c-0.08-0.24-0.15-0.49-0.21-0.74c-4.97-19.1-9.31-38.99-12.9-59.13c-0.11-0.5-0.2-1-0.26-1.51c-2.03-11.67-3.85-23.7-5.43-35.8
					c-4.21-33.08-6.34-66.82-6.34-100.36c0-29.59,1.67-59.16,4.94-87.89C838.65,299.68,1173.98,0,1574.45,0
					c400.6,0,735.93,299.77,780.02,697.29l1.13,10.69c2.5,25.4,3.77,51.26,3.77,76.95c0,50.08-4.75,100.23-14.11,149.06l-0.64,3.27
					c-0.58,2.97-1.16,5.92-1.78,8.85c-1.47,7.02-3.04,14.04-4.73,21.07c-1.12,4.82-2.31,9.72-3.59,14.61
					c-0.08,0.31-0.17,0.61-0.27,0.91c-23.35,89.51-78.56,165.44-164.12,225.71C1953.79,1360.9,1612.63,1365.31,1574.45,1365.31z
					 M845.4,974.07c21.27,82.18,72.26,152.21,151.57,208.13c208.29,146.97,540.3,151.21,577.47,151.21
					c37.15,0,369-4.24,577.31-151.09c79.49-56,130.58-126.15,151.85-208.53c0.08-0.32,0.18-0.64,0.28-0.96
					c1.12-4.33,2.17-8.66,3.19-13.03c1.65-6.84,3.14-13.55,4.56-20.31c0.6-2.8,1.14-5.58,1.68-8.37l0.64-3.24
					c8.96-46.76,13.52-94.89,13.52-142.96c0-24.65-1.21-49.45-3.61-73.72l-1.11-10.47c-42.29-381.27-364-668.83-748.32-668.83
					c-384.19,0-705.9,287.48-748.32,668.7c-3.15,27.58-4.74,55.94-4.74,84.32c0,32.19,2.05,64.59,6.08,96.28
					c1.55,11.86,3.35,23.7,5.35,35.15c0.03,0.14,0.05,0.29,0.07,0.43c3.41,19.15,7.52,38.04,12.22,56.18
					C845.21,973.33,845.31,973.7,845.4,974.07z M2319.08,977.74h0.05H2319.08z"/>
			</g>
			<g>
				<path class="st2" d="M1574.45,1365.31c-38.21,0-379.53-4.41-595.86-157.05c-85.52-60.3-140.69-136.27-163.96-225.81
					c-0.08-0.24-0.15-0.49-0.21-0.74c-4.97-19.1-9.31-38.99-12.9-59.13c-0.11-0.5-0.2-1-0.26-1.51c-2.03-11.67-3.85-23.7-5.43-35.8
					c-4.21-33.08-6.34-66.82-6.34-100.36c0-29.59,1.67-59.16,4.94-87.89C838.65,299.68,1173.98,0,1574.45,0
					c400.6,0,735.93,299.77,780.02,697.29l1.13,10.69c2.5,25.4,3.77,51.26,3.77,76.95c0,50.08-4.75,100.23-14.11,149.06l-0.64,3.27
					c-0.58,2.97-1.16,5.92-1.78,8.85c-1.47,7.02-3.04,14.04-4.73,21.07c-1.12,4.82-2.31,9.72-3.59,14.61
					c-0.08,0.31-0.17,0.61-0.27,0.91c-23.35,89.51-78.56,165.44-164.12,225.71C1953.79,1360.9,1612.63,1365.31,1574.45,1365.31z
					 M845.4,974.07c21.27,82.18,72.26,152.21,151.57,208.13c208.29,146.97,540.3,151.21,577.47,151.21
					c37.15,0,369-4.24,577.31-151.09c79.49-56,130.58-126.15,151.85-208.53c0.08-0.32,0.18-0.64,0.28-0.96
					c1.12-4.33,2.17-8.66,3.19-13.03c1.65-6.84,3.14-13.55,4.56-20.31c0.6-2.8,1.14-5.58,1.68-8.37l0.64-3.24
					c8.96-46.76,13.52-94.89,13.52-142.96c0-24.65-1.21-49.45-3.61-73.72l-1.11-10.47c-42.29-381.27-364-668.83-748.32-668.83
					c-384.19,0-705.9,287.48-748.32,668.7c-3.15,27.58-4.74,55.94-4.74,84.32c0,32.19,2.05,64.59,6.08,96.28
					c1.55,11.86,3.35,23.7,5.35,35.15c0.03,0.14,0.05,0.29,0.07,0.43c3.41,19.15,7.52,38.04,12.22,56.18
					C845.21,973.33,845.31,973.7,845.4,974.07z M2319.08,977.74h0.05H2319.08z"/>
			</g>
			<g>
				<path class="st2" d="M1574.46,1365.3c-38.21,0-379.56-4.41-595.86-157.04c-85.57-60.35-140.74-136.34-163.99-225.86
					c-0.07-0.23-0.14-0.46-0.2-0.69c-4.98-19.06-9.25-38.62-13.03-59.79c-0.03-0.16-0.05-0.32-0.08-0.48
					c-1.31-7.42-2.47-14.89-3.59-22.43c-0.66-4.6-1.3-9.16-1.91-13.72c-4.19-32.87-6.32-66.61-6.32-100.37
					c0-21.24,0.86-42.57,2.56-63.41c0.15-1.85,0.62-3.66,1.4-5.35c112.63-245.54,376.82-512.06,780.5-523.68
					c0.15,0,0.35-0.01,0.5-0.01c404.07,11.63,668.28,278.15,780.95,523.69c0.78,1.7,1.25,3.52,1.4,5.38
					c1.7,21.31,2.56,42.64,2.56,63.38c0,38.12-2.77,76.47-8.22,114c-1.64,11.27-3.57,22.71-5.9,35l-0.92,4.64
					c-0.49,2.49-0.98,4.97-1.48,7.41c-1.53,7.2-3.08,14.21-4.79,21.22c-1.1,4.78-2.29,9.67-3.57,14.55
					c-0.08,0.3-0.16,0.59-0.26,0.88c-23.32,89.49-78.53,165.44-164.13,225.76C1953.8,1360.9,1612.65,1365.3,1574.46,1365.3z
					 M845.39,974.05c21.25,82.17,72.25,152.19,151.59,208.16c208.27,146.96,540.3,151.21,577.48,151.21
					c37.15,0,368.99-4.24,577.28-151.08c79.53-56.04,130.62-126.2,151.86-208.54c0.08-0.31,0.17-0.63,0.27-0.94
					c1.12-4.32,2.17-8.64,3.18-13.02c1.68-6.89,3.16-13.6,4.61-20.38c0.46-2.25,0.93-4.64,1.41-7.04l0.91-4.57
					c2.21-11.67,4.06-22.68,5.63-33.49c5.23-36.01,7.89-72.82,7.89-109.41c0-18.99-0.75-38.49-2.24-58.02
					c-109.3-236.04-363.44-491.18-750.81-502.52c-387.43,11.34-641.56,266.5-750.81,502.54c-1.48,19.08-2.23,38.59-2.23,58.01
					c0,32.41,2.03,64.79,6.05,96.25c0.58,4.38,1.21,8.83,1.84,13.24c1.08,7.3,2.21,14.6,3.5,21.87c0.03,0.15,0.05,0.29,0.07,0.44
					c3.57,19.92,7.57,38.32,12.23,56.23C845.21,973.32,845.31,973.68,845.39,974.05z M2319.08,977.73h0.05H2319.08z"/>
			</g>
			<g>
				<path class="st2" d="M2335.39,896.64c-1.68,11.52-3.63,22.96-5.78,34.32c-0.8,3.99-1.55,7.93-2.35,11.8
					c-1.48,6.94-2.99,13.79-4.66,20.65c-1.12,4.82-2.27,9.57-3.51,14.31l-0.04,0.04c-24.28,94.12-83.08,164.73-158.11,217.59
					c-189.2,133.39-481.94,154-586.47,154c-104.61,0-397.46-20.61-586.67-154.12c-74.95-52.86-133.67-123.42-157.91-217.47
					c0-0.08-0.04-0.08-0.04-0.08c-5.02-19.22-9.21-38.71-12.76-58.56c0-0.04,0-0.04,0-0.04c-1.32-7.41-2.47-14.87-3.59-22.4
					c51.98-199.49,298.72-581.44,760.96-581.44v0.04C2036.67,315.27,2283.36,697.11,2335.39,896.64z"/>
			</g>
			<g class="st6">
				<path class="st7" d="M2335.39,896.64c-1.68,11.52-3.63,22.96-5.78,34.32c-0.8,3.99-1.55,7.93-2.35,11.8
					c-1.48,6.94-2.99,13.79-4.66,20.65c-1.12,4.82-2.27,9.57-3.51,14.31l-0.04,0.04c-24.28,94.12-83.08,164.73-158.11,217.59
					c-189.2,133.39-481.94,154-586.47,154c-104.61,0-397.46-20.61-586.67-154.12c-74.95-52.86-133.67-123.42-157.91-217.47
					c0-0.08-0.04-0.08-0.04-0.08c-5.02-19.22-9.21-38.71-12.76-58.56c0-0.04,0-0.04,0-0.04c-1.32-7.41-2.47-14.87-3.59-22.4
					c6.7-25.75,16.66-54.54,29.94-85.15c29.06,73.63,80.89,131.08,144.35,175.85c189.2,133.51,482.06,154.12,586.67,154.12
					c104.53,0,397.26-20.61,586.47-154c63.51-44.77,115.41-102.22,144.55-175.93C2318.72,842.14,2328.69,870.93,2335.39,896.64z"/>
			</g>
			<g>
				<path class="st2" d="M1574.46,1365.3c-38.21,0-379.56-4.41-595.86-157.04c-85.57-60.35-140.74-136.34-163.99-225.86
					c-0.07-0.23-0.14-0.46-0.2-0.69c-4.98-19.06-9.25-38.62-13.03-59.79c-0.03-0.16-0.05-0.32-0.08-0.48
					c-1.31-7.42-2.47-14.89-3.59-22.43c-0.31-2.12-0.2-4.28,0.34-6.36c25.53-97.96,99.63-247.4,231.04-373.04
					c105.14-100.52,285.09-220.33,545.35-220.33c0.38,0,0.76,0.01,1.13,0.04c259.62,0.35,439.19,119.93,544.16,220.28
					c131.4,125.61,205.51,275.04,231.05,373.01c0.54,2.06,0.66,4.21,0.35,6.32c-1.64,11.26-3.57,22.71-5.9,35l-0.92,4.63
					c-0.49,2.5-0.98,4.97-1.48,7.41c-1.53,7.2-3.08,14.21-4.79,21.22c-1.1,4.78-2.29,9.67-3.57,14.55c-0.08,0.3-0.16,0.59-0.26,0.88
					c-23.32,89.49-78.53,165.44-164.13,225.76C1953.8,1360.9,1612.65,1365.3,1574.46,1365.3z M845.39,974.05
					c21.25,82.17,72.25,152.19,151.59,208.16c208.27,146.96,540.3,151.21,577.48,151.21c37.15,0,368.99-4.24,577.28-151.08
					c79.53-56.04,130.62-126.2,151.86-208.54c0.08-0.31,0.17-0.63,0.27-0.94c1.12-4.32,2.17-8.64,3.18-13.02
					c1.68-6.89,3.16-13.6,4.61-20.38c0.46-2.25,0.93-4.64,1.41-7.04l0.91-4.57c1.99-10.52,3.69-20.5,5.16-30.28
					c-25.19-93.77-96.22-235.22-221.41-354.89c-100.91-96.46-273.6-211.44-523.26-211.44c-0.37,0-0.74-0.01-1.11-0.04
					c-249.09,0.34-421.43,115.15-522.2,211.49c-125.2,119.69-196.22,261.14-221.4,354.9c0.94,6.28,1.93,12.52,3.03,18.72
					c0.03,0.15,0.05,0.29,0.07,0.44c3.57,19.92,7.57,38.32,12.23,56.23C845.21,973.32,845.31,973.68,845.39,974.05z"/>
			</g>
			<g class="st8">
				
					<ellipse transform="matrix(0.1583 -0.9874 0.9874 0.1583 920.1108 2772.8838)" class="st3" cx="2086.54" cy="846.73" rx="139.4" ry="101.01"/>
			</g>
			<g class="st8">
				
					<ellipse transform="matrix(0.2933 -0.956 0.956 0.2933 315.3412 2677.1958)" class="st3" cx="1968.42" cy="1125.31" rx="63.98" ry="54.91"/>
			</g>
			<g class="st8">
				<path class="st3" d="M1023.65,1153.06c0,0-129.85-78.72-131.92-223.12c-1.25-87.05,78.28-210.88,148.86-278.98
					c232.27-224.12,493.59-213.57,493.59-213.57s-281.79,116.47-419.31,384.5C1033.76,979.95,1023.65,1153.06,1023.65,1153.06z"/>
			</g>
		</g>
		<g>
			<path class="st2" d="M2504.02,1204.65c33.33-0.64,67.03-2.68,100.21-6.03c8.32-0.76,16.59-1.82,24.85-2.91
				c8.29-0.9,16.49-2.19,24.69-3.49c8.23-1.15,16.35-2.78,24.45-4.38c8.17-1.37,16.17-3.27,24.17-5.16
				c31.82-7.78,63.15-17.95,89.94-34.03c7.05-3.67,12.99-8.26,18.52-12.65c5.32-4.49,9.81-9.31,11.96-13.55
				c1.11-2.13,1.75-4.02,1.98-6.08c0.27-2.05,0.06-4.46-0.97-7.11c-1.7-5.35-6.68-11.53-11.4-16.55l-0.93-0.99
				c-3.03-3.22-2.87-8.28,0.34-11.31c2.28-2.15,5.5-2.69,8.26-1.68c5.14,1.9,9.16,4.09,13.4,7.09c4.09,2.99,8.03,6.65,11.34,11.31
				c3.26,4.64,5.93,10.42,6.89,16.82c0.99,6.38,0.21,13.04-1.71,18.81c-1.89,5.81-4.76,10.87-7.94,15.17
				c-3.18,4.41-6.67,8.11-10.31,11.53c-3.63,3.35-7.41,6.36-11.25,9.11l-5.8,3.96l-5.95,3.36c-31.6,18.52-65.71,29.1-99.81,36.18
				c-8.54,1.76-17.08,3.53-25.66,4.7c-8.58,1.28-17.16,2.57-25.76,3.36c-8.59,0.95-17.17,1.88-25.77,2.4
				c-8.59,0.65-17.19,1.12-25.78,1.35c-34.4,1.27-68.56,0.44-102.91-3.32c-4.38-0.48-7.55-4.42-7.07-8.8
				c0.44-4.04,3.82-7.04,7.78-7.11L2504.02,1204.65z"/>
		</g>
		<g>
			<path class="st2" d="M654.31,1220.57c-34.35,3.75-68.5,4.58-102.91,3.32c-8.59-0.23-17.19-0.7-25.78-1.35
				c-8.6-0.52-17.18-1.46-25.77-2.4c-8.6-0.79-17.17-2.08-25.76-3.36c-8.59-1.17-17.12-2.94-25.66-4.7
				c-34.1-7.08-68.21-17.66-99.81-36.18l-5.95-3.36l-5.8-3.96c-3.84-2.76-7.62-5.76-11.25-9.11c-3.64-3.42-7.13-7.12-10.31-11.53
				c-3.18-4.3-6.05-9.36-7.94-15.17c-1.92-5.77-2.7-12.43-1.71-18.81c0.96-6.41,3.63-12.18,6.89-16.82
				c3.31-4.67,7.25-8.32,11.34-11.31c4.24-3,8.26-5.19,13.4-7.09c4.15-1.53,8.75,0.59,10.28,4.73c1.09,2.94,0.34,6.11-1.67,8.25
				l-0.94,1c-4.72,5.02-9.7,11.2-11.4,16.55c-1.03,2.65-1.25,5.06-0.97,7.11c0.23,2.06,0.87,3.96,1.98,6.08
				c2.15,4.23,6.64,9.06,11.96,13.55c5.54,4.39,11.47,8.98,18.52,12.65c26.79,16.09,58.12,26.26,89.94,34.03
				c8,1.9,16,3.8,24.17,5.16c8.11,1.6,16.22,3.23,24.45,4.38c8.2,1.3,16.41,2.59,24.69,3.49c8.26,1.09,16.53,2.16,24.85,2.91
				c33.18,3.35,66.88,5.39,100.21,6.03l0.25,0c4.41,0.09,7.91,3.73,7.83,8.13C661.35,1216.85,658.25,1220.14,654.31,1220.57z"/>
		</g>
	</g>
</g>
</svg>
