<?xml version="1.0" encoding="utf-8"?>
<!-- Generator: Adobe Illustrator 26.2.1, SVG Export Plug-In . SVG Version: 6.00 Build 0)  -->
<svg version="1.1" id="Layer_1" xmlns="http://www.w3.org/2000/svg" xmlns:xlink="http://www.w3.org/1999/xlink" x="0px" y="0px"
	 viewBox="0 0 3627.59 3240" style="enable-background:new 0 0 3627.59 3240;" xml:space="preserve">
<style type="text/css">
	.st0{fill:#FEB845;}
	.st1{fill:#F48D40;}
	.st2{fill:#FC7D27;}
	.st3{fill:#650000;}
	.st4{opacity:0.4;}
	.st5{fill:#FFFFFF;}
	.st6{opacity:0.7;}
	.st7{fill:#B1411E;}
	.st8{fill:#993419;}
	.st9{fill:#EACEA2;}
	.st10{opacity:0.25;}
	.st11{fill:#FFA1A8;}
	.st12{fill:#512717;}
	.st13{fill:#FF9878;}
	.st14{fill:#F27564;}
	.st15{fill:#FFD243;}
	.st16{fill:#FCAC38;}
	.st17{fill:#371A45;}
	.st18{fill:#FF8A3B;}
	.st19{opacity:0.6;}
	.st20{fill:#C6C6C6;}
	.st21{fill:#335FFF;}
	.st22{opacity:0.5;}
	.st23{fill:#D8D8D8;}
	.st24{fill:#D3D3D3;}
	.st25{fill:#220F2D;}
	.st26{fill:#22A7F0;}
	.st27{fill:#1275D8;}
	.st28{fill:#FFF8EB;}
	.st29{fill:#FFB845;}
	.st30{opacity:0.5;fill:url(#SVGID_1_);}
	.st31{fill:#B0B0C6;}
	.st32{fill:#8E8EA3;}
	.st33{fill:#777777;}
	.st34{fill:#E8E8E8;}
	.st35{fill:#000072;}
	.st36{fill:#3A3A3A;}
	.st37{fill:#E1E1EF;}
	.st38{fill:#5AE264;}
	.st39{fill:#31BA37;}
	.st40{fill:#FF7029;}
	.st41{fill:#FF7C24;}
	.st42{fill:#FF6927;}
	.st43{fill:#D13905;}
	.st44{fill:#E05417;}
	.st45{opacity:0.2;}
	.st46{fill:#FF8080;}
	.st47{fill:#FF5C64;}
	.st48{fill:#181558;}
	.st49{opacity:0.35;}
	.st50{opacity:0.3;}
	.st51{fill:#FF0068;}
	.st52{fill:#66D0FF;}
	.st53{fill:#E96F5F;}
	.st54{fill:#A54D21;}
	.st55{opacity:0.55;}
	.st56{fill:#FFCA83;}
	.st57{fill:none;}
	.st58{fill:#FC7C8B;}
	.st59{fill:#6B184E;}
	.st60{fill:#4E2A63;}
	.st61{fill:#AA4B21;}
	.st62{fill:#963E1B;}
	.st63{fill:#FFB92E;}
	.st64{opacity:0.33;}
	.st65{opacity:0.1;}
	.st66{fill:#75758E;}
	.st67{opacity:0.15;}
	.st68{fill:#90B5DF;}
	.st69{fill:#F9ACBC;}
	.st70{fill:#E26F8A;}
	.st71{fill:#F9698C;}
	.st72{opacity:0.05;}
	.st73{fill:#00BDFF;}
	.st74{clip-path:url(#SVGID_00000009583412359467516690000014244243831117856911_);}
	.st75{fill:#5CE205;}
	.st76{fill:#54A520;}
	.st77{fill:#C8EF67;}
	.st78{fill:#72CE36;}
	.st79{fill:#A3D850;}
	.st80{fill:#FFDF57;}
	.st81{fill:#FF9C43;}
	.st82{fill:#CB5819;}
	.st83{fill:#AF4612;}
	.st84{fill:#1ACFFF;}
	.st85{fill:#CCE28F;}
	.st86{fill:none;stroke:#6B184E;stroke-width:40.1985;stroke-linecap:round;stroke-miterlimit:10;}
	.st87{fill:#FC9A30;}
	.st88{fill:#F97432;}
	.st89{fill:#FF7373;}
	.st90{fill:#FFA92C;}
	.st91{fill:#6A1A50;}
	.st92{fill:none;stroke:#371A45;stroke-width:28.1499;stroke-linecap:round;stroke-miterlimit:10;}
	.st93{fill:#C6610E;}
	.st94{fill:#A54804;}
	.st95{fill:#FECF1F;}
	.st96{fill:#FC9E22;}
	.st97{fill:#FFE9C2;}
	.st98{fill:#FFDBAB;}
	.st99{fill:#FC9322;}
	.st100{fill:none;stroke:#6B184E;stroke-width:34.9961;stroke-linecap:round;stroke-miterlimit:10;}
	.st101{fill:#DB5252;}
	.st102{fill:#FF8533;}
	.st103{fill:#FFC107;}
	.st104{fill:#FFA608;}
</style>
<g>
	<g>
		<g>
			<path class="st5" d="M1491.29,3190.92c0.41,4.28-8.01,8.84-20.91,12.15c-6.52,1.67-11.23,7.37-11.63,14.09
				c-0.81,13.3-3.7,22.42-7.98,22.83c-4.28,0.41-8.84-8.01-12.15-20.91c-1.67-6.52-7.37-11.23-14.09-11.64
				c-13.31-0.81-22.45-3.7-22.86-7.98c-0.41-4.3,8.02-8.88,20.92-12.16c6.52-1.66,11.25-7.37,11.65-14.09
				c0.8-13.31,3.7-22.43,7.98-22.84c4.28-0.41,8.84,8.01,12.15,20.92c1.67,6.52,7.38,11.24,14.1,11.64
				C1481.76,3183.72,1490.88,3186.62,1491.29,3190.92z"/>
		</g>
		<g>
			<path class="st5" d="M1698.03,2389.52c0.25,4.41-8.57,8.76-21.95,11.64c-6.76,1.45-11.82,7.12-12.51,14
				c-1.35,13.62-4.69,22.88-9.1,23.12s-8.76-8.57-11.64-21.95c-1.45-6.76-7.13-11.82-14-12.51c-13.63-1.35-22.91-4.69-23.16-9.1
				c-0.25-4.43,8.59-8.8,21.97-11.66c6.77-1.45,11.84-7.12,12.52-14.01c1.35-13.63,4.69-22.89,9.1-23.14
				c4.41-0.25,8.76,8.57,11.64,21.97c1.45,6.76,7.14,11.83,14.02,12.51C1688.53,2381.75,1697.78,2385.09,1698.03,2389.52z"/>
		</g>
		<g>
			<path class="st5" d="M2964.43,283.51c0,4.97-10.19,9.31-25.42,11.7c-7.69,1.21-13.74,7.26-14.95,14.95
				c-2.39,15.23-6.72,25.42-11.7,25.42c-4.97,0-9.31-10.19-11.7-25.42c-1.21-7.69-7.26-13.74-14.95-14.95
				c-15.24-2.39-25.46-6.73-25.46-11.7c0-5,10.21-9.34,25.44-11.71c7.7-1.2,13.76-7.26,14.97-14.95
				c2.39-15.24,6.72-25.44,11.7-25.44c4.97,0,9.31,10.19,11.7,25.44c1.21,7.7,7.27,13.75,14.97,14.95
				C2954.25,274.17,2964.43,278.51,2964.43,283.51z"/>
		</g>
		<g>
			<circle class="st5" cx="3323.5" cy="2312.85" r="20.76"/>
		</g>
		<g>
			<circle class="st5" cx="2985.28" cy="2635.72" r="20.7"/>
		</g>
		<g>
			<circle class="st5" cx="2419.09" cy="3111.99" r="24.61"/>
		</g>
		<g>
			<circle class="st5" cx="658.39" cy="661.48" r="24.61"/>
		</g>
		<g>
			<circle class="st5" cx="3282.12" cy="1124.9" r="20.76"/>
		</g>
		<g>
			<circle class="st5" cx="642.03" cy="24.61" r="24.61"/>
		</g>
		<g>
			<circle class="st5" cx="367.23" cy="3077.72" r="23.31"/>
		</g>
		<g>
			<circle class="st5" cx="3479.5" cy="655.23" r="10.67"/>
		</g>
		<g>
			<circle class="st5" cx="3367.79" cy="3184.72" r="12.66"/>
		</g>
		<g>
			<circle class="st5" cx="1560.05" cy="324.59" r="12.66"/>
		</g>
		<g>
			<circle class="st5" cx="1602.58" cy="867.48" r="12.66"/>
		</g>
		<g>
			<circle class="st5" cx="933.86" cy="2739.23" r="11.99"/>
		</g>
		<g>
			<circle class="st5" cx="550.57" cy="2237.57" r="23.31"/>
		</g>
	</g>
	<g>
		<g>
			<g>
				<path class="st20" d="M1353.6,1409.71l-93.08,0.66l-0.08-11.41c-0.15-21.11,16.85-38.35,37.96-38.5l16.62-0.12
					c21.11-0.15,38.35,16.85,38.5,37.96L1353.6,1409.71z"/>
				<path class="st17" d="M1260.52,1422.87c-3.29,0-6.44-1.29-8.78-3.6c-2.36-2.33-3.7-5.5-3.73-8.82l-0.08-11.41
					c-0.1-13.55,5.09-26.33,14.6-35.97c9.52-9.65,22.22-15.02,35.77-15.11l16.63-0.12c13.49-0.05,26.33,5.09,35.98,14.61
					c9.65,9.52,15.02,22.22,15.11,35.77l0.08,11.41c0.02,3.32-1.27,6.51-3.6,8.87c-2.33,2.36-5.5,3.7-8.82,3.73l-93.08,0.66
					C1260.58,1422.87,1260.55,1422.87,1260.52,1422.87z M1315.29,1372.83c-0.06,0-0.12,0-0.19,0l-16.63,0.12
					c-6.87,0.05-13.31,2.77-18.13,7.66c-4.57,4.63-7.17,10.69-7.39,17.15l68.02-0.48c-0.31-6.46-3-12.48-7.63-17.05
					C1328.5,1375.46,1322.1,1372.83,1315.29,1372.83z"/>
			</g>
			<g>
				<polygon class="st5" points="1328.19,1360.24 1285.23,1360.54 1284.85,1307.79 1327.91,1320.88 				"/>
				<path class="st17" d="M1285.23,1373.05c-3.29,0-6.44-1.29-8.78-3.6c-2.36-2.33-3.7-5.5-3.73-8.82l-0.37-52.75
					c-0.02-3.98,1.84-7.73,5.02-10.11c3.19-2.38,7.3-3.1,11.12-1.94l43.06,13.09c5.23,1.59,8.83,6.4,8.87,11.88l0.28,39.36
					c0.05,6.9-5.51,12.54-12.42,12.59l-42.96,0.31C1285.28,1373.05,1285.26,1373.05,1285.23,1373.05z M1297.48,1324.7l0.17,23.25
					l17.95-0.13l-0.12-17.66L1297.48,1324.7z"/>
			</g>
			<g>
				<path class="st21" d="M1412.54,1433.27l-210.62,1.49l2.3,326.61c0,0,32.53,14.08,105.41,13.56
					c72.88-0.51,105.21-15.05,105.21-15.05L1412.54,1433.27z"/>
			</g>
			<g class="st22">
				<path class="st5" d="M1240.74,1434.49l2.35,336.2c-26.52-3.97-38.86-9.31-38.86-9.31l-2.33-326.62L1240.74,1434.49z"/>
			</g>
			<g>
				
					<rect x="1201.99" y="1433.99" transform="matrix(1 -7.052949e-03 7.052949e-03 1 -10.1689 9.2563)" class="st5" width="210.62" height="24.83"/>
			</g>
			<g>
				<path class="st5" d="M1414.61,1729.09l0.22,30.77c0,0-32.34,14.56-105.21,15.07c-72.87,0.51-105.41-13.59-105.41-13.59
					l-0.22-30.77c0,0,32.54,14.1,105.41,13.59C1382.27,1743.65,1414.61,1729.09,1414.61,1729.09z"/>
			</g>
			<g>
				<path class="st5" d="M1413.28,1540.09l0.62,87.9c0,0-32.34,14.56-105.21,15.07c-72.87,0.51-105.41-13.59-105.41-13.59
					l-0.62-87.9c0,0,32.54,14.1,105.41,13.59C1380.94,1554.65,1413.28,1540.09,1413.28,1540.09z"/>
			</g>
			<g>
				<path class="st17" d="M1305.77,1787.44c-71.92,0-105.12-14-106.52-14.61c-4.55-1.97-7.5-6.43-7.54-11.39l-2.3-326.61
					c-0.05-6.9,5.51-12.54,12.42-12.59l210.62-1.48c0.03,0,0.06,0,0.09,0c3.29,0,6.44,1.29,8.78,3.6c2.36,2.33,3.7,5.5,3.73,8.82
					l2.3,326.61c0.03,4.95-2.86,9.46-7.38,11.49c-1.42,0.63-35.59,15.62-110.25,16.15
					C1308.39,1787.44,1307.08,1787.44,1305.77,1787.44z M1216.66,1752.35c13,3.75,43.23,10.44,92.88,10.07
					c50.12-0.35,79.92-7.39,92.73-11.33l-2.15-305.23l-185.62,1.31L1216.66,1752.35z"/>
			</g>
			<g>
				<path class="st17" d="M1305.77,1787.44c-71.92,0-105.12-14-106.52-14.61c-4.55-1.97-7.5-6.43-7.54-11.39l-2.3-326.61
					c-0.05-6.9,5.51-12.54,12.42-12.59l210.62-1.48c0.03,0,0.06,0,0.09,0c3.29,0,6.44,1.29,8.78,3.6c2.36,2.33,3.7,5.5,3.73,8.82
					l2.3,326.61c0.03,4.95-2.86,9.46-7.38,11.49c-1.42,0.63-35.59,15.62-110.25,16.15
					C1308.39,1787.44,1307.08,1787.44,1305.77,1787.44z M1216.66,1752.35c13,3.75,43.23,10.44,92.88,10.07
					c50.12-0.35,79.92-7.39,92.73-11.33l-2.15-305.23l-185.62,1.31L1216.66,1752.35z"/>
			</g>
			<g>
				<path class="st20" d="M1333.9,1395.21l-53.89,0.38c-28.62,0.2-55.18,14.93-70.51,39.11l0,0l195.46-1.38l0,0
					C1389.29,1409.36,1362.53,1395.01,1333.9,1395.21z"/>
				<path class="st17" d="M1209.5,1447.21c-4.54,0-8.73-2.46-10.93-6.44c-2.22-4-2.08-8.89,0.37-12.76
					c17.69-27.9,47.96-44.69,80.99-44.92l53.89-0.38c0.23,0,0.46,0,0.7,0c32.76,0,62.96,16.33,80.91,43.77
					c2.5,3.83,2.72,8.72,0.56,12.75c-2.16,4.03-6.36,6.56-10.93,6.59l-195.46,1.38C1209.56,1447.21,1209.53,1447.21,1209.5,1447.21z
					 M1333.99,1407.72l-53.89,0.38c-15.41,0.11-30,5.08-41.98,13.9l138.05-0.98c-11.96-8.55-26.44-13.31-41.66-13.31
					C1334.34,1407.71,1334.17,1407.71,1333.99,1407.72L1333.99,1407.72z M1333.9,1395.21h0.05H1333.9z"/>
			</g>
		</g>
		<g>
			<g>
				<path class="st5" d="M2946.8,1659.28c78.44,84.33,103.19,422.98,47.4,612.13s-399.45,142.11-593.37,100.68
					c-193.92-41.43-113.72-482.31-89.87-599.98C2348.22,1588.36,2830.57,1534.32,2946.8,1659.28z"/>
			</g>
			<g>
				<path class="st23" d="M2400.82,2372.09c193.91,41.43,537.56,88.45,593.39-100.69c7.29-24.78,13.23-52.09,17.8-81.08
					c-61.5,32.64-129.76-18.59-129.47-71.99c0.92-171.68-24.92-293.05-56.96-377.34c-37.08-97.55-138.27-156.16-241.16-138.69
					c-134.02,22.75-255.51,81.19-273.45,169.83C2287.09,1889.78,2206.91,2330.67,2400.82,2372.09z"/>
			</g>
			<g>
				<path class="st17" d="M2705.34,2426.3c-98.81,0-208.18-16.58-307.99-37.9c-91.17-19.47-138.2-116.22-139.79-287.54
					c-1.09-117.94,19.55-245.67,37.07-332.05c14.75-72.74,90.62-131.88,213.65-166.55c155.57-43.83,372.13-38.84,450.74,45.66
					c82.22,88.39,109.96,428.91,51.18,628.21C2976.79,2389.35,2852.83,2426.29,2705.34,2426.3z M2709.94,1608
					c-62.21,0-129.35,8.53-192.62,26.35c-108.79,30.65-178.05,82.07-190.01,141.07c-25.7,126.8-96.12,543.38,77.01,580.37
					c192.4,41.11,522.79,84.18,573.9-89.1c54.02-183.15,29.57-517.39-43.61-596.06l0,0C2896.74,1629.93,2809.69,1608,2709.94,1608z"
					/>
			</g>
			<g>
				<path class="st5" d="M2869.28,1979.55l92.78-18.9c20.97-4.27,40.99,10.77,42.6,32.11c5.54,73.43,7.33,223.87-68.63,240.91
					c-92.05,20.65-104.58-83.5-95.17-221.78C2841.96,1995.95,2853.63,1982.73,2869.28,1979.55z"/>
			</g>
			<g>
				<path class="st23" d="M2841.09,2011.7c-9.74,138.26,2.56,242.46,94.65,222c37.82-8.35,56.46-49.88,64.94-98.49
					c-9.64,12.61-21.81,21.53-37.2,24.93c-82.44,18.28-100.97-63.33-96.87-179.91C2852.41,1984.24,2842.09,1996.8,2841.09,2011.7z"
					/>
			</g>
			<g>
				<path class="st17" d="M2913.97,2252.95c-19.64,0-36.47-5.96-50.24-17.82c-36.4-31.38-48.15-98.54-39.29-224.58
					c1.64-23.31,18.84-42.82,41.82-47.45l92.83-18.69c14.72-2.97,30.01,0.54,41.97,9.61c11.92,9.05,19.39,22.8,20.48,37.72
					c6.45,88.2,4.35,239.04-82.18,258.24C2930.43,2251.96,2921.96,2252.95,2913.97,2252.95z M2872.83,1995.77L2872.83,1995.77
					c-8.32,1.68-14.55,8.71-15.14,17.1c-2.84,40.35-11.47,163.14,27.8,196.99c11.13,9.59,26.37,12.07,46.63,7.56
					c44.66-9.91,65.65-93.37,56.16-223.26c-0.4-5.45-3.02-10.28-7.39-13.59c-4.4-3.34-9.79-4.57-15.22-3.49L2872.83,1995.77z"/>
			</g>
			<g>
				<path class="st17" d="M2965.52,1705.56c-44.24,2.23-89.07,6.11-132.63,14.16c-10.15,1.83-13.91-12.94-4.1-16.15
					c32.74-10.44,65.98-18.1,99.55-24.9c11.21-2.23,22.28-4.34,33.75-6.28c9.1-1.54,17.72,4.59,19.26,13.69
					C2983.08,1695.92,2975.49,1705.23,2965.52,1705.56L2965.52,1705.56z"/>
			</g>
		</g>
		<g>
			<path class="st5" d="M2491.33,1631.23l-51.89,162.93l-42.01,131.83c-20.13,5.75-40.01,10.92-59.56,15.55
				c-578.23,136.38-893.62-215.61-893.62-215.61c-72.4-3.25-65.85-38.35-113.91-18.59c-38.3,15.76-86.69,14.13-85.03-26.42
				c0.25-6.17,1.71-11.71,4.17-16.76c23.76-49.1,140.59-50.06,148.42-86.82c8.59-40.51-2.83-184.68-2.83-184.68
				c-62.02,15.3-88.36-11.88-95.03-28.22c-11.17-27.51-10.29-62.1,17.92-64.27c40.55,16.51,94.78,10.25,124.54,15.42
				c29.76,5.13,109.12,178.27,109.12,178.27c51.93,88.82,322.31,141.84,574.68,154.59
				C2267.39,1655.53,2402.85,1650.07,2491.33,1631.23z"/>
		</g>
		<g>
			<path class="st23" d="M2491.33,1631.23l-51.89,162.93c-126.92-8.79-238.74-63.85-313.14-145.71
				C2267.39,1655.53,2402.85,1650.07,2491.33,1631.23z"/>
		</g>
		<g>
			<path class="st23" d="M2824.44,1648.36c-32.72,36.01-72.69,66.85-118.04,90.86l-57.1-175.01
				C2688.69,1596.22,2750.71,1624.93,2824.44,1648.36z"/>
		</g>
		<g>
			<path class="st23" d="M2760.71,1705.29c-77.19,56.27-176.76,90.11-285.38,90.11c-87.03,0-168.22-21.72-236.78-59.27
				l222.15-293.59l294.09,214.4C2756.62,1672.49,2758.58,1688.62,2760.71,1705.29z"/>
		</g>
		<g>
			<path class="st23" d="M2337.87,1941.53c-578.23,136.38-893.62-215.61-893.62-215.61c-72.4-3.25-65.85-38.35-113.91-18.59
				c-38.3,15.76-86.69,14.13-85.03-26.42c0.25-6.17,1.71-11.71,4.17-16.76c9.17,11.92,27.59,27.59,58.81,21.01
				c56.81-11.96,75.02-10.63,97.07-2.04c22.05,8.59,67.69,4.67,103.95-57.27c36.3-61.94,24.76,71.27,168.93,186.02
				c144.17,114.7,481.28,67.27,535.21-42.56C2302.65,1808.03,2331.82,1878.22,2337.87,1941.53z"/>
		</g>
		<g>
			<path class="st17" d="M2078.37,1989.26c-167.18,0-300.61-39.69-395.38-82.02c-143.12-63.91-226.09-144.03-246.37-165.06
				c-32.78-2.49-50.21-11.32-63.15-17.89c-13.57-6.88-18.14-9.2-36.77-1.55c-26.93,11.07-64.33,16.88-88.52-0.07
				c-13.32-9.33-20.25-24.4-19.51-42.44c2.02-49.05,56.6-67.03,100.45-81.48c18.97-6.25,50.74-16.72,52.47-24.86
				c5.79-27.24,1.49-113.41-1.79-161.32c-71.79,9.84-92.87-36.18-95.19-41.88c-8.12-20.02-12.48-48.42-0.31-68.06
				c6.96-11.24,18.47-18.02,32.4-19.08c2.56-0.2,5.16,0.21,7.56,1.18c23.8,9.68,54.11,10.66,80.85,11.52
				c14.83,0.48,28.83,0.93,40.24,2.9c13.82,2.4,32.78,16.12,77.57,99.62c21.77,40.59,40.63,81.13,43.5,87.33
				c33.9,56.41,181.36,105.54,394.92,131.54c195.59,23.8,407.2,22.72,526.53-2.71c9-1.93,17.86,3.83,19.78,12.83
				c1.92,9.01-3.82,17.86-12.83,19.78c-122.59,26.12-338.6,27.41-537.51,3.2c-133.99-16.31-366.74-57.28-420.06-148.46
				c-0.28-0.48-0.54-0.96-0.77-1.47c-34.3-74.81-81.46-159.96-97.7-168.94c-9.05-1.46-21.54-1.86-34.74-2.29
				c-26.65-0.85-59.48-1.91-87.83-12.22c-2.04,0.67-2.91,1.78-3.56,2.83c-3.76,6.08-3.99,21.08,2.86,37.97
				c5.06,12.48,26.67,30.38,75.55,18.32c4.75-1.17,9.78-0.2,13.75,2.66c3.97,2.86,6.48,7.32,6.87,12.2
				c1.19,15,11.38,147.78,2.52,189.48c-5.71,26.88-37.66,37.41-74.65,49.6c-35.85,11.82-76.49,25.21-77.56,51.18
				c-0.36,8.65,2.66,11.9,5.32,13.76c10.35,7.25,34.2,5.8,56.72-3.46c30.46-12.53,45.33-7.08,64.53,2.66
				c12.35,6.26,26.35,13.36,56.45,14.73c4.47,0.2,8.67,2.19,11.66,5.53c0.82,0.91,84.73,93.01,241.44,162.65
				c144.38,64.17,382.11,121.88,694.78,32.5c8.83-2.54,18.08,2.59,20.61,11.45c2.53,8.85-2.59,18.08-11.45,20.61
				C2283.49,1975.92,2175.25,1989.25,2078.37,1989.26z"/>
		</g>
		<g>
			<path class="st5" d="M2611.12,2828.78c-129.62,45.06-165.51-88.15-170.64-110.74c-0.46-2.08-0.67-3.21-0.67-3.21
				c-133.42,29.18-277.63-16.05-315.64-102.41c-37.05-84.15-19.09-168.22,12.55-242.33c25.76-60.23,60.56-113.91,82.32-155.67
				l263.08,45.97l-38.72,151.92c36.55,12.13,99.49,0.88,144.46,25.8c17.34,13.25,37.34,45.22,54.31,85.65
				c20.42,48.64,36.51,109.49,38.35,164.47C2682.73,2753.21,2665.05,2810.06,2611.12,2828.78z"/>
		</g>
		<g>
			<path class="st23" d="M2642.17,2523.76c-52.81-6.34-129.17-8.34-237.28,2.46c-178.77,17.88-244.29-84.57-268.17-156.13
				c25.76-60.23,60.56-113.91,82.32-155.67l263.08,45.97l-38.72,151.92c36.55,12.13,99.49,0.88,144.46,25.8
				C2605.2,2451.36,2625.21,2483.33,2642.17,2523.76z"/>
		</g>
		<g>
			<path class="st23" d="M2611.11,2828.78c-129.62,45.06-165.51-88.15-170.64-110.74c32.39-13,97.32-43.89,120.91-90.24
				c0,0,9.21,33.22-41.18,92.45c-16.13,18.96-4.63,58.44,20.22,67.65c70.44,26.13,125.92-43.18,140.09-99.66
				C2682.71,2753.21,2665.04,2810.06,2611.11,2828.78z"/>
		</g>
		<g>
			<path class="st17" d="M2560.97,2854.72c-21.89,0-42.07-5.33-60.35-15.99c-45.13-26.3-65.41-77.98-73.16-104.49
				c-138.49,24.47-279.1-25.42-318.56-115.11c-60.63-137.8,15.32-270.95,70.78-368.18c9.04-15.84,17.57-30.81,24.58-44.24
				c4.26-8.16,14.32-11.35,22.49-7.08c8.16,4.25,11.33,14.33,7.08,22.49c-7.29,13.99-15.98,29.23-25.18,45.36
				c-51.95,91.07-123.09,215.79-69.22,338.23c34.32,78,170.25,120.51,296.81,92.82c4.42-0.95,9.04-0.09,12.8,2.41
				s6.35,6.43,7.16,10.88c0.12,0.67,13.64,70.48,61.35,98.18c24.05,13.96,53.7,14.98,88.1,3.02c30.36-10.56,49.12-36.98,55.76-78.53
				c16.32-102.2-45.77-252.55-82.74-282.42c-23.45-12.52-53.37-14.27-82.33-15.97c-21.31-1.25-41.43-2.43-58.2-8
				c-8.3-2.76-13.05-11.46-10.89-19.94l38.72-151.89c2.28-8.93,11.35-14.31,20.27-12.04c8.93,2.28,14.31,11.35,12.04,20.27
				l-34.5,135.35c10.27,1.54,22.17,2.24,34.51,2.95c31.59,1.85,67.4,3.95,97.65,20.69c0.71,0.39,1.39,0.83,2.03,1.32
				c49.25,37.54,114.68,200.25,96.37,314.91c-8.6,53.85-35.48,90.08-77.73,104.77C2597.02,2851.33,2578.45,2854.72,2560.97,2854.72z
				"/>
		</g>
		<g>
			<g>
				<path class="st5" d="M2561.39,2627.79c0,0-24.06,61.48-121.61,87.03L2561.39,2627.79z"/>
			</g>
			<g>
				<path class="st17" d="M2569.16,2630.83c-13.33,32.26-39.9,57.1-69.2,75c-17.47,10.84-36.51,18.57-55.95,25.12
					c-8.69,3.1-18.26-1.43-21.36-10.13c-3.55-9.69,2.81-20.36,12.91-22.13c40.88-8.5,81.7-26.65,108.49-59.72
					c3.69-4.51,7.46-10.08,9.99-14.99C2558.92,2614.96,2572.73,2621.21,2569.16,2630.83L2569.16,2630.83z"/>
			</g>
		</g>
		<g>
			<g>
				<path class="st5" d="M2403.81,2536.17c0,0,21.63-46.59,39.57-123.88L2403.81,2536.17z"/>
			</g>
			<g>
				<path class="st17" d="M2396.25,2532.66c14.3-40.02,23.82-82.25,30.89-124.14c4.72-22.97,38.35-15.25,32.48,7.54
					c-12.95,42.5-28.03,83.96-48.25,123.62C2406.41,2548.91,2392.39,2542.39,2396.25,2532.66L2396.25,2532.66z"/>
			</g>
		</g>
		<g>
			<path class="st5" d="M3190.47,2994.58c-136.04,56.64-183.52-148.21-183.52-148.21c-274.8-15.63-405.34-190.56-449.39-309.1
				c-6.71-18.05-11.42-34.8-14.34-49.47c-78.44-10.46-207.23-30.63-301.85-128.96c-45.39-47.14-73.23-116.95-80.4-209.78
				c-7.75-99.78,8.42-226.24,52.47-379.75l247.25-326.77l294.09,214.4c16.51,140.29,45.39,331.86,74.65,486.78
				c21.8,115.58,43.81,210.73,60.98,249.04c0.42,0.88,0.79,1.71,1.17,2.5c87.74,184.98,245.54,189.69,305.51,276.05
				C3240.2,2733.33,3334.6,2934.6,3190.47,2994.58z"/>
		</g>
		<g>
			<path class="st5" d="M3190.48,2994.56c-136.04,56.64-183.52-148.21-183.52-148.21c-274.8-15.63-405.34-190.56-449.39-309.1
				c-6.71-18.05-11.42-34.8-14.34-49.47c-78.44-10.46-207.23-30.64-301.85-128.96c-45.39-47.14-73.23-116.95-80.4-209.78
				c-7.75-99.78,8.42-226.24,52.48-379.75l247.25-326.77l294.09,214.4c8.96,76.02,21.51,167.1,35.84,259.25
				c12.05,77.9,25.38,156.55,38.8,227.53c0.67,3.5,1.33,7,2,10.46c21.13,110.83,42.31,201.44,58.98,238.58
				c0.42,0.88,0.79,1.71,1.17,2.5c87.74,184.98,245.54,189.69,305.51,276.05C3240.21,2733.31,3334.61,2934.58,3190.48,2994.56z"/>
		</g>
		<g>
			<path class="st23" d="M2831.45,2154.17c-96.74,14.63-269.25,37.6-300.68,20.88c-44.1-23.47,23.55-90.86,23.55-90.86
				s256,73.15,215.78-149.88c6.96-7.09,13.8-13.09,20.55-18.13c12.05,77.9,25.38,156.55,38.8,227.53
				C2830.12,2147.2,2830.79,2150.71,2831.45,2154.17z"/>
		</g>
		<g>
			<path class="st23" d="M2760.71,1705.29c-77.19,56.27-176.76,90.11-285.38,90.11c-87.03,0-168.22-21.72-236.78-59.27
				l222.15-293.59l294.09,214.4C2756.62,1672.49,2758.58,1688.62,2760.71,1705.29z"/>
		</g>
		<g>
			<path class="st23" d="M2890.42,2392.76c-69.15,7.34-272.55,37.64-332.86,144.5c-6.71-18.05-11.42-34.8-14.34-49.47
				c-78.44-10.46-207.23-30.63-301.85-128.96c-45.39-47.14-73.23-116.95-80.4-209.78c134.75,18.21,430.39,47.43,668.46-5.34
				C2851.24,2259.3,2873.25,2354.46,2890.42,2392.76z"/>
		</g>
		<g>
			<path class="st17" d="M2221.45,1771.6c-26.75,151.88-68.54,308.27-28.02,460.67c12.86,45.24,33.37,87.42,67.11,119.45
				c6.2,6.33,14.1,13.52,20.78,18.94c73.54,62.44,170.01,87.74,264.11,100.61c7.25,1,12.79,6.49,14.15,13.28
				c4.92,24.04,13.26,47.99,23.52,70.98c31.19,69.15,80.33,130.22,140.87,175.89c81.13,61.97,182.7,92.58,283.95,98.29
				c7.53,0.54,13.57,5.94,15.3,12.89c4.16,16.68,10.53,34.56,17.46,50.61c19.57,44.03,52.51,95.25,105.61,94.47
				c30.95-1.14,65.9-17.96,84.24-43.58c39.91-57.78,13.53-140.19-12.25-199.98c-39.23-88.73-68.49-100.39-150.48-146.84
				c-82.39-44.73-152.77-109.21-191.8-196.17c-23.67-58.52-35.15-120.4-48.48-181.38c-22.9-111.31-41.52-223.47-58.63-335.74
				c-11.28-74.85-21.69-149.83-30.63-225.11l6.74,11.52L2450.89,1456c-16.67-12.06,0.08-39.8,19.64-26.94
				c0,0,294.07,214.39,294.07,214.39c3.88,2.83,6.19,7.1,6.74,11.53c18.01,149.55,40.72,298.86,67.4,447.12
				c17.56,91.27,33.01,184.85,62.64,272.83c19.94,50.13,52.58,95.21,92.77,131.02c40.91,36.94,91.56,62.56,139.66,90.68
				c33.93,19.47,68.48,46.49,87.7,81.8c47.96,81.88,99.73,216.96,25.53,297.88c-26.55,26.73-61.68,43.08-100.17,44.7
				c-67.18,1.96-113.14-58.9-136.76-114.46c-8.01-18.64-14.36-36.47-19.39-56.43l15.3,12.88
				c-107.75-6.07-215.59-38.91-302.14-104.96c-86.53-66.17-152.89-159.35-177.02-267c0,0,14.15,13.28,14.15,13.28
				c-100.26-10.97-204.84-38.41-283.34-105.41c-119.43-93.84-126.11-260.74-109.54-399.44c9.52-79.82,27.68-158.29,57.3-232.47
				C2209.6,1758.05,2222.85,1761.34,2221.45,1771.6L2221.45,1771.6z"/>
		</g>
		<g>
			<g>
				<path class="st5" d="M3112.15,2769.14c0,0-16.55,71.96-105.18,77.22L3112.15,2769.14z"/>
			</g>
			<g>
				<path class="st17" d="M3120.28,2771.01c-7.86,35.17-33.16,64.37-65.62,79.39c-2.99,1.11-10.72,4.34-13.63,5.4
					c-10.56,3.3-22.13,5.7-33.06,7.2c-21.87,3.06-27.33-28.55-5.64-32.96c8.73-0.84,18.22-0.52,26.91-2.29
					c2.26-0.24,5.4-0.89,7.55-1.55l7.47-1.94c4.2-1.68,10.27-3.66,14.11-5.93c20.72-10.01,37.73-29.51,45.67-51.06
					C3106.97,2756.87,3122.28,2760.36,3120.28,2771.01L3120.28,2771.01z"/>
			</g>
		</g>
		<g>
			<path class="st5" d="M3608.15,1926.57c-5.38,19.51-17.34,26.55-31.84,32.8c-25.17,10.79-60.85-7.21-102.03,17.17
				c-150.67,89.28-442.39,121.46-690.64-33.55c-4.54-2.83-9.04-5.71-13.55-8.67l-120.79-370.12
				c131.25,106.7,514.37,176.97,741.28,135.46c125.54-22.97,196.31,0.54,200.44,60.23c1.67,24.72-30.68,39.51-30.55,42.39
				c0.12,2.83,28.47,14.42,40.39,42.56c5.17,12.21,8.29,29.51,9.34,45.72C3611.11,1904.86,3610.44,1918.28,3608.15,1926.57z"/>
		</g>
		<g>
			<path class="st23" d="M2824.44,1648.36c-32.72,36.01-72.69,66.85-118.04,90.86l-57.1-175.01
				C2688.69,1596.22,2750.71,1624.93,2824.44,1648.36z"/>
		</g>
		<g>
			<path class="st23" d="M3608.15,1926.57c-5.38,19.51-17.34,26.55-31.84,32.8c-25.17,10.79-60.85-7.21-102.03,17.17
				c-150.67,89.28-442.39,121.46-690.64-33.55c57.81,22.09,180.35,57.73,317.85,29.97c150.05-30.34,186.94-97.86,186.94-97.86
				l154.22-160.34c0,0-57.31,121.33,31.01,178.02c54.06,34.68,112.79,27.43,136.54-2.21
				C3611.11,1904.86,3610.44,1918.28,3608.15,1926.57z"/>
		</g>
		<g>
			<path class="st17" d="M2659.8,1551.28c141.68,106.86,439.89,149.04,616.38,143.18c32.08-1.13,64.01-3.65,95.66-8.57
				c55.83-9.54,113.21-19.14,169.48-3.01c36.33,10.29,66.25,39.27,66.42,79.35c-0.19,22.85-17.98,39.23-34.78,50.84
				c-0.38,0.28-0.54,0.45-0.27,0.18c0.26-0.23,0.5-0.49,0.73-0.76c0.18-0.18,1.44-1.77,1.87-2.73c1.7-2.59,2.51-8.7,1.24-11.99
				c-1.86-4.93-1.83-3.87-2.85-5.49c-0.95-1.15-1.38-1.42-1.41-1.48c-0.24-0.19-0.02-0.02,0.01,0c4.77,3.23,10.17,6.76,15.5,11.06
				c9.78,7.83,18.98,17.74,25.42,29.83c6.47,12.47,9.21,24.48,11.35,36.2c3.07,19.64,4.54,39.28,0.96,59.17
				c-3.25,19.74-18.55,37.84-36.56,45.36c-6.2,3-13.34,5.78-19.99,6.73c-26.63,3.77-52.6-3.49-76.62,7.63
				c-9.4,4.19-18.34,10.33-27.5,14.94c-154.49,78.85-342.08,85.02-507.01,37.27c-69.21-20.39-136.97-50.88-192.3-97.72
				c-3.54-3-3.98-8.3-0.98-11.84c2.54-3.01,6.76-3.78,10.13-2.1c39.08,18.93,77.53,37.24,117.14,53.01
				c137.85,56.04,293.49,68.53,438.3,34.01c40.88-10.15,81.24-23.9,118.46-43.47c6.97-3.48,14.46-8.13,21.37-11.83
				c14.03-7.58,30.43-11.92,45.87-12.97c17.24-1.53,32.27,1.15,47.53-0.78c2.92-0.46,5.09-1.18,7.59-2.3
				c8.07-3.64,15.09-7.17,18.65-15.1c3.63-7.71,3.87-15.96,4.06-24.71c-0.01-17.93-2.47-40.28-10.11-55.73
				c-6.51-12.66-18.73-21.64-31.17-29.9c-1.8-1.33-2.29-1.72-4.48-4.15c-1.2-1.91-1.45-1.08-3.37-6.36
				c-2.01-5.29,0.33-12.94,3.82-16.51c3.15-3.42,7.55-6.22,10.98-8.84c7.65-5.63,13.26-11.98,14.55-16.6
				c1.51-6.76-0.98-14.11-3.26-20.29c-6.77-15.87-22.45-24.88-39.12-30.09c-48.89-14.04-104.64-4.49-154.51,4.1
				c-76.75,11.67-154.97,11.42-232.12,6.02c-131.93-10.46-263.52-34.56-387.37-82.63c-41.92-16.96-82.77-36.38-118.69-65.07
				c-7.16-5.8-8.26-16.3-2.46-23.45C2642.11,1546.54,2652.65,1545.45,2659.8,1551.28L2659.8,1551.28z"/>
		</g>
		<g>
			<path class="st5" d="M3287.16,1719.12c52.4-24.51,143.1-136.32,179.84-102.54c19.69,18.11,30.88,67.2-48.61,115.54
				c-24.41,14.85-21.11,59.19-30.43,81.07c-6.94,16.28-20.19,46.08-101.49,64.66L3287.16,1719.12z"/>
		</g>
		<g>
			<path class="st17" d="M3282.04,1704.5c48.48-22.34,126.52-123.96,180.9-105.79c20.51,7.64,31.93,30.62,33.07,50.59
				c1.17,44.14-33.98,75.83-67.66,97.02c-6.86,4.1-9.2,10.34-11.76,18.43c-5.03,15.75-5.7,35.4-12.94,52.92
				c-12.22,32.51-45.56,51.83-77.18,59.41c-12,3.29-24.1,5.02-36.18,6.13c-4.62,0.43-8.72-2.98-9.15-7.6
				c-0.36-3.86,1.96-7.36,5.43-8.65c34.09-14.8,72.25-25.83,85.85-62.19c4.95-15.57,5.04-32.1,10.37-50.09
				c3.79-13.61,12.1-29,25.14-36.95c23.86-15.43,54.02-36.3,54.43-66.74c-0.37-7.17-3.43-14.95-8.51-19.62
				c-1.48-1.22-2.31-1.57-5.11-1.67c-13.21,1.04-25.88,10.09-38.03,18.21c-38.91,27.02-71.3,64.08-114.53,86.79
				C3275.83,1743.8,3261.95,1714.39,3282.04,1704.5L3282.04,1704.5z"/>
		</g>
		<g>
			<path class="st17" d="M3042.38,2057.59c-5.06,0-10.07-2.3-13.34-6.66c-143.91-191.5,28.98-360.43,30.74-362.11
				c6.65-6.36,17.21-6.12,23.57,0.54c6.36,6.66,6.12,17.2-0.53,23.56c-6.43,6.18-153,150.46-27.12,317.98
				c5.53,7.36,4.05,17.81-3.32,23.34C3049.39,2056.5,3045.87,2057.59,3042.38,2057.59z"/>
		</g>
		<g>
			<path class="st17" d="M1831.08,1954.19c-1.68,0-3.38-0.34-5.01-1.05c-6.32-2.77-9.2-10.14-6.43-16.47
				c69.81-159.31,22.8-312.84,22.32-314.38c-2.08-6.58,1.58-13.61,8.15-15.69c6.59-2.08,13.6,1.56,15.69,8.14
				c2.09,6.61,50.46,163.75-23.26,331.96C1840.48,1951.4,1835.89,1954.19,1831.08,1954.19z"/>
		</g>
		<g>
			<path class="st17" d="M2765.24,2747.48c-24.71,0-52.6-4.22-83.99-14.35c-6.57-2.12-10.18-9.17-8.06-15.74
				c2.12-6.57,9.17-10.17,15.74-8.06c77.96,25.16,141.18,14.55,187.89-31.53c59.28-58.5,71.6-155.42,61.31-188.82
				c-2.04-6.6,1.67-13.6,8.27-15.63c6.6-2.05,13.6,1.67,15.63,8.27c14.18,46.04-5.12,152.29-67.65,213.98
				C2868,2721.63,2826.4,2747.47,2765.24,2747.48z"/>
		</g>
		<g>
			<g>
				<circle class="st5" cx="2176.52" cy="2154.31" r="53.34"/>
			</g>
			<g>
				<path class="st23" d="M2123.33,2150.46c-2.12,29.38,19.95,54.95,49.33,57.07s54.95-20,57.07-49.38
					c0.59-8.12-0.67-15.98-3.47-23.11c-9.84,17.35-29.09,28.49-50.31,26.96c-21.22-1.53-38.67-15.33-45.87-33.91
					C2126.29,2134.74,2123.92,2142.34,2123.33,2150.46z"/>
			</g>
			<g>
				<path class="st17" d="M2176.62,2224.33c-1.71,0-3.43-0.06-5.15-0.19c-38.51-2.79-67.56-36.38-64.79-74.88l0,0
					c1.35-18.65,9.88-35.66,24.02-47.9c14.15-12.23,32.16-18.19,50.86-16.88c18.65,1.35,35.66,9.88,47.9,24.02
					s18.23,32.2,16.88,50.85c-1.35,18.65-9.88,35.66-24.02,47.9C2209.49,2218.37,2193.42,2224.33,2176.62,2224.33z M2139.95,2151.67
					L2139.95,2151.67c-1.46,20.17,13.76,37.76,33.93,39.22c9.71,0.67,19.22-2.44,26.63-8.85c7.41-6.41,11.88-15.32,12.58-25.08
					c1.46-20.17-13.76-37.76-33.93-39.21c-9.79-0.74-19.22,2.43-26.64,8.84C2145.12,2132.99,2140.65,2141.9,2139.95,2151.67z"/>
			</g>
			<g>
				<g>
					<path class="st5" d="M2233.14,2297.25l290.05,16.33c34.33,1.94,64.03-24.57,65.97-58.94l8.68-154.35
						c1.69-30.09-18.43-56.58-46.54-64c-3.98-1.08-8.13-1.72-12.41-1.97l-290.01-16.33c-34.37-1.94-64.07,24.57-65.97,58.94
						l-6.9,122.25l-1.82,32.1C2172.25,2265.65,2198.81,2295.31,2233.14,2297.25z"/>
				</g>
				<g>
					<path class="st5" d="M2233.14,2297.25l290.05,16.33c34.33,1.94,64.03-24.57,65.97-58.94l8.68-154.35
						c1.69-30.09-18.43-56.58-46.54-64c-3.98-1.08-8.13-1.72-12.41-1.97l-290.01-16.33c-34.37-1.94-64.07,24.57-65.97,58.94
						l-6.9,122.25l-1.82,32.1C2172.25,2265.65,2198.81,2295.31,2233.14,2297.25z"/>
				</g>
				<g>
					<path class="st5" d="M2233.14,2297.25l290.05,16.33c34.33,1.94,64.03-24.57,65.97-58.94l8.68-154.35
						c1.69-30.09-18.43-56.58-46.54-64c-3.98-1.08-8.13-1.72-12.41-1.97l-290.01-16.33c-34.37-1.94-64.07,24.57-65.97,58.94
						l-6.9,122.25l-1.82,32.1C2172.25,2265.65,2198.81,2295.31,2233.14,2297.25z"/>
				</g>
				<g>
					<path class="st23" d="M2233.13,2297.25l290.05,16.33c34.33,1.94,64.03-24.57,65.97-58.94l8.68-154.35
						c1.69-30.09-18.43-56.58-46.54-64c-17.09,10.01-27.94,16.42-27.94,16.42c-21.1,123.1-59.86,182.9-213.85,176.75
						c-66.47-2.67-107.82-15.16-133.5-30.28l-1.82,32.1C2172.25,2265.65,2198.8,2295.31,2233.13,2297.25z"/>
				</g>
				<g>
					<path class="st17" d="M2523.94,2326.03c-1.47,0-2.95-0.04-4.43-0.13l-284.11-16c-42.95-2.42-75.93-39.34-73.51-82.29
						l8.36-148.45c2.42-42.95,39.28-75.98,82.29-73.52l284.11,16c20.74,1.17,39.82,10.39,53.74,25.97s20.94,35.58,19.78,56.31
						l-8.36,148.45C2599.45,2293.86,2564.97,2326.03,2523.94,2326.03z M2248.12,2030.54c-12.99,0-25.4,4.75-35.24,13.54
						c-10.6,9.47-16.88,22.44-17.67,36.5l-8.36,148.45c-1.65,29.19,20.77,54.28,49.96,55.92l284.11,16
						c14.12,0.83,27.66-3.99,38.25-13.46c10.6-9.47,16.88-22.43,17.67-36.5l8.36-148.45c0.79-14.07-3.98-27.65-13.46-38.25
						s-22.44-16.88-36.5-17.67l-284.11-16C2250.12,2030.56,2249.11,2030.54,2248.12,2030.54z"/>
				</g>
				<g>
					<path class="st5" d="M2221.55,2295.45c3.71,0.99,7.56,1.59,11.58,1.8l290.05,16.33c25.16,1.41,47.82-12.42,58.89-33.51
						c4.04-7.65,6.54-16.27,7.04-25.44l3.89-68.57l1.28-22.62l3.56-63.16c1.94-34.37-24.61-64.03-58.94-65.97l-62.68-3.51
						c28.58,7.07,49.15,33.77,47.45,64.17l-4.67,83.38l-4.01,71.02c-1.94,34.33-31.64,60.89-65.97,58.94L2221.55,2295.45z"/>
				</g>
				<g>
					<path class="st23" d="M2221.55,2295.45c3.71,0.99,7.56,1.59,11.58,1.8l290.05,16.33c34.33,1.94,64.03-24.57,65.93-58.94
						l5.17-91.2c-8.2,15.7-22.42,34.74-43.51,35.64c-11.57,0.52-22.43-8.4-31.77-20.73l-4.01,71.02
						c-1.94,34.33-31.64,60.89-65.97,58.94L2221.55,2295.45z"/>
				</g>
				<g>
					<path class="st17" d="M2526.78,2326.19c-1.43,0-2.86-0.04-4.3-0.12l-290.05-16.34c-4.67-0.23-9.42-0.96-14.03-2.16l3.85-24.58
						l227.49,12.83c13.36,0.76,26.09-3.75,36.09-12.7c10.01-8.95,15.93-21.18,16.67-34.45l8.69-154.38
						c1.35-23.97-14.62-45.59-37.96-51.38l3.71-24.61l62.65,3.52c41.35,2.35,73.07,37.87,70.72,79.17l-8.69,154.36
						c-1.11,19.95-9.98,38.32-24.98,51.71C2562.73,2319.49,2545.17,2326.19,2526.78,2326.19z M2504.38,2300.01l19.51,1.1
						c13.37,0.74,26.08-3.76,36.09-12.7c10.01-8.95,15.93-21.18,16.67-34.46v-0.01l8.69-154.37c1.57-27.55-19.59-51.24-47.16-52.8
						l-17.47-0.98c10.65,13.87,16.47,31.42,15.43,49.9l-8.69,154.37C2526.39,2269.15,2518.22,2286.79,2504.38,2300.01z"/>
				</g>
				<g>
					<path class="st26" d="M2404.89,2166.99c-0.29,5.71,5.41,52.21,5.41,52.21s14.6,0.74,32.53,1.64
						c22.4,1.13,41.73-21.14,43.18-49.75s-15.54-52.72-37.94-53.85c-15.12-0.76-32.53-1.64-32.53-1.64
						S2405.36,2157.68,2404.89,2166.99z"/>
				</g>
				<g>
					<path class="st27" d="M2404.89,2166.99c-0.29,5.71,5.41,52.21,5.41,52.21s14.6,0.74,32.53,1.64
						c22.4,1.13,41.73-21.14,43.18-49.75s-15.54-52.72-37.94-53.85c-15.12-0.76-32.53-1.64-32.53-1.64
						S2405.36,2157.68,2404.89,2166.99z"/>
				</g>
				<g>
					<path class="st17" d="M2444.51,2230.88c-0.72,0-1.45-0.02-2.18-0.06l-22.6-1.14c-10.65-0.53-19.3-8.61-20.55-19.19
						c-4.56-38.51-4.36-42.5-4.28-44.01c0.28-5.53,3.18-20.19,8.62-43.55c2.39-10.28,11.87-17.35,22.33-16.83l22.71,1.15
						c13.97,0.7,26.61,8.11,35.59,20.85c8.45,11.99,12.65,27.44,11.84,43.5c-0.81,16.05-6.55,31-16.16,42.08
						C2470.15,2224.83,2457.68,2230.88,2444.51,2230.88z M2414.88,2167.45c-0.04,2.21,1.03,14.17,4.17,40.68
						c0.1,0.87,0.81,1.53,1.69,1.57l22.6,1.14c7.81,0.3,15.29-3.27,21.39-10.29c6.7-7.71,10.71-18.36,11.3-29.98
						c0.59-11.62-2.33-22.61-8.21-30.97c-5.36-7.6-12.55-12.01-20.24-12.4l-22.71-1.15c-1.07,0-1.65,0.54-1.85,1.39
						C2417.28,2152.05,2415.06,2164.23,2414.88,2167.45z M2404.89,2166.99h0.05H2404.89z"/>
				</g>
				<g>
					
						<ellipse transform="matrix(0.0505 -0.9987 0.9987 0.0505 126.4678 4467.8071)" class="st26" cx="2412.92" cy="2167.39" rx="51.87" ry="40.61"/>
				</g>
				<g class="st6">
					<path class="st5" d="M2372.69,2176.03c5.04-23.33,22.23-40.15,41.76-39.15c19.61,0.99,35.03,19.53,37.64,43.31
						c0.75-3.44,1.22-7.04,1.41-10.74c1.41-28.61-15.57-52.72-37.97-53.85c-22.4-1.13-41.72,21.12-43.17,49.73
						C2372.17,2169,2372.29,2172.58,2372.69,2176.03z"/>
				</g>
				<g>
					<path class="st27" d="M2410.29,2219.18c22.4,1.17,41.76-21.12,43.21-49.73c0.32-6.58-0.31-12.89-1.77-18.78
						c-6.82,19.15-22.3,32.19-39.56,31.3c-17.26-0.89-31.3-15.36-36.16-35.06c-2.05,5.66-3.33,11.9-3.65,18.44
						C2370.9,2193.95,2387.89,2218.05,2410.29,2219.18z"/>
				</g>
				<g>
					<path class="st17" d="M2411.91,2229.24c-0.7,0-1.4-0.01-2.11-0.05c-27.87-1.41-49.15-30.27-47.42-64.35l0,0
						c0.81-16.06,6.55-31,16.16-42.08c10.21-11.77,23.5-17.93,37.5-17.15c27.87,1.41,49.15,30.27,47.42,64.34
						C2461.79,2203.15,2438.87,2229.24,2411.91,2229.24z M2382.35,2165.84c-1.16,23.06,11.6,42.51,28.46,43.37
						c17.02,0.94,31.52-17.22,32.69-40.27c1.16-23.06-11.6-42.51-28.46-43.36c-7.74-0.27-15.29,3.27-21.39,10.29
						C2386.94,2143.58,2382.94,2154.23,2382.35,2165.84L2382.35,2165.84z"/>
				</g>
				<g>
					<path class="st17" d="M2323.37,2311.21c-0.11,0-0.22,0-0.33,0c-5.52-0.18-9.85-4.8-9.67-10.32l2.55-78.18
						c0.48-14.8-6.44-28.76-18.52-37.34c-17.99-12.78-28.03-33.56-26.87-55.6l5.82-110.11c0.29-5.52,5.13-9.7,10.51-9.46
						c5.52,0.29,9.75,5,9.46,10.51l-5.82,110.11c-0.8,15.15,6.11,29.44,18.48,38.23c17.56,12.47,27.63,32.77,26.93,54.3l-2.55,78.18
						C2333.18,2306.95,2328.74,2311.21,2323.37,2311.21z"/>
				</g>
			</g>
			<g>
				<path class="st5" d="M2854.71,2206.79c0,0-95.75,68.73-261.06,24.52c0,0-31.03-13.78-33.15-59.16
					c-0.28-6.19,0.9-13.47,3.62-20.6c4.88-12.87,14.86-25.08,30.51-28.7c0,0,107.55,17.68,233.37-18.89c0,0,29.65,4.66,45.61,26.06
					l0.04,0.02c4.71,6.36,8.26,14.16,9.44,23.77C2887.28,2187.36,2854.71,2206.79,2854.71,2206.79z"/>
			</g>
			<g>
				<path class="st23" d="M2854.71,2206.79c0,0-95.75,68.73-261.06,24.52c0,0-31.03-13.78-33.15-59.16
					c-0.28-6.19,0.9-13.47,3.62-20.6c2.95,17.9,18.12,42.6,76.19,51.92c91.46,14.65,226.49-5.09,233.34-73.45
					c4.71,6.36,8.26,14.16,9.44,23.77C2887.28,2187.36,2854.71,2206.79,2854.71,2206.79z"/>
			</g>
			<g>
				<path class="st17" d="M2702,2262.91c-33.03,0-70.71-4.27-112.66-15.49l-2.46-0.87c-1.65-0.73-40.47-18.59-43.03-73.65
					c-1.25-26.96,15.99-59.14,47.01-66.31l3.21-0.74l3.25,0.54c1.03,0.16,105.65,16.53,226.02-18.43l3.56-1.04l3.67,0.58
					c2.54,0.4,62.3,10.35,69.06,64.24c5.18,41.31-30.11,65.41-35.69,68.95C2857.31,2225.29,2800.13,2262.91,2702,2262.91z
					 M2599.72,2215.68c154.79,40.75,244.39-21.81,245.28-22.44l1.2-0.79c0.85-0.52,23.12-14.47,20.35-36.56
					c-3.02-24.1-28.63-32.5-37.91-34.76c-114.45,32.33-212.28,21.56-232.88,18.73c-13.9,5.05-19,22.6-18.59,31.5
					C2578.57,2201.5,2595.45,2213.19,2599.72,2215.68z"/>
			</g>
		</g>
		<g>
			<g>
				<path class="st5" d="M2375.51,2590.77c0,0-51.49,138.52-209.66,74.33L2375.51,2590.77z"/>
			</g>
			<g>
				<path class="st17" d="M2383.33,2593.68c-38.89,96.76-130.69,122.81-223.74,86.87c-8.69-3.16-13.15-12.8-9.93-21.47
					c3.3-9.02,13.72-13.38,22.47-9.43c17.98,8.07,36.68,14.06,55.65,16.82c60.13,10.6,115.5-24.82,140.13-79.08
					C2372.34,2577.88,2386.8,2583.72,2383.33,2593.68L2383.33,2593.68z"/>
			</g>
		</g>
		<g>
			<path class="st17" d="M1295,1336.37c0,0-333.62-123.35-453.34-207.27s-174.01-130.61-200.91-92.98
				c-20.44,28.59,13.77,69.1,13.77,69.1s-87.34-9.96-166.47-61.99c-74.77-49.16-140.8-2.83-117.64,49.45s35.49,61.11,18.05,83.77
				c-17.43,22.66-141.59-23-180.94,47.65c-30.88,55.46,36.53,98.3,53.33,146.43c12.2,34.97,13.96,56.53-51.98,48.62
				s-158.06-9.58-192.47,43.16s-15.1,109.23,61.77,109.75c76.86,0.52,187.66-81.19,230.8-39.23s-59.55,90.26-27.7,158.56
				c21.67,46.47,99.45,39.31,232.28-48.69c21.41-14.18,60.52-34.37,91.16-30.05c0,0-52.67,73.4,5.34,109.45
				c50.45,31.35,142.8-75.2,252.46-153.03C972.18,1491.25,1295,1336.37,1295,1336.37z"/>
		</g>
		<g>
			<path class="st28" d="M529.08,1545.83l-23.56,4.08c-2.73,0.47-4.85,2.65-5.26,5.39l-4.8,32.29l-4.42-32.35
				c-0.38-2.75-2.47-4.95-5.2-5.45l-23.51-4.36l23.56-4.08c2.73-0.47,4.85-2.65,5.26-5.39l4.8-32.29l4.41,32.35
				c0.37,2.75,2.47,4.95,5.2,5.45L529.08,1545.83z"/>
		</g>
		<g>
			<path class="st28" d="M414.65,1368.01l-15.53,2.69c-1.8,0.31-3.2,1.74-3.47,3.55l-3.17,21.29l-2.91-21.32
				c-0.25-1.81-1.63-3.26-3.43-3.59l-15.49-2.87l15.53-2.69c1.8-0.31,3.2-1.74,3.47-3.55l3.17-21.29l2.91,21.32
				c0.25,1.81,1.63,3.26,3.43,3.59L414.65,1368.01z"/>
		</g>
		<g>
			<path class="st29" d="M555.75,1364.22l-15.53,2.69c-1.8,0.31-3.2,1.74-3.47,3.55l-3.17,21.29l-2.91-21.32
				c-0.25-1.81-1.63-3.26-3.43-3.59l-15.49-2.87l15.53-2.69c1.8-0.31,3.2-1.74,3.47-3.55l3.17-21.29l2.91,21.32
				c0.25,1.81,1.63,3.26,3.43,3.59L555.75,1364.22z"/>
		</g>
		<g>
			<path class="st28" d="M674.83,1257.18l-28.81,4.99c-3.34,0.58-5.94,3.24-6.44,6.59l-5.87,39.5l-5.4-39.57
				c-0.46-3.36-3.02-6.05-6.36-6.67l-28.75-5.33l28.81-4.99c3.34-0.58,5.94-3.24,6.44-6.59l5.88-39.5l5.4,39.57
				c0.46,3.36,3.02,6.05,6.36,6.67L674.83,1257.18z"/>
		</g>
		<g>
			<path class="st28" d="M880.15,1442.91l-21.85,3.78c-2.53,0.44-4.5,2.45-4.88,5l-4.45,29.95l-4.1-30.01
				c-0.35-2.55-2.29-4.59-4.82-5.06l-21.8-4.04l21.85-3.78c2.53-0.44,4.5-2.45,4.88-5l4.46-29.95l4.09,30.01
				c0.35,2.55,2.29,4.59,4.82,5.06L880.15,1442.91z"/>
		</g>
		<g>
			<path class="st29" d="M849.43,1268.96l-10.55,1.83c-1.22,0.21-2.17,1.18-2.36,2.41l-2.15,14.46l-1.98-14.49
				c-0.17-1.23-1.11-2.21-2.33-2.44l-10.53-1.95l10.55-1.83c1.22-0.21,2.17-1.18,2.36-2.41l2.15-14.46l1.98,14.49
				c0.17,1.23,1.11,2.21,2.33,2.44L849.43,1268.96z"/>
		</g>
		<g>
			<path class="st29" d="M999.29,1360.63l-10.55,1.83c-1.22,0.21-2.17,1.18-2.36,2.41l-2.15,14.46l-1.98-14.49
				c-0.17-1.23-1.11-2.21-2.33-2.44l-10.53-1.95l10.55-1.83c1.22-0.21,2.17-1.18,2.36-2.41l2.15-14.46l1.98,14.49
				c0.17,1.23,1.11,2.21,2.33,2.44L999.29,1360.63z"/>
		</g>
		<g>
			<path class="st28" d="M711.54,1415.89l-15.14,2.62c-1.76,0.3-3.12,1.7-3.38,3.46l-3.09,20.75l-2.84-20.79
				c-0.24-1.77-1.59-3.18-3.34-3.5l-15.11-2.8l15.14-2.62c1.76-0.3,3.12-1.7,3.38-3.46l3.09-20.75l2.84,20.79
				c0.24,1.77,1.59,3.18,3.34,3.5L711.54,1415.89z"/>
		</g>
		<g class="st22">
			<path class="st28" d="M24.89,1477.05c0,0-26.57,118.39,106.27,56.02C131.16,1533.07,33.11,1550.03,24.89,1477.05z"/>
		</g>
		<g class="st22">
			<path class="st28" d="M311.72,1630.55c0,0-58.94,119.5,103.7,43.32C415.42,1673.87,317.54,1704.23,311.72,1630.55z"/>
		</g>
		<g class="st22">
			<path class="st28" d="M605.95,1634.54c0,0-33.45,137.52,103.7,37.23C709.65,1671.77,611.77,1708.21,605.95,1634.54z"/>
		</g>
		<g>
			<g>
				<path class="st5" d="M2077.55,953.45l-93.17,364.94l-78.83-21.98c-37.03-4.47-56.28-85.46-43.08-180.78
					c13.26-95.37,53.91-169.05,90.94-164.53L2077.55,953.45z"/>
			</g>
			<g>
				<path class="st23" d="M2077.55,953.44l-93.16,364.95l-78.85-21.98c-33.85-4.1-52.89-72.36-45.75-157.06
					c6.44,8.28,14,13.29,22.45,14.33l78.85,21.98l57.01-223.36L2077.55,953.44z"/>
			</g>
			<g>
				<path class="st17" d="M1984.39,1336.59c-1.64,0-3.28-0.22-4.89-0.67l-77.68-21.66c-9.12-1.44-21.8-6.38-33.26-21.25
					c-25.24-32.76-34.72-103.37-24.13-179.88c13.08-94.06,54.92-185.77,110.14-180.22l123.32,2.33c5.56,0.1,10.77,2.75,14.14,7.17
					c3.37,4.42,4.53,10.14,3.15,15.53l-93.16,364.94c-1.21,4.75-4.28,8.8-8.52,11.25
					C1990.71,1335.76,1987.56,1336.59,1984.39,1336.59z M1950.02,969.1c-19.89,0-56.82,57.71-69.51,149.04
					c-10.54,76.14,1.37,132.5,16.9,152.66c2.44,3.16,6.21,7.04,10.34,7.54c0.91,0.11,1.82,0.29,2.71,0.54l60.91,16.98l82.88-324.64
					l-101.16-1.91c-0.62-0.01-1.25-0.06-1.87-0.13C1950.81,969.13,1950.42,969.1,1950.02,969.1z"/>
			</g>
			<g>
				<circle class="st5" cx="2471.07" cy="1194.31" r="549.4"/>
			</g>
			<g>
				<path class="st23" d="M2982.3,1395.75c-86.52,219.96-309.51,366.82-557.14,346.05c-302.36-25.36-526.93-291.05-501.57-593.41
					c9.9-118.07,56.43-224.3,127.48-308.35c23.84,276.62,352.32,517.42,772.49,552.66
					C2877.56,1397.23,2930.68,1398.16,2982.3,1395.75z"/>
			</g>
			<g>
				<path class="st17" d="M2472.02,1761.1c-16.04,0-32.15-0.67-48.32-2.03c-311.41-26.12-543.51-300.72-517.39-612.13
					c26.12-311.4,300.58-543.53,612.12-517.39c311.41,26.12,543.51,300.72,517.39,612.13c-12.65,150.85-83.29,287.75-198.91,385.47
					C2733.69,1714.4,2605.64,1761.1,2472.02,1761.1z M2470.68,662.23c-273.43,0-506.54,210.3-529.8,487.61
					c-24.52,292.35,193.37,550.14,485.73,574.66c141.65,11.91,279.39-32.1,387.93-123.85c108.54-91.74,174.85-220.26,186.73-361.88
					l0,0c24.52-292.35-193.37-550.14-485.73-574.66C2500.49,662.85,2485.51,662.23,2470.68,662.23z"/>
			</g>
			<g>
				<path class="st17" d="M2472.01,1761.12c-16.04,0-32.15-0.67-48.32-2.03c-72.83-6.11-142.6-25.73-207.36-58.33
					c-163.94-82.54-278.2-239.93-305.65-421.01c-6.17-40.62-7.88-82.22-5.07-123.66l0.04-0.57c0.2-2.85,0.41-5.74,0.64-8.59
					c13.4-159.8,94.38-307.09,222.17-404.09c111.64-84.79,250.14-125.01,389.97-113.3c150.85,12.65,287.74,83.29,385.47,198.91
					c97.73,115.62,144.58,262.38,131.92,413.24c-12.65,150.84-83.29,287.74-198.92,385.47
					C2733.69,1714.41,2605.63,1761.12,2472.01,1761.12z M2470.82,662.23c-115.82,0-228.49,37.69-321.38,108.23
					c-119.98,91.07-196,229.35-208.58,379.38c-0.22,2.69-0.42,5.4-0.6,8.08l-0.04,0.54c-2.64,38.88-1.04,77.95,4.76,116.07
					c25.77,169.99,133.05,317.74,286.96,395.23c60.78,30.59,126.27,49.01,194.66,54.75c141.62,11.88,279.38-32.11,387.93-123.85
					c108.55-91.75,174.87-220.27,186.75-361.88l0,0c11.88-141.63-32.1-279.4-123.86-387.94
					c-91.74-108.54-220.26-174.86-361.88-186.73C2500.61,662.86,2485.68,662.23,2470.82,662.23z"/>
			</g>
			<g>
				<path class="st17" d="M2427.28,1731.26c-17.01,0-34.11-0.71-51.27-2.15c-53.43-4.48-105.73-15.94-155.43-34.07
					c-0.38-0.14-0.75-0.3-1.11-0.48c-161.93-81.53-274.8-236.99-301.91-415.85c-6.94-38.3-8.81-77.78-5.52-117.05
					c0.18-2.03,0.32-3.73,0.54-5.43l0.01-0.23c0.2-2.82,0.4-5.67,0.63-8.48c13.24-157.85,93.23-303.34,219.45-399.15
					c0.42-0.32,0.86-0.6,1.32-0.85c99.83-54.26,213.98-77.8,330.05-68.05c149.74,12.56,285.99,78.87,383.63,186.72
					c97.83,108.05,145.21,244.83,133.45,385.14c-11.77,140.33-81.28,267.32-195.74,357.57
					C2684.23,1688.65,2558.66,1731.26,2427.28,1731.26z M2228.27,1675.7c47.8,17.37,98.09,28.37,149.47,32.68
					c144.45,12.11,284.66-29.02,394.75-115.82c109.88-86.64,176.61-208.44,187.89-342.97l0,0
					c11.28-134.51-34.22-265.71-128.13-369.44c-94.1-103.93-225.48-167.84-369.95-179.96c-111.77-9.37-221.59,13.18-317.69,65.22
					c-121.17,92.26-197.94,232.12-210.67,383.85c-0.23,2.72-0.42,5.47-0.61,8.18l-0.04,0.54c-0.01,0.22-0.03,0.43-0.06,0.65
					c-0.2,1.49-0.32,2.95-0.45,4.44c-3.16,37.78-1.38,75.42,5.28,112.22C1964.2,1447.59,2072.64,1597.12,2228.27,1675.7z"/>
			</g>
			<g>
				<path class="st17" d="M2917.66,1246c-21.53,256.72-261.8,446.19-536.62,423.14c-232.96-19.54-416-185.52-453.2-392
					c-6.72-37.11-8.72-75.52-5.44-114.62c0.15-1.77,0.29-3.5,0.53-5.26c24.31-254.05,263.17-440.73,536.09-417.84
					C2733.84,762.47,2939.19,989.28,2917.66,1246z"/>
			</g>
			<g>
				<path class="st25" d="M2917.66,1246c-21.53,256.72-261.8,446.19-536.62,423.14c-206.69-17.34-374.09-149.94-435.16-323.87
					c89.84,112.65,228.58,190.59,389.3,204.08c284.63,23.87,535.04-163.01,576.14-422.79
					C2918.78,1165.17,2921.08,1205.22,2917.66,1246z"/>
			</g>
			<g>
				<g>
					<path class="st5" d="M3043.39,1223.74l-42.17,196.55l-26.27,122.43l-78.94-3.68l-7.46-0.36
						c-33.96-7.24-44.82-90.82-24.27-186.55c0.45-2.16,0.95-4.36,1.46-6.51c21.08-92.41,64.05-160.68,97.22-153.56l6.94,2.72
						L3043.39,1223.74z"/>
				</g>
				<g>
					<path class="st23" d="M3001.22,1420.29l-26.27,122.43l-78.94-3.68l-7.46-0.36c-33.96-7.24-44.82-90.82-24.27-186.55
						c0.45-2.16,0.95-4.36,1.46-6.51l6.11-10.99c0,0,4.83,42.63,26.43,51.13c22.84,9.03,44.49-39.13,44.49-39.13L3001.22,1420.29z"
						/>
				</g>
			</g>
			<g>
				<path class="st17" d="M2974.96,1560.08c-0.27,0-0.55-0.01-0.82-0.02l-86.39-4.03c-0.95-0.04-1.9-0.17-2.84-0.37
					c-51.49-11.05-57.88-112.57-37.59-207.14c10.34-48.17,26.85-92.26,46.49-124.15c29.19-47.37,55.66-52.97,72.76-49.29
					c0.93,0.2,1.85,0.48,2.73,0.83l80.44,31.71c7.9,3.11,12.38,11.48,10.6,19.77l-68.45,318.98
					C2990.18,1554.4,2983.09,1560.08,2974.96,1560.08z M2891.24,1521.47l69.84,3.26l62.28-290.23l-64.96-25.61
					c-0.06,0-0.12,0-0.18,0c-5.45,0-18.32,6.81-34.87,33.68c-17.63,28.6-32.58,68.82-42.11,113.23
					C2860.84,1450.85,2875.86,1515.71,2891.24,1521.47z"/>
			</g>
			<g class="st22">
				<path class="st5" d="M2645.17,914.95c0,0-227.31-85.25-412.21-3.24c-0.19,0.09-0.39,0.17-0.58,0.26
					c-38.9,17.29-72.29,65.5-96.89,99.88c-32.52,45.46-48.16,81.52-60.68,113.8c-38.03,98.19-37.19,151.32-37.19,151.32
					c-36.63-73.54-45.79-144.64-14.93-226.73c3.06-8.08,6.53-16.31,10.35-24.64c0.87-1.92,1.78-3.81,2.73-5.69
					c-0.04-0.04,0-0.07,0.07-0.11c8.95-16.33,11.13-26.93,27.35-49.45c48.85-67.94,130.47-149.73,244.27-158.7
					C2520.26,794.88,2657.36,907.84,2645.17,914.95z"/>
			</g>
			<g class="st22">
				
					<ellipse transform="matrix(0.0957 -0.9954 0.9954 0.0957 1222.5634 3861.1909)" class="st5" cx="2736.36" cy="1257.73" rx="83.03" ry="72.28"/>
			</g>
			<g class="st22">
				
					<ellipse transform="matrix(2.779473e-03 -1 1 2.779473e-03 1305.3308 4124.4932)" class="st5" cx="2720.65" cy="1407.76" rx="34.3" ry="29.84"/>
			</g>
			<g>
				<path class="st5" d="M3070.1,1372.34c0,0-0.06,0.05-0.06,0.1c-1.17,7.55-2.61,15.19-4.28,22.97
					c-18.89,88.05-59.53,154.05-90.8,147.3c-30.33-6.5-40.71-79.24-23.9-164.25c0.47-2.42,1-4.89,1.53-7.36
					c18.89-88.05,59.58-154.04,90.81-147.35C3071.88,1229.88,3082.7,1294.25,3070.1,1372.34z"/>
			</g>
			<g>
				<path class="st23" d="M3070.04,1372.44c-1.17,7.55-2.61,15.19-4.28,22.97c-18.89,88.05-59.53,154.05-90.8,147.3
					c-30.33-6.5-40.71-79.24-23.9-164.25c8.88,33.17,29.07,92.34,58.49,80.41C3026.72,1451.86,3051.58,1408.78,3070.04,1372.44z"/>
			</g>
			<g>
				<path class="st17" d="M2979.58,1560.57c-2.95,0-5.71-0.33-8.25-0.88c-48.28-10.36-54.5-104.54-35.68-192.22
					c9.55-44.48,24.8-85.21,42.96-114.68c27.29-44.28,52.27-49.47,68.44-45.98c48.28,10.36,54.5,104.54,35.68,192.22
					c-9.55,44.48-24.8,85.21-42.96,114.68C3016.76,1551.03,2995.4,1560.57,2979.58,1560.57z M3038.89,1240.64
					c-5.16,0-16.81,7.74-30.75,30.35c-16.14,26.19-29.84,63.04-38.58,103.75c-20.18,94.03-2.81,148.49,9.04,151.03
					c4.63,0.97,16.84-6.26,31.63-30.27c16.14-26.19,29.84-63.04,38.58-103.75c20.18-94.03,2.81-148.49-9.04-151.03
					C3039.5,1240.67,3039.21,1240.64,3038.89,1240.64z"/>
			</g>
		</g>
	</g>
</g>
</svg>
