<?xml version="1.0" encoding="utf-8"?>
<!-- Generator: Adobe Illustrator 27.6.1, SVG Export Plug-In . SVG Version: 6.00 Build 0)  -->
<svg version="1.1" id="Layer_1" xmlns="http://www.w3.org/2000/svg" xmlns:xlink="http://www.w3.org/1999/xlink" x="0px" y="0px"
	 viewBox="0 0 2357.13 2598.2" style="enable-background:new 0 0 2357.13 2598.2;" xml:space="preserve">
<style type="text/css">
	.st0{fill:#FFBD9A;}
	.st1{fill:#753C3C;}
	.st2{fill:none;}
	.st3{opacity:0.25;}
	.st4{fill:#650000;}
	.st5{opacity:0.4;}
	.st6{fill:#FFFFFF;}
	.st7{fill:#040060;}
	.st8{opacity:0.35;}
	.st9{fill:#C9C9C9;}
	.st10{fill:#01EDF9;}
	.st11{opacity:0.2;}
	.st12{fill:#371A45;}
	.st13{fill:#261E26;}
	.st14{fill:#606060;}
	.st15{fill:#220F2D;}
	.st16{opacity:0.5;}
	.st17{fill:#FFD243;}
	.st18{fill:#FCAC38;}
	.st19{opacity:0.6;}
	.st20{fill:#000072;}
	.st21{fill:#5FE03F;}
	.st22{fill:#C8E990;}
	.st23{fill:#3C0A09;}
	.st24{fill:#FEC652;}
	.st25{fill:#F79431;}
	.st26{fill:#FFE05C;}
	.st27{opacity:0.3;}
	.st28{fill:#FF0068;}
	.st29{fill:#03C9F7;}
	.st30{fill:#D143FF;}
	.st31{fill:#BBEFFF;}
	.st32{fill:#EF143E;}
	.st33{fill:#7AC633;}
	.st34{fill:#EFD9BC;}
	.st35{fill:#FFCC29;}
	.st36{fill:#FF80AE;}
	.st37{fill:#8DC1FF;}
	.st38{fill:#4A4684;}
	.st39{fill:#D4E1FF;}
	.st40{fill:#000076;}
	.st41{fill:#FF8CB7;}
	.st42{fill:#DD8C4E;}
	.st43{fill:#FEB31B;}
	.st44{fill:#455395;}
	.st45{fill:#5F5F82;}
	.st46{fill:#40BFFF;}
</style>
<g>
	<g>
		<g>
			<g>
				<g>
					<path class="st6" d="M1301.23,1821.8c24.05,12.29,134.78,66.47,219.37,67.94c23.67-8.06,81.92-33.56,82.79-60.28
						c0.88-27.31,1.11-54.19,1.18-66.46c-12.66,1.28-25.15,1.89-37.32,1.89c-94.91,0-172.1-34.65-183.41-39.98h-48.46
						L1301.23,1821.8z"/>
				</g>
				<g>
					<path class="st6" d="M1135.67,1473.55c-35.8-11.17-70.22-21.37-101.89-30.33c-30.01,57.34-71.05,150.34-59.77,169.33
						c7.52,12.64,27.68,32.72,47.17,52.14c35.14,35.01,50.44,51.51,49.38,62.61c-1.51,15.83-48.82,143.05-61.4,176.66
						c37.34,9.65,73.92,17.87,107.4,24.6c11.05-1.69,75.15-13.05,98.49-51.47c27.26-44.92,106.05-276.97,106.05-303.98
						c0-21.41-7.68-35.05-10.19-38.95C1268.88,1517.43,1210.86,1497.01,1135.67,1473.55z M1177.6,1682.29
						c-37.58,0-68.16-30.57-68.16-68.16c0-37.58,30.57-68.16,68.16-68.16s68.16,30.57,68.16,68.16
						C1245.76,1651.71,1215.18,1682.29,1177.6,1682.29z"/>
				</g>
				<g>
					<path class="st9" d="M24.94,2012.23c-2.87,20.2-2.21,42.94,3.26,68.23c0.73,3.39,1.88,7.01,3.22,10.74
						c23.86-11.79,110.16-53.3,178.77-71.64C139.74,1983,71.89,1969.45,24.94,2012.23z"/>
				</g>
				<g>
					<path class="st6" d="M861.17,1403.73c-20.06,6.42-58.54,72.2-78.18,112.35c-32.22,87.33-43.62,115.07-49.34,123.88
						c-0.01,0.04,0,0.07-0.02,0.1c-11.55,30.34-37.57,113.71-20.52,137.1c59.01,52.63,173.64,94.31,283.94,123.62
						c24.73-65.97,60.02-163.2,61.12-174.66c-0.16-7.16-27.61-34.51-45.77-52.6c-20.04-19.97-40.77-40.62-49.09-54.61
						c-17.25-29.01,39.31-142.82,58.21-179.14C934.11,1415.39,870.19,1401.25,861.17,1403.73z"/>
				</g>
				<g>
					<circle class="st29" cx="1177.6" cy="1614.13" r="55.69"/>
				</g>
				<g>
					<path class="st6" d="M578.73,1188.4c-0.97-0.46-2-0.9-2.94-1.38c-15.96-8.15-35.48-20.79-58.08-35.42
						c-84.93-55-213.27-138.15-344.52-105.62c-96.42,23.88-132.49,69.97-134.1,105.14c-1.56,34.01,25.89,64.17,73.41,80.71
						c4.1,1.18,69.19,18.85,111.86-32.29c-0.24-21.36,19.89-43.4,52.63-57.57c3.19-1.37,6.82,0.1,8.2,3.24
						c1.36,3.16-0.09,6.83-3.24,8.2c-27.72,12-45.44,30.11-45.14,46.15c0.19,10.16,8.15,18.81,22.4,24.35
						c38.32,14.89,93.06-18.44,100-23.99c2.7-2.15,6.62-1.72,8.76,0.97c2.15,2.68,1.72,6.6-0.97,8.75
						c-0.48,0.39-43.15,30.62-85.55,30.62c-9.08,0-18.13-1.38-26.76-4.74c-12.97-5.04-21.98-12.47-26.65-21.5
						c-26.82,27.58-60.22,33.86-84.85,33.86c-5.08,0-9.78-0.27-13.98-0.66c38.5,36.61,151.65,138.3,291.09,210.21
						C589.08,1365.18,581.09,1212.14,578.73,1188.4z"/>
				</g>
				<g>
					<path class="st6" d="M1744.36,1329.48c-14.24-21.35-68.56-43.12-91.69-50.91c-10.06,6.11-48.76,27.64-121.3,46.35
						c78.78,37.65,153.51,63.65,222.8,82.37C1755.87,1391.09,1758.42,1350.56,1744.36,1329.48z"/>
				</g>
				<g>
					<path class="st6" d="M1147.3,1934.49c64.46,11.91,112.6,17.43,123.79,16.05c27.14-3.32,47.53-71.43,54.45-103.07
						c-20.17-9.28-33.29-16.26-34.93-17.14c-2.71-1.45-3.96-4.66-2.93-7.56l37.4-106.16c0.88-2.5,3.24-4.16,5.88-4.16h49.69
						c5.75-19.01,27.55-95.98,15.56-132.98c-2.24-6.89-24.37-20.01-68.11-38.3c2.91,7.93,5.47,18.68,5.47,31.95
						c0,28.8-78.98,262.88-107.87,310.44C1208.38,1912.1,1173.12,1927.04,1147.3,1934.49z"/>
				</g>
				<g>
					<path class="st6" d="M642.95,1605.79c27.41,8.61,69.15,21.52,81.97,25.01c7.02-14.43,29.4-73.22,44.35-113.56l-90.63-34.52
						l-33.52,57.37c0,0.01-0.02,0.01-0.02,0.02c-0.01,0.01-0.01,0.03-0.02,0.04c-11.83,19.73-21.28,41.07-20.51,46.21
						C629.44,1592.99,639.8,1602.84,642.95,1605.79z"/>
				</g>
				<g>
					<path class="st6" d="M2137.34,1488.3c-34.33-8.15-75.43-13.64-123.03-20c-49.33-6.59-105.73-14.15-167.88-26.6
						c-11.55,15.42-66,103.9,7.77,317.67c8.06-0.61,15.99-1.34,23.68-2.25c110.58-13.08,185.68-28.71,186.43-28.86
						c1.45-0.32,2.99-0.07,4.31,0.65c0.56,0.32,23.25,12.8,55.06,26.38c18.35,2.86,66.9,6.33,85.25-10.04
						c5.24-4.67,7.61-10.63,7.26-18.24c-2.24-47.8-72.25-97.64-72.95-98.14c-2.82-1.98-3.49-5.87-1.51-8.68
						c1.98-2.82,5.87-3.49,8.68-1.52c3.09,2.18,75.71,53.85,78.24,107.75c0.54,11.44-3.3,20.9-11.42,28.13
						c-13.1,11.66-35.58,15.1-55.58,15.54c42.88,15.06,91.76,26.14,126.24,15.73c16.4-4.95,27.89-14.17,35.15-28.2
						c16.4-31.69,14.25-73.48-6.01-117.67C2283.46,1566.81,2211.25,1505.86,2137.34,1488.3z"/>
				</g>
				<g>
					<path class="st6" d="M1615.84,1829.86c-1.19,36.96-69.12,63.81-88.23,70.64l-7.95,198.84c8.24-1.65,21.91-4.11,36.65-5.58
						c7.95-3.96,63.02-32.48,93.17-77c29.26-43.18,50.31-210.97,54.43-245.83c-40.53-2.61-73.15-6.19-86.89-7.82
						C1616.97,1775.51,1616.72,1802.49,1615.84,1829.86z"/>
				</g>
				<g>
					<path class="st6" d="M1418.53,2331.79c-1.21,1.76-3.16,2.71-5.15,2.71c-1.21,0-2.44-0.35-3.52-1.09
						c-2.84-1.95-3.56-5.82-1.62-8.67c76.19-111.23,97.24-211.27,98.66-218.38l8.17-204.34c-61.27-2.48-132.39-29.19-177.93-49.33
						c-6.04,26.68-26.99,105.61-64.55,110.21c-1.25,0.16-2.94,0.23-5.02,0.23c-58.57,0-433.79-60.94-563.26-177.09
						c-0.27-0.25-0.53-0.52-0.76-0.82c-22.54-29.04,6.48-116.66,15.99-143.04c-9.58-2.64-30.84-8.95-78.83-24.03
						c-9.86,7.03-50.07,39.56-55.09,105.8c-0.99,12.58-0.64,26.05,0.44,39.12c1.1,13.17,2.94,26.34,5.75,39.33
						c2.77,12.99,6.18,25.91,10.66,38.49c4.21,12.69,9.72,24.9,15.53,37.01c-6.72-11.6-13.21-23.44-18.43-35.88
						c-5.5-12.33-9.97-25.12-13.8-38.11c-3.88-12.99-6.8-26.28-8.99-39.72c-1.9-11.96-3.2-23.83-3.48-36.24
						c-22.59-7.54-139.04-42.01-220.58,18.63c-41.86,31.13-65.34,66.37-78.51,95.33c47.64-0.1,247.81,14.98,328.43,269.03
						c31.99-11.13,132.47-33.07,137.09-34.08c2.42-0.51,4.87,0.41,6.33,2.37c0.64,0.86,67.53,86.86,267.73,90.37
						c2.87,0.05,5.33,2.05,5.96,4.84c0.44,1.93,45.4,193.54,157.46,257.75c103.29,59.19,267.24,26.68,294.27,20.75
						c3.02-18.41,13.85-99.84-13.29-186.39C1446.99,2287.47,1433.86,2309.41,1418.53,2331.79z"/>
				</g>
				<g>
					<path class="st6" d="M1518.37,2112.35c-3.33,14.93-17.05,69.69-52.12,138.85c34.73,98.82,19.83,191.71,17.13,206.33
						c0.63,1.56,1.71,4.11,3.25,7.45c11.88-7.34,23.51-15.77,34.49-24.68c12.77-10.44,24.79-21.82,35.83-34.14
						c10.83-12.49,20.48-25.99,28.49-40.52c7.7-14.71,13.13-30.53,16.13-47.02c-1.97,16.61-6.44,32.97-13.34,48.4
						c-7.21,15.25-16.2,29.66-26.49,43.11c-10.48,13.29-22.07,25.7-34.5,37.22c-11.14,10.23-22.68,19.76-35.26,28.55
						c20.09,38.52,73.29,116.94,165.68,95.6c28.21-6.51,49.51-23.83,63.32-51.5c36.37-72.88,13.52-206.68-16.95-275.25
						c-35.35-79.55-78-134-108.64-138.72C1570.34,2102.2,1530.66,2109.77,1518.37,2112.35z"/>
				</g>
				<g>
					<path class="st6" d="M1833,1438.95c-24.01-5.02-48.83-10.79-74.43-17.55c-0.02,0-0.03,0-0.05,0c-0.03,0-0.05-0.02-0.08-0.03
						c-76.08-20.1-158.85-48.83-246.5-91.99c-29.28,2.79-398.01,33.99-672.51-123.81c-20.21,2.14-168.76,16.57-247.82-11.81
						c2.28,39.3-1.48,180.63-157.98,270.42c64.02,31.74,133.14,56.68,202.82,66l34.09-58.33c0.01-0.02,0.04-0.04,0.05-0.06
						c8.48-14.08,17.55-27.31,27.11-40.38c9.63-13.08,19.8-25.75,30.48-37.95c10.79-12.12,22.19-23.67,34.22-34.51
						c12.22-10.63,25.17-20.4,38.98-28.71c-13.25,9.2-25.44,19.7-36.84,30.98c-11.2,11.49-21.7,23.6-31.55,36.22
						c-9.75,12.71-18.94,25.81-27.57,39.27c-7.29,11.42-14.28,23.16-20.65,34.99l89.43,34.07c11.64-23.16,54.33-104.66,83.2-113.9
						c19.73-6.35,176.25,36.84,281.05,69.5c96.62,30.12,260.13,85,269.62,114.25c13.1,40.4-8.8,118.46-15.23,139.67
						c20.93,9.19,106.84,43.63,203.32,35.99c-17.44-17.05-51.37-56.37-68.53-117.77c-0.93-3.32,1.01-6.76,4.32-7.68
						c3.34-0.92,6.76,1,7.68,4.32c20.24,72.44,65.99,113.41,73.79,119.98c15.31,1.92,129.78,15.58,227.93,10.09
						C1772.15,1557.5,1815.24,1465.45,1833,1438.95z"/>
				</g>
				<g>
					<path class="st9" d="M303.89,2308.65c-2.54,1.74-4.63,3.17-6.55,4.48c39.2,12.56,79.33,17.95,117.96,12.24
						c13.5-3.69,28.97-15.88,44.99-32.56c0.03-0.03,0.03-0.07,0.06-0.1c0.85-1.25,17.19-27.2-6.84-72.36
						C405.64,2238.96,334.78,2287.48,303.89,2308.65z"/>
				</g>
				<g>
					<path class="st6" d="M396.23,1879.85c-60.12-25.91-112.92-25.95-127.25-25.4c-7.63,19.95-10.22,35.57-11.06,42.59
						c16.19,7.8,75.53,38.56,103.62,83.25c1.83,2.92,0.96,6.76-1.96,8.59c-1.03,0.65-2.18,0.96-3.31,0.96
						c-2.08,0-4.1-1.03-5.28-2.92c-28.84-45.9-95.96-77.53-101.78-80.21c-7.27-1.91-100.93-25.75-150.67-0.34
						c-29.81,15.23-58.05,44.3-69.68,86.91c53.83-37.25,126.63-18.21,200.11,22.43c1.02,0.25,1.9,0.78,2.67,1.48
						c27.24,15.26,54.54,33.36,80.95,52.63c0.28,0.15,0.5,0.37,0.76,0.55c29.23,21.36,57.36,44.07,83.13,65.73
						c65.76,55.27,81.24,99.06,82.66,126.06c0.18,3.43,0.09,6.58-0.11,9.59c25.5-30.69,51.03-68.67,71.13-98.57
						c20.94-31.15,33.1-48.97,41.31-56.36C545.78,1971,460.26,1907.45,396.23,1879.85z"/>
				</g>
				<g>
					<path class="st9" d="M388.44,2145.65c-0.21-0.18-0.44-0.36-0.65-0.54c-101.55,36.95-183.98,92.24-207.7,108.94
						c31.78,21.83,66.58,40.78,102.45,54c2.71-1.73,8.36-5.6,14.31-9.68c30.83-21.14,101.03-69.22,150.26-88.91
						C435.28,2190.88,416.84,2169.53,388.44,2145.65z"/>
				</g>
				<g>
					<path class="st9" d="M308.4,2082.17c-78.14,22.24-186.81,82.16-215.16,98.2c21.58,22.62,47.45,45.38,76.07,66.05
						c17.92-12.86,101.8-70.95,207.42-110.53C355.18,2118.02,332.15,2099.66,308.4,2082.17z"/>
				</g>
				<g>
					<path class="st9" d="M226.43,2028.38c-68.7,15.66-166.3,62.57-190.18,74.34c9.62,20.28,26.33,43.95,48.29,68.25
						c23.12-13.15,130-72.75,211.16-98.02C272.92,2056.67,249.61,2041.46,226.43,2028.38z"/>
				</g>
				<g>
					<g>
						<path class="st2" d="M1135.67,1473.55c-35.8-11.17-70.22-21.37-101.89-30.33c-30.01,57.34-71.05,150.34-59.77,169.33
							c7.52,12.64,27.68,32.72,47.17,52.14c35.14,35.01,50.44,51.51,49.38,62.61c-0.51,5.33-6.22,23.32-14.05,46.1
							c76.03,22.84,143.2,36.65,143.55,38.76c0.6,3.62-32.57,88.06-50.66,103.74c-10.53,9.13-27.34,10.53-45.52,10.02
							c4.23,0.88,8.54,1.8,12.68,2.63c11.05-1.69,75.15-13.05,98.49-51.47c27.26-44.92,106.05-276.97,106.05-303.98
							c0-21.41-7.68-35.05-10.19-38.95C1268.88,1517.43,1210.86,1497.01,1135.67,1473.55z"/>
					</g>
					<g>
						<path class="st2" d="M642.95,1605.79c2.55,0.8,5.25,1.65,8.01,2.51c-2.11-0.66-7.2-9.25-7.2-9.25v-1.01
							c0,0,24.13-45.04,32.17-47.45c7.13-2.14,59.18,21.03,70.84,26.28c7.63-19.83,15.81-41.58,22.5-59.65l-90.63-34.52
							l-33.52,57.37c0,0.01-0.02,0.01-0.02,0.02c-0.01,0.01-0.01,0.03-0.02,0.04c-11.83,19.73-21.28,41.07-20.51,46.21
							C629.44,1592.99,639.8,1602.84,642.95,1605.79z"/>
					</g>
					<g>
						<path class="st2" d="M418.34,2222.8c10.04-5.17,19.76-9.74,28.77-13.34c-11.84-18.58-30.27-39.93-58.68-63.81
							c-0.21-0.18-0.44-0.36-0.65-0.54c-11.81,4.3-23.33,8.86-34.55,13.56C377.75,2179.34,400.46,2201.44,418.34,2222.8z"/>
					</g>
					<g>
						<path class="st2" d="M342.36,2149.72c11.16-4.78,22.62-9.42,34.38-13.82c-21.56-17.88-44.59-36.24-68.34-53.72
							c-12.98,3.7-26.82,8.45-40.98,13.85c17.89,11.58,34.97,23.38,50.23,34.61C325.97,2136.75,334.24,2143.15,342.36,2149.72z"/>
					</g>
					<g>
						<path class="st2" d="M254.41,2087.72c14.13-5.6,28.06-10.64,41.3-14.77c-22.79-16.28-46.09-31.5-69.28-44.57
							c-15.96,3.64-33.47,8.97-51.26,15.15C200.92,2055.85,228.27,2071.35,254.41,2087.72z"/>
					</g>
					<g>
						<path class="st2" d="M513.41,1383.46c72.08-84.05,67.11-176.99,65.31-195.06c-0.97-0.46-2-0.9-2.94-1.38
							c-15.96-8.15-35.48-20.79-58.08-35.42c-84.93-55-213.27-138.15-344.52-105.62c-96.42,23.88-132.49,69.97-134.1,105.14
							c-1.56,34.01,25.89,64.17,73.41,80.71c3.11,0.89,41.37,11.27,78.3-6.15c-0.82,0.02-116.43,3.37-124.85-73.16
							c0,0,31.77,28.55,95.3,2.41c63.53-26.14,106.96-31.77,121.84-22.12c4.61,2.99,3.8,6.6,0.45,10.22
							c0.68,0.59,1.27,1.3,1.66,2.18c1.36,3.16-0.09,6.83-3.24,8.2c-14.32,6.19-25.93,14.02-33.8,22.35
							c-2.37,6.47-4.46,12.54-4.46,12.54s10.05,14.88,46.24,11.66c36.19-3.22,70.37-12.06,70.37-12.06l-12.96,19.48
							c5.98-3.34,10.26-6.16,11.88-7.45c2.7-2.15,6.62-1.72,8.76,0.97c2.15,2.68,1.72,6.6-0.97,8.75
							c-0.42,0.34-32.25,22.84-68.2,29.02C312.43,1253.23,397.84,1340.86,513.41,1383.46z"/>
					</g>
					<g>
						<path class="st2" d="M774.85,1348.68c0,0-0.17,0.15-0.43,0.38c8.63-6.81,17.58-13.17,26.97-18.82
							c-13.25,9.2-25.44,19.7-36.84,30.98c-11.2,11.49-21.7,23.6-31.55,36.22c-9.75,12.71-18.94,25.81-27.57,39.27
							c-7.29,11.42-14.28,23.16-20.65,34.99l89.43,34.07c11.64-23.16,54.33-104.66,83.2-113.9c19.73-6.35,176.25,36.84,281.05,69.5
							c96.62,30.12,260.13,85,269.62,114.25c4.11,12.66,4.77,29.02,3.55,46.17l4.39-0.82c0,0,22.32,58.04,69.97,74.26
							c34.19,11.64,60.23,10.26,71.81,7.44c-11.42-18.62-22.47-41.66-30.16-69.16c-0.93-3.32,1.01-6.76,4.32-7.68
							c1.16-0.32,2.3-0.19,3.37,0.12c-1.22-15.21-1.47-36.42,0.12-44.78c2.41-12.67,57.3,61.52,171.9,81.43
							c33.56,5.83,71.21,8.54,109.11,9.72c-31.3-142.22,1.6-211.04,16.56-233.36c-24.01-5.02-48.83-10.79-74.43-17.55
							c-0.02,0-0.03,0-0.05,0c-0.03,0-0.05-0.02-0.08-0.03c-66.97-17.69-139.14-42.1-215.25-77.13
							c-34.75,9.92-264.63,70.98-460.34,10.93c-212.3-65.14-267.01-147.46-267.01-147.47c-49.87,3.91-159.99,9.11-224.22-13.94
							c1.7,29.27,0,115.12-65.61,194.14c29.5,9.82,60.77,16.59,93.22,18.34C655.42,1406.24,709.1,1373.15,774.85,1348.68z"/>
					</g>
					<g>
						<path class="st2" d="M647.22,1511.77c-18.2-2.92-94.88-17.23-189.14-62.91c-7.73,5.24-15.81,10.37-24.44,15.32
							c64.02,31.74,133.14,56.68,202.82,66L647.22,1511.77z"/>
					</g>
					<g>
						<path class="st2" d="M28.31,2080.9c1.35-12.24,8.72-52.14,48.08-62.65c18.49-4.94,48.39,3,82.43,17.81
							c17.4-6.34,34.9-12.09,51.37-16.49c-70.44-36.56-138.3-50.1-185.25-7.33c-2.87,20.2-2.21,42.94,3.26,68.23
							C28.23,2080.6,28.28,2080.76,28.31,2080.9z"/>
					</g>
					<g>
						<path class="st2" d="M1147.3,1934.49c64.46,11.91,112.6,17.43,123.79,16.05c27.14-3.32,47.53-71.43,54.45-103.07
							c-20.17-9.28-33.29-16.26-34.93-17.14c-2.71-1.45-3.96-4.66-2.93-7.56l37.4-106.16c0.88-2.5,3.24-4.16,5.88-4.16h49.69
							c5.75-19.01,27.55-95.98,15.56-132.98c-2.24-6.89-24.37-20.01-68.11-38.3c2.91,7.93,5.47,18.68,5.47,31.95
							c0,28.8-78.98,262.88-107.87,310.44C1208.38,1912.1,1173.12,1927.04,1147.3,1934.49z"/>
					</g>
					<g>
						<path class="st2" d="M1603.39,1829.46c0.88-27.31,1.11-54.19,1.18-66.46c-12.66,1.28-25.15,1.89-37.32,1.89
							c-94.91,0-172.1-34.65-183.41-39.98h-48.46l-15.76,44.74c2.78-2.54,5.43-3.71,7.73-2.72c4.31,1.84,99.32,44.63,165.26,47.85
							c65.94,3.22,88.06-2.41,88.06-2.41s-9.6,49.75-8.05,52.91C1589.3,1854.8,1602.97,1842.28,1603.39,1829.46z"/>
					</g>
					<g>
						<path class="st2" d="M1714.57,1343.49c8.86,16.41,11.53,43.08,12.33,56.11c9.18,2.69,18.28,5.25,27.28,7.68
							c1.7-16.19,4.25-56.73-9.81-77.81c-14.24-21.35-68.56-43.12-91.69-50.91c-4.4,2.67-14.29,8.3-30.08,15.35
							C1620.6,1294.79,1702.5,1321.15,1714.57,1343.49z"/>
					</g>
					<g>
						<path class="st2" d="M713.1,1777.17c4.19,3.74,8.74,7.41,13.47,11.04c3.03-33.52,19.66-126.99,59.12-185.94
							c0,0,13.87,50.06,115.2,109.17c39.2,22.87,92.73,42.55,143.7,58.33c7.8-22.62,13.14-39.3,13.55-43.64
							c-0.16-7.16-27.61-34.51-45.77-52.6c-20.04-19.97-40.77-40.62-49.09-54.61c-17.25-29.01,39.31-142.82,58.21-179.14
							c-87.41-24.39-151.33-38.53-160.34-36.04c-20.06,6.42-58.54,72.2-78.18,112.35c-32.22,87.33-43.62,115.07-49.34,123.88
							c-0.01,0.04,0,0.07-0.02,0.1C722.08,1670.41,696.06,1753.78,713.1,1777.17z"/>
					</g>
					<g>
						<path class="st2" d="M1235.06,2426.78c-92.28-32.57-123.65-119.43-123.65-119.43s78.41,30.76,135.11,7.84
							c56.7-22.92,60.06-151.39,27.01-191.2c-28.66-34.53-130.51,44.35-253.46,51.71c3.88,15.93,49.59,194.88,157.17,256.52
							c103.29,59.19,267.24,26.68,294.27,20.75c0.61-3.71,1.54-10.03,2.41-18.39C1455.53,2437.19,1321.48,2457.28,1235.06,2426.78z"
							/>
					</g>
					<g>
						<path class="st2" d="M399.68,1417.5c-134.3-79.62-231.68-169.63-233.86-171.47c-0.01,0,0-0.02,0-0.02
							c-8.01,1.34-15.68,1.87-22.64,1.87c-5.08,0-9.78-0.27-13.98-0.66c38.5,36.61,151.65,138.3,291.09,210.21
							c8.81-4.82,17.04-9.83,24.91-14.95C430.35,1434.93,415.14,1426.66,399.68,1417.5z"/>
					</g>
					<g>
						<path class="st2" d="M1518.37,2112.35c-3.33,14.93-17.05,69.69-52.12,138.85c5.74,16.32,10.09,32.46,13.4,48.13
							c15.9-18.09,75.42-77.22,174.2-77.22c0,0,44.23,65.94,57.5,145.96c11.25,67.84,14.96,161.38-34.64,196.86
							c18.92-8.87,33.79-23.89,44.29-44.94c36.37-72.88,13.52-206.68-16.95-275.25c-35.35-79.55-78-134-108.64-138.72
							C1570.34,2102.2,1530.66,2109.77,1518.37,2112.35z"/>
					</g>
					<g>
						<path class="st2" d="M1486.64,2464.98c0.05-0.03,0.09-0.06,0.14-0.09l-0.24-0.13
							C1486.57,2464.84,1486.6,2464.91,1486.64,2464.98z"/>
					</g>
					<g>
						<path class="st2" d="M1628.11,2511.63c33.78-39.41,37.18-135.8-30.77-170.64c0,0-0.49,3.15-2.75,9.11
							c-1.84,5.73-3.89,11.4-6.36,16.92c-7.21,15.25-16.2,29.66-26.49,43.11c-10.48,13.29-22.07,25.7-34.5,37.22
							c-11.14,10.23-22.68,19.76-35.26,28.55c8.66,16.61,23.49,40.62,44.94,60.86C1557.36,2539.49,1602.53,2541.47,1628.11,2511.63z
							"/>
					</g>
					<g>
						<path class="st2" d="M1630.73,1986.48c-30.76,49.46-109.81,81.42-109.81,81.42l0,0l-1.26,31.44
							c8.24-1.65,21.91-4.11,36.65-5.58c7.95-3.96,63.02-32.48,93.17-77c29.26-43.18,50.31-210.97,54.43-245.83
							c-10.66-0.69-20.75-1.44-30.12-2.21C1671.54,1796.33,1658.53,1941.78,1630.73,1986.48z"/>
					</g>
					<g>
						<path class="st2" d="M2137.34,1488.3c-34.33-8.15-75.43-13.64-123.03-20c-49.33-6.59-105.73-14.15-167.88-26.6
							c-9.84,13.14-50.78,79.4-17.04,230.95c87.22,1.96,173.47-3.3,212.07,3.2c57.3,9.65,92.89,54.89,135.71,59.11
							c18.5,1.82,30.22,2.52,37.5,2.19c1.18-3.01,1.68-6.37,1.51-10.14c-2.24-47.8-72.25-97.64-72.95-98.14
							c-2.82-1.98-3.49-5.87-1.51-8.68c1.98-2.82,5.87-3.49,8.68-1.52c1.34,0.94,15.71,11.17,31.78,26.83
							c0.19,0.05,97.43,27.45,104.77-8.86c0,0,46.47,74.99,33.66,125.16c0.84-1.35,1.67-2.72,2.42-4.17
							c16.4-31.69,14.25-73.48-6.01-117.67C2283.46,1566.81,2211.25,1505.86,2137.34,1488.3z"/>
					</g>
					<g>
						<path class="st2" d="M811.64,1998.54c149.58,77.2,365.96,23.19,365.96,23.19s-135.55-24.4-314.09-96.17
							c-178.53-71.78-171.9-156.22-171.9-156.22s2.29,1.69,6.43,4.63c-10.97-35.92,13.04-108.23,21.52-131.79
							c-9.58-2.64-30.84-8.95-78.83-24.03c-9.86,7.03-50.07,39.56-55.09,105.8c-0.99,12.58-0.64,26.05,0.44,39.12
							c0.68,8.11,1.68,16.21,2.97,24.28C613.18,1825.8,689.7,1935.61,811.64,1998.54z"/>
					</g>
					<g>
						<path class="st2" d="M579.26,1777.69l0.02-0.06c-0.9-4.46-1.75-8.93-2.48-13.42c-1.9-11.96-3.2-23.83-3.48-36.24
							c-22.59-7.54-139.04-42.01-220.58,18.63c-41.86,31.13-65.34,66.37-78.51,95.33c38.54-0.08,176.85,9.83,270.98,148.05
							c5.55-10.08,10.24-21.05,13.71-33C589.07,1853.18,579.26,1777.69,579.26,1777.69z"/>
					</g>
					<g>
						<path class="st2" d="M426.33,2232.73c18.2,23.51,29.81,45.66,30.68,63.4c1.09-1.1,2.19-2.17,3.29-3.31
							c0.03-0.03,0.03-0.07,0.06-0.1c0.85-1.25,17.19-27.2-6.84-72.36C445.06,2223.64,435.87,2227.89,426.33,2232.73z"/>
					</g>
					<g class="st11">
						<path class="st12" d="M399.68,1417.5c15.46,9.16,30.67,17.43,45.52,24.97c28.17-18.31,50.52-38.38,68.21-59.01
							c-115.57-42.6-200.98-130.23-214.63-144.79c-5.72,0.98-11.53,1.59-17.35,1.59c-9.08,0-18.13-1.38-26.76-4.74
							c-12.97-5.04-21.98-12.47-26.65-21.5c-19.25,19.79-41.86,28.58-62.21,31.98c0.01,0.01,0,0.02,0,0.02
							C168,1247.86,265.38,1337.88,399.68,1417.5z"/>
					</g>
					<g class="st11">
						<path class="st12" d="M670.55,1471.86c0.01-0.02,0.04-0.04,0.05-0.06c8.48-14.08,17.55-27.31,27.11-40.38
							c9.63-13.08,19.8-25.75,30.48-37.95c10.79-12.12,22.19-23.67,34.22-34.51c3.92-3.41,7.94-6.69,12.01-9.9
							c0.26-0.23,0.43-0.38,0.43-0.38c-65.74,24.47-119.42,57.56-155.61,57.56c-32.44-1.75-63.72-8.52-93.22-18.34
							c-17.63,21.23-39.9,41.95-67.93,60.96c94.26,45.68,170.94,59.99,189.14,62.91L670.55,1471.86z"/>
					</g>
					<g class="st11">
						<path class="st12" d="M289.91,1199.96c-36.19,3.22-46.24-11.66-46.24-11.66s2.09-6.07,4.46-12.54
							c-7.38,7.8-11.48,16.04-11.33,23.8c0.19,10.16,8.15,18.81,22.4,24.35c29.4,11.42,68.4-5.52,88.12-16.54l12.96-19.48
							C360.28,1187.9,326.1,1196.74,289.91,1199.96z"/>
					</g>
					<g class="st11">
						<path class="st12" d="M283.07,1132.81c-14.88-9.65-58.31-4.02-121.84,22.12c-63.53,26.14-95.3-2.41-95.3-2.41
							c8.41,76.53,124.02,73.19,124.85,73.16c11.71-5.53,23.29-13.82,33.56-26.14c-0.24-21.36,19.89-43.4,52.63-57.57
							c2.29-0.99,4.79-0.46,6.54,1.06C286.87,1139.41,287.68,1135.8,283.07,1132.81z"/>
					</g>
					<g class="st3">
						<path class="st13" d="M450.5,2318.97c-5.74,4.74-11.4,8.76-16.94,11.94C440.73,2328.19,446.48,2324.29,450.5,2318.97z"/>
					</g>
					<g class="st11">
						<path class="st12" d="M303.89,2308.65c-2.54,1.74-4.63,3.17-6.55,4.48c39.2,12.56,79.33,17.95,117.96,12.24
							c12.57-3.44,26.86-14.31,41.71-29.24c-0.87-17.74-12.48-39.89-30.68-63.4C381.84,2255.28,329.33,2291.22,303.89,2308.65z"/>
					</g>
					<g class="st11">
						<path class="st12" d="M418.34,2222.8c-17.89-21.36-40.59-43.46-65.11-64.12c-85.34,35.74-152.18,80.62-173.14,95.38
							c31.78,21.83,66.58,40.78,102.45,54c2.71-1.73,8.36-5.6,14.31-9.68C322.04,2281.1,373.5,2245.86,418.34,2222.8z"/>
					</g>
					<g class="st11">
						<path class="st12" d="M36.25,2102.72c9.62,20.28,26.33,43.95,48.29,68.25c19.35-11,97.36-54.53,169.86-83.25
							c-26.14-16.38-53.49-31.87-79.24-44.19C116.36,2063.95,54.58,2093.69,36.25,2102.72z"/>
					</g>
					<g class="st11">
						<path class="st12" d="M76.39,2018.24c-39.36,10.52-46.73,50.42-48.08,62.65c0.74,3.27,1.82,6.73,3.1,10.3
							c18.13-8.96,72.32-35.08,127.4-55.15C124.78,2021.24,94.88,2013.3,76.39,2018.24z"/>
					</g>
					<g class="st11">
						<path class="st12" d="M342.36,2149.72c-8.13-6.57-16.39-12.96-24.71-19.09c-15.26-11.23-32.34-23.03-50.23-34.61
							c-71.06,27.11-150.54,70.98-174.18,84.35c21.58,22.62,47.45,45.38,76.07,66.05C185.24,2234.99,253.28,2187.85,342.36,2149.72z
							"/>
					</g>
					<g class="st11">
						<path class="st12" d="M1273.53,2124c33.05,39.81,29.69,168.28-27.01,191.2c-56.7,22.92-135.11-7.84-135.11-7.84
							s31.36,86.85,123.65,119.43c86.42,30.5,220.48,10.41,238.86,7.81c3.44-33.11,5.98-98.9-15.69-168
							c-11.23,20.88-24.36,42.82-39.68,65.2c-1.21,1.76-3.16,2.71-5.15,2.71c-1.21,0-2.44-0.35-3.52-1.09
							c-2.84-1.95-3.56-5.82-1.62-8.67c76.19-111.23,97.24-211.27,98.66-218.38l8.17-204.34c-61.27-2.48-132.39-29.19-177.93-49.33
							c-6.04,26.68-26.99,105.61-64.55,110.21c-1.25,0.16-2.94,0.23-5.02,0.23c-58.57,0-433.79-60.94-563.26-177.09
							c-0.27-0.25-0.53-0.52-0.76-0.82c-2.42-3.12-4.21-6.94-5.53-11.26c-4.14-2.94-6.43-4.63-6.43-4.63s-6.63,84.44,171.9,156.22
							c178.54,71.78,314.09,96.17,314.09,96.17s-216.38,54.01-365.96-23.19c-121.93-62.93-198.46-172.74-222.58-211.18
							c0.81,5.04,1.7,10.06,2.78,15.06c2.77,12.99,6.18,25.91,10.66,38.49c4.21,12.69,9.72,24.9,15.53,37.01
							c-6.72-11.6-13.21-23.44-18.43-35.88c-5.5-12.33-9.97-25.12-13.8-38.11c-2.58-8.64-4.7-17.43-6.5-26.3l-0.02,0.06
							c0,0,9.81,75.49-20.35,179.29c-3.47,11.95-8.16,22.92-13.71,33c22.24,32.66,42.04,72.43,57.45,120.99
							c31.99-11.13,132.47-33.07,137.09-34.08c2.42-0.51,4.87,0.41,6.33,2.37c0.64,0.86,67.53,86.86,267.73,90.37
							c2.87,0.05,5.33,2.05,5.96,4.84c0.02,0.08,0.13,0.56,0.3,1.23C1143.01,2168.35,1244.86,2089.46,1273.53,2124z"/>
					</g>
					<g class="st11">
						<path class="st12" d="M381.96,2057.38c-27.98-43.43-71.81-71.74-71.81-71.74c-25.6,29.77-160.06,2.39-160.06,2.39l0.24,0.13
							c25.55,7.41,52.04,19.22,78.63,33.93c1.02,0.25,1.9,0.78,2.67,1.48c27.24,15.26,54.54,33.36,80.95,52.63
							c0.28,0.15,0.5,0.37,0.76,0.55c29.23,21.36,57.36,44.07,83.13,65.73c65.76,55.27,81.24,99.06,82.66,126.06
							c0.18,3.43,0.09,6.58-0.11,9.59c25.5-30.69,51.03-68.67,71.13-98.57c20.94-31.15,33.1-48.97,41.31-56.36
							c-14.44-46.12-32.87-83.99-53.34-115.11C492.72,2075.97,405.42,2093.79,381.96,2057.38z"/>
					</g>
					<g class="st11">
						<path class="st12" d="M1711.35,2368.07c-13.27-80.02-57.5-145.96-57.5-145.96c-98.77,0-158.29,59.12-174.2,77.22
							c16.72,79.22,5.99,145.99,3.74,158.2c0.62,1.53,1.67,4.01,3.15,7.24l0.24,0.13c11.83-7.32,23.41-15.71,34.34-24.59
							c12.77-10.44,24.79-21.82,35.83-34.14c10.83-12.49,20.48-25.99,28.49-40.52c7.7-14.71,13.13-30.53,16.13-47.02
							c-1.26,10.67-3.67,21.2-6.98,31.48c2.26-5.95,2.75-9.11,2.75-9.11c67.95,34.84,64.54,131.23,30.77,170.64
							c-25.58,29.85-70.76,27.86-91.17,25.14c28.31,26.72,68.17,46.88,120.74,34.73c6.75-1.56,13.08-3.77,19.03-6.56
							C1726.31,2529.45,1722.6,2435.92,1711.35,2368.07z"/>
					</g>
					<g class="st11">
						<path class="st12" d="M675.93,1550.6c-8.04,2.41-32.17,47.45-32.17,47.45v1.01c0,0,5.09,8.58,7.2,9.25
							c26.94,8.43,62.34,19.33,73.97,22.5c3.87-7.97,12.44-29.47,21.84-53.92C735.11,1571.62,683.06,1548.45,675.93,1550.6z"/>
					</g>
					<g class="st11">
						<path class="st12" d="M1149.41,1915.91c18.09-15.68,51.27-100.12,50.66-103.74c-0.35-2.11-67.52-15.92-143.55-38.76
							c-15.41,44.83-39.01,108.27-47.35,130.56c32.73,8.46,64.74,15.75,94.72,21.96
							C1122.07,1926.44,1138.88,1925.04,1149.41,1915.91z"/>
					</g>
					<g class="st11">
						<path class="st12" d="M785.7,1602.27c-39.47,58.95-56.1,152.43-59.12,185.94c61.88,47.44,168.01,85.35,270.46,112.58
							c15.35-40.97,34.78-93.97,47.56-131.02c-50.97-15.78-104.5-35.47-143.7-58.33C799.58,1652.33,785.7,1602.27,785.7,1602.27z"/>
					</g>
					<g class="st11">
						<path class="st12" d="M1580.66,1812.37c0,0-22.12,5.63-88.06,2.41c-65.94-3.22-160.95-46.01-165.26-47.85
							c-2.3-0.98-4.95,0.18-7.73,2.72l-18.37,52.14c24.05,12.29,134.78,66.47,219.37,67.94c12.31-4.19,33.94-13.12,52.02-24.46
							C1571.06,1862.11,1580.66,1812.37,1580.66,1812.37z"/>
					</g>
					<g class="st11">
						<path class="st12" d="M1630.73,1986.48c27.8-44.7,40.82-190.15,43.07-217.75c-26.24-2.15-46.64-4.41-56.76-5.61
							c-0.06,12.39-0.3,39.37-1.19,66.74c-1.19,36.96-69.12,63.81-88.23,70.64l-6.69,167.4l0,0
							C1520.92,2067.9,1599.96,2035.94,1630.73,1986.48z"/>
					</g>
					<g class="st11">
						<path class="st12" d="M1485.97,1695.22c-47.65-16.22-69.97-74.26-69.97-74.26l-4.39,0.82c-2.66,37.57-14.37,78.93-18.79,93.5
							c20.93,9.19,106.84,43.63,203.32,35.99c-9.63-9.41-24.29-25.65-38.37-48.62C1546.2,1705.48,1520.16,1706.86,1485.97,1695.22z"
							/>
					</g>
					<g class="st11">
						<path class="st12" d="M1535.43,1581.16c-1.59,8.36-1.34,29.57-0.12,44.78c2.01,0.58,3.71,2.04,4.31,4.2
							c20.24,72.44,65.99,113.41,73.79,119.98c15.31,1.92,129.78,15.58,227.93,10.09c-10.92-32-19.04-61.24-24.9-87.9
							c-37.9-1.18-75.55-3.89-109.11-9.72C1592.73,1642.68,1537.84,1568.49,1535.43,1581.16z"/>
					</g>
					<g class="st3">
						<path class="st13" d="M2177.19,1734.96c-42.82-4.22-78.41-49.46-135.71-59.11c-38.61-6.5-124.86-1.24-212.07-3.2
							c5.86,26.3,13.9,55.1,24.81,86.72c8.06-0.61,15.99-1.34,23.68-2.25c110.58-13.08,185.68-28.71,186.43-28.86
							c1.45-0.32,2.99-0.07,4.31,0.65c0.56,0.32,23.25,12.8,55.06,26.38c18.35,2.86,66.9,6.33,85.25-10.04
							c2.64-2.35,4.55-5.04,5.75-8.1C2207.41,1737.48,2195.69,1736.78,2177.19,1734.96z"/>
					</g>
					<g class="st11">
						<path class="st12" d="M2286.96,1636.65c-7.34,36.31-104.59,8.91-104.77,8.86c21.05,20.51,45.03,50.35,46.46,80.92
							c0.54,11.44-3.3,20.9-11.42,28.13c-13.1,11.66-35.58,15.1-55.58,15.54c42.88,15.06,91.76,26.14,126.24,15.73
							c14.7-4.44,25.43-12.34,32.73-24.03C2333.43,1711.64,2286.96,1636.65,2286.96,1636.65z"/>
					</g>
					<g class="st11">
						<path class="st14" d="M1726.89,1399.6c-0.8-13.03-3.47-39.7-12.33-56.11c-12.06-22.34-93.96-48.7-91.98-49.57
							c-20.31,9.06-50.41,20.48-91.22,31C1599.91,1357.68,1665.39,1381.6,1726.89,1399.6z"/>
					</g>
					<g class="st11">
						<path class="st14" d="M1082.86,1355.17c195.71,60.05,425.59-1.01,460.34-10.93c-10.35-4.76-20.76-9.7-31.25-14.86
							c-29.28,2.79-398.01,33.99-672.51-123.81c-3.79,0.4-12.09,1.23-23.6,2.13C815.85,1207.71,870.56,1290.04,1082.86,1355.17z"/>
					</g>
				</g>
				<g>
					<g>
						<path class="st12" d="M1627.75,2598.2c-82.55,0-137.53-70.31-160.92-120.5c-46.92,9.48-198.36,33.52-301.12-25.36
							c-104.52-59.88-152.9-213.96-165.29-259.87c-167.49-5.93-242.89-67.66-265.42-90.81c-45.95,10.17-113.48,26.17-128.21,32.46
							c-5.98,5.21-22.67,30.03-37.43,52.01c-54.78,81.5-103.76,149.93-148.47,161.73c-0.6,0.16-1.2,0.28-1.81,0.38
							c-11.47,1.72-23.11,2.54-34.81,2.54c-170.37,0.02-358.84-173.43-378.73-265.43c-22.61-104.56,27.76-171.67,82.44-199.62
							c45.06-23.03,115.71-12.56,149.18-5.62c6.58-32.34,28.58-97.72,101.75-152.13c79.12-58.83,182.98-38.96,226.35-26.8
							c8.7-46.56,32.54-75.91,49.02-91.25c-3.28-3.52-6.49-7.22-8.83-10.49c-3.43-4.81-10.01-14.02,7.65-49.38
							c-251.69-43.73-482.52-268.24-511.86-297.66c-55.5-20.44-87.31-58.49-85.31-102.36c2.58-56.38,59.29-103.71,151.69-126.59
							c140.96-34.9,274.39,51.48,362.68,108.66c22.07,14.29,41.12,26.63,56.03,34.24c70.18,35.84,250.77,16.15,252.58,15.95
							c3.58-0.39,7.23,0.36,10.38,2.17c278.02,160.88,658.2,122.08,662.01,121.67c3.19-0.36,6.44,0.23,9.33,1.66
							c197.33,97.5,370.4,120.62,496.76,137.51c48.21,6.44,89.86,12.01,125.32,20.43c80.48,19.12,159.01,85.24,195.4,164.55
							c23.31,50.82,25.28,99.81,5.54,137.98c-10.15,19.61-26.65,32.99-49.05,39.75c-11.4,3.44-23.96,4.93-37.16,4.93
							c-74.8,0.01-170.27-47.94-194.48-60.78c-20.23,3.99-88.79,16.89-182.32,27.95c-90.97,10.77-207.59,0.03-252.96-5
							c-0.14,14.16-0.44,34.5-1.1,55.06c-1.29,39.88-60.79,67.27-88.52,77.89l-7.13,178.31c19.13-3.18,47.11-6.49,68.02-3.28
							c40.01,6.15,86.04,61.64,126.3,152.21c31.11,69.99,57.87,212.15,16.5,295.02c-17.04,34.15-43.57,55.59-78.84,63.73
							C1650.67,2596.91,1638.95,2598.2,1627.75,2598.2z M1476.92,2441.19c6.89,0,13.28,4.22,15.83,10.9
							c2.11,5.46,53.05,134.18,162.51,108.96c25.29-5.84,43.66-20.83,56.13-45.84c34.9-69.94,12.47-199.49-17.15-266.12
							c-38.36-86.3-78.97-129.17-100.48-132.48c-23-3.54-63.26,3.85-76.83,6.99c-5.17,1.21-10.57-0.09-14.64-3.45
							c-4.07-3.37-6.34-8.45-6.13-13.74l8.45-211.1c0.28-7.03,4.89-13.16,11.57-15.4c35.79-11.97,76-35.79,76.48-50.82
							c1.19-36.67,1.2-72.68,1.2-73.04c0-4.88,2.1-9.53,5.77-12.74c3.67-3.22,8.55-4.71,13.39-4.06
							c1.54,0.21,154.87,20.07,263.6,7.21c110.03-13.01,184.76-28.55,185.5-28.71c3.99-0.84,8.15-0.21,11.71,1.77
							c38.84,21.57,152.45,73.7,210.97,56.03c13.47-4.07,22.87-11.54,28.72-22.86c14.84-28.7,12.62-67.15-6.24-108.27
							c-31.76-69.22-102.66-129.14-172.42-145.71c-33.8-8.03-74.66-13.49-121.98-19.8c-127.77-17.08-302.41-40.4-502.91-138.57
							c-47.91,4.53-399.93,31.47-672.87-123.77c-32.62,3.26-193.65,17.02-266.2-20.02c-16.46-8.4-36.19-21.18-59.04-35.98
							c-83.37-53.99-209.34-135.58-336.11-104.2c-90.69,22.46-124.54,63.92-125.97,95.22c-1.33,29.03,23.47,55.25,66.34,70.14
							c2.48,0.86,4.73,2.29,6.57,4.17c2.55,2.61,258.07,261.55,519.15,294.19c5.68,0.71,10.62,4.25,13.13,9.4
							c2.5,5.15,2.24,11.23-0.7,16.14c-8.42,14.05-16.2,30.13-18.39,37.67c4.44,5.12,11.25,11.79,15.31,15.51
							c3.94,3.61,5.95,8.88,5.41,14.2c-0.54,5.32-3.55,10.07-8.14,12.83c-1.83,1.13-46.89,29.7-52.14,98.93
							c-0.4,5.33-3.3,10.16-7.81,13.03c-4.52,2.87-10.12,3.43-15.12,1.53c-1.26-0.47-128.91-47.62-214.26,15.86
							c-85.88,63.86-90.73,143.05-90.89,146.39c-0.25,5.13-2.82,9.91-6.98,12.92c-4.16,3.02-9.45,4.02-14.42,2.67
							c-26.46-7.22-103.81-21.51-143.43-1.26c-43.45,22.21-83.28,76.5-64.73,162.27c16.67,77.08,213.2,259.93,374.38,236.67
							c36.04-10.58,93.65-96.28,128.17-147.64c29.02-43.18,39.6-58.36,50.28-63.39c21.17-9.97,125.29-32.92,145.95-37.42
							c6.51-1.41,13.24,1.11,17.21,6.45c0.56,0.73,65.48,82.65,259.32,86.05c7.79,0.14,14.48,5.57,16.23,13.17
							c0.43,1.88,44.42,189.01,152.34,250.84c108.47,62.15,288.53,19.19,290.33,18.75
							C1474.24,2441.35,1475.59,2441.19,1476.92,2441.19z"/>
					</g>
					<g>
						<path class="st12" d="M420.2,1481.59c-6.05,0-11.9-3.25-14.96-8.96c-4.41-8.26-1.3-18.53,6.95-22.94
							c178.7-95.62,156.61-256.11,155.58-262.9c-1.4-9.24,4.94-17.89,14.17-19.31c9.24-1.44,17.88,4.87,19.32,14.1
							c0.31,1.97,7.36,48.88-10.59,109.12c-16.48,55.33-58.05,133-162.49,188.89C425.64,1480.95,422.9,1481.59,420.2,1481.59z"/>
					</g>
					<g>
						<path class="st12" d="M281.44,1250.98c-10.3,0-20.67-1.59-30.65-5.47c-23.25-9.04-36.8-25.63-37.18-45.52
							c-0.49-26.26,21.6-51.63,59.1-67.86c8.59-3.71,18.57,0.23,22.29,8.82c3.72,8.59-0.23,18.57-8.82,22.29
							c-26.82,11.61-38.85,26.85-38.67,36.11c0.14,7.46,9.81,12.32,15.57,14.57c32.29,12.55,81.29-16.3,89.59-22.5
							c7.31-5.84,17.89-4.59,23.74,2.72c5.84,7.31,4.57,18.04-2.74,23.89C373.15,1218.44,328.03,1250.98,281.44,1250.98z"/>
					</g>
					<g>
						<path class="st12" d="M143.83,1258.84c-21.25,0-36.63-4.4-38.09-4.83c-8.97-2.67-14.09-12.1-11.43-21.07
							c2.66-8.95,12.05-14.08,21.02-11.44c2.7,0.78,63.74,17.64,102.12-30.41c5.84-7.31,16.51-8.5,23.82-2.66
							c7.31,5.84,8.51,16.51,2.66,23.82C213.36,1250.53,173.04,1258.84,143.83,1258.84z"/>
					</g>
					<g>
						<path class="st12" d="M727.8,1654.8c-3.06,0-6.23,0-93.14-27.31c-8.93-2.81-13.89-12.32-11.09-21.25
							c2.81-8.93,12.31-13.88,21.25-11.09c23.93,7.52,56.65,17.65,74.1,22.78c7.67-18.1,22.44-56.43,36.61-94.47l-72.21-27.5
							l-28.94,49.52c-4.72,8.09-15.12,10.81-23.18,6.08c-8.09-4.72-10.81-15.1-6.08-23.18l36.19-61.92
							c4.18-7.16,12.91-10.25,20.67-7.29l101.33,38.6c8.68,3.31,13.08,12.99,9.87,21.71c-0.12,0.31-11.64,31.52-23.45,62.32
							c-6.97,18.17-12.69,32.67-16.99,43.11C744,1646.05,740.39,1654.8,727.8,1654.8z"/>
					</g>
					<g>
						<path class="st12" d="M1521.56,1912.95c-0.07,0-0.14,0-0.21,0c-100.71-1.25-230.33-70.25-235.8-73.19
							c-7.36-3.95-10.75-12.68-7.97-20.56l37.39-106.16c2.39-6.78,8.79-11.32,15.99-11.32h41.72
							c8.92-31.07,22.12-89.25,13.67-117.86c-8.59-10.18-72.12-43.53-256.47-100.9c-139.59-43.44-246.43-68.72-265.65-68.72
							c-0.21,0-0.42,0-0.61,0.01c-12.99,5.81-45.73,54.84-71.13,106.78c-4.11,8.41-14.26,11.89-22.67,7.79
							c-8.41-4.11-11.9-14.26-7.79-22.67c12.92-26.43,57.71-113.51,92.09-124.51c31.47-10.12,277.08,66.23,287.51,69.48
							c264.01,82.29,273.17,110.54,276.62,121.18c15.72,48.47-13.51,141.19-16.89,151.61c-2.27,6.98-8.77,11.71-16.12,11.71h-42.29
							l-28.47,80.83c34.68,17.08,132.27,61.68,207.28,62.61c9.36,0.12,16.86,7.8,16.74,17.16
							C1538.39,1905.5,1530.82,1912.95,1521.56,1912.95z M1386.74,1584.37L1386.74,1584.37L1386.74,1584.37z M862.87,1414.3
							L862.87,1414.3L862.87,1414.3z"/>
					</g>
					<g>
						<path class="st12" d="M1567.39,1775.59c-102.93,0-185.64-39.76-189.59-41.69c-8.41-4.11-11.9-14.26-7.79-22.67
							c4.11-8.4,14.25-11.9,22.66-7.79c1,0.49,79.89,38.21,175.34,38.21c1.56,0,3.12-0.01,4.68-0.03
							c-18.58-22.09-41.99-57.25-55.4-105.24c-2.52-9.01,2.74-18.36,11.76-20.88c9.01-2.54,18.37,2.75,20.88,11.76
							c21.01,75.18,70.82,115.07,71.32,115.46c5.38,4.24,7.71,11.31,5.86,17.91c-1.85,6.6-7.47,11.45-14.26,12.27
							C1597.4,1774.77,1582.19,1775.59,1567.39,1775.59z"/>
					</g>
					<g>
						<path class="st12" d="M1849.85,1782.89c-7,0-13.54-4.37-16-11.34c-89.1-254-5.72-344.67-2.13-348.4
							c6.49-6.75,17.22-6.95,23.96-0.47c6.7,6.45,6.95,17.08,0.6,23.83c-1.41,1.59-71.3,83.33,9.56,313.82
							c3.1,8.83-1.55,18.51-10.39,21.61C1853.61,1782.58,1851.71,1782.89,1849.85,1782.89z"/>
					</g>
					<g>
						<path class="st12" d="M1759.5,1432.19c-0.86,0-1.74-0.07-2.62-0.21c-9.25-1.44-15.58-10.09-14.15-19.34l0,0
							c3.2-20.83,4.06-60.22-7.28-77.23c-10.21-15.31-51.55-34.58-81.62-45.12c-16.5,9.33-60.74,31.39-136.85,49.21
							c-9.14,2.12-18.24-3.53-20.37-12.64c-2.13-9.12,3.53-18.24,12.64-20.37c90.45-21.18,132.82-48.62,133.23-48.9
							c4.3-2.83,9.69-3.57,14.57-2c8.6,2.78,84.66,28.1,106.61,61.01c22.31,33.48,13.64,94.39,12.57,101.23
							C1774.93,1426.21,1767.71,1432.19,1759.5,1432.19z"/>
					</g>
					<g>
						<path class="st12" d="M1558.01,2116.83c-6.35,0-12.43-3.58-15.33-9.7c-4-8.46-0.39-18.56,8.07-22.57
							c0.57-0.27,59.19-28.52,89.87-73.8c25.77-38.05,47.28-191.5,53.38-247.41c1.02-9.3,9.43-16.01,18.69-15.01
							c9.31,1.02,16.03,9.38,15.01,18.69c-2.34,21.44-23.9,210.89-59.02,262.74c-35.96,53.08-100.7,84.14-103.44,85.43
							C1562.9,2116.31,1560.44,2116.83,1558.01,2116.83z"/>
					</g>
					<g>
						<path class="st12" d="M1266.4,1973.9c-72.4,0-443.37-66.97-569.21-179.88c-0.76-0.68-1.45-1.42-2.07-2.22
							c-27.44-35.34,5.96-131.38,16.85-159.98c3.33-8.75,13.12-13.14,21.87-9.81c8.75,3.33,13.14,13.12,9.81,21.87
							c-18.71,49.18-31.84,110.61-22.42,126.15c127.87,112.64,514.24,174.15,548.57,169.86c16-1.96,37.22-53.96,46.26-99.4
							c1.83-9.18,10.8-15.12,19.93-13.32c9.18,1.82,15.15,10.74,13.33,19.92c-5.59,28.18-27.53,120.59-75.4,126.46
							C1271.96,1973.78,1269.44,1973.9,1266.4,1973.9z"/>
					</g>
					<g>
						<path class="st12" d="M1000.84,1925.35c-1.98,0-3.99-0.35-5.96-1.08c-8.76-3.3-13.2-13.07-9.91-21.83
							c27.95-74.4,57.72-157.4,62.06-175.28c-4.97-8.94-27.2-31.08-42.21-46.04c-21.46-21.38-41.73-41.57-50.74-56.72
							c-7.65-12.86-10.86-36.76,23.33-116.44c17.77-41.41,37.39-78.48,38.22-80.03c4.38-8.27,14.64-11.43,22.92-7.03
							c8.27,4.38,11.42,14.64,7.03,22.92c-39.16,73.82-67.61,148.78-62.14,163.68c6.61,11.06,27.17,31.54,45.31,49.61
							c40.1,39.95,53.99,55.34,52.48,71.23c-1.69,17.75-49.81,146.88-64.52,186.04C1014.16,1921.16,1007.7,1925.35,1000.84,1925.35z
							"/>
					</g>
					<g>
						<path class="st12" d="M1115.65,1951.94c-8.43,0-15.73-6.28-16.8-14.86c-1.15-9.28,5.43-17.74,14.71-18.91l0,0
							c19.29-2.46,73.49-15.62,92.33-46.65c25.63-42.22,104.1-272.9,104.5-298.43c0-21.36-8.54-33.3-8.9-33.8
							c-5.46-7.48-3.98-18.07,3.42-23.64c7.4-5.58,17.82-4.27,23.51,3.05c1.63,2.09,15.87,21.41,15.87,54.4
							c0,34.27-81.81,270.53-109.42,316.01c-31.24,51.46-113.61,62.26-117.1,62.69C1117.05,1951.9,1116.35,1951.94,1115.65,1951.94z
							"/>
					</g>
					<g>
						<path class="st12" d="M1177.6,1693c-43.49,0-78.87-35.38-78.87-78.87s35.38-78.87,78.87-78.87s78.87,35.38,78.87,78.87
							S1221.09,1693,1177.6,1693z M1177.6,1569.15c-24.8,0-44.98,20.18-44.98,44.98s20.18,44.98,44.98,44.98
							s44.98-20.18,44.98-44.98S1202.4,1569.15,1177.6,1569.15z"/>
					</g>
					<g>
						<path class="st12" d="M598.72,2136.13c-7.27,0-13.98-4.71-16.21-12.02c-35.3-115.91-99.08-194.64-189.59-234.01
							c-67.81-29.5-126.35-24.82-126.92-24.77c-9.43,0.75-17.54-6.07-18.37-15.38c-0.83-9.31,6.02-17.53,15.32-18.38
							c2.68-0.24,66.38-5.62,141.87,26.74c69.36,29.74,162.12,98.27,210.13,255.93c2.72,8.96-2.32,18.42-11.28,21.15
							C602.02,2135.89,600.36,2136.13,598.72,2136.13z"/>
					</g>
					<g>
						<path class="st12" d="M356.27,2000.57c-5.63,0-11.15-2.81-14.37-7.93c-28.19-44.86-96.83-76.03-97.52-76.34
							c-8.54-3.83-12.36-13.85-8.54-22.39c3.82-8.54,13.82-12.38,22.38-8.55c3.2,1.43,78.67,35.59,112.38,89.24
							c4.98,7.92,2.59,18.39-5.33,23.37C362.47,1999.73,359.35,2000.57,356.27,2000.57z"/>
					</g>
					<g>
						<path class="st12" d="M465.09,2313.7c-4.25,0-8.5-1.59-11.8-4.78c-6.26-6.06-6.84-15.79-1.63-22.52
							c1.94-3.34,26.91-50.99-70.13-132.54c-111.56-93.75-269.28-209.5-350.7-132.59c-6.81,6.44-17.53,6.13-23.96-0.68
							c-6.43-6.81-6.13-17.53,0.68-23.96c101.09-95.51,274.3,29.17,395.79,131.28c55.21,46.4,84.31,91.42,86.47,133.8
							c1.35,26.4-8.61,42.76-12.56,46.84C473.94,2311.98,469.52,2313.7,465.09,2313.7z M452.92,2284.96
							c-0.18,0.19-0.61,0.58-1.11,1.27C452.15,2285.79,452.52,2285.37,452.92,2284.96z"/>
					</g>
					<g>
						<path class="st12" d="M28.01,2116.83c-6.18,0-12.14-3.39-15.13-9.29c-4.23-8.35-0.9-18.55,7.45-22.78
							c4.95-2.51,122.29-61.76,203.55-79.58c9.18-2.01,18.18,3.78,20.19,12.92c2,9.15-3.78,18.18-12.92,20.19
							c-77.03,16.89-194.31,76.11-195.48,76.7C33.21,2116.24,30.59,2116.83,28.01,2116.83z"/>
					</g>
					<g>
						<path class="st12" d="M83.1,2195.94c-5.83,0-11.51-3.02-14.66-8.43c-4.71-8.09-1.97-18.46,6.12-23.17
							c5.58-3.24,137.56-79.76,230.62-105.36c9.02-2.48,18.35,2.82,20.84,11.85c2.49,9.03-2.82,18.35-11.85,20.84
							c-88.79,24.43-221.24,101.2-222.56,101.97C88.93,2195.2,86,2195.94,83.1,2195.94z"/>
					</g>
					<g>
						<path class="st12" d="M169.47,2270.97c-5.16,0-10.25-2.34-13.57-6.79c-5.62-7.49-4.1-18.11,3.39-23.72
							c3.98-2.98,98.84-73.55,224.02-118.41c8.81-3.16,18.52,1.43,21.67,10.24s-1.43,18.52-10.24,21.67
							c-120.18,43.06-214.18,112.92-215.12,113.62C176.58,2269.87,173.01,2270.97,169.47,2270.97z"/>
					</g>
					<g>
						<path class="st12" d="M283.76,2331.93c-1.89,0-3.75-0.5-6.06-1.34c-8.8-3.18-13.36-12.9-10.19-21.7
							c1.63-4.51,4.97-7.91,9.02-9.72c2.27-1.43,8.32-5.58,14.19-9.6c35.49-24.32,109.33-74.94,160-92.98
							c8.81-3.13,18.52,1.46,21.66,10.28s-1.46,18.52-10.28,21.66c-46.51,16.57-120.58,67.33-152.2,89.01
							C294.29,2328.23,288.9,2331.93,283.76,2331.93z M289.17,2298.69c0,0,0.01,0,0.01,0
							C289.18,2298.69,289.18,2298.69,289.17,2298.69z M283.46,2297.69c1.9,0,3.82,0.32,5.71,1c-2.08-0.75-3.89-1.05-5.75-1
							C283.43,2297.69,283.44,2297.69,283.46,2297.69z"/>
					</g>
					<g>
						<path class="st12" d="M596.34,1724.57c-5.28,38.29-1.37,77.95,8.65,115.35c3.34,12.91,8.01,25.45,13.04,37.99
							c-7.5-11.17-14.83-22.68-20.93-34.9c-19.1-37.49-31.84-78.71-34.61-120.98C562.83,1696.92,599.75,1699.65,596.34,1724.57
							L596.34,1724.57z"/>
					</g>
					<g>
						<path class="st12" d="M661.03,1466.92c37.77-53.75,82.25-104.95,140.36-136.68c-25.46,19.75-46.06,44.4-64.27,70.62
							c-17.58,25.89-33.75,54.17-46.38,82.44C679.92,1505.21,648.25,1487.85,661.03,1466.92L661.03,1466.92z"/>
					</g>
					<g>
						<path class="st12" d="M2156.62,1780.94c-18.73,0-34.17-2.34-37.58-2.9c-9.24-1.51-15.5-10.23-13.99-19.47
							c1.51-9.23,10.2-15.53,19.45-13.99l0,0c24.27,3.93,64.31,4.26,77.31-7.34c2.06-1.84,3.93-4.29,3.67-9.73
							c-1.66-35.42-49.95-76.88-68.41-89.87c-7.66-5.38-9.5-15.96-4.11-23.61c5.38-7.66,15.96-9.51,23.61-4.11
							c8.18,5.76,80.05,57.92,82.78,116.01c0.68,14.62-4.5,27.29-15,36.64C2207.71,1777.39,2179.68,1780.94,2156.62,1780.94z"/>
					</g>
					<g>
						<path class="st12" d="M1413.37,2345.22c-3.3,0-6.64-0.96-9.57-2.97c-7.72-5.29-9.69-15.84-4.4-23.56
							c77.21-112.73,96.86-213.69,97.05-214.69c1.73-9.2,10.62-15.28,19.78-13.54c9.19,1.72,15.26,10.55,13.55,19.75
							c-0.82,4.38-20.89,108.64-102.4,227.64C1424.09,2342.64,1418.77,2345.22,1413.37,2345.22z"/>
					</g>
					<g>
						<path class="st12" d="M1476.94,2475.1c-1.12,0-2.26-0.11-3.41-0.35c-9.17-1.87-15.08-10.81-13.22-19.98l0,0
							c0.2-0.97,19.18-98.36-16.74-198.24c-3.17-8.81,1.4-18.52,10.21-21.68c8.8-3.18,18.52,1.4,21.68,10.21
							c39.25,109.11,18.95,212.13,18.06,216.47C1491.89,2469.56,1484.83,2475.1,1476.94,2475.1z"/>
					</g>
					<g>
						<path class="st12" d="M1475.39,2459.32c28.18-14.46,54.8-34.12,77.43-56.57c22.95-23.44,41.43-51.5,48.75-84.13
							c-2.79,52.01-33.47,98.32-69.04,134.8c-12.6,12.82-24.95,24.08-39.73,34.99C1472.4,2501.95,1453.78,2470.93,1475.39,2459.32
							L1475.39,2459.32z"/>
					</g>
				</g>
			</g>
			<g>
				<g>
					<path class="st6" d="M646,863.23c30.88,106.49,88.87,205.85,172.14,287.28c16.99,16.6,34.95,32.44,53.97,47.42
						c9.23,7.32,18.79,14.43,28.56,21.41c29.54,20.88,60.19,39.04,91.72,54.55c27.14,13.43,54.95,24.85,83.13,34.36
						c34.02,11.5,68.68,20.13,103.59,26.03c12.74,2.11,25.5,3.88,38.27,5.31c233.84,25.73,474.42-70.37,621.16-272.16
						c216.22-297.2,146.82-711.06-154.88-924.39c-58.14-41.05-120.68-71.79-185.29-92.29c-7.53-2.47-15.16-4.73-22.83-6.83
						c-20.47-5.75-41.1-10.52-61.83-14.29c-47.96-8.7-96.5-12.12-144.66-10.47c-48.15,1.6-96.04,8.32-142.65,19.96
						c-14.82,3.69-29.52,7.87-44.11,12.58c-21.85,7.07-43.35,15.18-64.49,24.51c-105.34,46.14-199.99,119.69-272,218.72
						C621.39,465.91,591.55,675.44,646,863.23z"/>
					<path class="st12" d="M1292.04,1345.58c-24.87,0-49.83-1.35-74.88-4.11c-12.69-1.42-25.59-3.21-38.37-5.32
						c-35.38-5.98-70.33-14.76-103.89-26.1c-28.66-9.68-56.71-21.27-83.36-34.46c-31.82-15.66-62.77-34.07-91.97-54.71
						c-10.71-7.65-20.07-14.67-28.64-21.47c-18.67-14.71-36.88-30.71-54.12-47.55c-81.36-79.56-141.05-179.19-172.64-288.11l0,0
						c-56.97-196.48-20.49-404.21,100.07-569.92c69.7-95.85,164.02-171.7,272.77-219.33c20.57-9.08,42.32-17.35,64.67-24.58
						c14.29-4.62,29.17-8.86,44.23-12.62c46.75-11.68,94.88-18.42,143.05-20.02c48.61-1.67,97.42,1.86,145.06,10.49
						c20.71,3.76,41.58,8.58,62.01,14.33c8.17,2.24,15.66,4.48,22.9,6.85c65.94,20.93,128.46,52.07,185.8,92.55
						c146.92,103.89,243.79,257.95,272.74,433.83c28.73,174.48-12.97,349.64-117.42,493.22
						C1712.9,1243.42,1507.82,1345.58,1292.04,1345.58z M647.82,862.7c31.4,108.3,90.75,207.36,171.65,286.46
						c17.14,16.75,35.25,32.66,53.81,47.29c8.53,6.76,17.84,13.75,28.49,21.35c29.03,20.52,59.81,38.82,91.46,54.4
						c26.5,13.12,54.39,24.65,82.9,34.27c33.37,11.28,68.12,20.01,103.3,25.96c12.71,2.09,25.55,3.88,38.16,5.29
						c240.99,26.57,478.4-77.46,619.42-271.39c103.85-142.75,145.32-316.9,116.75-490.38c-28.79-174.87-125.11-328.06-271.2-431.36
						c-57.02-40.25-119.19-71.22-184.78-92.04c-7.19-2.36-14.63-4.58-22.75-6.81c-20.33-5.72-41.08-10.51-61.67-14.25
						c-47.38-8.59-95.92-12.1-144.26-10.43c-47.91,1.59-95.77,8.29-142.26,19.9c-14.98,3.74-29.77,7.96-43.98,12.55
						c-22.22,7.19-43.86,15.42-64.31,24.44c-108.13,47.37-201.92,122.78-271.23,218.1C627.44,460.81,591.17,667.35,647.82,862.7z"/>
				</g>
				<g class="st11">
					<path class="st14" d="M1838.53,1067.42c-146.72,201.81-387.34,297.92-621.17,272.15c-12.78-1.42-25.52-3.18-38.24-5.3
						c-34.92-5.88-69.57-14.53-103.59-26.01c-28.17-9.53-56.01-20.94-83.13-34.36c-31.55-15.51-62.19-33.67-91.75-54.56
						c-9.73-7.01-19.3-14.09-28.55-21.4c-19.01-15-36.95-30.87-53.95-47.46c-83.27-81.43-141.28-180.76-172.15-287.29
						c-16.97-58.5-25.77-119.15-26.05-180.07c31.82,100.97,88.27,194.94,167.71,272.63c16.97,16.63,34.94,32.45,53.95,47.46
						c9.21,7.31,18.78,14.39,28.55,21.4c29.56,20.89,60.2,39.05,91.71,54.56c27.16,13.41,54.95,24.82,83.13,34.36
						c34.02,11.47,68.71,20.12,103.59,26.01c12.76,2.11,25.51,3.88,38.29,5.29c233.83,25.77,474.41-70.33,621.17-272.15
						c85.65-117.71,126.43-253.72,125.77-388.29C1994.27,675.93,1966.16,892.01,1838.53,1067.42z"/>
				</g>
				<g>
					<path class="st12" d="M1292.04,1358.24c-25.31,0-50.76-1.38-76.25-4.18c-12.92-1.45-26.05-3.27-39.05-5.42
						c-36.08-6.09-71.68-15.04-105.87-26.6c-29.19-9.85-57.77-21.67-84.93-35.11c-32.39-15.94-63.92-34.69-93.67-55.72
						c-10.93-7.81-20.46-14.96-29.2-21.88c-18.98-14.97-37.53-31.26-55.09-48.41c-82.92-81.09-143.75-182.63-175.95-293.64l0,0
						c-58.07-200.27-20.89-412,101.99-580.89c71.02-97.67,167.12-174.95,277.92-223.48c20.93-9.24,43.1-17.67,65.85-25.03
						c14.57-4.71,29.73-9.03,45.06-12.86c47.61-11.89,96.63-18.75,145.69-20.39c49.51-1.73,99.22,1.88,147.74,10.69
						c21.1,3.83,42.36,8.75,63.18,14.59c8.29,2.27,15.98,4.57,23.41,7.01c67.07,21.29,130.76,53.01,189.16,94.24
						c149.72,105.86,248.42,262.87,277.93,442.11c29.28,177.85-13.22,356.38-119.68,502.72
						C1720.74,1254.16,1511.83,1358.24,1292.04,1358.24z M659.97,859.17c30.8,106.21,89,203.35,168.33,280.94
						c16.82,16.43,34.59,32.04,52.81,46.4c8.38,6.65,17.53,13.51,28.01,21c28.43,20.1,58.63,38.06,89.69,53.33
						c26.03,12.89,53.39,24.19,81.36,33.64c32.74,11.06,66.84,19.63,101.36,25.46c12.45,2.06,25.07,3.8,37.47,5.2
						c236.48,25.99,469.41-76,607.77-266.25c101.85-139.99,142.51-310.77,114.5-480.87c-28.24-171.5-122.71-321.75-266.01-423.08
						c-55.95-39.5-116.95-69.88-181.29-90.31c-7.1-2.32-14.35-4.49-22.27-6.66c-20.03-5.63-40.39-10.34-60.59-14
						c-46.49-8.43-94.12-11.87-141.56-10.24c-47.03,1.56-94,8.14-139.63,19.54c-14.7,3.67-29.22,7.81-43.16,12.31
						c-21.8,7.05-43.03,15.12-63.09,23.97c-106.11,46.48-198.12,120.46-266.1,213.96C640,465.07,604.45,667.61,659.97,859.17
						L659.97,859.17z"/>
				</g>
				<g>
					<path class="st12" d="M1292.04,1362.46c-25.47,0-51.06-1.39-76.71-4.21c-13.01-1.46-26.21-3.29-39.28-5.44
						c-36.31-6.14-72.14-15.14-106.54-26.76c-29.37-9.92-58.12-21.8-85.44-35.33c-32.59-16.03-64.3-34.9-94.23-56.05
						c-11.01-7.87-20.59-15.05-29.38-22.03c-19.09-15.05-37.75-31.45-55.42-48.7c-83.44-81.6-144.66-183.77-177.05-295.48v0
						C569.54,666.92,606.95,453.86,730.6,283.9c71.46-98.27,168.15-176.03,279.64-224.86c21.05-9.29,43.35-17.77,66.25-25.18
						c14.66-4.74,29.92-9.09,45.34-12.94c47.89-11.97,97.21-18.87,146.57-20.51c49.82-1.72,99.81,1.9,148.64,10.75
						c21.24,3.86,42.62,8.8,63.57,14.69c8.33,2.29,16.08,4.6,23.58,7.06c67.45,21.41,131.52,53.32,190.28,94.8
						c150.65,106.52,249.97,264.51,279.67,444.87c29.47,178.97-13.3,358.63-120.43,505.89
						C1723.35,1257.74,1513.17,1362.46,1292.04,1362.46z M664.03,858c30.6,105.51,88.42,202.02,167.24,279.1
						c16.71,16.32,34.37,31.83,52.47,46.1c8.34,6.62,17.44,13.43,27.85,20.88c28.23,19.96,58.24,37.8,89.09,52.98
						c25.87,12.8,53.06,24.04,80.84,33.42c32.53,11,66.42,19.51,100.71,25.3c12.36,2.04,24.91,3.78,37.23,5.16
						c234.95,25.83,466.42-75.5,603.89-264.54c101.18-139.07,141.57-308.73,113.75-477.71
						c-28.06-170.38-121.91-319.64-264.29-420.31c-55.6-39.25-116.21-69.44-180.14-89.73c-7.08-2.31-14.25-4.46-22.1-6.61
						c-19.94-5.61-40.16-10.28-60.23-13.93c-46.19-8.37-93.54-11.81-140.66-10.17c-46.74,1.55-93.41,8.09-138.75,19.41
						c-14.61,3.64-29.04,7.76-42.89,12.23c-21.67,7.01-42.76,15.02-62.69,23.82c-105.44,46.18-196.85,119.69-264.39,212.58
						C644.19,466.49,608.87,667.7,664.03,858L664.03,858z"/>
				</g>
				<g>
					<path class="st12" d="M714.18,1019.16c324.95,348.96,890.37,274.85,1020.69-176.02c88.66-306.74-147.71-629.38-452.18-694.68
						c-221.59-47.53-458.95,1.58-627.53,320.29c0,0-52.51,152.46-32.91,265.92c19.6,113.46,58.09,220.57,58.09,220.57
						L714.18,1019.16z"/>
				</g>
				<g>
					<path class="st15" d="M1734.84,843.15c-130.3,450.86-695.73,524.96-1020.67,176.03l-6.85-12.97
						c406.3,167.1,883.95,9.92,1024.31-443.51C1758.63,652.32,1762.19,748.48,1734.84,843.15z"/>
				</g>
				<g>
					<path class="st12" d="M1205.17,1325.19c-72.64,0-146.44-11.04-218.35-33.37l-2.72-1.08c-32.63-16.05-64.34-34.92-94.27-56.07
						c-11.01-7.87-20.59-15.05-29.38-22.03c-19.09-15.05-37.75-31.45-55.42-48.7c-83.44-81.6-144.66-183.77-177.05-295.48l0,0
						C569.54,666.92,606.95,453.86,730.6,283.9c71.46-98.27,168.15-176.03,279.64-224.86l1.76-0.78l1.89-0.4
						c86.98-18.37,182.76-16.6,284.68,5.25c183.45,39.35,352.63,162.58,452.55,329.64c90.01,150.48,114.79,319.1,69.79,474.78
						c-48.99,169.41-152.88,300.97-300.44,380.46C1425.51,1299.15,1316.71,1325.19,1205.17,1325.19z M999.35,1256.4
						c172.37,53.13,355.73,38.04,503.32-41.46c138.49-74.59,236.06-198.33,282.18-357.84c42.08-145.56,18.66-303.63-65.94-445.07
						c-94.68-158.29-254.75-275-428.2-312.21c-95.99-20.59-185.86-22.47-267.17-5.63C918.9,140.41,828.13,213.62,760.96,305.99
						C644.18,466.5,608.85,667.69,664.03,858c30.6,105.51,88.42,202.02,167.24,279.1c16.71,16.32,34.37,31.83,52.47,46.1
						c8.34,6.62,17.44,13.43,27.85,20.88C939.41,1223.74,968.96,1241.36,999.35,1256.4z"/>
				</g>
				<g>
					<path class="st12" d="M1202.78,1251.08c-182.06,0-363.85-79.6-497.75-223.4l-1.12-1.21l-35.33-67
						c-0.39-1.08-39.09-109.44-58.65-222.67c-19.92-115.3,31.23-265.77,33.41-272.12l0.77-1.77
						c146.32-276.64,362.06-386.54,641.2-326.67c162.09,34.77,311.59,143.67,399.9,291.31c79.47,132.87,101.37,281.69,61.67,419.07
						c-57.59,199.27-204.14,340.63-402.06,387.86C1298.02,1245.64,1250.38,1251.08,1202.78,1251.08z M724.45,1011.85
						c162.76,173.96,398.12,249.95,614.56,198.31c188.92-45.07,328.82-180.1,383.85-370.48c37.76-130.64,16.77-272.44-59.11-399.29
						c-84.81-141.8-228.25-246.36-383.69-279.7C1013.5,103.5,807.12,208.81,666.68,473.7c-4.18,12.54-50.18,154.3-32.11,258.84
						c18.3,105.96,53.68,207.55,57.25,217.65L724.45,1011.85z"/>
				</g>
				<g>
					<path class="st6" d="M2032.27,878.47c-20.71,129.04-115.38,225.12-211.48,214.56c-96.1-10.56-157.22-123.74-136.51-252.78
						c0.11-0.81,0.28-1.67,0.43-2.47c21.48-127.8,115.62-222.58,211.05-212.08c74.24,8.15,127.6,77.55,138.5,168.18
						C2037.45,820.56,2036.97,849.12,2032.27,878.47z"/>
				</g>
				<g class="st11">
					<path class="st12" d="M2032.27,878.47c-20.71,129.04-115.38,225.12-211.48,214.56c-96.1-10.56-157.22-123.74-136.51-252.78
						c0.11-0.81,0.28-1.67,0.43-2.47c8.44,14.4,22.79,29.25,45.78,27.3c40.26-3.43,123.6-78.72,123.6-78.72s78.15,2.75,180.17,7.51
						C2037.45,820.56,2036.97,849.12,2032.27,878.47z"/>
				</g>
				<g>
					<path class="st12" d="M1835.04,1112.57c-5.43,0-10.86-0.29-16.31-0.89c-42.77-4.7-80.43-26.94-108.92-64.32
						c-40.83-53.59-56.9-130.17-44.08-210.09c22.24-138.57,126.33-241.92,232.08-230.22c42.77,4.7,80.43,26.94,108.92,64.32
						c40.83,53.59,56.89,130.17,44.07,210.09C2029.73,1012.88,1934.97,1112.57,1835.04,1112.57z M1881.12,643.66
						c-81.76,0-160.13,86.24-178.31,199.55c-11.04,68.8,2.74,136.61,36.87,181.39c22.1,29,50.85,46.21,83.16,49.76
						c86.17,9.39,171.8-79.74,190.91-198.86c11.04-68.8-2.74-136.61-36.87-181.39c-22.1-29-50.85-46.21-83.16-49.76
						C1889.53,643.89,1885.31,643.66,1881.12,643.66z"/>
				</g>
				<g>
					
						<ellipse transform="matrix(0.215 -0.9766 0.9766 0.215 638.8651 2560.5286)" class="st6" cx="1912.26" cy="882.84" rx="193.27" ry="131.74"/>
				</g>
				<g class="st11">
					<path class="st12" d="M1880.92,1073.23c72.67,7.42,145.56-71.81,162.86-176.98c1.9-11.41,3.01-22.68,3.48-33.66
						c-30.84,69.39-87.42,115.05-143.9,109.23c-63.78-6.58-106.52-76.72-105.11-164.12c-7.9,19.09-13.91,39.86-17.53,61.72
						C1763.42,974.59,1808.29,1065.81,1880.92,1073.23z"/>
				</g>
				<g>
					<path class="st12" d="M1890.67,1092.49c-3.87,0-7.74-0.19-11.63-0.59c-31.95-3.26-60.23-19.87-81.79-48.06
						c-33.1-43.26-46.19-109.6-35.02-177.46c19.17-116.52,99.71-201.23,183.27-192.6c31.95,3.26,60.23,19.87,81.79,48.06
						c33.1,43.26,46.19,109.6,35.02,177.46C2044.03,1010.41,1969.98,1092.49,1890.67,1092.49z M1934.28,710.76
						c-59.5,0-120.21,71.7-135.02,161.72c-9.51,57.83,0.88,113.36,27.8,148.55c15.11,19.75,34.4,31.34,55.78,33.53
						c61.81,6.33,127-67.59,142.42-161.35c9.51-57.83-0.88-113.36-27.8-148.55c-15.11-19.75-34.4-31.34-55.78-33.53
						C1939.22,710.88,1936.75,710.76,1934.28,710.76z"/>
				</g>
				<g class="st16">
					<path class="st6" d="M1414.82,300.54c0,0-283.69-74.31-482.4,57.97c-0.21,0.14-0.42,0.28-0.63,0.42
						c-41.8,27.88-90,96.08-111.75,140.96c-28.76,59.36-39.75,104.43-47.87,144.47c-24.65,121.79-13.08,183.43-13.08,183.43
						c-57.28-78.23-82.11-159.11-62.6-260.75c1.95-10.02,4.34-20.27,7.12-30.72c0.63-2.41,1.32-4.78,2.04-7.17
						c-0.05-0.03-0.01-0.08,0.06-0.14c7.16-20.78,17.6-47.73,31.97-77.15c43.27-88.78,121.89-200.19,252.47-233.33
						C1234.32,156.59,1427.57,289.83,1414.82,300.54z"/>
				</g>
				<g class="st16">
					
						<ellipse transform="matrix(0.9973 -0.074 0.074 0.9973 -45.3353 115.8655)" class="st6" cx="1541.78" cy="670.06" rx="79.93" ry="91.81"/>
				</g>
				<g class="st16">
					
						<ellipse transform="matrix(0.9861 -0.1663 0.1663 0.9861 -117.4951 269.8745)" class="st6" cx="1552.7" cy="836.51" rx="32.99" ry="37.93"/>
				</g>
			</g>
		</g>
	</g>
</g>
</svg>
