<?xml version="1.0" encoding="utf-8"?>
<!-- Generator: Adobe Illustrator 26.2.1, SVG Export Plug-In . SVG Version: 6.00 Build 0)  -->
<svg version="1.1" id="Layer_1" xmlns="http://www.w3.org/2000/svg" xmlns:xlink="http://www.w3.org/1999/xlink" x="0px" y="0px"
	 viewBox="0 0 2455.11 3235.45" style="enable-background:new 0 0 2455.11 3235.45;" xml:space="preserve">
<style type="text/css">
	.st0{fill:#FFFFFF;}
	.st1{fill:#515B72;}
	.st2{fill:#FFABBC;}
	.st3{opacity:0.2;}
	.st4{fill:#000072;}
	.st5{opacity:0.6;}
	.st6{opacity:0.6118;}
	.st7{fill:#F9E3D2;}
	.st8{fill:#39005E;}
	.st9{fill:#98C45E;}
	.st10{opacity:0.35;}
	.st11{opacity:0.5;}
	.st12{opacity:0.3;}
	.st13{fill:#FF0068;}
	.st14{fill:#FAA327;}
	.st15{fill:#EF7F25;}
	.st16{opacity:0.15;}
	.st17{fill:#FF859D;}
	.st18{fill:#BFADD9;}
	.st19{fill:#220F2D;}
	.st20{fill:#8BC6F7;}
	.st21{fill:#371A45;}
	.st22{fill:#A1C0FF;}
	.st23{fill:#C5E2FB;}
	.st24{fill:#472759;}
	.st25{fill:#F2D649;}
	.st26{fill:#82DAFA;}
	.st27{fill:#ABBF52;}
	.st28{fill:#EBC463;}
	.st29{fill:#94859E;}
	.st30{fill:#56406B;}
	.st31{fill:#FCFCFC;}
	.st32{opacity:0.25;}
	.st33{opacity:0.26;}
	.st34{fill:#FF9522;}
	.st35{fill:#F47E1E;}
	.st36{fill:#FA84A8;}
	.st37{fill:#FFC28A;}
	.st38{fill:#8AE6FF;}
	.st39{fill:#BBFF8A;}
	.st40{fill:#FF8AAD;}
	.st41{fill:#FF7D43;}
	.st42{opacity:0.2118;}
	.st43{fill:#EFA060;}
	.st44{fill:#AD824E;}
	.st45{fill:#DB9B4D;}
	.st46{fill:#FFE959;}
	.st47{fill:#F0A55B;}
	.st48{fill:#8DB0FF;}
	.st49{fill:#96C7FF;}
	.st50{fill:#FFF6A8;}
	.st51{fill:#460F67;}
	.st52{fill:#F87B38;}
	.st53{fill:#982D1F;}
	.st54{fill:#6B1952;}
	.st55{fill:#7AC5FF;}
	.st56{fill:#FFC088;}
	.st57{fill:none;stroke:#39005E;stroke-width:47.229;stroke-linecap:round;stroke-linejoin:round;stroke-miterlimit:10;}
	.st58{fill:#FF8F43;}
	.st59{fill:#BE9EFF;}
	.st60{fill:#4599F4;}
	.st61{opacity:0.7;}
	.st62{fill:#E2E2E2;}
	.st63{fill:#D8D8D8;}
	.st64{fill:#111A28;}
</style>
<g>
	<g>
		<g>
			<g>
				<path class="st21" d="M86.76,201.37c-6.85,11.03-20.83,15.68-32.92,11.08l-35.49-13.72c-15.89-5.85-23.1-24.88-15.01-39.71
					c37-65.1,104.4-87.06,170.6-79.15c92.68,11.07,156.83,89.04,147.81,164.58C308.36,356.6,206.12,359.4,180.5,441.65
					c-4.7,12.87-16.81,21.69-30.05,20.11l-38.94-4.65c-17.13-2.05-28.51-19.2-23.35-35.97c28.99-90.54,124.14-106.82,132.24-174.58
					c4.65-38.94-15.96-71.42-64.25-77.19C121.88,165.28,99.49,180.77,86.76,201.37z M169.37,594.36
					c-3.72,31.15-32.49,53.78-63.65,50.06c-31.93-3.81-54.56-32.59-50.84-63.74c3.81-31.93,32.58-54.56,64.52-50.75
					C150.55,533.66,173.18,562.43,169.37,594.36z"/>
			</g>
		</g>
		<g>
			<g>
				<g>
					<path class="st0" d="M2030.19,2328.16c-1.84,8.32-4.35,16.35-7.42,24.06c-18.86,47.44-59.77,83.44-110.51,95.33
						c-141.43,33.27-440.75,73.62-792.14-54.92c0,0-75.23-693.3,70.55-1040.89c0,0,325.22-67.48,762.95,68.31
						c37.39,11.55,68.03,36.28,87.51,68.2c13.84,22.66,22.1,49,23.05,76.8C2070.54,1749.06,2076.35,2121.71,2030.19,2328.16z"/>
				</g>
				<g>
					<path class="st21" d="M1613.5,2503.31c-142.69,0-314.59-21.51-501.06-89.72c-7.98-2.92-13.61-10.11-14.53-18.56
						c-3.1-28.54-74.18-703.01,72.18-1051.94c2.84-6.78,8.85-11.73,16.05-13.23c13.51-2.81,335.87-67.06,774.1,68.85
						c72.86,22.6,123.59,89.12,126.23,165.55c6.87,198.7,11.52,562.8-34.49,768.76c-14.99,67.1-67.84,120.6-134.63,136.28
						C1846.99,2485.83,1742.12,2503.31,1613.5,2503.31z M1140.94,2376.4c337.93,120,624.48,82.73,766.21,49.44
						c50.24-11.8,89.99-52.06,101.27-102.55c44.93-201.11,40.24-560.91,33.44-757.48c-1.98-57.46-40.1-107.47-94.83-124.44
						c-381.34-118.26-679.22-79.75-740.32-69.8C1081.79,1686.2,1131.61,2278.51,1140.94,2376.4z"/>
				</g>
				<g>
					<path class="st21" d="M2025.57,1496.71c0.04-0.07-0.56-0.29-1.01-0.48c-0.44-0.2-0.99-0.39-1.53-0.58
						c-1.06-0.4-2.17-0.78-3.34-1.13c-2.27-0.77-4.71-1.36-7.1-2.03c-4.88-1.17-9.87-2.2-14.95-2.92
						c-10.16-1.48-20.61-2.12-31.09-1.58c-10.46,0.51-21.07,1.75-31.44,4.37c-10.5,2.28-20.63,6.11-30.76,10.31l-0.47,0.19
						c-4.16,1.72-8.92-0.25-10.64-4.41c-1.5-3.62-0.19-7.69,2.91-9.82c9.8-6.74,20.03-13.26,31.12-18.26
						c10.96-5.34,22.62-9.32,34.59-12.46c11.98-3.17,24.36-5.05,36.93-5.87c6.29-0.42,12.64-0.48,19.06-0.31
						c3.23,0.18,6.44,0.3,9.75,0.65c1.63,0.13,3.31,0.33,5.02,0.57l2.62,0.38c0.93,0.16,1.71,0.26,3.11,0.6
						c11.81,3.53,18.53,15.96,15,27.78S2037.39,1500.23,2025.57,1496.71z"/>
				</g>
			</g>
			<g class="st3">
				<path class="st21" d="M1970.62,2375.21c14.9-7.37,27.91-17.47,39.85-28.97c-18.86,47.44-59.77,83.44-110.51,95.33
					c-141.43,33.26-440.75,73.62-792.14-54.92c0,0-75.23-693.3,70.55-1040.89c0,0,325.22-67.48,762.95,68.31
					c37.39,11.55,68.03,36.28,87.51,68.2c-19.65,1.73-39.12,9.32-53.19,22.66c-38.45,36.39-46.83,93.6-52.91,146.17
					c-13,111.46-26.01,222.91-39.01,334.31c-10.77,92.2-21.49,184.4-32.26,276.55c-4.02,34.6-6.81,73.62,15.8,100.13
					C1891.53,2390.56,1937.08,2391.85,1970.62,2375.21z"/>
			</g>
			<g>
				<path class="st0" d="M2430.81,1750.4c-16.13,37.67-129.15,0-129.15,0s26.9,75.35,75.35,123.79c10.38,10.38,19.81,23,26.85,36.95
					c25.95,51.07,20.82,119.88-80.65,162.19c-129.2,53.8-215.32-48.45-263.71-118.43c0,0-53.86,164.7-220.68,133.5
					c0,0,37.67,146.34-5.36,254c-43.09,107.66-37.67,441.31-37.67,441.31s32.26,279.84,0,349.83
					c-32.32,69.99-362.44,118.38-509.51,37.67c0,0-281.63,53.8-453.86,16.13c-106.66-23.33-116.31-96.22-86.4-152.14
					c18.31-34.38,51.57-62.34,86.4-68.48c0,0-69.32-667.34-48.11-968.73c0,0-167.16,43.03-264.05-16.18
					c-96.89-59.16-188.37-263.71-188.37-263.71s-91.48,69.99-166.82-5.36c-75.35-75.35,150.69-139.92,150.69-139.92
					s-48.45-31.7-26.9-77.13c21.49-45.49,50.23-2.4,119.55-16.74c69.37-14.4,165.09,4.74,279.9,124.35c0,0,40.74-83.1,159.73-153.71
					c92.65-55.14,232.85-102.69,438.24-97.45c229,5.86,445.77,57.37,570.73,152.31c56.26,42.75,93.93,94.32,105.6,154.49
					c0,0,150.69-44.48,274.48-35.72C2360.88,1631.96,2446.94,1712.72,2430.81,1750.4z"/>
			</g>
			<g class="st3">
				<path class="st21" d="M2403.85,1911.13c-57.65,43.2-137.35,56.48-205.44,32.43c-66.91-23.6-119.88-82.3-138.55-150.53
					c-3.92-14.32-20.64-20.46-32.9-12.08c-21.17,14.48-43.12,27.69-67.15,36.36c-34.38,12.45-74.12,14.62-102.19-12.45
					c31.03-45.37,62.01-90.81,95.89-139.75c1.4-2.73,2.79-5.53-1.73-11.94c-25,39.96-78.08,59.94-123.23,46.32
					c-22.93-6.89-42.78-22.12-56.74-41.81c-20.53-28.94-13.63-69.43,15.03-90.35c25.53-18.64,49.12-39.79,70.17-62.9
					c-124.96-94.93-341.74-146.45-570.73-152.31c-205.39-5.25-345.59,42.3-438.24,97.45c303.68,221.51,533.63,229.05,650.36,220.01
					c50.54-3.91,92.83,39,87.15,89.38c-3.81,33.82-16.3,66.39-38.81,92.85c-44.09,51.96-109.11,81.32-174.02,102.08
					c-180.44,57.6-373.49,60.44-562.81,53.58c-4.91,60.67-9.82,121.39-14.73,182.17c230.01,72.59,475.5,95.38,722.34,75.98
					c32.78-2.58,46.61,41.02,18.13,57.45c-90.53,52.23-194.73,80.91-299.28,80.95c-144.27,0-287.88-54.47-395.87-150.19
					c1.9,138.02,108.5,267.56,244.34,297.14c-12.73,95.21-11.33,192.33,4.97,286.93c5.8,78.47,11.61,156.89,11.11,226.15
					c-106.94,69.93-260.42,56.43-354.91-28.86c-29.91,55.92-20.26,128.81,86.4,152.14c172.24,37.67,453.86-16.13,453.86-16.13
					c147.07,80.7,477.19,32.32,509.51-37.67c32.26-69.99,0-349.83,0-349.83s-5.41-333.64,37.67-441.31
					c43.03-107.66,5.36-254,5.36-254c166.82,31.2,220.68-133.5,220.68-133.5c48.39,69.99,134.51,172.23,263.71,118.43
					C2424.67,2031.02,2429.8,1962.2,2403.85,1911.13z M1575.99,3052.82c-24.17,48.22-78.08,76.63-131.77,81.37
					c-53.75,4.74-107.33-11.05-156.5-34.44c2.4-75.51,52.35-128.2,39.74-132.55c49.78-162.36,14.29-348.32-73.73-479.65
					c80.33-8.78,159.71-25.9,236.51-50.94c33.09-10.78,67.44,12.73,69.86,47.45c10.12,145.26,20.2,290.56,30.29,435.81
					C1593.52,2964.92,1596.2,3012.47,1575.99,3052.82z"/>
			</g>
			<g>
				<path class="st21" d="M1498.79,3235.45c-78.74,0-157.95-11.5-216.07-40.89c-47.69,8.57-294.4,49.72-455.08,14.59
					c-106.18-23.23-118.66-89.67-118.66-119.5c0-0.75,0.01-1.47,0.02-2.17c1.18-57.91,45.58-117.13,99.3-137.19
					c-9.59-95.64-50.39-520.01-50.4-813.96c0-39.55,0.73-76.74,2.39-110.45c-54.65,9.91-172.52,23.34-251.67-25.02
					c-82.59-50.43-158.57-193.93-186.21-250.54c-43.62,22.66-114.6,36.73-173.12-21.79c-16.98-16.98-21.93-33.6-21.92-47.21
					c0-5.35,0.77-10.24,1.87-14.5c12.98-50.1,95.24-86.41,145.63-104.28c-8.02-12.17-13.9-26.99-13.9-43.6
					c0-10.32,2.28-21.34,7.72-32.82c19.69-41.7,51.43-35.4,74.61-30.8c16.53,3.28,35.27,7,60.58,1.76
					c63.03-13.07,161.54-3.49,280.25,110.46c18.44-26.61,54.25-69.97,114.43-112.53c85.68-60.6,239.92-131.55,488.27-125.19
					c173.08,4.42,335.25,34.83,456.64,85.63c127.49,53.36,208.24,127.68,235.24,215.97c47.38-12.16,160.86-37.5,259.94-30.48l0,0
					c97.52,6.9,176.77,56.78,204.66,102.49c8.83,14.48,11.79,26.86,11.79,36.95c0,7.6-1.67,13.9-3.78,18.81
					c-15.38,35.91-66.98,34-110.1,25.08c11.97,23.28,29.45,52.02,51.56,74.13c23.92,23.92,46.63,62.41,46.62,104.78
					c0,7.39-0.69,14.89-2.19,22.46c-6.32,31.98-29.75,76.72-105.43,108.29c-130.6,54.37-221.56-35.16-267.69-94.61
					c-30.99,55.9-95.05,120.42-197.1,114.95c4.43,24.97,9.45,62.41,9.45,103.94c0,42.91-5.36,90.16-22.27,132.48
					c-33.01,82.48-36.28,311.14-36.28,398.32c0,0.02,0,0.05,0,0.08c0,0.03,0,0.05,0,0.08c0,17.73,0.14,29.58,0.18,33.11
					c2.47,21.6,14.37,130.71,14.37,226.51c0,55.92-4.05,107.3-16.4,134.1c-10.99,23.79-41.82,44.17-91.64,60.58
					C1667.73,3222.12,1583.53,3235.44,1498.79,3235.45z M1286.27,3148.87c3.73,0,7.43,0.94,10.74,2.75
					c97.7,53.61,296.3,47.99,413.43,9.41c41.82-13.77,61.19-28.47,65.07-36.88c8.97-19.47,12.37-61.75,12.38-112.42
					c0-71.99-6.85-160.93-14.28-225.49c-0.08-0.73-0.13-1.46-0.14-2.19c-0.04-2.64-0.25-16.64-0.25-38.33
					c0-91.96,3.72-322.17,39.52-411.63c14.38-35.98,18.98-77.17,18.99-115.17c0.01-67.02-14.3-124.09-14.53-124.98
					c-0.47-1.82-0.7-3.66-0.7-5.5c-0.01-5.62,2.1-11.11,6.03-15.3c5.21-5.57,12.91-8.09,20.4-6.69
					c145.09,27.13,193.39-112.59,195.38-118.55c2.67-8.03,9.66-13.89,18.04-15.08c8.39-1.19,16.72,2.42,21.53,9.38
					c52.26,75.6,126.4,156.47,236.77,110.52c45.51-18.97,72.76-45.17,78.8-75.73c0.93-4.71,1.36-9.41,1.36-14.07
					c0-28.71-16.41-55.78-33.57-72.93c-51.4-51.4-79.42-128.8-80.59-132.07c-0.87-2.45-1.3-4.99-1.3-7.5
					c0-5.74,2.22-11.37,6.37-15.62c5.98-6.1,14.91-8.24,23.01-5.56c46.84,15.57,93.52,19.32,101.64,12.16
					c0.04-0.21,0.08-0.51,0.08-0.91c0-2.06-0.86-6.64-5.23-13.79c-21.39-35.06-88.13-75.43-169.7-81.21l0,0
					c-118.19-8.36-265.12,34.43-266.59,34.86c-6.04,1.78-12.54,0.93-17.91-2.33c-5.37-3.27-9.12-8.64-10.32-14.81
					c-36.71-188.85-355.42-281.09-654.98-288.75c-449.51-11.56-576.13,236.17-577.36,238.67c-3.21,6.54-9.41,11.1-16.61,12.23
					c-7.2,1.1-14.49-1.35-19.54-6.6c-91.22-95.03-178.44-134.72-259.26-117.95c-34.19,7.08-59.7,2.01-78.33-1.68
					c-20.74-4.11-20.74-4.12-25.57,6.1c-2.27,4.79-3.21,9.36-3.22,13.66c-0.01,19.63,19.58,33.52,22.28,35.33
					c6.23,4.19,9.91,11.22,9.91,18.59c0,1.15-0.09,2.3-0.27,3.46c-1.36,8.57-7.5,15.63-15.84,18.02
					c-55.65,15.94-141.64,53.57-149.45,83.74c-0.18,0.69-0.44,1.72-0.44,3.12c0,3.24,1.46,8.43,8.85,15.82
					c60.34,60.34,134.41,5.72,137.53,3.37c5.42-4.09,12.46-5.53,19.04-3.81c6.58,1.69,12.07,6.27,14.84,12.48
					c0.89,1.98,89.8,198.93,179.62,253.77c87.58,53.53,245.28,14.02,246.86,13.62c6.95-1.78,14.34-0.11,19.84,4.48
					c5.1,4.25,8.03,10.54,8.03,17.12c0,0.53-0.02,1.05-0.05,1.59c-2.76,39.17-3.96,84.75-3.96,134.37
					c-0.01,325.39,51.4,824.71,52,830.48c0.08,0.77,0.12,1.54,0.12,2.3c0.01,10.72-7.68,20.09-18.45,21.99
					c-41.59,7.33-81.75,55.78-82.65,99.69c-0.01,0.52-0.02,1.04-0.02,1.55c0.01,47.32,45.31,67.22,83.56,75.59
					c165.73,36.25,442.13-15.73,444.91-16.25C1283.47,3149.01,1284.88,3148.87,1286.27,3148.87z M1310.23,3041.66
					c-0.91,0-1.83-0.05-2.75-0.17c-10.13-1.25-18.12-9.21-19.41-19.34c-0.19-1.47-19.11-147.96-52.98-217.96
					c-2.56-5.29-2.93-11.38-1.03-16.93c0.37-1.09,37.05-109.34,34.87-171.39c-0.37-10.55,6.7-19.91,16.94-22.45
					c10.24-2.53,20.87,2.44,25.47,11.94c4.17,8.61,101.21,213.27,19.68,422.1C1327.64,3036.1,1319.32,3041.66,1310.23,3041.66z
					 M1279.14,2793.12c14.87,33.82,26.66,78.81,35.33,119.57c9.97-75.95-0.36-146.84-13.42-199.28
					C1293.21,2747.99,1283.79,2778.68,1279.14,2793.12z"/>
			</g>
			<g>
				<path class="st21" d="M1835.03,2110.38l-2.74-0.6l-1.95-0.55l-3.8-1.11l-6.85-2.47c-4.48-1.71-8.59-3.7-12.85-5.59l-12-6.41
					c-3.85-2.3-7.56-4.74-11.33-7.11c-3.85-2.29-7.28-5.01-10.82-7.63c-3.48-2.66-7.12-5.18-10.45-7.98l-9.81-8.57
					c-3.26-2.86-6.59-5.66-9.51-8.81l-9.03-9.2c-3.01-3.06-6.07-6.09-8.71-9.42c-5.45-6.54-11.07-12.95-16.34-19.59l-14.85-20.52
					c-2.57-3.36-4.74-6.95-6.94-10.52l-6.63-10.68c-9.28-14.01-16.36-29.09-24.33-43.7c-3.93-7.33-6.96-15.05-10.47-22.55
					c-3.35-7.57-6.89-15.05-10.07-22.67c-5.77-15.45-11.87-30.77-17.33-46.27l-14.8-46.95c-2.25-7.13,1.71-14.74,8.84-16.98
					c6.93-2.18,14.3,1.49,16.77,8.23l0.26,0.72l16.41,44.87c5.95,14.73,12.49,29.18,18.68,43.76c3.38,7.15,7.08,14.12,10.6,21.18
					c3.67,6.98,6.87,14.22,10.9,20.96c8.15,13.4,15.45,27.38,24.67,39.94l6.6,9.64c2.19,3.22,4.34,6.46,6.84,9.41l14.42,18.14
					c5.05,5.79,10.37,11.3,15.51,16.96c2.51,2.91,5.34,5.43,8.12,8.01l8.31,7.75c2.69,2.69,5.68,4.94,8.61,7.28l8.77,7.01
					c2.95,2.27,6.1,4.19,9.12,6.31c3.06,2.06,6.05,4.26,9.26,5.93c3.16,1.78,6.29,3.66,9.45,5.37l9.61,4.59
					c3.2,1.2,6.44,2.62,9.56,3.64l4.62,1.44l2.04,0.48l0.98,0.24c0.08,0,0.16,0.01,0.23,0.03l3.45,1.01
					c11.77,3.44,18.53,15.77,15.09,27.54C1857.84,2106.19,1846.33,2112.85,1835.03,2110.38z"/>
			</g>
			<g>
				<path class="st21" d="M762.17,1995c6.12-37.17,13.45-73.11,21.59-109.31c8.17-36.08,17.3-71.94,27.34-107.55
					c9.95-35.63,21.41-70.88,33.71-105.83c12.46-34.91,26.65-69.25,42.22-102.99c2.98-6.45,10.62-9.27,17.08-6.29
					c6.28,2.9,9.11,10.21,6.53,16.54l-0.12,0.28c-13.72,33.46-26.11,67.48-36.82,102.13c-10.56,34.69-20.29,69.66-28.55,105.04
					c-8.34,35.35-15.78,70.92-22.28,106.65c-6.43,35.64-12.18,71.85-16.46,107.25l-0.05,0.39c-1.48,12.25-12.6,20.97-24.85,19.5
					c-12.25-1.48-20.97-12.6-19.5-24.85C762.06,1995.66,762.12,1995.28,762.17,1995z"/>
			</g>
			<g>
				<path class="st8" d="M772.88,1929.47c9.83-36.46,20.61-72.55,32.33-108.27c2.22-6.78,9.52-10.47,16.3-8.25
					c6.07,1.99,9.66,8.08,8.75,14.2c-5.47,36.71-9.96,73.51-13.44,110.29c-1.17,12.32-12.1,21.36-24.42,20.19
					c-12.32-1.17-21.36-12.1-20.19-24.42c0.12-1.24,0.33-2.44,0.64-3.6L772.88,1929.47z"/>
			</g>
			<g>
				<path class="st21" d="M497.95,1982.69c-1.39-37.57-0.56-75.45,4.07-113.22c4.73-37.72,12.68-75.44,26.11-111.77
					c13.28-36.3,32.03-71.23,57.05-101.85c12.55-15.25,26.56-29.48,42.25-41.94c7.78-6.3,16.09-12.03,24.75-17.37
					c4.32-2.68,8.82-5.16,13.44-7.55c2.35-1.18,4.67-2.34,7.16-3.44l3.79-1.65l2.03-0.82l2.55-0.94l0,0l2.28-0.79
					c11.11-3.86,23.24,2.03,27.1,13.14c2.14,6.18,1.23,12.76-1.88,17.97c-1,1.65-2.39,4.5-3.56,6.87l-3.59,7.66
					c-2.37,5.17-4.61,10.49-6.8,15.85c-4.37,10.73-8.39,21.7-12.2,32.8c-3.78,11.11-7.29,22.36-10.57,33.7
					c-3.3,11.35-6.29,22.81-9.16,34.33l-0.03,0.12c-1.41,5.63-7.11,9.05-12.74,7.65c-5.06-1.26-8.34-6-7.93-11.03
					c0.97-12.1,2.07-24.22,3.51-36.34c1.43-12.12,3.1-24.24,5.1-36.36c2.03-12.12,4.31-24.23,7.04-36.36
					c1.39-6.07,2.83-12.13,4.48-18.23l2.57-9.19c0.98-3.21,1.76-5.95,3.17-9.77l27.5,30.31l-1.82,0.73l-2.5,1.09
					c-1.7,0.75-3.47,1.64-5.21,2.51c-3.5,1.82-7.03,3.75-10.49,5.91c-6.92,4.27-13.73,8.94-20.17,14.17
					c-13,10.31-24.83,22.32-35.53,35.32c-21.34,26.12-37.83,56.55-49.68,88.97c-12,32.4-19.31,66.81-23.68,101.69
					c-4.29,34.94-5.09,70.52-3.78,106.11l0,0.12c0.45,12.32-9.17,22.68-21.49,23.13C508.76,2004.63,498.4,1995.01,497.95,1982.69z"
					/>
			</g>
			<g>
				<path class="st21" d="M1900.27,2113.5c-6.92,0-13.75-3.21-18.11-9.24c-95.76-132.46-72.3-251.77-35.76-328.54
					c38.9-81.73,99.48-131.99,102.04-134.09c9.53-7.81,23.6-6.43,31.42,3.1c7.81,9.52,6.43,23.58-3.08,31.4l0,0
					c-0.56,0.46-56.28,46.96-90.69,120.1c-44.87,95.37-34.02,190.2,32.25,281.86c7.22,10,4.98,23.95-5.01,31.17
					C1909.38,2112.13,1904.8,2113.5,1900.27,2113.5z"/>
			</g>
			<g>
				<path class="st21" d="M2039.99,1965.81c-2.31-5.72-3.85-10.49-5.57-15.67c-1.64-5.08-3.2-10.15-4.64-15.22
					c-2.9-10.15-5.51-20.3-7.82-30.48c-4.6-20.36-8.11-40.8-10.58-61.23c-0.35-2.88,1.71-5.5,4.59-5.85
					c2.38-0.29,4.58,1.06,5.47,3.16l0.01,0.04c7.89,18.62,16.67,36.71,26.27,54.17c4.81,8.72,9.85,17.28,15.08,25.62
					c2.6,4.18,5.29,8.28,8.01,12.31c2.67,3.91,5.62,8.2,8.14,11.34c7.83,9.74,6.28,23.98-3.46,31.82
					c-9.74,7.83-23.98,6.28-31.82-3.46c-1.4-1.74-2.5-3.63-3.31-5.6L2039.99,1965.81z"/>
			</g>
			<g>
				<path class="st21" d="M2323.95,1749.25c0,2.03-0.1,2.91-0.19,4.24l-0.35,3.52c-0.27,2.31-0.59,4.54-0.99,6.75
					c-0.78,4.42-1.75,8.75-2.98,13.02c-2.39,8.53-5.65,16.83-9.86,24.7c-8.33,15.75-20.75,29.7-35.63,39.06
					c-7.42,4.68-15.29,8.29-23.27,11.05c-8.04,2.48-16.11,4.46-24.18,5.33c-16.11,2.07-31.92,1.3-47.22-0.81
					c-3.88-0.53-6.59-4.11-6.05-7.99c0.48-3.47,3.4-6.01,6.79-6.12l0.05,0c14.52-0.46,28.85-2.32,42.03-6.4
					c6.64-1.88,12.81-4.66,18.68-7.6c5.73-3.2,11-6.86,15.62-11.04c9.23-8.4,15.59-18.95,19.35-30.5
					c1.89-5.77,3.11-11.82,3.71-17.93c0.33-3.05,0.46-6.12,0.45-9.13c0.01-1.5-0.05-3-0.14-4.43l-0.17-2.08
					c-0.07-0.54-0.16-1.52-0.23-1.36c-0.63-12.31,8.85-22.8,21.16-23.43C2312.83,1727.47,2323.32,1736.94,2323.95,1749.25z"/>
			</g>
			<g>
				<path class="st21" d="M1265.17,3178.48c-11.86-29.36-17.99-63.17-12.29-97.28c2.88-16.94,8.71-33.69,17.69-48.81
					c4.56-7.54,9.78-14.66,15.98-21.35c3.28-3.39,6.1-6.45,11.34-10.3c3.8-2.66,7.26-4.75,10.86-6.85
					c28.38-16.2,59.35-25.43,90.81-28.02c31.39-2.67,62.9,1.81,91.4,12.36c4.4,1.63,6.65,6.52,5.02,10.92
					c-1.38,3.72-5.08,5.9-8.85,5.5l-0.11-0.01c-28.26-2.96-56.12-1.93-82.48,4.28c-13.16,3.09-25.95,7.32-38.17,12.61
					c-12.12,5.46-23.94,11.69-34.37,19.12c-2.55,1.82-5.17,3.79-7.18,5.53c-0.59,0.55-2.79,2.85-4.4,4.86
					c-3.45,4.27-6.61,9.19-9.27,14.33c-5.36,10.33-8.96,21.67-10.73,33.53c-3.64,23.79-0.07,49.37,6.95,75.03l0.08,0.28
					c3.26,11.91-3.75,24.2-15.66,27.46C1280.74,3194.69,1269.35,3188.86,1265.17,3178.48z"/>
			</g>
			<g>
				<path class="st21" d="M826.89,2945.07c1.55-0.31,2.6-0.44,3.72-0.61c1.15-0.18,2.23-0.31,3.29-0.42
					c2.15-0.25,4.29-0.5,6.38-0.64c4.21-0.39,8.37-0.56,12.51-0.74c8.28-0.26,16.5-0.12,24.68,0.32c16.34,0.9,32.51,3.36,48.27,7.22
					c7.92,1.69,15.62,4.38,23.3,6.74c7.54,2.98,15.16,5.5,22.36,9.17c14.71,6.45,28.2,15.26,41.1,24.35
					c3.6,2.54,4.47,7.51,1.93,11.12c-2.29,3.25-6.56,4.27-10.02,2.58l-0.49-0.24c-13.25-6.47-26.57-12.49-40.66-16.15
					c-6.87-2.26-14.08-3.4-21.07-5c-7.17-0.98-14.2-2.3-21.4-2.66c-14.28-1.2-28.62-1.1-42.75,0.36
					c-7.06,0.74-14.06,1.72-20.93,3.04c-3.42,0.7-6.84,1.38-10.14,2.23c-1.69,0.38-3.28,0.84-4.88,1.29
					c-0.82,0.22-1.6,0.44-2.31,0.68c-0.74,0.23-1.56,0.48-1.86,0.63c-11.2,5.62-24.85,1.1-30.47-10.1
					c-5.62-11.21-1.1-24.85,10.1-30.47c1.83-0.92,3.73-1.57,5.65-1.96L826.89,2945.07z"/>
			</g>
			<g>
				<path class="st21" d="M1552.11,2859.08c-117.39,0-209.39-18.7-215.7-20.01c-12.07-2.51-19.81-14.33-17.3-26.4
					c2.51-12.07,14.34-19.81,26.4-17.31c2.47,0.51,249.06,50.49,445.13-14.91c11.7-3.9,24.34,2.42,28.24,14.12
					c3.9,11.69-2.42,24.34-14.12,28.24C1721.31,2850.64,1630.98,2859.08,1552.11,2859.08z"/>
			</g>
			<g>
				<path class="st21" d="M1037.1,2865.61c-119.41,0-219.49-31.24-226.18-33.37c-11.75-3.75-18.23-16.31-14.48-28.06
					c3.75-11.74,16.3-18.22,28.04-14.48l0,0c2.49,0.79,250.67,78.02,419.97-14.8c10.81-5.92,24.38-1.97,30.31,8.84
					c5.93,10.81,1.97,24.38-8.84,30.31C1194.21,2853.35,1111.86,2865.61,1037.1,2865.61z"/>
			</g>
			<g>
				<path class="st21" d="M1291.24,2637.42c-9.1,0-17.65-5.61-20.96-14.64l-48.02-130.98c-4.25-11.58,1.7-24.4,13.27-28.65
					c11.58-4.24,24.4,1.7,28.65,13.28l48.02,130.98c4.25,11.58-1.7,24.4-13.27,28.65
					C1296.39,2636.98,1293.79,2637.42,1291.24,2637.42z"/>
			</g>
			<g>
				<path class="st21" d="M898.32,2356.96c9.72,6.43,20.69,12.76,31.38,18.66c10.86,5.82,21.75,11.55,32.9,16.79
					c22.2,10.65,45.06,19.79,68.15,28.06c5.77,2.07,11.57,4.07,17.43,5.86c5.83,1.88,11.67,3.73,17.58,5.35
					c11.71,3.59,23.57,6.63,35.45,9.5c23.81,5.62,47.89,9.95,72.12,12.95c12.1,1.71,24.3,2.36,36.45,3.6
					c12.19,0.59,24.38,1.61,36.6,1.51c6.11,0.03,12.22,0.21,18.33,0.12l18.34-0.33c6.12,0.02,12.22-0.6,18.33-0.91
					c6.11-0.45,12.24-0.62,18.34-1.24c48.9-4.12,97.5-13,146.05-24.75l0.07-0.02c5.8-1.4,11.64,2.16,13.04,7.96
					c1.25,5.17-1.44,10.36-6.15,12.43c-47.06,20.73-97.43,34.48-148.85,41.88c-25.76,3.21-51.76,5.67-77.82,5.37
					c-13.03,0.26-26.05-0.63-39.07-1.11c-13-0.98-25.99-2.13-38.89-4.02c-25.81-3.53-51.51-8.24-76.58-15.33
					c-12.54-3.49-25.03-7.16-37.32-11.39c-6.18-2.02-12.25-4.37-18.31-6.69c-6.1-2.25-12.11-4.71-18.09-7.24
					c-23.99-9.94-47.19-21.71-69.5-34.89c-11.09-6.72-22.05-13.63-32.6-21.2c-10.67-7.57-20.67-15.34-30.82-24.49
					c-4.35-3.92-4.7-10.63-0.77-14.98c3.56-3.95,9.42-4.6,13.73-1.75L898.32,2356.96z"/>
			</g>
			<g>
				<g>
					<path class="st0" d="M1799.3,2071.48c-27.07,2.18-53.08,3.07-77.63,3.07c-130.15,0-221.24-25.73-226.21-27.18
						c-29.64-8.6-46.71-39.52-38.12-69.15c8.54-29.58,39.46-46.6,69.04-38.12c1.73,0.5,69.15,19.14,167.83,22.32
						C1732.99,2023.21,1771.73,2055.02,1799.3,2071.48z"/>
				</g>
			</g>
			<g>
				<g>
					<path class="st21" d="M1721.66,2096.88c-134.72,0-228.53-26.93-232.46-28.08c-41.37-12-65.3-55.42-53.31-96.8
						c11.92-41.27,55.28-65.21,96.63-53.36c0.66,0.19,65.78,18.36,162.39,21.47c7.37,0.24,14.14,4.09,18.1,10.3
						c37.11,58.15,73.63,87.51,97.72,101.9c8.34,4.98,12.5,14.78,10.3,24.23c-2.2,9.46-10.27,16.41-19.95,17.18
						C1775.16,2095.82,1748.44,2096.88,1721.66,2096.88z M1510.97,1960.24c-14.52,0-27.96,9.55-32.18,24.17
						c-5.15,17.75,5.12,36.37,22.89,41.52c0.94,0.27,91.58,26.3,219.99,26.3c5.47,0,10.94-0.05,16.4-0.14
						c-17.75-17.01-36.97-39.13-56.23-67.81c-95.94-4.33-161.03-22.55-161.68-22.74
						C1517.09,1960.66,1514.01,1960.24,1510.97,1960.24z"/>
				</g>
			</g>
			<g>
				<g>
					<g>
						<path class="st21" d="M836.7,1812.41c1.87,6.13,2.6,14.44,1.16,21.46l-0.55,2.57l-0.33,1.19l-0.49,1.66l-0.97,3.32
							c-1.32,4.42-2.47,8.88-3.68,13.33l-7.01,26.77c-2.32,8.93-4.43,17.91-6.47,26.91c-2.03,9-4.1,18-5.92,27.04l-0.22,1.09
							c-1.87,9.29-10.92,15.3-20.21,13.43c-0.35-0.07-0.74-0.16-1.08-0.26l-13.52-3.65l-6.75-1.83l-3.37-0.92
							c-1.19-0.35-2.73-0.94-4.07-1.42c-11.04-4.03-21.08-10.6-28.93-19.24c-16-17-22.63-41.96-17.65-64.56
							c2.43-11.21,7.5-21.98,14.88-30.9c7.42-8.88,16.93-15.84,27.44-20.54c10.55-4.61,22.12-7.15,33.99-7.21
							c2.9,0.22,6.02,0.11,8.85,0.48c3.01,0.42,5.08,0.48,9.85,1.5C820.13,1804.41,829.14,1808.19,836.7,1812.41z M798.76,1835.95
							c-1.13,2.08-0.81,3.72-1.02,3.35c0.43-0.08-1.86-1-3.21-1.6c-1.53-0.68-2.91-1.02-4.42-1.48c-5.99-1.38-12.54-0.89-18.5,1.38
							c-5.95,2.36-11.1,6.47-15.16,11.31c-3.98,4.93-6.67,10.84-8,17.1c-2.75,12.43,1.53,25.91,10.35,34.78
							c4.29,4.54,9.82,7.83,15.69,9.61c0.78,0.22,1.33,0.47,2.29,0.7l3.14,0.7l6.28,1.4l12.54,2.8l-21.51,14.27l4.43-27.82
							l4.61-27.81l4.8-27.8l2.49-13.89l0.6-3.48l0.3-1.74l0.08-0.44c0.04-0.19,0.05-0.31-0.01-0.07c-0.07,0.27-0.12,0.56-0.15,0.87
							C794.03,1830.57,795.83,1834.35,798.76,1835.95z"/>
					</g>
				</g>
			</g>
			<g>
				<path class="st21" d="M297.67,1559.71c0.85-1.04,1.41-1.61,1.97-2.18c0.58-0.61,1.15-1.2,1.69-1.7c1.1-1.04,2.2-2.14,3.31-3.06
					c2.19-1.97,4.45-3.78,6.72-5.52c4.54-3.5,9.34-6.55,14.22-9.39c9.85-5.56,20.55-9.67,31.55-11.98c10.96-2.34,22.24-3,33.01-1.49
					c5.43,0.4,10.61,1.87,15.75,3.12c5.11,1.33,9.91,3.5,14.75,5.22c4.53,1.61,6.9,6.59,5.29,11.12c-1.36,3.83-5.12,6.11-8.99,5.75
					l-1.56-0.15c-4.41-0.4-8.7-1.27-12.99-1.32c-4.29,0.04-8.5-0.18-12.61,0.56c-8.24,0.8-16.02,3.31-23.11,6.77
					c-7.11,3.44-13.6,7.97-19.29,13.36c-2.8,2.76-5.49,5.57-7.87,8.6c-1.2,1.51-2.35,3.02-3.37,4.55c-0.57,0.76-0.97,1.51-1.45,2.25
					c-0.25,0.38-0.43,0.72-0.59,1.04c-0.2,0.35-0.38,0.7-0.24,0.62c-7.23,9.99-21.19,12.23-31.17,5
					C292.68,1583.66,290.45,1569.7,297.67,1559.71z"/>
			</g>
			<g class="st3">
				<path class="st21" d="M848.12,1695.7c-41.17,46.06-93.33,82.22-150.9,104.63c-29.46,11.46-62.15,19.37-92.52,10.56
					s-56.22-39.23-52.45-71.11c-42.97-10.34-81.39-37.15-107.27-72.88c-19.55-26.99-54.93-36.89-85.78-24.27
					c-65.14,26.63-136.89,37.18-206.89,29.76c12.14,32.98,40.18,59.7,73.71,70.24s71.81,4.68,100.64-15.42
					c27.33,93.44,92.02,175.37,176.56,223.64c84.54,48.27,187.98,62.33,281.87,33.82C810.37,1888.51,830.81,1791.08,848.12,1695.7z"
					/>
			</g>
			<g>
				<g>
					<path class="st0" d="M1421.95,2201.74l-565.23-77.65c-38.91-5.35-66.12-41.22-60.77-80.13l45.29-329.65
						c5.35-38.91,41.22-66.12,80.13-60.77l565.23,77.65c38.91,5.35,66.12,41.22,60.77,80.13l-45.29,329.65
						C1496.74,2179.88,1460.86,2207.09,1421.95,2201.74z"/>
				</g>
				<g>
					<path class="st21" d="M1431.68,2224.74c-4.22,0-8.48-0.29-12.77-0.87c0,0,0,0,0,0l-565.23-77.65
						c-24.73-3.4-46.65-16.22-61.73-36.11c-15.08-19.89-21.52-44.46-18.12-69.18l45.29-329.65c3.4-24.73,16.22-46.65,36.1-61.73
						c19.89-15.09,44.45-21.51,69.18-18.12l565.23,77.65c24.73,3.4,46.65,16.22,61.73,36.11c15.08,19.89,21.52,44.45,18.12,69.18
						l-45.29,329.65C1517.78,2190.75,1477.61,2224.74,1431.68,2224.74z M1424.99,2179.63c26.67,3.67,51.32-15.04,54.98-41.69
						l45.29-329.65c3.66-26.66-15.04-51.31-41.7-54.98l-565.23-77.65c-12.91-1.8-25.74,1.58-36.12,9.46s-17.08,19.33-18.85,32.24
						L818.06,2047c-1.77,12.91,1.59,25.74,9.46,36.12c7.88,10.39,19.32,17.08,32.24,18.85L1424.99,2179.63L1424.99,2179.63z"/>
				</g>
				<g>
					<path class="st21" d="M1328.74,2210.58c-4.28,0-8.6-0.29-12.91-0.88h0l-462.15-63.49c-24.73-3.4-46.65-16.22-61.73-36.11
						c-15.08-19.89-21.52-44.46-18.12-69.18l45.29-329.65c3.4-24.73,16.22-46.65,36.1-61.73c19.89-15.09,44.45-21.51,69.18-18.12
						l462.15,63.49c24.72,3.4,46.65,16.22,61.73,36.11c15.08,19.88,21.52,44.45,18.12,69.18l-45.29,329.65
						c-3.4,24.73-16.22,46.65-36.11,61.73C1368.59,2204.03,1348.99,2210.58,1328.74,2210.58z M911.58,1675.19
						c-10.57,0-20.81,3.42-29.38,9.92c-10.38,7.88-17.08,19.33-18.85,32.24L818.06,2047c-1.77,12.91,1.59,25.74,9.46,36.12
						c7.88,10.39,19.32,17.08,32.24,18.85l462.15,63.49l0,0c12.9,1.78,25.74-1.59,36.12-9.46c10.38-7.88,17.08-19.32,18.85-32.23
						l45.29-329.65c1.77-12.92-1.59-25.74-9.46-36.13c-7.88-10.38-19.32-17.08-32.23-18.85l-462.15-63.49
						C916.07,1675.34,913.82,1675.19,911.58,1675.19z"/>
				</g>
				<g>
					<circle class="st60" cx="1267.23" cy="1895.1" r="76.54"/>
				</g>
				<g class="st61">
					<path class="st0" d="M1274.52,1861.38c30.17,0,56.18,17.5,68.65,42.86c0.36-3,0.6-6.04,0.6-9.14
						c0-42.27-34.27-76.54-76.54-76.54c-42.27,0-76.54,34.27-76.54,76.54c0,12.1,2.89,23.51,7.89,33.68
						C1203.1,1890.83,1235.35,1861.38,1274.52,1861.38z"/>
				</g>
				<g>
					<path class="st21" d="M1267.23,1993.97c-54.51,0-98.86-44.35-98.86-98.87s44.35-98.87,98.86-98.87
						c54.52,0,98.87,44.35,98.87,98.87S1321.75,1993.97,1267.23,1993.97z M1267.23,1840.88c-29.9,0-54.22,24.32-54.22,54.22
						s24.32,54.22,54.22,54.22s54.22-24.32,54.22-54.22S1297.12,1840.88,1267.23,1840.88z"/>
				</g>
				<g>
					<path class="st21" d="M1064.7,2162.17c-0.89,0-1.78-0.05-2.69-0.16c-12.24-1.47-20.97-12.59-19.5-24.83l17.39-144.79
						c1.76-14.69-3.89-29.2-15.12-38.83l-33.6-28.82c-22.36-19.17-33.75-48.1-30.46-77.37l20.45-182.31
						c1.37-12.25,12.41-21.06,24.67-19.69c12.25,1.37,21.07,12.42,19.7,24.68l-20.45,182.31c-1.64,14.57,4.03,28.96,15.16,38.49
						l33.61,28.82c22.57,19.36,33.93,48.53,30.38,78.05l-17.39,144.79C1085.48,2153.84,1075.84,2162.17,1064.7,2162.17z"/>
				</g>
			</g>
			<g class="st3">
				<path class="st21" d="M1539.99,1758.76c-13.52,50.48-4.94,103.92-7.02,156.14c-2.08,52.22-19.56,109.99-65.84,134.29
					c-31.92,16.76-70.18,13.7-106.04,10.07c-182.49-18.49-364.59-40.89-546.12-67.2c-28.12,31.28-13.1,84.58,19.71,110.9
					c32.8,26.32,76.76,32.88,118.44,38.5c143.13,19.3,286.27,38.59,429.4,57.89c24.96,3.37,52.03,6.35,73.88-6.17
					c24.74-14.18,35.36-43.85,43.08-71.31C1532.8,2003.39,1547.88,1879.8,1539.99,1758.76z"/>
			</g>
			<g class="st3">
				<path class="st21" d="M2301.67,1753.58c0.61,35.91-21.84,71.18-54.64,85.82c-32.8,14.64-74.04,7.81-100.37-16.63
					c-13.37-12.41-23.2-31.87-16.23-48.72c5.25-12.7,18.41-20.14,31.19-25.2C2207.19,1730.78,2259.84,1731.38,2301.67,1753.58z"/>
			</g>
			<g>
				<g>
					<path class="st0" d="M2069.26,641.99c0,0,157.95,77,171.99,108.83c26.04,59.01-9.95,388.54-104.06,466.71
						c-36.85,30.61-287.84,39.39-287.84,39.39L2069.26,641.99z"/>
				</g>
				<g>
					<path class="st62" d="M1849.35,1256.93c0,0,250.99-8.8,287.82-39.42c36.73-30.49,64.65-99.35,83.39-175.44
						c-2.97,2.22-97.52,69.83-258.26-99.89c-0.08-0.1-0.21-0.2-0.29-0.3L1849.35,1256.93z"/>
				</g>
				<g>
					<polygon class="st63" points="1328.44,921.59 1328.18,924.4 1326.52,922.86 					"/>
				</g>
				<g>
					<polygon class="st63" points="1326.52,922.86 1324.6,924.07 1324.85,921.26 					"/>
				</g>
				<g>
					<path class="st0" d="M760.15,1157.28c0,0-245.22-54.2-275.89-90.99c-30.59-36.65-45.54-109.43-50.17-187.66
						c-0.04-0.05-0.04-0.05-0.04-0.05c-7.27-122.11,10.43-257.61,32.57-290.11c19.58-28.75,188.88-75.84,188.88-75.84l51.04,314.39
						L760.15,1157.28z"/>
				</g>
				<g>
					<path class="st63" d="M760.15,1157.28c0,0-245.22-54.2-275.89-90.99c-30.59-36.65-45.54-109.43-50.17-187.66
						c2.52,2.72,83.23,86.37,272.1-51.37c0.1-0.08,0.24-0.16,0.34-0.24L760.15,1157.28z"/>
				</g>
				<g>
					<path class="st21" d="M1849.35,1279.24c-7.11,0-13.81-3.39-18.02-9.15c-4.37-5.97-5.49-13.72-3-20.69l219.9-614.93
						c2.14-5.98,6.72-10.76,12.6-13.16c5.88-2.4,12.5-2.17,18.21,0.61c49.7,24.23,166.98,84.41,182.63,119.89
						c29.15,66.06-6.53,406.77-110.22,492.89c-39.64,32.92-240.65,42.41-301.32,44.53
						C1849.87,1279.24,1849.61,1279.24,1849.35,1279.24z M2081.81,673.19l-200.27,560.02c108.66-5.37,224.03-18.44,241.39-32.86
						c36.22-30.09,69.62-115.03,89.36-227.23c19.09-108.53,17.22-193.61,8.54-213.29C2212.79,745.76,2146.34,706.07,2081.81,673.19z
						"/>
				</g>
				<g>
					<path class="st21" d="M760.17,1179.59c-1.6,0-3.22-0.17-4.82-0.52c-59.27-13.1-255.23-58.91-288.23-98.47
						c-86.34-103.51-59.6-445.03-18.95-504.71c21.83-32.05,148.09-69.95,201.35-84.76c6.11-1.71,12.66-0.72,18.01,2.71
						s8.98,8.96,10,15.22l104.67,644.63c1.19,7.3-1.32,14.72-6.7,19.8C771.32,1177.45,765.81,1179.59,760.17,1179.59z M637.5,541.05
						c-69.43,20.62-142,47.63-152.64,60.26c-11.91,17.5-29.18,100.82-30.1,211.02c-0.95,113.92,16.48,203.52,46.64,239.68
						c14.45,17.32,125.53,51.12,231.41,76.12L637.5,541.05z"/>
				</g>
				<g>
					<circle class="st0" cx="1343.39" cy="784.16" r="761.79"/>
				</g>
				<g>
					<path class="st63" d="M2102.03,853.55c-38.33,418.98-409.05,727.55-828.03,689.22c-418.98-38.33-727.6-409.05-689.26-828.03
						c4.05-44.24,11.79-87.27,22.97-128.73c28.87,362.78,315.3,662.94,690.04,697.22c374.74,34.29,710.83-208.92,805.06-560.44
						C2106.27,765.59,2106.08,809.32,2102.03,853.55z"/>
				</g>
				<g>
					<path class="st21" d="M1343.97,1564.29c-23.72,0-47.58-1.08-71.66-3.28c-428.35-39.19-744.96-419.57-705.77-847.92
						C605.74,284.73,986.1-31.93,1414.47,7.32c428.35,39.19,744.96,419.56,705.77,847.92l0,0
						C2083.25,1259.51,1742.29,1564.29,1343.97,1564.29z M1342.83,40.63c-379.66,0-704.59,290.45-739.85,675.79
						c-37.35,408.26,264.4,770.79,672.67,808.14c408.24,37.34,770.79-264.4,808.14-672.67l18.22,1.67l-18.22-1.67
						c37.35-408.26-264.41-770.79-672.67-808.14C1388.21,41.66,1365.42,40.63,1342.83,40.63z"/>
				</g>
				<g>
					<path class="st21" d="M1343.97,1564.29c-23.72,0-47.58-1.08-71.66-3.28c-428.35-39.19-744.96-419.57-705.77-847.92
						C605.74,284.73,986.1-31.93,1414.47,7.32c428.35,39.19,744.96,419.56,705.77,847.92l0,0
						C2083.25,1259.51,1742.29,1564.29,1343.97,1564.29z M1342.83,40.63c-379.66,0-704.59,290.45-739.85,675.79
						c-37.35,408.26,264.4,770.79,672.67,808.14c408.24,37.34,770.79-264.4,808.14-672.67l18.22,1.67l-18.22-1.67
						c37.35-408.26-264.41-770.79-672.67-808.14C1388.21,41.66,1365.42,40.63,1342.83,40.63z"/>
				</g>
				<g>
					<path class="st21" d="M1343.97,1564.29c-23.72,0-47.58-1.08-71.66-3.28c-428.35-39.19-744.96-419.57-705.77-847.92
						C605.74,284.73,986.1-31.93,1414.47,7.32c428.35,39.19,744.96,419.56,705.77,847.92l0,0
						C2083.25,1259.51,1742.29,1564.29,1343.97,1564.29z M1342.83,40.63c-379.66,0-704.59,290.45-739.85,675.79
						c-37.35,408.26,264.4,770.79,672.67,808.14c408.24,37.34,770.79-264.4,808.14-672.67l18.22,1.67l-18.22-1.67
						c37.35-408.26-264.41-770.79-672.67-808.14C1388.21,41.66,1365.42,40.63,1342.83,40.63z"/>
				</g>
				<g>
					<path class="st21" d="M1343.91,1568.29c-23.86,0-47.85-1.08-71.98-3.29c-355.74-32.55-644.31-300.88-702.25-652.77
						c-0.11-0.49-0.21-0.98-0.29-1.48c-10.63-64.93-12.94-131.55-6.86-198.03c2.7-29.46,7.05-58.74,12.93-87.01
						c80.13-391.24,441.02-658.83,839.35-622.39c398.49,36.46,704.81,365.19,712.53,764.66c0.6,28.96-0.45,58.45-3.12,87.63l0,0
						c-6.07,66.37-20.41,131.47-42.6,193.49c-0.17,0.48-0.36,0.96-0.57,1.43C1968.35,1363.28,1671.75,1568.28,1343.91,1568.29z
						 M613.56,903.88c54.22,332.37,326.59,585.93,662.44,616.66c335.79,30.72,649.68-169.17,763.4-486.15
						c0.2-0.57,0.42-1.14,0.66-1.69c20.66-58.07,34.01-119.02,39.7-181.16l0,0c2.52-27.53,3.51-55.34,2.95-82.67
						c-7.28-376.71-296.16-686.7-671.96-721.08C1035.07,13.4,694.76,265.74,619.19,634.73c-5.55,26.69-9.65,54.27-12.19,82.05
						c-5.69,62.24-3.6,124.6,6.23,185.36C613.36,902.72,613.47,903.3,613.56,903.88z M2101.99,853.56h0.05H2101.99z"/>
				</g>
				<g>
					<path class="st21" d="M2093.78,670.49c-7.75,0-14.88-4.95-17.39-12.62c-94.38-289.17-358.77-494.64-673.56-523.44
						c-314.58-28.75-611.8,125.14-757.19,392.13c-4.59,8.44-14.92,11.88-23.65,7.9c-8.74-3.98-12.91-14.03-9.56-23.03
						C734.76,182.59,1064.6-24.74,1414.46,7.3c350.11,32.03,636.87,295.92,697.35,641.74c1.65,9.46-4.28,18.58-13.6,20.91
						C2096.73,670.31,2095.24,670.49,2093.78,670.49z M1327.73,94.4c25.99,0,52.13,1.18,78.43,3.59
						c236.43,21.63,445.73,138.67,581.61,315.11C1869.49,208.3,1656.65,66.2,1411.13,43.74
						c-245.41-22.44-480.46,78.61-633.95,258.45C924.4,169.99,1120.13,94.4,1327.73,94.4z"/>
				</g>
				<g>
					<path class="st21" d="M2101.97,853.58c-6.01,65.66-20.16,128.69-41.39,188c0,0-0.07-0.01-0.08,0.06
						c-154.86,242.22-454.37,435.42-777.83,405.82c-323.46-29.59-582.87-273.93-691.21-540.23c0.01-0.07-0.06-0.08-0.06-0.08
						c-10.18-62.18-12.67-126.73-6.66-192.39c2.63-28.71,6.82-56.92,12.55-84.5c128.25-273.81,445.77-451.36,798.48-419.09
						c352.78,32.28,632.87,264.65,709.23,557.24C2105.58,796.51,2104.59,824.94,2101.97,853.58z"/>
				</g>
				<g class="st10">
					<path class="st64" d="M2102,853.6c-6.01,65.66-20.16,128.69-41.39,188c0,0-0.07-0.01-0.08,0.06
						c-154.86,242.22-454.37,435.4-777.83,405.81c-323.45-29.59-582.87-273.92-691.21-540.21c0.01-0.07-0.06-0.08-0.06-0.08
						c-6.05-37.05-9.37-74.9-9.83-113.4c152.6,206.65,387.2,368.3,662.54,393.49c350.77,32.09,676.91-165.58,859.84-422.64
						c0.37,1.29,0.75,2.52,1.05,3.8C2105.61,796.53,2104.62,824.97,2102,853.6z"/>
				</g>
				<g>
					<path class="st21" d="M1348.18,1468.74c-22.45,0-44.85-1.02-67.18-3.06c-155.64-14.24-306.5-78.37-436.25-185.46
						c-117.5-96.98-213.31-226.62-269.86-365.17c-0.73-1.54-1.26-3.19-1.55-4.94c-10.58-64.6-12.87-130.89-6.82-197.01
						c2.68-29.3,7-58.43,12.86-86.56c0.29-1.39,0.74-2.75,1.34-4.03c65.41-139.65,177.1-254.7,323.01-332.7
						c148.39-79.34,319.11-112.84,493.71-96.85c174.63,15.97,336.46,79.92,468.02,184.92c129.34,103.24,218.3,236.69,257.24,385.93
						c0.36,1.39,0.56,2.81,0.59,4.24c0.59,28.84-0.45,58.18-3.11,87.2c-6.04,66.02-20.3,130.79-42.38,192.49
						c-0.6,1.67-1.42,3.22-2.43,4.6c-80.75,125.97-198.51,236.09-331.67,310.13C1617.74,1432.51,1482.27,1468.74,1348.18,1468.74z
						 M609.11,902.04c98.7,240.98,345.41,497.03,675.23,527.2c329.82,30.14,618.95-176.85,759.75-395.91
						c20.62-58.18,33.97-119.21,39.66-181.42l0,0c2.46-26.95,3.47-54.17,3.01-80.96c-77.57-293.2-355.62-510.72-692.64-541.56
						c-336.94-30.81-649.82,132.54-779.33,406.7c-5.35,26.13-9.33,53.14-11.81,80.34C597.26,778.74,599.33,841.18,609.11,902.04z"/>
				</g>
				<g class="st11">
					
						<ellipse transform="matrix(0.2476 -0.9689 0.9689 0.2476 624.348 2452.2085)" class="st0" cx="1891.09" cy="824.1" rx="133.81" ry="96.96"/>
				</g>
				<g class="st11">
					
						<ellipse transform="matrix(0.3791 -0.9253 0.9253 0.3791 89.4488 2293.4541)" class="st0" cx="1753.81" cy="1080.07" rx="61.42" ry="52.7"/>
				</g>
				<g class="st11">
					<path class="st0" d="M732.73,957.15c0,0-93.41-393.23,124.79-531.77s516.39-116.71,508.06-98.08c0,0-335.86,56.45-483.6,308.29
						C768.04,829.78,732.73,957.15,732.73,957.15z"/>
				</g>
			</g>
		</g>
	</g>
</g>
</svg>
