<?xml version="1.0" encoding="utf-8"?>
<!-- Generator: Adobe Illustrator 28.0.0, SVG Export Plug-In . SVG Version: 6.00 Build 0)  -->
<svg version="1.1" id="Layer_1" xmlns="http://www.w3.org/2000/svg" xmlns:xlink="http://www.w3.org/1999/xlink" x="0px" y="0px"
	 viewBox="0 0 2925.83 2957.22" style="enable-background:new 0 0 2925.83 2957.22;" xml:space="preserve">
<style type="text/css">
	.st0{fill:#FFAB24;}
	.st1{fill:#FFFFFF;}
	.st2{fill:#7BA2FF;}
	.st3{fill:#808080;}
	.st4{fill:#01026C;}
	.st5{fill:#E0E0E0;}
	.st6{opacity:0.3;}
	.st7{opacity:0.6;}
	.st8{fill:#39D4FF;}
	.st9{fill:none;stroke:#01026C;stroke-width:29.067;stroke-linecap:round;stroke-linejoin:round;stroke-miterlimit:10;}
	.st10{opacity:0.2;}
	.st11{fill:#FEC92A;}
	.st12{fill:#FFB3B5;}
	.st13{fill:#FFEB52;}
	.st14{fill:#FC4F8B;}
	.st15{opacity:0.5;}
	.st16{fill:#010165;}
	.st17{fill:#FEBE50;}
	.st18{fill:#06035F;}
	.st19{fill:#FF3347;}
	.st20{fill:none;stroke:#06035F;stroke-width:38.1466;stroke-linecap:round;stroke-linejoin:round;stroke-miterlimit:10;}
	.st21{fill:#7B7BA8;}
	.st22{fill:#16B768;}
	.st23{fill:#AD5833;}
	.st24{opacity:0.4;}
	.st25{fill:url(#SVGID_1_);}
	.st26{fill:#484F72;}
	.st27{fill:url(#SVGID_00000052797519503332038780000007554050248827651201_);}
	.st28{fill:#73C6FF;}
	.st29{opacity:0.7;}
	.st30{fill:url(#SVGID_00000127030337561859822800000015244421894653226390_);}
	.st31{fill:none;stroke:#06035F;stroke-width:40;stroke-linecap:round;stroke-linejoin:round;stroke-miterlimit:10;}
	.st32{fill:#FBB987;}
	.st33{fill:url(#SVGID_00000143582184047996423400000010935461153318876065_);}
	.st34{fill:#3C62B5;}
	.st35{fill:url(#SVGID_00000062157080328570100910000009512032208655056777_);}
	.st36{fill:url(#SVGID_00000039838726481824911730000015538073392549176223_);}
	.st37{fill:#000072;}
	.st38{fill:#FF0068;}
	.st39{fill:#FFC127;}
	.st40{fill:#000172;}
	.st41{fill:#FFF1D2;}
	.st42{fill:none;stroke:#000172;stroke-width:44.7939;stroke-miterlimit:10;}
	.st43{fill:none;stroke:#000172;stroke-width:4.4794;stroke-linecap:round;stroke-linejoin:round;stroke-miterlimit:10;}
	.st44{opacity:0.35;}
	.st45{fill:#FFA502;}
	.st46{opacity:0.47;}
	.st47{fill:#C0C7CE;}
	.st48{fill:#09CBFF;}
	.st49{opacity:0.25;}
	.st50{fill:#73738E;}
	.st51{fill:#4A4A60;}
	.st52{fill:#504564;}
	.st53{fill:#EECC13;}
	.st54{fill:#62ED2E;}
	.st55{fill:#371A45;}
	.st56{fill:#111A28;}
	.st57{fill:none;}
	.st58{fill:none;stroke:#FFFFFF;stroke-width:27.4571;stroke-linecap:round;stroke-miterlimit:10;}
	.st59{fill:#D8D8D8;}
	.st60{fill:#22A7F0;}
	.st61{fill:#1C7AEA;}
	.st62{fill:#220F2D;}
	.st63{fill:#FFD243;}
	.st64{fill:#FCAC38;}
	.st65{fill:#FFB200;}
	.st66{fill:#FF9100;}
	.st67{fill:none;stroke:#293856;stroke-width:61.9427;stroke-linecap:round;stroke-miterlimit:10;}
	.st68{fill:#D66B09;}
	.st69{opacity:0.41;}
	.st70{fill:#FFD766;}
	.st71{fill:#FFAA39;}
	.st72{fill:#FFCF6E;}
	.st73{fill:#FFEC90;}
	.st74{fill:#F70200;}
	.st75{fill:none;stroke:#371A45;stroke-width:38.552;stroke-linecap:round;stroke-linejoin:round;stroke-miterlimit:10;}
	.st76{fill:#FEBB92;}
	.st77{fill:#F53B6B;}
	.st78{fill:#555176;}
	.st79{fill:#E7A900;}
	.st80{fill:#E81818;}
	.st81{fill:#FFFD01;}
	.st82{fill:#E2E8E8;}
	.st83{fill:#E5E5E5;}
	.st84{fill:#C93535;}
	.st85{fill:#D1D1D1;}
	.st86{opacity:0.7;fill:url(#SVGID_00000088124648727821714610000006028106934010393773_);}
	.st87{opacity:0.7;fill:url(#SVGID_00000153689202788960628200000009253817507172320161_);}
	.st88{fill:#FFA52D;}
	.st89{fill:#650000;}
	.st90{fill:#FFBC02;}
	.st91{fill:#FF8806;}
	.st92{fill:#FC2E04;}
	.st93{fill:#5AD55C;}
	.st94{fill:#5A577F;}
</style>
<g>
	<g>
		<g>
			<g>
				<g>
					<g>
						<path class="st65" d="M2322.24,1563.09c16.11,38.49,29.61,77.45,40.55,116.65c-164.68,125.62-487.88,298.83-872.65,459.83
							c-384.73,160.99-735.01,269.58-940.08,298.68c-20.24-35.31-38.5-72.27-54.61-110.77c-0.76-1.81-1.5-3.59-2.22-5.41
							c-7.03-17-13.51-34.07-19.48-51.23c-14.05-40.15-25.32-80.67-33.95-121.33c-0.36-1.65-0.71-3.29-1.03-4.95
							c-12.49-60.46-19.12-121.19-20.18-181.55c-2.02-114.83,16.11-228.16,52.35-335.13c88-259.7,282.83-481.81,555.7-595.99
							c270.63-113.24,563.03-97.3,808.5,19.73c100.79,48,193.67,113.09,273.9,193.23c42.92,42.84,82.2,90.04,117.14,141.23
							c2.85,4.11,5.62,8.25,8.38,12.44c22.9,34.69,43.84,71.16,62.57,109.35c6.97,14.15,13.62,28.56,19.95,43.19
							C2318.83,1555.05,2320.54,1559.05,2322.24,1563.09z"/>
					</g>
				</g>
				<g>
					<g>
						<path class="st66" d="M2392.07,2063.08c-4.86,40.26-12.15,80.07-21.88,119.24c-13.56,55.04-31.89,108.78-54.61,160.6
							c-98.52,224.79-280.28,413.52-524.56,515.73c-244.82,102.44-507.46,99.17-737.05,11c-50.42-19.38-99.26-42.84-145.92-70.18
							c-36.62-21.4-71.87-45.21-105.59-71.24c244.49-54.15,527.86-144.64,821.97-267.7
							C1918.51,2337.48,2181.88,2199.19,2392.07,2063.08z"/>
					</g>
				</g>
				<g>
					<g>
						<path class="st66" d="M2362.77,1679.72c-164.65,125.61-487.88,298.85-872.63,459.84
							c-384.75,160.99-735.06,269.59-940.13,298.7c-20.19-35.35-38.45-72.3-54.61-110.79c-0.76-1.82-1.46-3.58-2.22-5.4
							c-7-17.04-13.5-34.08-19.44-51.23c-14.04-40.13-25.32-80.65-33.98-121.34c-0.35-1.65-0.7-3.3-0.99-4.94
							c-12.48-60.48-19.13-121.21-20.22-181.56c-1.98-114.81,16.15-228.15,52.37-335.16c71.2-210.04,212.17-395.42,407.91-519.05
							c-250.66,227.12-463.16,956.18,224.88,1042.34c414.94,51.96,1129.9-420.28,1249.46-500.72
							C2363.07,1676.89,2355.26,1652.93,2362.77,1679.72z"/>
					</g>
				</g>
				<g>
					<g>
						<path class="st66" d="M2197.88,1330.93c-3.78,11.29-8.18,22.32-13.3,33.07l10.57-16.91c-0.13,23.08-9.86,44.02-25.05,61.14
							c-17.62,19.85-42.51,34.62-68.27,41.59c-47.96,13.01-98.74,5.83-148.3,1.93c-17.75-1.38-35.54-2.35-53.29-2.98
							c-105.28-3.73-210.95,4.11-316.4,2.56c-2.18-0.04-4.36-0.08-6.59-0.13c-83.63-1.55-168.61-9.74-248.25-33.57
							c-35.75-10.7-70.41-24.55-103.44-42.34c-33.91-18.25-65.5-40.45-97.14-62.44c-31.98-22.28-64.03-44.4-98.57-62.23
							c-29.16-15.06-60.01-26.77-91.77-35.12c-27.19-7.18-55.01-11.83-83.09-13.97c-23.62-1.8-47.38-1.8-70.96,0.04
							c0.13-0.08,0.25-0.21,0.38-0.29c4.74-4.11,9.44-8.22,14.18-12.29c4.15-3.52,8.31-6.97,12.51-10.45
							c0.67-0.5,1.26-1.05,1.93-1.55c4.87-3.99,9.74-7.89,14.69-11.75c3.57-2.85,7.22-5.67,10.83-8.39
							c1.97-1.55,4.03-3.11,6.04-4.57c4.36-3.27,8.69-6.5,13.09-9.69c5.08-3.69,10.15-7.34,15.32-10.91l0.04-0.04
							c4.62-3.23,9.23-6.42,13.93-9.57c0.97-0.63,1.85-1.26,2.77-1.85c4.41-2.94,8.85-5.92,13.39-8.81c0.34-0.21,0.76-0.5,1.13-0.71
							c5.29-3.4,10.57-6.71,15.95-9.99c5.33-3.32,10.74-6.55,16.11-9.74c5.04-3.02,10.16-5.96,15.23-8.81
							c1.18-0.67,2.35-1.34,3.57-2.01c4.28-2.43,8.69-4.83,13.05-7.22c0.63-0.29,1.34-0.67,2.06-1.05c0.59-0.34,1.13-0.59,1.72-0.92
							c3.61-1.97,7.26-3.9,10.95-5.79c2.39-1.3,4.87-2.52,7.39-3.78c3.4-1.76,6.76-3.44,10.2-5.12c4.2-2.1,8.39-4.11,12.55-6.13
							c0.42-0.21,0.8-0.38,1.22-0.59c2.27-1.13,4.7-2.18,7.13-3.32c6-2.81,12.13-5.54,18.25-8.27c0.04,0,0.04-0.04,0.13-0.04
							c4.11-1.85,8.22-3.65,12.42-5.37c1.51-0.67,3.06-1.3,4.62-1.93c4.91-2.06,9.78-4.07,14.73-6.04c3.23-1.26,6.46-2.6,9.74-3.78
							c2.48-0.97,4.91-1.93,7.34-2.85c1.97-0.76,3.94-1.47,5.96-2.22c0.46-0.17,0.92-0.38,1.38-0.5c4.7-1.76,9.36-3.44,14.06-5.04
							c4.28-1.51,8.6-3.02,12.97-4.45l2.27-0.76c6.34-2.14,12.67-4.15,19.05-6.17c5.71-1.76,11.37-3.44,17.12-5.08
							c2.06-0.63,4.03-1.18,6.04-1.76c0.21-0.04,0.42-0.13,0.63-0.17c0.21-0.08,0.42-0.13,0.63-0.17c0.04,0,0.04,0,0.08-0.04
							c0,0,0,0,0.04,0c0.08-0.04,0.17-0.08,0.25-0.08c0.04,0,0.04,0,0.08,0l0.08,0.04c0.04,0,0.04,0,0.08-0.04
							c3.94-1.17,7.8-2.22,11.75-3.27c5.25-1.43,10.53-2.81,15.78-4.11c0.29-0.04,0.63-0.08,0.92-0.21c1.8-0.42,3.65-0.88,5.5-1.34
							c4.11-1.05,8.18-2.01,12.34-2.9c1.76-0.46,3.44-0.8,5.2-1.17c3.61-0.84,7.22-1.64,10.91-2.35c0.63-0.17,1.3-0.25,1.93-0.42
							c2.9-0.63,5.79-1.22,8.69-1.8l9.82-1.89c3.36-0.67,6.76-1.3,10.11-1.85c8.69-1.59,17.37-3.02,26.18-4.28
							c3.11-0.55,6.17-1.01,9.27-1.39c0.04,0,0.08,0,0.17-0.04c5.46-0.8,10.99-1.51,16.53-2.18c0.34-0.04,0.67-0.08,1.05-0.13
							c6.08-0.76,12.25-1.43,18.46-2.06c4.74-0.55,9.44-1.01,14.14-1.34c0.38-0.04,0.88-0.08,1.26-0.13
							c2.73-0.21,5.41-0.46,8.14-0.67c0.88-0.08,1.68-0.17,2.56-0.17c4.2-0.38,8.35-0.67,12.59-0.92c0.25-0.04,0.46-0.04,0.71-0.04
							c6.55-0.42,13.18-0.76,19.76-1.05c5.71-0.21,11.37-0.42,17.08-0.55c2.69-0.08,5.37-0.13,8.1-0.17
							c4.91-0.08,9.9-0.21,14.81-0.17c6.71-0.04,13.43,0.04,20.14,0.17c6.71,0.08,13.43,0.29,20.18,0.55
							c4.95,0.17,9.78,0.42,14.69,0.67c3.61,0.21,7.18,0.38,10.7,0.63c3.4,0.21,6.8,0.46,10.24,0.71c3.99,0.25,7.97,0.59,11.92,0.97
							l4.36,0.34c7.93,0.71,15.86,1.51,23.75,2.48c3.23,0.34,6.5,0.76,9.74,1.09c3.23,0.42,6.46,0.84,9.61,1.3
							c10.11,1.3,20.1,2.85,30.09,4.53c3.86,0.59,7.68,1.26,11.54,1.97c0.63,0.08,1.22,0.17,1.8,0.29
							c3.65,0.67,7.34,1.34,11.04,2.06c8.1,1.51,16.16,3.15,24.17,4.99c8.06,1.72,16.03,3.57,23.96,5.54
							c3.94,0.97,7.89,1.97,11.88,2.98c10.32,2.64,20.56,5.5,30.67,8.48c4.07,1.13,8.14,2.39,12.17,3.65
							c0.8,0.21,1.64,0.46,2.43,0.71c0.04,0,0.08,0.04,0.08,0.04l0.17,0.08c0.04,0,0.08,0.04,0.13,0.04
							c0.42,0.13,0.88,0.25,1.3,0.38c15.48,4.87,30.84,10.03,45.95,15.57c0.25,0.13,0.46,0.21,0.71,0.25
							c3.9,1.51,7.93,2.98,11.88,4.45c7.05,2.77,14.14,5.54,21.15,8.39c1.09,0.46,2.22,0.92,3.31,1.34
							c3.52,1.55,7.13,3.02,10.66,4.53c3.86,1.64,7.72,3.36,11.54,5.08c3.82,1.72,7.68,3.4,11.5,5.2c3.82,1.68,7.64,3.44,11.37,5.29
							c7.6,3.57,15.15,7.3,22.58,11.04c3.78,1.89,7.47,3.82,11.2,5.75c3.52,1.89,7.05,3.73,10.53,5.58
							c3.78,2.1,7.55,4.15,11.29,6.21c0.04,0.04,0.08,0.04,0.13,0.08l0.13,0.04c22.07,12.25,43.56,25.26,64.5,39.15
							c3.36,2.22,6.63,4.36,9.9,6.63c3.06,2.06,6.04,4.11,9.02,6.21c3.57,2.43,7.01,4.91,10.45,7.34c3.19,2.31,6.42,4.57,9.61,6.97
							c9.61,6.97,19.01,14.14,28.28,21.53c2.06,1.64,4.15,3.27,6.21,4.91c5.75,4.57,11.37,9.23,16.95,13.97
							c3.06,2.56,6.08,5.08,9.02,7.68c3.4,2.85,6.63,5.71,9.95,8.6c0.04,0.08,0.04,0.08,0.08,0.13h0.04
							c0.04,0.08,0.04,0.08,0.08,0.08c6.59,5.83,13.09,11.71,19.47,17.71c6.42,6,12.76,12.04,19.01,18.21
							c8.39,8.18,16.58,16.57,24.63,25.05c4.07,4.28,8.1,8.6,11.96,12.92c3.78,4.07,7.51,8.22,11.16,12.42
							c4.24,4.74,8.39,9.57,12.5,14.43c2.6,3.02,5.2,6.13,7.81,9.27c2.31,2.77,4.57,5.58,6.84,8.39
							C2200.23,1323.63,2199.06,1327.32,2197.88,1330.93z"/>
					</g>
				</g>
				<g>
					<g>
						<path class="st68" d="M1624.43,2460.53c294.07-123.05,557.44-261.34,767.64-397.45c-4.86,40.26-12.15,80.07-21.88,119.24
							c-161.93,110.74-419.46,245.83-718.44,370.93c-286.37,119.83-552.58,206.14-743.71,246.22
							c-36.62-21.4-71.87-45.21-105.59-71.24C1046.96,2674.09,1330.33,2583.6,1624.43,2460.53z"/>
					</g>
				</g>
				<g>
					<g>
						<path class="st68" d="M2317.08,1551.06c1.75,3.98,3.46,7.98,5.16,12.03c16.11,38.49,29.61,77.45,40.55,116.65
							c-164.68,125.62-487.88,298.83-872.65,459.83c-384.73,160.99-735.01,269.58-940.08,298.68
							c-20.24-35.31-38.5-72.27-54.61-110.77c-0.76-1.81-1.5-3.59-2.22-5.41c194.12-15.88,550.51-120.44,942.74-284.56
							C1843.66,1866.92,2178.4,1678.7,2317.08,1551.06z"/>
					</g>
				</g>
				<g>
					<g>
						<g>
							<path class="st68" d="M415.91,1996.28l5.35-66.53c134.68,10.83,490.69-91.22,865.75-248.16
								c447.45-187.23,738.23-370.7,794.2-455.17l55.64,36.87c-74.06,111.76-405.23,304.6-824.07,479.86
								C922.81,1906.34,562.4,2008.06,415.91,1996.28z"/>
						</g>
					</g>
				</g>
				<g>
					<g>
						<g>
							<path class="st68" d="M474.9,1661.02l-7.93-66.27c152.35-18.22,417.97-101.08,693.21-216.25
								c288.41-120.68,538.8-255.71,653.44-352.39l43.03,51.03c-119.47,100.75-376.47,239.81-670.7,362.93
								C905.41,1557.46,632.94,1642.12,474.9,1661.02z"/>
						</g>
					</g>
				</g>
				<g>
					<g>
						<g>
							<path class="st68" d="M437.64,2177.92l2.23-66.71c154.78,5.15,522.69-101.82,915.52-266.2
								c412.05-172.42,759.28-369.55,844.4-479.37l52.76,40.88c-92.92,119.89-443.11,320.85-871.39,500.06
								C974.04,2076.95,603.68,2183.45,437.64,2177.92z"/>
						</g>
					</g>
				</g>
				<g>
					<g>
						<g>
							<path class="st68" d="M1054.69,2886.33l-0.72-16.62l-7.35-15.03l3.12-1.52l3.51-0.17c134.13-5.83,391.69-81.1,656.16-191.76
								c265.93-111.28,493.88-237.95,594.9-330.6l22.56,24.59c-103.67,95.08-335.33,224.13-604.57,336.79
								C1450.38,2805.79,1194.57,2880.25,1054.69,2886.33z"/>
						</g>
					</g>
				</g>
				<g>
					<g>
						<path class="st55" d="M1409.52,2957.22c-221.06,0-440.27-72.13-620.57-211.5l-37.31-28.84l46.04-10.2
							c251.97-55.81,534.91-147.97,818.22-266.52c283.3-118.54,547.54-255.35,764.16-395.62l39.58-25.62l-5.65,46.81
							c-43.57,361.3-279.02,672.94-614.45,813.3C1674.16,2931.5,1541.5,2957.22,1409.52,2957.22z M854.44,2739.02
							c270.78,188.74,621.98,227.34,928.06,99.26c306.1-128.08,525.13-405.29,580.77-730.62
							c-210.78,132.52-462.15,261.04-730.31,373.25C1364.8,2593.12,1096.77,2681.93,854.44,2739.02z"/>
					</g>
				</g>
				<g class="st69">
					<g>
						<g>
							<path class="st1" d="M2362.94,1683.13c-19.17,14.63-40.44,29.86-63.77,45.69c-8.49-26.3-18.17-52.49-28.99-78.4
								c-1.72-4.04-3.44-8.02-5.16-12c-6.31-14.67-12.96-29.07-19.95-43.21c-18.73-38.19-39.7-74.68-62.56-109.38
								c-2.75-4.17-5.56-8.28-8.38-12.4c-34.93-51.2-74.23-98.44-117.18-141.26c-80.23-80.12-173.07-145.23-273.86-193.19
								c-245.51-117.03-537.9-133.02-808.53-19.75c-180.66,75.6-327.14,198.55-431.03,348.41
								c104.19-187.71,269.84-343.05,483.3-432.37c270.62-113.21,563.02-97.28,808.47,19.75
								c100.78,48.02,193.69,113.08,273.91,193.26c42.88,42.81,82.2,89.99,117.13,141.19c2.88,4.12,5.63,8.29,8.37,12.46
								c22.92,34.7,43.84,71.13,62.57,109.31c6.98,14.2,13.63,28.6,19.95,43.21c1.78,3.99,3.51,7.97,5.15,12.06
								C2338.48,1604.99,2351.98,1643.94,2362.94,1683.13z"/>
						</g>
					</g>
				</g>
				<g>
					<g>
						<path class="st55" d="M538.34,2462.23l-7.44-12.98c-20.75-36.2-39.53-74.29-55.83-113.23c-8-19.12-15.46-38.59-22.18-57.91
							c-14.14-40.42-25.82-82.15-34.7-124.01c-100.55-474.53,151.76-955.05,599.93-1142.58
							c448.17-187.51,967.5-29.89,1234.87,374.83c23.59,35.73,45.11,73.34,63.97,111.8c9.01,18.28,17.64,37.27,25.65,56.42h0
							c16.29,38.95,30.24,79.06,41.45,119.24l4.02,14.41l-11.9,9.08c-173.58,132.41-501.62,305.36-877.52,462.65
							c-375.91,157.29-729.37,269.51-945.51,300.17L538.34,2462.23z M1408.47,977.18c-125.23,0-251.98,24.32-373.31,75.09
							c-428.61,179.35-669.92,638.88-573.77,1092.67c8.49,40.03,19.66,79.94,33.19,118.62c6.44,18.49,13.58,37.12,21.23,55.41
							c13.64,32.59,29.09,64.55,46.03,95.21c211.26-32.84,561.26-144.96,919.77-294.98c358.5-150,684.05-320.55,855.75-447.97
							c-9.94-33.58-21.86-67.02-35.5-99.61c-7.66-18.32-15.92-36.47-24.55-53.98c-18.05-36.81-38.64-72.78-61.19-106.95
							C2032.82,1133.22,1725.62,977.18,1408.47,977.18z"/>
					</g>
				</g>
				<g>
					<g>
						<g>
							<path class="st70" d="M2894.61,1475.65c55.99,133.81-147.5,357.54-502.53,587.43c-210.2,136.11-473.57,274.4-767.64,397.45
								c-294.11,123.07-577.48,213.55-821.97,267.7c-412.95,91.46-715.11,79.31-771.1-54.5
								c-50.85-121.52,112.25-317.13,408.42-524.22c8.63,40.66,19.91,81.18,33.95,121.33c-82.05,63.29-123.02,114.19-110.16,144.91
								c13.09,31.29,80.34,37.53,186.47,22.5c205.07-29.1,555.35-137.69,940.08-298.68c384.77-161,707.97-334.22,872.65-459.83
								c85.17-65.02,127.94-117.3,114.84-148.58c-12.84-30.68-77.86-37.28-180.5-23.29c-18.73-38.19-39.67-74.66-62.57-109.35
								C2589.95,1332.98,2843.76,1354.13,2894.61,1475.65z"/>
						</g>
					</g>
					<g>
						<g>
							<path class="st71" d="M468.18,2254.6c1.83,5.43,3.66,10.86,5.59,16.3c-82.08,63.26-123.08,114.11-110.21,144.84
								c13.14,31.36,80.44,37.58,186.5,22.51c136-19.28,336.01-73.59,567.57-154.98c-4.3,19.87-4.95,38.71-1.79,56.18
								c-89.35,30.25-175.86,56.74-257.83,79.03c-356.39,96.88-540.3,89.33-560.39,41.31
								C285.85,2431.76,324.78,2363.27,468.18,2254.6z"/>
						</g>
					</g>
					<g>
						<g>
							<path class="st66" d="M443.47,2205.69l8.07,10.84c-73.67,53.38-130.8,101.42-173.92,143.91
								C310.21,2315.45,365.39,2264.07,443.47,2205.69z"/>
						</g>
					</g>
					<g>
						<g>
							<path class="st66" d="M459.63,2227.28l-8.09-10.75c1.25-1.01,2.68-1.98,4.11-2.95L459.63,2227.28z"/>
						</g>
					</g>
					<g>
						<g>
							<path class="st71" d="M277.62,2360.44c-34.18,46.79-43.84,86.61-29.81,120.25c13.74,32.72,47.89,51.92,95.74,61.12
								c124.81,23.98,342.39-20.54,528.58-71.18c84.29-22.89,173.27-50.25,265.18-81.35c16.74,22.57,42.1,40.66,75.27,54.5
								c-135.83,46.81-267.39,85.91-390.43,116.01c-438.67,107.32-626.44,68.47-654.03,2.63
								C152.82,2525.85,178.87,2457.57,277.62,2360.44z"/>
						</g>
					</g>
					<g>
						<g>
							<path class="st71" d="M1606.32,2468.07c-287.6,119.29-564.37,207.13-803.9,260.17C389.5,2819.72,87.3,2807.55,31.3,2673.7
								c-50.81-121.46,112.35-317.06,408.49-524.18c2.56,12.08,5.42,24.13,8.47,36.21l-15.78-22.09
								c-172,122.91-366.19,295.5-314.16,419.59c20.09,48.02,70.52,75.24,137.96,88.2c158.74,30.4,411.1-18.16,578.67-59.16
								c147.05-35.93,306.04-84.61,469.58-143.53C1384.54,2481.6,1486.94,2481.15,1606.32,2468.07z"/>
						</g>
					</g>
					<g>
						<g>
							<g>
								<path class="st72" d="M1137.31,2389.27c-91.9,31.1-180.89,58.46-265.18,81.35c-186.18,50.64-403.76,95.15-528.58,71.18
									c-47.86-9.19-82.01-28.4-95.74-61.12c-14.04-33.64-4.38-73.45,29.81-120.25c43.13-42.49,100.25-90.52,173.92-143.91
									l8.09,10.75c2.74,9.15,5.6,18.22,8.55,27.32c-143.4,108.67-182.33,177.16-170.56,205.19c20.09,48.02,204,55.57,560.39-41.31
									c81.97-22.28,168.49-48.77,257.83-79.03c1.49,8.72,3.91,17.04,7.26,25.06C1126.78,2373.26,1131.51,2381.55,1137.31,2389.27z
									"/>
							</g>
						</g>
						<g>
							<g>
								<path class="st73" d="M451.54,2216.53c-73.67,53.38-130.8,101.42-173.92,143.91c32.59-44.99,87.77-96.37,165.85-154.75
									L451.54,2216.53z"/>
							</g>
						</g>
						<g>
							<g>
								<path class="st73" d="M459.63,2227.28l16.16,21.59c-2.57,1.9-5.14,3.8-7.61,5.72
									C465.23,2245.5,462.37,2236.43,459.63,2227.28z"/>
							</g>
						</g>
						<g>
							<g>
								<path class="st73" d="M2159.76,1931.88c-180.53,104.99-397.57,211.49-627.78,307.8c-133.85,56-267.03,106.48-394.68,149.59
									c-5.8-7.72-10.53-16.01-14.21-24.76c-3.35-8.02-5.77-16.34-7.26-25.06c127.7-42.91,261.17-93.43,395.34-149.56
									c228.04-95.48,442.94-200.86,621.34-304.73c319.16-185.84,442.87-322.15,422.85-370.06
									c-12.03-28.65-90.56-49.2-275.29-21.08l-6.08-40.16l-2.04-13.32c96.81-14.74,172.34-17.95,227.35-9.59
									c56.86,8.72,91.8,29.8,105.87,63.26C2654.75,1612.66,2390.27,1797.6,2159.76,1931.88z"/>
							</g>
						</g>
					</g>
					<g>
						<g>
							<g>
								<path class="st72" d="M1304.54,2468.72c-163.54,58.92-322.52,107.6-469.58,143.53c-167.57,41-419.93,89.56-578.67,59.16
									c-67.44-12.96-117.87-40.17-137.96-88.2c-52.03-124.09,142.16-296.67,314.16-419.59l15.78,22.09
									c2.32,9.36,4.76,18.64,7.39,27.86c-1.43,0.97-2.86,1.94-4.11,2.95l-8.07-10.84c-78.08,58.38-133.26,109.76-165.85,154.75
									c-98.75,97.13-124.8,165.41-109.5,201.98c27.59,65.84,215.36,104.69,654.03-2.63c123.04-30.11,254.6-69.2,390.43-116.01
									C1238.54,2454.7,1269.33,2463.01,1304.54,2468.72z"/>
							</g>
						</g>
						<g>
							<g>
								<path class="st71" d="M443.47,2205.69l8.07,10.84c-73.67,53.38-130.8,101.42-173.92,143.91
									C310.21,2315.45,365.39,2264.07,443.47,2205.69z"/>
							</g>
						</g>
						<g>
							<g>
								<path class="st73" d="M448.26,2185.72l15.63,21.88c-2.79,2.05-5.56,4.01-8.24,5.98
									C453.02,2204.36,450.58,2195.08,448.26,2185.72z"/>
							</g>
						</g>
						<g>
							<g>
								<path class="st73" d="M2286.66,2004.83c-200.96,124.06-444.44,247.03-704.13,355.69c-93.25,39.09-186.31,75.24-278,108.2
									c-35.21-5.71-65.99-14.02-91.96-24.95c114.26-39.26,231.58-83.97,349.18-133.13c257.08-107.53,497.91-229.19,696.58-351.77
									c384.38-237.11,488.51-398.16,461.01-463.99c-15.31-36.47-81.99-65.85-220.03-63.92c-60.71,0.89-135.24,7.84-225.31,22.91
									c-4.96,0.87-10,1.72-15.05,2.57l-9.22-53.21c208.23-36.25,467.48-53.31,519.42,70.76
									C2836.64,1635.24,2495.87,1875.75,2286.66,2004.83z"/>
							</g>
						</g>
					</g>
					<g>
						<g>
							<path class="st55" d="M346.87,2809.63c-183.35,0-300.53-42.9-335.88-127.36c-54.25-129.64,93.54-325.27,416.14-550.85
								l27.34-19.12l6.92,32.63c8.5,40.03,19.66,79.95,33.19,118.62l5.26,15.05l-12.62,9.74
								c-114.37,88.22-103.78,117.68-103.28,118.89c0.52,1.25,14.45,30.21,163,9.16c209.45-29.72,567.59-143.59,934.66-297.19
								c367.06-153.59,699.57-328.71,867.78-457.02c119.23-91.02,108.39-121.25,107.87-122.5c-0.51-1.21-14.06-29.43-157.14-9.93
								l-15.79,2.15l-7.02-14.31c-18.04-36.78-38.62-72.75-61.18-106.91l-18.38-27.84l32.8-6.05
								c387.1-71.4,630.17-39.3,684.43,90.33l0,0c59.35,141.85-126.86,365.82-510.9,614.49
								c-218.79,141.67-485.44,279.74-771.12,399.29c-285.7,119.55-571.23,212.53-825.72,268.89
								C626.54,2789.82,471.43,2809.63,346.87,2809.63z M425.65,2186.59c-277.2,198.65-416.62,376.55-373.91,478.63
								c48.82,116.67,334.65,132.55,745.95,41.46c251.97-55.81,534.91-147.97,818.22-266.52
								c283.3-118.54,547.54-255.35,764.16-395.62c353.63-228.98,542.98-443.7,494.16-560.36
								c-42.72-102.08-267.28-127.68-603.35-69.71c13.88,22.63,26.92,45.88,38.98,69.5c111.56-13.48,171.51-1.09,188.14,38.67
								c17.68,42.23-21.03,97.73-121.82,174.66c-173.58,132.42-501.63,305.37-877.52,462.66
								c-375.91,157.29-729.37,269.51-945.51,300.17c-125.58,17.79-192.28,6.39-209.95-35.84
								c-16.64-39.76,16.62-91.15,104.57-161.15C439.41,2237.97,432.01,2212.36,425.65,2186.59z"/>
						</g>
					</g>
				</g>
			</g>
			<g>
				<g>
					<g>
						<g>
							<path class="st1" d="M1633.74,735.85c-1.47,19.53-4.41,40.79-8.92,63.89l-196.23-31.6l-50.55-8.14l58.74-223.11
								C1550.79,526.54,1646.81,565.23,1633.74,735.85z"/>
						</g>
					</g>
					<g>
						<g>
							<path class="st55" d="M1624.85,815.47c-0.83,0-1.67-0.07-2.52-0.21l-246.81-39.72c-4.39-0.7-8.27-3.23-10.7-6.96
								s-3.16-8.3-2.03-12.6l58.73-223.12c1.69-6.41,7.2-11.07,13.8-11.67c78.51-7.13,136.61,9.51,172.71,49.47
								c42.23,46.74,53.08,124.81,32.25,232.05C1638.84,810.23,1632.27,815.47,1624.85,815.47z M1397.68,747.21l214.43,34.51
								c15.16-89.13,5.95-152.98-27.44-189.94c-27.52-30.45-73.09-43.92-135.54-40.05L1397.68,747.21z"/>
						</g>
					</g>
					<g class="st6">
						<g>
							<g>
								<path class="st55" d="M1490.37,563.81c-1.52,1.15-3.04,2.36-4.52,3.62c0.94-8.24,2.57-16.38,4.93-24.41L1490.37,563.81z"/>
							</g>
						</g>
					</g>
					<g class="st6">
						<g>
							<g>
								<path class="st55" d="M1633.74,735.85c-1.47,19.53-4.41,40.79-8.92,63.89l-196.23-31.6c-4.15-10.45-6.82-21.47-8.4-32.55
									c-8.87-62.31,17.06-128.3,65.67-168.15c-4.62,40.42,7.4,82.68,33.39,114.02C1547.07,715.06,1590.17,735.22,1633.74,735.85z"
									/>
							</g>
						</g>
					</g>
				</g>
				<g>
					<g>
						<g>
							<g>
								<path class="st1" d="M953.38,1061.99l54.66,26.5l27.85,13.48l480.15,232.66c0,0-17.72,31.84-44.92,72.62
									c-5.32,7.98-11,16.3-16.98,24.79c-44.53,63.3-105.73,136.04-157.8,147.02c-77.87,16.4-332.9-120.5-408.56-218.9
									c-34.7-45.1,0.64-152.18,31.37-224.96c3.42-8.14,6.8-15.86,10.03-22.99C942.7,1082.08,953.38,1061.99,953.38,1061.99z"/>
							</g>
						</g>
						<g class="st10">
							<g>
								<path class="st55" d="M1008.04,1088.48l27.85,13.48l381.24,184.74l98.9,47.92c0,0-0.37,0.67-1.09,1.92
									c-0.21,0.35-0.45,0.78-0.7,1.23c-0.21,0.35-0.44,0.75-0.67,1.16c-0.16,0.31-0.35,0.62-0.51,0.93
									c-0.08,0.11-0.14,0.26-0.22,0.38c-0.33,0.57-0.69,1.21-1.09,1.86c-0.06,0.15-0.15,0.29-0.25,0.45
									c-0.32,0.54-0.65,1.11-1,1.72c-0.47,0.83-0.98,1.67-1.51,2.57c-0.39,0.63-0.77,1.32-1.18,2c-0.42,0.7-0.84,1.41-1.27,2.14
									c-0.54,0.92-1.13,1.88-1.7,2.87c-1.2,1.99-2.46,4.1-3.82,6.32c-1.17,1.98-2.43,4.03-3.76,6.17
									c-1.53,2.47-3.11,5.06-4.78,7.74c-6.17,9.88-13.35,21.13-21.38,33.16c-1.56,2.34-3.16,4.72-4.78,7.12
									c-1.13,1.67-2.3,3.38-3.47,5.09c-2.82,4.13-5.75,8.35-8.73,12.59c-44.54,63.33-105.73,136.04-157.79,147
									c-64.12,13.52-248.38-76.89-353.69-164.22c99.59,62.03,216.1,110.88,264.43,100.68c23.9-5.04-2.45-92.63-35.91-109.73
									c-86.3-44.11-188.17-117.63-210.28-231.54C960.31,1171.26,991.21,1128.71,1008.04,1088.48z"/>
							</g>
						</g>
						<g>
							<g>
								<path class="st55" d="M1281.92,1596.14c-63.03,0-165.77-52.24-198.14-69.59c-72.34-38.79-165.11-100.34-208.51-156.79
									c-59.37-77.21,51.39-291.04,64.21-315.16c3.97-7.48,13.16-10.47,20.77-6.78l562.66,272.62c3.9,1.89,6.85,5.3,8.15,9.43
									c1.3,4.13,0.85,8.62-1.26,12.4c-5.24,9.42-129.6,231-230.22,252.2C1294.17,1595.62,1288.25,1596.14,1281.92,1596.14z
									 M960.32,1082.85c-43.45,85.97-93.72,223.96-60.08,267.71c72.88,94.79,301.69,214.14,381.36,214.15
									c4.28,0,8.12-0.35,11.49-1.05c66.77-14.07,160.74-153.73,200.9-222.22L960.32,1082.85z"/>
							</g>
						</g>
						<g>
							<g>
								<path class="st1" d="M1095.13,1491l56.8-88.21c5.07-7.87,14.8-11.35,23.7-8.42c32.58,10.73,106.53,39.41,113.71,80.66
									c5.96,34.23-17.36,71.91-49.01,84.24c-35.4,13.78-104.58-20.53-137.94-39.16C1092.01,1514.31,1088.7,1500.98,1095.13,1491z"
									/>
							</g>
						</g>
						<g class="st6">
							<g>
								<path class="st55" d="M1175.63,1394.38c32.57,10.71,106.52,39.41,113.69,80.65c5.97,34.24-17.35,71.91-49.01,84.24
									c-21.78,8.46-56.33-1.26-87.45-14.33c17,3.86,32.51,3.86,44.75,0.03c70.18-21.91,35.86-85.32,35.86-85.32
									s16.15,0.99,19.48-3.4c13.91-18.35-50.98-48.2-84.91-62.87C1170.54,1393.23,1173.11,1393.54,1175.63,1394.38z"/>
							</g>
						</g>
						<g>
							<g>
								<path class="st55" d="M1221.11,1578.13c-38.14,0-87.91-22.77-126.4-44.27c-8.72-4.87-15.11-13.22-17.53-22.91
									c-2.42-9.69-0.7-20.07,4.71-28.47l56.8-88.21c8.96-13.91,26.16-20,41.87-14.85c42.84,14.11,115.95,44.94,124.3,92.92
									c7.08,40.65-19.31,86.23-58.82,101.61C1238.59,1576.84,1230.17,1578.13,1221.11,1578.13z M1169.21,1409.09
									c-1.6,0-3.14,0.81-4.05,2.22l-56.8,88.21c0,0,0,0,0,0c-0.99,1.54-0.82,3.04-0.63,3.79c0.19,0.75,0.74,2.15,2.33,3.04
									c56.43,31.52,104.16,46.18,124.54,38.23c25.37-9.87,43.69-41.11,39.21-66.86c-3.93-22.54-43.44-48.75-103.12-68.4
									C1170.21,1409.17,1169.71,1409.09,1169.21,1409.09z M1095.13,1491h0.05H1095.13z"/>
							</g>
						</g>
						<g>
							<g>
								<path class="st55" d="M1262.23,1527.13c-0.52-41.42-41.28-69.04-75.34-86.04c-2.77-1.24-5.7-2.38-8.09-3.06
									c-5.26-1.52-3.57-9.64,1.88-8.89c12.84,1.95,24.18,6.76,35.86,11.86c29.35,12.7,58.38,33.44,70.88,64.66
									c2.92,7.47,5,14.09,5.39,22.52C1291.58,1548.31,1262.05,1547.33,1262.23,1527.13L1262.23,1527.13z"/>
							</g>
						</g>
						<g>
							<g>
								<path class="st55" d="M963.45,1222.37c-24.82,42.71-50.78,87.61-63.95,135.25c-6.03,22.09-38.43,14.36-33.74-8.13
									c19.18-50.87,51.26-93.93,82.99-137.26C955.65,1203.39,969.28,1212.8,963.45,1222.37L963.45,1222.37z"/>
							</g>
						</g>
					</g>
					<g>
						<g>
							<g>
								<path class="st1" d="M2005.94,1002.43l-106.46,303.54c-7.56,8.77-15.01,17.11-22.52,25.15
									c-203.58,219.54-365.8,162.32-616.68-13.81c-54.65-38.32-113.45-82.37-177.86-130.35
									c-549.59,98.01-581.09-184.53-364.12-351.73l675.8-134.71c99.06,31.97,237.39,100.11,389.42,181.01
									c54.6,29.03,111.03,59.74,168.04,91.03C1969.62,982.48,1987.78,992.45,2005.94,1002.43z"/>
							</g>
						</g>
						<g>
							<g>
								<path class="st55" d="M1612.52,1489.24c-151.07,0.02-310.74-119.07-530.08-282.6l-3.99-2.98
									c-261.56,45.47-439.44,8.07-488.54-102.94c-37.36-84.48,9.27-193.58,118.79-277.96c1.92-1.48,4.16-2.5,6.53-2.97
									l675.76-134.74c2.63-0.53,5.36-0.37,7.91,0.45c142.12,45.84,353.31,159.4,614.63,303.1c6.75,3.71,9.82,11.75,7.27,19.01
									l-106.45,303.56c-0.65,1.86-1.65,3.58-2.93,5.07C1806.05,1438.48,1711.1,1489.23,1612.52,1489.24z M1082.41,1171.23
									c3.37,0,6.67,1.08,9.41,3.12l9.44,7.04c177.32,132.21,317.38,236.65,438.51,267.18c123.68,31.18,227.24-13.87,345.85-150.64
									l101.05-288.15c-200.47-110.22-445.44-244.3-593.56-293.03L725.04,849.96c-94.12,73.75-136.82,169.07-106.32,238.02
									c42.53,96.15,214.84,127.37,460.93,83.49C1080.56,1171.31,1081.49,1171.23,1082.41,1171.23z"/>
							</g>
						</g>
						<g>
							<g>
								<path class="st55" d="M729.03,1204.24c-6.07,0-11.86-3.54-14.45-9.46c-31.89-73.17-22.79-147.09,27.82-225.98
									c46.55-72.55,123.29-139.36,184.95-189.45c6.75-5.49,16.67-4.46,22.16,2.29s4.46,16.67-2.29,22.15
									c-141.41,114.89-263.97,240.24-203.76,378.4c3.47,7.97-0.17,17.26-8.15,20.73C733.27,1203.82,731.13,1204.24,729.03,1204.24
									z"/>
							</g>
						</g>
						<g>
							<g>
								<path class="st55" d="M1014.68,1213.25c-7.35,0-13.92-5.17-15.42-12.65c-1.72-8.53,3.81-16.83,12.33-18.54l134.97-27.15
									c8.52-1.7,16.83,3.8,18.54,12.33c1.72,8.53-3.81,16.83-12.33,18.54l-134.97,27.15
									C1016.75,1213.15,1015.71,1213.25,1014.68,1213.25z"/>
							</g>
						</g>
						<g class="st10">
							<g>
								<g>
									<path class="st55" d="M1465.96,727.19c-5.91,57.98-24.91,99.67-38.06,123.37c-14.57,26.27-35.07,63.22-76.12,93.18
										c-30.93,22.58-52.59,25.9-62.81,51.66c-7.01,17.67-7.33,42.61,3.75,61.21c7.01,11.77,13.94,13.21,29.92,31.46
										c11.5,13.14,19.21,25.31,23.91,33.49c-2.73,7.73-6.08,16.17-10.24,25.12c-20.23,43.52-32.71,54.52-96.23,114.63
										c-6.54,6.19-13.73,12.5-22.6,13.99c-14.64,2.46-27.31-7.72-32.85-11.96c-21.23-16.26-52.75-36.94-95.68-63.55
										c-37.12-3.97-74.23-7.94-111.35-11.9c-12.86,5.14-25.71,10.27-38.57,15.41c-12.91-2.67-25.82-5.35-38.73-8.02
										c-1.4-11-4.28-26.59-10.82-44.33c-4.25-11.53-20.51-55.67-58.63-83.78c-18.44-13.6-23.27-9.63-100.06-32.22
										c-73.31-21.56-86.11-30.23-94.77-42.69c-16.42-23.61-13.18-53.94-8.72-73.75c19.85-31.3,52.76-72.73,104.99-100.25
										c52.82-27.84,97.91-26.97,147-30.75c141.19-10.89,159.53-48.27,288.89-68.94C1235.94,707.73,1336.39,701.13,1465.96,727.19
										z"/>
								</g>
							</g>
						</g>
					</g>
					<g>
						<g>
							<g>
								<path class="st1" d="M1823.58,898.54l-189.66,197.78c-22.44,23.41-63.54,27.56-91.33,9.17l-124.78-82.57
									c-24.33-16.1-30.67-44.31-16.79-66.81c1.94-3.2,4.34-6.26,7.14-9.19l189.63-197.75c22.47-23.44,63.57-27.58,91.33-9.17
									l98.85,65.38l25.96,17.16C1841.72,840.93,1846.02,875.13,1823.58,898.54z"/>
							</g>
						</g>
						<g>
							<g>
								<path class="st1" d="M1823.58,898.54l-189.66,197.78c-22.44,23.41-63.54,27.56-91.33,9.17l-124.78-82.57
									c-24.33-16.1-30.67-44.31-16.79-66.81c1.94-3.2,4.34-6.26,7.14-9.19l189.63-197.75c22.47-23.44,63.57-27.58,91.33-9.17
									l98.85,65.38l25.96,17.16C1841.72,840.93,1846.02,875.13,1823.58,898.54z"/>
							</g>
						</g>
						<g>
							<g>
								<path class="st1" d="M1823.58,898.54l-189.66,197.78c-22.44,23.41-63.54,27.56-91.33,9.17l-124.78-82.57
									c-24.33-16.1-30.67-44.31-16.79-66.81c1.94-3.2,4.34-6.26,7.14-9.19l189.63-197.75c22.47-23.44,63.57-27.58,91.33-9.17
									l98.85,65.38l25.96,17.16C1841.72,840.93,1846.02,875.13,1823.58,898.54z"/>
							</g>
						</g>
						<g class="st6">
							<g>
								<path class="st55" d="M1823.88,898.26l-189.66,197.78c-22.44,23.41-63.54,27.56-91.33,9.17l-124.78-82.57
									c-24.33-16.1-30.67-44.31-16.79-66.81c19.61-5.38,32.11-8.77,32.11-8.77c109.4,56.65,182.42,65.64,285.05-37.92
									c44.29-44.71,63.51-78.71,69.79-104.04l25.96,17.16C1842.02,840.65,1846.32,874.85,1823.88,898.26z"/>
							</g>
						</g>
						<g>
							<g>
								<path class="st55" d="M1576.94,1121.76c-23.98,0-47.99-6.42-68.02-19.67l-74.83-49.51c-24.06-15.92-39.54-40.12-42.46-66.41
									c-2.88-25.88,6.12-51.17,25.35-71.23l149.22-155.62c38.67-40.34,108.92-47.49,156.59-15.96l74.83,49.51
									c24.06,15.92,39.54,40.13,42.46,66.42c2.88,25.87-6.12,51.17-25.35,71.22l-149.22,155.61
									C1643.09,1109.53,1610.04,1121.76,1576.94,1121.76z M1654.75,755.2c-24.75,0-49.5,8.92-65.81,25.93l-149.22,155.62
									c-12.65,13.2-18.61,29.51-16.78,45.94c1.92,17.23,12.06,32.72,28.54,43.63l74.83,49.51
									c34.97,23.13,88.31,17.88,116.47-11.48l11.37,10.9l-11.37-10.9l149.22-155.61c12.65-13.19,18.61-29.51,16.78-45.94
									c-1.92-17.23-12.06-32.73-28.54-43.64l-74.83-49.51C1690.7,759.91,1672.73,755.2,1654.75,755.2z"/>
							</g>
						</g>
						<g>
							<g>
								<path class="st1" d="M1755.63,967.93l0.51,0.98l-122.22,127.43c-16.48,17.14-42.9,23.95-66.83,19.09
									c-8.7-1.73-17.05-5.02-24.47-9.95l-55.46-36.66l-18.3-12.1l-32.1-21.27l-18.94-12.52c-27.79-18.4-32.11-52.57-9.67-75.99
									l41-42.72c-14.49,22.61-8.27,51.23,16.27,67.49l37.03,24.52l30.39,20.08l57.42,38.02c27.75,18.32,68.87,14.2,91.33-9.19
									L1755.63,967.93z"/>
							</g>
						</g>
						<g class="st6">
							<g>
								<path class="st55" d="M1774.98,947.73l0.51,0.98l-141.56,147.63c-16.48,17.14-42.9,23.95-66.83,19.09
									c-8.7-1.73-17.05-5.02-24.47-9.95l-55.46-36.66l-18.3-12.1l-32.1-21.27c6.82-9.5,19.11-19.94,40.06-16.18
									c29.02,5.19,30.8-8.47,25.63-23.04l30.39,20.08l57.42,38.02c27.75,18.32,68.87,14.2,91.33-9.19L1774.98,947.73z"/>
							</g>
						</g>
						<g>
							<g>
								<path class="st55" d="M1582.26,1132.61c-17.05,0-34.11-4.57-48.34-13.99l-124.8-82.57c-17.38-11.48-28.57-29.04-30.72-48.15
									c-2.11-18.89,4.41-37.31,18.36-51.88l40.98-42.72c5.61-5.84,14.74-6.48,21.11-1.47c6.37,5.01,7.89,14.04,3.53,20.86
									c-10.09,15.77-5.26,34.64,11.75,45.89l124.81,82.58c21.43,14.2,54.05,11.03,71.25-6.91l118.85-122.47
									c0.67-0.7,1.42-1.46,2.22-2.26l3.01-3.13l0.21,0.2c5.88-4.92,13.84-8.73,22.17-0.64c6.23,6.04,6.35,16.03,0.33,22.28
									l-0.03,0.03l0,0l-171.64,178.98C1629.33,1123.89,1605.81,1132.61,1582.26,1132.61z M1428.59,948.34l-9.08,9.47
									c-7.37,7.7-10.85,17.14-9.8,26.58c1.11,9.96,7.08,18.97,16.78,25.39l124.81,82.58c0,0,0.01,0,0.01,0
									c21.42,14.19,54.05,11.03,71.24-6.92l3.91-4.08c-15.9-0.58-31.64-5.14-44.92-13.94l-124.8-82.57
									C1442.63,975.49,1433.05,962.53,1428.59,948.34z"/>
							</g>
						</g>
						<g>
							<g>
								<path class="st60" d="M1603.63,935.69c4.59,3.08,36.39,33.35,36.39,33.35s-9.61,9.91-21.41,22.07
									c-14.75,15.2-45.36,15.03-68.37-0.38c-23.02-15.41-29.72-40.23-14.97-55.43c9.95-10.26,21.41-22.07,21.41-22.07
									S1596.15,930.68,1603.63,935.69z"/>
							</g>
						</g>
						<g>
							<g>
								<path class="st61" d="M1603.63,935.69c4.59,3.08,36.39,33.35,36.39,33.35s-9.61,9.91-21.41,22.07
									c-14.75,15.2-45.36,15.03-68.37-0.38c-23.02-15.41-29.72-40.23-14.97-55.43c9.95-10.26,21.41-22.07,21.41-22.07
									S1596.15,930.68,1603.63,935.69z"/>
							</g>
						</g>
						<g>
							<g>
								<path class="st55" d="M1587.78,1012.95c-14.46,0-29.94-4.49-43.4-13.5c-15.69-10.5-25.61-25.31-27.23-40.62
									c-1.23-11.6,2.52-22.55,10.56-30.83l14.95-15.41c6.84-7.06,18.06-9.07,27.29-4.91c21.76,9.81,35.05,16.3,39.51,19.29l0.01,0
									c1.23,0.83,4.49,3.01,30.98,28.03c3.94,3.72,6.18,8.64,6.29,13.86c0.11,5.25-1.92,10.3-5.73,14.24l-14.88,15.33
									C1616.76,1008.09,1602.83,1012.95,1587.78,1012.95z M1559.89,926.53c-0.93,0-1.79,0.31-2.15,0.68l-14.95,15.41
									c-3.73,3.84-5.33,8.56-4.75,14.01c0.95,8.96,7.69,18.45,18.03,25.38c18.64,12.49,43.83,13.31,55,1.8l14.02-14.45
									c-17.43-16.45-25.61-23.73-27.34-24.98c-2.63-1.74-13.55-7.25-36.42-17.57C1560.87,926.61,1560.37,926.53,1559.89,926.53z"
									/>
							</g>
						</g>
						<g>
							<g>
								
									<ellipse transform="matrix(0.3677 -0.93 0.93 0.3677 135.4679 2081.499)" class="st60" cx="1598.35" cy="941.13" rx="36.97" ry="51.17"/>
							</g>
						</g>
						<g class="st29">
							<g>
								<path class="st1" d="M1571.66,968.66c1.73,1.16,3.49,2.22,5.28,3.2c-15.43-15.15-18.48-35.09-5.91-48.06
									c13.65-14.08,40.86-14.96,63.09-2.82c-2.65-2.63-5.69-5.1-9.08-7.37c-23.02-15.41-53.61-15.58-68.37-0.38
									S1548.64,953.25,1571.66,968.66z"/>
							</g>
						</g>
						<g>
							<g>
								<path class="st61" d="M1571.66,968.66c22.99,15.39,53.61,15.58,68.37,0.38c14.73-15.22,8.03-40.02-14.99-55.43
									c-3.62-2.43-7.46-4.5-11.36-6.15c11.63,14.41,12.92,31.73,1.61,43.39c-12.39,12.8-36.06,14.72-56.98,5.79
									C1561.84,960.98,1566.31,965.06,1571.66,968.66z"/>
							</g>
						</g>
						<g>
							<g>
								<path class="st55" d="M1609.2,990.88c-14.46,0-29.94-4.49-43.39-13.49c-15.69-10.51-25.61-25.32-27.23-40.63
									c-1.23-11.6,2.52-22.55,10.56-30.83c18.39-18.96,54.3-19.4,81.75-1.04l0,0c15.69,10.51,25.61,25.32,27.23,40.63
									c1.23,11.6-2.52,22.55-10.56,30.83C1638.17,986.02,1624.24,990.88,1609.2,990.88z M1587.27,912.41
									c-9.37,0-17.79,2.69-23.06,8.12c-3.73,3.84-5.32,8.55-4.75,14.01c0.95,8.97,7.69,18.46,18.03,25.39
									c18.65,12.49,43.83,13.31,54.99,1.8c3.73-3.84,5.33-8.55,4.75-14.01c-0.95-8.97-7.69-18.46-18.03-25.39l0,0
									C1609.37,915.75,1597.73,912.41,1587.27,912.41z"/>
							</g>
						</g>
						<g>
							<g>
								<path class="st55" d="M1763.71,972.42c-2.56,0-5.14-0.75-7.4-2.32l-61.92-43.03c-18.51-12.86-27.8-32.85-24.86-53.46
									c1.56-10.95-3.9-21.75-14.62-28.89l-88.76-59.16c-5.97-3.98-7.59-12.05-3.61-18.02c3.98-5.97,12.04-7.59,18.02-3.6
									l88.75,59.15c18.97,12.64,28.91,33.4,25.94,54.19c-1.53,10.67,3.69,21.3,13.96,28.44l61.92,43.03
									c5.89,4.09,7.35,12.19,3.26,18.09C1771.87,970.48,1767.82,972.42,1763.71,972.42z"/>
							</g>
						</g>
					</g>
					<g>
						<g>
							<g>
								<path class="st1" d="M1442.2,1045.45c-37.87,19.77-91.66,53.12-142.6,106.16c-57.35,59.71-86.89,119.15-102.19,157.83
									c-10.38,12.12-7.62,29.28,5.21,37.96c3.37,2.28,7.2,3.82,11.22,4.63c13.44,2.7,27.11-4.02,33.03-15.03
									c26.86-49.87,69.04-113.29,135.02-175.95c37.55-35.65,75.18-63.83,109.01-85.85
									C1474.66,1065.28,1458.43,1055.37,1442.2,1045.45z"/>
							</g>
						</g>
						<g class="st6">
							<g>
								<path class="st55" d="M1397.9,1108.08c-72.04,57.2-120.44,117.03-152.22,164.59c-7.01,10.5-21.31,16.11-34.42,12.36
									c-0.99-0.28-1.96-0.61-2.9-0.98c-4.27,9.17-7.91,17.71-10.95,25.4c-10.38,12.12-7.62,29.28,5.21,37.96
									c3.37,2.28,7.2,3.82,11.22,4.63c13.44,2.7,27.11-4.02,33.03-15.03c26.86-49.87,69.04-113.29,135.02-175.95
									c37.55-35.65,75.18-63.83,109.01-85.85c-8.33-5.09-16.67-10.18-25.01-15.28C1443.87,1073.83,1421.01,1089.73,1397.9,1108.08
									z"/>
							</g>
						</g>
						<g>
							<g>
								<path class="st55" d="M1219.95,1368.39c-3.06,0-6.15-0.3-9.23-0.92c-6.21-1.25-11.9-3.62-16.94-7.03
									c-9.94-6.73-16.55-17.25-18.11-28.86c-1.45-10.75,1.37-21.34,7.97-30.13c23.7-59.09,58.88-113.16,104.6-160.75
									c41.74-43.45,91.08-80.2,146.67-109.21c4.9-2.56,10.78-2.36,15.5,0.52l48.7,29.75c4.61,2.82,7.46,7.81,7.54,13.21
									s-2.62,10.47-7.15,13.42c-38.45,25.03-74.37,53.32-106.76,84.07c-53.46,50.77-97.87,108.64-132,172
									C1252.73,1359.33,1236.78,1368.39,1219.95,1368.39z M1441.65,1063.58c-49.36,26.75-93.3,60-130.7,98.94
									c-43.43,45.21-76.71,96.6-98.9,152.71c-0.64,1.63-1.55,3.13-2.69,4.45c-2.51,2.94-2.74,5.8-2.49,7.69
									c0.37,2.77,1.99,5.24,4.55,6.98c1.57,1.06,3.42,1.82,5.51,2.24c6.91,1.39,13.6-2.5,16.05-7.06
									c35.71-66.3,82.16-126.83,138.04-179.9c27.93-26.52,58.36-51.26,90.7-73.78L1441.65,1063.58z M1197.41,1309.44h0.05H1197.41
									z"/>
							</g>
						</g>
					</g>
					<g>
						<g>
							<g>
								<path class="st1" d="M2127,1217.3c-73.6,61.84-162.27,100.01-250.04,113.81c-8.24,1.36-16.48,2.47-24.73,3.31l-171.09-78.01
									l-132.29-60.37c67.93-114.6,147.52-250.04,234.66-314.51c4.25-3.1,8.5-6.09,12.81-8.87
									c38.17-24.83,86.15-30.08,129.09-14.96c46.41,16.38,93.18,38.22,140.32,65.04c44.78-56.01,98.75-70.03,139.7-54.12
									C2285.86,899.85,2315.99,1046.42,2127,1217.3z"/>
							</g>
						</g>
						<g>
							<g>
								<path class="st55" d="M1852.23,1350.19c-7.95,0-14.79-6.01-15.64-14.09c-0.92-8.65,5.35-16.41,14-17.32
									c96.7-10.24,191.17-50.49,266.04-113.35c102.24-92.5,151.39-191.44,131.5-264.68c-8.73-32.14-31.19-54.91-60.08-60.91
									c-36.99-7.66-77.08,11.54-110.02,52.73c-4.83,6.04-13.35,7.68-20.09,3.86c-46.96-26.71-93.31-48.2-137.77-63.87
									c-38.52-13.57-81.62-8.61-115.28,13.32c-87.69,57.09-168.22,192.91-239.27,312.72l-3.24,5.47
									c-4.44,7.48-14.09,9.95-21.58,5.51c-7.48-4.43-9.95-14.1-5.51-21.58l3.24-5.47c72.81-122.78,155.33-261.95,249.18-323.06
									c41.81-27.22,95.24-33.44,142.94-16.63c42.6,15.01,86.77,35.11,131.47,59.8c38.76-43.01,87.43-62.99,132.33-53.66
									c40.74,8.46,72.17,39.67,84.07,83.49c11.08,40.81,19.53,151.38-140.98,296.49c-0.14,0.13-0.28,0.25-0.43,0.37
									c-79.67,66.96-180.24,109.84-283.21,120.75C1853.34,1350.16,1852.78,1350.19,1852.23,1350.19z"/>
							</g>
						</g>
						<g>
							<g>
								<path class="st55" d="M2136.59,977.57c-2.53,0-5.09-0.61-7.47-1.89l-110.95-59.91c-7.65-4.13-10.51-13.69-6.37-21.34
									c4.13-7.65,13.68-10.51,21.34-6.37l110.95,59.91c7.65,4.13,10.51,13.69,6.37,21.34
									C2147.62,974.58,2142.2,977.57,2136.59,977.57z"/>
							</g>
						</g>
						<g>
							<g>
								<path class="st55" d="M1992.49,1314.35c-1.69,0-3.4-0.27-5.09-0.84c-8.23-2.81-12.63-11.76-9.82-19.99
									c36-105.54,45.68-261.83-18.12-355.58c-29.08-42.73-70.11-65.64-121.95-68.08c-8.69-0.41-15.4-7.78-14.99-16.47
									c0.41-8.69,7.74-15.31,16.47-14.99c61.39,2.89,112.05,31.18,146.51,81.82c69.88,102.69,60.34,270.76,21.89,383.47
									C2005.16,1310.23,1999.05,1314.35,1992.49,1314.35z"/>
							</g>
						</g>
						<g class="st10">
							<g>
								<g>
									<path class="st55" d="M2127,1217.3c-73.6,61.84-162.27,100.01-250.04,113.81c-203.58,219.54-365.8,162.32-616.68-13.81
										c2.26-11.81,7.66-22.84,13.49-33.39c10.18-18.48,25.15-43.15,56.38-76.44c16.22-17.27,39.16-39.48,69.4-62.68
										c17.27,12.76,44.36,29.56,80.85,40.42c26.67,7.93,50.4,10.39,68.46,10.81c-0.21,7.24-0.26,39.95,23.41,60.95
										c30.4,26.88,75.23,12.65,87.51,8.71c7.56-2.41,14.54-5.41,21.37-9.29c19.37-11.08,37.06-29.03,60.21-58.64
										c72.87-93.24,67.41-122,116.96-174.24c24.99-26.25,57.96-49.24,93.24-50.97c5.35-0.26,10.76-0.05,16.22,0.74
										c46.14,6.51,78.33,49.61,121.85,66.3c39.11,14.96,108.04,1.21,131.14-45.99c18.79-38.27,3.78-92.92-39.22-129.88
										c3.36,0.42,12.18,1.68,23.89,4.88C2285.86,899.85,2315.99,1046.42,2127,1217.3z"/>
								</g>
							</g>
						</g>
					</g>
					<g>
						<g>
							<g>
								<path class="st1" d="M1859.16,1445.03c-16.96-23.57-22.89-53.6-15.96-81.79c46.88-191.72,160.96-310.47,252.83-238.07
									c7.19,5.67,12.91,12.86,16.96,20.89c3.94,7.93,6.14,16.64,6.46,25.67l6.46,175.5c0.31,9.82,3.83,19.16,9.71,27.04
									c12.81,17.17,21.89,33.44,27.72,48.72C2218.19,1566.56,1984.32,1618.9,1859.16,1445.03z"/>
							</g>
						</g>
						<g>
							<g>
								<path class="st55" d="M2054.99,1570.39c-63.78,0-146.68-30.08-208.62-116.16c-19.75-27.45-26.48-61.98-18.47-94.74
									c0,0,0,0,0,0c33.8-138.15,100.88-239.84,175.06-265.39c36.01-12.41,71.56-5.93,102.84,18.72
									c17.84,14.06,28.55,35.31,29.4,58.32l6.42,175.53c0.23,6.44,2.51,12.72,6.58,18.17c37.24,49.81,48.29,98.94,31.11,138.33
									c-15.78,36.17-54.67,60.91-104.03,66.17C2068.79,1570.02,2062,1570.39,2054.99,1570.39z M1858.5,1366.97
									c-5.82,23.8-0.93,48.9,13.44,68.86c60.86,84.57,143.25,108.24,200,102.18c37.96-4.05,67.3-21.79,78.5-47.45
									c12.46-28.56,2.71-66.52-27.46-106.88c-7.92-10.6-12.36-23-12.84-35.87l-6.42-175.53c-0.5-13.75-6.85-26.4-17.41-34.73
									c-22.76-17.94-47.35-22.53-73.08-13.67C1950.04,1145.64,1889.31,1241.06,1858.5,1366.97L1858.5,1366.97z"/>
							</g>
						</g>
						<g class="st10">
							<g>
								<g>
									<path class="st55" d="M1878.48,1451.45c-14.58-22.19-19.68-50.46-13.72-77.01c40.32-180.5,138.42-292.3,217.43-224.15
										c6.19,5.34,11.11,12.11,14.58,19.67c-28.4-12.9-64.56-3.61-88.08,19.37c-27.77,27.13-40.5,68.65-44.47,109.18
										c-3.79,39.1,0.5,81.65,23.43,111.9c13.23,17.45,31.47,29.31,49.8,39.79c17.29,9.89,36.21,19.08,55.49,16.36
										c19.59-2.77,36.3-17.74,47.13-35.88C2187.24,1565.87,1986.11,1615.14,1878.48,1451.45z"/>
								</g>
							</g>
						</g>
					</g>
					<g>
						<g>
							<g>
								<path class="st1" d="M1472.77,435.05c21.18,71.83,24.34,149.47,6.59,226.11c-3.63,15.63-8.09,31.17-13.45,46.62
									c-2.59,7.52-5.44,15.05-8.46,22.57c-9.21,22.63-20.04,44.12-32.34,64.42c-10.55,17.52-22.23,34.14-34.8,49.8
									c-15.17,18.92-31.75,36.44-49.47,52.5c-6.48,5.84-13.1,11.48-19.84,16.95c-123.69,99.73-295.56,132.59-452.48,71.17
									c-231.18-90.43-342.28-351.17-248.24-582.34c18.15-44.51,42.54-84.76,71.85-119.94c3.39-4.14,6.91-8.21,10.5-12.19
									c9.55-10.72,19.56-20.94,29.99-30.63c24.12-22.4,50.5-42.01,78.51-58.59c27.98-16.61,57.67-30.21,88.43-40.55
									c9.78-3.29,19.66-6.26,29.68-8.89c15.01-3.93,30.19-7.14,45.62-9.52c76.73-12.08,157.35-4.67,234.36,25.48
									C1342.2,200.02,1435.42,308.38,1472.77,435.05z"/>
							</g>
							<g>
								<path class="st55" d="M1032.47,1017.58c-55.62,0-111.43-10.16-164.52-30.94C756.2,942.93,668.68,858.38,621.51,748.57
									c-47.55-110.68-48.5-233.67-2.67-346.32c17.91-43.92,42.16-84.41,72.09-120.35c3.23-3.96,6.68-7.96,10.55-12.24
									c9.54-10.7,19.66-21.04,30.08-30.72c23.98-22.27,50.48-42.05,78.77-58.79c28.02-16.64,57.88-30.32,88.73-40.68
									c9.93-3.34,19.95-6.35,29.78-8.93c15.33-4.01,30.73-7.22,45.77-9.55c79.26-12.49,160.58-3.63,235.16,25.57
									c128.98,50.44,225.39,155.44,264.49,288.06l0,0c21.68,73.52,23.96,151.98,6.61,226.9c-3.68,15.87-8.23,31.61-13.5,46.78
									c-2.4,6.96-5.17,14.37-8.49,22.64c-9.11,22.39-20.03,44.14-32.45,64.65c-10.37,17.21-22.11,34.02-34.92,49.97
									c-14.96,18.67-31.67,36.39-49.64,52.69c-6.49,5.84-13.19,11.56-19.91,17C1238.57,982.49,1135.84,1017.58,1032.47,1017.58z
									 M1044.96,118.61c-23.32,0-46.68,1.81-69.87,5.46c-14.94,2.31-30.23,5.51-45.46,9.49c-9.76,2.56-19.71,5.54-29.58,8.86
									c-30.65,10.3-60.3,23.89-88.13,40.41c-28.1,16.64-54.42,36.28-78.24,58.4c-10.35,9.61-20.4,19.88-29.88,30.52
									c-3.83,4.24-7.25,8.21-10.46,12.14c-29.74,35.7-53.83,75.92-71.61,119.55c-45.51,111.86-44.57,233.99,2.65,343.9
									c46.84,109.03,133.75,192.99,244.71,236.4c150.7,58.99,323.49,31.81,450.93-70.93c6.67-5.4,13.33-11.08,19.78-16.89
									c17.85-16.18,34.44-33.78,49.3-52.32c12.71-15.84,24.38-32.54,34.68-49.63c12.34-20.37,23.18-41.97,32.23-64.2
									c3.29-8.21,6.05-15.57,8.43-22.49c5.24-15.08,9.75-30.71,13.41-46.46c17.23-74.4,14.96-152.31-6.56-225.31
									c-38.83-131.69-134.56-235.94-262.63-286.04C1156.39,129.01,1100.81,118.61,1044.96,118.61z"/>
							</g>
						</g>
						<g class="st10">
							<g>
								<path class="st55" d="M868.52,985.18c156.92,61.45,328.8,28.57,452.48-71.17c6.75-5.45,13.37-11.1,19.83-16.93
									c17.73-16.06,34.3-33.58,49.48-52.49c12.56-15.68,24.25-32.29,34.8-49.8c12.31-20.3,23.13-41.79,32.36-64.43
									c2.99-7.53,5.85-15.04,8.46-22.57c5.36-15.46,9.79-31.01,13.43-46.63c17.75-76.63,14.61-154.27-6.58-226.11
									c-11.63-39.46-28.7-77.18-50.7-111.94c18.64,69.03,20.71,143.04,3.78,216.16c-3.6,15.64-8.07,31.18-13.43,46.63
									c-2.58,7.51-5.45,15.02-8.46,22.57c-9.22,22.64-20.05,44.12-32.33,64.42c-10.58,17.52-22.24,34.12-34.8,49.8
									c-15.19,18.91-31.78,36.45-49.48,52.49c-6.49,5.84-13.1,11.49-19.86,16.94c-123.68,99.75-295.53,132.61-452.48,71.17
									c-91.57-35.81-164.26-98.37-212.85-175.18C637.45,819.08,732.06,931.81,868.52,985.18z"/>
							</g>
						</g>
						<g>
							<g>
								<path class="st55" d="M1032.46,1028.05c-56.91,0-114-10.4-168.32-31.66c-114.38-44.75-203.96-131.29-252.25-243.69
									c-48.66-113.28-49.64-239.14-2.75-354.4c18.32-44.93,43.12-86.34,73.75-123.11c3.28-4.01,6.84-8.15,10.82-12.55
									c9.71-10.9,20.06-21.48,30.73-31.38c24.53-22.77,51.64-43,80.57-60.13c28.65-17,59.18-31,90.73-41.6
									c10.15-3.42,20.4-6.48,30.46-9.13c15.68-4.1,31.43-7.39,46.83-9.77c81.06-12.76,164.27-3.72,240.58,26.16
									c132.02,51.64,230.69,159.1,270.72,294.85l0,0c22.19,75.24,24.53,155.55,6.77,232.22c-3.77,16.23-8.41,32.33-13.81,47.86
									c-2.44,7.1-5.28,14.67-8.65,23.1c-9.34,22.95-20.51,45.2-33.22,66.18c-10.59,17.59-22.61,34.79-35.71,51.1
									c-15.31,19.09-32.39,37.23-50.78,53.89c-6.66,5.99-13.49,11.83-20.35,17.38C1243.26,992.16,1138.19,1028.05,1032.46,1028.05
									z M1044.97,129.08c-22.78,0-45.59,1.77-68.24,5.33c-14.61,2.27-29.56,5.39-44.44,9.28c-9.52,2.5-19.24,5.41-28.89,8.65
									c-29.95,10.06-58.93,23.35-86.13,39.49c-27.47,16.26-53.19,35.46-76.46,57.07c-10.11,9.38-19.93,19.42-29.19,29.81
									c-3.76,4.17-7.07,8.01-10.17,11.8c-29.11,34.95-52.65,74.24-70.02,116.87C586.99,516.63,587.9,635.89,634,743.2
									c45.73,106.44,130.57,188.39,238.9,230.77c147.22,57.64,316.03,31.05,440.53-69.33c6.52-5.27,13.03-10.83,19.34-16.52
									c17.41-15.79,33.62-32.98,48.13-51.09c12.43-15.48,23.82-31.79,33.88-48.48c12.07-19.92,22.66-41.03,31.5-62.74
									c3.21-8,5.9-15.2,8.23-21.95c5.13-14.76,9.53-30.03,13.11-45.43c16.82-72.63,14.6-148.71-6.41-219.98l0,0
									c-37.91-128.55-131.36-230.34-256.4-279.24C1153.79,139.24,1099.5,129.08,1044.97,129.08z"/>
							</g>
						</g>
						<g>
							<g>
								<path class="st55" d="M1032.46,1031.54c-57.33,0-114.86-10.47-169.59-31.9c-115.26-45.08-205.53-132.29-254.19-245.56
									c-49.03-114.14-50.02-240.96-2.77-357.09c18.45-45.26,43.45-86.99,74.3-124.03c3.29-4.04,6.89-8.22,10.91-12.67
									c9.77-10.96,20.2-21.62,30.94-31.6c24.71-22.94,52.02-43.32,81.16-60.58c28.86-17.12,59.61-31.23,91.4-41.9
									c10.22-3.44,20.55-6.53,30.68-9.19c15.8-4.14,31.67-7.45,47.18-9.85c81.67-12.85,165.5-3.74,242.39,26.37
									c133.02,52.03,232.46,160.32,272.8,297.11l0,0c22.36,75.82,24.71,156.73,6.82,234c-3.8,16.35-8.48,32.57-13.91,48.21
									c-2.46,7.14-5.31,14.77-8.71,23.25c-9.42,23.14-20.67,45.55-33.47,66.69c-10.67,17.71-22.78,35.04-35.97,51.47
									c-15.42,19.23-32.63,37.5-51.15,54.29c-6.71,6.04-13.6,11.92-20.5,17.51C1244.82,995.39,1138.97,1031.54,1032.46,1031.54z
									 M1044.97,132.57c-22.6,0-45.23,1.75-67.7,5.29c-14.51,2.25-29.33,5.34-44.1,9.2c-9.44,2.48-19.09,5.37-28.65,8.58
									c-29.72,9.99-58.47,23.16-85.46,39.18c-27.26,16.14-52.78,35.19-75.86,56.62c-10.02,9.31-19.77,19.26-28.96,29.58
									c-3.74,4.14-7.01,7.93-10.07,11.68c-28.9,34.7-52.25,73.68-69.49,115.98c-44.09,108.36-43.18,226.67,2.55,333.12
									c45.35,105.58,129.51,186.87,236.97,228.9c146.06,57.17,313.53,30.81,437.07-68.8c6.46-5.23,12.93-10.75,19.2-16.4
									c17.27-15.65,33.34-32.71,47.74-50.67c12.33-15.36,23.64-31.54,33.61-48.1c11.98-19.77,22.49-40.71,31.26-62.26
									c3.18-7.92,5.85-15.07,8.16-21.77c5.09-14.65,9.46-29.81,13.01-45.08c16.69-72.05,14.49-147.5-6.35-218.2
									c-37.6-127.51-130.3-228.47-254.32-276.97C1152.93,142.65,1099.07,132.57,1044.97,132.57z"/>
							</g>
						</g>
						<g>
							<g>
								<path class="st55" d="M1490.72,548.59c-57.92,316.8-406.61,480.38-644.83,271.25c-162.07-142.28-144.97-411.87,4.51-559.82
									c108.79-107.68,261.72-166.1,473.62-46.1c0,0,85.36,67.65,115.49,139.34c30.13,71.69,47.21,146.64,47.21,146.64
									L1490.72,548.59z"/>
							</g>
						</g>
						<g>
							<g>
								<path class="st62" d="M845.91,819.83c238.2,209.12,586.9,45.54,644.83-271.24l-0.82-9.87
									c-170.38,242.93-499.36,327.3-744.23,120.37C762.93,719.91,795.9,775.92,845.91,819.83z"/>
							</g>
						</g>
						<g>
							<g>
								<path class="st55" d="M1083.73,976.23c-101.95,0-198.11-37.35-279.81-109.05c-82.86-72.73-130.45-178.42-134.02-297.6
									c-3.96-132.2,47.78-264.67,138.4-354.36c50.32-49.81,104.51-85.88,161.07-107.22l1.49-0.57l1.57-0.25
									c81.71-12.85,165.53-3.75,242.43,26.36c133.02,52.03,232.46,160.32,272.8,297.11v0c22.36,75.82,24.71,156.73,6.82,234
									c-3.8,16.35-8.48,32.57-13.91,48.21c-2.46,7.14-5.31,14.77-8.71,23.25c-9.42,23.14-20.67,45.55-33.47,66.69l-1.41,1.97
									c-83.64,99.15-200.84,161.2-321.57,170.25C1104.8,975.83,1094.23,976.23,1083.73,976.23z M978.85,137.62
									c-51.92,19.87-101.94,53.39-148.7,99.67c-84.6,83.74-132.91,207.61-129.2,331.36c3.31,110.47,47.15,208.2,123.46,275.19
									c83.7,73.46,183.54,108.11,288.68,100.23c112.08-8.41,221.13-66.12,299.37-158.39c11.7-19.43,21.99-40.01,30.61-61.19
									c3.18-7.92,5.85-15.07,8.16-21.77c5.09-14.65,9.46-29.81,13.01-45.08c16.69-72.05,14.49-147.5-6.35-218.2
									c-37.6-127.51-130.3-228.47-254.32-276.97C1132.28,134.56,1054.62,125.99,978.85,137.62z"/>
							</g>
						</g>
						<g>
							<g>
								<path class="st1" d="M689.52,948.16c58.74,65.89,147.57,86.11,198.41,45.13c50.84-40.98,44.43-127.62-14.31-193.51
									c-0.36-0.42-0.76-0.85-1.15-1.25c-58.73-64.9-146.78-84.58-197.26-43.88c-39.28,31.65-44.38,90.56-17.61,146.1
									C665.5,917.09,676.17,933.17,689.52,948.16z"/>
							</g>
						</g>
						<g>
							<g>
								<path class="st59" d="M689.52,948.16c58.74,65.89,147.57,86.11,198.41,45.13c50.84-40.98,44.43-127.62-14.31-193.51
									c-0.36-0.42-0.76-0.85-1.15-1.25c0.44,11.27-2.32,24.94-16.11,32.19c-24.15,12.7-98.97,0.19-98.97,0.19
									s-43.47,30-99.78,69.84C665.5,917.09,676.17,933.17,689.52,948.16z"/>
							</g>
						</g>
						<g>
							<g>
								<path class="st55" d="M823.71,1029.77c-49.43,0-104.7-25.18-145.78-71.27c-36.9-41.39-55.88-91.58-52.08-137.71
									c2.67-32.44,16.37-59.48,39.62-78.22c57.11-46.03,155.69-25,219.75,46.88c36.9,41.39,55.88,91.58,52.08,137.71
									c-2.67,32.43-16.37,59.48-39.62,78.22C877.19,1021.88,851.36,1029.77,823.71,1029.77z M739.93,748.81
									c-20.77,0-39.89,5.79-54.98,17.94c-16.46,13.27-26.2,32.84-28.16,56.59c-3.06,37.13,13.51,79.93,44.31,114.49l0,0
									c53.23,59.71,132.66,79.16,177.07,43.36c16.47-13.27,26.21-32.84,28.16-56.59c3.06-37.13-13.51-79.94-44.32-114.49
									C826.88,770.68,780.3,748.81,739.93,748.81z"/>
							</g>
						</g>
						<g>
							<g>
								
									<ellipse transform="matrix(0.6793 -0.7339 0.7339 0.6793 -422.8069 850.8102)" class="st1" cx="761.97" cy="909.12" rx="96.06" ry="127.07"/>
							</g>
							<g>
								<path class="st55" d="M792.79,1022.23c-21.81,0-45.11-6.57-67.24-19.34c-60.27-34.76-93.1-105.06-73.19-156.71
									c8.3-21.52,24.36-37.02,46.46-44.83c29.68-10.49,65.98-5.39,99.58,13.99c60.27,34.76,93.1,105.06,73.18,156.71
									c-8.3,21.52-24.36,37.02-46.46,44.83C815,1020.47,804.09,1022.23,792.79,1022.23z M731.17,799.25
									c-10.94,0-21.48,1.7-31.27,5.16c-21.17,7.49-36.56,22.33-44.51,42.94c-19.36,50.21,12.84,118.73,71.78,152.72l0,0
									c32.79,18.91,68.1,23.91,96.88,13.74c21.17-7.49,36.56-22.33,44.51-42.94c19.36-50.21-12.84-118.73-71.78-152.72
									C775.14,805.68,752.4,799.25,731.17,799.25z"/>
							</g>
						</g>
						<g class="st10">
							<g>
								<path class="st55" d="M865.76,889.12c-11.07-21.36-28.12-39.7-48.05-53.45c21.1,50.88-0.75,98.59-51.92,109.21
									c-33.07,6.88-70.78-3.35-101.61-24.64c1.31,3.22,2.85,6.46,4.52,9.7c28.22,54.39,95.22,89.34,149.64,78.06
									C872.76,996.73,893.96,943.49,865.76,889.12z"/>
							</g>
						</g>
						<g>
							<g>
								<path class="st55" d="M800.02,1034.41c-40.35,0-86.42-21.82-122.13-61.56l0,0c-31.56-35.13-48.52-78.44-45.36-115.87
									c2.08-24.69,12.5-45.12,30.12-59.1c45.65-36.2,123.95-17.22,178.26,43.23c31.56,35.13,48.52,78.44,45.36,115.87
									c-2.08,24.68-12.5,45.12-30.12,59.1C840.52,1028.48,821.04,1034.41,800.02,1034.41z M700.99,952.09
									c41.92,46.66,104.14,64.81,135.86,39.66c13.57-10.76,17.53-26.27,18.47-37.38c2.45-29.05-11.57-63.63-37.51-92.5
									c-41.93-46.67-104.14-64.82-135.86-39.65c-13.57,10.76-17.54,26.26-18.47,37.37C661.02,888.64,675.05,923.22,700.99,952.09
									L700.99,952.09z"/>
							</g>
						</g>
						<g class="st15">
							<g>
								<path class="st1" d="M844.43,406.66c0,0,146.31-127.66,299.85-124.84c0.16,0,0.32,0.01,0.48,0.01
									c32.31,0.62,63.76,9.94,91.1,26.73c36.16,22.2,57.74,42.82,76.02,61.7c55.57,57.46,70.66,94.88,70.66,94.88
									c3.93-62.25-10.64-114.68-56.44-163.01c-4.53-4.75-9.38-9.48-14.51-14.18c-1.18-1.09-2.37-2.14-3.59-3.18
									c0.01-0.04-0.02-0.05-0.08-0.05c-11.08-8.78-26.08-19.76-44.06-30.73c-54.22-33.12-135.44-66.25-217.69-38.95
									C892.35,266.09,833.8,405.28,844.43,406.66z"/>
							</g>
						</g>
						<g class="st15">
							<g>
								
									<ellipse transform="matrix(0.88 -0.475 0.475 0.88 -190.369 493.8447)" class="st1" cx="882.17" cy="623.68" rx="60.67" ry="69.7"/>
							</g>
						</g>
						<g class="st15">
							<g>
								
									<ellipse transform="matrix(0.9203 -0.3911 0.3911 0.9203 -212.1819 427.477)" class="st1" cx="943.26" cy="734.59" rx="25.05" ry="28.79"/>
							</g>
						</g>
					</g>
				</g>
			</g>
			<g>
				<g>
					<g>
						<path class="st74" d="M1608.35,247.19c-16.89-27.63-25.22-60.8-21.65-95.51c8.65-84.23,83.94-145.5,168.17-136.85
							c84.23,8.65,145.5,83.94,136.85,168.17s-83.94,145.5-168.17,136.85c-23.43-2.41-45.07-9.98-63.94-21.46l-70.95,15.91
							L1608.35,247.19z"/>
					</g>
				</g>
				<g class="st15">
					<g>
						<g>
							<path class="st1" d="M1751.86,44.16c-78.68-8.08-149.55,44.86-165.59,120.53c-0.02-5.4,0.21-10.86,0.78-16.36
								c8.65-84.23,83.94-145.5,168.17-136.85c84.23,8.65,145.5,83.94,136.85,168.17c-0.57,5.52-1.44,10.94-2.56,16.25
								C1889.21,118.52,1830.57,52.24,1751.86,44.16z"/>
						</g>
					</g>
				</g>
				<g>
					<g>
						<path class="st55" d="M1739.52,334.67c-5.78,0-11.58-0.29-17.4-0.89c-23.05-2.37-44.83-9.26-64.82-20.51l-65.57,14.7
							c-4.84,1.09-9.89-0.47-13.28-4.09c-3.39-3.62-4.61-8.76-3.22-13.52l17.99-61.32c-16.94-30.15-24-64.17-20.44-98.8
							c4.57-44.46,26.17-84.48,60.83-112.69c34.67-28.21,78.24-41.25,122.7-36.66c44.46,4.56,84.48,26.17,112.69,60.83
							s41.23,78.24,36.67,122.7s-26.17,84.48-60.83,112.69C1814.7,321.63,1777.84,334.67,1739.52,334.67z M1659.61,284.4
							c2.55,0,5.07,0.69,7.28,2.04c17.75,10.8,37.29,17.35,58.09,19.49c36.99,3.8,73.3-7.04,102.16-30.53
							c28.86-23.49,46.85-56.81,50.65-93.83c3.8-37.02-7.04-73.3-30.53-102.16s-56.81-46.85-93.83-50.65
							c-37.03-3.81-73.3,7.04-102.16,30.53s-46.85,56.81-50.65,93.83c-3.14,30.58,3.66,60.58,19.67,86.78
							c2.06,3.37,2.6,7.45,1.49,11.24l-13,44.32l47.76-10.71C1657.56,284.51,1658.59,284.4,1659.61,284.4z"/>
					</g>
				</g>
				<g class="st10">
					<g>
						<path class="st55" d="M1607.49,245.71c41.99,35.52,99.85,51.07,157.29,36.78c63.71-15.86,110.65-64.37,127.54-123.25
							c0.4,7.81,0.22,15.74-0.6,23.76c-8.65,84.23-83.94,145.5-168.17,136.85c-23.43-2.41-45.07-9.98-63.94-21.46l-70.95,15.91
							l19.69-67.12C1608.06,246.7,1607.78,246.2,1607.49,245.71z"/>
					</g>
				</g>
				<g>
					<g>
						<path class="st1" d="M1690.19,124.29L1690.19,124.29c13.27-13.27,34.78-10.89,48.05,2.38l2.06,2.07l2.07-2.07
							c13.27-13.27,34.78-15.65,48.05-2.38v0c13.27,13.27,13.27,34.78,0,48.05l-2.07,2.07l-41.71,41.71c-3.5,3.5-9.17,3.5-12.67,0
							l-41.71-41.71l-2.07-2.07C1676.92,159.07,1676.92,137.55,1690.19,124.29z"/>
					</g>
				</g>
			</g>
		</g>
	</g>
</g>
</svg>
