<?xml version="1.0" encoding="utf-8"?>
<!-- Generator: Adobe Illustrator 26.2.1, SVG Export Plug-In . SVG Version: 6.00 Build 0)  -->
<svg version="1.1" id="Layer_1" xmlns="http://www.w3.org/2000/svg" xmlns:xlink="http://www.w3.org/1999/xlink" x="0px" y="0px"
	 viewBox="0 0 2612.98 3271.79" style="enable-background:new 0 0 2612.98 3271.79;" xml:space="preserve">
<style type="text/css">
	.st0{fill:#FFFFFF;}
	.st1{fill:#371A45;}
	.st2{opacity:0.25;}
	.st3{fill:#DBAC54;}
	.st4{fill:#DD8E37;}
	.st5{fill:#DB8216;}
	.st6{fill:#C65D17;}
	.st7{opacity:0.35;}
	.st8{fill:#CD8322;}
	.st9{opacity:0.5;}
	.st10{fill:#22A7F0;}
	.st11{opacity:0.7;}
	.st12{fill:#111A28;}
	.st13{fill:#FCEF03;}
	.st14{fill:#FFCC00;}
	.st15{fill:#FFD243;}
	.st16{fill:#FFA92C;}
	.st17{opacity:0.6;}
	.st18{opacity:0.3;}
	.st19{fill:#4D1348;}
	.st20{fill:none;}
	.st21{fill:#FF0068;}
	.st22{fill:#0096F0;}
	.st23{fill:#0CCBFF;}
	.st24{fill:none;stroke:#371A45;stroke-width:37.343;stroke-linecap:round;stroke-miterlimit:10;}
	.st25{fill:#FA5CB5;}
	.st26{fill:#000072;}
	.st27{fill:#FEC267;}
	.st28{fill:#EF5050;}
	.st29{fill:#6B184E;}
	.st30{fill:#686779;}
	.st31{fill:#343C47;}
	.st32{fill:none;stroke:#6B184E;stroke-width:33.0791;stroke-linecap:round;stroke-miterlimit:10;}
	.st33{fill:#A15F43;}
	.st34{fill:#91867E;}
	.st35{fill:#FF67A0;}
	.st36{fill:#FFC00A;}
	.st37{fill:#FF6F27;}
	.st38{fill:#F6D6BF;}
	.st39{opacity:0.8;}
	.st40{fill:#18569B;}
	.st41{fill:#FFFFFF;stroke:#FFFFFF;stroke-width:22.9869;stroke-linecap:round;stroke-linejoin:round;stroke-miterlimit:10;}
	.st42{opacity:0.41;}
	.st43{fill:#FFB200;}
	.st44{fill:#FF9100;}
	.st45{fill:none;stroke:#293856;stroke-width:22.9869;stroke-linecap:round;stroke-miterlimit:10;}
	.st46{fill:#D66B09;}
	.st47{fill:#FFD766;}
	.st48{fill:#FFAA39;}
	.st49{fill:#FFCF6E;}
	.st50{fill:#FFEC90;}
	.st51{fill:#181558;}
	.st52{fill:#5F7093;}
	.st53{fill:none;stroke:#6B184E;stroke-width:35.5349;stroke-linecap:round;stroke-miterlimit:10;}
	.st54{fill:#FC727F;}
	.st55{fill:#FFA631;}
	.st56{fill:#F47B2A;}
	.st57{opacity:0.51;clip-path:url(#SVGID_00000115504269620041721800000001500094547310295954_);}
	.st58{clip-path:url(#SVGID_00000115504269620041721800000001500094547310295954_);}
	.st59{opacity:0.51;}
	.st60{fill:#FD6CCB;}
	.st61{fill:#102770;}
	.st62{fill:#B199C5;}
	.st63{fill:#7BA2FF;}
	.st64{opacity:0.2;}
	.st65{fill:#390075;}
	.st66{fill:#E9FBFF;}
	.st67{fill:#33AEF2;}
	.st68{fill:#ACE1EF;}
	.st69{fill:#2C91E5;}
	.st70{fill:#FF7196;}
	.st71{fill:#61547A;}
	.st72{fill:#47EF92;}
	.st73{fill:#60F4E9;}
	.st74{fill:#ED4F4F;}
	.st75{fill:#FB132B;}
	.st76{fill:none;stroke:#6B184E;stroke-width:35.126;stroke-linecap:round;stroke-miterlimit:10;}
	.st77{fill:#E53540;}
	.st78{fill:#FFA1A8;}
	.st79{fill:#F9D9C2;}
	.st80{fill:#F9A435;}
	.st81{clip-path:url(#SVGID_00000172408436256059288080000010016736619153515915_);}
	.st82{fill:#FFB852;}
	.st83{fill:none;stroke:#6B184E;stroke-width:36.7033;stroke-linecap:round;stroke-miterlimit:10;}
	.st84{fill:#F8FEFF;}
</style>
<g>
	<g>
		<g>
			<path class="st0" d="M1790.18,800.12c0,0-107.21-59.61-87.28-113.78c33.5-91.06,165.27,13.31,165.27,13.31L1790.18,800.12z"/>
		</g>
		<g>
			<path class="st1" d="M1790.17,818.96c-3.1,0-6.24-0.76-9.13-2.38c-12.42-6.9-120.59-69.39-95.81-136.75
				c11.35-30.85,31.98-42.46,47.29-46.77c58.76-16.52,138.45,44.77,147.35,51.81c8.15,6.46,9.53,18.31,3.07,26.46
				c-6.45,8.16-18.3,9.54-26.46,3.07c-18.67-14.74-79.65-54.73-113.79-45.08c-6.45,1.82-15.76,6.24-22.11,23.51
				c-10.81,29.39,48.4,73.88,78.77,90.82c9.08,5.06,12.34,16.53,7.29,25.62C1803.19,815.46,1796.78,818.96,1790.17,818.96z"/>
		</g>
		<g>
			<path class="st0" d="M1562.41,1867.96c0,0,463.22-153.47,500.25-749.48l-655.79,264.19L1562.41,1867.96z"/>
		</g>
		<g class="st2">
			<path class="st1" d="M2062.63,1118.47c-37.01,596-500.22,749.51-500.22,749.51l-77.04-240.43l7.56,45.69l69.47,100.71
				c0,0,232.35-83.89,222.61-133.95c-2.91-14.96-150.17-19.78-211.78,12.13c-61.61,31.91-106.23-175.83-106.23-175.83h454.36
				c59.19-90.83,108.59-206.86,130.86-353.63L2062.63,1118.47z"/>
		</g>
		<g class="st2">
			<polygon class="st1" points="1515.51,1627.55 1485.38,1627.55 1436.88,1476.3 1406.88,1382.69 1433.58,1371.95 1467.01,1476.3 
							"/>
		</g>
		<g class="st2">
			<polygon class="st1" points="1515.51,1627.55 1485.38,1627.55 1436.88,1476.3 1467.01,1476.3 			"/>
		</g>
		<g>
			<path class="st1" d="M1562.41,1886.79c-2.94,0-5.86-0.68-8.54-2.04c-4.48-2.28-7.87-6.25-9.4-11.04l-155.55-485.28
				c-3.01-9.4,1.74-19.53,10.9-23.22l655.79-264.19c6-2.42,12.81-1.59,18.06,2.19c5.24,3.78,8.18,9.99,7.78,16.44
				c-19.51,314.05-157.55,505.51-269.93,610.82c-122.05,114.39-238.31,153.75-243.19,155.38
				C1566.4,1886.48,1564.4,1886.79,1562.41,1886.79z M1430.14,1393.6l144.09,449.54c36.47-15.34,123.85-57.61,212.83-141.39
				c103.24-97.2,229.3-271.4,254.52-554.48L1430.14,1393.6z"/>
		</g>
		<g>
			<polygon class="st3" points="2594.17,833.54 2486.62,881.95 2594.17,930.4 2594.17,1285.83 2442.87,1334.05 2594.17,1358.25 
				2594.17,1555.03 18.85,1555.03 18.85,1433.17 148.21,1394.08 18.85,1362.3 18.85,1212.98 179.9,1155.49 18.85,1105.34 
				18.85,961.81 260.61,971.09 18.85,871.21 18.85,732.63 2594.17,732.63 			"/>
		</g>
		<g>
			<path class="st4" d="M2594.17,1285.83l-151.3,48.22l151.3,24.2v196.78h-652.79V967.18l562-36.78
				c24.11,145.22,90.79,27.97,90.79,27.97V1285.83z"/>
		</g>
		<g>
			<polygon class="st5" points="2503.36,833.55 2379.19,881.96 2503.36,930.42 2503.36,1285.84 2328.67,1334.06 2503.36,1358.26 
				2503.36,1555.04 18.84,1555.04 18.84,1433.18 152.19,1394.05 18.84,1362.31 18.84,1212.95 157.61,1155.5 18.84,1105.3 
				18.84,961.82 241.94,971.1 18.84,871.22 18.84,732.6 2503.36,732.6 			"/>
		</g>
		<g>
			<path class="st6" d="M1915.42,919.02c-120.45-7.63-147.53-127.66-155.91-186.42h431.05c1.22,15.68,3.58,33.29,7.39,52.93
				C2213.77,867.03,2095.77,930.42,1915.42,919.02z"/>
		</g>
		<g class="st7">
			<polygon class="st0" points="2503.36,732.62 2503.36,833.53 2502.93,833.72 2502.93,810.08 18.83,810.08 18.83,732.62 			"/>
		</g>
		<g>
			<path class="st6" d="M2425.61,900.07l77.74,30.32v355.42l-84.29,45.56c0,0-161.01,20.31-161.36-36.79
				c-0.32-51.87,167.91-43.76,167.91-288.59V900.07z"/>
		</g>
		<g>
			<path class="st6" d="M2503.36,1358.26v196.78H18.84v-121.25h466.65c-31.08-68.28-50.2-143.34-54.67-222.68
				c-19.31-343.46,337.62-637.58,681.13-656.88c343.46-19.31,698.74,243.49,718.05,586.96c5.84,104.16-14.22,203.8-54.67,292.61
				h564.02c47.61,0,86.27-38.66,86.27-86.27L2503.36,1358.26z"/>
		</g>
		<g>
			<polygon class="st8" points="2425.61,863.86 2425.61,900.07 2379.18,881.99 			"/>
		</g>
		<g>
			<polygon class="st8" points="2328.66,1334.03 2425.61,1307.29 2425.61,1347.5 			"/>
		</g>
		<g class="st9">
			<g>
				<path class="st1" d="M345.92,1069.03l63.04-1.95l63.04-1.51c42.03-0.93,84.06-2.19,126.08-2.85
					c84.06-1.64,168.11-2.69,252.16-3.73c84.06-0.66,168.11-1.62,252.16-1.75l126.08-0.44l126.08,0.05l126.08,0.05l126.08,0.5
					c84.06,0.22,168.11,0.86,252.16,1.54c168.11,1.4,336.22,3.7,504.33,7.27c5.2,0.11,9.33,4.42,9.22,9.62
					c-0.11,5.06-4.21,9.1-9.22,9.22c-168.11,3.57-336.22,5.87-504.33,7.27c-84.05,0.68-168.11,1.32-252.16,1.54l-126.08,0.5
					l-126.08,0.05l-126.08,0.05l-126.08-0.44c-84.05-0.14-168.11-1.09-252.16-1.75c-84.05-1.04-168.11-2.09-252.16-3.73
					c-42.03-0.66-84.05-1.92-126.08-2.85l-63.04-1.51l-63.04-1.95c-3.64-0.11-6.5-3.15-6.39-6.8
					C339.64,1071.92,342.47,1069.14,345.92,1069.03z"/>
			</g>
		</g>
		<g class="st9">
			<g>
				<path class="st1" d="M422.4,1329.45c141.08-5.55,282.16-8.01,423.23-10.05c70.54-0.66,141.08-1.62,211.62-1.75l105.81-0.44
					l105.81,0.05l105.81,0.05l105.81,0.5c70.54,0.22,141.08,0.86,211.62,1.54c141.08,1.4,282.16,3.7,423.23,7.27
					c5.2,0.13,9.31,4.46,9.18,9.66c-0.13,5.03-4.2,9.04-9.18,9.18c-141.08,3.57-282.16,5.87-423.23,7.27
					c-70.54,0.68-141.08,1.32-211.62,1.54l-105.81,0.5l-105.81,0.05l-105.81,0.05l-105.81-0.44c-70.54-0.14-141.08-1.09-211.62-1.75
					c-141.08-2.04-282.16-4.49-423.23-10.05c-3.64-0.14-6.48-3.21-6.33-6.85C416.2,1332.33,419,1329.6,422.4,1329.45z"/>
			</g>
		</g>
		<g class="st9">
			<g>
				<path class="st1" d="M354.78,872.57c38.92-1.09,77.83-1.89,116.75-2.6c38.92-0.67,77.83-1.7,116.75-2.09l233.5-2.85
					c77.83-0.5,155.67-1.21,233.5-1.31l116.75-0.32l116.75,0.2l233.5,0.4l116.75,0.31l116.75,0.87
					c77.83,0.67,155.67,0.95,233.5,1.94c77.83,1.08,155.67,1.79,233.5,3.34c3.9,0.08,7,3.3,6.92,7.2c-0.08,3.8-3.16,6.84-6.92,6.92
					c-77.83,1.55-155.67,2.26-233.5,3.34c-77.83,0.99-155.67,1.27-233.5,1.94l-116.75,0.87l-116.75,0.31l-233.5,0.4l-116.75,0.2
					l-116.75-0.32c-77.83-0.1-155.67-0.82-233.5-1.32l-233.5-2.85c-38.92-0.39-77.83-1.41-116.75-2.09
					c-38.92-0.71-77.83-1.51-116.75-2.6c-2.73-0.08-4.88-2.35-4.8-5.08C350.05,874.75,352.18,872.65,354.78,872.57z"/>
			</g>
		</g>
		<g>
			<path class="st1" d="M2594.15,1573.88H18.84c-10.4,0-18.84-8.43-18.84-18.84v-121.87c0-8.3,5.44-15.63,13.39-18.03l63.48-19.19
				l-62.52-15.35C5.92,1378.53,0,1370.98,0,1362.31v-149.35c0-7.96,5.01-15.06,12.51-17.74l107.95-38.52l-107.22-33.4
				C5.37,1120.85,0,1113.56,0,1105.32V961.8c0-5.12,2.09-10.02,5.78-13.57c3.69-3.55,8.74-5.45,13.78-5.25l136.37,5.24L11.65,888.61
				C4.6,885.7,0,878.83,0,871.2V732.62c0-10.4,8.44-18.84,18.84-18.84h2575.31c10.4,0,18.83,8.43,18.83,18.84v100.91
				c0,7.41-4.34,14.13-11.1,17.17l-69.4,31.26l69.4,31.26c6.76,3.04,11.1,9.76,11.1,17.17v355.43c0,8.2-5.3,15.46-13.12,17.95
				l-75.87,24.18l73.13,11.71c9.14,1.46,15.85,9.35,15.85,18.6v196.77C2612.98,1565.44,2604.55,1573.88,2594.15,1573.88z
				 M37.68,1536.21h2537.64v-161.88l-135.42-21.68c-8.61-1.38-15.15-8.49-15.81-17.19c-0.65-8.7,4.76-16.71,13.07-19.36
				l138.16-44.03V942.58l-96.42-43.44c-6.76-3.04-11.1-9.76-11.1-17.17s4.34-14.13,11.1-17.17l96.42-43.44v-69.9H37.68v107.15
				l230.14,95.08c8.43,3.48,13.15,12.51,11.21,21.43c-1.95,8.91-10.11,15.16-19.13,14.8l-222.22-8.54v110.09l147.83,46.04
				c7.74,2.41,13.07,9.5,13.23,17.6c0.16,8.1-4.87,15.4-12.5,18.12l-148.55,53.01v121.3l115,28.24c8.24,2.02,14.11,9.31,14.34,17.8
				c0.22,8.48-5.25,16.07-13.38,18.53l-115.96,35.05V1536.21z"/>
		</g>
		<g>
			<path class="st1" d="M2503.37,1573.88H519.9c-10.4,0-18.83-8.43-18.83-18.84s8.43-18.84,18.83-18.84h1964.64v-161.88
				l-135.42-21.68c-8.61-1.38-15.15-8.49-15.81-17.19c-0.65-8.7,4.76-16.71,13.07-19.36l138.16-44.03V942.58l-96.43-43.44
				c-6.76-3.04-11.1-9.76-11.1-17.17s4.34-14.13,11.1-17.17l96.43-43.44v-69.9H519.9c-10.4,0-18.83-8.43-18.83-18.84
				s8.43-18.84,18.83-18.84h1983.47c10.4,0,18.83,8.43,18.83,18.84v100.91c0,7.41-4.34,14.13-11.1,17.17l-69.4,31.26l69.4,31.26
				c6.76,3.04,11.1,9.76,11.1,17.17v355.43c0,8.2-5.3,15.46-13.12,17.95l-75.87,24.18l73.13,11.71c9.14,1.46,15.85,9.35,15.85,18.6
				v196.77C2522.2,1565.44,2513.77,1573.88,2503.37,1573.88z"/>
		</g>
		<g>
			<path class="st0" d="M1802.07,649.85c-26.8,43.98-2.17,179.97,64.08,206.24c56.56,22.44,256.54-8.67,286.21-39.09
				c33.43-34.28,25.6-114.11,0.8-132.55S1870.45,537.6,1802.07,649.85z"/>
		</g>
		<g>
			<path class="st0" d="M1802.07,649.85c-26.8,43.98-2.17,179.97,64.08,206.24c56.56,22.44,256.54-8.67,286.21-39.09
				c33.43-34.28,25.6-114.11,0.8-132.55S1870.45,537.6,1802.07,649.85z"/>
		</g>
		<g class="st2">
			<path class="st1" d="M2152.34,817.01c-29.67,30.42-229.65,61.54-286.2,39.08c-63-25-88.34-149.13-67.67-199.09
				c7.06,46.43,29.43,95.31,66.49,113.53c88.53,43.51,266.43,27.12,292.94-31.08c4.19-9.23,7.77-19.64,10.55-30.56
				C2179.27,740.77,2177.2,791.49,2152.34,817.01z"/>
		</g>
		<g>
			<path class="st1" d="M1927.59,882.27c-28.76,0-53.24-2.65-68.39-8.66c-31.46-12.48-57.43-45.16-73.11-92.02
				c-14.74-44.06-21.06-107.14-0.11-141.54l0,0c16.46-27.02,42.81-44.23,78.29-51.13c110.32-21.43,278.18,64.09,300.12,80.41
				c15.47,11.51,26.16,36.68,28.59,67.35c3.02,38-7.13,72.94-27.15,93.47C2138.18,858.51,2013.7,882.27,1927.59,882.27z
				 M1802.07,649.85l16.08,9.8c-10.29,16.89-11.81,63.74,3.66,109.98c11.92,35.62,30.62,60.76,51.28,68.96
				c53.6,21.26,244.44-12.86,265.77-34.73c12.17-12.48,18.68-37.68,16.58-64.19c-1.85-23.26-9.28-36.94-13.53-40.1
				c-18.43-13.71-175.42-92.13-270.45-73.66c-25,4.86-42.44,15.9-53.31,33.75L1802.07,649.85z"/>
		</g>
		<g>
			<path class="st0" d="M930.64,1580.62l-6.17,699.67l-2.54,288.96c0,0-316.64,35.9-417.27-82.02
				c-37.22-43.72-63.19-174.24-74.13-318.25c-13.23-175.43-4.24-370.96,33.78-453.83C525.36,1582.12,820.01,1571.84,930.64,1580.62z
				"/>
		</g>
		<g class="st2">
			<path class="st1" d="M924.47,2280.28l-2.54,288.96c0,0-316.64,35.9-417.27-82.02c-37.22-43.72-63.19-174.24-74.13-318.25
				l194.8-46.17c0,0,68.7-2.75,85.11,215.2c4.63,60.99,99.05,79.01,165.65,26.25C900.23,2345.1,915.2,2315.25,924.47,2280.28z"/>
		</g>
		<g>
			<path class="st1" d="M814.75,2593.36c-104.97,0-256.95-14.89-324.38-93.94c-48.73-57.11-74.11-232.22-81.62-377.05
				c-7.46-143.86-1.27-328.45,38.48-415.1c66.76-145.54,372.64-154.34,484.89-145.45c10.37,0.82,18.11,9.9,17.29,20.26
				c-0.82,10.37-9.82,18.06-20.26,17.29c-123.11-9.75-394.47,7.63-447.67,123.6c-30.41,66.28-44.18,222.29-35.1,397.44
				c8.9,171.55,38.1,314.04,72.67,354.55c93.04,109.07,397.75,75.9,400.81,75.56c10.41-1.16,19.67,6.26,20.84,16.59
				c1.17,10.34-6.26,19.67-16.59,20.84C919.23,2588.51,874.64,2593.36,814.75,2593.36z"/>
		</g>
		<g>
			<path class="st0" d="M446.97,2137.78l167.89,3.84c14.99,0.34,27.87,10.73,31.3,25.32c12.57,53.44,35.2,178.38-15.11,222.65
				c-41.76,36.74-112.69,36.38-155.96,3.47c-48.4-36.82-59.36-159.94-61.79-221.05C412.55,2153.02,427.97,2137.35,446.97,2137.78z"
				/>
		</g>
		<g class="st2">
			<path class="st1" d="M646.15,2166.96c12.6,53.42,35.2,178.37-15.12,222.62c-41.77,36.76-112.68,36.39-155.97,3.47
				c-29.75-22.66-45.35-77.96-53.51-131.37c8.93,26.43,21.89,47.6,37.35,61.13c88.56,77.5,146.45-22.33,146.45-22.33
				s12.14,22.88,20.91,23.75c36.68,3.66,23.22-109.87,14.89-168.46C643.46,2159.05,645.19,2162.82,646.15,2166.96z"/>
		</g>
		<g>
			<path class="st1" d="M551.43,2436.34c-31.33,0-62.88-9.37-87.74-28.29c-51.01-38.8-65.79-149.37-69.2-235.29
				c-0.57-14.22,4.83-28.2,14.8-38.34c9.99-10.15,23.91-15.76,38.12-15.46l0,0l167.89,3.84c23.58,0.54,43.81,16.91,49.2,39.83
				c16.2,68.89,35.01,191.81-21.01,241.1C618.87,2425.4,585.27,2436.34,551.43,2436.34z M446.21,2156.61
				c-3.82,0-7.38,1.49-10.06,4.21c-2.75,2.8-4.18,6.5-4.03,10.43c4.25,106.83,24.58,184.15,54.38,206.81
				c37.55,28.56,98.05,27.35,132.11-2.62c29.7-26.13,33.14-102.47,9.22-204.2c-1.46-6.21-6.97-10.65-13.39-10.8l-167.89-3.84
				C446.43,2156.61,446.32,2156.61,446.21,2156.61z"/>
		</g>
		<g>
			<path class="st1" d="M603.95,2202.8c0.6,19.26,3.11,39.65,4.18,60.21c1.14,20.6,1.37,41.7-1.6,63.19
				c-2.99,21.35-9.32,43.66-22.85,63.33c-6.71,9.77-15.2,18.6-24.86,25.75c-9.66,7.18-20.38,12.67-31.34,16.75
				c-9.76,3.64-20.61-1.33-24.25-11.08s1.33-20.61,11.08-24.25c0.44-0.16,0.88-0.31,1.32-0.44l0.07-0.02
				c16.42-4.73,30.74-13.3,41.21-26.44c10.58-13.03,17.31-30.2,21.23-48.55c3.96-18.4,5.28-37.96,5.61-57.76
				c0.43-19.89-0.62-39.87,0.24-61.07c0.22-5.51,4.87-9.79,10.37-9.56c5.25,0.21,9.39,4.45,9.57,9.62L603.95,2202.8z"/>
		</g>
		<g>
			<path class="st1" d="M558.83,1687.22c23.03-1.44,45.91-2.36,68.91-3c22.98-0.64,45.99-0.87,69.07-0.6
				c23.08,0.23,46.21,0.98,69.49,2.78c23.32,1.87,46.63,4.15,70.78,9.98c10.12,2.44,16.35,12.63,13.9,22.75
				c-2.44,10.12-12.63,16.35-22.75,13.9c-0.48-0.12-0.95-0.25-1.42-0.4l-0.11-0.03c-19.92-6.54-42.04-10.62-64.07-14.09
				c-22.12-3.46-44.61-5.97-67.18-7.96c-22.57-2.04-45.25-3.59-67.98-4.73c-22.7-1.15-45.53-2.01-68.2-2.37h-0.08
				c-4.48-0.07-8.06-3.76-7.99-8.25C551.28,1690.93,554.65,1687.49,558.83,1687.22z"/>
		</g>
		<g>
			<path class="st0" d="M1771.64,1711.96v-0.89C1772.11,1711.12,1772.11,1711.4,1771.64,1711.96z"/>
		</g>
		<g>
			<path class="st0" d="M1771.64,1711.96v-0.89C1772.11,1711.12,1772.11,1711.4,1771.64,1711.96z"/>
		</g>
		<g>
			<path class="st0" d="M1771.64,1711.07c0.47,0.05,0.47,0.33,0,0.89V1711.07z"/>
		</g>
		<g>
			<path class="st0" d="M1630.38,2239.82c0,0-53.62,379.92-108.23,727.53c0,0,148.1,40.28,149.12,129.75
				c1.29,112.71-121.48,119.91-271.87,120c-107.56,0.06-183.59-24.43-228.48-52.66c-97.81-61.51,85.69-171.45-73.95-965.5
				L1630.38,2239.82z"/>
		</g>
		<g class="st2">
			<path class="st1" d="M1666.72,3132.48c-23.3,78.91-134.53,84.54-267.31,84.64c-107.56,0.05-183.62-24.43-228.49-52.66
				c-97.81-61.52,85.67-171.47-73.94-965.54l533.41,40.93c0,0-13.6,96.22-34.09,236.18c-25.08,23.4-50.8,42.91-75.85,59.15
				c-115.07,74.6-195.74,191.9-222.19,326.47c-25.08,127.56-42.89,237.18,17.03,274.87c44.87,28.23,112.77,38.26,211.28,35.82
				C1581.76,3170.97,1628.88,3156.11,1666.72,3132.48z"/>
		</g>
		<g>
			<path class="st1" d="M1398.97,3235.93c-130.29,0-205.09-34.79-238.09-55.55c-48.07-30.23-42.37-72.13-32.04-148.19
				c16.41-120.74,46.96-345.48-50.36-829.55c-2.05-10.2,4.56-20.13,14.76-22.18c10.18-2.03,20.12,4.56,22.18,14.76
				c98.57,490.29,67.46,719.11,50.75,842.05c-10.33,75.98-11.76,94.55,14.76,111.23c29.57,18.59,97.2,49.77,218.03,49.77
				c0.14,0,0.27,0,0.42,0c100.51-0.06,193.93-3.34,232.51-42.39c14.11-14.27,20.82-33.43,20.54-58.56
				c-0.7-61.52-97.86-101.56-135.24-111.79c-9.25-2.53-15.14-11.62-13.65-21.09c53.96-343.49,107.66-723.43,108.19-727.23
				c1.46-10.3,11.02-17.41,21.28-16.02c10.3,1.46,17.47,10.99,16.02,21.28c-0.53,3.74-52.62,372.35-105.77,711.81
				c41.2,14.19,145.87,58.51,146.83,142.62c0.4,35.21-10.17,63.97-31.41,85.47c-48.85,49.44-146.33,53.52-259.28,53.57
				C1399.26,3235.92,1399.12,3235.93,1398.97,3235.93z"/>
		</g>
		<g class="st7">
			<path class="st1" d="M1193.72,2514.4c-0.78-15.1-1.73-30.7-2.92-46.85C1191.94,2483.7,1192.94,2499.3,1193.72,2514.4z"/>
		</g>
		<g class="st7">
			<path class="st1" d="M1189.79,2454.41c-0.68-8.8-1.41-17.79-2.24-26.92C1188.33,2436.62,1189.11,2445.6,1189.79,2454.41z"/>
		</g>
		<g class="st7">
			<path class="st1" d="M1183.45,2385.29c-0.87-8.39-1.82-16.97-2.83-25.64C1181.63,2368.32,1182.54,2376.9,1183.45,2385.29z"/>
		</g>
		<g class="st7">
			<path class="st1" d="M1116.7,2319.71c-0.93-10.24-1.96-20.57-3.03-31.14C1114.74,2299.14,1115.76,2309.52,1116.7,2319.71z"/>
		</g>
		<g>
			<path class="st0" d="M1621.99,2325.65c-29.12,234.45-541.57,340.79-763.87,173.82c-19.08-14.39-36.01-30.76-50.31-49.23
				c-14.3-18.38-25.93-38.87-34.46-61.57c-7.36-19.41-12.43-40.37-14.91-63.02c-20.49-185.96-20.16-397.86,3.28-628.27
				c2.91-28.74,6.14-57.77,9.8-87.07c1.13-8.96,2.25-17.91,3.42-26.91c1.36-10.08,2.72-20.21,4.13-30.38
				c7.22-52.19,15.61-105.27,25.13-159.05c8.21-46.09,6.24-47.03,9.24-93.83c3.1-46.09,176.12-48.2,349.47-20.73
				c127.59,27.01,314.3,51.11,350.78,155.16c0.61,6.75,2.02,14.02,3.85,21.52c4.41,18.01,11.44,37.14,16.83,51.95
				c12.43,33.95,30.24,99.59,47.26,183.62c16.97,83.84,33.15,185.96,42.29,292.96C1633.66,2098.14,1635.44,2217.1,1621.99,2325.65z"
				/>
		</g>
		<g>
			<path class="st0" d="M1621.98,2325.68c-29.15,234.45-541.56,340.78-763.87,173.8c-19.12-14.41-36.02-30.75-50.34-49.21
				c-14.32-18.41-25.95-38.9-34.47-61.59c-7.34-19.4-12.43-40.36-14.88-63c-0.8-7.2-1.55-14.36-2.26-21.61
				c-4.24-41.67-7.39-84.67-9.46-128.79c-7.06-147.15-2.35-307.44,14.97-477.9c0.33-3.01,0.61-6.03,0.94-9.09v-0.05
				c2.68-25.76,5.6-51.66,8.85-77.93c1.13-8.95,2.26-17.89,3.44-26.89c0.28-2.17,0.57-4.33,0.89-6.5
				c1.08-7.91,2.12-15.87,3.25-23.87c7.2-52.22,15.59-105.29,25.1-159.06c8.24-46.1,6.26-47.04,9.28-93.85
				c3.06-46.1,176.11-48.17,349.44-20.72c127.61,27.03,314.32,51.14,350.76,155.16c0.61,6.78,2.02,14.03,3.86,21.52
				c4.43,18.04,11.44,37.15,16.86,51.99c5.93,16.2,13.09,39.65,20.81,68.84c5.79,21.99,11.91,47.23,18.08,75.2
				c2.78,12.67,5.56,25.85,8.33,39.55c17,83.82,33.15,185.95,42.33,292.98C1633.66,2098.15,1635.4,2217.14,1621.98,2325.68z"/>
		</g>
		<g class="st2">
			<path class="st1" d="M869.7,2347.67c-37.2,0.28-70.02-1.79-98.65-5.18c-4.14-41.11-7.25-83.39-9.32-126.9
				c17.47,2.64,34.99,4.19,52.17,4.99c6.83,33.62,17.42,65.41,33.39,92.53C854.44,2325.26,861.92,2336.75,869.7,2347.67z"/>
		</g>
		<g>
			<path class="st1" d="M1602.42,1750.63c12.22,34.57,19.96,70.13,25.82,105.96c1.44,8.96,2.66,17.95,3.91,26.94l3.26,27.03
				c2.12,18.03,4.03,36.09,5.75,54.17c6.88,72.32,10.47,145.07,9.61,218.01c-0.59,36.47-2.41,72.98-5.53,109.46l-2.91,27.34
				c-0.49,4.56-0.88,8.99-1.81,14.13c-0.82,4.96-1.52,9.95-2.87,14.79c-4.59,19.56-12.34,38.23-22.27,55.31
				c-19.93,34.27-47.89,62.03-78.29,84.64c-30.45,22.81-63.71,40.67-97.9,55.55c-68.65,29.35-141.49,46.24-215.08,53.57
				c-73.59,7.05-148.56,4.56-221.64-12.15c-18.23-4.31-36.34-9.32-54.15-15.58c-17.78-6.33-35.28-13.66-52.3-22.23
				c-33.77-17.52-66.01-39.88-92.1-69.12c-13.08-14.5-24.68-30.47-34.37-47.57c-9.67-17.13-17.07-35.47-22.59-54.22
				c-1.25-4.72-2.83-9.38-3.77-14.16l-3.01-14.31c-1.45-9.47-3.04-19.53-3.75-28.32c-1.67-18.11-3.82-36.18-5.1-54.32
				c-11.9-144.98-11.17-290.52-1.97-435.23c9.57-144.73,27.66-288.71,52.63-431.39c3.02-17.89,6.31-35.05,7.63-51.57
				c0.69-8.3,1.04-17.24,1.55-26.32l0.78-13.65l0.43-6.86l0.11-1.72c0.12-1.07,0.31-2.37,0.52-3.55c0.48-2.37,0.81-4.9,1.75-7.03
				c3.31-9.44,9.28-15.23,14.67-19.91c5.44-4.18,10.88-7.3,16.03-9.57c10.37-4.64,20.23-7.38,29.92-9.51
				c19.34-4.11,38.13-6.04,56.8-7.19c37.29-2.13,74.03-1.15,110.6,1.11c36.55,2.35,72.88,6.19,109.04,11.17
				c9.06,1.29,17.95,2.55,27.37,4.05l6.97,1.09l6.83,1.41l13.37,2.77l52.97,10.69c35.48,7.24,71.19,14.93,106.71,24.98
				c35.45,10.16,71.01,22.31,104.73,41.2c16.78,9.51,33.05,21,47.46,35.38c14.46,14.24,26.34,32.36,33.5,52.33
				c0.51,1.41,0.83,2.85,0.97,4.28l0.02,0.22c1,10.4,3.89,22.05,7.35,33.58c3.49,11.61,7.65,23.27,11.98,35.23
				c3.54,9.78-1.51,20.58-11.29,24.13c-9.73,3.53-20.49-1.49-24.08-11.18c-4.44-11.99-8.96-24.32-12.91-37.1
				c-3.91-12.85-7.51-26.01-9.11-41.01l0.99,4.5c-5.22-13.87-13.46-26.71-24.76-37.67c-11.21-11-24.63-20.52-39.25-28.64
				c-29.39-16.16-62.52-27.63-96.31-37.1c-33.89-9.44-68.74-16.82-103.9-23.83l-53.06-10.47l-13.11-2.66l-6.41-1.3l-6.39-0.96
				l-26.13-3.75c-35.27-4.71-70.68-8.3-106.08-10.42c-35.36-2.04-70.83-2.79-105.51-0.65c-17.28,1.12-34.44,3.05-50.34,6.51
				c-7.9,1.74-15.44,4.05-21.51,6.81c-3.12,1.34-5.43,2.9-7.18,4.15c-1.26,1.23-1.95,2.06-1.45,1.35c-0.13-0.12,0.26-0.29,0.18-0.49
				c0-0.07-0.03-0.27-0.09-0.22l-0.1,1.66l-0.39,6.63l-0.7,13.34c-0.45,8.92-0.78,17.99-1.58,27.65
				c-1.58,19.44-5.15,37.73-8.09,55.37c-24.67,141.33-42.48,283.85-51.87,426.85c-9.02,142.98-9.64,286.54,2.13,428.98
				c1.27,17.82,3.39,35.55,5.04,53.33c0.76,9.18,2.11,16.93,3.33,25.26l2.56,12.15c0.78,4.07,2.16,7.96,3.2,11.95
				c4.69,15.78,10.8,31.09,18.8,45.4c8.05,14.28,17.69,27.66,28.7,39.96c21.89,24.77,49.77,44.38,79.78,60.1
				c15.16,7.69,30.92,14.37,47.07,20.18c16.19,5.75,32.83,10.42,49.66,14.47c67.55,15.73,138.55,18.47,208.32,11.99
				c69.77-6.69,139.07-22.6,203.16-49.78c31.89-13.75,62.6-30.18,89.95-50.55c27.39-20.18,51.55-44.43,68-72.58
				c8.22-14.04,14.45-29.01,18.15-44.52c3.62-14.75,4.74-33.38,6.88-50.8c3.14-35.33,5.04-70.85,5.74-106.45
				c1.08-71.23-2.19-142.68-8.72-213.88c-3.23-35.62-7.48-71.14-11.81-106.67c-3.97-35.59-7.35-71.25-7.67-107.67v-0.03
				c-0.05-5.27,4.19-9.58,9.46-9.63C1597.52,1744.23,1601.1,1746.9,1602.42,1750.63z"/>
		</g>
		<g>
			<path class="st1" d="M1356.21,2811.21c-103.66,0-189.92-22.22-195.77-23.76c-10.05-2.65-16.06-12.95-13.41-23
				c2.65-10.06,12.96-16.06,23-13.43c2.24,0.59,225.16,57.86,376.91-13.83c9.42-4.43,20.63-0.42,25.08,8.98
				c4.44,9.41,0.42,20.63-8.98,25.08C1498.31,2801.81,1423.57,2811.21,1356.21,2811.21z"/>
		</g>
		<g>
			<path class="st1" d="M1518.83,2985.89c-6.35-1.45-13.84-2.78-20.9-3.84c-7.16-1.11-14.39-2.02-21.62-2.71
				c-14.48-1.4-29.03-2.15-43.52-1.88c-14.46,0.39-28.85,1.63-42.93,4.24c-13.97,2.86-27.56,7.06-40.2,13.21l-0.37,0.18
				c-4.68,2.28-10.31,0.33-12.59-4.35c-2.12-4.36-0.53-9.58,3.47-12.1c13.78-8.63,28.7-14.98,43.96-19.79
				c15.31-4.54,30.91-7.52,46.57-9.58c15.67-1.93,31.38-2.77,47.09-2.88c7.86-0.06,15.72,0.1,23.59,0.5
				c7.98,0.38,15.52,0.88,24.06,1.91c10.35,1.24,17.73,10.62,16.49,20.97c-1.24,10.35-10.62,17.73-20.97,16.49
				c-0.66-0.08-1.3-0.19-1.94-0.33L1518.83,2985.89z"/>
		</g>
		<g>
			<path class="st0" d="M782.18,3248.16c257.98,9.63,397.56,1.25,409.05-174.27c16.55-252.46,37-546.6,37-546.6l-368.39-286.57
				l-97.06-75.48c-0.36,21.25-0.68,42.23-0.86,63.05c-5.07,437.31,17.46,773.43,17.46,773.43s-140.75,37.76-150.16,137.5
				C622.21,3213.49,691.41,3244.76,782.18,3248.16z"/>
		</g>
		<g class="st2">
			<path class="st1" d="M1230.53,2518.7c0,0-22.74,302.73-39.32,555.17c-11.49,175.55-151.06,183.93-409.01,174.27
				c-87.11-3.25-154.4-32.16-153.41-100.16c23.83,8.29,52.36,12.71,83.49,13.89c258,9.61,397.57,1.22,409.06-174.27
				c13.33-203.94,11.79-386.72,40.6-432.15C1176.48,2532.51,1230.53,2518.7,1230.53,2518.7z"/>
		</g>
		<g>
			<path class="st1" d="M1237.62,2527.92c2.45,31.13,2.29,62.07,1.63,92.97c-0.55,30.92-2.77,61.72-4.69,92.53l-11.72,184.91
				l-5.86,92.45l-2.93,46.23l-1.46,23.11c-0.51,7.74-0.89,15.21-1.69,23.63c-0.53,8.19-1.9,16.45-3.06,24.68
				c-1.67,8.26-3.23,16.51-5.73,24.73c-4.71,16.4-11.53,32.71-21.15,47.69c-9.57,14.99-21.98,28.4-36.04,39.18
				c-14.04,10.83-29.51,19.13-45.27,25.42c-31.64,12.32-63.94,18.11-95.68,21.58c-31.8,3.38-63.33,4.53-94.62,4.71
				c-31.31,0.2-62.42-0.49-93.44-1.46l-23.24-0.79l-11.63-0.43l-12.16-0.71c-16.23-1.16-32.54-2.98-48.88-6.65
				c-16.31-3.62-32.74-8.43-48.64-16.38c-15.78-7.96-31.37-19.05-43.18-34.68c-11.94-15.49-18.6-35.33-19.42-54.04
				c-0.81-18.57,1.78-36.99,8.75-53.96c3.18-8.58,7.66-16.45,12.32-24.08c4.95-7.4,10.23-14.53,16.15-20.9
				c11.67-12.93,24.93-23.72,38.74-33.1c13.86-9.34,28.4-17.16,43.29-23.94c7.45-3.39,14.99-6.51,22.65-9.35
				c7.8-2.86,15.11-5.38,23.84-7.79l0.04-0.01l-13.91,19.45c-4.38-70.01-7.5-139.67-10.14-209.51
				c-2.56-69.81-4.64-139.62-5.9-209.46c-1.28-69.83-2.16-139.68-2.16-209.53c-0.23-69.85,0.54-139.7,1.56-209.55
				c0.15-10.4,8.71-18.71,19.11-18.56c10.4,0.15,18.71,8.71,18.56,19.11v0.11c-1.02,69.6-1.79,139.22-1.56,208.84
				c0,69.62,0.88,139.24,2.16,208.86c1.26,69.61,3.33,139.21,5.88,208.78c2.61,69.52,5.75,139.21,10.08,208.4
				c0.56,9.02-5.28,16.96-13.62,19.37l-0.3,0.08l-0.01,0c-6.14,1.81-13.41,4.39-20.05,6.99c-6.77,2.65-13.46,5.56-20.01,8.69
				c-13.12,6.23-25.69,13.4-37.36,21.46c-23.19,16.06-43.02,36.41-51.87,60.21c-4.79,11.69-6.21,24.6-5.62,36.78
				c0.73,12.1,4.6,22.75,11.59,31.74c6.94,9.02,17.07,16.47,28.85,22.26c11.84,5.74,25.25,9.77,39.04,12.8
				c13.8,3.12,28.28,4.72,42.83,5.74l10.96,0.63l11.52,0.41l23.05,0.75c30.72,0.93,61.36,1.56,91.83,1.33
				c30.46-0.21,60.73-1.39,90.36-4.58c29.56-3.22,58.57-8.75,84.57-18.93c25.85-10.35,47.82-25.92,61.98-48.01
				c7.17-10.95,12.55-23.35,16.47-36.56c2.08-6.56,3.41-13.48,4.89-20.34c1.01-7.05,2.29-14.02,2.79-21.26
				c0.75-6.95,1.24-14.9,1.8-22.56l1.65-23.11l3.3-46.21l6.61-92.43l13.22-184.86c4.12-61.64,9.21-123.21,22.16-184.24
				c1.09-5.14,6.14-8.42,11.28-7.33c4.22,0.9,7.19,4.46,7.51,8.54L1237.62,2527.92z"/>
		</g>
		<g>
			<path class="st1" d="M984.66,2829.44c-130.25,0-218.44-38.63-223.92-41.09c-9.49-4.26-13.73-15.41-9.46-24.9
				c4.27-9.49,15.42-13.72,24.88-9.47c2.13,0.94,192.68,83.71,423.69-0.51c9.77-3.56,20.58,1.46,24.15,11.25
				c3.56,9.77-1.47,20.59-11.25,24.15C1129.33,2819.28,1051.46,2829.44,984.66,2829.44z"/>
		</g>
		<g>
			<path class="st1" d="M775.02,2983.33c8.88-1.01,16.78-1.51,25.12-1.88c8.23-0.39,16.44-0.55,24.66-0.49
				c16.43,0.12,32.86,0.94,49.24,2.86c16.38,2.05,32.71,4.98,48.76,9.51c16.01,4.77,31.71,11.07,46.31,19.76
				c4.47,2.66,5.94,8.44,3.28,12.91c-2.49,4.18-7.7,5.74-12.02,3.75l-0.39-0.18c-13.44-6.25-27.84-10.46-42.61-13.33
				c-14.87-2.64-30.06-3.85-45.29-4.24c-15.26-0.28-30.6,0.48-45.85,1.88c-7.62,0.7-15.24,1.61-22.8,2.72
				c-7.46,1.06-15.31,2.39-22.1,3.86l-0.2,0.04c-10.18,2.2-20.22-4.27-22.42-14.45c-2.2-10.18,4.27-20.22,14.45-22.42
				C773.77,2983.5,774.41,2983.4,775.02,2983.33z"/>
		</g>
		<g>
			<circle class="st0" cx="1634.98" cy="2205.71" r="75.98"/>
		</g>
		<g class="st7">
			<path class="st1" d="M1710.92,2207.55c-1.02,41.95-35.83,75.16-77.78,74.14c-41.95-1.02-75.16-35.89-74.14-77.84
				c0.28-11.59,3.15-22.57,8.09-32.3c11.57,25.95,37.33,44.39,67.63,45.13s56.93-16.43,69.68-41.79
				C1708.87,2184.85,1711.2,2195.96,1710.92,2207.55z"/>
		</g>
		<g>
			<path class="st1" d="M1635.04,2300.53c-0.79,0-1.58-0.01-2.37-0.03c-25.32-0.62-48.88-11.05-66.35-29.39
				c-17.47-18.34-26.74-42.38-26.13-67.7s11.05-48.88,29.39-66.35c18.34-17.47,42.49-26.77,67.7-26.13
				c25.32,0.62,48.88,11.05,66.35,29.39c17.47,18.34,26.74,42.38,26.13,67.7s-11.05,48.88-29.39,66.35
				C1682.61,2291.29,1659.48,2300.53,1635.04,2300.53z M1634.94,2148.57c-14.73,0-28.67,5.57-39.38,15.77
				c-11.05,10.53-17.34,24.73-17.71,39.99c-0.37,15.26,5.22,29.75,15.75,40.8c10.53,11.05,24.73,17.34,39.99,17.71
				c15.12,0.26,29.75-5.22,40.8-15.75c11.05-10.53,17.34-24.73,17.71-39.99l0,0c0.37-15.26-5.22-29.75-15.75-40.8
				c-10.53-11.05-24.73-17.34-39.99-17.71C1635.89,2148.57,1635.41,2148.57,1634.94,2148.57z"/>
		</g>
		<g class="st2">
			<path class="st1" d="M813.89,2220.58c-17.19-0.8-34.7-2.35-52.17-4.99c1.93,40.92,4.8,80.8,8.62,119.6h-9.18
				c-19.73-106.47-15.02-217.31-17.42-327.5l67.15-46.81C805.09,2023.42,795.39,2128.9,813.89,2220.58z"/>
		</g>
		<g class="st2">
			<path class="st1" d="M1613.88,2360.38c-40.59,116.21-210.06,198.85-388.29,217.64l4.94-59.33
				c99.83-3.53,197.44-34.66,272.97-75.48l-387.68,13.66c-47.56,1.65-87.77-35.83-89.52-83.39l-1.32-38.85
				c-43.7,6.73-83.72,10.55-120.08,12.15l-14.46-11.58h-29.34c-4.76-7.11-9.37-14.46-13.84-22.08
				c-15.96-27.12-26.56-58.91-33.39-92.53c106.7,4.9,201.07-20.86,201.07-20.86c1.84,0.99,3.63,2.03,5.42,3.11l10.17-45.77
				c-1.51-41.67,3.01-125.63,49.96-134.72c5.6-1.04,15.87,48.27,21.71,48.03l401.43-14.13c47.56-1.65,87.87,35.88,89.42,83.44
				l5.98,169.19l1.6,44.45c0.28,7.96-0.57,15.77-2.35,23.17C1603.94,2371.12,1609.17,2365.75,1613.88,2360.38z"/>
		</g>
		<g class="st2">
			<path class="st1" d="M869.7,2347.67c-37.2,0.28-70.02-1.79-98.65-5.18c-4.14-41.11-7.25-83.39-9.32-126.9
				c17.47,2.64,34.99,4.19,52.17,4.99c6.83,33.62,17.42,65.41,33.39,92.53C854.44,2325.26,861.92,2336.75,869.7,2347.67z"/>
		</g>
		<g>
			<path class="st0" d="M1551.21,2392.22l-401.42,14.09c-47.51,1.68-87.79-35.83-89.47-83.41l-7.49-213.62
				c-1.46-41.65,27.13-77.67,66.2-87.11c5.53-1.38,11.29-2.14,17.21-2.36l401.36-14.09c47.57-1.68,87.85,35.84,89.47,83.41
				l5.97,169.19l1.58,44.43C1636.3,2350.32,1598.72,2390.53,1551.21,2392.22z"/>
		</g>
		<g class="st2">
			<path class="st1" d="M1551.21,2392.22l-401.42,14.09c-47.51,1.68-87.79-35.83-89.47-83.41l-7.49-213.62
				c-1.46-41.65,27.13-77.67,66.2-87.11c23.33,14.34,38.14,23.52,38.14,23.52c25.56,170.78,22.49,298.16,287.92,271.19
				c91.51-9.3,152.01-38.42,187.95-58.56l1.58,44.43C1636.3,2350.32,1598.72,2390.53,1551.21,2392.22z"/>
		</g>
		<g>
			<path class="st1" d="M1161.88,2424.67c-30.63,0-59.74-11.48-82.39-32.6c-23.72-22.1-37.4-52.01-38.53-84.22l-6.4-182.19
				c-1.13-32.2,10.42-62.99,32.52-86.71c22.1-23.71,52.01-37.4,84.22-38.53l369.93-12.99c32.15-1.08,63,10.42,86.71,32.52
				c23.72,22.1,37.4,52.01,38.53,84.22l6.4,182.19c1.13,32.2-10.42,63-32.52,86.71c-22.1,23.72-52.01,37.4-84.22,38.53
				l-369.94,12.99C1164.76,2424.64,1163.32,2424.67,1161.88,2424.67z M1525.52,2025.03c-0.98,0-1.97,0.02-2.96,0.05l-369.93,12.99
				c-22.15,0.78-42.74,10.21-57.98,26.57c-15.24,16.35-23.21,37.55-22.43,59.7l6.4,182.19c0.78,22.15,10.21,42.74,26.56,57.98
				c16.35,15.24,37.56,23.17,59.7,22.43h0l369.94-12.99c22.15-0.78,42.74-10.21,57.98-26.56c15.24-16.35,23.21-37.56,22.43-59.71
				l-6.4-182.19c-0.78-22.15-10.21-42.74-26.56-57.98C1566.65,2032.95,1546.59,2025.03,1525.52,2025.03z"/>
		</g>
		<g>
			<path class="st0" d="M1567.27,2390.07c-5.16,1.26-10.5,1.98-16.06,2.15l-401.42,14.09c-34.82,1.21-65.74-18.57-80.42-48.04
				c-5.36-10.7-8.57-22.68-8.98-35.37l-3.37-94.9l-1.11-31.31l-3.07-87.41c-1.68-47.57,35.9-87.79,83.41-89.47l86.74-3.02
				c-39.72,8.94-68.92,45.25-67.47,87.32l4.02,115.39l3.47,98.29c1.68,47.51,41.96,85.09,89.47,83.41L1567.27,2390.07z"/>
		</g>
		<g class="st2">
			<path class="st1" d="M1567.27,2390.07c-5.16,1.26-10.5,1.98-16.06,2.15l-401.42,14.09c-47.51,1.68-87.79-35.83-89.41-83.4
				l-4.48-126.21c10.88,21.95,29.98,48.68,59.1,50.54c15.98,1.05,31.25-10.96,44.52-27.73l3.47,98.29
				c1.68,47.51,41.96,85.09,89.47,83.41L1567.27,2390.07z"/>
		</g>
		<g>
			<path class="st1" d="M1146.66,2425.21c-26.62,0-51.92-9.99-71.62-28.35c-20.63-19.24-32.53-45.26-33.5-73.28l-7.5-213.64
				c-2.07-58.01,43.49-106.9,101.55-108.97l86.71-3.03c9.91-0.5,18.09,6.77,19.34,16.41c1.25,9.64-5.05,18.64-14.53,20.79
				c-31.71,7.16-53.91,35.9-52.76,68.33l7.5,213.65c0.62,17.97,8.27,34.67,21.54,47.05c13.27,12.36,30.44,18.85,48.39,18.19
				l314.85-11.08c9.59-0.42,18.04,6.71,19.33,16.31c1.29,9.59-4.91,18.61-14.33,20.84c-6.52,1.54-13.2,2.42-19.87,2.62l-401.3,14.11
				C1149.18,2425.19,1147.92,2425.21,1146.66,2425.21z M1157.77,2037.89l-20.86,0.73c-37.29,1.33-66.56,32.73-65.23,70l7.5,213.65
				c0,0,0,0,0,0.01c0.62,17.96,8.27,34.66,21.54,47.04s30.57,18.86,48.4,18.19l23.51-0.83c-17.51-18.63-27.55-42.61-28.43-68.25
				l-7.5-213.63C1135.82,2080.01,1143.7,2056.61,1157.77,2037.89z"/>
		</g>
		<g>
			<path class="st10" d="M1317.6,2207.13c0.23,7.9-9,72.01-9,72.01s-20.21,0.59-45.02,1.32c-31,0.91-57.07-30.45-58.23-70.04
				s23.02-72.42,54.02-73.33c20.92-0.61,45.02-1.32,45.02-1.32S1317.22,2194.26,1317.6,2207.13z"/>
		</g>
		<g class="st7">
			<path class="st1" d="M1317.6,2207.13c0.23,7.9-9,72.01-9,72.01s-20.21,0.59-45.02,1.32c-31,0.91-57.07-30.45-58.23-70.04
				s23.02-72.42,54.02-73.33c20.92-0.61,45.02-1.32,45.02-1.32S1317.22,2194.26,1317.6,2207.13z"/>
		</g>
		<g>
			<path class="st1" d="M1262.23,2292.98c-18.28,0-35.46-8.6-48.56-24.36c-12.77-15.37-20.17-35.9-20.81-57.83
				c-0.64-21.92,5.53-42.86,17.38-58.95c12.53-17.01,29.85-26.68,48.76-27.24l45.01-1.32c5.93-0.21,11.28,3.95,12.57,9.81
				c2.19,9.96,13.11,60.31,13.51,73.67c0,0,0,0,0,0.01c0.24,8.33-6.92,58.86-9.13,74.15c-0.87,6.02-5.93,10.53-12.01,10.71
				l-45.01,1.32C1263.37,2292.97,1262.8,2292.98,1262.23,2292.98z M1294.36,2148.57l-34.62,1.02c-11.06,0.32-21.5,6.39-29.37,17.08
				c-8.55,11.61-13,27.02-12.52,43.39c0.48,16.37,5.83,31.49,15.04,42.58c8.49,10.21,19.07,15.71,30.33,15.33l34.49-1.02
				c3.86-27.42,7.41-55.02,7.4-59.49C1304.87,2200.07,1299.07,2170.72,1294.36,2148.57z"/>
		</g>
		<g>
			
				<ellipse transform="matrix(0.9996 -0.0294 0.0294 0.9996 -64.2471 39.3098)" class="st10" cx="1306.49" cy="2207.45" rx="56.15" ry="71.71"/>
		</g>
		<g class="st7">
			<path class="st1" d="M1250.37,2209.12c1.15,39.57,27.22,70.94,58.21,70.04c31.03-0.91,55.22-33.75,54.02-73.37
				c-0.14-5.34-0.78-10.57-1.82-15.57c-7.17,27.43-27.14,47.41-51.21,48.08c-26.77,0.79-49.9-22.49-56.39-54.42
				C1251.1,2191.76,1250.13,2200.27,1250.37,2209.12z"/>
		</g>
		<g class="st11">
			<path class="st0" d="M1250.37,2209.12c0.07,2.69,0.27,5.35,0.61,7.96c5.25-31.2,26.6-54.78,52.78-55.53
				c28.88-0.82,53.53,26.35,57.6,62.12c0.99-5.77,1.41-11.72,1.24-17.88c-1.15-39.57-27.22-70.94-58.21-70.04
				C1273.4,2136.7,1249.22,2169.5,1250.37,2209.12z"/>
		</g>
		<g>
			<path class="st1" d="M1307.29,2291.66c-37.1,0-68.08-36.45-69.42-82.19c-0.64-21.92,5.53-42.86,17.38-58.95
				c12.53-17.01,29.85-26.68,48.76-27.24c19.05-0.46,36.77,8.09,50.28,24.33c12.78,15.37,20.17,35.9,20.81,57.83
				c0.64,21.92-5.53,42.86-17.38,58.95c-12.53,17.01-29.85,26.68-48.76,27.24C1308.4,2291.65,1307.84,2291.66,1307.29,2291.66z
				 M1305.69,2148.25c-0.31,0-0.62,0-0.94,0.01c-11.06,0.32-21.5,6.39-29.37,17.08c-8.55,11.61-13,27.02-12.52,43.39
				c0.95,32.2,20.78,57.92,44.41,57.92c0.32,0,0.64,0,0.96-0.01c11.06-0.32,21.5-6.39,29.37-17.08c8.55-11.61,13-27.02,12.52-43.39
				c-0.48-16.37-5.82-31.49-15.04-42.58C1326.83,2153.67,1316.43,2148.25,1305.69,2148.25z"/>
		</g>
		<g>
			<path class="st1" d="M1426.37,2409.18c-7.72,0-14.03-6.22-14.12-13.96l-1.24-108.14c-0.34-29.88,14.21-57.74,38.94-74.53
				c17.28-11.72,27.19-31.18,26.53-52.05l-4.82-152.37c-0.24-7.8,5.87-14.32,13.67-14.57c7.99-0.25,14.32,5.88,14.57,13.67
				l4.82,152.37c0.97,30.6-13.57,59.13-38.9,76.32c-16.87,11.45-26.79,30.45-26.56,50.83l1.24,108.14
				c0.09,7.8-6.16,14.2-13.96,14.29C1426.48,2409.18,1426.42,2409.18,1426.37,2409.18z"/>
		</g>
		<g>
			<path class="st0" d="M730.2,2118.1c0,0-32.68,28.53-29.3,73.31c3.9,51.77,38.09,73.22,38.09,73.22s116.46,77.05,365.92,29.46
				c0,0,56.51-83.71-22.13-132.5C1082.78,2161.58,857.26,2231.93,730.2,2118.1z"/>
		</g>
		<g class="st2">
			<path class="st1" d="M700.83,2190.39C700.83,2190.4,700.83,2190.4,700.83,2190.39c3.52,52.49,38.17,74.23,38.17,74.23
				s116.44,77.03,365.9,29.47c0,0,43.18-63.99,1.53-112.68c-0.01,0.32-0.03,0.64-0.05,0.96c-1.78,32.81-24.2,59.46-52.72,63.87
				c-226.62,34.99-332.76-35.2-332.76-35.2S710.7,2204.65,700.83,2190.39z"/>
		</g>
		<g>
			<path class="st1" d="M949.9,2328.5c-146.32,0-217.48-45.63-221.3-48.17c-1.34-0.83-41.92-26.95-46.48-87.51
				c-4.03-53.56,34.08-87.5,35.7-88.92c7.16-6.25,17.87-6.19,24.96,0.16c117.48,105.25,332.25,40.2,334.41,39.53
				c5.22-1.63,10.89-0.9,15.53,1.98c26.53,16.46,42.86,38.24,48.53,64.72c10.22,47.77-19.45,92.45-20.72,94.33
				c-2.81,4.16-7.15,7.03-12.08,7.96C1048.18,2324.08,995.39,2328.5,949.9,2328.5z M732.47,2144.37
				c-6.82,10.06-14.28,25.87-12.79,45.62c3.1,41.13,29.06,58.52,29.32,58.68c1.41,0.92,112.25,70.53,343.99,28.48
				c5.95-11.24,16.5-35.57,11.37-59.16c-3.06-14.05-11.2-25.84-24.8-35.87C1036.79,2193.83,853.57,2236.39,732.47,2144.37z"/>
		</g>
		<g>
			<g>
				<path class="st0" d="M895.75,1522.33c0,0-508.97,370.84-452.4,794.97c29.44,220.67,177.38,230.46,267.88,213.95
					c59.5-10.85,55.39-16.43,91.02-33.13c34.44-16.15,89.79-19.9,140.55-23.75c96.32-7.31,165.45-253.07,28.46-333.82
					c-84-49.52-155.43,2.86-178.62,10.48c-9.72-10.52-21.43-107.29,18.24-190.17L895.75,1522.33z"/>
			</g>
			<g>
				<path class="st1" d="M906.84,1537.56c-17.43,12.99-35.1,27.4-52.17,41.81c-17.16,14.48-33.99,29.38-50.48,44.66
					c-33.01,30.51-64.83,62.34-95.1,95.52c-60.47,66.35-115.08,138.18-158.93,215.86c-21.87,38.83-40.99,79.12-56.2,120.73
					c-14.93,41.68-25.84,84.68-31.46,128.26c-5.66,43.56-5.9,87.68-0.36,131.1c5.98,43.23,17.44,85.82,39.25,121.44
					c11.1,17.52,24.39,33.48,40.59,45.71c7.95,6.29,16.6,11.65,25.72,16.15c9.07,4.57,18.62,8.31,28.54,11.07
					c19.78,5.74,40.8,8.04,62,7.78c10.6-0.11,21.27-0.86,31.9-2.22c5.32-0.69,10.63-1.47,15.93-2.41
					c5.32-0.96,10.92-1.98,16.22-3.11c10.68-2.24,21.23-4.65,30.17-8c4.52-1.67,8.64-3.58,13.27-6.04l15.09-8.14
					c5.46-2.8,10.45-5.38,16.49-7.99c3.03-1.36,6.05-2.58,9.06-3.62c3.02-1.16,6.02-2.09,9.02-3.01c12-3.66,23.85-6.14,35.6-8.14
					c23.49-3.93,46.61-5.97,69.45-7.79l17.06-1.31c1.36-0.11,2.95-0.2,4.13-0.34l2.88-0.49l2.9-0.39l2.88-0.92
					c7.71-2.3,15.43-6.85,22.58-12.9c7.08-6.24,13.53-13.78,19.38-21.97c5.73-8.35,10.8-17.36,15.24-26.77
					c8.76-18.92,14.8-39.41,18.46-60.21c3.39-20.86,4.25-42.11,2.15-62.84c-2.23-20.7-7.76-40.75-16.66-58.79
					c-9.07-17.94-21.98-33.4-37.74-45.39c-3.96-2.97-8.24-5.54-12.39-8.28l-13.4-6.99l-13.91-5.36c-4.79-1.13-9.48-2.78-14.31-3.62
					c-19.3-3.56-39.34-2.63-59.01,2.91c-9.87,2.51-19.59,6.4-29.38,10.63c-4.9,2.13-9.79,4.49-14.93,6.94l-8.05,3.8
					c-1.52,0.67-2.6,1.26-4.49,1.99l-5.3,2.04c-7.06,2.73-14.81,0.56-19.5-4.85l-0.22-0.26l-0.04-0.05
					c-1.13-1.26-2.2-2.63-3.14-4.01l-1.66-2.83c-0.98-1.81-1.56-3.16-2.21-4.67c-1.14-2.72-1.95-5.24-2.68-7.65
					c-1.44-4.8-2.39-9.28-3.21-13.79c-1.65-8.94-2.44-17.7-2.96-26.43c-0.44-8.73-0.36-17.4-0.05-26.05
					c0.48-8.65,1.27-17.25,2.36-25.82c2.6-17.06,5.93-34.1,11.9-50.4c5.92-16.26,14.02-31.91,25.28-45.31
					c3.45-4.11,9.59-4.64,13.7-1.19c2.73,2.29,3.88,5.76,3.34,9.04l-0.05,0.28c-2.7,16.04-5.79,31.12-8.33,46.33
					c-2.51,15.17-5.02,30.28-6.03,45.59c-0.64,7.63-1.02,15.28-1.12,22.92c-0.26,7.63-0.17,15.25,0.11,22.8
					c0.21,7.55,0.81,15.04,1.56,22.22c0.45,3.53,0.9,7.09,1.48,10.18l0.85,4.04c0.09,0.39,0.23,0.95,0.16,0.95
					c-0.05-0.06-0.13-0.1-0.22-0.13c-0.34-0.56-0.81-1.12-1.33-1.56l-0.02-0.02l-19.72-5.11c1.74-0.74,3.39-1.29,5.95-2.53
					l7.37-3.49c5.12-2.44,10.48-5.03,16-7.44c11.05-4.79,22.54-9.38,34.72-12.52c24.08-6.8,50.64-8.35,76.04-3.54
					c6.35,1.13,12.5,3.15,18.73,4.75c6.03,2.16,11.96,4.58,17.91,6.91l16.85,8.78c5.36,3.46,10.83,6.82,15.96,10.66
					c20.49,15.48,37.35,35.88,48.76,58.55c11.27,22.76,17.85,47.26,20.49,71.75c2.5,24.53,1.46,49.1-2.46,73.12
					c-4.21,23.97-11.11,47.48-21.46,69.85c-5.25,11.16-11.34,22.03-18.49,32.43c-7.35,10.31-15.7,20.19-25.73,28.98
					c-10.18,8.63-22.26,16.19-36.35,20.42c-1.76,0.53-3.5,1.08-5.28,1.55l-5.53,0.9l-5.55,0.8l-4.36,0.36l-16.95,1.3
					c-22.5,1.77-44.73,3.79-66.11,7.37c-10.66,1.81-21.11,4.03-30.87,7.02c-2.44,0.75-4.87,1.49-7.16,2.39
					c-2.37,0.81-4.62,1.73-6.78,2.7c-2.11,0.84-4.63,2.12-7.03,3.26l-7.17,3.63l-14.93,8.05c-5.4,2.88-11.6,5.81-17.76,8.06
					c-12.4,4.58-24.13,7.13-35.68,9.58c-45.81,9.87-96.06,13.11-144.08-0.73c-11.98-3.35-23.72-7.92-34.96-13.57
					c-11.26-5.57-22.05-12.26-31.95-20.06c-20.14-15.27-36.44-34.85-49.58-55.7c-12.95-21.04-22.4-43.63-29.5-66.55
					c-7.08-22.95-11.83-46.3-15.04-69.67c-6.01-46.86-5.72-94.38,0.34-140.98c6.02-46.63,17.65-92.29,33.4-136.24
					c16.03-43.86,36.05-86,58.8-126.4c45.63-80.82,101.92-154.71,163.92-222.76c31.04-34.03,63.6-66.59,97.39-97.82
					c16.88-15.63,34.11-30.89,51.71-45.74c17.7-14.91,35.26-29.29,54.31-43.48c8.34-6.22,20.14-4.49,26.36,3.85
					c6.21,8.34,4.49,20.14-3.85,26.35v0L906.84,1537.56z"/>
			</g>
		</g>
		<g class="st2">
			<path class="st1" d="M942.8,2474.38c-50.73,3.85-106.11,7.61-140.55,23.77c-35.61,16.68-31.52,22.27-91.04,33.12
				c-90.47,16.49-238.44,6.72-267.84-213.97l20.53-19.87c47.73,156,173.33,161.77,253.71,147.4
				c52.28-9.35,131.53-46.58,216.91-42.61c68.73,3.19,96.69-70.26,112.42-134.34C1056.8,2363.53,1005.6,2469.59,942.8,2474.38z"/>
		</g>
		<g>
			<path class="st1" d="M704.66,2336.31c-1.26-9.71-1.5-18.37-1.43-27.52c0.19-9.02,0.84-18.04,1.99-27.01
				c2.28-17.94,6.52-35.75,12.96-52.88c6.35-17.13,14.42-33.87,24.83-49.15c4.83-7.93,10.75-15.03,16.52-22.31
				c2.77-3.76,6.12-6.95,9.27-10.35l9.62-10.09c7.19-7.54,19.14-7.83,26.68-0.63c7.54,7.19,7.82,19.14,0.63,26.68
				c-0.38,0.4-0.78,0.78-1.18,1.14l-1.21,1.06l-8.95,7.85c-2.95,2.65-6.15,5.11-8.75,8.11c-5.46,5.77-11.18,11.38-15.9,17.81
				c-10.2,12.31-18.49,26.17-25.47,40.72c-7.06,14.54-12.32,30.07-15.85,46.05c-0.96,3.98-1.55,8.03-2.36,12.06
				c-0.64,4.04-1.18,8.11-1.67,12.19c-0.84,8.03-1.29,16.62-1.02,24.06l0.02,0.66c0.18,5.19-3.87,9.55-9.07,9.74
				C709.44,2344.67,705.3,2341.06,704.66,2336.31z"/>
		</g>
		<g>
			<path class="st1" d="M445.65,2351.27c-0.4,0-0.81-0.01-1.21-0.04c-10.37-0.66-18.24-9.57-17.6-19.94
				c0.3-4.86,8.4-119.99,99.79-199.36c63.4-55.06,150.25-78.69,258.18-70.13c10.37,0.82,18.11,9.89,17.29,20.26
				c-0.82,10.37-9.81,18.15-20.26,17.29c-97.3-7.68-174.71,12.75-230.17,60.73c-79.49,68.76-87.17,172.53-87.24,173.57
				C463.78,2343.61,455.5,2351.27,445.65,2351.27z"/>
		</g>
		<g>
			<path class="st0" d="M525.38,1318.8l17,0.25c6.19,0.09,11.28-4.85,11.38-11.04l5.46-368.44c0.09-6.19-4.85-11.28-11.04-11.38
				l-17-0.25c-64.95-0.96-118.38,50.91-119.34,115.85l-2.31,155.67C408.56,1264.41,460.43,1317.84,525.38,1318.8z"/>
			<path class="st1" d="M542.55,1322.44c-0.08,0-0.15,0-0.22,0l-17-0.25l0,0c-66.71-0.99-120.18-56.07-119.19-122.78l2.31-155.66
				c0.48-32.31,13.52-62.51,36.7-85.02c23.19-22.51,54.03-34.63,86.07-34.17l17,0.25c3.9,0.06,7.54,1.63,10.26,4.43
				s4.18,6.48,4.12,10.38l-5.46,368.44c-0.06,3.9-1.63,7.54-4.43,10.25C549.96,1320.98,546.36,1322.44,542.55,1322.44z
				 M525.42,1315.42l17,0.25c2.1-0.08,4.07-0.75,5.57-2.21c1.5-1.46,2.34-3.41,2.37-5.5l5.46-368.44c0.03-2.09-0.75-4.06-2.21-5.57
				c-1.46-1.5-3.41-2.34-5.5-2.37l-17-0.25c-30.44-0.49-59.37,11-81.26,32.25c-21.89,21.25-34.2,49.76-34.65,80.27l-2.31,155.66
				C411.97,1262.49,462.45,1314.48,525.42,1315.42L525.42,1315.42z"/>
		</g>
		<g class="st2">
			<path class="st1" d="M410.62,1125.5l-0.88,58.45c-1.08,73.49,57.63,133.99,131.16,135.1c7.01,0.11,12.77-5.52,12.88-12.53
				l1.47-97.16c-2.03,4.4-6.51,7.39-11.66,7.36l-8.67-0.15C476.83,1215.73,427.95,1177.75,410.62,1125.5z"/>
		</g>
		<g>
			<path class="st1" d="M542.55,1337.89c-0.16,0-0.31,0-0.46,0l-16.99-0.25l0,0c-75.23-1.12-135.52-63.23-134.41-138.45l2.31-155.66
				c0.54-36.44,15.24-70.49,41.39-95.88c26.15-25.39,60.83-38.96,97.06-38.53l17,0.25c8.02,0.12,15.52,3.35,21.11,9.11
				c5.6,5.76,8.61,13.35,8.49,21.38l-5.46,368.44c-0.12,8.03-3.36,15.52-9.12,21.12C557.82,1334.89,550.41,1337.89,542.55,1337.89z
				 M525.65,1299.97l9.38,0.14l5.24-353.2l-9.38-0.14c-26.24-0.4-51.33,9.51-70.27,27.89c-18.93,18.38-29.57,43.03-29.96,69.41
				l-2.31,155.66C427.55,1254.19,471.2,1299.15,525.65,1299.97L525.65,1299.97z"/>
		</g>
		<g>
			<path class="st0" d="M1768.59,946.29l-17-0.25c-6.19-0.09-11.28,4.85-11.38,11.04l-5.46,368.44
				c-0.09,6.19,4.85,11.28,11.04,11.38l17,0.25c64.95,0.96,118.38-50.91,119.34-115.85l2.31-155.67
				C1885.41,1000.69,1833.54,947.25,1768.59,946.29z"/>
			<path class="st1" d="M1764.59,1340.55c-0.62,0-1.23,0-1.85-0.01l-17-0.25c-3.9-0.06-7.54-1.63-10.25-4.43
				c-2.71-2.8-4.18-6.48-4.12-10.38l5.46-368.44c0.06-3.9,1.63-7.54,4.43-10.25c2.8-2.72,6.6-4.19,10.38-4.12l16.99,0.25l0,0
				c32.32,0.48,62.51,13.52,85.02,36.7c22.51,23.19,34.64,53.76,34.17,86.07l-2.31,155.66c-0.48,32.31-13.52,62.51-36.7,85.02
				C1826.07,1328.45,1796.22,1340.55,1764.59,1340.55z M1751.43,949.42c-2.05,0-3.97,0.78-5.45,2.21c-1.5,1.46-2.34,3.41-2.37,5.5
				l-5.46,368.44c-0.03,2.09,0.75,4.06,2.21,5.57c1.46,1.5,3.41,2.34,5.5,2.37l17,0.25c30.57,0.52,59.37-11,81.26-32.25
				s34.2-49.76,34.65-80.27l2.31-155.66c0.45-30.51-11-59.37-32.25-81.26c-21.25-21.89-49.76-34.2-80.27-34.65l-16.99-0.25
				C1751.51,949.42,1751.46,949.42,1751.43,949.42z"/>
		</g>
		<g class="st2">
			<path class="st1" d="M1736.25,1222.65l-1.49,101.39c-0.11,7,5.52,12.77,12.53,12.88c38.59,0.56,73.62-15.34,98.33-41.24
				c22.32-23.39,36.21-54.97,36.73-89.88l0.78-52.52c-21.55,45.77-68.53,77.18-122.43,76.39l-13.34-0.2
				C1742.5,1229.39,1738.4,1226.64,1736.25,1222.65z"/>
		</g>
		<g>
			<path class="st1" d="M1764.59,1356c-0.69,0-1.39,0-2.08-0.01l-17-0.25c-8.03-0.12-15.53-3.36-21.11-9.12
				c-5.59-5.76-8.6-13.35-8.48-21.37l5.46-368.44c0.12-8.03,3.36-15.52,9.12-21.12c5.76-5.59,13.44-8.63,21.38-8.48l16.99,0.25l0,0
				c36.45,0.54,70.5,15.24,95.88,41.39c25.39,26.15,39.07,60.62,38.53,97.07l-2.31,155.66c-0.54,36.44-15.24,70.49-41.39,95.88
				C1833.93,1342.36,1800.26,1356,1764.59,1356z M1753.7,1318.18l9.37,0.14c26.31,0.41,51.33-9.51,70.27-27.89
				c18.93-18.38,29.57-43.03,29.96-69.41l2.31-155.66c0.39-26.38-9.51-51.34-27.89-70.27c-18.37-18.93-43.03-29.57-69.41-29.96
				l-9.37-0.14L1753.7,1318.18z"/>
		</g>
		<g class="st2">
			<path class="st1" d="M1573.24,1652.13c-61.61,25.56-160.55,185.93-391.35,201.72c-316.34,21.64-481.54-215.42-513.52-257.04
				l886.79-19.88C1560.95,1598.92,1567.07,1624.16,1573.24,1652.13z"/>
		</g>
		<g>
			<circle class="st0" cx="1146.91" cy="1132.55" r="622.89"/>
			<path class="st1" d="M1146.1,1758.84c-154.01,0-300.72-55.85-416.48-159.29c-124.74-111.46-198.61-264.83-208-431.85
				S568.45,840,679.91,715.26c111.46-124.74,264.83-198.61,431.85-208c344.88-19.43,641.05,245.35,660.44,590.13
				c19.38,344.79-245.35,641.05-590.13,660.43C1170.04,1758.5,1158.05,1758.84,1146.1,1758.84z M1147.29,513.03
				c-11.66,0-23.37,0.33-35.16,0.99c-165.21,9.29-316.92,82.36-427.18,205.75C574.7,843.16,519.09,1002.1,528.38,1167.32
				c9.29,165.21,82.36,316.92,205.75,427.18c123.39,110.25,282.31,165.84,447.55,156.57c341.05-19.17,602.92-312.24,583.75-653.3
				C1746.92,768.5,1473.11,513.03,1147.29,513.03z"/>
		</g>
		<g class="st2">
			<path class="st1" d="M526.12,1081.08c-2.38,28.34-2.77,57.19-1.13,86.43c19.36,343.46,313.43,606.23,656.89,586.96
				c343.46-19.35,606.23-313.43,586.96-656.89c-0.55-9.88-1.33-19.75-2.35-29.46c-24.91,305.09-271.57,552.78-585.82,570.46
				C847.08,1657.31,560.13,1409.99,526.12,1081.08z"/>
		</g>
		<g>
			<path class="st1" d="M1146.08,1774.29c-157.81,0-308.13-57.24-426.76-163.23c-127.81-114.2-203.5-271.37-213.12-442.5l0,0
				c-9.62-171.14,47.97-335.78,162.19-463.6c114.21-127.81,271.36-203.51,442.5-213.13c353.36-19.83,656.87,251.4,676.73,604.69
				c19.86,353.29-251.4,656.87-604.69,676.73C1170.61,1773.95,1158.32,1774.29,1146.08,1774.29z M1147.28,528.48
				c-11.37,0-22.79,0.32-34.28,0.96c-161.09,9.06-309.02,80.3-416.52,200.62c-107.51,120.31-161.73,275.29-152.67,436.38l0,0
				c9.06,161.09,80.3,309.02,200.62,416.52c120.31,107.51,275.26,161.68,436.38,152.67c332.55-18.7,587.89-304.45,569.2-637
				C1731.96,777.58,1464.97,528.48,1147.28,528.48z"/>
		</g>
		<g>
			<path class="st1" d="M527.89,1183.37c5,121.79,49.18,233.23,120.63,324c53.57,68.05,266.98,182.24,524.38,173.98
				c238.66-7.66,450.51-143.77,498.31-215.99c63.77-96.33,98.66-211.02,93.66-332.81c-13.24-322.28-295.62-444.51-637.22-430.48
				C786.06,716.11,514.65,861.09,527.89,1183.37z"/>
		</g>
		<g>
			<path class="st1" d="M1145.56,1700.62c-260.25,0.01-460.52-116.41-511.84-181.6c-76.54-97.23-119.65-213.05-124.65-334.88l0,0
				c-6.53-159.04,52.23-284.3,174.64-372.31c106.53-76.58,259.78-121.04,443.17-128.58c183.35-7.53,339.77,24.21,452.22,91.8
				c129.22,77.67,198.06,197.69,204.59,356.73c5.01,121.84-28.45,240.79-96.77,343.98c-50.47,76.25-265.21,216.46-513.41,224.41
				C1164.14,1700.48,1154.79,1700.62,1145.56,1700.62z M1179.28,719.84c-16.69,0-33.63,0.35-50.85,1.06
				c-180.3,7.4-597.92,67.22-581.72,461.7v0c4.68,113.87,45,222.15,116.62,313.12c45.86,58.26,237.98,167.22,482.64,167.23
				c8.72,0,17.49-0.14,26.34-0.42c231.97-7.45,437.88-139.08,483.21-207.56c63.91-96.54,95.22-207.76,90.54-321.63
				c-5.98-145.58-68.68-255.26-186.36-325.99C1463.96,749.8,1333.19,719.84,1179.28,719.84z"/>
		</g>
		<g class="st9">
			
				<ellipse transform="matrix(0.9758 -0.2185 0.2185 0.9758 -229.6556 186.2383)" class="st0" cx="727.11" cy="1131.33" rx="79.88" ry="110.23"/>
		</g>
		<g class="st9">
			
				<ellipse transform="matrix(0.9363 -0.3513 0.3513 0.9363 -419.4906 378.64)" class="st0" cx="833.83" cy="1345.49" rx="43.42" ry="50.6"/>
		</g>
		<g class="st11">
			<path class="st12" d="M635.83,877.77c-72.65,75.25-113.24,176.14-107.94,305.58c5,121.81,49.2,233.25,120.61,324.02
				c53.59,68.05,267.02,182.23,524.41,174c90.89-2.89,177.85-24.44,253.39-54.03c-316.61,3.37-576.63-136.85-643.06-221.26
				c-90.7-115.21-146.76-256.67-153.09-411.21C628.44,953.58,630.49,914.57,635.83,877.77z"/>
		</g>
		<g>
			<path class="st1" d="M569.47,917.4c-4.82,0-9.64-1.84-13.32-5.52c-6.68-6.68-7.29-17.14-1.84-24.51
				C659.51,727.04,868.42,629,1127.7,618.35c261.34-10.72,477.88,73.04,594.2,229.81c5.79,7.58,5.05,18.49-2.04,25.17
				c-7.57,7.13-19.45,6.81-26.59-0.76l-0.08-0.08c-0.5-0.54-0.98-1.1-1.42-1.69c-108.75-146.72-313.78-225.03-562.54-214.8
				c-247.4,10.17-445.64,102.31-543.91,252.8c-0.87,1.33-1.9,2.54-3.07,3.61C578.65,915.73,574.06,917.4,569.47,917.4z"/>
		</g>
		<g class="st9">
			<path class="st0" d="M1633.85,1329.99c0,0,86.76-322.03-89.79-441.69s-423.04-109.02-416.63-93.45
				c0,0,275.63,54.86,391.27,266.23C1607.87,1224.07,1633.85,1329.99,1633.85,1329.99z"/>
		</g>
		<g>
			<path class="st13" d="M1727.46,692.28v65.22H566.35v-65.22c0-65.5,10.83-128.46,30.84-187.22
				c77.88-228.76,294.59-393.33,549.71-393.33c160.29,0,305.46,64.98,410.52,170.04c62.16,62.16,110.23,138.3,139.19,223.29
				C1716.63,563.82,1727.46,626.78,1727.46,692.28z"/>
		</g>
		<g>
			<path class="st14" d="M1146.39,275.83v481.67H808.86c-54.2-70.35-96.53-150.92,6.26-138.68
				c199.47,23.73,194.33-261.25,252.63-325.29C1098.54,259.72,1146.39,275.83,1146.39,275.83z"/>
		</g>
		<g>
			<path class="st14" d="M1483.92,757.49h-337.53V275.83c0,0,47.84-16.1,78.64,17.71c58.29,64.04,53.16,349.02,252.63,325.29
				C1580.45,606.58,1538.12,687.14,1483.92,757.49z"/>
		</g>
		<g>
			<path class="st0" d="M1727.46,692.28v50.95c0-65.5-10.83-128.46-30.84-187.22c-28.96-84.99-77.04-161.14-139.19-223.29
				c-105.05-105.05-250.23-170.04-410.52-170.04c-255.12,0-471.83,164.57-549.71,393.33c-20.01,58.77-30.84,121.72-30.84,187.22
				v-50.95c0-65.5,10.83-128.46,30.84-187.22c77.88-228.76,294.59-393.33,549.71-393.33c160.29,0,305.46,64.98,410.52,170.04
				c62.16,62.16,110.23,138.3,139.19,223.29C1716.63,563.82,1727.46,626.78,1727.46,692.28z"/>
		</g>
		<g>
			<path class="st14" d="M1727.46,692.28v65.22H566.35v-65.22c0-65.5,10.83-128.46,30.84-187.22
				c53.02,57.82,193.2,149.46,549.71,149.46s496.74-91.63,549.71-149.46C1716.63,563.82,1727.46,626.78,1727.46,692.28z"/>
		</g>
		<g>
			<path class="st1" d="M1727.46,776.32H566.37c-10.4,0-18.83-8.43-18.83-18.84v-65.2c0-330.5,268.88-599.38,599.38-599.38
				s599.38,268.88,599.38,599.38v65.2C1746.29,767.89,1737.86,776.32,1727.46,776.32z M585.21,738.65h1123.41v-46.36
				c0-309.73-251.98-561.71-561.7-561.71s-561.7,251.98-561.7,561.71V738.65z"/>
		</g>
		<g>
			<path class="st13" d="M1406.27,381.97l23.69-174.02c6.47-47.52-24.74-92.01-71.62-102.1l-192.12-41.35
				c-12.73-2.74-25.9-2.74-38.62,0l-192.12,41.35c-46.88,10.09-78.09,54.58-71.62,102.1l23.69,174.02H1406.27z"/>
		</g>
		<g>
			<path class="st0" d="M1429.95,207.92l-1.22,9.14c-7.44-34.23-34.28-62.44-70.4-70.21l-192.12-41.34
				c-12.71-2.78-25.9-2.78-38.61,0l-192.12,41.34c-36.12,7.77-62.96,35.98-70.4,70.26l-1.23-9.18
				c-6.45-47.51,24.72-92.01,71.62-102.09l192.12-41.34c12.71-2.73,25.9-2.73,38.61,0l192.12,41.34
				C1405.23,115.91,1436.45,160.41,1429.95,207.92z"/>
		</g>
		<g>
			<path class="st1" d="M1396.94,380.7c-0.94-22.36,0.05-44.46,1.56-66.48c1.51-22.03,4.01-43.92,6.84-65.76l4.18-32.78l1.04-8.19
				l0.26-2.05l0.12-1.65l0.25-3.26c0.29-2.17,0.09-4.34,0.09-6.51c0.07-2.18-0.24-4.33-0.5-6.48c-2.04-17.19-10.62-33.49-23.5-44.92
				c-6.41-5.74-13.84-10.27-21.83-13.35c-2.05-0.64-3.97-1.61-6.09-2.05c-2.21-0.51-3.89-1.05-6.5-1.61l-16.18-3.34l-64.66-13.65
				l-64.65-13.7l-32.33-6.85l-15.51-3.24c-4.17-0.75-8.4-1.09-12.63-1.09c-4.23,0.01-8.46,0.35-12.63,1.1l-15.51,3.24l-32.33,6.85
				l-64.65,13.7l-64.66,13.66l-16.18,3.34c-2.61,0.56-4.3,1.1-6.5,1.61c-2.12,0.43-4.04,1.41-6.09,2.05
				c-7.99,3.08-15.41,7.61-21.82,13.35c-12.88,11.43-21.45,27.73-23.49,44.91c-0.26,2.15-0.57,4.3-0.5,6.47
				c-0.01,2.17-0.21,4.34,0.09,6.51l0.25,3.26l0.11,1.65l0.26,2.05l1.04,8.19l4.18,32.78c5.7,43.69,10.01,87.57,8.39,132.25
				c-0.19,5.28-4.62,9.4-9.9,9.2c-4.14-0.15-7.57-2.93-8.76-6.66c-13.51-42.62-21.09-86.06-27.28-129.68l-4.73-32.71l-1.18-8.17
				l-0.3-2.05l-0.25-2.46l-0.47-4.97c-0.42-3.31-0.3-6.65-0.31-9.99c-0.09-3.34,0.25-6.67,0.59-10
				c2.7-26.63,15.47-52.05,35.21-70.23c9.84-9.12,21.38-16.46,33.85-21.52c3.16-1.13,6.25-2.56,9.5-3.37
				c3.13-0.85,6.73-1.89,9.49-2.52l16.12-3.61l64.55-14.16l64.56-14.12l32.28-7.06l8.07-1.77c2.72-0.58,5.15-1.16,8.75-1.85
				c6.67-1.24,13.45-1.86,20.24-1.88c6.78,0.03,13.57,0.64,20.24,1.88c3.6,0.68,6.02,1.26,8.75,1.85l8.07,1.77l32.28,7.06
				l64.56,14.12l64.55,14.17l16.12,3.61c2.76,0.63,6.36,1.67,9.49,2.52c3.26,0.82,6.34,2.24,9.5,3.37
				c12.47,5.06,24.01,12.4,33.84,21.51c19.74,18.18,32.51,43.59,35.21,70.22c0.34,3.33,0.68,6.65,0.59,9.99
				c-0.01,3.34,0.11,6.68-0.31,9.99l-0.48,4.97l-0.25,2.46l-0.3,2.04l-1.18,8.18l-4.73,32.71c-3.11,21.81-6.56,43.57-10.99,65.2
				c-4.44,21.63-9.38,43.19-16.27,64.48c-1.63,5.03-7.02,7.78-12.05,6.16C1399.65,388.13,1397.11,384.57,1396.94,380.7z"/>
		</g>
		<g>
			<path class="st13" d="M1292.17,112.71l-21.57,492.31l-6.69,152.47h-233.98l-6.64-151.86l-21.61-492.92
				c-1.84-42.05,27.41-79.39,68.8-86.88c22.08-4,48.12-7.02,76.42-7.02c28.35,0,54.34,3.01,76.42,7.02
				C1264.77,33.32,1294.01,70.66,1292.17,112.71z"/>
		</g>
		<g>
			<path class="st0" d="M1292.17,112.71l-1.22,27.83c-6.03-34-32.44-61.87-67.62-68.23c-22.08-4-48.08-7.02-76.42-7.02
				c-28.3,0-54.34,3.01-76.42,7.02c-35.13,6.36-61.54,34.23-67.57,68.23l-1.23-27.83c-1.84-42.05,27.41-79.39,68.8-86.88
				c22.08-4,48.12-7.02,76.42-7.02c28.35,0,54.34,3.01,76.42,7.02C1264.77,33.32,1294.01,70.66,1292.17,112.71z"/>
		</g>
		<g>
			<path class="st14" d="M1270.61,605.02l-6.69,152.47h-233.98l-6.64-151.86c34.56,19.97,78.17,38,123.09,38
				C1191.78,643.63,1235.9,625.22,1270.61,605.02z"/>
		</g>
		<g>
			<path class="st1" d="M1263.91,776.32h-233.98c-10.08,0-18.37-7.94-18.82-18.01l-28.25-644.76
				c-2.25-51.46,33.98-97.13,84.29-106.24c26.78-4.85,53.62-7.3,79.78-7.3s53,2.46,79.78,7.3c50.3,9.11,86.54,54.78,84.29,106.24
				l-28.25,644.77C1282.28,768.38,1273.99,776.32,1263.91,776.32z M1047.95,738.65h197.93l27.46-626.75
				c1.44-32.72-21.51-61.75-53.36-67.52c-24.57-4.45-49.15-6.7-73.07-6.7s-48.5,2.26-73.07,6.7c-31.85,5.77-54.79,34.79-53.36,67.52
				L1047.95,738.65z"/>
		</g>
		<g>
			<path class="st13" d="M1808.95,845.06c0,0-131.87,91.51-662.03,91.51s-662.03-91.51-662.03-91.51l81.49-150.48
				c0,0,359.85,32.04,580.54,32.04s580.54-32.04,580.54-32.04L1808.95,845.06z"/>
		</g>
		<g>
			<path class="st0" d="M1747.33,731.31c-75.34,6.45-394.79,32.63-600.42,32.63c-205.63,0-525.08-26.18-600.42-32.63l19.87-36.73
				c0,0,359.85,32.02,580.55,32.02c220.7,0,580.55-32.02,580.55-32.02L1747.33,731.31z"/>
		</g>
		<g>
			<path class="st14" d="M1808.97,845.08c0,0-131.89,91.49-662.06,91.49s-662.02-91.49-662.02-91.49l35.03-64.75
				c66.87,26.37,241.8,74.68,626.98,74.68c385.09,0,560.07-48.27,626.98-74.68h0.05L1808.97,845.08z"/>
		</g>
		<g>
			<path class="st1" d="M1146.91,955.41c-529.96,0-667.19-91-672.77-94.87c-7.89-5.47-10.4-16-5.83-24.44l81.49-150.48
				c3.58-6.61,10.72-10.47,18.23-9.79c0.54,0.05,54.84,4.87,132.83,10.68c130.2,9.71,313.26,21.28,446.04,21.28
				c50.07,0,111.62-1.68,182.94-4.99c191.69-8.89,393.91-26.79,395.93-26.98c7.48-0.67,14.65,3.18,18.23,9.79l81.49,150.48
				c4.57,8.44,2.06,18.97-5.83,24.44C1814.1,864.41,1676.88,955.41,1146.91,955.41z M510.52,837.28
				c46.92,21.47,214.31,80.46,636.4,80.46c421.84,0,589.28-58.92,636.39-80.47l-66.52-122.85c-46.96,4.02-219.95,18.35-385.18,26.01
				c-71.9,3.33-134.03,5.03-184.69,5.03c-133.94,0-318.01-11.63-448.84-21.38c-56.49-4.21-100.62-7.91-121.02-9.66L510.52,837.28z"
				/>
		</g>
	</g>
</g>
</svg>
