<?xml version="1.0" encoding="utf-8"?>
<!-- Generator: Adobe Illustrator 28.1.0, SVG Export Plug-In . SVG Version: 6.00 Build 0)  -->
<svg version="1.1" id="Layer_1" xmlns="http://www.w3.org/2000/svg" xmlns:xlink="http://www.w3.org/1999/xlink" x="0px" y="0px"
	 viewBox="0 0 2879.67 2659.94" style="enable-background:new 0 0 2879.67 2659.94;" xml:space="preserve">
<style type="text/css">
	.st0{fill:#FFFFFF;}
	.st1{fill:#D8D8D8;}
	.st2{fill:#371A45;}
	.st3{opacity:0.25;}
	.st4{fill:none;stroke:#293856;stroke-width:31.9734;stroke-linecap:round;stroke-miterlimit:10;}
	.st5{fill:#32B1D1;}
	.st6{fill:#22A7F0;}
	.st7{fill:#1B88EA;}
	.st8{opacity:0.7;}
	.st9{fill:#220F2D;}
	.st10{opacity:0.5;}
</style>
<g>
	<g>
		<g>
			<path class="st0" d="M1564.75,1101.88c-78.84,49.21-401.99,426.99-823.39,534.36c-37.38-71.03-125.48-238.45-161.86-307.62
				c198.9-51.35,426.12-169.32,645.35-368.53c0,0,18.32-159.55,64.83-172.2c62.17-16.88,58.42,101.35,58.42,101.35
				c17.57-16.28,160.19-73.56,205.66-54.83c45.36,9.97,75.42,52.6,87.56,100.82C1655.32,989.53,1668.41,1037.09,1564.75,1101.88z"/>
		</g>
		<g>
			<path class="st0" d="M1017.26,1124.04c-31.76,160.81-187.73,286.86-383.36,308.01l-54.4-103.44
				C716.01,1293.36,865.83,1226.74,1017.26,1124.04z"/>
		</g>
		<g>
			<path class="st1" d="M1564.75,1101.88c-78.84,49.21-401.99,426.99-823.39,534.36l-103.27-196.24c0,0,201.56-58.64,201.56-58.64
				c305.15,28.05,518.66-157.98,509.93-483.66c72.9,108.29-10.03,159.85,98.56,169.5c87.34,7.77,157.63-67.58,191-139.78
				C1654.73,987.72,1672.32,1033.76,1564.75,1101.88z"/>
		</g>
		<g>
			<path class="st2" d="M741.36,1652.23c-18.05-0.08-22.22-26.8-3.93-31.48c387.75-104.96,611.57-362.34,818.83-532.44
				c93.06-58.13,83.32-95.85,69.85-148.05c-12.2-48.65-40.12-82.24-75.9-90.26c-27.56-7.33-58.94,2.03-91.91,8.97
				c-59.92,11.28-97.71,53.05-118.3,44.06c-16.61-8.3,0.08-72.63-28.71-97.36c-41.51-20.92-59.11,81.53-70.57,156.21
				c-164.27,186.81-631.98,422.46-676.72,370.72c-2.2-8.56,2.94-17.28,11.48-19.48c150.23-38.78,381.85-132.89,634.19-360.89
				c5.67-45.67,25.34-166.06,75.83-179.77c58.64-14.33,74.04,48.39,77.73,90.15c53.76-27.8,131.39-55.77,194.1-43.79
				c47.85,10.8,84.46,52.73,99.73,113.44c14.29,55.36,29.06,112.6-83.87,183.15C1366.62,1286.76,1134.96,1549.19,741.36,1652.23z"/>
		</g>
		<g>
			<path class="st2" d="M1165.11,1449.74c-163.38-83.29-177.05-359.37-137.2-348.04c8.81,0.7,15.37,8.41,14.67,17.21
				c-0.21,2.83-14.18,207.71,131.2,301.41C1187.19,1428.27,1180.43,1450.37,1165.11,1449.74z"/>
		</g>
		<g>
			<g>
				<path class="st0" d="M94.14,1333.4c-74.16,84.08-89.52,414.24-30.36,596.86s392.35,128,579.97,82.7
					c187.62-45.3,98.24-472.24,72-586.13C674.77,1248.99,204.03,1208.82,94.14,1333.4z"/>
			</g>
			<g>
				<path class="st1" d="M643.75,2012.96c-222.68,54.11-587.3,108.95-599.41-161.14c60.68,30.17,125.78-21.42,124.13-73.39
					c4.07-258.96,5.49-516.13,276.79-509.81c131,18.7,250.73,72.44,270.46,158.23C742.01,1540.72,831.38,1967.66,643.75,2012.96z"/>
			</g>
			<g>
				<path class="st2" d="M327.23,2073.6c-133.92,0-245.08-34.72-278.66-138.4c-62.31-192.35-44.11-524.29,33.58-612.37l11.99,10.58
					l-11.99-10.58c109.38-128.38,596.29-100,649.18,100.42c36.99,143.08,107.55,569.14-83.84,605.26
					C543.67,2053.57,428.89,2073.59,327.23,2073.6z M341.16,1276.94c-104.59,0-197.02,23.95-235.03,67.04
					c-69.22,78.48-84.45,404.48-27.15,581.36c54.26,167.48,374.78,117.05,561.01,72.08c167.74-40.5,88.47-444.22,60.17-567
					C681.35,1325.12,456.14,1272.05,341.16,1276.94z"/>
			</g>
			<g>
				<path class="st0" d="M177.82,1643.05l-90.77-16c-20.52-3.62-39.61,11.54-40.63,32.35c-3.5,71.59-1.37,218.03,72.98,232.65
					c90.1,17.72,99.61-83.94,86.89-218.26C204.83,1658.31,193.12,1645.75,177.82,1643.05z"/>
			</g>
			<g class="st3">
				<path class="st2" d="M206.08,1673.61c13.03,134.28,3.75,236-86.39,218.45c-37.02-7.15-56.22-47.08-65.72-94.17
					c9.7,12.03,21.77,20.39,36.84,23.3c80.69,15.67,96.62-64.22,89.63-177.55C194.35,1647.18,204.72,1659.14,206.08,1673.61z"/>
			</g>
			<g>
				<path class="st2" d="M138.82,1910.02c-106.4,3.1-112.7-157.63-108.59-251.18c0.71-29.57,30.24-53.19,59.27-47.45
					c38.07,11.17,129.55,3.61,132.52,60.67C231.75,1814.46,233.01,1899.57,138.82,1910.02z M80.71,1642.61
					c-9.56-0.17-18.33,8.07-18.54,17.71c-4.73,144.26,18.24,250.97,105.96,207.43c37.43-34.03,25.86-153.39,22.05-192.6
					c-0.8-8.26-7.12-15.03-15.37-16.46c0,0-90.81-15.79-90.81-15.8C82.9,1642.71,81.8,1642.61,80.71,1642.61z"/>
			</g>
			<g>
				<path class="st2" d="M79.59,1346.8c44.1,6.52,87.58,14.51,130.5,26.78c4.25,1.23,6.69,5.68,5.46,9.92
					c-1.15,3.95-5.08,6.35-9.04,5.66c-31.97-5.16-64.58-7.7-96.99-9.34c-10.83-0.52-21.81-0.94-32.45-1.14
					C54.88,1378,57.52,1343.97,79.59,1346.8z"/>
			</g>
		</g>
		<g>
			<path class="st0" d="M976.12,2539.71c0.16,15.38-6.66,32.19-24.38,50.12c-54.16,54.68-329.92,55.51-363.02-39.05
				c-27.97-65.59,13.61-549.44-9.99-744.72l328.88-42.74c12.44,113.56,28.52,566.43-21.29,685.44
				C886.31,2448.76,975.52,2484.96,976.12,2539.71z"/>
		</g>
		<g>
			<path class="st1" d="M976.12,2539.71c0.16,15.38-6.66,32.19-24.38,50.12c-54.16,54.68-329.92,55.51-363.02-39.05
				c-27.97-65.59,13.61-549.44-9.99-744.72l328.88-42.74c0,0,8.48,100.98,12.01,229.25c-18.32,37.19-57.85,92.22-140.79,134.92
				c-136.8,57.37-182.8,278.53-104.19,384.32C739.06,2572.26,915.34,2574.56,976.12,2539.71z"/>
		</g>
		<g>
			<path class="st2" d="M793.54,2642.97c-239.12-6.77-242.87-75.74-228.6-331.49c5.92-145.36,9.48-340.22-2.16-504.31
				c-0.62-8.81,6.01-16.46,14.82-17.08c8.73-0.57,16.45,6.01,17.08,14.81c25.78,220.34-18.85,563.3,9.11,740.59
				c41.48,90.34,306.07,72.41,336.58,33.09c60.3-54.51-35-107.46-73.91-120.67c68.19-181.71,25.52-685.98,25.24-693.27
				c-0.74-8.8,5.79-16.53,14.59-17.27c8.84-0.65,16.53,5.8,17.27,14.59c1.67,19.89,39.38,478.84-17.82,678.05
				C1076.99,2527.43,970.41,2654.43,793.54,2642.97z"/>
		</g>
		<g>
			<path class="st2" d="M773.69,2288.83c-111.06-3.81-220.34-28.06-205.21-56.18c3.34-8.18,12.67-12.12,20.84-8.76
				c2.24,0.9,163.84,64.96,322.47,11.19c8.37-2.83,17.44,1.65,20.27,10.01c2.83,8.36-1.65,17.44-10.01,20.27
				C870.9,2282.7,820.03,2288.83,773.69,2288.83z"/>
		</g>
		<g>
			<path class="st2" d="M735.4,2452.41c47.9,3.18,100.4,2.88,144.27-18.19c7.89-4.23,17.76-1.16,21.83,6.82
				c19.92,46.95-145.53,34.72-168.58,27.16C723.07,2466.46,725.5,2451.03,735.4,2452.41z"/>
		</g>
		<g>
			<path class="st4" d="M673,2101.39"/>
		</g>
		<g>
			<path class="st5" d="M866.12,1445.04"/>
		</g>
		<g>
			<path class="st0" d="M880.14,1847.48c-50.23,253.64-530.47,295.77-605.44,15.93c-23.14-121.2,8.44-280.87,25.84-417.39
				c16.84-127.66,111.3-269.32,87.52-424.55l451.6,359.89C871.54,1526.95,907.62,1763.32,880.14,1847.48z"/>
		</g>
		<g>
			<path class="st0" d="M826.83,1371.11c-142.43,85.67-367.61,84.17-508.4-3.45c32.02-106.58,88.65-222.02,69.63-346.19
				L826.83,1371.11z"/>
		</g>
		<g>
			<path class="st1" d="M1017.26,1124.04c-31.76,160.81-187.73,286.86-383.36,308.01l-54.4-103.44
				C716.01,1293.36,865.83,1226.74,1017.26,1124.04z"/>
		</g>
		<g>
			<path class="st1" d="M430.59,1241.09l-32.42,163.65c-50.57-18.11-96.29-43.8-135.12-75.35
				C319.26,1289.56,377.89,1259.29,430.59,1241.09z"/>
		</g>
		<g>
			<path class="st1" d="M826.83,1371.11c-142.43,85.67-367.61,84.17-508.4-3.45c32.02-106.58,88.65-222.02,69.63-346.19
				L826.83,1371.11z"/>
		</g>
		<g>
			<path class="st1" d="M484.21,1861.62c-89.04,23.69-153.66,33.38-200.51,34.68c-30.11-99.45-15.75-199.35-1-320.71l82.37-3.75
				C365.06,1571.84,329.73,1791.28,484.21,1861.62z"/>
		</g>
		<g>
			<path class="st2" d="M847.47,1379.66c38.17,115.69,81.64,365.72,45.4,480.59c-50.14,161.58-215.63,232.06-374.52,206.39
				c-112.29-12.95-238.4-77.22-259.08-198.98c-23.88-138.2,7.64-278.41,24.3-415.36c2.18-16.71,5.01-34.03,9.01-50.28
				c30.8-125.63,99.98-246.26,79.7-378.14c-1.35-8.74,4.66-16.94,13.42-18.25c8.73-1.32,16.87,4.68,18.19,13.42
				c24.2,148-60.72,281.24-86.36,421.48c-16.54,138.8-50.18,281.75-26.86,421.1c39.65,188.13,336.08,221.77,473.52,125.5
				c49.02-34.4,82.63-88.11,100.63-145c11.71-42.24,8.64-89.31,6.48-133.46c-6.14-109.37-28.66-216-39.44-325.58
				C830.59,1373.97,844.8,1370.84,847.47,1379.66z"/>
		</g>
		<g>
			<path class="st0" d="M609.34,2054.15c-26.05,122.59-39.09,447.8-90.83,526.77c-57.59,87.91-315.13,61.34-343.79,50.7
				c-25.28-8.2-58.99-31.25-57.68-83.51c0.13-65.66,81.41-91.49,81.41-91.49c-0.29-12.89,51.24-487.61,85.25-601.5l606.17-56.8
				C902.78,2021.51,609.34,2054.15,609.34,2054.15z"/>
		</g>
		<g>
			<path class="st1" d="M609.34,2054.15c-73.69,361.37,43.85,669.64-434.63,577.45c-24.56-9.1-56.32-26.82-57.63-79.61
				c20.51,19.11,67.27,42.58,173.55,42.58c179.22,0,205.18-154.57,219.97-262.82c23.25-170.54,1.31-348.41-266.26-260.81
				c12.09-83.64,25.61-162.78,39.35-215.83l606.17-56.8C902.78,2021.51,609.34,2054.15,609.34,2054.15z"/>
		</g>
		<g>
			<path class="st2" d="M306.54,2659.76c-62.34,0-121.28-7.2-137.39-13.18c-98.15-30.1-85.2-170.17,14.35-201.39
				c6.61-67.07,44.34-438.29,84.7-594.08c2.21-8.55,10.94-13.7,19.48-11.46c8.55,2.21,13.68,10.94,11.47,19.48
				c-42.88,165.5-84.38,594.7-84.79,599.02l-1.01,10.51c-10.86,4.95-75.36,18.63-80.36,79.48c-0.11,44.68,22.67,59.31,47.3,68.47
				c28.56,10.62,274.19,32.84,324.83-44.46c51.35-84.35,61.65-404.94,90.96-532.6c98.46-3.44,299.72-90.08,277.82-240.34
				c-0.5-8.81,6.23-16.37,15.05-16.88c8.86-0.44,16.37,6.22,16.88,15.04c22.37,150.14-159.82,259.77-283.05,271.04
				c-24.74,132.85-38.84,445.66-90.91,521.26C507.9,2636.38,400.78,2662.33,306.54,2659.76z"/>
		</g>
		<g>
			<path class="st2" d="M451.25,2249.01c-144.35-4.09-253.17-33.95-237.7-63.27c3.82-7.95,13.36-11.3,21.32-7.5
				c1.35,0.64,137.36,63.94,348.82,27.05c8.71-1.53,16.98,4.3,18.5,13c1.52,8.7-4.3,16.98-13,18.5
				C538.78,2245.59,492.6,2249.01,451.25,2249.01z"/>
		</g>
		<g>
			<path class="st2" d="M1364.1,889.25c0.22,6.79,6.87,19.22,10.03,27.23c17.17,35.52,18.02,79.33,0.09,115
				c-5.58,14.02-27.6,5.55-22.33-8.58c22.36-57.41-0.81-76.45-18.88-126.23C1323.27,861.74,1368.14,859.63,1364.1,889.25z"/>
		</g>
		<g>
			<g>
				<path class="st0" d="M953.97,1747.88c2.98,75.22-111.36,80.27-115.01,5.08C835.97,1677.74,950.32,1672.69,953.97,1747.88z"/>
			</g>
			<g>
				<path class="st1" d="M953.96,1747.87c-0.76,93.4-142.21,67.87-110.58-19.75c19.78,42.15,88.03,39.17,103.96-4.59
					C951.24,1730.82,953.57,1739.1,953.96,1747.87z"/>
			</g>
			<g>
				<path class="st2" d="M896.43,1823.97c-94.5-1.37-97.69-141.58-3.21-147.03C992.28,1675.3,995.56,1821.12,896.43,1823.97z
					 M896.51,1708.84c-56.06,1.47-54.21,84.04,1.79,83.12C951.71,1788.78,949.9,1709.6,896.51,1708.84z"/>
			</g>
			<g>
				<g>
					<path class="st0" d="M836.51,1900.99c0,0-300.88,8.49-300.88,8.49c-35.61,1.02-65.6-27.31-66.61-62.96
						c0,0-4.51-160.11-4.51-160.11c-0.88-31.22,20.73-58.06,50.06-64.93c4.15-1,8.47-1.55,12.91-1.68c0,0,300.84-8.49,300.84-8.49
						c93.22-2.07,62.6,133.19,70.22,189.78C904.65,1848.37,892.36,1897.62,836.51,1900.99z"/>
				</g>
				<g>
					<path class="st0" d="M181.26,1695.69c0,0-38.73,12.58-38.87,63.01c-0.11,39.52,17.79,56.36,17.79,56.36
						s132.35,48.17,304.86,7.18c0,0,32.54-13.38,36.04-60.34c1.34-17.94-8.87-45.52-33.9-52.05
						C467.18,1709.85,310.5,1737.18,181.26,1695.69z"/>
				</g>
				<g>
					<path class="st0" d="M836.51,1900.99c0,0-300.88,8.49-300.88,8.49c-35.61,1.02-65.6-27.31-66.61-62.96
						c0,0-4.51-160.11-4.51-160.11c-0.88-31.22,20.73-58.06,50.06-64.93c4.15-1,8.47-1.55,12.91-1.68c0,0,300.84-8.49,300.84-8.49
						c93.22-2.07,62.6,133.19,70.22,189.78C904.65,1848.37,892.36,1897.62,836.51,1900.99z"/>
				</g>
				<g>
					<path class="st0" d="M181.26,1695.69c0,0-38.73,12.58-38.87,63.01c-0.11,39.52,17.79,56.36,17.79,56.36
						s132.35,48.17,304.86,7.18c0,0,32.54-13.38,36.04-60.34c1.34-17.94-8.87-45.52-33.9-52.05
						C467.18,1709.85,310.5,1737.18,181.26,1695.69z"/>
				</g>
				<g>
					<path class="st0" d="M836.51,1900.99c0,0-300.88,8.49-300.88,8.49c-35.61,1.02-65.6-27.31-66.61-62.96
						c0,0-4.51-160.11-4.51-160.11c-0.88-31.22,20.73-58.06,50.06-64.93c4.15-1,8.47-1.55,12.91-1.68c0,0,300.84-8.49,300.84-8.49
						c93.22-2.07,62.6,133.19,70.22,189.78C904.65,1848.37,892.36,1897.62,836.51,1900.99z"/>
				</g>
				<g>
					<path class="st1" d="M836.52,1900.99l-300.88,8.49c-35.61,1.02-65.6-27.31-66.61-62.96l-4.51-160.11
						c-0.88-31.22,20.73-58.06,50.06-64.93c17.41,10.86,28.46,17.82,28.46,17.82c6.95,200.61,202.66,222.99,355.5,161.79
						C904.68,1848.43,892.31,1897.61,836.52,1900.99z"/>
				</g>
				<g>
					<path class="st2" d="M531.85,1925.56c-41.3,0.84-78.45-35.22-78.75-76.59c0,0-4.63-164.11-4.63-164.11
						c-2.07-42.16,34.34-80.71,76.56-81.01c0,0,304.83-8.61,304.83-8.61c115.91-2.37,75.22,170.85,85.65,240.68
						c1.22,43.44-33.12,79.77-76.56,81C836.69,1916.95,533.94,1925.6,531.85,1925.56z M832.1,1627.18
						c-0.42-0.53-305.4,8.98-306.16,8.63c-12.44,0.35-24.04,5.57-32.67,14.7s-13.19,21.01-12.83,33.44l4.63,164.11
						c0.35,12.44,5.57,24.04,14.7,32.67c9.13,8.62,20.97,13.23,33.44,12.83l304.83-8.61c25.82-0.73,46.23-22.32,45.5-48.14
						l-4.64-164.11C878.2,1647.34,857.33,1627.18,832.1,1627.18z"/>
				</g>
				<g>
					<path class="st0" d="M848.56,1899.46c-3.88,0.92-7.88,1.43-12.04,1.53c0,0-300.88,8.49-300.88,8.49
						c-35.87,1.12-65.8-28-66.57-62.96c-1.24-45.06-3.33-115.16-4.55-160.12c0.77-73.7,74.93-68.07,127.98-68.43
						c-69.11,13.15-47.87,102.26-48.59,151.58c1.62,53.94-8.85,135.93,68.71,136.63C612.6,1906.18,848.56,1899.46,848.56,1899.46z"
						/>
				</g>
				<g>
					<path class="st1" d="M848.56,1899.46c-3.88,0.92-7.88,1.43-12.04,1.53l-300.88,8.49c-84.49,0.63-65.23-102.63-69.28-157.56
						c13.91,32.55,50.47,56.5,77.54,17.63c1.64,54.05-8.86,135.88,68.71,136.63C612.6,1906.18,848.56,1899.46,848.56,1899.46z"/>
				</g>
				<g>
					<path class="st2" d="M533.73,1925.51c-42.31,0.85-80.38-36.14-80.66-78.53c0,0-4.52-160.13-4.52-160.13
						c-2.15-43.22,35.2-82.73,78.48-83.06c0,0,64.99-1.83,64.99-1.83l3.86,31.6c-22.92,5.01-39.08,25.64-38.42,49.06l4.52,160.14
						c0.12,26.04,24.19,48.79,50.14,47.43c0,0,236-6.68,236-6.68l4.02,31.56c-5.01,1.15-10.15,1.79-15.27,1.9
						C834.52,1917,535.9,1925.54,533.73,1925.51z M539.77,1635.42c-31.04-2.94-60.17,17.7-59.26,50.52c0,0,4.52,160.15,4.52,160.15
						c1.45,34.34,31.87,51.71,63.77,47.03c-11.67-13.9-18.27-31.15-18.78-49.48C533.27,1806.85,512.33,1664.76,539.77,1635.42z"/>
				</g>
				<g>
					<path class="st6" d="M662.41,1761.08c0.13,5.92-7.12,53.92-7.12,53.92c-33.53,2.54-73.45,4.83-77.01-52.03
						c1.15-56.49,39.88-56.53,74.6-55.43C652.87,1707.54,662.19,1751.44,662.41,1761.08z"/>
				</g>
				<g>
					<path class="st7" d="M662.41,1761.08c0.13,5.92-7.12,53.92-7.12,53.92c-33.53,2.54-73.45,4.83-77.01-52.03
						c1.15-56.49,39.88-56.53,74.6-55.43C652.87,1707.54,662.19,1751.44,662.41,1761.08z"/>
				</g>
				<g>
					<path class="st2" d="M620.77,1827.76c-72.3-2.07-70.24-129.83-1.9-131.44c0,0,23.55-0.53,23.55-0.53
						c11.88-0.26,21.94,7.89,24.28,19.38c7.5,36.85,7.65,43.48,7.7,45.65l0,0c0.04,1.74,0.13,5.82-5.73,45.73
						c-1.72,11.71-11.56,20.41-23.42,20.67l-23.43,0.53C621.47,1827.76,621.12,1827.76,620.77,1827.76z M643.2,1719.95
						c-30.68-1.6-51.11,2.18-52.94,42.76c0.13,18.74,11.72,41.07,31.02,41.06c0,0,23.43-0.53,23.43-0.53
						C652.2,1744.85,653.11,1776.67,643.2,1719.95z"/>
				</g>
				<g>
					<path class="st6" d="M696.15,1760.33c1.24,70.33-82.22,72.21-84.13,1.89C610.77,1691.88,694.23,1690.01,696.15,1760.33z"/>
				</g>
				<g class="st8">
					<path class="st0" d="M695.49,1771.39c-9.73-55.93-75.3-54.24-82.35,2C601.07,1688.38,703.69,1685.91,695.49,1771.39z"/>
				</g>
				<g>
					<path class="st7" d="M655.31,1814.99c-30.03,2.01-51.07-41.24-40.93-72.17c13.51,44.95,67.03,43.75,78.53-1.7
						C704.45,1771.53,685.33,1815.62,655.31,1814.99z"/>
				</g>
				<g>
					<path class="st2" d="M654.51,1827c-32.04,0.19-54.47-33.13-54.48-64.51c-1.45-86.04,105.73-88.35,108.11-2.43l0,0
						C708.93,1796.69,684.91,1826.98,654.51,1827z M653.61,1719.52c-28.63-0.46-38.87,52.34-19.15,72.81
						c21.51,25.89,50.98,0.71,49.7-31.74l0,0C683.66,1738.19,669.72,1719.52,653.61,1719.52z"/>
				</g>
				<g>
					<path class="st2" d="M742.95,1914.46c-6.6,0-11.96-5.33-11.99-11.94l-0.37-81.05c-0.1-22.87,11.18-44.11,30.19-56.82
						c12.6-8.43,19.9-22.51,19.53-37.67l-2.83-114.21c-0.62-15.45,23.82-16.23,23.97-0.59c0,0,2.83,114.21,2.83,114.21
						c0.58,23.42-10.7,45.18-30.17,58.19c-12.3,8.23-19.61,21.98-19.54,36.78l0.37,81.05
						C754.97,1909.06,749.59,1914.46,742.95,1914.46z"/>
				</g>
			</g>
			<g>
				<path class="st0" d="M181.26,1695.69c0,0-38.73,12.58-38.87,63.01c-0.11,39.52,17.79,56.36,17.79,56.36
					s132.35,48.17,304.86,7.18c0,0,32.54-13.38,36.04-60.34c1.34-17.94-8.87-45.52-33.9-52.05
					C467.18,1709.85,310.5,1737.18,181.26,1695.69z"/>
			</g>
			<g class="st3">
				<path class="st2" d="M501.07,1761.91c-3.48,46.94-36.03,60.32-36.03,60.32c-172.5,40.99-304.87-7.19-304.87-7.19
					c-8.46-3.65-27.41-55.72-12.16-86.2c4.11,26.74,16.51,38.36,16.51,38.36s132.37,48.18,304.87,7.19c0,0,18.71-7.7,29.23-31.86
					C500.76,1749.3,501.49,1756.12,501.07,1761.91z"/>
			</g>
			<g>
				<path class="st2" d="M323.2,1854.87c-106.05-1.9-162.08-20.68-173.97-28.16c-41.86-43.64-22.99-137.1,32-147.82
					c119.88,41.48,283.37,15.81,283.21,15.21c0,0,3.42-0.6,3.42-0.6l3.36,0.88c80.54,26.82,36.46,134.61-0.1,142.63
					C417.89,1850.5,366.65,1854.74,323.2,1854.87z M169.48,1801.3c22.49,7.13,141.52,40.67,290.26,5.76
					c4.12-2.19,22.98-13.95,25.4-46.35c0.71-9.56-4.29-28.57-19.15-34.46c-25.49,4.01-163.52,23.06-283.76-13.51
					C154.29,1723.94,152.63,1780.33,169.48,1801.3z"/>
			</g>
		</g>
		<g>
			<path class="st0" d="M449.01,1982.34c-25.83,8.07-46.38-11.47-78.71-11.47c-32.37,0-76,18.89-103.83,14.4
				c-489.4-94.27-162.47-659.5,164.13-744.17l-65.53,330.75c0,0-66.31,83.2-45.72,117.32c16.97,28.18,70.07,12.52,116.4,29.06
				c25.87,9.21,57.5,46.07,68.8,74.95C516.89,1824.62,515.67,1961.53,449.01,1982.34z"/>
		</g>
		<g>
			<path class="st1" d="M430.59,1241.09l-32.42,163.65c-50.57-18.11-96.29-43.8-135.12-75.35
				C319.26,1289.56,377.89,1259.29,430.59,1241.09z"/>
		</g>
		<g>
			<path class="st1" d="M449.01,1982.34c-25.83,8.07-46.38-11.47-78.71-11.47c-32.37,0-76,18.89-103.83,14.4
				c-74.92-7.69-257.49-78.81-250.08-259.81c16.7,124.11,201.19,204.81,302.22,168.57c60.99-10.99,165.61,91.93,185.94-100.86
				C516.89,1824.62,515.67,1961.53,449.01,1982.34z"/>
		</g>
		<g>
			<path class="st2" d="M435.82,1256.19c-197.34,74.97-404,253.17-403.16,479.56c-2.68,132.89,123.77,224.15,246.89,233.96
				c27-2.01,56.3-13.23,84.07-14.91c11.06-0.77,22.91,0.6,33.22,3.21c17.44,3.76,30.48,12.64,46.86,8.67
				c50.21-18.4,56.89-123.32,44.45-168.33c-14.23-30.16-39.45-62.43-73.71-68.44c-40.34-8.47-114.71,3.32-115.19-56.99
				c0.57-22.22,10.03-42.56,21.09-60.81c5.25-10.12,52.53-73.27,50.98-35.27c-7.92,22.11-54.56,90.76-34.44,107.66
				c21.55,10.87,49.83,5.67,76.55,10.87c21.48,2.61,44.83,11.89,59.92,26.58c32.12,28.19,55.97,67.89,54.2,111.54
				c0.15,51.02-6.08,107.44-43.39,146.44c-16.8,17.35-44.73,25.52-68.01,17.9c-56.75-22.76-79.89-0.63-134.97,4.01
				c-208.44-21.27-327.1-177.2-264.41-382.82c34.31-112.98,114.82-207.35,205.74-279.27c45.87-35.99,95.63-67.05,148.52-91.73
				c17.74-8.11,35.83-15.56,54.37-22.05c8.33-2.92,17.45,1.47,20.37,9.8C448.7,1244.15,444.23,1253.33,435.82,1256.19z"/>
		</g>
		<g>
			<g>
				<path class="st0" d="M1123.87,811.31c4.66,145.23-59.58,298.2-167.57,399.11C379.59,1723.75-351.9,836.9,288.92,380.83
					C634.85,149.95,1119.99,395.41,1123.87,811.31z"/>
				<path class="st2" d="M578.64,1362.84c-701.74-24.22-716.3-1009.14-22.49-1071.28c452.56-31.88,739.09,496.77,458.83,855.82
					C914.33,1281.78,745.35,1364.33,578.64,1362.84z M588.45,293.82c-111.56-0.13-223.37,34.78-314.53,99.07
					c-576.71,433.84,33.92,1265.17,625.78,862.64C1317.34,952.13,1105.22,294.27,588.45,293.82z"/>
			</g>
			<g>
				<path class="st1" d="M255.97,1255.2c418.9,307.26,993.83-95.41,844.61-588.64c-13.35,609.01-863.5,746.59-1058.12,163.24
					C42.04,991.62,115.63,1151.02,255.97,1255.2z"/>
			</g>
			<g>
				<path class="st2" d="M578.64,1373.62c-715.63-24.67-730.79-1029.4-23.12-1092.82c461.62-32.5,753.88,506.84,468.06,873.09
					C920.95,1290.95,748.65,1375.13,578.64,1373.62z M588.45,304.6c-499.25-1.97-731.09,637.65-325.08,940.66
					c346.92,259.35,857.62,2.31,848.11-433.7l0,0C1111.57,534.57,863.97,299.37,588.45,304.6z"/>
			</g>
			<g>
				<path class="st2" d="M578.64,1377.21c-720.26-24.82-735.62-1036.15-23.34-1100c464.64-32.71,758.8,510.19,471.14,878.84
					C923.15,1294.01,749.75,1378.73,578.64,1377.21z M588.45,308.2c-495.81-1.96-726.18,633.22-322.93,934.18
					c344.54,257.56,851.81,2.31,842.37-430.74l0,0C1107.97,536.55,862.06,303,588.45,308.2z"/>
			</g>
			<g>
				<path class="st2" d="M1108.95,947.62c-165.93,346.51-618.55,425.53-827.22,110.18C21.33,631,610.97,69.81,1021.92,510.18
					C1111.21,611.84,1141.17,823.86,1108.95,947.62z"/>
			</g>
			<g>
				<path class="st9" d="M281.75,1057.8c207.28,318.28,679.35,234.34,829.36-121.78c-272.24,226.24-677.34,220.27-894.35-94.64
					C217.55,916.78,237.95,991.58,281.75,1057.8z"/>
			</g>
			<g>
				<path class="st2" d="M640.18,1324.03C97.16,1316.86-19.9,609.31,430.89,355.32c73.27-41.39,146.3-65.68,217.86-72.32
					c265.93,24.79,486.89,259.91,487.61,528.04l0,0c3.89,152.26-60.7,303.87-171.45,408.43
					C867.22,1287.97,752.24,1323.94,640.18,1324.03z M648.57,308.14c-345.75,23.53-608.63,475.19-404.1,773.88
					c153.14,241.82,474.53,280.37,703.91,118.67C1269.05,901.47,1085.16,352.85,648.57,308.14z"/>
			</g>
			<g>
				<path class="st2" d="M643.06,1271.94c-274.82,6.52-505.12-270.86-428.86-547.05c88.19-367.77,543.92-535.61,818.98-226.06
					c94.53,108.49,124.53,319.37,91.1,453.79C1032.41,1146.06,845.77,1271.64,643.06,1271.94z M686.22,366.76
					c-566.53,24.56-624.12,882.4-12.19,872.14c183.93-13.51,390.22-150.47,429.65-350.33
					C1131.17,602.27,962.77,380.44,686.22,366.76z M1108.95,947.62h0.05H1108.95z"/>
			</g>
			<g>
				<path class="st0" d="M61.54,1156.51c108.09,219.64,370.59,115.6,257.47-114.91C199.87,818.04-45.87,934.5,61.54,1156.51z"/>
			</g>
			<g>
				<path class="st1" d="M61.54,1156.51c108.14,219.68,370.56,115.57,257.47-114.9c-7.86,69.54-133.24,3.97-142.61,1.21
					c0,0-59.44,20.92-136.74,49.12C43.62,1113.22,50.86,1135.07,61.54,1156.51z"/>
			</g>
			<g>
				<path class="st2" d="M231.35,1295.63C69.9,1304.75-75.97,1001.42,99.28,914.64c135.6-65.14,311.58,155.47,251.64,294.46
					C332.29,1262.28,285.69,1295.97,231.35,1295.63z M75.83,1149.38c110.27,207.22,327.41,105.85,229.79-98.87
					C195.35,843.3-21.78,944.67,75.83,1149.38L75.83,1149.38z"/>
			</g>
			<g>
				<path class="st0" d="M87.23,1229.44c57.93,58.34,136.2,63.03,174.83,10.47c88.62-107.28-103.57-339.93-209.79-211.26
					C13.65,1081.2,29.3,1171.1,87.23,1229.44z"/>
				<path class="st2" d="M188.2,1278.13c-141.93,4.9-236.29-264.02-69.94-287.42C268.3,976.2,367.62,1264.19,188.2,1278.13z
					 M126.14,993.76c-174.37,12.78-75.26,296.16,69.69,280.74C357.68,1251.24,263.99,988.98,126.14,993.76z"/>
			</g>
			<g>
				<path class="st1" d="M282.89,1143.77c-6.05-28.06-19.93-54.51-38.56-76.58c15.46,133.09-139.57,135.8-203.22,49.24
					C51.49,1265.33,308.92,1346.09,282.89,1143.77z"/>
			</g>
			<g>
				<path class="st2" d="M192.94,1292.22c-55.01,0-115.58-43.17-150.26-112.08l0,0c-98.22-198.56,117.62-302.67,224.39-98.28
					C311.77,1164.09,297.24,1289.23,192.94,1292.22z M116.06,1001.95c-78.55,5.19-77.01,102.09-44.82,163.82l0,0
					c42.56,84.29,144.36,136.77,181.58,50.71C286.38,1138.14,195.88,997.74,116.06,1001.95z"/>
			</g>
			<g class="st10">
				<path class="st0" d="M397.36,563.9c17.87-18.77,383.58-183.36,504.82,10.22c58.12,47.75,132.46,225.62,125.62,237.23
					c29.85-81.87,21.03-166.8-30.72-242.26c0.03-0.04-0.01-0.07-0.08-0.09C812.21,293.41,488.55,404.8,397.36,563.9z"/>
			</g>
			<g class="st10">
				<path class="st0" d="M426.81,848.28c25.13,105.69-114.37,140.21-140.6,34.46C261.08,777.06,400.58,742.54,426.81,848.28z"/>
			</g>
			<g class="st10">
				<path class="st0" d="M421.59,1007.66c6.62,44.32-51.93,53.85-59.02,9.35C355.94,972.68,414.49,963.15,421.59,1007.66z"/>
			</g>
		</g>
		<g>
			<path class="st2" d="M383.46,2480.36c-47.27,4.64-94.36,3.48-141.48-1.52c-15.7-1.61-31.33-4.01-46.96-6.61
				c-8.72-1.45-14.61-9.7-13.16-18.42c1.49-9.31,10.96-15.34,20.03-12.81c44.05,11.58,89.28,19.08,134.78,22.13
				c15.25,1.02,30.8,1.61,45.77,1.29C392.35,2464.03,393.35,2479.49,383.46,2480.36z"/>
		</g>
		<g>
			<path class="st2" d="M16.81,1759.3c-44.86-9.96,13.31-90.23,63.01-117.21c47.88-27.61,129.01-46.61,243.65,19.73
				c7.64,4.42,10.25,14.2,5.83,21.85c-4.42,7.65-14.2,10.25-21.85,5.83c-134.44-79.66-241.16-32.3-274.67,53.82
				C32.8,1752.14,25.64,1759.3,16.81,1759.3z"/>
		</g>
		<g>
			<g>
				<path class="st0" d="M2774.46,1333.4c74.16,84.08,89.52,414.24,30.36,596.86s-392.35,128-579.97,82.7
					c-187.62-45.3-98.24-472.24-72-586.13C2193.83,1248.99,2664.58,1208.82,2774.46,1333.4z"/>
			</g>
			<g>
				<path class="st1" d="M2224.85,2012.96c222.68,54.11,587.3,108.95,599.41-161.14c-60.68,30.17-125.78-21.42-124.13-73.39
					c-4.07-258.96-5.49-516.13-276.79-509.81c-131,18.7-250.73,72.44-270.46,158.23C2126.6,1540.72,2037.23,1967.66,2224.85,2012.96
					z"/>
			</g>
			<g>
				<path class="st2" d="M2541.37,2073.6c-101.66,0-216.42-20.02-320.27-45.09c-88.08-21.27-131.29-116.54-128.43-283.16
					c27.45-224.16-15.15-416.17,256.6-478.47c152.44-38.63,362.94-28.22,437.18,55.96c77.69,88.08,95.89,420.02,33.58,612.37
					C2786.45,2038.86,2675.27,2073.6,2541.37,2073.6z M2527.45,1276.94c-114.89-4.97-340.31,48.22-359.01,153.49
					c-28.29,122.77-107.56,526.49,60.17,566.99c186.23,44.97,506.76,95.4,561.01-72.08c57.3-176.88,42.08-502.88-27.15-581.36
					C2724.47,1300.89,2632.02,1276.94,2527.45,1276.94z"/>
			</g>
			<g>
				<path class="st0" d="M2690.78,1643.05l90.77-16c20.52-3.62,39.61,11.54,40.63,32.35c3.5,71.59,1.37,218.03-72.98,232.65
					c-90.1,17.72-99.61-83.94-86.89-218.26C2663.77,1658.31,2675.48,1645.75,2690.78,1643.05z"/>
			</g>
			<g>
				<path class="st1" d="M2662.52,1673.61c-13.03,134.28-3.75,236,86.39,218.45c37.02-7.15,56.22-47.08,65.72-94.17
					c-9.7,12.03-21.77,20.39-36.84,23.3c-80.69,15.67-96.62-64.22-89.63-177.55C2674.25,1647.18,2663.89,1659.14,2662.52,1673.61z"
					/>
			</g>
			<g>
				<path class="st2" d="M2729.78,1910.02c-94.17-10.37-92.93-95.61-83.2-237.95c2.85-56.99,94.63-49.58,132.53-60.68
					c29-5.73,58.57,17.86,59.26,47.45C2842.48,1752.39,2836.19,1913.12,2729.78,1910.02z M2787.89,1642.61
					c-1.09,0-2.19,0.09-3.3,0.29l-90.82,15.8c-8.25,1.43-14.57,8.2-15.37,16.46c-3.8,39.22-15.38,158.57,22.05,192.6
					c87.72,43.58,110.7-63.18,105.97-207.42C2806.22,1650.68,2797.45,1642.44,2787.89,1642.61z M2691.04,1642.95h0.05H2691.04z"/>
			</g>
			<g>
				<path class="st2" d="M2791.47,1378.68c-43.11,1.08-86.83,3.73-129.43,10.49c-9.61,1.77-12.95-13.1-3.52-15.59
					c42.92-12.27,86.39-20.26,130.5-26.78C2811.08,1343.97,2813.76,1378.09,2791.47,1378.68z"/>
			</g>
		</g>
		<g>
			<path class="st0" d="M1892.48,2539.71c-0.16,15.38,6.66,32.19,24.38,50.12c54.16,54.68,329.92,55.51,363.02-39.05
				c27.97-65.59-13.61-549.44,9.99-744.72L1961,1763.31c-12.44,113.56-28.52,566.43,21.29,685.44
				C1982.29,2448.76,1893.08,2484.96,1892.48,2539.71z"/>
		</g>
		<g>
			<path class="st1" d="M1892.48,2539.71c-0.16,15.38,6.66,32.19,24.38,50.12c54.16,54.68,329.92,55.51,363.02-39.05
				c27.97-65.59-13.61-549.44,9.99-744.72L1961,1763.31c0,0-8.48,100.98-12.01,229.25c18.32,37.19,57.85,92.22,140.79,134.92
				c136.8,57.37,182.8,278.53,104.19,384.32C2129.54,2572.26,1953.27,2574.56,1892.48,2539.71z"/>
		</g>
		<g>
			<path class="st2" d="M2075.06,2642.97c-177.15,11.44-283.26-115.7-112.19-202.95c-48.75-189-38.58-705.81-0.57-692.65
				c8.81,0.75,15.35,8.47,14.61,17.27c-0.29,7.93-42.96,511.12,25.26,693.3c-39,13.18-134.18,66.12-73.94,120.65
				c30.38,39.34,295.22,57.27,336.57-33.1c27.86-178.15-16.58-519.6,9.14-740.58c0.61-8.8,8.29-15.38,17.06-14.82
				c8.81,0.62,15.44,8.27,14.82,17.08c-11.65,164.16-8.07,358.9-2.15,504.31C2317.3,2568.24,2315.53,2635.37,2075.06,2642.97z"/>
		</g>
		<g>
			<path class="st2" d="M2094.91,2288.83c-18.19,0.15-172.06-6.63-158.38-43.74c2.84-8.37,11.93-12.84,20.28-10.01
				c184.37,64.93,333.46-36.16,343.31-2.42C2315.18,2260.89,2205.98,2284.96,2094.91,2288.83z"/>
		</g>
		<g>
			<path class="st2" d="M2135.69,2468.21c-23.18,7.45-184.28,19.59-169.28-25.6c3.36-8.96,14.13-12.95,22.52-8.39
				c32.28,16.08,70.62,19.3,106.61,19.7c12.62,0.02,25.52-0.4,37.89-1.52C2143.23,2451.31,2145.38,2466.51,2135.69,2468.21z"/>
		</g>
		<g>
			<path class="st4" d="M2195.6,2101.39"/>
		</g>
		<g>
			<path class="st5" d="M2002.48,1445.04"/>
		</g>
		<g>
			<path class="st0" d="M1988.46,1847.48c50.23,253.64,530.47,295.77,605.44,15.93c23.14-121.2-8.44-280.87-25.84-417.39
				c-16.84-127.66-111.3-269.32-87.52-424.55l-451.6,359.89C1997.06,1526.95,1960.98,1763.32,1988.46,1847.48z"/>
		</g>
		<g>
			<path class="st0" d="M2041.78,1371.11c142.43,85.67,367.61,84.17,508.4-3.45c-32.02-106.58-88.65-222.02-69.63-346.19
				L2041.78,1371.11z"/>
		</g>
		<g>
			<path class="st1" d="M2438.01,1241.09l32.42,163.65c50.57-18.11,96.29-43.8,135.12-75.35
				C2549.35,1289.56,2490.71,1259.29,2438.01,1241.09z"/>
		</g>
		<g>
			<path class="st1" d="M2384.39,1861.62c89.04,23.69,153.66,33.38,200.51,34.68c30.11-99.45,15.75-199.35,1-320.71l-82.37-3.75
				C2503.54,1571.84,2538.87,1791.28,2384.39,1861.62z"/>
		</g>
		<g>
			<path class="st2" d="M2036.75,1383.08c-9.13,129.71-70.49,367.04-24.98,481.32c32.81,89.7,112.93,155.04,207.55,168.93
				c133.9,21.28,327.15-18.36,358.62-171.7c23.31-139.34-10.32-282.31-26.86-421.1c-25.63-140.22-110.56-273.51-86.35-421.48
				c1.32-8.73,9.47-14.73,18.2-13.41c8.75,1.32,14.76,9.51,13.41,18.25c-20.27,131.93,48.89,252.49,79.7,378.14
				c4,16.25,6.85,33.56,9.01,50.28c16.65,136.96,48.18,277.14,24.3,415.36c-20.73,121.75-146.76,186.04-259.09,198.99
				c-135.62,21.82-292.25-27.67-354.11-158.85c-46.17-81.75-35.19-178.77-27.03-267.72
				C1968.93,1625.12,2012.11,1319.48,2036.75,1383.08z"/>
		</g>
		<g>
			<path class="st0" d="M2879.67,1137.6"/>
		</g>
		<g>
			<path class="st0" d="M2259.26,2054.15c26.05,122.59,39.09,447.8,90.83,526.77c57.59,87.91,315.13,61.34,343.79,50.7
				c25.28-8.2,58.99-31.25,57.68-83.51c-0.13-65.66-81.41-91.49-81.41-91.49c0.29-12.89-51.24-487.61-85.25-601.5l-606.17-56.8
				C1965.82,2021.51,2259.26,2054.15,2259.26,2054.15z"/>
		</g>
		<g>
			<path class="st1" d="M2259.26,2054.15c73.69,361.37-43.85,669.64,434.63,577.45c24.56-9.1,56.32-26.82,57.63-79.61
				c-20.51,19.11-67.27,42.58-173.55,42.58c-179.22,0-205.18-154.57-219.97-262.82c-23.25-170.54-1.31-348.41,266.26-260.81
				c-12.09-83.64-25.61-162.78-39.35-215.83l-606.17-56.8C1965.82,2021.51,2259.26,2054.15,2259.26,2054.15z"/>
		</g>
		<g>
			<path class="st2" d="M2562.06,2659.76c-94.36,2.48-201.26-23.35-225.32-70.1c-52.08-75.54-66.19-388.48-90.92-521.26
				c-123.46-11.38-305.33-120.83-283.04-271.04c0.5-8.81,8-15.47,16.87-15.03c8.81,0.51,15.55,8.07,15.04,16.88
				c-22.05,150.29,179.89,237.02,277.82,240.35c29.31,127.49,39.62,448.38,90.97,532.58c50.64,77.3,296.27,55.08,324.83,44.46
				c24.63-9.16,47.4-23.79,47.29-68.47c-4.61-60.59-70.15-74.82-80.32-79.52l-1.04-10.47c-0.42-4.32-41.92-433.52-84.79-599.02
				c-2.21-8.54,2.92-17.27,11.47-19.48c8.54-2.23,17.27,2.92,19.48,11.46c40.36,155.79,78.1,527.01,84.7,594.08
				c99.78,31.42,112.33,171.33,14.34,201.39C2683.34,2652.57,2624.39,2659.76,2562.06,2659.76z"/>
		</g>
		<g>
			<path class="st2" d="M2417.35,2249.01c-41.35,0-87.52-3.42-137.94-12.22c-8.7-1.51-14.52-9.79-13-18.5
				c1.52-8.7,9.82-14.53,18.5-13c237.22,45.87,355.13-50.38,370.13-19.54C2670.08,2215.41,2562.06,2244.72,2417.35,2249.01z"/>
		</g>
		<g>
			<g>
				<path class="st0" d="M1885.3,1750.79c-2.98,75.22,111.36,80.27,115.01,5.08C2003.3,1680.65,1888.95,1675.61,1885.3,1750.79z"/>
			</g>
			<g>
				<path class="st1" d="M1885.32,1750.78c0.76,93.4,142.21,67.87,110.58-19.75c-19.78,42.15-88.03,39.17-103.96-4.59
					C1888.04,1733.73,1885.7,1742.01,1885.32,1750.78z"/>
			</g>
			<g>
				<path class="st2" d="M1942.85,1826.89c-41.69,0.11-75.46-35.14-73.52-76.8l0,0c1.25-64.03,85.66-94.71,127.73-46.41
					C2040.45,1748.19,2004.88,1828.87,1942.85,1826.89z M1942.76,1711.76c-21.61-0.42-40.97,18.1-41.49,39.75l0,0
					c-2.1,54.31,80.35,57.96,83.07,3.66C1985.87,1732.15,1965.81,1711.24,1942.76,1711.76z M1885.3,1750.79h0.05H1885.3z"/>
			</g>
			<g>
				<g>
					<path class="st0" d="M2002.76,1903.9l300.88,8.49c35.61,1.02,65.6-27.31,66.61-62.96c0,0,4.51-160.11,4.51-160.11
						c0.88-31.22-20.73-58.06-50.05-64.93c-4.15-1-8.47-1.55-12.91-1.68c0,0-300.84-8.49-300.84-8.49
						c-93.22-2.07-62.6,133.19-70.22,189.78C1934.63,1851.28,1946.92,1900.53,2002.76,1903.9z"/>
				</g>
				<g>
					<path class="st0" d="M2658.02,1698.61c0,0,38.73,12.58,38.87,63.01c0.11,39.52-17.79,56.36-17.79,56.36
						s-132.35,48.17-304.86,7.18c0,0-32.54-13.37-36.04-60.34c-1.34-17.94,8.87-45.52,33.9-52.05
						C2372.09,1712.76,2528.78,1740.1,2658.02,1698.61z"/>
				</g>
				<g>
					<path class="st0" d="M2002.76,1903.9l300.88,8.49c35.61,1.02,65.6-27.31,66.61-62.96c0,0,4.51-160.11,4.51-160.11
						c0.88-31.22-20.73-58.06-50.05-64.93c-4.15-1-8.47-1.55-12.91-1.68c0,0-300.84-8.49-300.84-8.49
						c-93.22-2.07-62.6,133.19-70.22,189.78C1934.63,1851.28,1946.92,1900.53,2002.76,1903.9z"/>
				</g>
				<g>
					<path class="st0" d="M2658.02,1698.61c0,0,38.73,12.58,38.87,63.01c0.11,39.52-17.79,56.36-17.79,56.36
						s-132.35,48.17-304.86,7.18c0,0-32.54-13.37-36.04-60.34c-1.34-17.94,8.87-45.52,33.9-52.05
						C2372.09,1712.76,2528.78,1740.1,2658.02,1698.61z"/>
				</g>
				<g>
					<path class="st0" d="M2002.76,1903.9l300.88,8.49c35.61,1.02,65.6-27.31,66.61-62.96c0,0,4.51-160.11,4.51-160.11
						c0.88-31.22-20.73-58.06-50.05-64.93c-4.15-1-8.47-1.55-12.91-1.68c0,0-300.84-8.49-300.84-8.49
						c-93.22-2.07-62.6,133.19-70.22,189.78C1934.63,1851.28,1946.92,1900.53,2002.76,1903.9z"/>
				</g>
				<g>
					<path class="st1" d="M2002.76,1903.9l300.88,8.49c35.61,1.02,65.6-27.31,66.61-62.96l4.51-160.11
						c0.88-31.22-20.73-58.06-50.05-64.93c-17.41,10.86-28.46,17.82-28.46,17.82c-6.95,200.61-202.66,222.99-355.5,161.79
						C1934.59,1851.34,1946.97,1900.53,2002.76,1903.9z"/>
				</g>
				<g>
					<path class="st2" d="M2307.41,1928.47c-2.4,0.2-304.6-8.72-307.09-8.64c-43.44-1.23-77.78-37.57-76.55-81.02
						c10.47-70.03-30.32-242.86,85.64-240.66c0,0,304.83,8.61,304.83,8.61c20.97,0.6,40.51,9.37,55,24.71
						c14.49,15.34,22.15,35.33,21.56,56.31C2380.32,1756.94,2420.77,1928.51,2307.41,1928.47z M2007.17,1630.1
						c-25.22,0-46.09,20.15-46.8,45.52c-12.51,290.92-28.73,193.96,345.7,220.87c25.68,0.76,47.41-19.68,48.14-45.51
						C2366.6,1560.2,2383.54,1656.94,2007.17,1630.1z"/>
				</g>
				<g>
					<path class="st0" d="M1990.71,1902.38c3.88,0.92,7.88,1.43,12.04,1.53c0,0,300.88,8.49,300.88,8.49
						c35.87,1.12,65.8-28,66.57-62.96c1.24-45.06,3.33-115.16,4.55-160.12c-0.77-73.7-74.93-68.07-127.98-68.43
						c69.11,13.15,47.87,102.26,48.59,151.58c-1.62,53.94,8.85,135.93-68.71,136.63
						C2226.67,1909.09,1990.71,1902.38,1990.71,1902.38z"/>
				</g>
				<g>
					<path class="st1" d="M1990.71,1902.38c3.88,0.92,7.88,1.43,12.04,1.53l300.88,8.49c84.49,0.63,65.23-102.63,69.28-157.56
						c-13.91,32.55-50.47,56.5-77.54,17.63c-1.64,54.05,8.86,135.88-68.71,136.63C2226.67,1909.09,1990.71,1902.38,1990.71,1902.38z
						"/>
				</g>
				<g>
					<path class="st2" d="M2305.53,1928.42c-2.52,0.02-300.63-8.5-303.23-8.54c-5.01-0.11-10.15-0.75-15.17-1.9l4.02-31.57
						l235.99,6.68c26.07,1.33,49.98-21.36,50.15-47.42c0,0,4.52-160.15,4.52-160.15c0.66-23.41-15.5-44.05-38.42-49.06l3.86-31.6
						c64.8-1.29,141.94,0.19,143.47,84.9c0,0-4.52,160.12-4.52,160.12C2385.93,1892.27,2347.85,1929.28,2305.53,1928.42z
						 M2290.47,1896.04c32.02,4.66,62.27-12.63,63.78-47.03c0,0,4.52-160.14,4.52-160.15c1.24-32.46-28.56-53.73-59.26-50.53
						c27.35,28.64,6.54,172.14,9.75,208.24C2308.74,1864.88,2302.14,1882.14,2290.47,1896.04z"/>
				</g>
				<g>
					<path class="st6" d="M2176.87,1764c-0.13,5.92,7.12,53.92,7.12,53.92c33.53,2.54,73.45,4.83,77.01-52.03
						c-1.15-56.49-39.88-56.53-74.6-55.43C2186.4,1710.46,2177.08,1754.35,2176.87,1764z"/>
				</g>
				<g>
					<path class="st7" d="M2176.87,1764c-0.13,5.92,7.12,53.92,7.12,53.92c33.53,2.54,73.45,4.83,77.01-52.03
						c-1.15-56.49-39.88-56.53-74.6-55.43C2186.4,1710.46,2177.08,1754.35,2176.87,1764z"/>
				</g>
				<g>
					<path class="st2" d="M2218.5,1830.67c-2.14,0.11-22.65-0.59-24.48-0.54c-11.85-0.27-21.7-8.97-23.41-20.68
						c-5.86-39.93-5.77-43.99-5.73-45.72l0,0c0.01-0.39,0.02-0.93,0.08-1.76c0.26-3.78,1.47-13.68,7.62-43.9
						c2.33-11.49,12.59-19.8,24.27-19.38c22.67-0.36,47.73-0.17,62.29,21.75C2288.16,1756.31,2269.63,1830.08,2218.5,1830.67z
						 M2188.86,1764.2c0.02,0.98,0.41,7.23,5.48,41.78c0,0,23.66,0.71,23.66,0.71c19.3,0.07,30.88-22.35,31.02-41.06
						c0.73-18.77-9.87-41.45-29.14-42.42c0,0-23.56-0.53-23.56-0.53C2190.9,1748.29,2188.95,1760.87,2188.86,1764.2z M2176.87,1764
						h0.05H2176.87z"/>
				</g>
				<g>
					<path class="st6" d="M2143.13,1763.24c-1.24,70.33,82.22,72.21,84.13,1.89C2228.5,1694.8,2145.04,1692.93,2143.13,1763.24z"/>
				</g>
				<g class="st8">
					<path class="st0" d="M2143.78,1774.3c9.73-55.93,75.3-54.24,82.35,2C2238.21,1691.29,2135.58,1688.83,2143.78,1774.3z"/>
				</g>
				<g>
					<path class="st7" d="M2183.97,1817.9c30.03,2.01,51.07-41.24,40.93-72.17c-13.51,44.95-67.03,43.75-78.53-1.7
						C2134.83,1774.44,2153.95,1818.53,2183.97,1817.9z"/>
				</g>
				<g>
					<path class="st2" d="M2184.73,1829.91c-52.36-0.68-68.88-76.97-37.7-111.99c10.56-12.88,24.74-19.84,39.64-19.45
						C2256.73,1700.25,2254.57,1829.84,2184.73,1829.91z M2185.66,1722.44c-19.08,0.54-30.39,22.4-30.54,41.07l0,0
						c-0.75,18.9,10.07,41.87,29.61,42.42C2223.68,1805.59,2225.01,1723.09,2185.66,1722.44z M2143.13,1763.24h0.05H2143.13z"/>
				</g>
				<g>
					<path class="st2" d="M2096.33,1917.38c-6.64,0-12.02-5.41-11.99-12.05c0,0,0.37-81.04,0.37-81.04
						c0.07-14.8-7.24-28.55-19.54-36.78c-19.47-13.02-30.75-34.78-30.17-58.19l2.83-114.21c0.19-15.35,24.59-15.05,23.97,0.6
						c0,0-2.83,114.21-2.83,114.21c-0.38,15.16,6.92,29.24,19.52,37.67c19.01,12.71,30.3,33.96,30.19,56.82l-0.37,81.04
						C2108.28,1912.04,2102.92,1917.38,2096.33,1917.38z"/>
				</g>
			</g>
			<g>
				<path class="st0" d="M2658.02,1698.61c0,0,38.73,12.58,38.87,63.01c0.11,39.52-17.79,56.36-17.79,56.36
					s-132.35,48.17-304.86,7.18c0,0-32.54-13.37-36.04-60.34c-1.34-17.94,8.87-45.52,33.9-52.05
					C2372.09,1712.76,2528.78,1740.1,2658.02,1698.61z"/>
			</g>
			<g>
				<path class="st1" d="M2338.21,1764.83c3.48,46.94,36.03,60.32,36.03,60.32c172.5,40.99,304.87-7.19,304.87-7.19
					c8.46-3.65,27.41-55.72,12.16-86.2c-4.11,26.74-16.51,38.36-16.51,38.36s-132.37,48.18-304.87,7.19c0,0-18.71-7.7-29.23-31.86
					C2338.52,1752.21,2337.79,1759.03,2338.21,1764.83z"/>
			</g>
			<g>
				<path class="st2" d="M2516.08,1857.78c-43.45-0.12-94.69-4.37-147.92-17.85c-36.51-8.13-80.72-115.71-0.09-142.64
					c0,0,3.35-0.87,3.35-0.87s3.42,0.59,3.42,0.59c0.09,0.91,163.36,25.98,283.21-15.21c55.22,10.91,73.74,104.27,31.99,147.81
					C2678.2,1837.09,2622.07,1855.89,2516.08,1857.78z M2379.6,1809.99c148.77,34.91,267.81,1.32,290.24-5.79
					c16.81-20.96,15.1-77.4-12.79-88.54c-120.24,36.58-258.27,17.52-283.76,13.51C2334.74,1748.02,2364.22,1806.58,2379.6,1809.99z"
					/>
			</g>
		</g>
		<g>
			<path class="st2" d="M2486.44,2464.43c60.66,0.57,121.87-8.2,180.54-23.49c20.25-5.11,28.24,25.72,7.94,31.01
				c-47.03,8.36-94.81,12.03-142.53,11.16c-15.76-0.32-31.25-1.03-47.25-2.74c-4.39-0.47-7.57-4.41-7.1-8.8
				C2478.5,2467.3,2482.24,2464.2,2486.44,2464.43z"/>
		</g>
		<g>
			<path class="st0" d="M2422.26,1496.32l-73.91,141.66l-90.7-20.81c0,0-259.5,268.05-385.11,165.05
				c-58.99-48.38-67.32-117.05-49.17-188.52c33.77-133.24,159.68-276.25,221.37-315.65c38.92-24.87,112.52,0,112.52,0
				C1904.99,1650.2,2189.57,1254,2422.26,1496.32z"/>
		</g>
		<g>
			<path class="st1" d="M2422.26,1496.32l-73.91,141.66l-90.7-20.81c0,0-259.5,268.05-385.11,165.05
				c-58.99-48.38-67.32-117.05-49.17-188.52c19.57,216.67,407.2,102.02,366.26-41.11c-16.84-45.8,36.47,25.14,68.76-23.11
				c22.03-32.98,4.97-5.89,32.68,21.03c28.13,28.31,97.41,3.45,127.92-57.15C2421.13,1495.23,2422.26,1496.32,2422.26,1496.32z"/>
		</g>
		<g>
			<path class="st2" d="M1974,1488.21c67.8-64.53,208.15-102.89,300.73-92.68c61.27,10.73,113.69,47.75,158.53,89.22
				c5.3,4.97,6.43,12.73,3.23,18.87c-0.07,0.1-73.91,141.66-73.98,141.78c-3.44,6.59-10.83,9.77-17.75,8.19
				c0,0-90.69-20.82-90.69-20.82l15.06-4.46c-88.03,84.46-282.55,260.23-406.96,166.08c-85.25-67.43-71.72-186.11-29.54-273.94
				c45.3-95.75,110.03-182.57,193-248.64c27.37-22.48,66.06-23.55,98.81-17.89c16.16,4.62,54.38,3.88,48.25,29.11
				c-2.75,8.57-12.07,13.16-20.54,10.18c-20.49-6.37-44.36-10.82-65.85-10.06c-71.06-1.4-199.01,187.04-224.52,250.42
				c-29.34,64.65-49.45,147.77-4.62,209.39c15.83,20.78,36.52,39.78,63.11,44.7c115.55,14.33,246.39-106.6,325.88-181.59
				c4.01-4.16,9.81-5.66,15.06-4.47c0,0,90.69,20.82,90.69,20.82l-17.75,8.19l73.91-141.66l3.16,18.98
				c-37.71-31.96-80.64-61.46-128.65-74.62c-102.81-17.18-206.78,25.59-299.13,67.79C1975.66,1505.42,1967.49,1494.32,1974,1488.21z
				"/>
		</g>
		<g>
			<g>
				<path class="st0" d="M1744.73,811.31c-4.66,145.23,59.58,298.2,167.57,399.11c576.71,513.33,1308.19-373.52,667.38-829.6
					C2233.75,149.95,1748.61,395.41,1744.73,811.31z"/>
				<path class="st2" d="M2289.96,1362.84c-166.72,1.47-335.67-81.05-436.34-215.46c-280.23-359.08,6.29-887.74,458.85-855.82
					C3006.4,353.79,2991.57,1338.71,2289.96,1362.84z M1744.74,811.31l1.61,0.03c-3.78,148.37,59.16,296.01,167.07,397.91
					c184.69,180.7,493.99,200.57,698.26,44.66c289.85-202.39,276.51-668-16.99-861.01c-340.41-245.94-844.48-7.02-848.33,418.44
					L1744.74,811.31z"/>
			</g>
			<g>
				<path class="st1" d="M2612.63,1255.2c-418.9,307.26-993.83-95.41-844.61-588.64c13.35,609.01,863.5,746.59,1058.12,163.24
					C2826.56,991.62,2752.98,1151.02,2612.63,1255.2z"/>
			</g>
			<g>
				<path class="st2" d="M2289.96,1373.63c-170,1.49-342.26-82.65-444.9-219.69c-285.83-366.27,6.39-905.68,468.06-873.13
					C3020.89,344.31,3005.45,1349.04,2289.96,1373.63z M1757.13,811.57c-3.7,145.38,57.97,290.01,163.72,389.88
					c181,177.12,484.22,196.62,684.39,43.81c284-198.31,270.8-654.43-16.74-843.52C2254.97,160.75,1760.92,394.62,1757.13,811.57
					L1757.13,811.57z"/>
			</g>
			<g>
				<path class="st2" d="M2289.95,1377.22c-171.09,1.5-344.45-83.18-447.76-221.1c-287.7-368.67,6.43-911.66,471.13-878.9
					C3025.71,341.16,3010.08,1352.47,2289.95,1377.22z M1760.72,811.65c-3.67,144.39,57.58,288.01,162.6,387.2
					c179.79,175.92,480.94,195.31,679.77,43.53c282.05-196.94,268.89-649.91-16.66-837.69
					C2255.2,165.35,1764.49,397.53,1760.72,811.65L1760.72,811.65z"/>
			</g>
			<g>
				<path class="st2" d="M1759.65,947.62c165.93,346.51,618.55,425.53,827.22,110.18c260.4-426.8-329.23-987.99-740.19-547.62
					C1757.4,611.84,1727.43,823.86,1759.65,947.62z"/>
			</g>
			<g>
				<path class="st9" d="M2586.85,1057.8c-207.28,318.28-679.35,234.34-829.36-121.78c272.24,226.24,677.34,220.27,894.35-94.64
					C2651.05,916.78,2630.65,991.58,2586.85,1057.8z"/>
			</g>
			<g>
				<path class="st2" d="M2228.43,1327.52c-146.9-1.56-320.66-59.96-403.56-195.45c-237.93-329.53-8.18-821.47,396.6-852.4
					C2854.26,355.63,2910.76,1297.15,2228.43,1327.52z M1922.42,1197.98c346.39,260.36,867.38-36.46,755.04-475.34
					c-69.99-310.86-442.67-538.69-709.76-311.46C1712.34,590.43,1692.84,989.54,1922.42,1197.98z"/>
			</g>
			<g>
				<path class="st2" d="M2225.54,1271.94c-202.71-0.29-389.36-125.88-481.23-319.32c-33.99-129.8-1.84-350.41,91.11-453.8
					c274.96-309.53,730.92-141.72,818.99,226.09C2730.63,1001.06,2500.39,1278.49,2225.54,1271.94z M1774.98,942.61
					c401.75,722.08,1293.96-26.58,623.42-513.87C2046.28,227.27,1684.1,555.47,1774.98,942.61z"/>
			</g>
			<g>
				<path class="st0" d="M2807.06,1156.51c-108.09,219.64-370.59,115.6-257.47-114.91C2668.73,818.04,2914.47,934.5,2807.06,1156.51
					z"/>
			</g>
			<g>
				<path class="st1" d="M2807.06,1156.51c-108.14,219.68-370.56,115.57-257.47-114.9c7.86,69.54,133.24,3.97,142.61,1.21
					c0,0,59.44,20.92,136.74,49.12C2824.98,1113.22,2817.74,1135.07,2807.06,1156.51z"/>
			</g>
			<g>
				<path class="st2" d="M2637.26,1295.63c-128.79-1.95-159.22-156.95-102.89-259.37c128.37-244.53,404.32-113.99,287.02,127.38l0,0
					C2781.06,1244.56,2706.01,1295.63,2637.26,1295.63z M2717.58,936.01c-128.13-7.71-259.07,245.7-118.34,319.96
					c110.87,53.27,258.24-140.54,208.76-254.26C2793.59,960.72,2759.01,935.78,2717.58,936.01z"/>
			</g>
			<g>
				<path class="st0" d="M2781.38,1229.44c-57.93,58.34-136.2,63.03-174.83,10.47c-88.62-107.28,103.57-339.93,209.79-211.26
					C2854.95,1081.2,2839.31,1171.1,2781.38,1229.44z"/>
				<path class="st2" d="M2680.4,1278.13c-179.44-13.95-80.06-301.94,69.95-287.41C2916.68,1014.13,2822.33,1283.03,2680.4,1278.13z
					 M2742.47,993.76c-137.85-4.77-231.55,257.5-69.69,280.75C2817.73,1289.89,2916.83,1006.55,2742.47,993.76z"/>
			</g>
			<g>
				<path class="st1" d="M2585.71,1143.77c6.05-28.06,19.93-54.51,38.56-76.58c-15.46,133.09,139.57,135.8,203.22,49.24
					C2817.11,1265.33,2559.68,1346.09,2585.71,1143.77z"/>
			</g>
			<g>
				<path class="st2" d="M2675.66,1292.22c-104.31-3.04-118.81-128.09-74.12-210.36c106.77-204.4,322.62-100.25,224.38,98.28l0,0
					C2791.25,1249.05,2730.67,1292.22,2675.66,1292.22z M2752.54,1001.95c-93.41-5.62-206.78,193.5-102.4,253.23
					c82.88,38.07,200.06-124.69,161.53-209.65C2801.84,1018.14,2780.07,1001.82,2752.54,1001.95z M2811.65,1172.96h0.05H2811.65z"/>
			</g>
			<g class="st10">
				<path class="st0" d="M2481.8,566.94c-240.95-128.29-533.78-144.24-638.29,250.54c-30.22-82.89-21.29-168.88,31.1-245.28
					c-0.03-0.04,0.01-0.07,0.08-0.09C2044.52,310.54,2402.84,413.42,2481.8,566.94z"/>
			</g>
			<g class="st10">
				<path class="st0" d="M2441.79,848.28c-25.13,105.69,114.37,140.21,140.6,34.46C2607.52,777.06,2468.02,742.54,2441.79,848.28z"
					/>
			</g>
			<g class="st10">
				<path class="st0" d="M2447.02,1007.66c-6.62,44.32,51.93,53.85,59.02,9.35C2512.66,972.68,2454.11,963.15,2447.02,1007.66z"/>
			</g>
		</g>
		<g>
			<path class="st0" d="M2404.33,1911.57c-203.57,12.52-312.12-155.01-312.12-155.01c-5.09,10.16,175.31-152.77,174.95-153.88
				c22.37,0.94,67.44,2.87,89.83,3.84c0,0,50.26-58.81,73.38-153.44l-20.77-81.02C2785.54,1007.21,2817.66,1924.96,2404.33,1911.57z
				"/>
		</g>
		<g>
			<path class="st1" d="M2404.33,1911.57c-203.57,12.52-312.12-155.01-312.12-155.01c-5.09,10.16,175.31-152.77,174.95-153.88
				l89.83,1.88c4.57,39.08-92.95,165.58,2.53,201.21c203.15,75.81,318.97-138.91,341.35-304.79
				C2703.14,1662.89,2652.62,1896.3,2404.33,1911.57z"/>
		</g>
		<g>
			<path class="st2" d="M2403.12,1367.38c35.31-70.43,124.64-111.32,201.18-89.21c64.82,17.97,101.22,84.17,108.52,147.18
				c30.34,227.99-50.43,503.25-322.42,504.49c-107.61,3.2-212.12-48.6-282.93-128.22c-54.93-60.62-29.24-48.61,19.99-93.78
				c45.16-36.91,85.11-78.72,129.23-117.23c2.8-8.54,94.02,1.27,100.99-0.06l-12.84,5.59c14.98-21.9,29.39-45.94,41.46-69.79
				c12.95-24.87,22.66-50.28,36.31-75.18c2.13-4.13,7.28-5.7,11.34-3.41c10.08,6.99,0.01,40.32-1.99,51.28
				c-12.39,43.13-32.78,84.11-62.81,117.86c-4.76,12.05-93.12-0.18-102.68,1.76l11.15-3.89c-57.9,51.87-113.03,107.88-175.75,154.52
				l3.75-21.42c133.77,190.24,445.19,210.02,539.9-26.33c39.77-102.57,50.67-223.46,24.78-331.13
				c-41.73-128.37-180.18-93.5-254.22-13.68C2409.91,1383.4,2398.92,1375.07,2403.12,1367.38z"/>
		</g>
		<g>
			<g>
				<path class="st0" d="M2048.9,1358.17c-15.78,46.66-27.07,104.6-27.07,104.6L2048.9,1358.17z"/>
			</g>
			<g>
				<path class="st2" d="M2056.47,1360.73c-8.62,34.43-14.49,69.95-18.95,105.14c-3.01,22.29-37.03,15.66-31.38-6.17
					c9.95-35.41,21.1-70.1,35.18-104.1C2044.88,1346.57,2059.16,1351.44,2056.47,1360.73z"/>
			</g>
		</g>
		<g>
			<path class="st2" d="M2557.12,1878.78c-9.29,0.04-16.74-8.01-15.95-17.28c14.83-234.12-195.47-244.54-183.49-281.95
				c2.67-8.41,11.63-13.08,20.04-10.43c87.4,28.02,214.34,135.21,195.31,294.96C2572.36,1872.44,2565.36,1878.78,2557.12,1878.78z"
				/>
		</g>
		<g>
			<path class="st2" d="M1929.1,1821.11c-149.69-81.51-0.07-334.91,111.64-379.21c8.14-3.46,17.52,0.36,20.96,8.49
				c3.44,8.13-0.36,17.51-8.5,20.95c-89.01,37.69-221.26,237.31-115.65,320.21C1951.23,1799.34,1944.53,1821.74,1929.1,1821.11z"/>
		</g>
		<g>
			<path class="st2" d="M1615.34,153.81c-140.87,6.02-147.74,13.28-153.81,153.81c-6.02-140.87-13.28-147.74-153.81-153.81
				c140.87-6.02,147.74-13.28,153.81-153.81C1467.55,140.87,1474.81,147.74,1615.34,153.81z"/>
		</g>
		<g>
			<path class="st2" d="M1367.29,383.43c-80.24,3.43-84.15,7.56-87.61,87.61c-3.43-80.24-7.56-84.15-87.61-87.61
				c80.24-3.43,84.15-7.56,87.61-87.61C1283.11,376.06,1287.24,379.98,1367.29,383.43z"/>
		</g>
		<g>
			<path class="st2" d="M1666.18,457.3c-63.4,2.71-66.49,5.98-69.22,69.22c-2.71-63.4-5.98-66.49-69.22-69.22
				c63.4-2.71,66.49-5.98,69.22-69.22C1599.67,451.48,1602.93,454.57,1666.18,457.3z"/>
		</g>
	</g>
</g>
</svg>
