<?xml version="1.0" encoding="utf-8"?>
<!-- Generator: Adobe Illustrator 28.0.0, SVG Export Plug-In . SVG Version: 6.00 Build 0)  -->
<svg version="1.1" id="Layer_1" xmlns="http://www.w3.org/2000/svg" xmlns:xlink="http://www.w3.org/1999/xlink" x="0px" y="0px"
	 viewBox="0 0 2288.95 3366.22" style="enable-background:new 0 0 2288.95 3366.22;" xml:space="preserve">
<style type="text/css">
	.st0{fill:#FFFFFF;}
	.st1{opacity:0.25;}
	.st2{fill:#371B45;}
	.st3{opacity:0.35;}
	.st4{fill:#279EFF;}
	.st5{fill:#3E76BA;}
	.st6{fill:#AFAFB2;}
	.st7{opacity:0.7;}
	.st8{opacity:0.5;}
	.st9{fill:#121A27;}
	.st10{opacity:0.3;}
	.st11{fill:#CCCBCB;}
	.st12{fill:#FF0068;}
	.st13{opacity:0.6;}
	.st14{fill:#F6CB15;}
	.st15{fill:#2AA737;}
	.st16{fill:#CF333F;}
	.st17{fill:#356EB4;}
	.st18{opacity:0.2;}
	.st19{fill:#52246D;}
	.st20{clip-path:url(#SVGID_00000103985624676628115460000011246351288084445318_);}
	.st21{fill:#F8AF14;}
	.st22{fill:#F28F19;}
	.st23{fill:#D56B12;}
	.st24{opacity:0.41;}
	.st25{fill:#FFD666;}
	.st26{fill:#F6A73D;}
	.st27{fill:#FDCE6F;}
	.st28{fill:#FFEC8F;}
	.st29{fill:#FFD243;}
	.st30{fill:#EF9426;}
	.st31{fill:#674493;}
	.st32{fill:#1D1D1D;}
	.st33{fill:#3BA1DA;}
	.st34{fill:#22132C;}
	.st35{fill:#C57143;}
	.st36{fill:#924A24;}
	.st37{fill:#F7B694;}
	.st38{fill:#F39D78;}
	.st39{fill:#0D0A15;}
	.st40{fill:#6CDCFF;}
	
		.st41{clip-path:url(#SVGID_00000021116223590383665980000015613743523630328707_);fill:url(#SVGID_00000075848353089271110310000006483099677409187730_);}
	.st42{fill:#371A45;}
	.st43{fill:#FFAC48;}
	
		.st44{clip-path:url(#SVGID_00000115507072460277998970000002209889332844422824_);fill:url(#SVGID_00000089534625895356247320000004187498349172404621_);}
	
		.st45{clip-path:url(#SVGID_00000002353695600778900100000005283842398383582352_);fill:url(#SVGID_00000142171026433485746030000003767331568997654415_);}
	.st46{fill:#B2B2B2;}
	.st47{fill:#FF2929;}
	.st48{fill:#F75252;}
	.st49{fill:#D8D8D8;}
	.st50{fill:#E5E5E5;}
	.st51{fill:#22A7F0;}
	.st52{clip-path:url(#SVGID_00000050623890349365852520000011868191286288490427_);}
	.st53{fill:#1C7AEA;}
	.st54{clip-path:url(#SVGID_00000091721826481251427810000004129805442716307615_);}
	
		.st55{clip-path:url(#SVGID_00000114771428174449199950000009227404381083218358_);fill:url(#SVGID_00000053509807876517349880000001663057663839668154_);}
	.st56{fill:#CC3232;}
	.st57{clip-path:url(#SVGID_00000052094812030691454230000000734529071490840474_);}
	.st58{clip-path:url(#SVGID_00000168832367435007311060000002997675412357639556_);}
	.st59{fill:#B5B5B5;}
	.st60{fill:#111A28;}
	.st61{fill:#FD9D24;}
	.st62{fill:#FC7D27;}
	.st63{opacity:0.15;}
	.st64{fill:#650000;}
	.st65{fill:#EE7E80;}
	.st66{fill:#6B184E;}
	.st67{fill:#EA5C66;}
	.st68{fill:#000072;}
	.st69{fill:#FF8103;}
	.st70{fill:#F29CA3;}
	.st71{fill:#E6334F;}
	.st72{opacity:0.4;}
	.st73{fill:#D61038;}
	.st74{fill:#3374B9;}
	.st75{fill:#D3661C;}
	.st76{fill:#F5A13C;}
	.st77{fill:#E28522;}
	.st78{fill:#EAA83B;}
	.st79{fill:#D1DFE1;}
	.st80{fill:#8CAEB1;}
	.st81{fill:#FFEB36;}
	.st82{fill:#F4E736;}
	.st83{fill:#DFDEDD;}
	.st84{fill:#53AE32;}
	.st85{fill:#76B72A;}
	.st86{fill:#98A3C3;}
	.st87{fill:#3870B6;}
	.st88{fill:#220F2D;}
	.st89{fill:#FC6BB4;}
	.st90{fill:#ED45A1;}
	.st91{fill:#FDC1E5;}
	.st92{fill:#F792D3;}
	.st93{fill:#FCEE6D;}
	.st94{fill:#DA74AB;}
	.st95{fill:#263166;}
	.st96{fill:#5CC4ED;}
	.st97{fill:#FBC360;}
	.st98{fill:#56ACE0;}
	.st99{fill:#CC599C;}
	.st100{fill:#E8418F;}
	.st101{fill:#D56FA8;}
	.st102{fill:#36276B;}
	.st103{fill:#E73983;}
	.st104{fill:#E59BC3;}
	.st105{fill:#FD6CCB;}
	.st106{fill:#F948C3;}
	.st107{fill:#39D5FF;}
	.st108{fill:#3BB4FF;}
	.st109{fill:#F4C1DA;}
	.st110{fill:#FDD800;}
	.st111{fill:#F0A500;}
	.st112{fill:#FBEAF3;}
	.st113{fill:#ECB0D0;}
	.st114{fill:#F26BAF;}
	.st115{fill:#FFCCD9;}
	.st116{fill:#EFC5DE;}
</style>
<g>
	<g>
		<g>
			<g>
				<path class="st0" d="M1855.4,1749.47v694.28c0,84.05-68.09,152.14-152.1,152.14H972.42c-84,0-152.1-68.09-152.1-152.14v-694.28
					c0-45.32,19.83-86.02,51.25-113.94c26.86-23.74,62.2-38.15,100.84-38.15h730.89c38.82,0,74.21,14.5,101.1,38.42
					C1835.71,1663.67,1855.4,1704.29,1855.4,1749.47"/>
			</g>
			<g>
				<path class="st2" d="M1687.6,2615.27H988.12c-103.22,0-187.2-83.98-187.2-187.2v-662.91c0-103.22,83.98-187.2,187.2-187.2
					h699.48c103.22,0,187.2,83.98,187.2,187.2v662.91C1874.81,2531.29,1790.83,2615.27,1687.6,2615.27z M988.12,1616.76
					c-81.83,0-148.4,66.57-148.4,148.4v662.91c0,81.83,66.57,148.4,148.4,148.4h699.48c81.83,0,148.4-66.57,148.4-148.4v-662.91
					c0-81.83-66.57-148.4-148.4-148.4H988.12z"/>
			</g>
			<g>
				<path class="st0" d="M1085.66,1568.76l-8.26,276.01l-5.23,173.94c0,0-263.04,193.94-508.82,102.86
					c-349.55-129.5-231-592.34-231-592.34l298.3,18.6c0,0-1.32,119.3,80.05,159.26c4.57,2.24,9.41,4.26,14.55,5.98
					C852.63,1755.76,1085.66,1568.76,1085.66,1568.76"/>
			</g>
			<g class="st1">
				<g>
					<g>
						<path class="st2" d="M1076.79,1848.19l-5.23,173.94c0,0-263.04,193.95-508.81,102.86c-349.56-129.5-231-592.33-231-592.33
							l298.3,18.59c0,0-1.32,119.3,80.05,159.26c-11.65,26.95-32.93,56.71-71.48,81.63c-71.09,45.98-83.3,146.56-21.19,204.1
							c30.46,28.18,72.44,46.29,129.9,38.33c150.73-20.93,229.63-226.17,229.63-226.17L1076.79,1848.19z"/>
					</g>
				</g>
			</g>
			<g>
				<path class="st2" d="M704.51,2165.57c-48.4,0-98.34-7.41-147.91-25.78c-150.3-55.68-239.91-180.47-259.13-360.88
					c-14.26-133.84,14.85-249.62,16.09-254.49c2.3-9.02,10.71-15.11,20-14.55l298.3,18.59c10.31,0.64,18.31,9.25,18.19,19.58
					c0,1.16,0.02,119.42,81.36,146.66c96.23,32.26,279.58-90.91,342.09-141.08c5.9-4.74,14.02-5.61,20.79-2.24
					c6.78,3.37,10.97,10.38,10.74,17.94l-13.48,449.99c-0.18,5.95-3.09,11.5-7.88,15.03
					C1074.77,2040.91,902.85,2165.57,704.51,2165.57z M347.71,1549.63c-7.2,35.44-22.31,126.69-11.55,226.19
					c18.02,166.55,96.72,276.77,233.92,327.6c210.33,77.92,438.85-65.21,483-95.03l11.98-399.87
					c-60.88,43.83-194.07,130.15-298.42,130.16c-16.73,0-32.71-2.22-47.54-7.18c-86.18-28.86-103.53-124.58-106.98-165.38
					L347.71,1549.63z"/>
			</g>
			<g>
				<path class="st2" d="M694.59,2165.21c-8.19,0-15.81-5.23-18.46-13.45c-3.29-10.2,2.31-21.13,12.51-24.41
					c61.32-19.77,99.42-66.01,113.23-137.43c20.25-104.75-21.3-231.9-49.8-255.61c-8.24-6.85-9.36-19.08-2.51-27.31
					c6.85-8.24,19.09-9.36,27.31-2.51c40.56,33.74,85.93,174.67,63.09,292.8c-16.46,85.16-64.67,142.9-139.41,166.99
					C698.57,2164.91,696.56,2165.21,694.59,2165.21z"/>
			</g>
			<g>
				<path class="st0" d="M1631.21,1599.32c143.43,54.17,422.36,342.29,356.5,456.62c-65.86,114.32-463.33,0-463.33,0
					S1544,1566.38,1631.21,1599.32"/>
			</g>
			<g>
				<path class="st2" d="M1834.95,2126.12c-130.96,0-289.29-43.87-315.94-51.54l-14.63-4.21l0.61-15.21
					c0.04-1.03,4.27-104.04,16.95-211.33c23.79-201.22,55.53-243.67,77.32-258.11c11.92-7.89,25.69-9.5,38.79-4.55
					c117.83,44.5,316.99,233.66,367.05,373.6c16.08,44.95,15.88,82.24-0.6,110.84C1978.24,2111.22,1911.24,2126.12,1834.95,2126.12z
					 M1544.48,2041.43c149.37,40.9,385.36,76.08,426.42,4.82c10.53-18.29,9.75-44.67-2.32-78.41
					c-46.08-128.83-236.06-309.53-344.22-350.38h0c-1.18-0.44-1.76-0.65-3.67,0.61c-8.39,5.55-37.52,38.56-60.19,230.1
					C1550.84,1929.84,1546.14,2009.06,1544.48,2041.43z"/>
			</g>
			<g>
				<path class="st71" d="M1593.15,104.21c-14.77,21.14-45.36,41.5-56.05,71.92c-23.21,65.72-71.78,93.02-71.78,93.02
					s-23.39-43.13-13.93-141.81c0.92-9.67,3.65-24,8.48-39.12c14.37-44.92,47.56-96.54,108.49-51.48
					C1606.99,65.31,1606.51,85.09,1593.15,104.21"/>
			</g>
			<g class="st72">
				<g>
					<g>
						<path class="st0" d="M1595.83,99.99c-4.83-8.66-13.85-18.11-28.31-28.83c-60.93-45.06-94.12,6.55-108.49,51.47
							c-4.83,15.13-7.56,29.45-8.48,39.12c-0.57,5.94-1.01,11.65-1.36,17.19c-0.27-15.12,0.35-32.31,2.2-51.61
							c0.92-9.67,3.65-24,8.48-39.12c14.38-44.92,47.56-96.53,108.49-51.48C1604.14,63.2,1606.38,82.15,1595.83,99.99"/>
					</g>
				</g>
			</g>
			<g>
				<path class="st73" d="M1593.15,104.21c-14.77,21.14-45.36,41.5-56.05,71.92c-23.21,65.72-71.78,93.02-71.78,93.02
					s-23.39-43.13-13.93-141.81c0.92-9.67,3.65-24,8.48-39.12c9.28,19.74,26.07,42.16,54.99,44.44
					C1542.33,134.85,1572.23,118.76,1593.15,104.21"/>
			</g>
			<g>
				<path class="st2" d="M1457.66,295.7l-9.39-17.31c-1.07-1.97-26.1-49.52-16.2-152.91c2.52-26.29,19.3-99.07,66.03-119.91
					c17.29-7.7,45.5-11.26,81.8,15.57c26.23,19.39,39.17,37.51,40.72,57.03c2.06,25.81-16.24,44.47-33.93,62.52
					c-12.71,12.97-25.86,26.39-31.32,41.87l0,0c-25.31,71.78-78.31,102.23-80.56,103.49L1457.66,295.7z M1524.41,38.69
					c-5.29,0-8.69,1.52-10.5,2.32c-25.65,11.44-40.8,63.07-43.21,88.17c-4.95,51.71-0.4,87.06,4.41,107.87
					c13.96-13.13,32.31-35.14,43.69-67.39c8.32-23.58,25.25-40.87,40.19-56.11c11.61-11.85,23.62-24.1,22.96-32.29
					c-0.33-4.11-4.02-13.33-25.11-28.91C1542.09,41.43,1531.53,38.69,1524.41,38.69z M1537.09,176.11h0.05H1537.09z"/>
			</g>
			<g>
				<path class="st2" d="M1187.98,3164.15c-3.53,0-7.09-0.96-10.3-2.97c-85.55-53.73-211.46-29.95-212.71-29.7
					c-10.55,2.04-20.7-4.79-22.76-15.3s4.77-20.69,15.27-22.76c5.75-1.14,142.1-27.11,240.84,34.91c9.07,5.7,11.81,17.67,6.11,26.74
					C1200.74,3160.93,1194.43,3164.15,1187.98,3164.15z"/>
			</g>
			<g>
				<path class="st0" d="M1689.04,1762.91c49.73,236.86,126.64,558.34,92.76,876.83c-21.73,204.26-67.25,472.72-67.25,472.72
					s135.37,44.61,125.68,140.71c-0.24,2.59,5.73,103.04-262.35,92.99c-113.64-4.26-190.93-26.02-218.59-85.8
					c-24.78-53.58-21.23-291.85-21.23-291.85v-337.08h-0.35v337.08c0,0,3.55,238.27-21.23,291.85
					c-27.66,59.79-92.31,81.54-205.95,85.8c-268.08,10.05-274.74-90.4-274.98-92.99c-9.69-96.1,125.68-140.71,125.68-140.71
					s-45.52-268.47-67.25-472.72c-34.7-326.14,45.51-656.5,96.33-893.71c0,0,65.08-322.56,404.56-337.45
					C1734.35,1393.67,1689.04,1762.91,1689.04,1762.91"/>
			</g>
			<g>
				<path class="st2" d="M1698.53,1760.91c9.45,27,17.38,54.33,24.7,81.84c7.32,27.5,14.01,55.17,19.9,83.03
					c11.69,55.74,22.75,111.72,32.38,168.04c19.44,112.58,32.79,226.69,35.84,341.63c0.71,28.73,0.5,57.5-0.15,86.27
					c-0.9,28.77-2.37,57.54-4.75,86.27c-2.49,28.83-5.7,57.17-9.06,85.48c-3.38,28.32-6.96,56.59-10.74,84.83
					c-7.44,56.48-16.14,112.74-24.89,168.97c-8.79,56.24-18.04,112.31-28.11,168.43l-13.05-21.67l0.01,0
					c4.3,1.47,7.6,2.76,11.29,4.24c3.58,1.45,7.1,2.96,10.6,4.52c7,3.14,13.86,6.53,20.62,10.16c13.51,7.3,26.61,15.61,38.96,25.38
					c12.33,9.78,23.97,21.05,33.8,34.4c9.79,13.32,17.66,28.98,21.47,46.02c1.91,8.49,2.8,17.23,2.73,25.89
					c-0.08,2.15-0.08,4.34-0.26,6.45l-0.25,3.17l-0.06,0.71l0.06-0.68c0.01-0.37,0-0.33,0-0.07l-0.07,1.99
					c-0.3,5.41-1.25,10.3-2.61,14.98c-5.53,18.79-17.43,33.4-30.39,44.38c-13.14,10.96-27.56,18.83-42.14,24.84
					c-14.61,6.04-29.44,10.5-44.28,13.81c-29.71,6.77-59.45,9.71-88.99,11.18c-29.58,1.38-58.89,0.86-88.21-0.51
					c-29.35-1.59-58.89-4.3-88.53-10.32c-14.81-2.98-29.65-6.9-44.33-12.15c-14.66-5.35-29.23-12.11-42.84-21.37
					c-13.63-9.15-26.14-21.12-35.74-35.3c-2.41-3.53-4.57-7.22-6.63-10.95l-2.85-5.72c-0.93-2-1.79-4.26-2.65-6.4
					c-3-8.35-4.97-16.12-6.49-23.69c-6.02-30.25-8.18-59.22-10.19-88.41c-3.6-58.22-4.38-116.01-4.06-173.99l0.09-345.17l19.4,19.4
					h-0.35l19.4-19.4l0.08,344.65c0.33,57.9-0.45,115.59-4.01,173.73c-1.97,29.14-4.16,58.09-10.03,88.24
					c-1.54,7.57-3.42,15.29-6.25,23.52l-2.62,6.47c-0.9,1.98-1.81,3.75-2.73,5.63c-1.91,3.68-3.92,7.33-6.18,10.86
					c-8.87,14.19-20.7,26.84-34.08,36.65c-13.4,9.81-28.01,17.16-42.76,22.59c-14.77,5.49-29.71,9.35-44.57,12.24
					c-29.76,5.79-59.28,8.08-88.57,9.37c-29.25,1.11-58.61,1.25-88.13-0.48c-29.5-1.69-59.18-5.28-88.71-12.42
					c-14.75-3.66-29.47-8.19-43.92-14.32c-14.41-6.17-28.67-13.79-41.73-24.28c-12.96-10.47-25.02-23.78-32.21-41.45
					c-1.78-4.47-3.22-9.05-4.11-14.64l-0.29-2.23l-0.14-1.62l-0.25-3.17c-0.15-2.12-0.18-4.3-0.25-6.45
					c-0.02-8.65,0.86-17.38,2.81-25.85c3.84-17,11.75-32.6,21.53-45.89c9.84-13.32,21.47-24.55,33.78-34.31
					c12.35-9.74,25.43-18.03,38.91-25.32c6.76-3.63,13.61-7.01,20.59-10.15c3.5-1.57,7.02-3.08,10.59-4.52
					c3.68-1.46,6.98-2.76,11.27-4.22l0.01-0.01l-13.05,21.67c-10.18-56.83-19.55-113.62-28.44-170.58
					c-8.85-56.95-17.61-113.93-25.15-171.13c-3.8-28.59-7.41-57.24-10.81-85.92l-4.88-43.08c-1.4-14.47-3.02-29.03-4.04-43.57
					c-4.65-58.19-5.75-116.53-4.36-174.7c3.51-116.36,17.29-231.88,37.29-345.84c9.92-57,21.3-113.66,33.32-170.09
					c6.01-28.2,12.51-56.29,20.1-84.1c7.53-27.82,15.72-55.46,25.69-82.7c1.86-5.08,7.48-7.7,12.56-5.84
					c4.19,1.53,6.71,5.66,6.41,9.9c-2.09,29-6.19,57.56-10.81,85.96c-4.57,28.42-10.11,56.58-15.81,84.69
					c-11.31,56.23-21.95,112.52-31.11,168.97c-18.22,112.87-31.53,226.44-34.15,340.17c-1.44,56.83-0.44,113.67,4.01,170.18
					c0.97,14.16,2.52,28.19,3.86,42.34l4.78,42.66c3.34,28.45,6.87,56.88,10.62,85.31c7.52,56.86,15.13,113.76,23.45,170.57
					l12.71,85.19l13.02,85.09l2.54,16.57l-15.59,5.1h0c-2.51,0.85-5.91,2.15-8.89,3.36c-3.09,1.25-6.17,2.57-9.23,3.94
					c-6.12,2.75-12.17,5.73-18.07,8.9c-11.79,6.36-23.05,13.55-33.26,21.61c-20.42,16.04-36.61,36.18-41.55,58.4
					c-1.27,5.53-1.84,11.19-1.83,16.91c0.06,1.44,0.06,2.85,0.17,4.32l0.17,2.2l0.08,1.06l0.06,0.44c0.24,1.52,0.88,3.86,1.78,6.04
					c3.63,9.09,11.13,18.14,20.48,25.58c18.95,15.08,44.44,24.69,70.56,31.14c13.13,3.29,26.71,5.5,40.33,7.52
					c13.72,1.69,27.53,3.11,41.47,3.86c27.86,1.64,56.03,1.52,84.2,0.46c28.1-1.22,56.05-3.47,82.74-8.68
					c26.56-5.2,52.14-13.52,71.74-27.96c9.78-7.2,17.9-15.94,24.28-26.09c1.62-2.52,3.07-5.18,4.48-7.87l1.97-4.06l1.42-3.53
					c1.83-5.37,3.44-11.61,4.74-18.12c5.16-26.29,7.47-54.81,9.34-82.97c3.48-56.59,4.27-113.9,3.93-170.94l-0.08-344.99v-19.4h19.4
					h0.35h19.4l0,19.4l-0.09,345.5c-0.32,57.12,0.48,114.51,3.99,171.19c1.89,28.18,4.19,56.78,9.46,83.01
					c1.28,6.53,2.98,12.73,4.82,17.92c0.52,1.19,0.89,2.31,1.47,3.57l1.96,3.95c1.43,2.55,2.89,5.09,4.54,7.49
					c6.56,9.65,15.12,18.04,25.39,24.92c20.47,13.92,46.45,22.16,73.11,27.6c26.79,5.46,54.73,8.08,82.82,9.59
					c28.17,1.31,56.47,1.82,84.4,0.5c27.9-1.37,55.67-4.19,82.1-10.24c13.24-2.94,26.06-6.85,38.05-11.81
					c12.01-4.92,23.04-11.17,32.03-18.68c8.91-7.48,15.55-16.49,18.15-25.5c0.67-2.21,1.04-4.45,1.14-6.22l0.17-3.44l0.17-2.21
					c0.14-1.48,0.11-2.89,0.18-4.33c0.03-5.73-0.54-11.39-1.78-16.94c-4.88-22.26-21.07-42.45-41.5-58.53
					c-10.23-8.08-21.5-15.27-33.31-21.65c-5.91-3.19-11.95-6.17-18.09-8.92c-3.06-1.38-6.16-2.71-9.24-3.95
					c-2.99-1.21-6.4-2.5-8.91-3.36h-16.37l3.31-21.67l12.86-84.02l12.55-84.13c8.23-56.09,15.73-112.28,23.22-168.41
					c3.71-28.07,7.24-56.16,10.54-84.24c3.31-28.1,6.44-56.21,8.8-83.98c2.27-27.89,3.66-55.86,4.5-83.87
					c0.61-28.01,0.72-56.06,0.06-84.12c-2.17-112.29-14.97-224.45-32.62-335.96c-8.87-55.77-19.21-111.38-30.17-166.94
					c-5.48-27.8-10.47-55.71-14.94-83.78c-4.47-28.06-8.44-56.27-10.66-84.85c-0.42-5.38,3.61-10.09,8.99-10.51
					C1693.06,1754.04,1697.1,1756.83,1698.53,1760.91"/>
			</g>
			<g>
				<path class="st2" d="M1710.79,3131.48l-13.31-1.31c-4.59-0.48-9.21-0.82-13.84-1.2c-9.25-0.72-18.53-1.31-27.82-1.64
					c-18.57-0.82-37.13-0.67-55.63,0.3c-18.5,1.14-36.72,3.83-54.76,7.69c-18.02,4.02-35.33,10.16-52.5,17.66l-0.57,0.25
					c-4.92,2.15-10.65-0.1-12.8-5.02c-1.84-4.21-0.46-9.01,3.06-11.65c16.37-12.34,34.52-22.79,53.81-30.19
					c4.78-2.02,9.71-3.38,14.59-5.1l7.37-2.4c2.48-0.7,4.97-1.28,7.46-1.92c4.99-1.21,9.97-2.62,14.99-3.65l15.14-2.72
					c20.24-3.23,40.69-4.58,61.06-4.29c10.18,0.26,20.35,0.8,30.49,1.96c5.07,0.48,10.14,1.28,15.2,2.05
					c5.15,0.87,9.95,1.78,15.57,3.14c10.42,2.52,16.82,13,14.31,23.41c-2.3,9.53-11.28,15.71-20.77,14.75L1710.79,3131.48z"/>
			</g>
			<g>
				<path class="st2" d="M959.48,3093.42c5.62-1.35,10.41-2.29,15.57-3.15c5.06-0.84,10.14-1.53,15.19-2.12
					c10.14-1.14,20.3-1.81,30.5-2.05c5.09-0.29,10.2-0.06,15.29-0.01c5.1,0,10.21,0.32,15.3,0.61c5.1,0.33,10.19,0.69,15.29,1.36
					c5.09,0.65,10.18,0.99,15.24,1.94c20.29,3.11,40.37,8.46,59.66,15.83c19.3,7.48,37.51,17.99,53.64,30.73
					c4.22,3.33,4.95,9.46,1.61,13.68c-2.76,3.49-7.41,4.58-11.33,2.99l-0.61-0.25c-17.4-7.1-34.65-13.17-52.67-17.11
					c-18.03-3.7-36.19-6.56-54.66-7.65c-9.23-0.47-18.44-1.15-27.73-1c-9.25-0.32-18.55,0.09-27.83,0.29
					c-9.28,0.37-18.57,0.81-27.82,1.57c-4.65,0.27-9.24,0.71-13.84,1.12l-13.31,1.31l-1.08,0.1c-10.66,1.05-20.15-6.75-21.2-17.41
					C943.76,3104.42,950.21,3095.64,959.48,3093.42"/>
			</g>
			<g class="st1">
				<g>
					<g>
						<path class="st2" d="M1810.24,2394.46c-7.84,4.83-16.69,8.08-26.3,9.27c-55.6,6.98-133.96,11.91-192.86-4.16v29.54
							c0,40.83-32.18,74.25-71.43,74.25h-390.27c-39.3,0-71.43-33.42-71.43-74.25v-23.57c-54.12,8.56-117.51,4.11-164.66-1.82
							c-10.18-1.29-19.55-4.83-27.73-10.18c0.48-41.12,1.96-82,4.35-122.4c9.52-5.21,20.27-8.13,31.56-8.13
							c1.05,0,2.1,0.05,3.15,0.1c43.36,2.15,102.65,3.44,153.32-1.1v-52.97c0-40.83,32.13-74.2,71.43-74.2h390.27
							c31.36,0,58.23,21.32,67.75,50.72c2.39,7.36,3.68,15.25,3.68,23.48v49.58c55.46,8.37,129.8,7.03,181.53,4.5
							c1.06-0.05,2.11-0.1,3.16-0.1c10.75,0,20.94,2.63,30.07,7.32C1808.24,2311.32,1809.81,2352.77,1810.24,2394.46"/>
					</g>
				</g>
			</g>
			<g>
				<path class="st0" d="M1109.32,2327.78c-59.95,25.21-152.75,19.93-216.01,11.99c-37.94-4.77-64.57-41.13-58.98-80.39
					c5.1-35.83,35.46-61.89,70.3-60.2c59.17,2.88,147.93,4.23,204.13-8.71"/>
			</g>
			<g class="st1">
				<g>
					<g>
						<path class="st2" d="M1109.34,2327.77c-59.95,25.21-152.78,19.96-216.03,11.99c-37.92-4.74-64.56-41.12-58.99-80.4
							c1.18-8.35,3.73-16.18,7.46-23.25c10.09,19.42,28.8,33.59,51.53,36.46c63.16,7.93,155.81,13.22,215.77-11.9L1109.34,2327.77z"
							/>
					</g>
				</g>
			</g>
			<g>
				<path class="st2" d="M990.03,2365.72c-34.86,0-69.48-2.98-99.13-6.7c-23.05-2.9-43.64-14.85-57.99-33.64
					c-14.76-19.34-21.24-44.39-17.78-68.74c6.54-45.99,45.39-79.05,90.44-76.84c86.81,4.23,157.42,1.29,198.83-8.24
					c9.1-2.1,31.72-2.56,44.98,38.51c14.53,45,11.29,117.15-32.54,135.59l0,0C1081.14,2360.67,1035.38,2365.72,990.03,2365.72z
					 M901.41,2218.5c-23.91,0-44.28,18.36-47.87,43.61c-2.04,14.33,1.59,28.44,10.21,39.73c7.99,10.46,19.35,17.1,31.99,18.69
					c89.78,11.26,162.97,7.5,206.06-10.62h0c7.07-2.97,12.56-13.43,15.06-28.69c4.66-28.4-2.74-60.44-9.19-70.65
					c-57.43,11.98-142.12,11.02-203.99,8C902.93,2218.51,902.17,2218.5,901.41,2218.5z"/>
			</g>
			<g>
				<path class="st0" d="M1567.93,2327.78c59.96,25.21,152.75,19.93,216.01,11.99c37.94-4.77,64.57-41.13,58.98-80.39
					c-5.1-35.83-35.46-61.89-70.31-60.2c-59.17,2.88-147.92,4.23-204.13-8.71"/>
			</g>
			<g class="st1">
				<g>
					<g>
						<path class="st2" d="M1783.95,2339.76c-63.29,7.98-156.08,13.22-216.03-11.99l0.27-66.96
							c59.95,25.11,152.57,19.82,215.77,11.9c22.73-2.88,41.48-17.14,51.57-36.56c3.64,7.02,6.23,14.86,7.41,23.2
							C1848.51,2298.64,1821.87,2335.01,1783.95,2339.76"/>
					</g>
				</g>
			</g>
			<g>
				<path class="st2" d="M1687.23,2365.72c-45.37,0-91.11-5.04-126.82-20.06c-43.84-18.43-47.07-90.59-32.53-135.6
					c13.25-41.04,35.88-40.61,44.97-38.5c41.43,9.54,112.05,12.48,198.83,8.24c44.94-2.19,83.91,30.84,90.45,76.84
					c3.46,24.35-3.02,49.4-17.78,68.74c-14.35,18.79-34.95,30.74-57.99,33.64C1756.71,2362.73,1722.08,2365.71,1687.23,2365.72z
					 M1569.57,2210.56c-6.45,10.21-13.85,42.26-9.18,70.66c2.5,15.25,7.99,25.71,15.05,28.68h0c43.1,18.12,116.3,21.89,206.07,10.62
					c12.64-1.59,24-8.23,31.99-18.69c8.62-11.29,12.24-25.4,10.21-39.72c-3.71-26.04-25.35-44.89-50.16-43.55
					C1711.68,2221.57,1627,2222.53,1569.57,2210.56z"/>
			</g>
			<g>
				<path class="st0" d="M1591.09,2145.08v220.07c0,40.84-32.18,74.25-71.46,74.25H1129.4c-39.33,0-71.46-33.41-71.46-74.25v-220.07
					c0-40.79,32.13-74.21,71.46-74.21h390.23c31.38,0,58.24,21.34,67.77,50.73C1589.78,2128.99,1591.09,2136.88,1591.09,2145.08"/>
			</g>
			<g class="st1">
				<g>
					<g>
						<path class="st2" d="M1591.09,2145.08v220.07c0,40.84-32.18,74.25-71.46,74.25H1129.4c-39.33,0-71.46-33.41-71.46-74.25
							v-74.07c67.32,38.7,200.71,96.82,334.58,48.87c65.39-23.45,140.38-103.79,140.38-103.79s2.89,84.3,14.93,82.97
							c33.49-3.7,33.24-174.26,39.57-197.52C1589.78,2128.99,1591.09,2136.88,1591.09,2145.08"/>
					</g>
				</g>
			</g>
			<g>
				<path class="st2" d="M1517.23,2458.78h-385.43c-51.43,0-93.27-41.84-93.27-93.26v-220.79c0-51.42,41.84-93.26,93.27-93.26
					h385.43c51.42,0,93.26,41.84,93.26,93.26v220.79C1610.48,2416.95,1568.65,2458.78,1517.23,2458.78z M1131.79,2090.27
					c-30.03,0-54.47,24.43-54.47,54.46v220.79c0,30.03,24.43,54.46,54.47,54.46h385.43c30.03,0,54.46-24.43,54.46-54.46v-220.79
					c0-30.03-24.43-54.46-54.46-54.46H1131.79z"/>
			</g>
			<g>
				<path class="st33" d="M1524.38,2255.12c0,35.35-27.59,64-61.63,64c-34.04,0-61.63-28.65-61.63-64c0-35.35,27.59-64,61.63-64
					C1496.79,2191.13,1524.38,2219.78,1524.38,2255.12"/>
			</g>
			<g>
				<path class="st0" d="M1524.4,2255.14c0,4.36-0.4,8.59-1.21,12.71c-5.69-29.31-30.6-51.36-60.44-51.36
					c-29.83,0-54.74,22.05-60.4,51.36c-0.81-4.11-1.21-8.35-1.21-12.71c0-35.35,27.58-64.02,61.61-64.02
					C1496.78,2191.12,1524.4,2219.8,1524.4,2255.14"/>
			</g>
			<g>
				<path class="st74" d="M1524.38,2255.11c0,35.38-27.6,64-61.62,64s-61.62-28.62-61.62-64c0-5.93,0.79-11.71,2.24-17.14
					c7.24,26.98,31.12,46.82,59.39,46.82c28.27,0,52.14-19.83,59.39-46.82C1523.59,2243.4,1524.38,2249.18,1524.38,2255.11"/>
			</g>
			<g>
				<path class="st2" d="M1462.75,2333.67c-42,0-76.17-35.23-76.17-78.54s34.17-78.54,76.17-78.54s76.17,35.23,76.17,78.54
					S1504.76,2333.67,1462.75,2333.67z M1462.75,2205.67c-25.96,0-47.08,22.19-47.08,49.45s21.12,49.45,47.08,49.45
					s47.08-22.18,47.08-49.45S1488.71,2205.67,1462.75,2205.67z"/>
			</g>
			<g>
				<path class="st2" d="M1288.12,2458.78c-10.71,0-19.4-8.69-19.4-19.4v-112.64c0-21.81-9.95-42.61-26.62-55.63l-9.91-7.75
					c-26-20.33-41.51-52.55-41.51-86.2v-106.28c0-10.71,8.69-19.4,19.4-19.4s19.4,8.69,19.4,19.4v106.28
					c0,21.81,9.95,42.61,26.61,55.64l9.91,7.75c26,20.32,41.52,52.54,41.52,86.2v112.64
					C1307.52,2450.09,1298.83,2458.78,1288.12,2458.78z"/>
			</g>
			<g>
				<path class="st2" d="M1122.32,2829.3c-70.4,0-149.1-12.68-223.1-52.38c-9.44-5.07-12.99-16.83-7.92-26.26
					c5.07-9.45,16.82-12.97,26.26-7.92c184.55,99.01,411.11,11.73,413.38,10.83c9.95-3.91,21.23,0.96,25.16,10.92
					c3.93,9.96-0.94,21.22-10.9,25.16C1338.94,2792.11,1242.82,2829.3,1122.32,2829.3z"/>
			</g>
			<g>
				<path class="st2" d="M1553.51,2829.3c-120.46,0-216.5-37.18-222.76-39.66c-9.96-3.94-14.83-15.21-10.89-25.18
					c3.94-9.96,15.21-14.83,25.16-10.9l0,0c2.26,0.89,228.63,88.18,413.19-10.83c9.44-5.05,21.2-1.52,26.26,7.92
					c5.06,9.44,1.51,21.2-7.92,26.26C1702.56,2816.61,1623.86,2829.3,1553.51,2829.3z"/>
			</g>
			<g>
				<path class="st0" d="M1166.15,2622.89c0,0,69.65,31.13,171.74,31.13c102.09,0,172.09-31.13,172.09-31.13
					s-46.26-36.54-172.09-36.54C1212.06,2586.36,1166.15,2622.89,1166.15,2622.89"/>
			</g>
			<g>
				<path class="st2" d="M1144.34,2611.33c15.55,4.24,32.16,8.17,48.43,11.27c16.34,3.27,32.78,5.91,49.25,8.11
					c32.95,4.26,66.03,6.38,99.1,6.44c33.06-0.25,66.15-2.31,99.09-6.64l12.34-1.71c4.11-0.6,8.18-1.41,12.31-1.97
					c8.22-1.29,16.43-2.72,24.59-4.41c16.29-3.04,32.89-6.96,48.49-11.1l0.59-0.16c5.19-1.38,10.52,1.71,11.9,6.92
					c1.16,4.37-0.86,8.84-4.61,10.96c-15.97,9.05-32.07,15.4-48.75,21.39c-16.67,5.66-33.62,10.56-50.86,14.21
					c-34.44,7.43-69.74,11.27-105.08,11.27c-35.33-0.12-70.62-3.91-105.06-11.36c-17.24-3.64-34.19-8.55-50.86-14.2
					c-16.69-5.95-32.79-12.31-48.78-21.31c-4.68-2.64-6.34-8.56-3.7-13.25c2.23-3.97,6.83-5.77,11.03-4.62L1144.34,2611.33z"/>
			</g>
			<g class="st10">
				<g>
					<g>
						<path class="st2" d="M1840.18,3253.18c-0.26,2.58-6.9,103.02-274.99,92.99c-113.65-4.28-178.27-26.03-205.95-85.83
							c-9.69-21-15.07-65.99-17.99-112.93l-2.49-180.04l-4.28,180.04c-2.92,46.94-8.29,91.93-17.99,112.93
							c-27.68,59.8-92.31,81.56-205.95,85.83c-268.09,10.03-274.73-90.41-274.99-92.99c-1.4-13.92,0.26-26.79,4.06-38.56
							c9.69,15.96,38.64,38.94,123.63,50.62c137.93,18.92,286.07,2.08,311.21-89.64c18.92-69.03,50.07-440-54.77-484.78
							c-162.1-69.28-221.61-124.98-176.54-133.96c22.89-4.57,83.26,14.44,294.71,14.44c211.46,0,271.81-19,294.71-14.44
							c45.07,8.98-14.43,64.68-176.54,133.96c-104.84,44.78-73.69,415.75-54.77,484.78c25.14,91.72,173.28,108.56,311.21,89.64
							c84.99-11.68,113.94-34.66,123.63-50.62C1839.92,3226.39,1841.57,3239.26,1840.18,3253.18"/>
					</g>
				</g>
			</g>
			<g>
				<path class="st0" d="M1969.18,1288.05l-5.05-0.02c-7.05-0.03-12.73-5.76-12.71-12.81l1.51-380.99
					c0.03-7.05,5.77-12.73,12.81-12.71l5.04,0.02c73.91,0.3,133.6,60.45,133.3,134.37l-0.55,138.83
					C2103.25,1228.66,2043.09,1288.34,1969.18,1288.05"/>
			</g>
			<g>
				<path class="st2" d="M1969.74,1291.53c-0.19,0-0.38,0-0.57,0l-5.05-0.02c-8.96-0.04-16.21-7.35-16.18-16.31l1.51-380.99
					c0.04-8.93,7.32-16.18,16.25-16.18c0.02,0,0.04,0,0.05,0l5.05,0.02c36.68,0.15,71.11,14.57,96.94,40.61
					c25.83,26.04,39.98,60.58,39.83,97.26l-0.55,138.83c-0.15,36.68-14.57,71.11-40.61,96.94
					C2040.52,1277.4,2006.2,1291.53,1969.74,1291.53z M1965.71,885.01c-5.1,0-9.26,4.14-9.28,9.23l-1.51,380.99
					c-0.02,5.11,4.12,9.29,9.23,9.31l5.05,0.02c0.18,0,0.36,0,0.54,0c34.62,0,67.19-13.42,91.78-37.81
					c24.72-24.52,38.41-57.2,38.54-92.02l0.55-138.83c0.14-34.81-13.29-67.6-37.81-92.32c-24.52-24.72-57.2-38.41-92.02-38.54
					l-5.04-0.02C1965.73,885.01,1965.72,885.01,1965.71,885.01z"/>
			</g>
			<g class="st1">
				<g>
					<g>
						<path class="st2" d="M2103.81,1089.36l-0.23,60.79c-0.31,76.43-62.53,138.18-139.01,137.91c-7.28-0.02-13.17-5.99-13.15-13.28
							l0.37-101.05c2.03,4.62,6.63,7.82,11.98,7.88l9.01,0.01C2033.2,1181.88,2084.77,1143.34,2103.81,1089.36"/>
					</g>
				</g>
			</g>
			<g>
				<path class="st2" d="M1969.74,1307.44c-0.21,0-0.42,0-0.63,0l-5.04-0.02c-17.74-0.08-32.1-14.56-32.03-32.29l1.51-380.98
					c0.07-17.68,14.49-32.03,32.16-32.03c0.03,0,0.07,0,0.11,0l5.05,0.02c40.94,0.17,79.35,16.26,108.18,45.32
					c28.83,29.05,44.61,67.6,44.45,108.53l-0.55,138.83c-0.17,40.93-16.26,79.35-45.32,108.17
					C2048.73,1291.67,2010.43,1307.44,1969.74,1307.44z M1972.32,900.96l-1.46,367.69c29.97-0.29,58.13-12.04,79.45-33.19
					c21.7-21.53,33.72-50.22,33.84-80.79l0.55-138.83c0.13-30.57-11.67-59.35-33.19-81.05
					C2030.35,913.47,2002.29,901.49,1972.32,900.96z"/>
			</g>
			<g>
				<path class="st0" d="M706.94,876.52l5.05,0.02c7.04,0.03,12.73,5.76,12.71,12.81l-1.51,380.98
					c-0.03,7.05-5.77,12.73-12.81,12.71l-5.04-0.02c-73.91-0.3-133.6-60.45-133.3-134.37l0.55-138.83
					C572.87,935.9,633.03,876.22,706.94,876.52"/>
			</g>
			<g>
				<path class="st2" d="M710.43,1286.52c-0.02,0-0.04,0-0.07,0l-5.04-0.02c-36.68-0.15-71.1-14.57-96.94-40.61
					s-39.98-60.58-39.83-97.26l0.55-138.83c0.15-36.68,14.57-71.11,40.61-96.94c25.9-25.7,60.22-39.83,96.69-39.83
					c0.19,0,0.38,0,0.57,0l5.05,0.02c8.96,0.04,16.21,7.36,16.18,16.31l-1.51,380.98C726.63,1279.28,719.35,1286.52,710.43,1286.52z
					 M706.39,880c-34.62,0-67.19,13.42-91.79,37.81c-24.72,24.52-38.4,57.2-38.54,92.02l-0.55,138.83
					c-0.15,34.81,13.28,67.6,37.8,92.32c24.52,24.72,57.2,38.41,92.02,38.54l5.04,0.02c0.01,0,0.02,0,0.04,0
					c5.1,0,9.25-4.13,9.27-9.23l1.51-380.98c0.02-5.11-4.12-9.29-9.23-9.31l-5.05-0.02C706.75,880,706.57,880,706.39,880z"/>
			</g>
			<g class="st1">
				<g>
					<g>
						<path class="st2" d="M723.63,1164.44l-0.43,105.45c-0.02,7.28-5.99,13.17-13.28,13.15c-40.13-0.18-76.24-17.39-101.43-44.81
							c-22.74-24.76-36.57-57.86-36.44-94.17l0.22-54.61c21.51,48,69.73,81.58,125.8,81.81l13.87,0.05
							C717,1171.32,721.32,1168.54,723.63,1164.44"/>
					</g>
				</g>
			</g>
			<g>
				<path class="st2" d="M710.43,1302.44c-0.04,0-0.09,0-0.14,0l-5.03-0.02c-40.93-0.17-79.35-16.26-108.17-45.32
					c-28.83-29.06-44.61-67.6-44.45-108.53l0.55-138.83c0.17-40.93,16.25-79.35,45.31-108.17c28.91-28.68,67.2-44.45,107.9-44.45
					c0.21,0,0.42,0,0.63,0l5.05,0.02c17.74,0.08,32.1,14.56,32.03,32.29l-1.51,380.98C742.51,1288.09,728.1,1302.44,710.43,1302.44z
					 M705.27,895.92c-29.98,0.29-58.13,12.04-79.46,33.19c-21.7,21.53-33.72,50.21-33.84,80.79l-0.55,138.83
					c-0.13,30.57,11.66,59.35,33.19,81.05c21.15,21.32,49.22,33.3,79.19,33.82L705.27,895.92z"/>
			</g>
			<g class="st1">
				<g>
					<g>
						<path class="st2" d="M1804.41,1635.8c-129.15,133.9-314.78,211.39-514.79,196.36c-165.28-12.44-311.44-85.85-418.04-196.62
							c26.86-23.74,62.2-38.16,100.84-38.16h730.88C1742.12,1597.38,1777.51,1611.89,1804.41,1635.8"/>
					</g>
				</g>
			</g>
			<g>
				<path class="st0" d="M1984.06,1130.8c-26.79,356.73-337.7,624.2-694.43,597.4c-356.73-26.79-624.2-337.71-597.4-694.44
					c26.8-356.73,337.71-624.2,694.44-597.4C1743.39,463.16,2010.85,774.07,1984.06,1130.8"/>
			</g>
			<g>
				<path class="st2" d="M1339.16,1733.55c-16.54,0-33.13-0.62-49.79-1.87c-173.46-13.03-331.47-92.83-444.91-224.7
					c-113.44-131.87-168.74-300.02-155.71-473.48c26.9-358.08,340.23-627.47,698.17-600.62c358.07,26.89,627.5,340.09,600.62,698.16
					l-3.48-0.26l3.48,0.26c-13.03,173.46-92.83,331.47-224.69,444.91C1643.64,1678.5,1494.78,1733.55,1339.16,1733.55z
					 M1337.68,438.01c-333.53,0-616.6,258.09-641.98,596.01c-12.89,171.61,41.82,337.96,154.04,468.42
					c112.23,130.45,268.54,209.4,440.15,222.29c171.66,12.92,337.95-41.82,468.41-154.04c130.45-112.23,209.4-268.54,222.29-440.15
					c26.61-354.25-239.94-664.09-594.18-690.69C1370.07,438.61,1353.79,438.01,1337.68,438.01z"/>
			</g>
			<g class="st3">
				<g>
					<g>
						<path class="st2" d="M1984.58,1040.92c1.92,29.51,1.76,59.52-0.51,89.88c-26.85,356.72-337.73,624.18-694.46,597.42
							c-356.72-26.84-624.17-337.73-597.41-694.45c0.76-10.26,1.77-20.51,3.02-30.58c19.94,317.7,271.54,580.04,597.93,604.57
							C1639.61,1633.75,1942.8,1382.22,1984.58,1040.92"/>
					</g>
				</g>
			</g>
			<g>
				<path class="st2" d="M1339.19,1749.46c-16.94,0-33.94-0.63-51.01-1.92c-177.7-13.34-339.57-95.09-455.78-230.18
					c-116.22-135.09-172.87-307.35-159.52-485.05c27.55-366.82,348.39-642.92,715.23-615.28
					c366.82,27.55,642.84,348.4,615.28,715.22l-19.34-1.46l19.34,1.46c-13.34,177.7-95.09,339.57-230.18,455.78
					C1651.11,1693.07,1498.6,1749.46,1339.19,1749.46z M1337.7,453.92c-325.3,0-601.37,251.72-626.13,581.29
					c-12.57,167.36,40.79,329.61,150.24,456.84c109.45,127.24,261.91,204.23,429.28,216.8c167.31,12.58,329.6-40.79,456.84-150.24
					c127.23-109.45,204.22-261.91,216.8-429.28c12.57-167.36-40.79-329.6-150.24-456.84s-261.9-204.22-429.27-216.8
					C1369.29,454.52,1353.41,453.92,1337.7,453.92z"/>
			</g>
			<g>
				<path class="st2" d="M1980.75,1147.23c-7.58,126.53-55.7,241.53-131.76,334.51c-57.03,69.7-281.15,184.26-548.61,170.64
					c-247.99-12.63-465.58-158.29-513.88-234.31c-64.42-101.41-98.45-221.33-90.86-347.86c20.07-334.83,316.05-456.38,670.94-435.11
					C1721.47,656.36,2000.82,812.41,1980.75,1147.23"/>
			</g>
			<g class="st8">
				<g>
					<g>
						<path class="st0" d="M1693.94,1074.56c-14.99,61.51,8.99,120.18,53.55,131.04c44.57,10.87,92.85-30.19,107.85-91.69
							c15-61.5-8.98-120.18-53.55-131.04C1757.22,972,1708.94,1013.05,1693.94,1074.56"/>
					</g>
				</g>
			</g>
			<g class="st8">
				<g>
					<g>
						<path class="st0" d="M1617.52,1298.15c-10.72,27.01-0.62,56.36,22.56,65.56c23.18,9.19,50.66-5.24,61.38-32.25
							c10.72-27.01,0.62-56.36-22.57-65.56C1655.71,1256.71,1628.24,1271.14,1617.52,1298.15"/>
					</g>
				</g>
			</g>
			<g class="st3">
				<g>
					<g>
						<path class="st9" d="M1874.5,827.38c74.05,79.67,114.29,185.35,106.24,319.83c-7.58,126.55-55.72,241.55-131.74,334.53
							c-57.05,69.71-281.19,184.25-548.64,170.65c-94.44-4.78-184.43-28.89-262.39-61.13c329.12,9.7,602.21-131.01,672.93-217.46
							c96.55-118.01,157.61-263.99,167.21-424.54C1880.7,906.35,1879.33,865.75,1874.5,827.38"/>
					</g>
				</g>
			</g>
			<g>
				<path class="st2" d="M1943.02,869.68c-4.56,0-9.14-1.61-12.82-4.88l-2.08-1.85l-1.57-2.43
					c-99.26-158.45-303.63-258.15-560.71-273.57c-258.4-15.41-473.26,61.92-589.25,212.4l-1.73,1.96c-7.58,7.58-19.85,7.58-27.43,0
					c-7.15-7.15-7.55-18.51-1.19-26.13c124.02-160.5,350.58-243.23,621.92-226.96c269.54,16.16,484.92,122.31,591.01,291.29
					c4.76,7.17,4.34,16.91-1.64,23.63C1953.7,867.47,1948.37,869.68,1943.02,869.68z M761.01,787.45l0.15,0.15L761.01,787.45z"/>
			</g>
			<g class="st8">
				<g>
					<g>
						<path class="st0" d="M828,1283.04c0,0-83.91-336.52,101.99-457.48c185.91-120.96,441.98-105.08,435-89.01
							c0,0-287.64,51.65-412.01,269.15C857.08,1173.42,828,1283.04,828,1283.04"/>
					</g>
				</g>
			</g>
			<g>
				<path class="st71" d="M1874.26,413.99l-19.61,111.83l-17.41,113.63l-3.91,25.36c0,0-227.53,43.13-535.98,43.13
					c-21.71,0-42.64-0.22-62.73-0.62c-265.55-5.23-391.76-42.51-391.76-42.51V395.39l868-55.87L1874.26,413.99z"/>
			</g>
			<g>
				<path class="st73" d="M1874.26,413.99l-19.61,111.83l-17.41,113.63c-67.65-20.4-174.64-45.23-268.1-34.12
					c-108.14,12.89-227.83,74.07-334.52,101.99c-265.55-5.23-391.76-42.51-391.76-42.51V395.39l868-55.87L1874.26,413.99z"/>
			</g>
			<g>
				<path class="st2" d="M1297.37,727.36c-307.72,0-453.91-42.16-459.99-43.95l-13.9-4.11V377.2l890.99-57.33l181.5,82.71
					l-22.16,126.41l-23.37,152.32l-13.48,2.56C1834.67,684.3,1604.11,727.36,1297.37,727.36z M862.28,649.74
					c43.01,10.18,186.16,38.82,435.09,38.82c260.98,0,465.81-31.47,518.92-40.45l19.28-125.62l17.01-97.05l-145.33-66.23
					l-844.96,54.37V649.74z M1833.35,664.8h0.05H1833.35z"/>
			</g>
			<g>
				<path class="st71" d="M1848.59,565.6c0,0-38.47-89.54-288.76-70.91c-223.04,16.58-674.36,355.62-818.67,225.9
					C662.38,649.82,615,495.04,670.21,351.78v-0.04c21.28-55.25,57.81-108.8,113.67-155.17c221.6-183.88,584.43-112.88,705.13-16.84
					c156.71-13.19,359.71,54.99,454.09,184.63c1.45,1.98,2.81,3.91,4.18,5.85c0.04,0.09,0.08,0.17,0.13,0.26
					C2078.18,557.02,1848.59,565.6,1848.59,565.6"/>
			</g>
			<g class="st72">
				<g>
					<g>
						<path class="st0" d="M1970.97,409.55c-10.46-2.55-17.93-4.57-18.33-5.1c-94.38-129.63-384.02-235.05-392.81-146.65
							c-49.67-39.52-141.59-83.83-252.4-108.36c-10.64,39.04-89.41,69.32-184.98,69.32c-87.25,0-160.45-25.23-180.66-59.34
							c-54.07,16.92-107.3,42.11-157.9,77.5c-59.52,41.63-92.4,99.92-113.67,155.17v0.05c-13.98,36.35-21.41,73.45-23.34,109.72
							c-2.69-48.71,4.09-100.09,23.34-150.07v-0.04c21.27-55.25,57.81-108.8,113.67-155.17c50.64-42.02,108.62-70.68,169.37-88.84
							c106.51-31.78,221.59-31.17,320.72-12.84c92,16.97,170.2,49.19,215.04,84.84c156.72-13.19,359.71,54.99,454.09,184.63
							c1.45,1.97,2.81,3.91,4.18,5.84c0.04,0.09,0.09,0.17,0.14,0.26C1957.21,384.49,1964.99,397.46,1970.97,409.55"/>
					</g>
				</g>
			</g>
			<g>
				<path class="st73" d="M1848.59,565.6c0,0-38.47-89.54-288.76-70.91c-223.04,16.58-674.36,355.62-818.67,225.9
					C662.38,649.82,615,495.04,670.21,351.78c-0.44,4.13,15.65,228.74,90.95,217.88c32.06-4.62,41.84-13.96,62.27-61.02
					c20.45-47.12,48.77-92.48,58.69-92.48c20.95,0-21.46,177.82,73.69,173.66c131.88-5.76,302.04-106.03,448.37-162.12
					c179.92-68.92,354.65-29.85,418.92,12.44c7.35,4.83,14.07,10.2,20.09,15.83c56.49,52.35,143.96-12.88,107.13-80.49
					c-0.93-1.67-1.89-3.34-2.9-5.01C2078.18,557.02,1848.59,565.6,1848.59,565.6"/>
			</g>
			<g>
				<path class="st2" d="M831.27,769.18c-41.08,0-76.26-10.06-103.07-34.15c-63.5-57.07-103.24-159.64-101.24-261.33
					c2.22-112.82,53.55-216.54,144.53-292.04C996-4.66,1361.87,60.88,1494.93,159.83c150.96-10.08,362.1,53.34,463.84,193.11
					c46.21,63.47,59.38,116.78,39.14,158.44c-33.28,68.53-143.93,73.43-148.62,73.6l-14.07,0.52l-4.39-12.02
					c-2.57-4.58-46.8-76.07-269.55-59.47c-85.48,6.36-212.46,65.06-335.26,121.84C1083.59,701.72,937.66,769.18,831.27,769.18z
					 M1136.73,101.62c-134.57,0-254.39,38.47-340.46,109.9l0,0c-105.32,87.4-129.11,191.24-130.52,262.95
					c-1.79,90.9,32.9,181.85,88.37,231.7c19,17.08,45.52,24.33,77.31,24.33c97.43,0.01,244.58-68.03,378.31-129.85
					c131.73-60.91,256.17-118.44,348.66-125.32c210.05-15.61,279.55,42.63,300.34,70.05c30.74-3.28,87.45-16.2,104.3-51.01
					c16.74-34.57-10.14-83.58-35.64-118.6c-95.09-130.64-295.98-188.58-436.78-176.71l-7.68,0.64l-6.03-4.79
					c-51.42-40.92-165.24-85.34-303.63-92.35C1161,101.93,1148.79,101.62,1136.73,101.62z M783.88,196.59h0.05H783.88z"/>
			</g>
			<g class="st1">
				<g>
					<g>
						<path class="st2" d="M1796.47,2294.89c3.65,40.48,78.58,140.41,210.2,82.61c167.95-73.76,27.92-297.23,27.92-297.23
							S1792.82,2254.41,1796.47,2294.89"/>
					</g>
				</g>
			</g>
			<g>
				<path class="st2" d="M1929.74,2414.53c-34.66,0-62.04-10.51-81.7-22.13c-43.16-25.49-68.33-67.48-70.89-95.77l0,0
					c-1.55-17.23,6.68-43.62,124.8-139.31c59.73-48.38,120.7-92.36,121.3-92.8l16.79-12.09l10.99,17.53
					c3.34,5.33,81.44,131.7,50.37,232.64c-12.87,41.79-42.11,72.96-86.93,92.65C1982.65,2409.23,1954.36,2414.53,1929.74,2414.53z
					 M1815.93,2294.35c2.01,13.67,18.49,44.96,51.83,64.65c25.84,15.25,69.55,27.77,131.11,0.74
					c34.51-15.16,55.92-37.58,65.45-68.54c19.75-64.17-17.03-146.45-35.94-182.43C1928.24,2182.19,1823.49,2269.83,1815.93,2294.35z
					 M1815.73,2295.08C1815.73,2295.09,1815.73,2295.08,1815.73,2295.08L1815.73,2295.08z M1815.79,2293.15c0,0.01,0,0.02,0,0.03
					C1815.79,2293.17,1815.79,2293.16,1815.79,2293.15L1815.79,2293.15z"/>
			</g>
			<g>
				<path class="st0" d="M1734.87,2255.13c0,0-12.13,44.42,45.51,73.37c56.63,28.44,164.65,9.48,205.57-9.38
					c83.78-38.62,31.29-106.46,31.29-106.46L1734.87,2255.13z"/>
			</g>
			<g class="st1">
				<g>
					<g>
						<path class="st2" d="M1734.87,2255.13c0,0-12.13,44.42,45.51,73.37c56.63,28.44,164.65,9.48,205.57-9.38
							c83.78-38.62,31.29-106.46,31.29-106.46L1734.87,2255.13z"/>
					</g>
				</g>
			</g>
			<g>
				<path class="st2" d="M1857.92,2362.33c-31.65,0-62.51-4.57-86.25-16.49c-56.82-28.54-61.16-75.15-55.52-95.81l3.33-12.19
					l306.12-46.04l6.97,9c1.14,1.47,27.81,36.54,18.18,75.85c-6.22,25.4-25.29,45.62-56.69,60.09
					C1966.62,2349.39,1911.16,2362.33,1857.92,2362.33z M1753.7,2271.92c1.94,10.64,9.59,26.3,35.39,39.25
					c49.81,25.02,150.5,7.96,188.74-9.67c20.03-9.23,31.88-20.63,35.2-33.9c3.16-12.57-1.41-25.47-5.63-33.85L1753.7,2271.92z"/>
			</g>
			<g>
				<path class="st75" d="M1370.58,2029.94c-10.09,9.54-30.77,37.24,0,58.95c44.47,31.39,146.87,23.79,197.55,114.81
					c50.68,91.02,354.77,72.41,477.85,44.48c123.08-27.93,268.92-102.4,208.93-196.52c-59.99-94.12-283.4-128.26-485.09-128.26
					C1575.38,1923.4,1417.77,1985.33,1370.58,2029.94"/>
			</g>
			<g>
				<path class="st2" d="M1809.42,2290.44c-112.15,0-224.86-17.38-258.24-77.31c-30.1-54.07-81.65-69.1-127.12-82.37
					c-24.36-7.1-47.36-13.81-64.66-26.02c-40.41-28.53-25.61-94.38-23.79-101.79c1.52-6.19,5.98-11.24,11.93-13.5
					c9.16-3.49,226.52-85.45,422.29-85.45c202.96,0,493.55,111.09,505.83,115.82c7.13,2.75,11.99,9.44,12.39,17.08
					c0.52,9.89,2.84,60.32-2.97,81.56c-20.46,74.95-134.71,125.92-234.8,148.64C2007.2,2276.87,1908.53,2290.44,1809.42,2290.44z
					 M1371.5,2022.02c-2.32,17.2-2,42.37,10.26,51.04c12.01,8.47,31.08,14.03,53.16,20.47c50.03,14.59,112.3,32.75,150.16,100.73
					c41.84,75.13,323.37,65.23,456.62,35c88.78-20.15,191.11-66.62,205.96-121.03c2.52-9.25,2.8-35.41,2.16-56.65
					c-57.04-20.94-306.74-108.78-479.99-108.78C1604.53,1942.8,1416.71,2005.92,1371.5,2022.02z"/>
			</g>
			<g>
				<path class="st76" d="M2263.91,2068.12c-4.44,11.47-11.78,22.47-21.37,32.8c-2.38,2.59-4.88,5.14-7.52,7.65
					c-42.86,40.57-119.56,71.13-189.02,86.86c-2.81,0.62-5.71,1.28-8.7,1.89c-32.97,6.9-76.79,13.05-124.49,16.88
					c-104.79,8.49-228.41,5.67-297.73-25.27c-17.19-7.65-31.03-17.06-40.4-28.49c-2.51-2.99-4.71-6.2-6.55-9.5
					c-13.15-23.56-29.76-40.53-47.91-53.23c-21.23-14.95-44.66-24.04-67.12-31.21h-0.04c-30.82-9.84-59.91-16-79.43-28.39
					c-1.06-0.62-2.07-1.28-3.04-1.98c-11.47-8.09-15.82-17.06-16.18-25.54c-0.66-14.29,9.85-27.43,16.18-33.41
					c1.23-1.18,2.55-2.33,3.96-3.56c5.31-4.53,11.73-9.27,19.16-14.07c10.9-7.03,23.95-14.19,38.99-21.23
					c11.16-5.31,23.38-10.51,36.61-15.56c74.64-28.52,180.59-52.09,300.5-52.09c86.34,0,176.62,6.24,256.37,20.79
					c44.97,8.18,86.6,18.99,122.29,32.84c10.64,4.09,20.76,8.48,30.29,13.19c34.07,16.65,60.44,36.92,76,61.14
					c0.04,0.09,0.14,0.17,0.17,0.27c8.7,13.62,13.1,26.9,13.81,39.64C2269.31,2048.74,2267.6,2058.59,2263.91,2068.12"/>
			</g>
			<g>
				<path class="st77" d="M2148.47,1924.3c-4.04-0.27-8.21-0.53-12.53-0.88c-66.2-5.18-123.08-10.24-259.09,0
					c-129.28,9.72-186.69,19.82-287.27,12.57c-25.72-1.85-96,0.09-156.89,2.33c11.17-5.32,23.39-10.51,36.62-15.56
					c54.82-5.28,118.12-8.18,179.48-3.83c114.86,8.18,270.08-13.41,377.38-27.47C2071.15,1899.64,2112.78,1910.45,2148.47,1924.3"/>
			</g>
			<g>
				<path class="st77" d="M2263.91,2068.12c-10.11-0.35-21.41-0.96-33.85-1.93c-66.16-5.19-123.26-0.97-259.26,9.27
					c-129.28,9.72-186.52,10.55-287.09,3.3c-26.33-1.89-100.58,8.75-163.48,18.95c-21.23-14.95-44.66-24.04-67.12-31.21
					c61.85-5.28,179.04-12.66,289.81-4.79c160.32,11.38,378.65-16.57,482-23.83c17.23-1.23,31.78-0.79,43.83,0.65
					C2269.31,2048.74,2267.6,2058.59,2263.91,2068.12"/>
			</g>
			<g>
				<path class="st77" d="M2037.3,2197.32c-32.97,6.9-76.8,13.05-124.49,16.88c-65.28-2.81-69.32-24.75-219.79-31.95
					c-14.64-0.71-43.96,2.24-77.93,6.68c-17.19-7.65-31.04-17.06-40.4-28.49c53.54-2.82,115.12-4.09,175.21-0.88
					c250.82,13.41,350.87-52.8,492.59-58.64h0.04c-2.37,2.59-4.88,5.15-7.52,7.65c-82.07,8.13-195.3,40-256.41,65.32
					C1937.17,2191.08,1982.44,2196.26,2037.3,2197.32"/>
			</g>
			<g>
				<path class="st77" d="M2178.76,1937.49c-94.73,5.94-333.07,48.79-540.29,36.79c-86.25-5.01-175.13-10.42-244.76-14.73
					c-7.43,4.79-13.84,9.54-19.16,14.06c77.19,4.18,189.72,10.95,201.86,15.56c12.05,4.58-135.22,26.9-221.99,21.41
					c0.35,8.48,4.7,17.45,16.18,25.54c0.97,0.7,1.98,1.36,3.04,1.98c79.07-6.51,171.87-16.35,206.38-22.47
					c175.31-31.03,196.01-12.57,342.3-24.96c151.57-12.79,190.43-0.48,265.38,5.36c27.35,2.16,49.67,2.73,67.08,2.59
					C2239.2,1974.41,2212.82,1954.14,2178.76,1937.49"/>
			</g>
			<g>
				<path class="st2" d="M1809.41,2237.69c-112.15,0-224.85-17.38-258.23-77.31c-30.1-54.07-81.64-69.1-127.11-82.37
					c-24.36-7.1-47.37-13.82-64.68-26.04c-18.7-13.19-23.53-28.63-24.29-39.26c-1.78-24.93,16.5-44.29,22.15-49.63l0,0
					c49.14-46.44,209.62-111.84,412.57-111.84c97.11,0,420.28,9.9,501.45,137.23c18.43,28.92,21.88,59.51,9.97,88.46
					c-28.42,69.11-137.94,116.29-230.97,137.4C2007.2,2224.12,1908.52,2237.69,1809.41,2237.69z M1383.91,1991.28L1383.91,1991.28
					c-5.33,5.04-10.51,13.07-10.11,18.67c0.23,3.3,2.92,6.77,7.97,10.34c12.01,8.48,31.08,14.05,53.17,20.49
					c50.03,14.59,112.29,32.76,150.15,100.73c41.84,75.13,323.36,65.24,456.61,35c86-19.52,182.33-62.44,203.67-114.33
					c7.09-17.25,4.87-34.54-6.81-52.86c-56.06-87.94-278.89-119.28-468.73-119.28C1579.64,1890.05,1427.12,1950.45,1383.91,1991.28z
					"/>
			</g>
			<g>
				<path class="st2" d="M1669.75,2140.69c-47.95,0-99.56-16.3-99.56-52.08c0-35.78,51.61-52.08,99.56-52.08s99.56,16.3,99.56,52.08
					C1769.3,2124.39,1717.7,2140.69,1669.75,2140.69z M1610.7,2088.61c6.78,5.16,27.19,13.28,59.04,13.28
					c31.85,0,52.26-8.12,59.04-13.28c-6.77-5.15-27.19-13.28-59.04-13.28S1617.48,2083.46,1610.7,2088.61z M1730.98,2090.8h0.05
					H1730.98z"/>
			</g>
			<g>
				<path class="st75" d="M1749.9,2088.62c0,18.05-35.89,32.68-80.16,32.68c-44.27,0-80.16-14.63-80.16-32.68
					c0-18.05,35.89-32.68,80.16-32.68C1714.02,2055.94,1749.9,2070.56,1749.9,2088.62"/>
			</g>
			<g>
				<path class="st2" d="M1669.75,2140.69c-47.95,0-99.56-16.3-99.56-52.08c0-35.78,51.61-52.08,99.56-52.08s99.56,16.3,99.56,52.08
					C1769.3,2124.39,1717.7,2140.69,1669.75,2140.69z M1610.7,2088.61c6.78,5.16,27.19,13.28,59.04,13.28
					c31.85,0,52.26-8.12,59.04-13.28c-6.77-5.15-27.19-13.28-59.04-13.28S1617.48,2083.46,1610.7,2088.61z M1730.98,2090.8h0.05
					H1730.98z"/>
			</g>
			<g>
				<path class="st78" d="M657.11,1798.62l-56.66,12.53c0,0-42.82-34.06-66.9-142.99c-2.2-9.94-4.22-20.7-6.11-32.18
					c-17.32-104.75-24-268.67-47.92-386.43c-2.73-13.36-5.67-26.16-8.88-38.2c-24.97-93.72-32.97-124.05-1.97-130.91
					c30.98-6.81,36.53,24,53.36,119.52c4.79,27.08,12.26,56.93,21.36,88.22c31.83,109.46,83.26,236.67,107.3,325.16
					c2.59,9.63,4.92,18.82,6.81,27.43C681.6,1749.65,657.11,1798.62,657.11,1798.62"/>
			</g>
			<g>
				<path class="st75" d="M657.11,1798.62l-56.66,12.53c0,0-42.82-34.06-66.9-142.99c-2.2-9.94-4.22-20.7-6.11-32.18
					c-17.32-104.75-24-268.67-47.92-386.43l63.87,38.64c31.83,109.46,83.26,236.67,107.3,325.16c2.59,9.63,4.92,18.82,6.81,27.43
					C681.6,1749.65,657.11,1798.62,657.11,1798.62"/>
			</g>
			<g>
				<path class="st79" d="M667.66,1745.43c-2.07,36.22-10.55,53.19-10.55,53.19l-56.66,12.53c0,0-6.03-4.83-14.86-16.61
					c-14.68-19.56-37.01-58.38-52.04-126.38c-2.2-9.94-4.22-20.71-6.11-32.18l123.26-22.64c2.59,9.63,4.93,18.82,6.81,27.43
					C667.39,1685.52,669.11,1720.15,667.66,1745.43"/>
			</g>
			<g>
				<path class="st80" d="M667.66,1745.43c-22.15-1.58-43.08-8.31-43.08-8.31c-6.73,21.94-22.42,41.63-38.99,57.41
					c-14.68-19.56-37.01-58.38-52.04-126.38c-2.2-9.94-4.22-20.71-6.11-32.18l123.26-22.64c2.59,9.63,4.93,18.82,6.81,27.43
					C667.39,1685.52,669.11,1720.15,667.66,1745.43"/>
			</g>
			<g>
				<path class="st2" d="M595.61,1832.08l-7.24-5.76c-1.97-1.56-48.49-39.67-73.75-153.98c-11.05-50.01-17.91-120.04-25.16-194.18
					c-9.18-93.89-18.69-190.98-37.56-261.83c-21.25-79.8-30.05-112.83-16.1-135.77c5.93-9.74,15.58-16.15,28.68-19.05
					c13.08-2.89,24.55-1.15,34.03,5.19c22.32,14.92,28.27,48.58,42.63,129.9c12.74,72.2,45.04,164.25,76.28,253.26
					c24.67,70.3,47.98,136.69,59.03,186.71c25.27,114.3-0.84,168.47-1.97,170.72l-4.14,8.27L595.61,1832.08z M657.13,1798.61h0.05
					H657.13z M657.13,1798.61h0.05H657.13z M476.37,1098.92c-0.61,0-1.74,0.07-3.52,0.46c-3.07,0.68-3.98,1.41-3.99,1.42
					c-5.41,8.16,7.19,55.45,20.53,105.53c19.69,73.9,29.35,172.59,38.69,268.04c7.13,72.94,13.88,141.85,24.43,189.58
					c16.67,75.46,42.63,112.43,54.25,125.92l35.71-7.89c4.84-17.13,12.79-61.6-3.89-137.05c-10.55-47.74-33.48-113.07-57.75-182.24
					c-31.75-90.48-64.59-184.04-77.88-259.37c-9.01-51.01-17.52-99.2-25.99-104.39C476.99,1099.02,476.76,1098.92,476.37,1098.92z"
					/>
			</g>
			<g>
				<path class="st78" d="M733.33,1955.73c-19.7,76.7-121.68,123.3-124.31,124.49c0.97-1.8,28.48-52.45-13.94-110.77
					c-16.43-22.59-23.6-44.57-25.27-64.57c-4.62-53.98,30.64-93.72,30.64-93.72l56.66-12.53c0,0,41.02,16.92,64.75,57.23
					C736.23,1880.16,744.32,1912.99,733.33,1955.73"/>
			</g>
			<g>
				<path class="st75" d="M721.86,1855.85c-25.27-6.98-55.26-11.43-80.49-4.66c-33.14,8.88-57.32,34.24-71.56,53.67
					c-4.62-53.97,30.64-93.72,30.64-93.72l56.66-12.53C657.1,1798.62,698.12,1815.54,721.86,1855.85"/>
			</g>
			<g>
				<path class="st2" d="M632.6,1905.35c-6.53-7.11-10.81-15.11-14.4-23.37c-3.52-8.28-6.11-16.93-7.77-25.87
					c-1.64-8.93-2.34-18.18-1.5-27.63c0.84-9.4,3.31-19.13,8.4-28.05l0.07-0.13c2.66-4.66,8.6-6.28,13.26-3.62
					c4.66,2.66,6.28,8.59,3.62,13.25c-0.16,0.28-0.34,0.56-0.53,0.82c-8.03,11.27-10.32,27.58-8.91,43.35
					c0.7,7.94,2.29,15.94,4.72,23.62c2.45,7.63,5.77,15.2,10.27,21.15l0.21,0.28c1.61,2.13,1.19,5.17-0.94,6.78
					C637.08,1907.45,634.27,1907.15,632.6,1905.35"/>
			</g>
			<g>
				<path class="st2" d="M658.28,1867.91c-2.03-12.88-5.57-25.63-12.16-35.51c-3.29-4.9-7.33-8.88-11.94-11.54
					c-4.6-2.68-9.77-4.08-15.26-4.5c-5.35-0.41-9.36-5.08-8.95-10.43c0.41-5.35,5.07-9.36,10.43-8.96c0.37,0.03,0.73,0.08,1.08,0.14
					l0.15,0.03c7.85,1.54,15.7,4.73,22.21,9.74c6.53,4.96,11.49,11.47,14.91,18.24c6.79,13.69,8.64,28.05,9.21,41.87
					c0.11,2.68-1.97,4.94-4.66,5.05c-2.49,0.11-4.62-1.69-4.99-4.09L658.28,1867.91z"/>
			</g>
			<g>
				<path class="st2" d="M608.98,2099.67c-5.35,0-10.61-2.22-14.37-6.36c-5.64-6.22-6.65-15.36-2.49-22.65
					c0.83-1.54,22.14-41.9-12.72-89.81c-55.42-76.13-19.95-152.72,6.54-182.58c2.71-3.06,6.33-5.18,10.33-6.06l56.68-12.53
					c3.87-0.86,7.92-0.5,11.59,1.01c41.84,17.29,113.99,77.13,87.59,179.86c-22.05,85.8-130.61,135.36-135.22,137.43
					C614.36,2099.11,611.65,2099.67,608.98,2099.67z M611.37,1828.59c-11.56,15.82-44.02,69.79-0.61,129.43
					c22.55,31,28.12,60.32,27.31,83.42c29.06-19.26,66.25-50.75,76.47-90.55c21.49-83.63-40.69-122.29-59.65-131.92L611.37,1828.59z
					"/>
			</g>
			<g>
				<path class="st71" d="M738.39,1913.48c0.13,5.06,0,10.29-0.48,15.74c-0.7,8.36-2.2,17.19-4.57,26.51
					c-19.7,76.7-121.68,123.3-124.31,124.49c0.88-1.63,23.69-43.65-4.09-95.13c-2.72-5.15-5.97-10.37-9.84-15.65
					c-4.88-6.73-8.96-13.36-12.26-19.96c7.78-11.87,18.64-21.28,32.97-18.95c24.57,4.04,24.83,37.5,46.82,34.94
					c28.26-3.34,2.46-66.9,24.83-75.13C706.56,1883.33,728.72,1931.11,738.39,1913.48"/>
			</g>
			<g>
				<path class="st73" d="M737.9,1929.22c-0.7,8.36-2.2,17.19-4.57,26.51c-19.7,76.7-121.68,123.3-124.31,124.49
					c0.88-1.63,23.69-43.65-4.09-95.13c14.38,10.29,33.01,17.72,55.7,13.98C697.72,1992.96,723.75,1960.25,737.9,1929.22"/>
			</g>
			<g>
				<path class="st2" d="M609.02,2089.92c-2.63,0-5.21-1.06-7.08-3.07c-2.84-3.03-3.44-7.52-1.48-11.19
					c2.62-4.9,24.27-48.96-13.22-100.51c-5.19-7.15-9.58-14.32-13.09-21.32c-1.55-3.09-1.33-6.77,0.56-9.66
					c14.75-22.51,31.33-25.05,42.64-23.2c16.12,2.65,24.39,14.68,30.44,23.47c6.52,9.48,9,11.96,13.7,11.41
					c5.82-0.69,6.17-13,6.02-29.02c-0.18-18.44-0.37-39.35,16.59-45.58c15.15-5.59,28.24,7.12,38.75,17.31
					c2.64,2.56,6.3,6.11,8.84,8c2.35-2.19,5.69-3.17,8.91-2.4c4.26,1.03,7.37,4.66,7.5,9.04c0.4,14.49-1.41,29.6-5.36,44.93
					c-20.76,80.86-125.27,128.9-129.71,130.91C611.73,2089.64,610.37,2089.92,609.02,2089.92z M594.21,1950.25
					c2.51,4.44,5.43,8.96,8.72,13.5c27.89,38.34,27.8,73.88,23.08,96.49c30.47-17.72,84.76-55.65,97.92-106.93
					c2.35-9.11,3.84-18.1,4.46-26.86c-6.66-1.92-12.73-7.82-19.07-13.96c-5.19-5.03-14.82-14.34-18.55-13.03
					c-4.12,1.52-3.97,17.59-3.88,27.19c0.18,19.28,0.43,45.67-23.16,48.47c-16.97,1.91-25.65-10.54-31.94-19.69
					c-6-8.72-10.17-14.1-17.58-15.32C611.47,1939.66,603.7,1938.41,594.21,1950.25z"/>
			</g>
			<g>
				<path class="st0" d="M708.23,1613.42c1.89,23.47,5.28,46.51-19.56,63.74c-34.46,23.96-90.86,13.5-123.35-42.07
					c-38.68-66.16-24.66-172.75-24.66-172.75s32.05-34.86,74.12-49.54c32.26-11.26,70.37-10.64,104.48,26.59
					c41.23,45.06-6.37,111.17-11.16,149.1C707.04,1596.72,707.52,1605.12,708.23,1613.42"/>
			</g>
			<g class="st1">
				<g>
					<g>
						<path class="st2" d="M688.67,1677.16c-34.46,23.96-90.86,13.5-123.35-42.07c-38.68-66.16-24.66-172.75-24.66-172.75
							s32.05-34.86,74.12-49.54c20.79,19.34,53.32,58.38,53.32,113.32c0,50.2-22.07,51.48-17.93,82.51
							c2.81,21.06,31.43,21.63,58.07,4.79C710.12,1636.9,713.51,1659.93,688.67,1677.16"/>
					</g>
				</g>
			</g>
			<g>
				<path class="st2" d="M648.7,1708.62c-7.03,0-14.14-0.77-21.21-2.33c-31.88-7.05-59.91-28.85-78.93-61.39
					c-41.56-71.09-27.74-180.45-27.14-185.08l0.8-6.08l4.15-4.51c2.34-2.54,57.96-62.23,123.8-62.23c0.04,0,0.07,0,0.11,0
					c31.43,0.03,59.45,13.25,83.29,39.3c37.47,40.93,18.25,92.83,4.21,130.73c-4.81,13.01-9.37,25.29-10.46,33.91
					c-0.94,7.39-0.23,15.74,0.52,24.57c1.96,23.15,4.64,54.85-28.1,77.59C685.08,1703.28,667.2,1708.62,648.7,1708.62z
					 M559.23,1471.19c-2.11,22.94-6.9,103.26,22.83,154.13v0c13.5,23.09,32.6,38.39,53.8,43.08c15.37,3.39,30.21,0.85,41.76-7.17
					c13.74-9.54,13.48-19.91,11.57-42.45c-0.84-9.97-1.8-21.26-0.35-32.73c1.66-13.03,6.95-27.34,12.56-42.49
					c14.66-39.58,23.49-69.29,3.55-91.07c-16.39-17.91-34.25-26.64-54.59-26.69c-0.06,0-0.14,0-0.2,0
					C610.13,1425.8,571.82,1459.1,559.23,1471.19z"/>
			</g>
			<g>
				<path class="st0" d="M618.6,1568.63c-8.26,7.73-18.03,12.48-28.88,14.73c-1.98,80.62-26.33,177.32-57.46,196.01
					c-29.01,17.4-150.29,26.94-184.97-35.08c-9.85-17.67-15.95-40.26-19.34-65.28c-10.98-80.79,6.16-186.77,15.47-232.41
					c2.73-13.19,4.75-21.36,5.28-22.42c-8.18-28.26-2.16-58.55,14.68-81.41c18.29-25.01,49.58-41.1,89.15-35.74
					c54.46,7.43,154.9,101.1,179.96,180.14C642.56,1518.82,640.49,1548.15,618.6,1568.63"/>
			</g>
			<g class="st1">
				<g>
					<g>
						<path class="st2" d="M618.6,1568.63c-8.26,7.73-18.03,12.48-28.88,14.73c-1.98,80.62-26.33,177.32-57.46,196.01
							c-29.01,17.4-150.29,26.94-184.97-35.08c-9.85-17.67-15.95-40.26-19.34-65.28c23.13,20.44,57.77,38.86,105.02,33.23
							c69.8-8.31,91.83-104.27,55.87-124.31c-50.2-27.91-115.91-79.39-145.41-141.33c2.73-13.19,4.75-21.36,5.28-22.42
							c-8.18-28.26-2.16-58.55,14.68-81.41c-1.9,28.93,6.99,78.77,72.31,128.67c85.32,65.19,192.75,57.8,196.8,15.74
							C642.56,1518.82,640.49,1548.15,618.6,1568.63"/>
					</g>
				</g>
			</g>
			<g>
				<path class="st2" d="M461.91,1811.84c-19.56,0-39.95-2.16-58.67-7.15c-34.13-9.09-59.32-26.7-72.87-50.93
					c-50.48-90.29-12.85-285.04-1.67-329.31c-8.25-34.88,0.9-72.77,24.47-100.06c24.79-28.7,61.98-42.05,101.98-36.59
					c65.56,8.93,169.85,111.9,195.79,193.31c17.01,53.39-0.98,84.78-19.06,101.7c-6.85,6.41-14.65,11.43-23.33,15
					c-4.04,72.35-25.84,173.92-66.28,198.19C526.5,1805.46,495.45,1811.84,461.91,1811.84z M366.67,1431.57
					c-6.16,21.52-46.99,223.56-2.43,303.26c8.42,15.06,24.9,25.95,48.98,32.37c43.65,11.63,95.43,3.72,109.08-4.47
					c20.03-12.02,45.92-94.93,48.03-179.85l0.38-15.38l15.06-3.13c7.82-1.63,14.23-4.86,19.58-9.88l0,0
					c14.43-13.51,17.33-34.23,8.61-61.6c-22.74-71.39-117.2-160.26-164.05-166.65c-27.19-3.69-51.1,4.66-67.39,23.52
					c-16.25,18.81-22.08,45.28-15.21,69.07l2.08,7.21L366.67,1431.57z M366.29,1432.35l-0.2,0.41
					C366.14,1432.65,366.21,1432.52,366.29,1432.35z"/>
			</g>
			<g>
				<path class="st2" d="M1501.96,165.31c6.45,6.98,12.23,13.69,18.09,20.68c5.81,6.95,11.48,14.01,17.01,21.19
					c11.03,14.37,21.48,29.26,30.72,45.08c2.71,4.64,1.14,10.6-3.5,13.31c-4.12,2.4-9.27,1.45-12.28-2.05l-0.1-0.12
					c-11.14-12.91-23.43-24.98-36.24-36.51c-6.42-5.75-12.95-11.39-19.59-16.88c-6.59-5.44-13.49-10.96-20.04-15.84
					c-8.63-6.43-10.42-18.63-4-27.26c6.43-8.63,18.63-10.42,27.26-4C1500.24,163.61,1501.18,164.47,1501.96,165.31"/>
			</g>
			<g>
				<path class="st0" d="M348.68,1424.2c27.27,56.56,76.14,75.56,76.14,75.56"/>
			</g>
			<g>
				<path class="st2" d="M366.15,1415.78c2.96,7.49,6.14,15.04,10.32,22.09c3.96,7.2,8.8,13.93,14.05,20.41
					c5.25,6.5,11.22,12.48,17.6,18.02c3.19,2.78,6.54,5.37,9.96,7.88c3.35,2.37,7.2,4.85,10.25,6.56l0.8,0.44
					c4.66,2.62,6.32,8.53,3.7,13.19c-2.32,4.12-7.2,5.89-11.53,4.44c-5.37-1.8-9.57-3.64-14.16-5.75
					c-4.42-2.15-8.79-4.44-13.02-6.96c-8.47-5.03-16.61-10.72-24.16-17.22c-7.55-6.49-14.79-13.52-21.18-21.35
					c-6.61-7.68-12.24-16.16-17.59-24.89c-5.63-9.18-2.74-21.18,6.43-26.81c9.18-5.62,21.18-2.74,26.8,6.44
					c0.59,0.95,1.07,1.93,1.47,2.92L366.15,1415.78z"/>
			</g>
			<g>
				<path class="st0" d="M491.54,1534.67c0,0,54.3,48.69,98.19,48.69"/>
			</g>
			<g>
				<path class="st2" d="M498.01,1527.45c7,5.05,14.82,10.01,22.49,14.46c7.74,4.45,15.62,8.6,23.62,12.02
					c7.96,3.37,16,6.47,23.85,8.18c7.8,1.78,15.41,2.55,21.75,1.85c10.71-1.17,20.34,6.56,21.52,17.27
					c1.17,10.71-6.56,20.34-17.27,21.52c-1.21,0.14-2.41,0.16-3.57,0.07l-0.68-0.06c-12.3-0.98-22.99-4.42-32.78-8.54
					c-9.83-4.12-18.49-9.39-26.88-14.81c-8.35-5.46-16.09-11.46-23.54-17.69c-7.48-6.31-14.46-12.64-21.46-19.82
					c-3.74-3.85-3.66-10,0.18-13.74c3.43-3.34,8.7-3.63,12.46-0.92L498.01,1527.45z"/>
			</g>
			<g>
				<path class="st81" d="M1970.8,2131.23c0,18.76-39.03,33.94-87.19,33.94c-48.11,0-87.14-15.17-87.14-33.94
					c0-7.69,6.54-14.78,17.57-20.42c15.92-8.28,41.17-13.57,69.57-13.57c28.45,0,53.7,5.29,69.62,13.57
					C1964.26,2116.46,1970.8,2123.55,1970.8,2131.23"/>
			</g>
			<g>
				<path class="st82" d="M1959.32,2122.4c0,16.32-33.89,29.5-75.71,29.5c-41.78,0-75.66-13.18-75.66-29.5
					c0-4.09,2.2-8.03,6.09-11.58c15.92-8.28,41.17-13.57,69.57-13.57c28.45,0,53.7,5.29,69.62,13.57
					C1957.12,2114.37,1959.32,2118.3,1959.32,2122.4"/>
			</g>
			<g class="st7">
				<g>
					<g>
						<path class="st0" d="M1922.3,2113.77c0,8.34-17.31,15.06-38.68,15.06c-21.34,0-38.64-6.73-38.64-15.06
							c0-2.09,1.12-4.11,3.11-5.92c8.13-4.23,21.03-6.93,35.54-6.93c14.53,0,27.44,2.7,35.57,6.93
							C1921.18,2109.66,1922.3,2111.68,1922.3,2113.77"/>
					</g>
				</g>
			</g>
			<g>
				<path class="st73" d="M2167.83,2067.46c0,18.77-39.03,33.94-87.19,33.94c-48.11,0-87.14-15.17-87.14-33.94
					c0-7.69,6.53-14.77,17.56-20.41c15.92-8.28,41.18-13.58,69.57-13.58c28.45,0,53.7,5.3,69.62,13.58
					C2161.29,2052.69,2167.83,2059.78,2167.83,2067.46"/>
			</g>
			<g>
				<path class="st71" d="M2156.35,2058.63c0,16.32-33.89,29.49-75.71,29.49c-41.78,0-75.66-13.18-75.66-29.49
					c0-4.09,2.19-8.04,6.09-11.58c15.92-8.28,41.18-13.57,69.57-13.57c28.45,0,53.7,5.29,69.62,13.57
					C2154.16,2050.59,2156.35,2054.54,2156.35,2058.63"/>
			</g>
			<g class="st7">
				<g>
					<g>
						<path class="st0" d="M2119.33,2050c0,8.34-17.31,15.07-38.67,15.07c-21.34,0-38.65-6.73-38.65-15.07
							c0-2.09,1.12-4.1,3.11-5.92c8.13-4.23,21.03-6.93,35.54-6.93c14.53,0,27.43,2.7,35.56,6.93
							C2118.21,2045.9,2119.33,2047.91,2119.33,2050"/>
					</g>
				</g>
			</g>
			<g>
				<path class="st74" d="M2133.65,1964.03c0,18.76-39.03,33.94-87.19,33.94c-48.11,0-87.14-15.17-87.14-33.94
					c0-7.69,6.53-14.78,17.56-20.42c15.92-8.28,41.18-13.57,69.57-13.57c28.45,0,53.7,5.29,69.62,13.57
					C2127.1,1949.26,2133.65,1956.35,2133.65,1964.03"/>
			</g>
			<g>
				<path class="st33" d="M2122.17,1955.2c0,16.32-33.89,29.5-75.71,29.5c-41.78,0-75.66-13.18-75.66-29.5
					c0-4.09,2.19-8.03,6.09-11.58c15.92-8.28,41.18-13.57,69.57-13.57c28.45,0,53.7,5.29,69.62,13.57
					C2119.97,1947.17,2122.17,1951.1,2122.17,1955.2"/>
			</g>
			<g class="st7">
				<g>
					<g>
						<path class="st0" d="M2085.14,1946.57c0,8.34-17.31,15.06-38.67,15.06c-21.34,0-38.64-6.73-38.64-15.06
							c0-2.09,1.12-4.11,3.1-5.92c8.14-4.23,21.04-6.93,35.54-6.93c14.53,0,27.43,2.7,35.57,6.93
							C2084.02,1942.47,2085.14,1944.48,2085.14,1946.57"/>
					</g>
				</g>
			</g>
			<g>
				<path class="st83" d="M1919.54,1937.51c0,18.76-39.03,33.94-87.19,33.94c-48.11,0-87.14-15.17-87.14-33.94
					c0-7.69,6.54-14.78,17.56-20.42c15.92-8.28,41.18-13.57,69.57-13.57c28.45,0,53.7,5.29,69.62,13.57
					C1913.01,1922.73,1919.54,1929.82,1919.54,1937.51"/>
			</g>
			<g>
				<path class="st0" d="M1908.06,1928.67c0,16.32-33.88,29.5-75.71,29.5c-41.78,0-75.66-13.18-75.66-29.5
					c0-4.09,2.19-8.03,6.09-11.58c15.92-8.28,41.18-13.57,69.57-13.57c28.45,0,53.7,5.29,69.62,13.57
					C1905.87,1920.64,1908.06,1924.58,1908.06,1928.67"/>
			</g>
			<g class="st7">
				<g>
					<g>
						<path class="st0" d="M1871.04,1920.05c0,8.34-17.31,15.07-38.67,15.07c-21.34,0-38.64-6.73-38.64-15.07
							c0-2.09,1.12-4.11,3.1-5.92c8.14-4.23,21.04-6.93,35.54-6.93c14.53,0,27.43,2.7,35.57,6.93
							C1869.92,1915.94,1871.04,1917.96,1871.04,1920.05"/>
					</g>
				</g>
			</g>
			<g>
				<path class="st84" d="M1711.13,1957.39c0,18.76-39.03,33.94-87.19,33.94c-48.11,0-87.14-15.17-87.14-33.94
					c0-7.69,6.54-14.77,17.57-20.41c15.92-8.29,41.17-13.58,69.57-13.58c28.45,0,53.7,5.29,69.62,13.58
					C1704.59,1942.62,1711.13,1949.71,1711.13,1957.39"/>
			</g>
			<g>
				<path class="st85" d="M1699.65,1948.56c0,16.32-33.89,29.49-75.71,29.49c-41.78,0-75.66-13.18-75.66-29.49
					c0-4.09,2.2-8.04,6.09-11.58c15.92-8.29,41.17-13.57,69.57-13.57c28.44,0,53.7,5.29,69.62,13.57
					C1697.46,1940.53,1699.65,1944.47,1699.65,1948.56"/>
			</g>
			<g class="st7">
				<g>
					<g>
						<path class="st0" d="M1662.63,1939.93c0,8.34-17.31,15.07-38.68,15.07c-21.34,0-38.64-6.73-38.64-15.07
							c0-2.09,1.12-4.11,3.11-5.92c8.13-4.23,21.03-6.93,35.54-6.93c14.53,0,27.44,2.7,35.57,6.93
							C1661.51,1935.83,1662.63,1937.84,1662.63,1939.93"/>
					</g>
				</g>
			</g>
		</g>
		<g>
			<g>
				<path class="st0" d="M395.12,766.87c22.33-36.53,33.34-80.39,28.63-126.27c-11.43-111.36-110.98-192.37-222.34-180.94
					C90.05,471.1,9.04,570.64,20.47,682s110.98,192.37,222.34,180.94c30.98-3.18,59.59-13.2,84.53-28.37l93.8,21.04L395.12,766.87z"
					/>
			</g>
			<g class="st8">
				<g>
					<path class="st0" d="M205.39,498.44c104.03-10.68,197.72,59.31,218.93,159.35c0.03-7.15-0.28-14.36-1.03-21.62
						C411.86,524.81,312.32,443.8,200.95,455.24C89.59,466.67,8.58,566.22,20.02,677.58c0.75,7.3,1.9,14.46,3.38,21.48
						C23.79,596.76,101.33,509.13,205.39,498.44z"/>
				</g>
			</g>
			<g>
				<path class="st2" d="M221.69,883.42c-50.86,0-99.78-17.31-139.77-49.85C35.91,796.12,7.23,743,1.17,683.99
					c-12.5-121.83,76.43-231.11,198.25-243.62c121.82-12.5,231.11,76.44,243.62,198.25c4.7,45.84-4.61,90.88-26.96,130.82
					l23.68,80.71c1.93,6.59,0.23,13.71-4.46,18.73c-4.69,5.01-11.68,7.16-18.39,5.66l-86.37-19.37
					c-26.46,14.84-55.26,23.94-85.74,27.07C237.07,883.03,229.35,883.42,221.69,883.42z M222.24,477.99
					c-6.24,0-12.52,0.32-18.85,0.97C102.85,489.28,29.44,579.48,39.77,680.02s100.55,173.92,201.06,163.62
					c27.36-2.81,53.08-11.44,76.44-25.64c4.28-2.61,9.43-3.46,14.32-2.35l61.68,13.83l-16.76-57.15
					c-1.54-5.25-0.79-10.91,2.06-15.58c21.06-34.46,30.01-73.94,25.89-114.17C394.78,548.37,314.98,477.99,222.24,477.99z"/>
			</g>
			<g class="st18">
				<path class="st2" d="M396.26,764.92c-55.52,46.96-132.01,67.53-207.96,48.62C104.06,792.58,42,728.44,19.68,650.59
					c-0.53,10.32-0.29,20.81,0.79,31.42c11.43,111.36,110.98,192.37,222.34,180.94c30.98-3.18,59.59-13.2,84.53-28.37l93.8,21.04
					l-26.03-88.74C395.51,766.23,395.87,765.57,396.26,764.92z"/>
			</g>
			<g>
				<path class="st12" d="M286.93,604.38L286.93,604.38c-17.54-17.54-45.98-14.4-63.52,3.14l-2.73,2.73l-2.73-2.73
					c-17.54-17.54-45.98-20.69-63.52-3.14l0,0c-17.54,17.54-17.54,45.98,0,63.52l2.73,2.73l55.15,55.15
					c4.62,4.62,12.12,4.62,16.75,0l55.15-55.15l2.73-2.73C304.47,650.37,304.47,621.92,286.93,604.38z"/>
			</g>
		</g>
	</g>
</g>
</svg>
