<?xml version="1.0" encoding="utf-8"?>
<!-- Generator: Adobe Illustrator 26.2.1, SVG Export Plug-In . SVG Version: 6.00 Build 0)  -->
<svg version="1.1" id="Layer_1" xmlns="http://www.w3.org/2000/svg" xmlns:xlink="http://www.w3.org/1999/xlink" x="0px" y="0px"
	 viewBox="0 0 3035.67 2430.92" style="enable-background:new 0 0 3035.67 2430.92;" xml:space="preserve">
<style type="text/css">
	.st0{fill:#FDD100;}
	.st1{fill:#FFFFFF;}
	.st2{opacity:0.3;}
	.st3{fill:#000072;}
	.st4{opacity:0.2;}
	.st5{fill:#DBDBDB;}
	.st6{opacity:0.7;}
	.st7{fill:#F9744B;}
	.st8{opacity:0.5;}
	.st9{fill:#EF7C2E;}
	.st10{fill:#A5A5A5;}
	.st11{fill:#F27E80;}
	.st12{fill:#FA508E;}
	.st13{fill:#371A45;}
	.st14{fill:#C1C1DB;}
	.st15{opacity:0.35;}
	.st16{fill:#22A7F0;}
	.st17{fill:#111A28;}
	.st18{fill:#F92323;}
	.st19{fill:#102770;}
	.st20{fill:#178400;}
	.st21{fill:#177700;}
	.st22{fill:#166600;}
	.st23{fill:#83B732;}
	.st24{fill:#92C931;}
	.st25{fill:#E2E230;}
	.st26{fill:#E3E331;}
	.st27{fill:#E3E332;}
	.st28{fill:#E4E432;}
	.st29{fill:#E5E533;}
	.st30{fill:#E6E634;}
	.st31{fill:#E6E635;}
	.st32{fill:#E7E736;}
	.st33{fill:#E8E837;}
	.st34{fill:#E9E938;}
	.st35{fill:#EAEA39;}
	.st36{fill:#EAEA3A;}
	.st37{fill:#EBEB3B;}
	.st38{fill:#ECEC3C;}
	.st39{fill:#EDED3C;}
	.st40{fill:#EDED3D;}
	.st41{fill:#EEEE3E;}
	.st42{fill:#EFEF3F;}
	.st43{fill:#EFEF40;}
	.st44{fill:#F0F041;}
	.st45{fill:#F1F141;}
	.st46{fill:#F2F242;}
	.st47{fill:#F2F243;}
	.st48{fill:#F3F344;}
	.st49{fill:#F4F445;}
	.st50{fill:#F4F446;}
	.st51{fill:#F5F546;}
	.st52{fill:#F6F647;}
	.st53{fill:#F7F748;}
	.st54{fill:#F7F749;}
	.st55{fill:#F8F84A;}
	.st56{fill:#F9F94B;}
	.st57{fill:#FAFA4C;}
	.st58{fill:#FBFB4D;}
	.st59{fill:#FBFB4E;}
	.st60{fill:#FCFC4F;}
	.st61{fill:#FDFD50;}
	.st62{fill:#FEFE50;}
	.st63{fill:#FEFE51;}
	.st64{fill:#FFFF52;}
	.st65{fill:#0F2675;}
	.st66{fill:#DD6E39;}
	.st67{fill:#D13D09;}
	.st68{fill:#F27A4C;}
	.st69{fill:#E84B21;}
	.st70{fill:#FF6339;}
	.st71{opacity:0.6;}
	.st72{fill:#FF50B8;}
	.st73{opacity:0.4;}
	.st74{fill:#FF3998;}
	.st75{fill:#FF64CF;}
	.st76{fill:#FF5CB5;}
	.st77{fill:#1285DB;}
	.st78{fill:url(#SVGID_1_);}
	.st79{fill:url(#SVGID_00000145040239890472060260000016021111582418596484_);}
	.st80{fill:#FF45B4;}
	.st81{fill:url(#SVGID_00000034770755104079793720000010784865273042246075_);}
	.st82{fill:url(#SVGID_00000121989796805560980400000017375752935594851988_);}
	.st83{fill:#650000;}
	.st84{fill:#E2532A;}
	.st85{fill:#4DA2FF;}
	.st86{fill:#FFA1A8;}
	.st87{fill:#FF929F;}
	.st88{fill:#D37C59;}
	.st89{fill:#F9D9C2;}
	.st90{fill:#FCB790;}
	.st91{fill:#FF8E31;}
	.st92{fill:#BC5508;}
	.st93{fill:#FFE9C2;}
	.st94{fill:#EF2222;}
	.st95{opacity:0.25;}
	.st96{fill:#EF5050;}
	.st97{fill:#37DBFF;}
	.st98{fill:#220F2D;}
	.st99{fill:#FFE266;}
	.st100{fill:#3E8DFF;}
	.st101{fill:#6B184E;}
	.st102{fill:#DB2C2C;}
	.st103{fill:#F0835C;}
	.st104{fill:#FC442B;}
	.st105{fill:#FFDA22;}
	.st106{fill:#E25439;}
	.st107{opacity:0.3;clip-path:url(#SVGID_00000148641768025769083220000009780849945020497536_);}
	.st108{fill:#F4C99F;}
</style>
<g>
	<g>
		<g>
			<g>
				<path class="st1" d="M1939.9,959.87c0,0,263.95-20.23,341.58,33.51c139.91,96.86,179.13,621.03,70.48,806.8
					c-79.76,136.37-568.53,65.99-568.53,65.99L1939.9,959.87z"/>
			</g>
			<g class="st15">
				<path class="st13" d="M2351.97,1800.19c-79.75,136.36-568.54,65.97-568.54,65.97l42.83-248.16
					c106.32,12.57,471.5,46.53,539.48-69.7c21.2-36.22,36.77-85.34,47.04-141.62C2420.38,1559.82,2401.6,1715.33,2351.97,1800.19z"
					/>
			</g>
			<g>
				<path class="st13" d="M2044.19,1899.6c-2.15,0-4.29,0-6.46-0.01c-131.7-0.55-255.23-18.12-256.47-18.3
					c-8.34-1.2-14.13-8.94-12.93-17.28s8.92-14.15,17.28-12.93c133.12,19.15,492.03,45.97,553.18-58.58
					c106.65-182.36,63.47-696.92-66-786.55c-60-41.54-259.81-36.35-331.73-30.84c-8.36,0.61-15.74-5.65-16.39-14.06
					c-0.64-8.4,5.65-15.74,14.05-16.38c11-0.84,270.28-20,351.44,36.18c68.76,47.6,119.22,190.16,134.98,381.35
					c11.98,145.38,2.51,338.81-60,445.7C2329.55,1868.75,2221.57,1899.6,2044.19,1899.6z"/>
			</g>
			<g>
				<path class="st1" d="M2400.08,1424.97l-135.55,10.48c-12.1,0.94-22.05,9.9-24.19,21.84c-7.81,43.75-20.62,145.74,22,179.32
					c35.37,27.87,92.7,24.46,126.23-4.05c37.51-31.89,40.95-131.9,40.23-181.4C2428.58,1435.77,2415.42,1423.78,2400.08,1424.97z"/>
			</g>
			<g class="st15">
				<path class="st13" d="M2240.35,1457.31c-7.84,43.74-20.62,145.73,22,179.29c35.38,27.88,92.69,24.47,126.23-4.05
					c23.05-19.63,33.23-65.01,37.48-108.55c-6.06,21.76-15.61,39.44-27.51,51.06c-68.18,66.54-119.36-11.62-119.36-11.62
					s-8.81,19.03-15.86,20.12c-29.49,4.57-23.6-87.8-19.44-135.52C2242.18,1450.8,2240.95,1453.92,2240.35,1457.31z"/>
			</g>
			<g>
				<path class="st13" d="M2321.87,1671.11c-25.06,0-49.86-7.45-68.97-22.5c-47.46-37.39-37.65-137.59-27.58-193.99
					c3.35-18.76,18.99-32.91,38.04-34.38l135.55-10.48c11.55-0.88,22.99,3.06,31.51,10.83c8.51,7.77,13.49,18.83,13.65,30.36
					c1.02,69.6-6.07,159.63-45.61,193.25C2377.44,1662.06,2349.49,1671.11,2321.87,1671.11z M2401.26,1440.19l-135.55,10.48
					c-5.18,0.4-9.43,4.23-10.34,9.31c-11.48,64.29-13.19,141.31,16.43,164.64c28.85,22.73,77.8,21.05,106.89-3.69
					c23.09-19.63,36.12-83.01,34.85-169.55c-0.04-3.18-1.36-6.11-3.71-8.25C2407.48,1440.99,2404.39,1439.92,2401.26,1440.19
					L2401.26,1440.19z"/>
			</g>
			<g>
				<path class="st13" d="M2323.65,1667.6c-3-1.7-4.5-2.88-6.5-4.36c-1.83-1.42-3.6-2.87-5.24-4.39c-3.35-3.01-6.4-6.19-9.22-9.53
					c-5.6-6.69-10.57-13.78-14.42-21.36c-8.02-15-12.85-31.16-15.23-47.31c-1.02-8.1-1.91-16.16-1.96-24.22
					c-0.41-8.1,0.01-15.84,0.29-23.79c0.37-7.89,1.02-15.79,2.07-23.68c1.18-7.99,2.3-15.52,5.24-23.85
					c0.74-2.09,3.03-3.19,5.13-2.45c1.95,0.69,3.04,2.74,2.57,4.71l-0.13,0.52c-1.58,6.53-2.15,14.52-2.42,21.94
					c-0.24,7.57-0.09,15.18,0.33,22.79c0.85,15.32,2.49,30.3,6.05,44.56c3.59,14.27,9.31,27.78,17.19,39.42
					c3.79,5.93,8.41,11.16,13.25,15.89c2.43,2.36,5.01,4.53,7.66,6.44c1.31,1,2.65,1.86,3.97,2.69c1.19,0.73,2.94,1.68,3.35,1.81
					c7.19,2.2,11.23,9.82,9.03,17.01c-2.2,7.19-9.82,11.23-17.01,9.03c-0.95-0.29-1.85-0.68-2.68-1.15L2323.65,1667.6z"/>
			</g>
			<g>
				<path class="st13" d="M2098.93,1054.77c-5.79,0-11.32-3.31-13.89-8.91c-3.51-7.66-0.15-16.72,7.52-20.23
					c123.75-56.69,199.58-39.76,202.75-39.01c8.2,1.94,13.28,10.16,11.34,18.37c-1.93,8.19-10.12,13.27-18.3,11.36
					c-1.18-0.26-70.25-14.65-183.09,37.04C2103.22,1054.33,2101.06,1054.77,2098.93,1054.77z"/>
			</g>
		</g>
		<g>
			<path class="st1" d="M1400.07,1056.31c0,0-121.22,363.92-453.89,481.39v223.24h453.89V1056.31z"/>
		</g>
		<g>
			<path class="st1" d="M1400.08,1056.3v704.63H946.2v-223.24C1278.84,1420.23,1400.08,1056.3,1400.08,1056.3z"/>
		</g>
		<g class="st15">
			<path class="st13" d="M1400.08,1198.64v562.3H999.51C1291.89,1615.73,1400.08,1198.64,1400.08,1198.64z"/>
		</g>
		<g>
			<path class="st13" d="M1415.33,1776.21H930.92v-249.3l10.18-3.6c321.52-113.53,443.3-468.26,444.49-471.83l29.74-89.03V1776.21z
				 M961.45,1745.69h423.36v-613.51c-16.79,35.24-41.16,80.64-74.31,129.37c-65.58,96.39-178.96,223.45-349.05,286.86V1745.69z"/>
		</g>
		<g>
			<path class="st1" d="M2250.72,1760.93h-989.12c0,0,54.45-273.76,103.91-569.28c7.67-45.79,15.23-92.12,22.44-138.03
				c60.14-383.25,633.35-133.33,633.35-133.33s22.4,30.64,53.2,91.09C2138.26,1136.36,2238.12,1388.83,2250.72,1760.93z"/>
		</g>
		<g>
			<path class="st13" d="M2266.5,1776.21H1242.99l3.63-18.24c0.73-3.65,73.2-368.85,126.23-706.72
				c13.83-88.1,54.98-151.51,122.32-188.47c189.25-103.88,518.33,37.44,532.24,43.51l3.79,1.65l2.44,3.34
				c2.2,3.01,54.48,75.4,109.58,216.79c50.62,129.9,113.01,345.07,122.74,632.36L2266.5,1776.21z M1280.15,1745.69h954.71
				c-20.45-499.13-200.85-779.64-223.56-813.05c-37.6-15.59-335.86-134.02-501.48-43.07c-58.59,32.18-94.53,88.17-106.82,166.42
				C1356.65,1351.34,1295.48,1667.47,1280.15,1745.69z"/>
		</g>
		<g>
			<g class="st15">
				<path class="st13" d="M1730.05,1802.38c-1.56,8.28-3.01,16.41-4.35,24.42C1727,1818.79,1728.45,1810.66,1730.05,1802.38z"/>
			</g>
			<g class="st15">
				<path class="st13" d="M1352.91,1438.48c-9.27,83.38-14.65,155.66-15.76,215.95C1335.63,1598.26,1341.08,1525.79,1352.91,1438.48
					z"/>
			</g>
			<g>
				<circle class="st1" cx="1307.47" cy="1560.95" r="70.96"/>
			</g>
			<g class="st15">
				<path class="st13" d="M1236.55,1562.78c1.02,39.18,33.59,70.14,72.76,69.12s70.14-33.64,69.12-72.82
					c-0.28-10.82-2.97-21.08-7.61-30.15c-10.76,24.25-34.79,41.52-63.09,42.26c-28.3,0.74-53.2-15.25-65.15-38.92
					C1238.42,1541.58,1236.27,1551.96,1236.55,1562.78z"/>
			</g>
			<g>
				<path class="st13" d="M1307.41,1644.41c-21.46,0-41.77-8.1-57.4-22.93c-16.17-15.35-25.39-36.07-25.97-58.36
					c-1.2-46.01,35.25-84.41,81.26-85.61c45.98-1.25,84.41,35.25,85.61,81.25c1.2,46.01-35.25,84.41-81.26,85.61
					C1308.9,1644.4,1308.16,1644.41,1307.41,1644.41z M1307.51,1502.49c-0.52,0-1.04,0-1.56,0.02
					c-32.23,0.84-57.76,27.74-56.92,59.96c0.41,15.62,6.87,30.13,18.19,40.88c11.32,10.75,26.05,16.45,41.77,16.04
					c32.23-0.84,57.76-27.74,56.92-59.97c-0.41-15.61-6.87-30.13-18.19-40.88C1336.77,1508.16,1322.55,1502.49,1307.51,1502.49z"/>
			</g>
			<g>
				<g class="st15">
					<path class="st13" d="M1341.86,1630.1c12.12-79.67,14.42-153.53,11.06-219.28c-1.63,37.97-5.23,77.82-11.56,119.31
						c-7.37,48.66-9.64,99.46-5.12,149.33C1337.5,1662.87,1339.41,1646.36,1341.86,1630.1z"/>
				</g>
				<g>
					<path class="st1" d="M1410.17,1767.51l370.58,19.04c43.86,2.27,81.63-31.78,83.89-75.7l10.12-197.2
						c1.98-38.45-23.9-72.15-59.84-81.46c-5.09-1.35-10.39-2.15-15.86-2.44l-370.52-19.04c-43.92-2.27-81.68,31.78-83.89,75.7
						l-8.06,156.19l-2.12,41.01C1332.2,1727.53,1366.31,1765.24,1410.17,1767.51z"/>
				</g>
				<g class="st15">
					<path class="st13" d="M1410.17,1767.51l370.58,19.04c43.86,2.27,81.63-31.78,83.89-75.7l10.12-197.2
						c1.98-38.45-23.9-72.15-59.84-81.46c-21.76,12.89-35.58,21.15-35.58,21.15c-26.18,157.37-75.31,233.98-272.04,227.09
						c-84.92-3-137.81-18.69-170.71-37.84l-2.12,41.01C1332.2,1727.53,1366.31,1765.24,1410.17,1767.51z"/>
				</g>
				<g>
					<path class="st13" d="M1784.88,1801.95c-1.64,0-3.29-0.04-4.94-0.13h0l-370.55-19.05c-25.29-1.3-48.63-12.44-65.7-31.36
						s-25.75-43.27-24.45-68.57l10.14-197.22c2.7-52.4,47.4-92.73,99.93-90.16l370.55,19.05c52.41,2.7,92.85,47.53,90.15,99.93
						l-10.14,197.22C1877.26,1762.41,1835.13,1801.95,1784.88,1801.95z M1781.5,1771.33c35.57,1.85,66.04-25.64,67.88-61.23
						l10.14-197.23c1.84-35.6-25.63-66.04-61.23-67.88l-370.54-19.05c-35.63-1.85-66.04,25.64-67.88,61.24l-10.14,197.22
						c-0.88,17.16,5.02,33.69,16.63,46.55c11.61,12.87,27.45,20.43,44.6,21.32L1781.5,1771.33L1781.5,1771.33z"/>
				</g>
				<g>
					<path class="st1" d="M1395.37,1765.29c4.75,1.24,9.67,1.99,14.8,2.22l370.58,19.04c32.14,1.64,61-16.17,75.01-43.16
						c5.11-9.8,8.25-20.82,8.83-32.53l4.54-87.61l1.5-28.91l4.15-80.69c2.27-43.91-31.84-81.62-75.7-83.89l-80.07-4.1
						c36.55,8.85,62.98,42.83,61.01,81.67l-5.44,106.52l-4.68,90.73c-2.27,43.86-40.03,77.97-83.89,75.7L1395.37,1765.29z"/>
				</g>
				<g class="st15">
					<path class="st13" d="M1395.37,1765.29c4.75,1.24,9.67,1.99,14.8,2.22l370.58,19.04c43.86,2.27,81.63-31.78,83.84-75.7
						l6.03-116.51c-10.38,20.11-28.42,44.52-55.35,45.79c-14.78,0.73-28.7-10.59-40.71-26.28l-4.68,90.73
						c-2.27,43.86-40.03,77.97-83.89,75.7L1395.37,1765.29z"/>
				</g>
				<g>
					<path class="st13" d="M1784.95,1801.95c-1.67,0-3.33-0.04-5-0.13l-370.57-19.06c-5.93-0.27-11.94-1.17-17.79-2.65l4.55-30.04
						l290.64,14.97c17.14,0.88,33.66-5.01,46.52-16.62c12.87-11.62,20.44-27.46,21.31-44.61l10.14-197.23
						c1.59-30.97-19.16-58.77-49.34-66.1l4.38-30.08l80.04,4.1c52.44,2.72,92.87,47.56,90.15,99.95l-10.14,197.21
						c-1.29,25.3-12.42,48.64-31.35,65.72C1830.83,1793.32,1808.43,1801.95,1784.95,1801.95z M1754.97,1769.96l26.56,1.37
						c17.1,0.89,33.65-5.01,46.52-16.62c12.87-11.61,20.44-27.46,21.31-44.61v0l10.14-197.22c1.85-35.59-25.62-66.04-61.24-67.89
						l-23.86-1.22c14.2,17.7,22.07,40.39,20.83,64.38l-10.14,197.22C1783.84,1730.11,1773.16,1752.99,1754.97,1769.96z"/>
				</g>
				<g>
					<path class="st16" d="M1628.74,1600.06c-0.33,7.29,7.23,66.65,7.23,66.65s18.65,0.85,41.56,1.9
						c28.62,1.31,53.17-27.26,54.84-63.82c1.67-36.55-20.18-67.24-48.8-68.55c-19.31-0.88-41.56-1.9-41.56-1.9
						S1629.28,1588.17,1628.74,1600.06z"/>
				</g>
				<g class="st15">
					<path class="st13" d="M1628.74,1600.06c-0.33,7.29,7.23,66.65,7.23,66.65s18.65,0.85,41.56,1.9
						c28.62,1.31,53.17-27.26,54.84-63.82c1.67-36.55-20.18-67.24-48.8-68.55c-19.31-0.88-41.56-1.9-41.56-1.9
						S1629.28,1588.17,1628.74,1600.06z"/>
				</g>
				<g>
					<path class="st13" d="M1679.47,1680.1c-0.82,0-1.64-0.02-2.46-0.06l-28.87-1.32c-12.96-0.6-23.53-10.36-25.11-23.22
						c-6.04-49.12-5.82-54.09-5.73-55.97c0.32-6.97,3.92-25.62,10.71-55.45c2.86-12.53,14.2-21.23,27.08-20.6l29.01,1.32
						c34.88,1.6,61.67,37.71,59.71,80.5c-0.92,20.22-8.05,39.06-20.07,53.05C1711.64,1672.44,1695.99,1680.1,1679.47,1680.1z
						 M1640.17,1600.55c-0.02,1.02,0.18,8.21,5.59,52.15c0.21,1.74,1.66,3.07,3.43,3.15l28.86,1.32
						c10.22,0.44,20.31-4.41,28.32-13.74c8.7-10.12,13.87-24.03,14.56-39.17c1.38-30.19-15.62-55.57-37.88-56.59l-29.02-1.32
						c-1.53-0.03-3.31,1.1-3.7,2.81C1641.31,1588.83,1640.28,1598.5,1640.17,1600.55z M1628.74,1600.06h0.05H1628.74z"/>
				</g>
				<g>
					
						<ellipse transform="matrix(0.0456 -0.999 0.999 0.0456 -34.616 3164.8196)" class="st16" cx="1638.99" cy="1600.53" rx="66.25" ry="51.87"/>
				</g>
				<g>
					<path class="st1" d="M1690.82,1602.88c-0.34,7.59-1.68,14.81-3.86,21.52c0.73-35.57-20.8-65.03-48.84-66.32
						c-22.67-1.03-42.78,16.71-50.98,42.32c-0.04-0.76,0-1.49,0.04-2.25c1.68-36.56,26.22-65.1,54.84-63.8
						C1670.63,1535.64,1692.46,1566.32,1690.82,1602.88z"/>
				</g>
				<g class="st15">
					<path class="st13" d="M1690.82,1602.88c-1.68,36.56-26.22,65.14-54.84,63.84c-28.62-1.34-50.49-32.02-48.81-68.57
						c0.34-7.1,1.53-13.89,3.47-20.23c7.14,23.16,24.42,39.8,45.33,40.76c23.05,1.03,43.47-17.29,51.36-43.58
						C1690.02,1583.61,1691.28,1593.03,1690.82,1602.88z"/>
				</g>
				<g>
					<path class="st13" d="M1637.9,1678.2c-0.82,0-1.64-0.02-2.46-0.06c-17.43-0.8-33.26-9.98-44.56-25.85
						c-10.69-15.02-16.07-34.43-15.15-54.65c1.95-42.8,32.02-76.41,66.8-74.73c34.88,1.59,61.67,37.71,59.71,80.51
						c-0.92,20.22-8.05,39.06-20.07,53.04C1670.08,1670.54,1654.43,1678.2,1637.9,1678.2z M1640.11,1545.75
						c-21.67,0-40.15,23.37-41.5,52.93c-0.69,15.13,3.19,29.46,10.93,40.33c7.13,10.02,16.7,15.79,26.95,16.26
						c10.1,0.46,20.3-4.4,28.32-13.74c8.7-10.12,13.87-24.03,14.56-39.17c1.38-30.19-15.62-55.57-37.88-56.59
						C1641.03,1545.76,1640.57,1545.75,1640.11,1545.75z"/>
				</g>
				<g>
					<path class="st13" d="M1525.45,1783.46c-0.11,0-0.21,0-0.32,0c-6.32-0.18-11.3-5.44-11.13-11.76l3.62-130.79l-61.53-43.25
						l8.86-184.9c0.3-6.31,5.75-11.23,11.98-10.89c6.32,0.3,11.19,5.67,10.89,11.98l-8.26,172.32l61.28,43.08l-3.96,143.09
						C1536.71,1778.54,1531.62,1783.45,1525.45,1783.46z"/>
				</g>
			</g>
			<g>
				<path class="st1" d="M2196.48,1510.3c0,0,34.29,27.29,35.8,69.4c1.74,48.68-28.71,68.42-28.71,68.42s-133.28,68.24-347.1,22.9
					c0,0-62.94-79.55,7.16-124.44C1863.63,1546.58,2089.32,1577.58,2196.48,1510.3z"/>
			</g>
			<g class="st15">
				<path class="st13" d="M2232.27,1579.73c1.74,48.62-28.69,68.36-28.69,68.36s-133.26,68.26-347.13,22.91
					c0,0-20.69-26.23-25.09-56.98c1.01,1.52,1.66,2.31,1.66,2.31c156.3,33.17,269.55,5.61,319.17-11.62
					c34.47-11.96,57.5-43.26,56.7-78.2c-0.01-0.48-0.03-0.96-0.04-1.45c-0.02-0.81-0.04-1.62-0.19-2.4
					C2218.66,1534.6,2231.39,1554.5,2232.27,1579.73z"/>
			</g>
			<g>
				<path class="st13" d="M2001.32,1701.95c-43.6,0-93.18-4.37-148.01-16l-5.39-1.14l-3.42-4.32c-1.46-1.85-35.76-45.83-28.15-91.26
					c3.8-22.67,16.94-41.34,39.05-55.51l4.74-3.03l5.57,0.76c2.2,0.3,221.47,29.44,322.66-34.08l9.16-5.75l8.46,6.73
					c1.62,1.29,39.81,32.22,41.55,80.79c2.04,56.68-34.12,80.78-35.66,81.78l-1.34,0.78
					C2206.32,1663.86,2129.95,1701.95,2001.32,1701.95z M1865.42,1657.29c193.33,39.37,318.83-16.88,330.36-22.35
					c3.46-2.64,22.53-18.83,21.25-54.69c-0.83-23.21-14.2-41.48-22.84-50.94c-104.49,56.65-290.52,37.55-326.74,33.15
					c-12.01,8.83-18.9,19.28-21,31.82C1842.23,1619.5,1858.46,1646.95,1865.42,1657.29z"/>
			</g>
		</g>
		<g>
			<g class="st15">
				<path class="st13" d="M2074.49,1011.38c-90.78,123.64-226.94,204.65-375.46,228.01c-10.91,1.68-21.87,3.09-32.86,4.2
					c-30.22,2.94-60.87,3.55-91.66,1.6c-25.45-1.6-51.1-4.88-76.63-10.04c-29.61-5.88-59.11-14.2-88.34-25.03
					c-9.65-3.63-19.19-7.44-28.51-11.49c-5.23-2.25-10.42-4.58-15.53-6.98c7.67-45.79,15.23-92.12,22.44-138.03
					c60.14-383.25,633.35-133.33,633.35-133.33S2043.69,950.94,2074.49,1011.38z"/>
			</g>
			<g>
				<path class="st1" d="M1098.97,890.79c49.92,82.4,120.63,152.68,208.15,202.18c17.85,10.09,36.33,19.32,55.49,27.59
					c9.31,4.05,18.85,7.86,28.52,11.51c29.21,10.84,58.72,19.15,88.35,25.03c25.52,5.13,51.14,8.42,76.62,10.03
					c30.77,1.95,61.41,1.35,91.63-1.6c11.02-1.11,21.97-2.52,32.87-4.2c199.29-31.33,376.26-166.46,451.42-369.05
					c110.78-298.42-41.38-630.11-339.75-740.88c-57.48-21.29-116.24-32.94-174.38-35.53c-6.79-0.37-13.62-0.54-20.44-0.56
					c-18.25-0.2-36.4,0.47-54.41,2.01c-41.66,3.56-82.59,11.67-122.04,23.96c-39.45,12.24-77.52,28.72-113.41,49.05
					c-11.41,6.46-22.61,13.29-33.6,20.55c-16.45,10.88-32.38,22.56-47.72,35.17c-76.56,62.58-138,145.74-174.88,245.16
					C987.65,562.85,1010.94,745.48,1098.97,890.79z"/>
				<path class="st13" d="M1591.79,1169.79c-11.98,0-23.93-0.38-35.79-1.13c-25.91-1.63-51.76-5.01-76.83-10.05
					c-29.92-5.94-59.73-14.39-88.58-25.1c-10.61-4-19.96-7.77-28.6-11.54c-18.81-8.13-37.53-17.44-55.63-27.66
					c-85.48-48.35-157.65-118.45-208.7-202.72c-92.08-152-109.48-334.58-47.72-500.94c35.69-96.23,96.33-181.23,175.35-245.81
					c14.94-12.28,31.04-24.15,47.85-35.27c10.81-7.13,22.14-14.06,33.69-20.6c35.98-20.38,74.23-36.92,113.71-49.18
					c39.83-12.41,81-20.49,122.36-24.02c17.98-1.53,36.35-2.21,54.56-2.01c7.16,0.03,14.07,0.22,20.51,0.57
					c59.32,2.64,118.15,14.63,174.83,35.62c298.72,110.91,451.54,444.15,340.65,742.86c-72.62,195.77-246.05,337.56-452.62,370.03
					c-10.86,1.68-21.95,3.1-32.95,4.21C1629.23,1168.88,1610.46,1169.79,1591.79,1169.79z M1591.34,16.8
					c-16.12,0-32.29,0.68-48.17,2.03c-41.14,3.51-82.09,11.55-121.71,23.9c-39.27,12.19-77.32,28.65-113.11,48.92
					c-11.49,6.5-22.77,13.39-33.51,20.49c-16.72,11.06-32.74,22.87-47.59,35.08c-78.6,64.24-138.91,148.79-174.41,244.51
					c-61.43,165.47-44.13,347.08,47.47,498.27c50.78,83.82,122.56,153.54,207.59,201.64c18,10.18,36.63,19.43,55.35,27.52
					c8.6,3.75,17.9,7.5,28.45,11.48c28.7,10.65,58.34,19.05,88.11,24.97c24.94,5.01,50.64,8.38,76.42,10
					c30.17,1.91,60.92,1.38,91.38-1.6c10.94-1.11,21.97-2.52,32.78-4.19c205.46-32.3,377.97-173.34,450.21-368.07
					c110.29-297.12-41.71-628.59-338.84-738.91c-56.38-20.89-114.89-32.81-173.91-35.44c-6.41-0.35-13.26-0.53-20.38-0.56
					C1595.4,16.81,1593.37,16.8,1591.34,16.8z"/>
			</g>
			<g class="st15">
				<path class="st13" d="M2132.01,792.26c-75.14,202.61-252.13,337.75-451.43,369.05c-10.89,1.7-21.84,3.11-32.84,4.21
					c-30.23,2.97-60.86,3.55-91.63,1.62c-25.48-1.63-51.11-4.9-76.62-10.03c-29.64-5.88-59.14-14.19-88.37-25.03
					c-9.65-3.68-19.19-7.46-28.52-11.5c-19.16-8.29-37.63-17.55-55.49-27.62c-87.51-49.51-158.24-119.76-208.16-202.19
					c-27.43-45.26-48.59-94.19-62.78-145.26c49.43,77.55,117.64,143.66,201.12,190.89c17.84,10.12,36.32,19.33,55.49,27.62
					c9.29,4.05,18.83,7.83,28.52,11.5c29.23,10.84,58.73,19.15,88.34,25.04c25.54,5.11,51.13,8.4,76.62,10.02
					c30.77,1.93,61.43,1.33,91.63-1.62c11.04-1.12,21.98-2.52,32.88-4.22c199.29-31.3,376.25-166.42,451.42-369.05
					c43.88-118.19,46.47-241.6,15.11-354.4C2171.17,428.38,2197.4,616.13,2132.01,792.26z"/>
			</g>
			<g>
				<path class="st13" d="M1591.78,1180.09c-12.2,0-24.37-0.38-36.44-1.15c-26.37-1.66-52.69-5.1-78.21-10.24
					c-30.43-6.04-60.77-14.64-90.13-25.54c-10.82-4.08-20.32-7.92-29.13-11.75c-19.12-8.26-38.17-17.73-56.59-28.14
					c-87.02-49.22-160.48-120.58-212.45-206.35c-93.72-154.7-111.43-340.54-48.56-509.85c36.33-97.94,98.05-184.46,178.48-250.2
					c15.19-12.49,31.58-24.57,48.69-35.88c11.01-7.27,22.54-14.32,34.3-20.97c36.61-20.74,75.55-37.58,115.73-50.05
					c40.53-12.63,82.44-20.85,124.54-24.45c18.31-1.56,36.96-2.26,55.54-2.05c7.26,0.03,14.34,0.22,20.95,0.58
					c60.29,2.68,120.17,14.88,177.86,36.25c304.05,112.89,459.58,452.07,346.73,756.1c-73.92,199.25-250.43,343.57-460.67,376.62
					c-11.06,1.72-22.33,3.16-33.51,4.29C1629.9,1179.16,1610.8,1180.09,1591.78,1180.09z M1591.36,27.09
					c-15.87,0-31.75,0.67-47.33,1.99c-40.4,3.45-80.61,11.35-119.52,23.47c-38.58,11.98-75.95,28.14-111.1,48.05
					c-11.29,6.39-22.36,13.16-32.91,20.12c-16.42,10.86-32.15,22.45-46.73,34.44c-77.21,63.1-136.43,146.13-171.3,240.13
					c-60.33,162.5-43.34,340.87,46.62,489.36c49.87,82.31,120.36,150.79,203.85,198.02c17.69,9.99,35.97,19.09,54.36,27.03
					c8.47,3.69,17.62,7.38,28,11.29c28.13,10.44,57.25,18.69,86.48,24.5c24.5,4.93,49.75,8.23,75.06,9.82
					c29.63,1.88,59.82,1.35,89.74-1.57c10.73-1.08,21.58-2.47,32.2-4.12c201.77-31.72,371.2-170.23,442.14-361.47
					c108.32-291.8-40.96-617.33-332.77-725.68c-55.38-20.51-112.84-32.22-170.79-34.8c-6.33-0.34-13.01-0.52-19.97-0.55
					C1595.38,27.11,1593.37,27.09,1591.36,27.09z"/>
			</g>
			<g>
				<path class="st13" d="M1591.78,1183.52c-12.28,0-24.51-0.39-36.65-1.15c-26.52-1.67-52.99-5.13-78.66-10.3
					c-30.61-6.08-61.11-14.73-90.65-25.69c-10.88-4.11-20.44-7.96-29.3-11.82c-19.22-8.3-38.38-17.83-56.9-28.3
					c-87.53-49.51-161.42-121.29-213.69-207.56c-94.27-155.61-112.08-342.52-48.85-512.83c36.54-98.51,98.62-185.53,179.53-251.67
					c15.27-12.55,31.75-24.7,48.96-36.09c11.07-7.31,22.68-14.41,34.51-21.1c36.82-20.86,75.98-37.8,116.4-50.34
					c40.77-12.7,82.92-20.97,125.27-24.59c18.42-1.56,37.19-2.25,55.87-2.06c7.3,0.03,14.43,0.23,21.1,0.59
					c60.62,2.7,120.84,14.97,178.86,36.46c305.83,113.54,462.27,454.71,348.75,760.51c-74.35,200.42-251.89,345.57-463.35,378.82
					c-11.13,1.73-22.46,3.18-33.71,4.31C1630.13,1182.58,1610.91,1183.52,1591.78,1183.52z M1591.37,30.53
					c-15.79,0-31.56,0.66-47.05,1.98c-40.15,3.43-80.12,11.27-118.79,23.32c-38.35,11.9-75.49,27.97-110.42,47.76
					c-11.23,6.35-22.23,13.08-32.71,20c-16.32,10.8-31.95,22.32-46.45,34.23c-76.74,62.72-135.6,145.25-170.26,238.67
					c-59.97,161.52-43.08,338.8,46.34,486.39c49.56,81.81,119.62,149.87,202.6,196.81c17.58,9.93,35.76,18.97,54.03,26.87
					c8.42,3.67,17.52,7.34,27.85,11.24c27.95,10.37,56.89,18.57,85.94,24.35c24.36,4.9,49.45,8.18,74.6,9.76
					c29.46,1.87,59.46,1.35,89.19-1.56c10.65-1.07,21.44-2.46,32.01-4.09c200.53-31.53,368.93-169.2,439.44-359.28
					c107.66-290.02-40.71-613.58-330.75-721.26c-55.04-20.39-112.15-32.03-169.75-34.59c-6.31-0.34-12.93-0.52-19.82-0.55
					C1595.38,30.54,1593.38,30.53,1591.37,30.53z"/>
			</g>
			<g>
				<path class="st13" d="M1191.06,1006.25c348.65,219.37,799.31,29.17,803.86-378.79c3.1-277.55-266.27-494.87-533.03-480.77
					c-194.15,10.26-379.21,105.21-445.67,410.9c0,0-8.52,139.86,33.67,230.67s98.54,172,98.54,172L1191.06,1006.25z"/>
			</g>
			<g>
				<path class="st98" d="M1994.9,627.47c-4.54,407.95-455.21,598.14-803.84,378.8l-8.63-9.33
					c374.29,48.3,733.34-191.76,745.61-604.14C1970.89,461.9,1995.84,541.82,1994.9,627.47z"/>
			</g>
			<g>
				<path class="st13" d="M1503.03,1172.82c-8.03,0-16.07-0.15-24.14-0.46l-2.39-0.28c-30.64-6.09-61.15-14.73-90.69-25.69
					c-10.88-4.11-20.44-7.96-29.3-11.82c-19.22-8.3-38.38-17.83-56.9-28.3c-87.53-49.51-161.42-121.29-213.69-207.56
					c-94.27-155.61-112.08-342.52-48.85-512.83c36.54-98.51,98.62-185.53,179.53-251.67l1.23-1l1.41-0.73
					c67.66-35.07,147.2-55.24,236.4-59.96c158.95-8.44,325.67,55.54,446.07,171.03c110.65,106.15,170.72,242.8,169.13,384.79
					c-1.74,154.3-58.29,288.82-163.55,388.99C1802.73,1116.84,1656.52,1172.81,1503.03,1172.82z M1481.27,1141.9
					c153.56,5.6,301.15-47.86,404.97-146.68c99.15-94.37,152.43-221.35,154.07-367.22c1.49-133.46-55.23-262.17-159.73-362.41
					C1766.14,155.82,1607.93,94.99,1457.24,103c-84.21,4.45-159.08,23.23-222.55,55.85c-76.1,62.57-134.53,144.71-169,237.64
					c-59.97,161.52-43.08,338.8,46.34,486.39c49.56,81.81,119.62,149.87,202.6,196.81c17.58,9.93,35.76,18.97,54.03,26.87
					c8.42,3.67,17.52,7.34,27.85,11.24C1424.08,1128.02,1452.61,1136.14,1481.27,1141.9z"/>
			</g>
			<g>
				<path class="st13" d="M1504.45,1113.76c-109.74,0-221.69-31.78-321.52-94.59l-1.7-1.07l-45.34-49.14
					c-2.33-3.36-57.59-83.32-99.85-174.27c-43.32-93.24-35.42-232.16-35.06-238.03l0.32-2.31
					c58.16-267.57,212.86-409.85,459.78-422.9c141.8-7.48,290.66,49.56,398.1,152.61c98.78,94.76,152.41,216.77,151,343.57
					c-2.04,183.07-92.63,336.8-248.54,421.77C1682.69,1092.44,1594.31,1113.76,1504.45,1113.76z M1200.88,994.4
					c171.9,107.37,381.01,118.22,546.16,28.21c145.92-79.53,230.7-223.61,232.62-395.31c1.32-118.27-48.97-232.34-141.61-321.2
					c-101.47-97.33-241.86-151.22-375.36-144.16c-231.11,12.21-376.22,146.02-431.29,397.7c-0.65,13.25-5.76,140.19,32.33,222.19
					c38.83,83.57,90.55,159.95,96.65,168.86L1200.88,994.4z"/>
			</g>
			<g>
				
					<ellipse transform="matrix(0.9984 -0.057 0.057 0.9984 -31.5468 120.7955)" class="st1" cx="2100.7" cy="613.13" rx="149.77" ry="206.11"/>
			</g>
			<g class="st15">
				<path class="st13" d="M2123.19,817.76c-76.4,12.02-148.06-57.81-167.41-158.98c15.19,4.24,31.02,5.34,47.09,2.82
					c81.89-12.9,177.72-109.82,165.32-222.82c-0.84-7.59-41.45-20.15-42.86-27.44c62.32,17.36,113.68,87.62,123.68,178.44
					C2261.4,702.82,2205.08,804.86,2123.19,817.76z"/>
			</g>
			<g>
				<path class="st13" d="M2105.86,834.39c-29.11,0-57.65-10.17-83.52-29.94c-46.36-35.43-77.38-96.05-85.1-166.31
					c-13.28-120.82,48.89-230.59,138.59-244.71c35.82-5.63,71.55,4.18,103.23,28.4c46.35,35.43,77.37,96.05,85.09,166.3l0,0
					c13.28,120.82-48.89,230.59-138.59,244.71C2118.98,833.87,2112.4,834.39,2105.86,834.39z M2095.34,422.43
					c-4.92,0-9.84,0.38-14.76,1.16c-73.83,11.62-124.52,106.37-113,211.22c6.72,61.09,34.12,115.44,73.29,145.39
					c24.9,19.03,52.54,26.81,79.94,22.49c73.83-11.62,124.52-106.37,113-211.22l0,0c-6.71-61.09-34.11-115.44-73.29-145.38
					C2140.1,430.47,2117.82,422.43,2095.34,422.43z"/>
			</g>
			<g>
				
					<ellipse transform="matrix(0.9997 -0.0228 0.0228 0.9997 -13.6878 49.1887)" class="st1" cx="2150.56" cy="624.94" rx="122.03" ry="163.58"/>
				<path class="st13" d="M2152.37,790.2c-11.75,0-23.57-2.28-35.22-6.85c-65.52-25.71-103.96-117.61-85.7-204.87
					c10.22-48.86,36.28-87.79,71.49-106.81c25.91-14,53.95-15.77,81.04-5.14c65.52,25.71,103.96,117.61,85.7,204.87
					c-10.22,48.86-36.28,87.79-71.48,106.81C2183.42,786.19,2167.96,790.2,2152.37,790.2z M2148.76,462.88
					c-15.07,0-30.02,3.88-44.32,11.6c-34.38,18.57-59.85,56.72-69.88,104.66c-17.95,85.8,19.61,176.07,83.74,201.24
					c26.21,10.28,53.3,8.56,78.37-4.98c34.38-18.57,59.85-56.71,69.88-104.65c17.95-85.8-19.61-176.08-83.74-201.24
					C2171.55,465.08,2160.12,462.88,2148.76,462.88z"/>
			</g>
			<g class="st15">
				<path class="st13" d="M2043.55,706.41c-10.79-29.05-13.66-61.17-9.73-92.05c30.19,64.17,93.83,84.71,147.32,45.2
					c34.57-25.52,56.92-70.28,62.98-118.07c1.93,4.03,3.69,8.31,5.34,12.71c27.45,73.99,3.62,168.05-53.25,210.08
					C2139.33,806.3,2070.99,780.36,2043.55,706.41z"/>
			</g>
			<g>
				<path class="st13" d="M2155.73,803.85c-21.54,0-42.75-7.58-62.11-22.31c-37.46-28.52-63.6-81.15-69.92-140.78
					c-10.77-101.62,36.16-190.38,106.85-202.08c26.67-4.41,53.39,2.87,77.29,21.06c37.46,28.52,63.6,81.14,69.92,140.78
					c10.77,101.62-36.17,190.38-106.86,202.08C2165.84,803.43,2160.77,803.85,2155.73,803.85z M2145.52,467.97
					c-3.34,0-6.67,0.27-10,0.82c-52.93,8.76-90.24,86.04-81.47,168.75c5.45,51.44,27.15,96.19,58.05,119.71
					c17.05,12.97,35.65,18.23,53.81,15.23c52.92-8.76,90.24-86.04,81.47-168.75c-5.45-51.44-27.15-96.18-58.05-119.7
					C2175.42,473.42,2160.45,467.97,2145.52,467.97z"/>
			</g>
			<g class="st6">
				<path class="st1" d="M1604.28,240.71c0,0-260.06,30.44-395.65,188.24c-0.14,0.17-0.28,0.33-0.43,0.5
					c-28.51,33.24-47.5,73.6-55.3,116.69c-10.31,56.98-9.07,97.76-6.59,133.62c7.59,109.05,31.54,158.73,31.54,158.73
					c-66.03-53.3-105.53-116.28-112.75-207.05c-0.69-8.95-1.07-18.2-1.16-27.71c-0.03-2.19-0.01-4.36,0.05-6.55
					c-0.05-0.02-0.03-0.07,0.02-0.13c1.17-19.28,3.67-44.55,8.87-72.82c15.63-85.28,55.6-197.87,157.16-255.9
					C1419.95,159.81,1612.47,228.7,1604.28,240.71z"/>
			</g>
			<g class="st6">
				
					<ellipse transform="matrix(0.9458 -0.3249 0.3249 0.9458 -62.4913 617.1234)" class="st1" cx="1816.93" cy="495.71" rx="77.04" ry="89.77"/>
			</g>
			<g class="st6">
				
					<ellipse transform="matrix(0.915 -0.4035 0.4035 0.915 -103.2787 809.8238)" class="st1" cx="1869.92" cy="649.97" rx="31.81" ry="37.07"/>
			</g>
		</g>
		<g>
			<path class="st13" d="M2981.35,1700.22c-195.46,423.74-770.11,730.69-1448.62,730.69S279.57,2123.97,84.12,1700.22H2981.35z"/>
		</g>
		<g>
			<g>
				<path class="st99" d="M1987.58,2172.26l-18.03,2.78c-3.61,0.56-6.45,3.39-7,7l-2.78,18.03l-2.78-18.03c-0.56-3.61-3.39-6.45-7-7
					l-18.03-2.78l18.03-2.78c3.61-0.56,6.45-3.39,7-7l2.78-18.03l2.78,18.03c0.56,3.61,3.39,6.45,7,7L1987.58,2172.26z"/>
			</g>
			<g>
				<path class="st99" d="M1522.58,2092.26l-18.03,2.78c-3.61,0.56-6.45,3.39-7,7l-2.78,18.03l-2.78-18.03c-0.56-3.61-3.39-6.45-7-7
					l-18.03-2.78l18.03-2.78c3.61-0.56,6.45-3.39,7-7l2.78-18.03l2.78,18.03c0.56,3.61,3.39,6.45,7,7L1522.58,2092.26z"/>
			</g>
			<g>
				<path class="st99" d="M1695.46,2270.58l-18.14,2.8c-3.63,0.56-6.49,3.41-7.05,7.05l-2.8,18.14l-2.8-18.14
					c-0.56-3.64-3.41-6.49-7.05-7.05l-18.14-2.8l18.14-2.8c3.64-0.56,6.49-3.41,7.05-7.05l2.8-18.14l2.8,18.14
					c0.56,3.64,3.41,6.49,7.05,7.05L1695.46,2270.58z"/>
			</g>
			<g>
				<path class="st99" d="M2517.34,2065.83l-24.46,3.78c-4.9,0.76-8.75,4.6-9.5,9.5l-3.78,24.46l-3.78-24.46
					c-0.76-4.9-4.6-8.75-9.5-9.5l-24.46-3.78l24.46-3.78c4.9-0.76,8.75-4.6,9.5-9.5l3.78-24.46l3.78,24.46
					c0.76,4.9,4.6,8.75,9.5,9.5L2517.34,2065.83z"/>
			</g>
			<g>
				<path class="st99" d="M316.86,1775.83l-21.22,3.28c-4.25,0.66-7.59,3.99-8.24,8.24l-3.28,21.22l-3.28-21.22
					c-0.66-4.25-3.99-7.59-8.24-8.24l-21.22-3.28l21.22-3.28c4.25-0.66,7.59-3.99,8.24-8.24l3.28-21.22l3.28,21.22
					c0.66,4.25,3.99,7.59,8.24,8.24L316.86,1775.83z"/>
			</g>
			<g>
				<path class="st99" d="M1232.83,2023.1l-22.99,3.55c-4.61,0.71-8.22,4.32-8.93,8.93l-3.55,22.99l-3.55-22.99
					c-0.71-4.61-4.32-8.22-8.93-8.93l-22.99-3.55l22.99-3.55c4.61-0.71,8.22-4.32,8.93-8.93l3.55-22.99l3.55,22.99
					c0.71,4.61,4.33,8.22,8.93,8.93L1232.83,2023.1z"/>
			</g>
			<g>
				<path class="st99" d="M2246.34,2178.25l-21.88,3.38c-4.38,0.68-7.82,4.12-8.5,8.5l-3.38,21.88l-3.38-21.88
					c-0.68-4.38-4.12-7.82-8.5-8.5l-21.88-3.38l21.88-3.38c4.38-0.68,7.82-4.12,8.5-8.5l3.38-21.88l3.38,21.88
					c0.68,4.38,4.12,7.82,8.5,8.5L2246.34,2178.25z"/>
			</g>
			<g>
				<path class="st99" d="M912.44,2017.74l-18.03,2.78c-3.61,0.56-6.45,3.39-7,7l-2.78,18.03l-2.78-18.03c-0.56-3.61-3.39-6.45-7-7
					l-18.03-2.78l18.03-2.78c3.61-0.56,6.45-3.39,7-7l2.78-18.03l2.78,18.03c0.56,3.61,3.39,6.45,7,7L912.44,2017.74z"/>
			</g>
			<g>
				<path class="st99" d="M959.63,2240.77l-11.99-13.75c-2.4-2.75-6.31-3.64-9.66-2.18l-16.72,7.28l13.75-11.99
					c2.75-2.4,3.64-6.31,2.18-9.66l-7.28-16.72l11.99,13.75c2.4,2.75,6.31,3.64,9.66,2.18l16.72-7.28l-13.75,11.99
					c-2.75,2.4-3.64,6.31-2.18,9.66L959.63,2240.77z"/>
			</g>
			<g>
				<path class="st99" d="M1301.34,2262.88l-20.87,3.22c-4.18,0.65-7.46,3.93-8.11,8.11l-3.22,20.87l-3.22-20.87
					c-0.65-4.18-3.93-7.46-8.11-8.11l-20.87-3.22l20.87-3.22c4.18-0.65,7.46-3.93,8.11-8.11l3.22-20.86l3.22,20.86
					c0.65,4.18,3.93,7.46,8.11,8.11L1301.34,2262.88z"/>
			</g>
			<g>
				<path class="st99" d="M643.05,2086.49l-18.03,2.78c-3.61,0.56-6.45,3.39-7,7l-2.78,18.03l-2.78-18.03c-0.56-3.61-3.39-6.45-7-7
					l-18.03-2.78l18.03-2.78c3.61-0.56,6.45-3.39,7-7l2.78-18.03l2.78,18.03c0.56,3.61,3.39,6.45,7,7L643.05,2086.49z"/>
			</g>
			<g>
				<path class="st99" d="M2785.17,1796l-21.33,3.29c-4.27,0.66-7.63,4.01-8.29,8.29l-3.29,21.33l-3.29-21.33
					c-0.66-4.27-4.01-7.63-8.29-8.29l-21.33-3.29l21.33-3.29c4.27-0.66,7.63-4.01,8.29-8.29l3.29-21.33l3.29,21.33
					c0.66,4.27,4.01,7.63,8.29,8.29L2785.17,1796z"/>
			</g>
		</g>
		<g>
			<g>
				<polygon class="st1" points="2353,2067.08 1666.64,2067.08 1701.41,1980.57 1753.07,1852.09 2195.7,1856.74 2297.43,1992.79 
									"/>
			</g>
			<g>
				<path class="st13" d="M2383.48,2082.34h-739.44l98.78-245.62l460.6,4.85L2383.48,2082.34z M1689.23,2051.81h633.3
					l-134.52-179.87l-424.65-4.48L1689.23,2051.81z"/>
			</g>
			<g>
				<path class="st13" d="M2258.98,2017.8c-21.18,0.06-42.34-0.35-63.52-0.51l-63.5-1.3c-21.16-0.31-42.36-1.24-63.44-1.74
					c-21.13-0.4-42.27-0.63-63.42-0.64c-42.3-0.62-84.62-0.5-126.94-0.85l-63.49-0.55c-21.17-0.42-42.33-0.55-63.51-1.11
					c21.15-1.14,42.31-1.74,63.47-2.57l63.49-1.54c42.33-0.84,84.68-0.91,127.03-0.88c21.18,0.24,42.36,0.7,63.55,1.33
					c21.23,0.85,42.33,1.6,63.47,2.81l63.4,3.38C2216.72,2015.03,2237.86,2016.17,2258.98,2017.8z"/>
			</g>
			<g>
				<path class="st13" d="M2230.68,1971.13c-19.46,0.2-38.92-0.08-58.38-0.11l-58.39-0.89c-38.93-0.65-77.77-2.29-116.66-3.41
					l-116.6-3.95c-19.44-0.64-38.83-1.21-58.27-0.77c-19.44-0.06-38.89,0.13-58.38-0.15c38.8-2.44,77.76-5.29,116.74-4.84
					c38.95-0.03,77.86,1.02,116.76,2.23c38.89,1.32,77.79,3.15,116.63,5.17l58.27,2.98
					C2191.83,1968.63,2211.26,1969.64,2230.68,1971.13z"/>
			</g>
			<g>
				<path class="st13" d="M2201.45,1930.87c-17.89-0.1-35.73-0.68-53.58-1l-53.49-1.78l-107.01-3.24l-106.98-3.77
					c-17.83-0.67-35.64-1.22-53.48-1.43c-17.89-0.64-35.76-1.03-53.56-1.89c35.73-1.35,71.35-2.58,107.14-2.45
					c35.73-0.01,71.43,0.95,107.13,2.05c35.69,1.32,71.36,2.65,107.02,5l53.46,3.87
					C2165.88,1927.78,2183.69,1929.08,2201.45,1930.87z"/>
			</g>
			<g>
				<path class="st13" d="M2175.27,1892.21c-32.34,3.3-64.9,2.02-97.29,1.54c-32.4-0.64-64.78-1.75-97.16-2.72l-97.12-3.53
					c-16.18-0.66-32.37-1.26-48.54-1.58c-16.08-0.56-32.63-0.47-48.4-1.53l48.39-2.14c16.24-0.42,32.45-0.47,48.67-0.51
					c32.44-0.03,64.85,0.82,97.25,1.8c32.4,1.16,64.79,2.46,97.15,4.48c16.17,1.01,32.33,1.96,48.51,2.72
					C2142.89,1891.61,2159.07,1892.61,2175.27,1892.21z"/>
			</g>
		</g>
		<g>
			<polygon class="st1" points="2696.17,1959.59 2009.82,1959.59 2096.29,1744.59 2162.46,1745.28 2538.88,1749.28 			"/>
		</g>
		<g>
			<path class="st1" d="M1606.99,1735.45L1360.2,1958.2c0,0,219.96-11.32,322.05-11.03c83.24,0.24,361.67,21.56,361.67,21.56
				l64.75-224.13L1606.99,1735.45z"/>
		</g>
		<g class="st15">
			<path class="st13" d="M2297.43,1992.79h-247.05l-2.63,9.16c0,0-248.81-19.08-346.34-21.37l51.67-128.49l442.62,4.66
				L2297.43,1992.79z"/>
		</g>
		<g>
			<polygon class="st1" points="2696.17,1959.59 2009.82,1959.59 2096.29,1744.59 2162.46,1745.28 2538.88,1749.28 			"/>
		</g>
		<g>
			<path class="st13" d="M2726.66,1974.85h-739.44l98.78-245.62l460.6,4.86L2726.66,1974.85z M2032.41,1944.32h633.3l-134.52-179.86
				l-424.65-4.49L2032.41,1944.32z"/>
		</g>
		<g>
			<path class="st13" d="M2602.16,1910.3c-21.18,0.07-42.34-0.35-63.52-0.51l-63.5-1.29c-21.16-0.31-42.36-1.24-63.44-1.74
				c-21.13-0.4-42.27-0.63-63.42-0.65c-42.3-0.62-84.62-0.49-126.94-0.84l-63.49-0.55c-21.17-0.42-42.33-0.55-63.51-1.11
				c21.15-1.14,42.31-1.74,63.47-2.57l63.49-1.54c42.33-0.84,84.68-0.91,127.03-0.88c21.18,0.24,42.36,0.7,63.55,1.33
				c21.23,0.85,42.33,1.6,63.47,2.81l63.4,3.38C2559.9,1907.53,2581.04,1908.68,2602.16,1910.3z"/>
		</g>
		<g>
			<path class="st13" d="M2573.87,1863.63c-19.46,0.2-38.92-0.08-58.38-0.11l-58.39-0.9c-38.93-0.65-77.77-2.28-116.66-3.41
				l-116.6-3.95c-19.44-0.64-38.83-1.21-58.27-0.77c-19.44-0.06-38.89,0.13-58.38-0.15c38.8-2.44,77.76-5.3,116.74-4.84
				c38.95-0.03,77.86,1.02,116.76,2.23c38.89,1.32,77.79,3.15,116.63,5.17l58.27,2.98
				C2535.01,1861.13,2554.44,1862.14,2573.87,1863.63z"/>
		</g>
		<g>
			<path class="st13" d="M2544.63,1828.37c-17.89-0.1-35.73-0.68-53.58-1l-53.49-1.78l-107.01-3.24l-106.98-3.77
				c-17.83-0.67-35.64-1.22-53.48-1.42c-17.89-0.64-35.75-1.03-53.56-1.89c35.73-1.35,71.35-2.58,107.14-2.45
				c35.73-0.01,71.43,0.95,107.13,2.05c35.69,1.32,71.36,2.65,107.02,5l53.46,3.87C2509.06,1825.28,2526.87,1826.59,2544.63,1828.37
				z"/>
		</g>
		<g>
			<path class="st13" d="M2518.45,1794.71c-32.34,3.31-64.9,2.02-97.29,1.54c-32.4-0.64-64.78-1.75-97.16-2.72l-97.12-3.53
				c-16.18-0.66-32.37-1.26-48.54-1.58c-16.08-0.56-32.63-0.47-48.4-1.53l48.39-2.14c16.24-0.42,32.45-0.47,48.67-0.51
				c32.44-0.03,64.85,0.82,97.25,1.8c32.4,1.16,64.79,2.46,97.15,4.48c16.17,1.01,32.33,1.96,48.51,2.72
				C2486.07,1794.12,2502.26,1795.12,2518.45,1794.71z"/>
		</g>
		<g>
			<path class="st13" d="M13.26,1686.71l94.04-1.7l94.04-1.28l188.07-2.53l376.14-3.15c125.38-1.27,250.76-1.36,376.14-2.01
				l376.14-0.62l376.14,0.61c125.38,0.67,250.76,0.73,376.15,2.01l376.14,3.15l188.07,2.54l94.04,1.29l94.04,1.71
				c7.46,0.13,13.39,6.29,13.26,13.75c-0.13,7.28-6.03,13.12-13.26,13.26l-94.04,1.7l-94.04,1.29l-188.07,2.54l-376.14,3.15
				c-125.38,1.28-250.76,1.34-376.15,2.01l-376.14,0.61l-376.14-0.62c-125.38-0.65-250.76-0.74-376.14-2.01l-376.14-3.15
				l-188.07-2.53l-94.04-1.28l-94.04-1.7c-7.46-0.14-13.39-6.29-13.26-13.75C0.13,1692.68,6.04,1686.85,13.26,1686.71z"/>
		</g>
		<g>
			<path class="st100" d="M1284.82,1925.57l215.91-200.73c0.86-0.8,1.35-1.93,1.35-3.11v-36.06c0-2.44-2.06-4.38-4.5-4.23
				l-690.65,42.15L486.4,1925.57H1284.82z"/>
		</g>
		<g class="st2">
			<path class="st101" d="M1502.09,1704.98v16.75c0,1.18-0.5,2.33-1.37,3.13l-215.91,200.72H486.41l58.42-36.82h725.39
				L1502.09,1704.98z"/>
		</g>
		<g>
			<path class="st13" d="M1290.82,1940.83H433.54l368.56-232.25l3.9-0.23l690.65-42.15c5.36-0.35,10.66,1.6,14.56,5.27
				c3.9,3.67,6.13,8.85,6.13,14.2v36.06c0,5.39-2.27,10.6-6.21,14.28L1290.82,1940.83z M539.25,1910.3h739.57l208.01-193.37v-19.55
				l-675.06,41.2L539.25,1910.3z"/>
		</g>
		<g>
			<polygon class="st100" points="1284.82,1840.73 1502.09,1681.16 806.93,1681.16 486.4,1840.73 			"/>
		</g>
		<g>
			<polygon class="st1" points="1228.78,1820.58 1370.11,1716.78 917.9,1716.78 709.39,1820.58 			"/>
		</g>
		<g>
			<path class="st13" d="M1288.09,1850.73H443.86l360.71-179.57h684.57c6.17,0,11.61,3.94,13.54,9.81
				c1.92,5.86-0.13,12.26-5.11,15.91L1288.09,1850.73z M528.92,1830.73h752.62l190.03-139.57H809.28L528.92,1830.73z"/>
		</g>
		<g>
			<path class="st100" d="M1264.24,1935.01H355.98c-5.88,0-11.26-2.4-15.15-6.41c-2.56-2.6-4.46-5.95-5.42-9.73l-152.76-619.96
				c-6.6-26.75,13.62-52.59,41.18-52.59h847.93c27.93,0,52.39,18.2,60.68,44.57c0.42,1.26,0.8,2.56,1.11,3.85l151.27,613.96
				C1288.13,1922.07,1277.98,1935.01,1264.24,1935.01z"/>
		</g>
		<g class="st2">
			<path class="st101" d="M1264.24,1935.01H355.98c-5.88,0-11.26-2.4-15.15-6.41c111.35,5.38,498.38,8.43,683.19-190.96
				c118.34-127.68,120.24-327.72,108.41-446.75c0.42,1.26,0.8,2.56,1.11,3.85l151.27,613.96
				C1288.13,1922.07,1277.98,1935.01,1264.24,1935.01z"/>
		</g>
		<g class="st15">
			<path class="st1" d="M229.1,1317.54l152.15,617.48h-25.26c-9.77,0-18.24-6.68-20.57-16.14l-152.76-619.96
				c-6.6-26.75,13.62-52.59,41.18-52.59h847.93c28.54,0,53.5,19,61.21,46.33c-2.67-0.34-5.34-0.53-8.09-0.53H249.02
				C235.7,1292.12,225.89,1304.6,229.1,1317.54z"/>
		</g>
		<g>
			<path class="st13" d="M1264.23,1950.26H355.99c-16.83,0-31.39-11.41-35.42-27.75l-152.75-619.97
				c-4.27-17.33-0.41-35.33,10.6-49.38c11.01-14.05,27.56-22.1,45.41-22.1h847.92c36.4,0,67.9,24.68,76.6,60.02l151.28,613.98
				c2.71,10.96,0.26,22.34-6.7,31.22C1285.98,1945.17,1275.51,1950.26,1264.23,1950.26z M223.83,1261.59
				c-8.4,0-16.2,3.79-21.38,10.41c-5.19,6.61-7,15.08-5,23.24l152.75,619.97c0.66,2.67,3.03,4.53,5.78,4.53h908.24
				c2.52,0,4.01-1.43,4.68-2.28c0.67-0.85,1.69-2.64,1.09-5.09l-151.28-613.98c-5.34-21.67-24.65-36.8-46.96-36.8H223.83z"/>
		</g>
		<g class="st15">
			<polygon class="st13" points="2162.46,1745.28 2100.56,1959.59 2009.82,1959.59 2096.29,1744.59 			"/>
		</g>
		<g>
			<path class="st1" d="M1606.99,1735.45L1360.2,1958.2c0,0,219.96-11.32,322.05-11.03c83.24,0.24,361.67,21.56,361.67,21.56
				l64.75-224.13L1606.99,1735.45z"/>
		</g>
		<g>
			<path class="st13" d="M2055.13,1984.9l-12.38-0.95c-2.78-0.21-278.82-21.28-360.55-21.51c-100.54-0.29-319.02,10.9-321.22,11.01
				l-42.91,2.21l283.16-255.58l527.62,9.62L2055.13,1984.9z M1678.34,1931.91c1.34,0,2.65,0,3.95,0
				c73.78,0.21,294.88,16.49,350.41,20.66l55.78-193.08l-475.73-8.67l-210.57,190.06
				C1470.35,1937.68,1603.57,1931.91,1678.34,1931.91z"/>
		</g>
		<g>
			<path class="st13" d="M1739.59,1738.52c0.1,33.92-6.53,67.27-19.22,96.67l-5.28,12.18c-6.04,13.98-21.19,13.98-27.23,0
				l-5.45-12.62c-12.56-29.1-19.19-62.14-19.19-95.75v-346.82c0-11.92,16.86-21.6,37.69-21.6c20.8,0,37.66,9.69,37.66,21.6
				c0,0.57-0.03,1.14-0.13,1.71L1739.59,1738.52z"/>
		</g>
		<g>
			<path class="st13" d="M2003.67,1905.05c-20.94-0.34-41.84-1.16-62.75-1.72l-62.67-2.5c-41.75-2.06-83.56-3.37-125.35-4.59
				c-41.78-1.71-83.58-2.97-125.36-4.28c-20.91-0.8-41.72-0.92-62.68-1.31c-20.93-0.62-41.85-0.99-62.76-1.84
				c41.85-1.37,83.6-2.66,125.53-2.62c41.87,0.12,83.69,1.45,125.52,2.57l62.71,2.66c20.9,0.86,41.8,2.04,62.67,3.68l62.61,4.59
				C1961.98,1901.48,1982.84,1903.03,2003.67,1905.05z"/>
		</g>
		<g>
			<path class="st13" d="M2025.83,1868.11c-26.39-0.3-52.73-1.07-79.03-2.33c-13.16-0.53-26.3-1.32-39.45-1.99
				c-13.15-0.74-26.27-1.68-39.4-2.21l-78.84-3.86c-26.29-1.15-52.56-2.66-78.93-3.38c26.3-2.19,52.72-2.63,79.08-2.47
				c26.37,0.12,52.72,0.98,79.06,2.22c26.36,1.43,52.59,3.62,78.85,5.87C1973.44,1862.21,1999.66,1864.92,2025.83,1868.11z"/>
		</g>
		<g>
			<path class="st1" d="M2092.92,1056.31c0,0,69.92,153.82,81.71,328.41c12,177.8-5.38,430.56-419.43,396.29
				c-145.14-12.02-138.09-73.69-143.48-146.45c-6.68-90.15,3.62-193.67,108.95-197.54c190.35-6.99,247.2-48.49,274.26-165.21
				L2092.92,1056.31z"/>
		</g>
		<g class="st15">
			<path class="st13" d="M2176.19,1483.92c-8.05,158.94-80.06,325.28-420.99,297.08c-145.16-12.02-138.1-73.69-143.48-146.46
				c-3.66-49.34-2.21-102.69,17.1-141.5c0.19,10.72,0.72,21.45,1.53,31.98c5.38,72.73-1.68,134.44,143.45,146.42
				C2035.41,1693.12,2138.68,1600.16,2176.19,1483.92z"/>
		</g>
		<g>
			<path class="st13" d="M1949.18,1350.91c3.15-6.58,6.86-12.65,10.49-18.96c3.6-6.3,7.55-12.59,11.21-19.19
				c7.45-13.17,14.26-27.18,22.31-41.35c0.5-0.9,1.64-1.22,2.53-0.71c0.57,0.32,0.91,0.91,0.95,1.52
				c0.91,16.38-0.84,32.64-4.79,48.74c-2.04,8.01-4.51,16.07-8.23,23.65c-3.69,7.57-8.2,14.92-14.27,21.03
				c-4.92,4.96-12.92,4.99-17.88,0.07c-3.92-3.89-4.76-9.7-2.51-14.41L1949.18,1350.91z"/>
		</g>
		<g>
			<path class="st13" d="M1826.88,1799.37c-23.24,0-47.55-1.05-72.94-3.15c-148.08-12.26-152.33-80.01-156.44-145.53
				c-0.31-4.94-0.62-9.95-1-15c-6.23-84.18,5.83-141.97,36.89-176.67c20.92-23.37,50.1-35.91,86.72-37.25
				c121.11-4.45,184.97-23.11,220.43-64.39c5.49-6.4,15.13-7.12,21.52-1.63c6.4,5.49,7.12,15.13,1.63,21.52
				c-41.64,48.48-111.88,70.21-242.47,75c-28.41,1.04-49.71,9.91-65.1,27.1c-25.23,28.19-34.78,78.58-29.19,154.05
				c0.38,5.18,0.7,10.3,1.02,15.35c4.04,64.39,6.71,106.94,128.49,117.02c152.01,12.57,262.1-13.61,327.3-77.83
				c79.82-78.62,82.35-202.81,75.64-302.22c-11.45-169.62-79.68-321.61-80.37-323.12c-3.49-7.68-0.09-16.72,7.58-20.21
				c7.68-3.48,16.72-0.1,20.21,7.58c2.9,6.38,71.21,158.36,83.04,333.7c7.15,105.91,3.99,238.69-84.68,326.03
				C2044.66,1769.32,1951.23,1799.37,1826.88,1799.37z"/>
		</g>
		<g>
			<path class="st13" d="M2117.86,1687.24c-0.22,0-0.44,0-0.67-0.01c-8.42-0.36-14.96-7.49-14.59-15.91
				c10.86-251.01-143.99-291.73-150.59-293.34c-8.17-1.99-13.21-10.22-11.25-18.4c1.97-8.17,10.14-13.23,18.32-11.3
				c1.95,0.46,48.36,11.81,92.99,58.25c40.4,42.05,87.26,122.34,81.04,266.11C2132.75,1680.84,2125.99,1687.24,2117.86,1687.24z"/>
		</g>
		<g>
			<g>
				<path class="st13" d="M858.86,1460.61c-0.38-10.52-0.59-21.18-4.2-31.38c-1.08-1.01-2.08-2.05-3.16-3.05
					c-3.16-0.62-6.28-1.6-9.51-1.91c-22.77-2.36-45.34-1.25-67.62,4.1c-29.06,6.98-54.71,20.13-75.12,42.35
					c-7.39,8.02-13.92,16.8-20.66,25.38c-1.81,2.33-3.3,3.4-6.46,2.5c-7.43-2.12-15.14-2.4-22.81-1.63
					c-20.55,2.15-37.77,11.49-53.15,24.72c-16.66,14.37-29.16,32.11-40.48,50.79c-4.83,7.92-1.35,15.41,7.85,17.05
					c5.8,0.97,11.59,1.91,17.39,2.88c13.89,2.29,27.74,4.55,41.59,6.84c0.03,0.42,0.1,0.62,0.07,0.83
					c-0.07,0.28-0.14,0.59-0.28,0.87c-4.44,7.92-2.12,14.27,4.62,19.54c0.73,0.59,1.39,1.32,2.05,1.98
					c3.65,3.54,7.36,7.12,11.21,10.8c-3.89,4.06-7.78,7.6-11.07,11.66c-1.67,2.05-2.99,4.86-3.33,7.5
					c-0.62,4.27,2.12,8.12,6.08,9.72c4.2,1.74,8.16,1.04,11.35-2.08c4.06-3.92,7.88-8.09,11.98-12.32
					c5.24,5.1,10.21,9.93,15.17,14.68c5.69,5.42,9.13,5.97,16.21,2.81c1.28-0.62,2.57-1.11,4.1-1.74c0.35,1.56,0.66,2.81,0.9,3.99
					c3.82,18.95,7.57,37.94,11.49,56.83c1.84,8.96,9.62,12.15,17.18,7.05c6.84-4.58,13.64-9.37,20.27-14.37
					c15.27-11.56,28.74-24.93,38.6-41.48c12.32-20.83,17.57-42.8,9.96-66.69c-0.31-0.94,0.24-2.71,1.01-3.33
					c6.7-5.9,13.64-11.53,20.34-17.46c15.14-13.47,26.49-29.72,34.47-48.29C855.77,1514.49,859.87,1487.97,858.86,1460.61z
					 M630.72,1579.51c-16.04-2.67-32.67-5.45-49.75-8.3c14.13-20.41,29.58-38.71,52.56-48.91c9.93-4.41,21.94-5.97,29.44-4.17
					C652.31,1538.48,641.62,1558.82,630.72,1579.51z M771.14,1638.7c-2.01,12.98-7.91,24.2-15.69,34.58
					c-9.69,12.78-21.66,23.02-34.82,32.7c-3.51-17.43-6.98-34.47-10.38-51.17c20.34-11.66,40.23-23.05,60.23-34.51
					C772.18,1626.03,772.11,1632.38,771.14,1638.7z M833.21,1509.11c-4.48,17.46-11.35,33.78-22.5,48.11
					c-8.61,11-18.85,20.34-29.82,28.92c-29.75,23.26-62.7,41.17-96.72,57.24c-1.67,0.76-2.74,0.83-4.13-0.59
					c-3.02-3.16-6.32-6.14-9.48-9.23c-0.21-0.17-0.31-0.49-0.66-1.08c0.8-0.87,1.67-1.74,2.53-2.64
					c17.98-18.68,36.07-37.32,54.05-56.03c5.21-5.35,4.3-13.05-1.81-16.66c-4.27-2.53-9.27-1.74-13.16,2.22
					c-10.83,11.18-21.63,22.36-32.42,33.57c-8.05,8.33-16.04,16.63-24.4,25.31c-3.89-3.75-7.6-7.15-11.04-10.8
					c-0.59-0.66-0.38-2.57,0.14-3.58c8.4-17.81,16.7-35.69,25.58-53.29c8.78-17.46,19.27-33.95,31.21-49.43
					c11.18-14.61,23.68-27.91,39.82-37.14c10.34-5.94,21.25-10.55,32.77-13.57c1.04-0.31,2.74,0.52,3.65,1.39
					c14.23,13.61,28.33,27.25,42.46,40.93c4.24,4.06,8.44,8.23,12.78,12.22C833.35,1506.19,833.66,1507.34,833.21,1509.11z
					 M837.03,1486.51c-14.09-13.64-27.84-26.9-41.62-40.23c-0.03-0.35,0-0.76,0-1.15c13.64-0.42,27.32-0.8,41.14-1.21
					C838.49,1458.56,838.35,1472.27,837.03,1486.51z"/>
			</g>
			<g>
				<path class="st1" d="M832.06,1504.98c-4.34-3.99-8.54-8.16-12.78-12.22c-14.13-13.68-28.22-27.32-42.46-40.93
					c-0.9-0.87-2.6-1.7-3.65-1.39c-11.53,3.02-22.43,7.64-32.77,13.57c-16.14,9.23-28.64,22.53-39.82,37.14
					c-11.94,15.48-22.43,31.97-31.21,49.43c-8.89,17.6-17.18,35.48-25.58,53.29c-0.52,1.01-0.73,2.92-0.14,3.58
					c3.44,3.65,7.15,7.05,11.04,10.8c8.37-8.68,16.35-16.98,24.4-25.31c10.8-11.21,21.59-22.39,32.42-33.57
					c3.89-3.96,8.89-4.76,13.16-2.22c6.11,3.61,7.01,11.32,1.81,16.66c-17.98,18.71-36.07,37.35-54.05,56.03
					c-0.87,0.9-1.74,1.77-2.53,2.64c0.35,0.59,0.45,0.9,0.66,1.08c3.16,3.09,6.46,6.08,9.48,9.23c1.39,1.42,2.46,1.35,4.13,0.59
					c34.02-16.07,66.96-33.99,96.72-57.24c10.97-8.57,21.21-17.91,29.82-28.92c11.14-14.34,18.02-30.65,22.5-48.11
					C833.66,1507.34,833.35,1506.19,832.06,1504.98z M799.92,1533.89c-13.78,14.06-36.21,14.51-50.2,0.94
					c-14.06-13.54-14.41-35.96-0.8-50.16c13.37-13.92,35.83-14.23,49.92-0.69C812.8,1497.44,813.32,1520.18,799.92,1533.89z"/>
			</g>
			<g>
				<path class="st102" d="M837.03,1486.5c-14.1-13.62-27.85-26.9-41.62-40.23c-0.02-0.36,0.01-0.75,0-1.15
					c13.65-0.4,27.33-0.79,41.16-1.21C838.5,1458.55,838.34,1472.27,837.03,1486.5z"/>
			</g>
			<g>
				<path class="st102" d="M662.98,1518.14c-10.68,20.32-21.37,40.68-32.25,61.39c-16.07-2.7-32.69-5.46-49.76-8.3
					c14.14-20.44,29.58-38.74,52.57-48.92C643.45,1517.88,655.46,1516.32,662.98,1518.14z"/>
			</g>
			<g>
				<path class="st102" d="M755.43,1673.28c-9.68,12.78-21.64,23.03-34.81,32.7c-3.51-17.41-6.97-34.46-10.37-51.17
					c20.35-11.66,40.23-23.03,60.25-34.52c1.7,5.74,1.6,12.08,0.65,18.43C769.14,1651.7,763.24,1662.9,755.43,1673.28z"/>
			</g>
			<g>
				<path class="st13" d="M798.84,1483.97c-14.09-13.54-36.55-13.23-49.92,0.69c-13.61,14.2-13.26,36.62,0.8,50.16
					c13.99,13.57,36.42,13.12,50.2-0.94C813.32,1520.18,812.8,1497.44,798.84,1483.97z M787.49,1522.54
					c-6.98,7.15-18.78,7.32-26.11,0.38c-7.57-7.15-7.64-19.34-0.17-26.83c6.98-7.08,19.02-7.15,26.14-0.14
					C794.78,1503.24,794.81,1515.04,787.49,1522.54z"/>
			</g>
			<g>
				<path class="st16" d="M787.48,1522.54c-6.98,7.15-18.78,7.32-26.12,0.37c-7.54-7.14-7.62-19.32-0.16-26.82
					c6.99-7.07,19.03-7.16,26.13-0.15C794.77,1503.24,794.83,1515.05,787.48,1522.54z"/>
			</g>
		</g>
	</g>
</g>
</svg>
