<?xml version="1.0" encoding="utf-8"?>
<!-- Generator: Adobe Illustrator 26.3.1, SVG Export Plug-In . SVG Version: 6.00 Build 0)  -->
<svg version="1.1" id="Layer_1" xmlns="http://www.w3.org/2000/svg" xmlns:xlink="http://www.w3.org/1999/xlink" x="0px" y="0px"
	 viewBox="0 0 2333.49 2804.16" style="enable-background:new 0 0 2333.49 2804.16;" xml:space="preserve">
<style type="text/css">
	.st0{fill:#878787;}
	.st1{fill:#371A45;}
	.st2{opacity:0.35;}
	.st3{fill:#293856;}
	.st4{fill:#FFFFFF;}
	.st5{fill:#878787;stroke:#371A45;stroke-width:5;stroke-linecap:round;stroke-linejoin:round;stroke-miterlimit:10;}
	.st6{fill:#293856;stroke:#371A45;stroke-width:5;stroke-linecap:round;stroke-linejoin:round;stroke-miterlimit:10;}
	.st7{fill:#179CFF;}
	.st8{fill:#111A28;}
	.st9{opacity:0.7;}
	.st10{fill:#22A7F0;}
	.st11{opacity:0.6;}
	.st12{fill:#FD6CCB;}
	.st13{opacity:0.3;}
	.st14{fill:#000072;}
	.st15{opacity:0.45;}
	.st16{fill:#39D5FF;}
	.st17{fill:#FEF26B;}
	.st18{fill:#FFEBF6;}
	.st19{fill:#FDD800;}
	.st20{fill:#F883A0;}
	.st21{fill:#B5E5FB;}
	.st22{fill:#FF4F90;}
	.st23{fill:#575B5A;}
	.st24{fill:#C1C1C1;}
	.st25{fill:#FF6982;}
	.st26{fill:#FEB71F;}
	.st27{fill:#F8B916;}
	.st28{fill:#F0835C;}
	.st29{fill:#1AC4FF;}
	.st30{fill:#B5CFDD;}
	.st31{opacity:0.2;}
	.st32{fill:#FF7878;}
	.st33{fill:#E2E2E2;}
	.st34{fill:#39A1FF;}
	.st35{fill:#4DA2FF;}
	.st36{fill:#1E79BC;}
	.st37{fill:#24D6FF;}
	.st38{fill:#FF8500;}
	.st39{fill:#7F441C;}
	.st40{fill:#4F3725;}
	.st41{fill:#77563E;}
	.st42{fill:#F7C99F;}
	.st43{fill:#F42222;}
	.st44{fill:#F91C1C;}
	.st45{fill:none;stroke:#371A45;stroke-width:34.1758;stroke-linecap:round;stroke-miterlimit:10;}
	.st46{fill:#9CA9B9;}
	.st47{opacity:0.4;}
	.st48{fill:#F9744B;}
	.st49{fill:#FA508E;}
	.st50{fill:#FF408E;}
	.st51{fill:#FF6169;}
	.st52{fill:#FC7E81;}
	.st53{fill:#F27E80;}
	.st54{fill:#32B1D1;}
	.st55{fill:#220F2D;}
	.st56{fill:none;}
	.st57{fill:none;stroke:#293856;stroke-width:22.8375;stroke-linecap:round;stroke-miterlimit:10;}
	.st58{fill:#FFB200;}
	.st59{fill:#D66B09;}
	.st60{fill:#FFC33E;}
	.st61{fill:#FFEC90;}
	.st62{opacity:0.41;}
	.st63{fill:none;stroke:#293856;stroke-width:36.5502;stroke-linecap:round;stroke-miterlimit:10;}
	.st64{fill:#FFDA22;}
	.st65{opacity:0.5;}
	.st66{fill:none;stroke:#371A45;stroke-width:26.1952;stroke-linecap:round;stroke-miterlimit:10;}
	.st67{fill:none;stroke:#371A45;stroke-width:34.9269;stroke-linecap:round;stroke-miterlimit:10;}
	.st68{fill:#FF488E;}
	.st69{fill:#B7B7B7;}
</style>
<g>
	<g>
		<g>
			<path class="st0" d="M1407.18,2228.68h-263.42c-17.25,0-31.24-13.99-31.24-31.24v-9.82c0-17.25,13.99-31.24,31.24-31.24h263.42
				c17.25,0,31.24,13.99,31.24,31.24v9.82C1438.42,2214.69,1424.43,2228.68,1407.18,2228.68z"/>
			<path class="st1" d="M1407.18,2231.18h-263.42c-18.61,0-33.74-15.14-33.74-33.74v-9.82c0-18.61,15.14-33.75,33.74-33.75h263.42
				c18.61,0,33.74,15.14,33.74,33.75v9.82C1440.92,2216.04,1425.78,2231.18,1407.18,2231.18z M1143.76,2158.87
				c-15.85,0-28.74,12.9-28.74,28.75v9.82c0,15.85,12.89,28.74,28.74,28.74h263.42c15.85,0,28.74-12.89,28.74-28.74v-9.82
				c0-15.85-12.89-28.75-28.74-28.75H1143.76z"/>
		</g>
		<g class="st2">
			<path class="st3" d="M1438.41,2192.52c0,9.96-4.05,19.04-10.59,25.57c-6.54,6.54-15.61,10.59-25.57,10.59h-253.56
				c-19.97,0-36.16-16.19-36.16-36.16c0-6.45,1.69-12.54,4.71-17.84c6.23,10.9,17.97,18.28,31.45,18.28h253.56
				c9.96,0,19.04-4.05,25.57-10.59c2.27-2.27,4.27-4.89,5.87-7.69C1436.72,2179.98,1438.41,2186.07,1438.41,2192.52z"/>
			<path class="st1" d="M1402.25,2231.19h-253.56c-21.32,0-38.66-17.34-38.66-38.66c0-6.71,1.74-13.31,5.04-19.08
				c0.44-0.78,1.27-1.26,2.17-1.26l0,0c0.9,0,1.73,0.48,2.17,1.26c6,10.5,17.21,17.02,29.27,17.02h253.56c9,0,17.45-3.5,23.81-9.85
				c2.09-2.08,3.98-4.57,5.47-7.17c0.89-1.56,3.45-1.56,4.34,0c3.3,5.77,5.04,12.37,5.04,19.08c0,10.34-4.02,20.05-11.32,27.34
				C1422.3,2227.17,1412.59,2231.19,1402.25,2231.19z M1117.56,2179.73c-1.66,4.03-2.52,8.38-2.52,12.79
				c0,18.56,15.1,33.66,33.66,33.66h253.56c9,0,17.45-3.5,23.81-9.85s9.85-14.81,9.85-23.81c0-4.41-0.86-8.76-2.52-12.79
				c-1.16,1.57-2.43,3.05-3.8,4.41c-7.29,7.3-17.01,11.32-27.34,11.32h-253.56C1136.36,2195.47,1124.8,2189.54,1117.56,2179.73z"/>
		</g>
		<g>
			<path class="st1" d="M1407.18,2244.06h-263.42c-25.7,0-46.62-20.91-46.62-46.62v-9.82c0-25.71,20.91-46.62,46.62-46.62h263.42
				c25.7,0,46.62,20.91,46.62,46.62v9.82C1453.79,2223.14,1432.88,2244.06,1407.18,2244.06z M1143.76,2171.75
				c-8.75,0-15.87,7.12-15.87,15.87v9.82c0,8.75,7.12,15.86,15.87,15.86h263.42c8.75,0,15.87-7.11,15.87-15.86v-9.82
				c0-8.75-7.12-15.87-15.87-15.87H1143.76z"/>
		</g>
		<g>
			<path class="st4" d="M1246.92,1604.47c0,0,157.18-19.59,204.58,96.89c42.96,105.57-73.98,275.16-73.98,275.16
				s133.53,41.55,115.21,119.65c-18.95,80.78-231.56,55.92-294.06,60.19c-99.08,6.77-79.14-102.25-63.63-171.07
				c16.52-73.27,45.58-188.49-38.63-231.33L1246.92,1604.47z"/>
			<path class="st1" d="M1301.37,2159.33c-16.85,0-33.19-0.3-48.25-0.58c-22.3-0.41-41.56-0.77-54.28,0.11
				c-27.47,1.86-48.03-4.98-61.21-20.35c-31.43-36.66-13.6-115.76-5.03-153.77l1.54-6.8c16.35-72.11,41.05-181.09-38.86-221.75
				c-1.23-0.62-1.72-2.13-1.1-3.36c0.63-1.24,2.13-1.73,3.36-1.09c83.38,42.42,58.16,153.68,41.47,227.31l-1.54,6.8
				c-8.39,37.22-25.84,114.66,3.95,149.41c12.1,14.11,31.32,20.39,57.08,18.61c12.94-0.88,32.29-0.53,54.71-0.12
				c83.22,1.53,222.49,4.08,237.08-58.15c17.58-74.93-112.21-116.27-113.52-116.68c-0.76-0.24-1.36-0.82-1.62-1.57
				c-0.26-0.75-0.15-1.58,0.31-2.24c1.16-1.68,115.68-169.69,73.73-272.8c-46.12-113.34-200.4-95.54-201.95-95.36
				c-1.34,0.18-2.62-0.81-2.79-2.17c-0.17-1.37,0.8-2.62,2.17-2.79c1.6-0.2,159.64-18.47,207.2,98.43
				c40.48,99.49-56.92,251.63-72.37,274.76c20.86,7.06,130.97,48.02,113.72,121.56C1482.23,2151.87,1385.47,2159.33,1301.37,2159.33
				z"/>
		</g>
		<g class="st2">
			<path class="st3" d="M1491.52,2100.37c-25.17,75.74-231.46,51.82-292.84,56c-99.09,6.76-79.17-102.25-63.65-171.06
				c16.5-73.3,45.59-188.49-38.65-231.32l150.55-149.49c0,0,54.53-68.21,78.61,1.91s-80.11,149.98-80.11,149.98
				c39.6,61.27-1.93,105.1-18.47,178.35c-15.48,68.81-35.4,177.82,63.65,171.06C1328.2,2103.21,1420.13,2111.22,1491.52,2100.37z"/>
			<path class="st1" d="M1301.27,2159.33c-16.85,0-33.16-0.3-48.16-0.58c-22.29-0.41-41.54-0.77-54.26,0.1
				c-27.43,1.87-48.05-4.98-61.24-20.36c-27.7-32.32-18.08-95.85-5.02-153.75l1.57-6.93c16.32-72.08,40.98-181-38.91-221.62
				c-0.72-0.36-1.21-1.04-1.34-1.84c-0.12-0.79,0.14-1.6,0.71-2.16l150.56-149.49c0.94-1.21,27.84-34.51,53.41-30.09
				c12.71,2.21,22.58,13.29,29.33,32.95c22.91,66.7-64.85,139.98-79.15,151.37c27.17,43.66,13.95,79.61-1.32,121.15
				c-6.52,17.74-13.27,36.08-18.03,57.18c-8.37,37.22-25.8,114.68,3.99,149.41c12.09,14.1,31.32,20.38,57.05,18.6
				c12.94-0.89,32.31-0.53,54.74-0.12c44.18,0.82,99.16,1.83,145.96-5.29c0.86-0.13,1.73,0.2,2.29,0.86
				c0.56,0.66,0.73,1.57,0.46,2.4C1476.9,2152.27,1382.9,2159.33,1301.27,2159.33z M1219.81,2153.32c9.86,0,21.17,0.21,33.39,0.43
				c79.17,1.46,210.46,3.89,234.44-50.3c-46.25,6.5-99.51,5.52-142.56,4.73c-22.31-0.41-41.58-0.76-54.3,0.11
				c-27.43,1.87-48.01-4.98-61.19-20.34c-31.42-36.64-13.62-115.75-5.07-153.76c4.84-21.43,11.64-39.92,18.22-57.81
				c15.65-42.57,28.02-76.2,0.59-118.64c-0.71-1.09-0.45-2.55,0.58-3.34c1.03-0.79,102.49-79.58,79.27-147.19
				c-6.12-17.8-14.68-27.77-25.45-29.65c-22.57-3.87-48.59,28.17-48.85,28.5l-148.33,147.3c79.69,43.53,54.93,152.9,38.48,225.57
				l-1.56,6.92c-8.39,37.21-25.86,114.62,3.94,149.39c12.1,14.12,31.31,20.41,57.1,18.62
				C1204.39,2153.47,1211.6,2153.32,1219.81,2153.32z"/>
		</g>
		<g>
			<path class="st1" d="M1300.78,2172.2c-16.72,0-32.91-0.3-47.9-0.57c-22-0.41-41-0.75-53.17,0.08
				c-31.7,2.19-55.9-6.18-71.86-24.81c-31.31-36.53-22.26-100.88-7.81-164.98l1.54-6.82c16.39-72.29,38.83-171.31-32.15-207.43
				c-7.57-3.85-10.58-13.11-6.73-20.67c3.85-7.57,13.1-10.58,20.67-6.73c92.32,46.96,65.76,164.11,48.19,241.63l-1.53,6.78
				c-7.31,32.43-24.42,108.35,1.16,138.21c9.43,11.01,24.6,15.64,46.42,14.15c13.5-0.92,33.12-0.56,55.83-0.15
				c74.12,1.36,212.09,3.89,224.31-48.22c14.6-62.23-103.63-101.08-104.83-101.46c-4.66-1.46-8.35-5.05-9.95-9.66
				c-1.59-4.61-0.9-9.72,1.87-13.74c1.12-1.63,111.71-164.03,72.4-260.65c-42.46-104.36-186.98-87.62-188.43-87.44
				c-8.42,1.08-16.11-4.93-17.16-13.35c-1.05-8.42,4.93-16.1,13.35-17.15c6.89-0.87,169.47-19.59,220.72,106.35
				c37.87,93.08-36,226.6-64.86,273.15c39.12,15.85,123.69,59.03,106.82,130.96C1492.64,2163.86,1389.35,2172.2,1300.78,2172.2z"/>
		</g>
		<g>
			<path class="st4" d="M1293.18,1084.16c0,0,223.1,205.08,444.16,257.65c51.82,12.32,110.41,58.93,14.22,108.13
				c-96.19,49.21-294.13,88.89-415.06-36.35C1215.57,1288.34,1293.18,1084.16,1293.18,1084.16z"/>
			<path class="st1" d="M1551.81,1499.65c-77.45,0-157.12-22.21-217.11-84.33c-120.64-124.94-44.64-330-43.86-332.05
				c0.3-0.77,0.95-1.35,1.76-1.55c0.81-0.19,1.66,0.03,2.27,0.59c2.23,2.05,225.17,205.24,443.05,257.06
				c30.31,7.21,64.33,26.63,67.41,52.23c2.53,21.03-15.18,41.4-52.63,60.56C1701.73,1478.24,1627.84,1499.65,1551.81,1499.65z
				 M1294.28,1088.52c-9.36,27.38-65.84,209.56,44.02,323.33c116.98,121.16,310.55,87.83,412.12,35.87
				c34.89-17.85,52.16-37.05,49.94-55.51c-2.8-23.23-34.93-41.15-63.6-47.96C1530.88,1295.28,1320.84,1112.23,1294.28,1088.52z"/>
		</g>
		<g class="st2">
			<path class="st1" d="M1779.02,1432.95c-7.21,5.6-16.28,11.3-27.44,16.99c-96.2,49.19-294.13,88.91-415.06-36.34
				c-120.93-125.25-43.32-329.44-43.32-329.44s36.47,33.54,94.56,76.95c-2.71,64.89,9.87,142.46,67.47,202.15
				C1545.07,1456.3,1677.48,1458.3,1779.02,1432.95z"/>
		</g>
		<g>
			<path class="st1" d="M1551.8,1512.41c-80.56,0-163.64-23.19-226.36-88.14c-126.26-130.76-49.95-336.86-46.64-345.57
				c1.81-4.77,5.87-8.33,10.83-9.5c4.96-1.17,10.19,0.19,13.94,3.64c2.2,2.02,222.8,203,437.32,254.01
				c35.67,8.48,73.37,31.32,77.21,63.22c3.24,26.94-16.79,51.68-59.55,73.56C1706.14,1490.44,1630.17,1512.41,1551.8,1512.41z
				 M1300.73,1111.35c-15.14,54.28-43.47,198.04,46.83,291.56c112.12,116.12,298.85,83.56,397,33.35
				c28.82-14.75,44.5-30.24,43.02-42.51c-1.68-13.96-25.31-30.2-53.8-36.98C1545.09,1311.89,1358.57,1161.18,1300.73,1111.35z"/>
		</g>
		<g>
			<g>
				<g>
					<path class="st1" d="M1911.82,2731.08c-8.49,0-15.37-6.88-15.37-15.38v-666.43c0-8.49,6.88-15.38,15.37-15.38
						s15.37,6.88,15.37,15.38v666.43C1927.19,2724.2,1920.31,2731.08,1911.82,2731.08z"/>
				</g>
				<g>
					<path class="st1" d="M2245.04,2397.87H1578.6c-8.49,0-15.37-6.88-15.37-15.38s6.88-15.38,15.37-15.38h666.43
						c8.49,0,15.37,6.88,15.37,15.38S2253.53,2397.87,2245.04,2397.87z"/>
				</g>
				<g>
					<path class="st1" d="M1676.2,2633.49c-3.94,0-7.87-1.5-10.87-4.51c-6-6-6-15.74,0-21.74L2136.57,2136
						c6.01-6.01,15.74-6.01,21.74,0c6,6,6,15.74,0,21.74l-471.24,471.24C1684.07,2631.99,1680.14,2633.49,1676.2,2633.49z"/>
				</g>
				<g>
					<path class="st1" d="M2147.44,2633.49c-3.94,0-7.87-1.5-10.87-4.51l-471.24-471.24c-6-6-6-15.74,0-21.74
						c6.01-6.01,15.74-6.01,21.74,0l471.24,471.24c6,6,6,15.74,0,21.74C2155.31,2631.99,2151.38,2633.49,2147.44,2633.49z"/>
				</g>
			</g>
			<g>
				<path class="st0" d="M1911.82,1991.53c-215.92,0-390.95,175.03-390.95,390.95c0,215.92,175.03,390.95,390.95,390.95
					c215.89,0,390.91-175.03,390.91-390.95C2302.73,2166.56,2127.7,1991.53,1911.82,1991.53z M1911.82,2715.71
					c-184.02,0-333.22-149.2-333.22-333.22s149.2-333.23,333.22-333.23s333.22,149.2,333.22,333.23S2095.84,2715.71,1911.82,2715.71
					z"/>
			</g>
			<g class="st2">
				<path class="st1" d="M1911.82,2021.55c-199.36,0-360.94,161.58-360.94,360.94c0,199.32,161.58,360.94,360.94,360.94
					c199.32,0,360.94-161.62,360.94-360.94C2272.75,2183.12,2111.14,2021.55,1911.82,2021.55z M1911.82,2715.71
					c-184.02,0-333.22-149.2-333.22-333.22s149.2-333.23,333.22-333.23s333.22,149.2,333.22,333.23S2095.84,2715.71,1911.82,2715.71
					z"/>
			</g>
			<g>
				<path class="st1" d="M1911.82,1991.53c215.9,0,390.93,175.03,390.93,390.96c0,215.9-175.03,390.93-390.93,390.93
					c-215.93,0-390.96-175.03-390.96-390.93C1520.86,2166.56,1695.89,1991.53,1911.82,1991.53L1911.82,1991.53z M1911.82,2715.71
					c184.01,0,333.22-149.21,333.22-333.22c0-184.04-149.21-333.22-333.22-333.22c-184.04,0-333.22,149.17-333.22,333.22
					C1578.6,2566.5,1727.78,2715.71,1911.82,2715.71L1911.82,2715.71z M1911.82,1960.79c-232.53,0-421.71,189.18-421.71,421.71
					c0,232.51,189.18,421.67,421.71,421.67c232.51,0,421.67-189.16,421.67-421.67C2333.49,2149.96,2144.33,1960.79,1911.82,1960.79
					L1911.82,1960.79z M1911.82,2684.96c-166.78,0-302.47-135.69-302.47-302.47s135.69-302.47,302.47-302.47
					s302.47,135.69,302.47,302.47S2078.6,2684.96,1911.82,2684.96L1911.82,2684.96z"/>
			</g>
		</g>
		<g>
			<g>
				<g>
					<path class="st1" d="M419.83,2731.08c-8.49,0-15.37-6.88-15.37-15.38v-666.43c0-8.49,6.88-15.38,15.37-15.38
						s15.37,6.88,15.37,15.38v666.43C435.21,2724.2,428.33,2731.08,419.83,2731.08z"/>
				</g>
				<g>
					<path class="st1" d="M753.05,2397.87H86.62c-8.49,0-15.37-6.88-15.37-15.38s6.88-15.38,15.37-15.38h666.43
						c8.49,0,15.37,6.88,15.37,15.38S761.54,2397.87,753.05,2397.87z"/>
				</g>
				<g>
					<path class="st1" d="M184.21,2633.49c-3.94,0-7.87-1.5-10.87-4.51c-6-6-6-15.74,0-21.74L644.58,2136
						c6.01-6.01,15.74-6.01,21.74,0c6,6,6,15.74,0,21.74l-471.24,471.24C192.08,2631.99,188.15,2633.49,184.21,2633.49z"/>
				</g>
				<g>
					<path class="st1" d="M655.45,2633.49c-3.94,0-7.87-1.5-10.87-4.51l-471.24-471.24c-6-6-6-15.74,0-21.74
						c6.01-6.01,15.74-6.01,21.74,0l471.24,471.24c6,6,6,15.74,0,21.74C663.32,2631.99,659.39,2633.49,655.45,2633.49z"/>
				</g>
			</g>
			<g>
				<path class="st5" d="M421.71,1991.53c-215.92,0-390.95,175.03-390.95,390.95c0,215.92,175.03,390.95,390.95,390.95
					c215.89,0,390.91-175.03,390.91-390.95C812.62,2166.56,637.59,1991.53,421.71,1991.53z M421.71,2715.71
					c-184.02,0-333.22-149.2-333.22-333.22s149.2-333.23,333.22-333.23s333.22,149.2,333.22,333.23S605.73,2715.71,421.71,2715.71z"
					/>
			</g>
			<g class="st2">
				<path class="st6" d="M421.71,2020.24c-200.09,0-362.24,162.19-362.24,362.24c0,200.05,162.15,362.2,362.24,362.2
					c200.05,0,362.2-162.15,362.2-362.2C783.91,2182.43,621.76,2020.24,421.71,2020.24z M421.71,2715.71
					c-184.02,0-333.22-149.2-333.22-333.22s149.2-333.23,333.22-333.23s333.22,149.2,333.22,333.23S605.73,2715.71,421.71,2715.71z"
					/>
			</g>
			<g>
				<path class="st1" d="M421.71,1991.53c215.9,0,390.93,175.03,390.93,390.96c0,215.9-175.03,390.93-390.93,390.93
					c-215.93,0-390.96-175.03-390.96-390.93C30.75,2166.56,205.78,1991.53,421.71,1991.53L421.71,1991.53z M421.71,2715.71
					c184.01,0,333.22-149.21,333.22-333.22c0-184.04-149.21-333.22-333.22-333.22c-184.04,0-333.22,149.17-333.22,333.22
					C88.49,2566.5,237.67,2715.71,421.71,2715.71L421.71,2715.71z M421.71,1960.79C189.18,1960.79,0,2149.96,0,2382.49
					c0,232.51,189.18,421.67,421.71,421.67c232.51,0,421.67-189.16,421.67-421.67C843.38,2149.96,654.22,1960.79,421.71,1960.79
					L421.71,1960.79z M421.71,2684.96c-166.78,0-302.47-135.69-302.47-302.47s135.69-302.47,302.47-302.47
					s302.47,135.69,302.47,302.47S588.49,2684.96,421.71,2684.96L421.71,2684.96z"/>
			</g>
		</g>
		<g>
			<path class="st7" d="M1940.67,2361.65l-146.25-489.79l-19.58-67.69l-0.08-0.19l-17.79-61.6l-26.36-83.47l-60.4,14.69l22.45,70.52
				l-716.22,19.66l-31.13,0.85l-14.38-44.89l-43.46-137.09l-59.36,19l52.34,164.77l6.32,19.77l-460.76,539.57
				c-4.65,7.02-6.75,14.62-6.75,22.06c0,20.9,16.59,40.28,40.2,40.28h662.49l621.92-466.88l136.95,457.73
				c4.77,16.55,22.06,26.05,38.58,21.28c13.65-3.95,22.52-16.4,22.52-29.93C1941.91,2367.43,1941.48,2364.52,1940.67,2361.65z
				 M521.83,2325.75c-8.99,0-14.38-10-9.42-17.52l398.65-446.02l156.33,463.55H521.83z M1124.19,2298.85L965.1,1826.46l745.38-20.51
				l13.69,47.38L1124.19,2298.85z"/>
		</g>
		<g class="st2">
			<path class="st1" d="M1668.13,1777.75l-704.47,19.61l11.25,33.85l726.66-20.28l5.27,18.41l6.81-5.11l-4.61-16.2
				C1703.82,1789.68,1687,1777.23,1668.13,1777.75z"/>
		</g>
		<g class="st2">
			<path class="st1" d="M1940.69,2376.67l-6.09-20.37c-2.36,1.47-4.94,2.67-7.74,3.47c-16.55,4.76-33.8-4.71-38.61-21.3
				l-126.57-423.04c-5.03-16.82-25.27-23.48-39.31-12.94l-592.98,445.15H466.9c-13.97,0-25.49-6.81-32.56-16.68l-8.36,9.79
				c-4.63,7.03-6.72,14.63-6.72,22.06c0,20.9,16.59,40.3,40.16,40.3h662.53l621.92-466.87l136.94,457.71
				c4.76,16.59,22.06,26.06,38.56,21.3c13.65-3.96,22.51-16.41,22.51-29.93C1941.89,2382.41,1941.49,2379.52,1940.69,2376.67z"/>
		</g>
		<g>
			<path class="st1" d="M887.45,1582.64l43.46,137.09l14.38,44.89l31.13-0.85l716.22-19.66l-22.45-70.52l60.4-14.69l26.36,83.47
				l17.8,61.61l0.08,0.19l19.58,67.69l146.25,489.79c0.82,2.87,1.24,5.78,1.24,8.65c0,13.53-8.88,25.98-22.53,29.93
				c-2.89,0.83-5.8,1.23-8.66,1.23c-13.52,0-25.98-8.86-29.91-22.52l-136.95-457.73l-621.92,466.88H459.45
				c-23.61,0-40.2-19.38-40.2-40.28c0-7.44,2.09-15.04,6.75-22.06l460.76-539.57l-6.32-19.77l-52.34-164.77L887.45,1582.64
				L887.45,1582.64z M1124.19,2298.85l599.98-445.52l-13.68-47.38l-745.38,20.51L1124.19,2298.85L1124.19,2298.85z M521.83,2325.75
				h545.56L911.06,1862.2l-398.65,446.03C507.45,2315.75,512.84,2325.75,521.83,2325.75L521.83,2325.75z M887.45,1551.89
				c-3.15,0-6.31,0.48-9.37,1.46l-59.36,19c-16.15,5.17-25.07,22.43-19.93,38.59l52.34,164.77l1.12,3.52l-449.64,526.55
				c-0.81,0.94-1.56,1.94-2.25,2.98c-7.76,11.71-11.87,25.21-11.87,39.05c0,39.17,31.83,71.03,70.95,71.03h662.49
				c6.66,0,13.13-2.16,18.46-6.16l586.65-440.4l124.27,415.33c7.64,26.26,32.05,44.59,59.41,44.59c5.8,0,11.59-0.82,17.19-2.44
				c26.36-7.64,44.75-32.09,44.75-59.47c0-5.68-0.81-11.42-2.41-17.05c-0.04-0.13-0.08-0.26-0.11-0.39l-146.22-489.68l-19.54-67.55
				c-0.1-0.35-0.21-0.69-0.32-1.03l-17.55-60.76c-0.07-0.24-0.14-0.49-0.22-0.73l-26.36-83.47c-4.12-13.04-16.18-21.49-29.3-21.49
				c-2.41,0-4.85,0.28-7.29,0.88l-60.4,14.69c-8.28,2.01-15.36,7.38-19.54,14.81c-4.18,7.43-5.08,16.26-2.5,24.39l10.05,31.58
				l-675.37,18.54l-8.05,0.22l-7.34-22.91l-43.43-137c-2.47-7.79-7.93-14.27-15.19-18.02
				C897.16,1553.05,892.31,1551.89,887.45,1551.89L887.45,1551.89z M1007.51,1856.05l680.03-18.71l1.16,4.02l-548.88,407.58
				L1007.51,1856.05L1007.51,1856.05z M565.47,2295l333.33-372.94L1024.58,2295H565.47L565.47,2295z"/>
		</g>
		<g>
			<path class="st0" d="M1842.84,1524.6c0.89,26.91-15.04,51.52-39.93,61.76l-20.16,8.26l-35.75,14.69
				c-16.05,6.59-24.35,24.39-19.15,40.9l2.75,8.68l-60.4,14.69l-9.23-29l-0.04-0.04c-2.17-6.82-3.22-13.72-3.22-20.55
				c0-26.83,16.05-51.99,42.06-62.69l56.29-23.15c14.34-5.89,23.65-19.85,23.65-35.32v-1.2c-0.66-20.55-17.56-36.87-38.11-36.87
				h-159.69c-8.61,0-16.4-3.49-22.06-9.15c-5.62-5.62-9.11-13.41-9.11-22.02c0-17.21,13.96-31.17,31.17-31.17h194.58
				c17.37,0,33.19,6.9,44.78,18.14c11.59,11.24,19.04,26.83,19.58,44.2l1.24,38.07L1842.84,1524.6z"/>
		</g>
		<g class="st2">
			<path class="st1" d="M1727.87,1650.22l2.71,8.67l-60.4,14.72l-9.21-29l-0.04-0.04c-2.18-6.85-3.2-13.74-3.2-20.55
				c0-23.04,11.83-44.83,31.58-57.29c-3.6,8.41-5.56,17.57-5.56,26.91c0,6.81,1.02,13.7,3.2,20.55l0.04,0.04v0
				c5.21,16.34,22.17,25.86,38.83,21.81l0.8-0.19C1726,1640.57,1726.36,1645.46,1727.87,1650.22z"/>
		</g>
		<g class="st2">
			<path class="st1" d="M1736.61,1474.79h-159.67c-8.63,0-16.41-3.51-22.06-9.16c-5.65-5.6-9.12-13.43-9.12-22.02
				c0-15.48-3.75-28.29,11.02-30.73v0.36c0,8.63,3.47,16.41,9.12,22.02c5.65,5.65,28.43,9.16,37.06,9.16h159.67
				c20.55,0,37.45,16.32,38.12,36.87v1.2c0,15.48-9.3,29.4-23.66,35.31l-2.89,1.2c0.36-2,0.53-4.05,0.53-6.14v-1.2
				C1774.06,1491.12,1757.16,1474.79,1736.61,1474.79z"/>
		</g>
		<g>
			<path class="st1" d="M1776.5,1402.44c17.37,0,33.19,6.9,44.78,18.14c11.59,11.25,19.04,26.83,19.58,44.2l1.24,38.07l0.74,21.75
				c0.89,26.91-15.04,51.53-39.93,61.76l-20.16,8.26l-35.74,14.69c-16.05,6.59-24.35,24.38-19.15,40.9l2.75,8.68l-60.4,14.69
				l-9.23-29l-0.04-0.04c-2.17-6.82-3.22-13.72-3.22-20.55c0-26.83,16.05-51.99,42.07-62.69l56.29-23.14
				c14.35-5.89,23.65-19.85,23.65-35.32v-1.2c-0.66-20.55-17.56-36.87-38.11-36.87h-159.69c-8.61,0-16.4-3.49-22.06-9.15
				c-5.62-5.62-9.11-13.42-9.11-22.02c0-17.21,13.96-31.17,31.17-31.17H1776.5L1776.5,1402.44z M1776.5,1371.69h-194.58
				c-34.14,0-61.92,27.78-61.92,61.92c0,16.54,6.43,32.08,18.11,43.76c11.72,11.72,27.27,18.16,43.81,18.16h159.69
				c3.84,0,7.08,3.03,7.36,6.81v0.52c0,3.03-1.8,5.73-4.59,6.88l-56.3,23.15c-37.13,15.27-61.12,51.04-61.12,91.13
				c0,10.09,1.57,20.14,4.66,29.87c0.13,0.4,0.26,0.8,0.41,1.19l8.86,27.85c4.14,13,16.18,21.43,29.28,21.43
				c2.41,0,4.85-0.28,7.29-0.88l60.4-14.69c8.28-2.01,15.35-7.37,19.53-14.79c4.18-7.42,5.09-16.25,2.52-24.37l-2.75-8.68
				c-0.39-1.24,0.27-2.66,1.52-3.17l35.76-14.7l20.12-8.24c36.62-15.06,60.32-51.71,59.01-91.23l-0.74-21.77l-1.24-38.03
				c-0.77-24.75-11.04-47.94-28.9-65.27C1824.86,1381.22,1801.35,1371.69,1776.5,1371.69L1776.5,1371.69z"/>
		</g>
		<g class="st2">
			<path class="st3" d="M424.83,1493.44l-19.59,3.02c-0.99-28.7-0.86-56.42-0.12-82.16
				C409.56,1437.77,415.84,1464.87,424.83,1493.44z"/>
			<path class="st1" d="M405.25,1498.96c-0.58,0-1.14-0.2-1.59-0.58c-0.55-0.45-0.88-1.12-0.9-1.84
				c-0.9-26.15-0.94-53.85-0.13-82.32c0.04-1.27,1.03-2.32,2.3-2.42c1.27-0.11,2.41,0.77,2.65,2.03
				c5.17,27.33,11.77,53.87,19.64,78.86c0.22,0.7,0.12,1.46-0.26,2.07c-0.38,0.62-1.02,1.04-1.74,1.15l-19.58,3.02
				C405.5,1498.95,405.38,1498.96,405.25,1498.96z M407.16,1436.7c-0.25,19.53-0.09,38.56,0.5,56.87l13.93-2.14
				C416.14,1473.83,411.31,1455.51,407.16,1436.7z"/>
		</g>
		<g class="st2">
			<path class="st3" d="M405.31,1498.86l-0.8-2.28l0.74-0.12C405.25,1497.26,405.31,1498.06,405.31,1498.86z"/>
			<path class="st1" d="M405.31,1501.37c-1.04,0-2-0.66-2.36-1.67l-0.8-2.28c-0.24-0.7-0.17-1.47,0.21-2.1s1.02-1.07,1.74-1.19
				l0.74-0.12c0.73-0.14,1.47,0.09,2.03,0.56s0.88,1.17,0.88,1.9l0.06,2.4c0,1.22-0.88,2.26-2.08,2.47
				C405.59,1501.36,405.45,1501.37,405.31,1501.37z"/>
		</g>
		<g>
			<path class="st4" d="M415.1,1282.74c-0.25,2.4-0.55,4.99-0.92,7.7C414.3,1287.61,414.61,1285.02,415.1,1282.74z"/>
			<path class="st1" d="M414.18,1292.94c-0.07,0-0.15,0-0.22-0.01c-1.33-0.12-2.33-1.26-2.28-2.6c0.13-2.99,0.46-5.72,0.98-8.12
				c0.28-1.3,1.5-2.16,2.84-1.94c1.31,0.21,2.23,1.4,2.09,2.72c-0.25,2.43-0.56,5.04-0.93,7.78
				C416.49,1292.03,415.42,1292.94,414.18,1292.94z"/>
		</g>
		<g>
			<path class="st4" d="M421.26,1257.74c-2.16,8.19-4.19,16.44-6.04,24.45c2.09-16.63,3.63-26.05,3.63-26.05L421.26,1257.74z"/>
			<path class="st1" d="M415.23,1284.69c-0.14,0-0.29-0.01-0.44-0.04c-1.31-0.23-2.21-1.45-2.04-2.77
				c2.08-16.48,3.63-26.05,3.65-26.15c0.14-0.84,0.69-1.55,1.47-1.89c0.78-0.34,1.67-0.26,2.39,0.21l2.4,1.6
				c0.89,0.59,1.3,1.68,1.03,2.72c-2.13,8.09-4.15,16.29-6.02,24.38C417.4,1283.9,416.37,1284.69,415.23,1284.69z"/>
		</g>
		<g>
			<path class="st4" d="M588.57,1829.45l-44.52-1.21c-157.76-4.29-276.6-145.04-254.38-301.29l57.67-435.88l296.57,82.55
				L588.57,1829.45z"/>
			<path class="st1" d="M588.57,1831.95c-0.02,0-0.04,0-0.07,0l-44.52-1.21c-75.91-2.07-147.54-36.52-196.53-94.55
				c-48.99-58.02-70.95-134.41-60.26-209.59l57.67-435.85c0.1-0.72,0.5-1.36,1.1-1.76c0.6-0.4,1.35-0.52,2.05-0.32l296.57,82.55
				c1.16,0.32,1.92,1.42,1.82,2.62l-55.34,655.83C590.96,1830.96,589.87,1831.95,588.57,1831.95z M349.45,1094.25l-57.3,433.02
				c-10.49,73.79,11.06,148.76,59.13,205.69c48.07,56.93,118.36,90.75,192.84,92.77l42.16,1.15l54.97-651.41L349.45,1094.25z"/>
		</g>
		<g class="st2">
			<path class="st1" d="M643.92,1173.6l-55.33,655.86l-44.52-1.2c-157.8-4.31-276.6-145.04-254.41-301.29l0.18-1.47
				c42.92,80.99,126.94,138.06,226.52,140.77l44.52,1.2l42.65-505.12L643.92,1173.6z"/>
		</g>
		<g>
			<path class="st1" d="M588.58,1844.83c-0.14,0-0.28,0-0.42-0.01l-44.52-1.21c-79.57-2.16-154.66-38.28-206.01-99.11
				c-51.35-60.82-74.38-140.9-63.17-219.71l57.65-435.73c0.59-4.41,3.05-8.36,6.77-10.81c3.71-2.45,8.31-3.18,12.6-1.98
				l296.57,82.55c7.11,1.98,11.82,8.74,11.2,16.1l-55.34,655.83C603.22,1838.72,596.54,1844.83,588.58,1844.83z M360.27,1110.63
				l-55.35,418.34c-10,70.29,10.5,141.56,56.2,195.7c45.7,54.13,112.53,86.28,183.35,88.21l30,0.82l53.05-628.67L360.27,1110.63z"/>
		</g>
		<g>
			<path class="st4" d="M1151.05,1780.89c0,0,60.18,113.24,17.84,308.05c-30.38,139.75-148.95,244.4-148.95,244.4
				s130.94,19.75,122.93,118.62c-8.67,106.66-396.69,85.35-422.31,53.51c-89.31-111.24,169.23-426.62-4.31-546.18
				c-90.96-62.67-166.34-121.64-202.86-217.27c-21.79-57.15-33.85-121.33-39.85-183.82c-4.09-41.99-5.47-83.26-5.25-121.11
				c0.44-102.96,12.32-180.93,12.32-180.93s-101.27-7.65-277.31-217.31c-72.27-86.11-152.6-140.1-163.67-196.99
				C7.41,675.95,191.73,608.52,349,711.35c13.97,9.12,43.81-75.88,92.6-54.48c55.91,24.51-18.64,118.04-2.8,136.46
				c63.29,73.57,124.45,127.07,180.8,165.9c178.26,122.85,308.76,99.01,308.76,99.01l408.21,92.16c1.73,13.57,3.29,28.64,4.63,44.17
				c5.74,66.4,8.01,141.39,8.01,141.39l10.01,139.7C1357.91,1638.3,1151.05,1780.89,1151.05,1780.89z"/>
			<path class="st1" d="M901.68,2533.98c-89.36,0-171.46-12.51-183.07-26.95c-39.58-49.3-12.55-136.94,16.06-229.73
				c37.8-122.57,76.89-249.32-19.85-315.96c-89.37-61.57-166.38-120.5-203.78-218.44c-19.76-51.83-33.22-113.9-40-184.48
				c-3.74-38.35-5.51-79.18-5.26-121.36c0.4-91.7,9.97-164.47,11.98-178.75c-17.35-2.67-115.1-25.77-276.39-217.88
				c-25.87-30.82-53.15-57.89-77.22-81.77c-44.56-44.21-79.75-79.13-86.99-116.34c-12.64-65.12,7.81-121.09,56.1-153.54
				c66.6-44.76,169.93-36.53,257.11,20.47c3.13,2.02,11.16-8.1,18.23-17.05c16.37-20.73,41.09-52.05,74-37.63
				c37.3,16.35,20.5,60.15,7,95.34c-7.11,18.54-13.83,36.06-8.92,41.77c57.79,67.18,118.46,122.85,180.32,165.47
				c175.22,120.75,305.6,98.84,306.89,98.61c0.32-0.07,0.67-0.06,1,0.02l408.21,92.16c1.02,0.23,1.79,1.08,1.93,2.12
				c1.69,13.2,3.24,28.1,4.63,44.27c5.68,65.71,7.99,140.78,8.02,141.53l10,139.59c-1.21,154.22-187.22,291.74-207.46,306.24
				c7.62,16.03,56.14,128.14,17.1,307.77c-27.17,124.98-125.66,223.11-146.05,242.33c24.13,4.97,127.27,31.52,120.08,120.36
				c-2.17,26.7-26.63,47.42-72.69,61.58C1025.25,2528.3,961.82,2533.98,901.68,2533.98z M195.27,665.07
				c-36.99,0-71.42,9.18-99.22,27.86c-47.23,31.74-66.39,84.45-53.98,148.44c6.95,35.71,41.66,70.15,85.61,113.75
				c24.14,23.96,51.51,51.11,77.53,82.11c173.02,206.06,274.59,216.35,275.59,216.43c0.69,0.06,1.33,0.4,1.77,0.94
				c0.43,0.54,0.62,1.24,0.51,1.93c-0.12,0.78-11.85,78.99-12.29,180.57c-0.25,42.01,1.52,82.67,5.24,120.85
				c6.74,70.14,20.1,131.77,39.7,183.18c36.88,96.59,113.28,155.01,201.94,216.1c99.76,68.73,58.33,203.04,21.79,321.55
				c-28.22,91.48-54.86,177.9-16.94,225.12c18.38,22.86,235.41,39.88,348.69,5.06c43.91-13.49,67.18-32.74,69.17-57.2
				c7.73-95.38-119.53-115.75-120.82-115.94c-0.96-0.14-1.75-0.83-2.02-1.76c-0.28-0.93,0.01-1.94,0.74-2.58
				c1.18-1.04,118.32-105.75,148.17-243.06c41.63-191.54-17-305.21-17.6-306.34c-0.6-1.12-0.26-2.51,0.79-3.23
				c2.06-1.42,205.81-143.74,207.07-303.21l-10-139.5c-0.03-0.85-2.34-75.79-8-141.36c-1.32-15.4-2.8-29.63-4.39-42.33
				l-406.03-91.66c-9.32,1.43-138.7,18.62-310.1-99.49c-62.21-42.87-123.21-98.83-181.28-166.33c-6.86-7.98-0.29-25.12,8.04-46.82
				c12.74-33.21,28.59-74.54-4.34-88.97c-29.37-12.88-51.74,15.46-68.07,36.15c-10.4,13.18-17.91,22.68-24.89,18.14
				C298.71,681.46,244.7,665.07,195.27,665.07z"/>
		</g>
		<g class="st2">
			<path class="st1" d="M1327.71,1612.77c-7.56,20.55-25.62,35.45-47.19,39.14c-103.63,17.57-296.66,16.23-395.18,14.19
				c-33.58-0.71-60.36-28.15-60.31-61.73c0-15.03-0.18-29.98-0.44-44.66c-89.4,9.43-182.62,8.63-257.74,4.94
				c6.36,28.87,14.81,58,25.75,86.64c36.56,95.63,111.9,154.6,202.86,217.27c173.55,119.55-85,434.94,4.31,546.18
				c18.41,22.86,223.9,40.34,341.36,8.76c1.87,8.63,2.58,18.15,1.73,28.46c-8.67,106.66-396.69,85.35-422.31,53.51
				c-89.31-111.24,169.23-426.62-4.31-546.18c-90.96-62.67-166.34-121.64-202.86-217.27c-21.79-57.15-33.85-121.33-39.85-183.82
				c-0.44-4.54-0.85-9.03-1.25-13.52c0-0.44-0.04-0.89-0.09-1.29c-0.36-4.27-0.71-8.54-0.98-12.81c-0.58-7.96-1.07-15.83-1.42-23.66
				c-0.18-3.11-0.31-6.23-0.44-9.3c-0.27-6.18-0.49-12.32-0.62-18.37c-0.18-6.09-0.31-12.1-0.36-18.06
				c-0.13-8.18-0.13-16.23-0.09-24.11c21.35,3.65,49.5,8.05,82.28,12.05c75.03,9.25,174.13,16.63,270.02,9.21
				c-1.78-30.07-3.83-57.2-5.74-79.79c-3.16-37,26.86-68.36,64-66.8l407.45,17.17c29.09,1.25,53.51,22.59,58.22,51.28
				C1362.67,1491.21,1343.01,1571.36,1327.71,1612.77z"/>
		</g>
		<g class="st2">
			<path class="st1" d="M556.13,1269.72c-5.07,39.5-10.54,104.56-5.56,179.42c-32.78-4-60.93-8.41-82.28-12.05
				c0.44-102.96,12.32-180.93,12.32-180.93s-101.27-7.65-277.31-217.31c-72.27-86.11-152.6-140.1-163.67-196.99
				c-15.79-81.26,20.42-138.9,79.88-164.48c-21.26,44.92-43.81,50.7-33.8,106.34c21.22,117.91,99.13,147.12,176.43,228.78
				c115.15,121.64,213.4,142.91,266.82,161.12C577.39,1190.14,559.15,1245.88,556.13,1269.72z"/>
		</g>
		<g>
			<path class="st1" d="M897.95,2546.81c-89.75,0-173.76-12.29-189.38-31.74c-43.87-54.62-15.87-145.44,13.78-241.6
				c36.42-118.12,74.09-240.27-14.85-301.54c-87.78-60.47-169.78-123.14-208.48-224.45c-68.01-178.05-43.42-418.08-35.59-479.31
				c-36.1-10.31-131.35-52.02-271.91-219.44c-25.5-30.37-52.55-57.21-76.42-80.89c-46.14-45.77-82.58-81.93-90.57-123.05
				c-13.69-70.44,8.74-131.19,61.52-166.67c69.06-46.42,174.43-39.81,264.43,15.96c2.48-2.83,5.52-6.69,7.99-9.82
				c17.68-22.4,47.27-59.89,89.27-41.47c48.55,21.28,26.85,77.89,13.88,111.71c-3.82,9.97-9.46,24.68-9.73,30.47
				c132.28,153.15,253.95,215.2,332.84,240.28c85.41,27.15,140.34,17.97,140.89,17.88c2.01-0.35,4.11-0.31,6.1,0.13l408.23,92.16
				c6.3,1.42,11.04,6.63,11.86,13.03c9.05,70.13,12.48,178.69,12.72,186.75l9.99,139.38c0.03,0.41,0.04,0.81,0.04,1.22
				c-1.17,148.94-160.92,277.9-204.32,310.21c14.53,34.99,49.26,142.43,13.66,306.22c-23.54,108.3-96.76,194.94-133.09,232.53
				c50.32,15.36,113.4,54.15,107.36,128.44c-2.64,32.51-30.18,57.03-81.86,72.89C1029.22,2540.53,962.11,2546.81,897.95,2546.81z
				 M732.24,2495.43c9.27,7.22,66.3,18.5,146.75,20.32c87.74,2.02,163.38-7.48,207.57-25.96c25.96-10.86,39.75-24.01,40.97-39.1
				c6.77-83.25-105.15-101.41-109.91-102.14c-5.89-0.91-10.74-5.14-12.42-10.86s0.09-11.9,4.56-15.85
				c1.15-1.02,115.21-103.18,144.12-236.16c40.46-186.18-15.84-296.5-16.42-297.59c-3.61-6.88-1.53-15.42,4.86-19.84
				c2-1.38,199.81-139.68,201.51-292.1l-9.97-139.08c-0.01-0.21-0.03-0.43-0.03-0.64c-0.03-1.08-3.15-103.34-11.2-173.41
				l-394.81-89.13c-30.38,4.23-248.45,22.55-500.66-270.54c-11.89-13.82-4.1-34.14,5.76-59.86c16.37-42.71,20.92-64.46,2.49-72.55
				c-18.77-8.22-34.36,8.99-52.8,32.36c-11.81,14.96-25.19,31.92-42.01,20.93c-81.27-53.14-176.67-61.41-237.39-20.6
				c-42.65,28.67-59.87,76.71-48.49,135.29c6.18,31.83,41.34,66.71,82.04,107.09c24.34,24.14,51.92,51.5,78.31,82.94
				c169.9,202.38,265.74,211.82,266.69,211.89c4.27,0.32,8.2,2.41,10.87,5.76c2.66,3.35,3.81,7.65,3.17,11.88
				c-0.43,2.82-42.01,284.4,31.95,478.02c35.6,93.19,110.37,150.29,197.2,210.1c107.53,74.08,64.64,213.19,26.79,335.92
				C724.65,2370.39,699.06,2453.39,732.24,2495.43z"/>
		</g>
		<g>
			<path class="st4" d="M1654.67,909.46l-34.38-8.25c-4.68-1.12-7.57-5.83-6.44-10.51l80.71-336.39c1.12-4.68,5.83-7.57,10.51-6.44
				l34.38,8.25c49.13,11.79,79.4,61.17,67.61,110.3l-42.09,175.44C1753.18,890.98,1703.8,921.25,1654.67,909.46z"/>
			<path class="st1" d="M1676.02,914.5c-7.24,0-14.58-0.84-21.93-2.6l0,0l-34.38-8.25c-2.91-0.7-5.38-2.49-6.95-5.05
				c-1.56-2.56-2.04-5.57-1.35-8.48l80.71-336.39c0.7-2.92,2.49-5.38,5.05-6.95c2.56-1.57,5.57-2.04,8.48-1.34l34.38,8.25
				c50.39,12.09,81.55,62.92,69.46,113.31l-42.09,175.44C1757.07,885.48,1718.46,914.5,1676.02,914.5z M1655.26,907.03
				c47.71,11.45,95.83-18.06,107.28-65.77l42.09-175.44c11.45-47.71-18.05-95.83-65.76-107.28l-34.38-8.25
				c-1.62-0.4-3.28-0.12-4.7,0.74c-1.42,0.87-2.41,2.24-2.8,3.85l-80.71,336.39c-0.8,3.33,1.26,6.7,4.6,7.5L1655.26,907.03z"/>
		</g>
		<g class="st2">
			<path class="st1" d="M1785.18,757.63l-12.67,52.85c-15.95,66.44-82.75,107.4-149.23,91.48c-6.33-1.51-10.23-7.91-8.71-14.25
				l21.04-87.84c0.82,4.43,4.16,8.16,8.8,9.31l7.84,1.86C1704.77,823.65,1757.54,800.7,1785.18,757.63z"/>
		</g>
		<g>
			<path class="st1" d="M1676.02,927.37c-8.23,0-16.58-0.96-24.93-2.96l0,0l-34.38-8.25c-12.92-3.1-20.91-16.13-17.81-29.05
				l80.71-336.39c1.5-6.26,5.35-11.56,10.84-14.92c5.49-3.36,11.96-4.38,18.22-2.89l34.37,8.25
				c57.29,13.75,92.72,71.54,78.97,128.83l-42.09,175.44C1768.18,894.38,1724.28,927.37,1676.02,927.37z M1658.26,894.52
				c40.8,9.79,81.97-15.44,91.76-56.25l42.09-175.44c9.79-40.81-15.44-81.97-56.25-91.76l-27.91-6.69l-77.6,323.45L1658.26,894.52z"
				/>
		</g>
		<g>
			<path class="st4" d="M586.08,279.4l34.38,8.25c4.68,1.12,7.57,5.83,6.44,10.51L546.2,634.55c-1.12,4.68-5.83,7.57-10.51,6.44
				l-34.38-8.25c-49.13-11.79-79.4-61.17-67.61-110.3l42.09-175.44C487.57,297.88,536.95,267.61,586.08,279.4z"/>
			<path class="st1" d="M537.74,643.74c-0.88,0-1.77-0.1-2.64-0.31l-34.38-8.25c-50.39-12.09-81.55-62.92-69.46-113.31l42.09-175.44
				c12.09-50.39,62.92-81.55,113.31-69.46l34.38,8.25c6.02,1.45,9.74,7.51,8.29,13.53l-80.71,336.39c-0.7,2.92-2.5,5.38-5.05,6.95
				C541.79,643.18,539.78,643.74,537.74,643.74z M564.74,279.36c-40.19,0-76.74,27.47-86.52,68.23l-42.09,175.44
				c-5.54,23.11-1.76,47,10.66,67.26c12.42,20.26,31.99,34.48,55.1,40.02l34.38,8.25c1.61,0.39,3.28,0.12,4.7-0.74
				c1.42-0.87,2.41-2.24,2.8-3.85l80.71-336.39c0.8-3.33-1.26-6.7-4.6-7.5l-34.38-8.25C578.55,280.16,571.59,279.36,564.74,279.36z"
				/>
		</g>
		<g class="st2">
			<path class="st1" d="M568.93,539.9l-22,91.66c-1.51,6.33-7.91,10.23-14.25,8.72c-34.88-8.38-62.77-30.77-79.06-59.78
				c-14.71-26.2-19.96-57.85-12.39-89.4l11.39-47.48c8.87,46.18,43.94,85.28,92.67,96.98l12.06,2.89
				C561.75,544.53,566.08,543,568.93,539.9z"/>
		</g>
		<g>
			<path class="st1" d="M537.76,656.62c-1.89,0-3.79-0.22-5.68-0.68l-34.37-8.25c-57.29-13.75-92.72-71.54-78.97-128.83
				l42.09-175.44c13.75-57.29,71.56-92.71,128.83-78.97l34.38,8.25c12.92,3.11,20.91,16.14,17.81,29.05l-80.71,336.39
				c-1.5,6.26-5.35,11.56-10.84,14.92C546.47,655.41,542.15,656.62,537.76,656.62z M564.74,292.24c-34.38,0-65.64,23.5-74.01,58.36
				l-42.09,175.44c-9.79,40.81,15.44,81.97,56.25,91.76l27.91,6.69l77.6-323.45l-27.91-6.7
				C576.55,292.92,570.6,292.24,564.74,292.24z M616.86,302.59h0.05H616.86z"/>
		</g>
		<g class="st2">
			<path class="st1" d="M1341.19,1194.55c-122.4,51.82-263.21,61.87-399.85,18.64c-140.19-44.34-251.61-137.08-321.75-253.96
				c178.26,122.85,308.76,99.01,308.76,99.01l408.21,92.16C1338.3,1163.95,1339.85,1179.03,1341.19,1194.55z"/>
		</g>
		<g>
			<circle class="st4" cx="1120.45" cy="594.45" r="579.02"/>
			<path class="st1" d="M1121.11,1176.25c-58.98,0-118.25-9.07-176.1-27.38c-305.71-96.74-475.73-424.15-378.99-729.86
				C662.76,113.3,990.17-56.7,1295.88,40.02c148.09,46.86,269.07,148.58,340.65,286.44c71.58,137.85,85.2,295.33,38.33,443.42
				l-2.38-0.75l2.38,0.75c-46.86,148.09-148.58,269.07-286.44,340.65C1304.43,1154.16,1213.12,1176.25,1121.11,1176.25z
				 M1120.81,17.87c-244.74,0-472.36,157.2-550.02,402.65c-95.9,303.08,72.65,627.68,375.73,723.59
				c146.81,46.46,302.94,32.96,439.61-38.01c136.67-70.97,237.52-190.91,283.98-337.73s32.96-302.94-38.01-439.61
				c-70.97-136.67-190.91-237.52-337.73-283.98C1236.73,26.55,1178.29,17.87,1120.81,17.87z"/>
		</g>
		<g class="st2">
			<path class="st1" d="M1691.38,691.04c-4.38,26.07-10.67,52.15-18.88,78.1c-96.51,304.86-421.86,473.81-726.75,377.37
				C640.89,1050,471.94,724.65,568.38,419.76c2.77-8.77,5.75-17.48,8.9-25.99c-47.82,280.51,117.3,560.36,396.25,648.64
				C1269.65,1136.09,1585.02,979.43,1691.38,691.04z"/>
		</g>
		<g>
			<path class="st1" d="M1121.13,1189.13c-60.29,0-120.87-9.28-180-27.99c-312.48-98.88-486.26-433.54-387.38-746.02
				c98.88-312.48,433.54-486.25,746.02-387.38c151.37,47.9,275.03,151.88,348.2,292.78c73.16,140.9,87.07,301.88,39.18,453.24l0,0
				c-47.9,151.37-151.88,275.03-292.78,348.2C1308.5,1166.55,1215.18,1189.13,1121.13,1189.13z M1120.8,30.75
				c-239.27,0-461.81,153.7-537.74,393.66c-93.76,296.31,71.03,613.66,367.34,707.43c143.54,45.42,296.18,32.22,429.79-37.16
				c133.62-69.38,232.22-186.64,277.63-330.19l0,0c45.42-143.54,32.23-296.18-37.16-429.79
				c-69.38-133.62-186.64-232.22-330.19-277.63C1234.13,39.23,1177,30.75,1120.8,30.75z"/>
		</g>
		<g>
			<path class="st1" d="M1666.24,782.75c-32.55,108.53-97.99,198.73-183.25,264.02c-63.91,48.95-282.41,102.65-512.32,35.95
				c-213.18-61.85-372.63-233.21-399.05-309.26c-35.25-101.44-40.27-212.76-7.72-321.29c86.13-287.2,368.59-332.27,673-240.98
				S1752.36,495.54,1666.24,782.75z"/>
		</g>
		<g class="st2">
			<path class="st8" d="M1645.75,838.99c-36.02,83.68-92.71,154.1-162.76,207.78c-63.92,48.94-282.42,102.64-512.32,35.95
				c-213.19-61.84-372.62-233.19-399.07-309.26c-29.35-84.43-37.73-175.68-20.94-266.49c8.22,28.91,20.4,57.67,36.18,85.84
				c34.63,61.88,217.95,210.21,448.07,277.66c248.2,72.71,473.63,50.24,536.6,17.64C1598.87,873.96,1623.75,857.55,1645.75,838.99z"
				/>
		</g>
		<g>
			<path class="st1" d="M1687.97,520.94c-0.37-0.56-0.72-1.24-0.94-1.87c-52.64-154.61-208.54-277.81-438.99-346.93
				c-234.83-70.42-435.21-51.42-564.24,53.49c-0.19,0.15-0.38,0.3-0.59,0.43c-3.53,2.35-8.34,1.43-10.7-2.1
				c-2.29-3.44-1.49-8.03,1.82-10.44c133.11-108.06,338.41-127.99,578.13-56.1c235.34,70.58,394.84,197.26,449.13,356.7l-7.22,2.56
				L1687.97,520.94z"/>
		</g>
		<g class="st9">
			<path class="st4" d="M628.13,609.65c0,0-25.66-258.94,125.5-328.49s339.52-29.9,332.6-18.73c0,0-219.14,7.03-335.14,154.95
				C661.64,531.44,628.13,609.65,628.13,609.65z"/>
			<path class="st1" d="M628.13,612.15c-0.12,0-0.25-0.01-0.38-0.03c-1.13-0.17-1.99-1.09-2.11-2.22
				c-0.26-2.61-24.09-261.51,126.94-331.01c143.81-66.18,321.58-35.32,335.11-20c1.35,1.52,1.59,3.34,0.65,4.85
				c-0.44,0.71-1.21,1.15-2.04,1.18c-2.18,0.07-219.33,8.72-333.25,154c-88.18,112.45-122.3,190.94-122.63,191.71
				C630.03,611.56,629.12,612.15,628.13,612.15z M955.46,243.7c-60.84,0-134.49,9.22-200.79,39.73
				c-131.46,60.49-127.42,269.15-124.73,316.42c11.44-23.62,47.6-92.73,119.18-184.01c105.72-134.81,298.8-153.41,332.09-155.63
				C1068.78,253.81,1019.13,243.7,955.46,243.7z"/>
		</g>
		<g class="st9">
			
				<ellipse transform="matrix(0.0892 -0.996 0.996 0.0892 737.8032 2208.5935)" class="st4" cx="1576.49" cy="700.89" rx="86" ry="62.32"/>
			<path class="st1" d="M1572.88,789.23c-1.42,0-2.85-0.06-4.28-0.19c-17.4-1.56-32.87-12.29-43.57-30.23
				c-10.54-17.68-15.2-40.3-13.1-63.7s10.69-44.84,24.21-60.36c13.71-15.75,30.88-23.55,48.24-22.01
				c17.4,1.56,32.87,12.29,43.57,30.23c10.54,17.68,15.2,40.3,13.1,63.7C1636.87,753.32,1606.77,789.23,1572.88,789.23z
				 M1580.05,617.55c-14.43,0-28.55,7.17-40.14,20.48c-12.83,14.73-21,35.16-23,57.52l0,0c-2,22.36,2.41,43.92,12.41,60.7
				c9.85,16.52,23.96,26.4,39.72,27.81c32.87,2.96,62.92-31.97,67.03-77.83c2-22.36-2.41-43.92-12.41-60.69
				c-9.85-16.52-23.96-26.4-39.72-27.81C1582.64,617.6,1581.34,617.55,1580.05,617.55z M1514.42,695.33h0.05H1514.42z"/>
		</g>
		<g class="st9">
			
				<ellipse transform="matrix(0.2259 -0.9741 0.9741 0.2259 318.5539 2155.7332)" class="st4" cx="1515.76" cy="877.42" rx="39.47" ry="33.87"/>
			<path class="st1" d="M1513.46,919.13c-2.38,0-4.79-0.27-7.18-0.82c-9.54-2.21-17.48-8.59-22.37-17.95
				c-4.82-9.24-6.09-20.3-3.58-31.15l0,0c2.52-10.85,8.53-20.23,16.93-26.4c8.51-6.25,18.46-8.48,27.99-6.27
				c19.54,4.53,31.18,26.56,25.95,49.1C1546.61,905.42,1530.53,919.13,1513.46,919.13z M1485.2,870.33L1485.2,870.33
				c-2.25,9.69-1.13,19.53,3.14,27.71c4.21,8.05,10.98,13.52,19.07,15.4c16.87,3.92,34.31-9.07,38.92-28.93
				c4.6-19.86-5.36-39.2-22.21-43.11c-8.09-1.87-16.58,0.05-23.9,5.43C1492.78,852.29,1487.45,860.64,1485.2,870.33z"/>
		</g>
		<g>
			<path class="st4" d="M923.85,1418.87l7.77,75.01c0,0-108.04,10.59-109.45,7.06c-1.41-3.53-11.3-76.26-9.18-76.26
				S923.85,1418.87,923.85,1418.87z"/>
			<path class="st1" d="M831.25,1503.98c-10.56,0-11.02-1.17-11.4-2.12c-0.23-0.58-12.07-74.04-9.03-78.53
				c0.46-0.69,1.34-1.17,2.17-1.17c2.1-0.02,73.35-3.81,110.73-5.8c1.27-0.19,2.48,0.91,2.62,2.24l7.77,75.01
				c0.07,0.66-0.13,1.32-0.55,1.84c-0.42,0.51-1.03,0.84-1.69,0.91C871.65,1502.26,844.04,1503.98,831.25,1503.98z M824.25,1499.02
				c9.02,1.16,67.04-3.74,104.63-7.39l-7.26-70.14c-17,0.91-92.47,4.93-106.43,5.59C815.39,1437.61,822.34,1490.2,824.25,1499.02z"
				/>
		</g>
		<g>
			<path class="st0" d="M1008.6,2584.99H745.18c-17.25,0-31.24-13.99-31.24-31.24v-9.82c0-17.25,13.99-31.24,31.24-31.24h263.42
				c17.25,0,31.24,13.99,31.24,31.24v9.82C1039.84,2571,1025.86,2584.99,1008.6,2584.99z"/>
			<path class="st1" d="M1008.6,2587.49H745.18c-18.61,0-33.74-15.14-33.74-33.75v-9.82c0-18.6,15.14-33.74,33.74-33.74h263.42
				c18.61,0,33.74,15.14,33.74,33.74v9.82C1042.34,2572.35,1027.21,2587.49,1008.6,2587.49z M745.18,2515.18
				c-15.85,0-28.74,12.89-28.74,28.74v9.82c0,15.85,12.89,28.75,28.74,28.75h263.42c15.85,0,28.74-12.9,28.74-28.75v-9.82
				c0-15.85-12.89-28.74-28.74-28.74H745.18z"/>
		</g>
		<g class="st2">
			<path class="st3" d="M1039.86,2548.83c0,10.01-4.05,19.04-10.59,25.57c-6.54,6.54-15.57,10.59-25.57,10.59H750.09
				c-19.97,0-36.16-16.19-36.16-36.16c0-6.58,1.73-12.76,4.85-18.06c6.23,10.81,17.92,18.06,31.31,18.06h253.61
				c10.01,0,19.04-4.05,25.57-10.59c2.22-2.22,4.18-4.76,5.74-7.47C1038.12,2536.06,1039.86,2542.25,1039.86,2548.83z"/>
			<path class="st1" d="M1003.7,2587.49H750.09c-21.32,0-38.66-17.34-38.66-38.66c0-6.87,1.8-13.54,5.19-19.33
				c0.45-0.77,1.35-1.41,2.17-1.23c0.89,0,1.71,0.48,2.15,1.25c5.97,10.37,17.14,16.81,29.15,16.81h253.61c9,0,17.45-3.5,23.81-9.85
				c2.1-2.1,3.9-4.44,5.33-6.94c0.44-0.78,1.26-1.25,2.16-1.26c0,0,0.01,0,0.01,0c0.89,0,1.7,0.47,2.15,1.23
				c3.4,5.78,5.2,12.46,5.2,19.33c0,10.33-4.02,20.04-11.32,27.34C1023.74,2583.47,1014.03,2587.49,1003.7,2587.49z M719.06,2535.75
				c-1.73,4.08-2.63,8.53-2.63,13.08c0,18.56,15.1,33.66,33.66,33.66h253.61c9,0,17.45-3.5,23.81-9.85s9.85-14.81,9.85-23.81
				c0-4.55-0.9-9-2.63-13.08c-1.12,1.5-2.35,2.92-3.69,4.26c-7.3,7.3-17.01,11.32-27.34,11.32H750.09
				C737.8,2551.33,726.28,2545.45,719.06,2535.75z"/>
		</g>
		<g>
			<path class="st1" d="M1008.6,2600.37H745.18c-25.7,0-46.62-20.91-46.62-46.62v-9.82c0-25.7,20.91-46.62,46.62-46.62h263.42
				c25.7,0,46.62,20.91,46.62,46.62v9.82C1055.22,2579.45,1034.3,2600.37,1008.6,2600.37z M745.18,2528.06
				c-8.75,0-15.87,7.11-15.87,15.86v9.82c0,8.75,7.12,15.87,15.87,15.87h263.42c8.75,0,15.87-7.12,15.87-15.87v-9.82
				c0-8.75-7.12-15.86-15.87-15.86H745.18z"/>
		</g>
		<g>
			<path class="st1" d="M1151.05,1796.28c-5.11,0-10.11-2.55-13.03-7.2c-35.73-56.89-71.33-74.63-71.68-74.8
				c-7.6-3.69-10.85-12.85-7.21-20.48c3.64-7.62,12.71-10.91,20.36-7.31c1.76,0.83,43.6,20.99,84.57,86.25
				c4.51,7.19,2.35,16.68-4.85,21.19C1156.67,1795.52,1153.85,1796.28,1151.05,1796.28z"/>
		</g>
		<g>
			<path class="st1" d="M931.61,2325.06c7.46-3.09,14.98-4.96,22.56-6.59c7.57-1.51,15.18-2.6,22.78-3.27
				c7.6-0.67,15.22-1.18,22.74-0.7c7.52,0.46,14.99,1.48,22.23,3.98c7.99,2.76,12.22,11.47,9.46,19.46
				c-2.01,5.83-7.19,9.65-12.95,10.23l-0.5,0.05c-3.7,0.37-7.33,0.24-10.94-0.04c-3.62-0.18-7.2-0.7-10.77-1.26
				c-7.15-1.07-14.22-2.97-21.33-4.75c-14.22-3.64-28.49-7.65-43.09-12.82l-0.09-0.03c-1.19-0.42-1.81-1.72-1.39-2.91
				C930.56,2325.78,931.04,2325.3,931.61,2325.06z"/>
		</g>
		<g>
			<path class="st1" d="M1257.91,1958.1c14.9-3.62,30.03-5.04,45.31-5.63c15.26-0.42,30.63,0.33,45.95,2.4
				c15.26,2.08,30.75,5.26,45.36,10.39c7.35,2.52,14.62,5.4,21.68,8.87c3.56,1.68,7.03,3.59,10.5,5.58c3.56,2.1,6.6,4.06,10.55,7.03
				c6.62,4.97,7.95,14.37,2.98,20.99c-4.27,5.68-11.78,7.47-18.01,4.73l-1.39-0.62l-18.25-8.02c-6.38-2.71-12.84-5.41-19.36-8.05
				c-13.14-5.2-26.16-10.25-39.82-14.48c-27.22-8.49-55.81-14.62-85.19-18.91l-0.1-0.02c-1.19-0.17-2.01-1.27-1.84-2.46
				C1256.41,1958.99,1257.08,1958.3,1257.91,1958.1z"/>
		</g>
		<g>
			<path class="st4" d="M1363.29,1581.63c-7.56,20.55-25.62,35.45-47.19,39.14c-103.63,17.57-296.66,16.23-395.18,14.19
				c-33.58-0.71-60.36-28.15-60.31-61.73c0-8.01-0.04-16.01-0.13-23.93c-0.4-35.31-1.6-69.52-3.16-101.05
				c-1.96-38.52-4.54-73.03-6.89-100.83c-3.16-37,26.86-68.36,64-66.8l407.45,17.17c29.09,1.25,53.51,22.59,58.22,51.28
				C1398.25,1460.08,1378.59,1540.23,1363.29,1581.63z"/>
			<path class="st1" d="M1029.94,1638.63c-40.83,0-78.62-0.54-109.06-1.17c-34.65-0.73-62.81-29.55-62.76-64.24
				c0-7.99-0.05-15.99-0.13-23.89c-0.36-31.92-1.42-65.89-3.16-100.96c-1.66-32.71-3.91-65.66-6.88-100.74
				c-1.57-18.35,4.84-36.5,17.57-49.8c12.74-13.3,30.62-20.52,49.03-19.71l407.45,17.17c30.23,1.29,55.71,23.74,60.58,53.37
				c18.54,113.4-2.65,195.18-16.93,233.84l0,0c-7.83,21.28-26.65,36.89-49.11,40.74
				C1244.04,1635.53,1128.24,1638.63,1029.94,1638.63z M911.84,1283.06c-16.1,0-31.55,6.56-42.72,18.23
				c-11.74,12.26-17.64,29-16.2,45.92c2.98,35.14,5.23,68.14,6.9,100.91c1.74,35.14,2.8,69.17,3.16,101.15
				c0.09,7.92,0.13,15.94,0.13,23.96c-0.04,31.99,25.91,58.56,57.86,59.23c103.55,2.16,292.53,3.17,394.7-14.15
				c20.7-3.54,38.04-17.92,45.26-37.54l0,0c14.11-38.19,35.05-119.03,16.69-231.3c-4.49-27.31-27.98-47.99-55.86-49.19
				l-407.45-17.17C913.5,1283.08,912.67,1283.06,911.84,1283.06z"/>
		</g>
		<g class="st2">
			<path class="st1" d="M1377.04,1534.4c-4.23,19.08-9.16,34.87-13.74,47.23c-7.56,20.55-25.62,35.45-47.19,39.14
				c-103.63,17.57-296.66,16.23-395.18,14.19c-33.58-0.71-60.36-28.15-60.31-61.73c0-8.01-0.04-16.01-0.13-23.93v-0.45
				c-0.04-4.27-0.09-8.54-0.18-12.76c-0.04-3.78-0.13-7.56-0.22-11.3c-0.04-2.67-0.13-5.29-0.18-7.92
				c-0.13-5.29-0.27-10.5-0.44-15.7c-0.22-7.78-0.49-15.48-0.8-23.04c-0.4-10.19-0.85-20.15-1.33-29.89
				c-1.96-38.52-4.54-73.03-6.89-100.83c-2.85-33.45,21.39-62.27,53.51-66.36c3.47,43.54,6.94,99.72,8.23,160.25
				c25.09-2.98,47.06,19.66,46.57,48.7l-0.09,3.42c-0.31,18.72-10.05,35.09-24.37,42.65c10.45,8.9,23.93,14.41,38.69,14.72
				c98.52,2.05,291.59,3.38,395.18-14.19C1371.21,1536.09,1374.14,1535.38,1377.04,1534.4z"/>
		</g>
		<g>
			<path class="st1" d="M1030.15,1651.51c-41.04,0-78.99-0.54-109.56-1.18c-41.57-0.87-75.38-35.45-75.37-77.09
				c0.02-87.26-5.49-170.26-10.12-224.52l0,0c-1.88-22.03,5.81-43.82,21.1-59.79c15.3-15.97,36.81-24.62,58.86-23.66l407.49,17.17
				c36.29,1.53,66.87,28.51,72.71,64.16c19.05,116.33-2.81,200.53-17.53,240.37c-9.47,25.62-32.1,44.39-59.07,48.96
				C1245.33,1648.37,1128.89,1651.51,1030.15,1651.51z M911.82,1295.94c-12.59,0-24.67,5.13-33.41,14.26
				c-9.18,9.58-13.8,22.67-12.67,35.9l0,0c4.68,54.86,10.26,138.79,10.24,227.15c-0.01,25.03,20.3,45.82,45.26,46.34
				c103.02,2.16,290.98,3.22,392.28-13.97c16.15-2.74,29.71-13.97,35.37-29.31c13.67-37,33.93-115.39,16.03-224.75
				c-3.49-21.34-21.86-37.49-43.66-38.41l-407.49-17.17C913.12,1295.96,912.47,1295.94,911.82,1295.94z"/>
		</g>
		<g>
			<path class="st4" d="M466.4,1392.32c80.98,13.96,265.03,39.22,421.77,13.61c25.83-4.22,48.82,18.82,48.3,48.5l-0.06,3.44
				c-0.41,23.16-15.26,42.73-35.35,46.47c-162.42,30.28-362.02,15.97-446.91,7.56c-22.73-2.25-39.37-25.31-36.89-51.12l2.66-27.73
				C422.43,1406.89,443.54,1388.38,466.4,1392.32z"/>
			<path class="st1" d="M668.75,1525.17c-90.79,0-171.23-6.46-214.84-10.78c-24.2-2.4-41.76-26.55-39.13-53.85l2.66-27.73
				c1.37-14.3,8.2-27.12,18.74-35.17c9-6.87,19.87-9.64,30.65-7.78c73.79,12.71,262.5,39.5,420.94,13.6
				c12.08-1.99,24.03,1.53,33.67,9.88c11.42,9.88,17.81,24.87,17.53,41.13l-0.06,3.44c-0.43,24.37-16.15,44.93-37.39,48.88
				C826.98,1520.69,744.27,1525.17,668.75,1525.17z M460.29,1394.3c-7.47,0-14.79,2.51-21.08,7.31
				c-9.44,7.21-15.56,18.75-16.8,31.67l-2.66,27.73c-2.36,24.56,13.19,46.26,34.65,48.39c79.68,7.9,282.68,22.95,446.21-7.53
				c18.91-3.53,32.92-22.06,33.31-44.06l0.06-3.44c0.26-14.77-5.5-28.35-15.8-37.26c-8.51-7.36-19.03-10.45-29.6-8.73
				c-159.19,26.01-348.57-0.85-422.6-13.6C464.08,1394.46,462.18,1394.3,460.29,1394.3z"/>
		</g>
		<g>
			<path class="st1" d="M668.69,1538.03c-91.35,0-172.2-6.49-216.05-10.83c-31.24-3.09-53.98-33.54-50.68-67.89l2.66-27.73
				c1.71-17.86,10.37-33.96,23.74-44.17c11.88-9.07,26.3-12.71,40.65-10.24c73.14,12.6,260.16,39.15,416.68,13.58
				c15.9-2.61,31.59,1.96,44.17,12.85c14.32,12.38,22.33,31.01,21.98,51.09l-0.06,3.45c-0.53,30.45-20.68,56.24-47.9,61.31
				C828.46,1533.51,744.92,1538.03,668.69,1538.03z M460.22,1407.16c-5.74,0-10.25,2.43-13.2,4.69c-6.6,5.04-10.9,13.3-11.8,22.67
				l-2.66,27.73c-1.65,17.22,8.93,32.94,23.11,34.35c79.13,7.84,280.67,22.8,442.58-7.38c12.93-2.41,22.51-15.71,22.79-31.63
				l0.06-3.45c0.19-10.78-4.06-20.98-11.35-27.29c-5.57-4.81-12.35-6.86-19.1-5.76c-161.12,26.34-352.19-0.76-426.86-13.62l0,0
				C462.56,1407.25,461.36,1407.16,460.22,1407.16z"/>
		</g>
		<g class="st2">
			<path class="st1" d="M936.47,1454.4l-0.05,3.45c-0.43,23.16-15.26,42.74-35.34,46.5c-162.43,30.24-362.05,15.95-446.92,7.58
				c-22.73-2.28-39.35-25.31-36.86-51.12l2.65-27.78c0.05-0.74,0.16-1.48,0.27-2.15c5.68,15.21,18.4,26.48,33.94,28.08
				c84.87,8.38,284.49,22.73,446.92-7.58c12.61-2.34,23.17-10.96,29.34-22.79C934.41,1436.04,936.63,1444.91,936.47,1454.4z"/>
		</g>
		<g>
			<g>
				<g>
					<path class="st10" d="M1118.09,1456.43c0.35,6.63-6.11,60.6-6.11,60.6s-16.94,0.9-37.75,2.01c-25.99,1.39-48.5-24.4-50.26-57.6
						c-1.77-33.2,17.87-61.23,43.86-62.62c17.54-0.93,37.75-2.01,37.75-2.01S1117.52,1445.64,1118.09,1456.43z"/>
				</g>
				<g class="st2">
					<path class="st1" d="M1118.09,1456.43c0.35,6.63-6.11,60.6-6.11,60.6s-16.94,0.9-37.75,2.01c-25.99,1.39-48.5-24.4-50.26-57.6
						c-1.77-33.2,17.87-61.23,43.86-62.62c17.54-0.93,37.75-2.01,37.75-2.01S1117.52,1445.64,1118.09,1456.43z"/>
				</g>
				<g>
					<path class="st1" d="M1072.18,1530.4c-15.14,0-29.5-6.95-40.68-19.76c-11.15-12.77-17.83-30.03-18.82-48.59
						c-2.1-39.36,22.37-72.78,54.54-74.5l37.75-2.01c5.46-0.39,10.29,3.32,11.57,8.59c2.04,8.33,12.22,50.41,12.82,61.69l0,0
						c0.37,6.86-4.2,46.03-6.17,62.55c-0.65,5.45-5.13,9.65-10.62,9.94l-37.75,2.01C1073.95,1530.38,1073.06,1530.4,1072.18,1530.4z
						 M1096.79,1408.6l-28.36,1.51c-19.73,1.05-34.61,23.81-33.18,50.74c0.72,13.54,5.44,25.95,13.28,34.94
						c7.16,8.2,16.08,12.47,25.1,11.98l28.24-1.51c2.65-22.74,5.02-45.47,4.93-49.27C1106.46,1450.9,1101.15,1426.97,1096.79,1408.6
						z"/>
				</g>
				<g>
					
						<ellipse transform="matrix(0.9986 -0.0532 0.0532 0.9986 -75.9699 61.0769)" class="st10" cx="1108.78" cy="1456.93" rx="47.13" ry="60.19"/>
				</g>
				<g class="st2">
					<path class="st1" d="M1061.72,1459.45c1.76,33.18,24.26,58.98,50.25,57.6c26.02-1.38,45.65-29.43,43.86-62.64
						c-0.22-4.48-0.86-8.85-1.84-13.03c-5.47,23.16-21.82,40.32-42.01,41.37c-22.44,1.2-42.32-17.87-48.41-44.53
						C1061.99,1444.87,1061.35,1452.03,1061.72,1459.45z"/>
				</g>
				<g>
					<path class="st4" d="M1061.72,1459.45c0.11,2.26,0.34,4.48,0.67,6.67c3.78-26.28,21.22-46.5,43.18-47.66
						c24.21-1.27,45.44,21.03,49.57,50.97c0.72-4.86,0.95-9.87,0.68-15.03c-1.76-33.18-24.26-58.98-50.25-57.6
						C1079.6,1398.22,1059.96,1426.23,1061.72,1459.45z"/>
				</g>
				<g>
					<path class="st1" d="M1109.93,1528.39c-15.14,0-29.5-6.95-40.68-19.76c-11.15-12.77-17.83-30.03-18.82-48.59
						c-2.1-39.36,22.37-72.78,54.54-74.5c16.13-0.86,31.5,6.13,43.33,19.68c11.15,12.77,17.83,30.03,18.82,48.59
						c2.1,39.36-22.37,72.78-54.54,74.5C1111.7,1528.36,1110.81,1528.39,1109.93,1528.39z M1107.56,1408.07
						c-0.46,0-0.92,0.01-1.38,0.03c-19.73,1.05-34.61,23.81-33.18,50.74c0.72,13.54,5.44,25.95,13.28,34.94
						c7.16,8.2,16.09,12.44,25.1,11.98c19.73-1.05,34.61-23.81,33.18-50.74l0,0c-0.72-13.54-5.44-25.95-13.28-34.94
						C1124.48,1412.29,1116.11,1408.07,1107.56,1408.07z"/>
				</g>
			</g>
			<g>
				<path class="st1" d="M1235.15,1635.22c-5.72,0-10.56-4.41-11-10.21l-7.85-103.67c-1-13.16,4.72-25.73,15.28-33.64l34.27-25.65
					c1.66-1.25,2.57-3.3,2.37-5.37l-14.07-145.03c-0.59-6.07,3.85-11.47,9.93-12.06c6.11-0.58,11.47,3.85,12.06,9.93l14.07,145.04
					c0.94,9.69-3.32,19.34-11.12,25.18l-34.27,25.65c-4.49,3.36-6.91,8.7-6.49,14.28l7.85,103.67c0.46,6.08-4.1,11.39-10.18,11.85
					C1235.71,1635.21,1235.43,1635.22,1235.15,1635.22z"/>
			</g>
		</g>
		<g>
			<path class="st1" d="M364.57,721.1c-0.85,2.1-2.75,4.93-4.3,7.25c-1.57,2.47-3.31,4.81-4.94,7.16c-3.21,4.7-6.9,9.17-9.49,13.95
				c-2.63,4.77-4.74,9.65-5.81,15.22c-1.09,5.59-0.37,11.67,1.21,18.85l0.06,0.26c0.28,1.25-0.52,2.5-1.77,2.77
				c-0.61,0.13-1.22,0.01-1.71-0.28c-6.56-3.99-12.58-10.35-15.86-18.59c-3.13-8.16-3.87-17.32-2.76-25.88
				c1.07-8.62,3.73-16.64,7.66-23.77c1.94-3.58,4.18-6.93,6.79-9.98c2.66-3.19,5.15-5.73,9.11-8.62c6.84-4.99,16.44-3.49,21.43,3.36
				c3.24,4.44,3.74,10.04,1.83,14.79L364.57,721.1z"/>
		</g>
	</g>
</g>
</svg>
