<?xml version="1.0" encoding="utf-8"?>
<!-- Generator: Adobe Illustrator 24.3.0, SVG Export Plug-In . SVG Version: 6.00 Build 0)  -->
<svg version="1.1" id="Layer_1" xmlns="http://www.w3.org/2000/svg" xmlns:xlink="http://www.w3.org/1999/xlink" x="0px" y="0px"
	 viewBox="0 0 4000 4000" style="enable-background:new 0 0 4000 4000;" xml:space="preserve">
<style type="text/css">
	.st0{fill:#02DAFF;}
	.st1{opacity:0.2;}
	.st2{fill:#66142E;}
	.st3{fill:#5C6A79;}
	.st4{opacity:0.3;}
	.st5{fill:#FFFFFF;}
	.st6{fill:#6B184E;}
	.st7{opacity:0.55;}
	.st8{fill:#FC9D2B;}
	.st9{fill:#FFA840;}
	.st10{fill:#FEB85B;}
	.st11{fill:#650000;}
	.st12{fill:#EF6A20;}
	.st13{fill:#77223C;}
	.st14{fill:#792937;}
</style>
<g>
	<g class="st1">
		<g>
			<ellipse class="st2" cx="1957.5" cy="3542.5" rx="962.5" ry="87.5"/>
		</g>
	</g>
	<g>
		<g>
			<g>
				<g>
					<path class="st3" d="M2550.1,1238.8c-15.2,10.4-38.8,18.8-69.4,25l5.7-22.2l0.1-0.2l1.1-4.4c3.6-21.4-17-45.9-57.1-71.4
						c-103.3-65.8-335.6-138.7-611.1-185.8c-266.8-45.5-503.5-54.7-626.5-30c-53.2,10.7-85.2,27.7-89.1,50.9
						c-0.2,1.4-0.4,2.8-0.4,4.3l-1.9,20.3c-31.3-17.4-54.8-34.5-69.2-50.6c-5.3-5.9-9.3-11.6-12.1-17.3c0,0,0-0.1,0-0.1
						c-1.2-2.4-2.2-4.8-2.9-7.3c-1.5-5-1.9-10-1.1-14.7l0.7-2.9l23.7-104.9l0.8-3.9l0.1-0.2c9.3-32.3,71.5-57.2,170.1-70.5
						c22.9-3.1,47.7-5.6,74.3-7.4c143.7-9.7,338.4,0.3,551.6,38.2c255.4,45.5,479.5,120.9,616.4,192
						c93.1,48.3,145.7,94.6,140.3,128.1l-0.7,2.9l-23.8,105.4C2568.2,1222.2,2561.5,1231.1,2550.1,1238.8z"/>
				</g>
			</g>
			<g class="st4">
				<g>
					<polygon class="st5" points="2266.7,891.4 2334.2,914.8 2311.3,1037.3 2243.7,1014 					"/>
				</g>
			</g>
			<g class="st4">
				<g>
					<polygon class="st5" points="2097.7,840.3 2219.5,875.1 2196.7,994 2074.9,959.3 					"/>
				</g>
			</g>
			<g>
				<g>
					<path class="st5" d="M1468.4,2981.8c-304.9-52-543.6-143.9-533.1-205.1c10.4-61.3,266.1-68.7,571-16.7
						c304.9,52.1,543.6,143.9,533.2,205.2C2028.9,3026.4,1773.3,3033.9,1468.4,2981.8z"/>
				</g>
			</g>
			<g>
				<g>
					<path class="st6" d="M1835.5,3035c-122.6,0-269.8-17.9-370.2-35.1h0c-148.6-25.4-286.5-60.9-388.3-100.1
						c-114.5-44.1-166.8-85.4-159.8-126.2c7-40.9,70-62.5,192.6-66.1c109-3.2,250.9,9,399.5,34.4
						c197.2,33.7,565.6,124.4,548.2,226.4C2048.9,3018.3,1953.6,3035,1835.5,3035z M1145,2743.7c-11.7,0-23.1,0.2-34.2,0.5
						c-124.9,3.6-156,26.9-157.5,35.6c-1.5,8.7,20.2,40.9,136.8,85.8c99.6,38.3,235,73.2,381.3,98.2c0,0,0,0,0,0
						c146.3,25,285.6,37,392.3,33.9c124.9-3.6,156.1-26.9,157.5-35.5c1.5-8.6-20.2-40.9-136.8-85.8c-99.6-38.3-235-73.2-381.3-98.2
						C1372,2755.7,1246.4,2743.7,1145,2743.7z"/>
				</g>
			</g>
			<g class="st7">
				<g>
					<polygon class="st5" points="2537.5,1028.3 2517.6,1132.8 2576.7,1210 2600.9,1086.3 					"/>
				</g>
			</g>
			<g>
				<g>
					<path class="st6" d="M2480.7,1282.1c-5,0-9.8-2-13.3-5.7c-4.4-4.6-6-11.1-4.5-17.2l5.7-22.2c0.1-0.3,0.1-0.5,0.2-0.8l0.8-2.9
						c1.1-9.6-11.2-28.2-48.9-52.2c-104.3-66.4-341.5-138.3-604.3-183.1c-256.8-43.8-494.2-55.3-619.8-30.1
						c-52.3,10.5-72.8,25.5-74.6,35.9c0,0.2-0.1,0.6-0.1,1c0,0.7,0,1.3-0.1,2l-1.9,20.3c-0.6,6.2-4.2,11.6-9.7,14.5
						c-5.5,2.9-12.1,2.8-17.5-0.2c-69.2-38.6-100.1-74.3-94.5-108.9c0.1-0.4,0.1-0.8,0.2-1.2l0.7-2.9l24.4-108.5
						c0.1-0.6,0.3-1.2,0.5-1.8c11.9-40.2,74.2-68.2,185.2-83.2c162.7-22,398.8-10.5,631.5,30.9c237,42.2,469.4,114.7,621.6,193.8
						c106.4,55.2,156.8,104.8,149.9,147.3c-0.1,0.4-0.1,0.8-0.2,1.2l-0.7,2.9l-23.6,104.8c-5.5,31.4-39.4,53-103.5,66.1
						C2483.2,1282,2482,1282.1,2480.7,1282.1z M1366.1,918.1c127.7,0,288.3,14.9,456.6,43.6c271.3,46.3,508.1,118.5,617.8,188.4
						c48.1,30.7,69.6,59.6,65.5,88.5c31.2-9.6,44.3-20.9,45.7-29.4c0.1-0.4,0.1-0.7,0.2-1.1l24.3-107.6
						c1.7-14.4-23.9-53-130.7-108.4c-149.1-77.5-377.6-148.6-611.1-190.2c-229.2-40.8-461-52.2-620.2-30.7
						c-105.7,14.3-149.4,39.6-154.8,57.1l-0.7,3.1l-24.2,107.4c-1.3,10.8,12.2,30.4,52,56c6.9-29.9,40.7-50.4,103-63
						C1235.5,922.6,1295.8,918.1,1366.1,918.1z"/>
				</g>
			</g>
			<g>
				<g>
					<path class="st6" d="M1832.1,2930.4c-102.2,0-231-11.9-364.9-34.7c-205.3-35-389.8-90-481.6-143.3c-7.3-4.2-9.8-13.6-5.5-20.9
						c4.3-7.3,13.6-9.8,20.9-5.5c88.9,51.7,269.5,105.2,471.4,139.6c213.3,36.4,412.2,44.8,506.7,21.2c8.2-2,16.5,3,18.5,11.2
						c2,8.2-3,16.5-11.2,18.5C1948.8,2925.8,1895.6,2930.4,1832.1,2930.4z"/>
				</g>
			</g>
			<g class="st4">
				<g>
					<path class="st6" d="M995,2734c87.2,50.7,266.1,105.6,476.5,141.5c222.7,38,419.2,44.3,513,21l-18.3-50.2L1712,2734
						c0,0-533.6-105.2-546.2-101.5c-12.6,3.7-138.2,67.2-138.2,67.2L995,2734z"/>
				</g>
			</g>
			<g>
				<g>
					<path class="st5" d="M2039.4,2965.2c10.4-61.3-228.3-153.1-533.2-205.2c-304.9-52-560.5-44.6-571,16.7l100.3-1054.9l66.2-696.5
						l1.9-20.3c0-1.4,0.1-2.9,0.4-4.3c3.9-23.2,35.9-40.2,89.1-50.9c123-24.8,359.7-15.6,626.5,30c275.4,47,507.7,120,611.1,185.8
						c40,25.5,60.7,49.9,57.1,71.4l-1.1,4.4l-0.1,0.2l-5.7,22.2l-253.6,977.7L2039.4,2965.2z"/>
				</g>
			</g>
			<g>
				<g>
					<path class="st5" d="M2039.4,2965.2c9-52.8-166.6-128.2-410.2-181.3c-39.4-8.6-80.5-16.6-123-23.9
						c-304.9-52-560.5-44.6-571,16.7l100.3-1054.9l66.2-696.5l1.9-20.3c0-1.4,0.1-2.9,0.4-4.3c3.9-23.2,35.9-40.2,89.1-50.9
						c96.1-19.3,261.5-18,456.4,5.3c0.1,0,0.2,0,0.2,0c54.6,6.5,111.5,14.7,169.9,24.7c275.4,47,507.7,120,611.1,185.8
						c40,25.5,60.7,49.9,57.1,71.4l-1.1,4.4l-0.1,0.2l-5.7,22.2l-253.6,977.7L2039.4,2965.2z"/>
				</g>
			</g>
			<g>
				<g>
					<path class="st8" d="M2227.1,2241.5c-21.1-151.5-167.6-164.1-316.4-133.6c-148.7,30.6-263.1-13.3-404.4-299.6
						c-131.5-266.6-470.9-86.6-470.9-86.6l66.2-696.5l1.9-20.3c0-1.4,0.1-2.9,0.4-4.3c3.9-23.2,35.9-40.2,89.1-50.9
						c123-24.8,359.7-15.6,626.5,30c275.4,47,507.7,120,611.1,185.8c40,25.5,60.7,49.9,57.1,71.4l-1.1,4.4l-0.1,0.2l-5.7,22.2
						L2227.1,2241.5z"/>
				</g>
			</g>
			<g class="st4">
				<g>
					<path class="st6" d="M1099.2,1051.8l-2.4,25.2l1.9-20.3c0-1.4,0.1-2.9,0.4-4.3C1099.1,1052.2,1099.2,1052,1099.2,1051.8z"/>
				</g>
			</g>
			<g>
				<g>
					<g>
						<path class="st5" d="M1519.3,1349.3c0-0.3-0.3-3.8-0.3-3.8c1.6-15.1,6.5-30.1,14-43.8c2.8-5.3,4.3-10.9,7.8-15.5
							c17.1-25.5,47.5-42.7,82.6-39.9c4.8,0.4,5.6-0.2,9.1,1.4c39.7,8.5,48.6,33.2,42.2,69.7c-1.2,6.9-1.9,11.2-3.8,18
							c-1.9,2.7-3.9,4-7.3,4.7c-3.9-0.1-22.2-0.9-26.1-0.9c-0.7-0.1-7.5-0.6-9.6-0.8c-2.5-0.2-8.5-0.7-8.5-0.7
							c-3.2-0.6-4.2-3.5-3.6-7.6c0.3-2.8,13.8-42.7,4.6-44.7c-29-6-36.4,45.6-39,66.9c-0.1,0.9-0.3,2.2-0.4,3.5
							c-2.2,17-5.7,43.6,9.4,54.4c0,0,1,0.1,1.4,0.1c9,0.6,15.4,1.4,20.4-34.9c1.4-9.8,34.2-1,36.5,0.3c4.9,0.5,12.6,3.1,11.7,9.1
							c-9.3,59.1-24.8,78.6-76.8,74.9c-23.5-1.5-34.6-10-49.4-26.1c-9.1-9.9-11.3-24.5-13.2-37.5c-0.2-1.3-0.5-2.5-0.7-3.8
							c-0.7-4.1-2-8.3-2.7-12.4c-0.3-4.4,2-9.1-0.1-13.6C1517.8,1363.7,1519,1352.1,1519.3,1349.3z"/>
					</g>
				</g>
				<g>
					<g>
						<path class="st5" d="M1760.9,1263.7c63.7,2,73.8,25.7,72.4,75.3c0.1,2.6-0.7,12.1-0.9,13c-0.1,0.6-1.6,8.4-2.3,11.5
							c-7.6,32.7-13.7,59.7-34.9,87.5c-2.8,3.7-5,7.8-8.8,11.3c-0.4,0.3-4,2.9-5,3c-15,8.5-29.5,10.1-46.8,7.7
							c-30.2-4.1-41.4-22.1-45.8-48.9c-0.1-1.6-1.9-14.2-2.3-17.7c-0.2-1-0.2-3.2-0.1-3.8c0.8-14.2,1.7-28.4,2.6-42.6
							c0,0,0.4-2.5,0.6-3.7C1694.7,1325,1713.9,1262.5,1760.9,1263.7z M1751.2,1421.1c16.6,1.8,23.5-41.2,26.3-55.8
							c0.3-1.2,0.5-2.5,0.7-3.1c1.8-8.7,9.3-44.9-6.9-47.3c-11.8-1.7-23.6,38.8-24.8,45.3
							C1734.5,1411.9,1738.7,1419.7,1751.2,1421.1z"/>
					</g>
				</g>
				<g>
					<g>
						<path class="st5" d="M1851.1,1374.5c-0.7-6.2,1.6-12.5,3.1-18.7c0.2-2.2,4-19.2,4.5-21.3c0.2-0.9,4-16,5.4-21.5
							c0.9-3.4,4.7-18.4,5.5-21.5c2-3.5,10.2-3.6,13.6-3.5c8.8,0.4,17.7,3.1,26,4.2c1.8,0.3,12.4,0.9,14.2,1
							c12.6,1.4,23,4.3,35.6,7.1c3.9,0.8,20.6,4.7,24,5.6c17.1,6.4,12.8,18.4,8.9,31.1c-0.4,1.2-0.7,2.1-1,3.3
							c-0.5,1.5-3.2,9.3-3.7,10.8c-2.5,4.6-7.3,3.4-11.7,2.4c-3.5-0.5-20.3-2.9-24.2-3.4c-7.7,1.4-32.3-5.6-34.4-3.4
							c-0.3,1.2-1.6,5.8-1.8,6.7c-1.4,5.2-2.4,8.8-2.7,13.9c0.3,0.4,1.5,1,2.2,1.1c0.6,0.4,8.2,1.8,9.2,2c1.3,0.6,10.4,2.9,11.7,3.2
							c14.2,3.5,27.6,1.8,24.5,17.6c-0.8,2.7-4.6,19.7-5.6,24.6c0,0-0.5,1.8-0.7,2.4c-3.1,10.9-20.1,7.6-29.2,5.9
							c-0.3-0.1-1-0.2-1.3-0.3c-2.7-0.3-15-3-18-3.9c-0.7,0.2-0.8,0.5-1,1.1c-4.2,16.2-6.3,32.8-10.4,49.3
							c-2.8,11.3-3.9,29.7-20.9,28.7c-2.3-0.2-9.4-0.3-9.7-0.4c-7.8-1.6-15.6-3.1-23.4-4.6c-8.8-1.7-12-5.4-9.6-13.6
							C1836.9,1445.2,1843.8,1409.9,1851.1,1374.5z"/>
					</g>
				</g>
				<g>
					<g>
						<path class="st5" d="M1989.8,1404.8c-0.3-6.2,2.3-12.4,4.2-18.5c0.3-2.2,5.1-18.9,5.7-21c0.3-0.9,4.9-15.7,6.6-21.1
							c1-3.3,5.8-18.1,6.7-21.1c2.2-3.4,10.3-2.9,13.6-2.7c8.7,0.9,17.3,4.2,25.4,5.7c1.7,0.5,12.1,1.7,14,1.9
							c12.4,2.1,22.4,5.6,34.6,9.2c3.7,1.1,20,5.9,23.3,7c16.4,7.4,11.5,19.1,6.9,31.5c-0.4,1.2-0.8,2.1-1.2,3.3
							c-0.6,1.5-3.7,9.1-4.3,10.6c-2.7,4.4-7.4,3-11.7,1.7c-3.4-0.7-19.9-4.1-23.6-4.8c-7.7,1-31.5-7.5-33.7-5.4
							c-0.4,1.2-1.9,5.7-2.2,6.6c-1.7,5.1-2.9,8.7-3.5,13.8c0.2,0.4,1.5,1.1,2.1,1.2c0.6,0.5,7.9,2.2,8.9,2.5
							c1.2,0.7,10,3.5,11.3,3.9c13.7,4.3,27.1,3.5,23,19c-1,2.7-5.7,19.3-7,24.2c0,0-0.6,1.8-0.8,2.4c-3.7,10.7-20.2,6.4-29.1,4.2
							c-0.3-0.1-1-0.3-1.3-0.4c-2.7-0.5-14.6-3.9-17.5-5c-0.7,0.1-0.8,0.4-1,1c-5.1,15.9-8.2,32.4-13.2,48.6
							c-3.4,11.1-5.6,29.4-22.3,27.4c-2.3-0.3-9.2-0.9-9.5-1c-7.5-2-15.1-4-22.7-6c-8.5-2.2-11.5-6.2-8.6-14.2
							C1971.6,1474.5,1980.5,1439.6,1989.8,1404.8z"/>
					</g>
				</g>
				<g>
					<g>
						<path class="st5" d="M2127.3,1450.7c8-22.9,15.2-46.1,23.9-68.8c3.6-9.4,11.1-26.7,27.6-23.5c25.7,9.4,51.2,19.3,76.3,29.6
							c6,2.9,3.6,11.8,2.3,16.4c-0.7,2.4-2.9,10-3,10.3c-0.1,0.3-2.1,5.6-2.8,7.4c-0.5,1.2-3,6-3.4,7.1c-4.9,6.2-11.9,5.3-19.3,2.6
							c-4-1.2-22.9-7.3-26.8-8.7c-0.3-0.1-1.9,0-2.2-0.1c-0.3-0.1-1.2,0.2-1.2,0.2c-4.1,10.2-8.3,20.5-12.3,30.7
							c0.2,0.6,0.5,1.3,0.7,1.9c10.4,4.2,20.8,8.5,31.1,12.9c3.5,1.3,8.9,5,7.2,9c-3.5,8.3-6.9,16.7-10.3,25.1
							c-1.2,2.9-5.5,6.4-9,5.4c-11.4-4.5-23-8.4-34.8-11.9c-1.2,0.3-1.9,1.3-2.4,2.5c-0.1,0.3-0.6,1.5-0.6,1.5
							c-1.4,3.5-7.2,20.8-8.2,24.5c0,0.1-0.1,0.2-0.1,0.3c0,0.1-0.1,0.2-0.1,0.3c0,0.1-0.1,0.2-0.1,0.3c-0.1,1.3-0.2,2.3,1.4,2.8
							c11.7,4.1,23.9,5.2,35.3,9.4c1.5,0.6,5.6,1.8,6.8,3.2c4.6,5.1-0.8,24.9-3.2,31c-0.7,1.8-1.4,3.5-2.4,5.1
							c-7,22.3-64.2-12.2-99.6-18.7c-1.5-0.5-3.3-2.4-2.9-4.6c0,0,1.1-3.3,1.2-3.6c0.6-2.8,6.1-23.8,6.9-26.2
							c3.2-12.2,9.2-23.5,10.8-35.8C2115.9,1483.1,2125.2,1456.3,2127.3,1450.7z"/>
					</g>
				</g>
				<g>
					<g>
						<path class="st5" d="M2249.4,1494.1c9.2-22.4,17.7-45.2,27.6-67.4c4.1-9.2,12.4-26,28.6-21.9c24.8,10.8,49.4,22.1,73.6,33.7
							c5.7,3.2,2.8,12,1.3,16.5c-0.8,2.4-3.4,9.9-3.6,10.1c-0.1,0.3-2.4,5.5-3.2,7.2c-0.6,1.1-3.3,5.8-3.8,6.9
							c-5.2,5.9-12.1,4.6-19.2,1.5c-3.8-1.4-22.2-8.6-25.9-10.1c-0.3-0.1-1.8-0.1-2.1-0.2c-0.3-0.1-1.2,0.2-1.2,0.2
							c-4.7,10-9.3,20-13.9,30c0.2,0.7,0.4,1.3,0.6,1.9c10,4.8,20,9.7,30,14.6c3.4,1.5,8.5,5.5,6.5,9.4c-3.9,8.1-7.8,16.3-11.6,24.4
							c-1.3,2.8-5.7,6.1-9.2,4.9c-10.9-5.2-22.2-9.7-33.7-13.8c-1.2,0.2-2,1.2-2.5,2.4c-0.1,0.3-0.6,1.4-0.6,1.4
							c-1.5,3.4-8.3,20.4-9.5,24c0,0.1-0.1,0.2-0.1,0.3c0,0.1-0.1,0.2-0.1,0.3c0,0.1-0.1,0.2-0.1,0.3c-0.2,1.3-0.3,2.3,1.2,2.9
							c11.3,4.8,23.3,6.5,34.2,11.3c1.5,0.6,5.4,2.1,6.5,3.6c4.3,5.3-2.3,24.8-5,30.8c-0.8,1.7-1.6,3.4-2.6,5
							c-8.2,21.9-62.6-15.7-97.1-24.1c-1.5-0.6-3.1-2.6-2.6-4.7c0,0,1.3-3.2,1.4-3.5c0.7-2.7,7.4-23.4,8.3-25.7
							c3.8-12,10.4-22.9,12.7-35.2C2236.3,1525.8,2247,1499.6,2249.4,1494.1z"/>
					</g>
				</g>
			</g>
			<g class="st7">
				<g>
					<path class="st5" d="M2209,2179.5c-47.9-94.4-172.4-99.5-298.4-73.5c-131,27-228-9.8-345.8-214.5
						c109.4,167.1,208.1,192,329.9,166.9C2039.2,2028.7,2181.7,2039.8,2209,2179.5z"/>
				</g>
			</g>
			<g class="st7">
				<g>
					<path class="st5" d="M2211.2,2193.9c-0.6-4.3-1.3-8.4-2-12.4c1.2,2.4,2.3,4.7,3.4,7.2L2211.2,2193.9z"/>
				</g>
			</g>
			<g class="st7">
				<g>
					<path class="st5" d="M2227.1,2241.5c-5.2-37.3-18-66.2-36.6-88.1l82.3-317.4c-62.1-51.6,3.1-309.4,84.2-324.5l71.2-274.5
						l5.7-22.2l0.1-0.2l1.1-4.4c3.6-21.4-17-45.9-57.1-71.4c-4.8-3.1-9.9-6.2-15.3-9.3c26.4,12.1,49.2,24.2,67.8,36
						c40,25.5,60.7,49.9,57.1,71.4l-1.1,4.4l-0.1,0.2l-5.7,22.2L2227.1,2241.5z"/>
				</g>
			</g>
			<g>
				<g>
					<path class="st6" d="M2039.4,2983.5c-1.3,0-2.6-0.1-3.9-0.4c-9.6-2.1-15.9-11.3-14.2-21c1.5-8.7-20.2-41-136.8-85.8
						c-99.6-38.3-235-73.2-381.3-98.2c-146.3-25-285.6-37-392.3-33.9c-124.9,3.6-156,26.9-157.5,35.6c-1.7,9.7-10.7,16.4-20.5,15.1
						c-9.8-1.3-16.8-10.1-15.9-19.9l166.5-1751.4l1.8-19.5c0-2.6,0.4-4.8,0.6-6.3c5.3-31.5,39.2-53,103.6-65.9
						c129.6-26.1,372.3-14.6,633.2,29.9c271.3,46.3,508.1,118.5,617.8,188.4c48.9,31.2,70.3,60.6,65.3,89.9c-0.1,0.5-0.2,1-0.3,1.5
						l-1.1,4.4c-0.1,0.3-0.1,0.5-0.2,0.8l-5.6,21.7l-441.4,1701.4C2055,2978,2047.6,2983.5,2039.4,2983.5z M1144.9,2707
						c103.5,0,231.3,12.2,364.4,34.9c162.2,27.7,440.1,94,524.1,173.3L2463,1259.2l5.7-22.2c0.1-0.3,0.1-0.5,0.2-0.8l0.8-2.9
						c1.1-9.6-11.2-28.2-48.9-52.2c-104.3-66.4-341.5-138.3-604.3-183.1c-256.8-43.8-494.2-55.3-619.8-30.1
						c-52.3,10.5-72.8,25.5-74.6,35.9c0,0.2-0.1,0.6-0.1,1c0,0.7,0,1.3-0.1,2l-1.9,20.3L958,2731.2c31.9-13.9,82.2-21.7,151.8-23.7
						C1121.1,2707.2,1132.8,2707,1144.9,2707z"/>
				</g>
			</g>
			<g>
				<g>
					<path class="st3" d="M2454,975.8c-136.8-71.1-361-146.5-616.4-192c-252.6-44.9-479.4-50.6-625.9-30.8l73-153.6
						c14.8-31.2,44.9-52.3,79.3-55.5c137.5-12.9,312.6-8.7,502.5,25.1c117.2,20.9,227.9,50.9,326.7,85
						c69.8,24.1,133.6,50.4,189.5,77c31.1,14.8,52.2,44.8,55.4,79.2L2454,975.8z"/>
				</g>
			</g>
			<g class="st7">
				<g>
					<path class="st5" d="M2442.5,965.3c-15.1-7.9-55.9-26.1-73.1-34l-12-125c-3.3-34.4-24.3-64.4-55.4-79.2
						c-55.9-26.6-89.8-65.8-159.6-90c-98.7-34.2-209.7-55.7-326.9-76.6c-189.8-33.9-370.1-23.2-507.6-10.3c-0.7,0.1-1.3,0.1-2,0.3
						c13.6-9.5,29.7-15.5,46.7-17.1c137.5-12.9,312.7-8.7,502.5,25.2c117.2,20.9,227.9,50.9,326.7,85c69.8,24.1,133.6,50.4,189.5,77
						c31.1,14.8,52.2,44.9,55.5,79.2L2442.5,965.3z"/>
				</g>
			</g>
			<g class="st4">
				<g>
					<path class="st6" d="M1841.6,564.8c-121.1-11-232-10.1-325.5-1.4c-34.4,3.3-64.5,24.3-79.3,55.5l-58.6,123.3
						c-62.7,0.5-118.8,4.3-166.5,10.8l73-153.6c14.8-31.2,45-52.3,79.3-55.5C1495.5,531.6,1661.4,534.9,1841.6,564.8z"/>
				</g>
			</g>
			<g>
				<g>
					<path class="st6" d="M2569.9,1227.5c-0.8,0-1.6-0.1-2.5-0.2c-8.3-1.4-14-9.2-12.6-17.6c1.9-12-9.9-29.9-32.5-49.1
						c-83.2-70.8-333.7-175.6-687.2-238.6c-356.4-63.5-638.4-54.5-749.6-19.3c-43.9,13.9-52.2,28.3-53.7,33.8
						c-2.2,8.2-10.6,13-18.8,10.8c-8.2-2.2-13-10.6-10.8-18.8c6.3-23.3,30.5-41.3,74-55c140.1-44.4,454.4-36.8,764.2,18.4
						c312.6,55.7,594.5,154.4,701.6,245.4c32.3,27.5,46.7,53.5,42.8,77.3C2583.7,1222.1,2577.2,1227.5,2569.9,1227.5z"/>
				</g>
			</g>
			<g class="st4">
				<g>
					<path class="st6" d="M2539.2,1169.7l-19.7,26.6c-9.3,6.4-21.7,11.9-36.9,16.8c-5.1-9.3-13.8-18.8-25.6-28.7l-0.1,0
						c-7.5-6.2-16.3-12.5-26.3-18.9c-103.3-65.8-335.6-138.7-611.1-185.8c-266.8-45.5-503.5-54.7-626.5-30
						c-53.2,10.7-85.2,27.7-89.1,50.9c-0.2,1.4-0.4,2.8-0.4,4.3l-1.9,20.3c-31.3-17.4-54.8-34.5-69.2-50.6l-7.9-21.7l-7.5-20.5
						c4.8-17.9,27.2-32.9,63.8-44.4c127.6-40.4,427.5-39.8,756.9,18.8c333.5,59.5,599.1,160.9,694.4,242c2,1.7,3.9,3.4,5.8,5.1
						C2539.6,1159.5,2540,1164.8,2539.2,1169.7z"/>
				</g>
			</g>
			<g>
				<g>
					<path class="st6" d="M2454,994.1c-2.9,0-5.8-0.7-8.5-2.1c-149.1-77.5-377.6-148.6-611.1-190.2c-229.2-40.8-461-52.2-620.2-30.7
						c-6.7,0.9-13.3-1.9-17.3-7.4c-4-5.4-4.7-12.6-1.8-18.7l73-153.6c17.5-36.8,53.6-62.1,94.2-65.9
						c154.3-14.5,334.5-5.5,507.4,25.3c111.9,20,222.7,48.8,329.5,85.7c68.2,23.6,132.6,49.8,191.4,77.8
						c36.7,17.5,61.9,53.5,65.8,94l15.8,165.5c0.6,6.7-2.4,13.2-8,17C2461.2,993.1,2457.6,994.1,2454,994.1z M1394.3,723.8
						c135.3,0,291.6,14.3,446.6,41.9c222,39.6,439.9,105.6,591.7,178.8L2419.9,812c-2.6-27.7-19.9-52.3-45.1-64.3
						c-57.5-27.4-120.7-53.1-187.6-76.2c-104.9-36.3-213.9-64.7-323.9-84.3c-169.7-30.2-346.4-39.1-497.6-24.9
						c-27.8,2.6-52.4,19.9-64.4,45.1l-58.7,123.6C1288.8,726.1,1339.8,723.8,1394.3,723.8z"/>
				</g>
			</g>
			<g>
				<g>
					<path class="st6" d="M2227.1,2256.8c-7.5,0-14.1-5.5-15.1-13.2c-6.3-45.5-25.3-79.7-56.5-101.7c-49.3-34.8-132.9-41.4-241.7-19
						c-151,31-274.1-9.6-421.1-307.8c-31.2-63.3-77.5-105.2-137.7-124.6c-140-45.2-310.6,43.9-312.4,44.8c-7.5,4-16.7,1.1-20.7-6.4
						c-4-7.5-1.1-16.7,6.4-20.7c7.4-3.9,183.9-96.1,336.1-46.9c68.3,22.1,120.7,69.2,155.7,140.2c139,281.8,247.3,320.2,387.5,291.4
						c119-24.5,208.3-16.4,265.5,24c38.3,27.1,61.6,68.2,69.1,122.4c1.2,8.4-4.7,16.1-13,17.3
						C2228.5,2256.7,2227.8,2256.8,2227.1,2256.8z"/>
				</g>
			</g>
			<g class="st4">
				<g>
					<path class="st6" d="M1020.4,957.3l-2.9-7.3c-1.5-5-1.9-10-1.1-14.7l0.7-2.9l23.7-104.9l0.8-3.9l0.1-0.2
						c9.3-32.3,71.5-57.2,170.1-70.5c22.9-3.1,47.7-5.6,74.3-7.4c0,0-74.7,39.9-2,115.4C1144,870.4,1004.5,880,1020.4,957.3z"/>
				</g>
			</g>
			<g class="st1">
				<g>
					<path class="st5" d="M1648.8,1684.2c-57.9-9.6-47.7-116.3-24.8-254.6s49.8-255.7,107.7-246.1c57.9,9.6,55.7,124.4,32.8,262.6
						S1706.7,1693.8,1648.8,1684.2z"/>
				</g>
			</g>
			<g class="st4">
				<g>
					<path class="st6" d="M1367.3,2701.8c-212.5-25.6-381.5-18.7-426.9,18.1l89.7-943.3l4.9-51.7c0,0,167.2-88.6,312.3-49.3l-7,51.1
						l-105.5,760c-1.6,11.6-2.3,23.2-2,34.8c0.6,20,4.2,39.7,11.3,58.5C1264.5,2633.9,1306.8,2671.5,1367.3,2701.8z"/>
				</g>
			</g>
			<g class="st4">
				<g>
					<path class="st6" d="M1422.2,1136.1l-74.4,536.3c-145.1-39.3-312.3,49.3-312.3,49.3l62.5-658.1l1.1-11.7l2.5-26.6l1.9-20.3
						c0-1.4,0.1-2.9,0.4-4.3c3.9-23.2,35.9-40.2,89.1-50.9c96.1-19.3,261.5-18,456.4,5.3C1640.8,955.5,1467.6,955.8,1422.2,1136.1z"
						/>
				</g>
			</g>
			<g class="st4">
				<g>
					<path class="st6" d="M2025.2,2936.1c-154.6,74.6-411.5,35.2-671.5-16.1l5.5-60.6c234.7,52.2,454.4,86,604.2,35.5
						C1994.9,2901.4,2014.1,2919.7,2025.2,2936.1z"/>
				</g>
			</g>
		</g>
		<g>
			<g>
				<g>
					<path class="st9" d="M3254.7,2754.6c7.2,169.5-288.2,287.3-658.1,303c-369.9,15.7-674.2-76.6-681.3-246.2
						c-3.8-89.4,76.1-173.3,206.7-235.1c117.1-55.4,275.1-92.9,450-100.3c159.9-6.8,307.8,12.7,424.8,50.7
						C3150.4,2576.6,3250.7,2658.4,3254.7,2754.6z"/>
				</g>
			</g>
			<g>
				<g>
					<path class="st10" d="M3135.5,2601.4c-32.9-29.1-80.8-54.4-139.8-74.6c0,0,0.4,0,1,0c33.4,10.8,64.2,23.2,92.2,36.8
						C3106.5,2575.5,3122.1,2588.2,3135.5,2601.4z"/>
				</g>
				<g>
					<path class="st11" d="M3134.4,2602.7c-32.6-28.9-79.5-53.9-139.2-74.3l-8.5-2.9l10.3-0.4l0.3,0.1
						c33.4,10.8,64.5,23.3,92.4,36.9c17.9,12.2,33.7,25,47,38.1L3134.4,2602.7z M3078.1,2560.2c6,3.2,11.8,6.6,17.4,9.9
						c-2.4-1.7-4.9-3.5-7.4-5.2C3084.7,2563.4,3081.4,2561.8,3078.1,2560.2z"/>
				</g>
			</g>
			<g>
				<g>
					<path class="st12" d="M3254.7,2754.6c7.2,169.5-288.2,287.3-658.1,303c-369.9,15.7-674.2-76.6-681.3-246.2
						c-3.8-89.4,76.1-173.3,206.7-235.1l2.1,0.2c-92.8,46.7-147.8,105.4-145.2,167c2.4,57.5,54.3,100.2,139.1,129.1
						c76.5,21,155.6,34.5,237.1,41.6l-10.4-27.8c-2.8-7.5-0.5-15.9,5.8-20.9l22.4-17.8c4.2-3.3,9.2-5.6,14.4-6.5l37.9-6.6
						c3.9-0.7,5.6,4.7,2.1,6.4l-16.8,8.4c-5.3,2.6-9.8,6.8-12.8,11.9l-8.8,15c-4.5,7.8-3.3,17.6,2.9,24.1l16.9,17.4
						c92.1,4.8,187,1.9,284.3-7.5c283.8-24.3,497.5-98.5,492.4-218.1c-2.9-68-75.4-126.4-189.9-165.6c0,0,0.4,0,1,0
						C3150.4,2576.6,3250.7,2658.4,3254.7,2754.6z"/>
				</g>
			</g>
			<g class="st4">
				<g>
					<path class="st11" d="M3243.9,2749.4c7.2,169.5-288.2,287.3-658.1,303c-256.2,10.9-480.9-30.1-597.2-112.6
						c125.1,59.1,319.7,87.2,537,78c369.8-15.7,665.2-133.4,658.1-303c-0.9-21.4-6.5-42-16.5-61.8c0,0,0,0,0-0.1
						c-8.1-20-22.4-38.9-42.2-56.5c-0.1-0.1-0.2-0.2-0.3-0.3c-32.9-29.1-80.8-54.4-139.8-74.6c0,0,0.4,0,1,0
						c33.4,10.8,64.2,23.2,92.2,36.8C3178.5,2607.6,3240.7,2674.1,3243.9,2749.4z"/>
				</g>
			</g>
			<g>
				<g>
					<path class="st12" d="M2351,2635.1l-46.1,2l-34.9-31.9l-97.5,20.8l-91.8-28.4l-63.4,34.3l145.8,11.2l99.4-11.5l47.7,27.8
						l42.4-16C2357.2,2641.6,2355.8,2634.9,2351,2635.1z"/>
				</g>
			</g>
			<g>
				<g>
					<path class="st12" d="M2767.9,2481.1l-41.7,45.5l-47.4,10.6c-10.1,2.2-17.6,10.7-18.7,20.9l-4.7,42.9c-0.4,3.8,4.8,5.2,6.3,1.7
						l22-49.8l77.7-9.3l67.2-55.1L2767.9,2481.1z"/>
				</g>
			</g>
			<g class="st7">
				<g>
					<path class="st5" d="M3229,2676.7c-44.1-50.7-118.4-93.3-212.7-123.9c-117-38-264.9-57.4-424.8-50.7
						c-174.9,7.4-332.8,44.9-450,100.3c-130.6,61.7-210.5,145.7-206.7,235.1c1.1,25.1,8.6,48.5,22,70.1
						c-25.5-28.5-40-60.6-41.5-96.2c-3.8-89.4,76.1-173.3,206.7-235.1c117.1-55.4,275.1-92.9,450-100.3
						c159.9-6.8,307.8,12.7,424.8,50.7C3106.8,2562.4,3189.5,2614.6,3229,2676.7z"/>
				</g>
			</g>
			<g>
				<g>
					<polygon class="st12" points="2760.9,2738.7 2875.7,2754.5 2900.8,2792.4 2970.3,2796.9 3077.5,2843.8 2983.7,2876.5 
						2954.4,2818.3 2871.1,2830.4 2864,2769.4 2762.4,2772.9 					"/>
				</g>
			</g>
			<g>
				<g>
					<path class="st11" d="M2516.8,3071.1c-154.1,0-294.1-19.4-400.6-56c-135.4-46.5-208.9-116.7-212.6-203.1
						c-3.7-86.8,65-170.8,193.3-236.3c125.5-64.1,294-103.6,474.6-111.3c180.6-7.7,351.8,17.4,482.3,70.7
						c133.4,54.4,209,132.3,212.6,219.1l0,0c3.7,86.4-63.6,162.6-194.6,220.4c-120.7,53.3-289.3,86.9-474.7,94.8
						C2570.1,3070.5,2543.2,3071.1,2516.8,3071.1z M2635,2486.5c-20.7,0-41.5,0.4-62.5,1.3c-177.2,7.5-342.3,46.1-464.9,108.7
						c-119.7,61.1-183.8,137.3-180.6,214.4c4.1,95.9,109.2,151.9,196.8,181.9c122.1,41.9,289.8,60.7,472.4,53
						c182.5-7.7,348.1-40.7,466.2-92.8c84.7-37.4,184.7-102,180.6-198l0,0c-3.3-77.1-73.6-147.6-198.1-198.4
						C2932.6,2510.9,2788.9,2486.5,2635,2486.5z"/>
				</g>
			</g>
			<g>
				<g>
					<path class="st11" d="M2117,2875.8c-18.2-3.3-35.9-8.7-53.1-16c-17.1-7.4-33.7-16.7-48.6-28.9c-14.7-12.3-28-27.4-36.2-45.7
						l-3-6.8c-0.8-2.4-1.6-4.8-2.4-7.1c-1.8-4.7-2.4-9.7-3.5-14.6c-1.4-9.9-1.8-20-0.5-29.8c2.3-19.8,9.9-38.5,20.3-54.7
						c10.3-16.3,23.2-30.4,37.1-43c13.9-12.6,28.9-23.7,44.4-33.9c15.6-10.1,31.7-19,48.1-27.5c4.9-2.5,11-0.6,13.5,4.3
						c2.5,4.9,0.6,11-4.3,13.5l-0.1,0.1c-15.8,8.1-31.4,16.8-46.2,26.4c-14.8,9.7-28.9,20.2-41.9,31.9
						c-12.9,11.7-24.6,24.6-33.7,38.9c-9.1,14.3-15.4,30-17.3,46.2c-1.1,8.1-0.7,16.3,0.4,24.3c1,3.9,1.4,8,3,11.8l2,5.7l2.6,5.5
						c1.5,3.8,4.1,7.1,6,10.6c2.5,3.3,4.8,6.7,7.5,9.8c2.9,3,5.4,6.3,8.6,9.2l4.5,4.4c1.6,1.4,3.3,2.7,4.9,4.1
						c26,22.1,58,38.1,90,55c1.7,0.9,2.3,2.9,1.4,4.6C2119.9,2875.4,2118.4,2876.1,2117,2875.8z"/>
				</g>
			</g>
			<g>
				<g>
					<path class="st11" d="M2452,2922.2c-14.9,2.9-29.9,3.8-44.9,4.3c-15,0.2-29.9-0.1-44.8-1.4c-7.5-0.6-14.9-1.2-22.3-2.2
						c-7.4-0.8-14.8-1.9-22.2-3.1c-14.8-2.5-29.5-5.4-43.9-9.9c-1.8-0.5-2.8-2.5-2.3-4.2c0.4-1.4,1.7-2.3,3.1-2.4
						c15-0.6,29.9-0.3,44.7,0c7.4,0.2,14.8,0.4,22.2,0.8c7.4,0.2,14.8,0.7,22.1,1.1c14.8,0.6,29.5,1.9,44.2,3.4
						c14.7,1.7,29.5,3.5,44.3,6.9c1.8,0.4,3,2.3,2.6,4.1C2454.4,2920.9,2453.3,2921.9,2452,2922.2z"/>
				</g>
			</g>
			<g>
				<g>
					<path class="st11" d="M2999,2517.3c33.6,11.7,66.7,25.7,97.7,44c15.5,9.2,30.4,19.7,44.2,31.6c13.9,11.9,26.4,25.9,36.3,41.9
						c9.9,16,16.7,34.6,18,53.9c1.8,19.3-2.7,39.1-11.4,56.1c-8.6,17.2-21.1,31.7-34.8,44c-13.8,12.3-28.9,22.6-44.5,31.6
						c-15.6,9-31.8,17-48.3,23.9c-16.5,6.9-33.1,13.4-50,19c-33.7,11.4-68.1,20.4-102.7,27.8c-69.3,14.4-139.8,22-210.2,22.7
						c-1.9,0-3.4-1.5-3.4-3.3c0-1.7,1.2-3.1,2.8-3.4c69.3-11.3,138.3-22.1,206.3-37c34-7.3,67.8-15.7,100.7-26.4
						c32.9-10.6,65.1-23.6,94.6-40.7c14.7-8.5,28.8-18.1,41.2-29.2c12.4-11.1,23.1-23.8,30.2-38c7.2-14.2,10.8-29.9,9.3-45.6
						c-1.1-15.7-6.6-31-15.1-44.8c-8.5-13.8-19.6-26.4-32.4-37.3c-12.7-10.9-26.6-20.8-41.3-29.5c-29.4-17.3-61.3-30.9-94-42.2
						l-0.1,0c-5.2-1.8-8-7.5-6.2-12.8S2993.7,2515.5,2999,2517.3L2999,2517.3z"/>
				</g>
			</g>
			<g class="st4">
				<g>
					<path class="st11" d="M2132.6,2776.2c53.6,108.4,291.7,78.7,193.9,1.6L2132.6,2776.2z"/>
				</g>
			</g>
			<g class="st4">
				<g>
					<path class="st11" d="M2258.8,2541.8c53.6,108.4,291.7,78.7,193.9,1.6L2258.8,2541.8z"/>
				</g>
			</g>
			<g class="st4">
				<g>
					<path class="st11" d="M2639.9,2778.1c53.6,108.4,254,53.6,156.1-23.6L2639.9,2778.1z"/>
				</g>
			</g>
			<g class="st4">
				<g>
					<path class="st11" d="M2849.2,2630.6c53.6,108.4,222.6,48.1,124.7-29.1L2849.2,2630.6z"/>
				</g>
			</g>
			<g class="st4">
				<g>
					<path class="st11" d="M2489.6,2666.6c31.1,63,143.5,34.1,86.7-10.7L2489.6,2666.6z"/>
				</g>
			</g>
			<g>
				<g>
					<path class="st13" d="M2966.4,2645.2c15.5-6.9,20.1-26.8,10-40.5c-34.9-47.4-101.3-40.9-125.8-7.4c-8.5,11.4-6.3,23.8,5.3,27.9
						c3.6,1.3,7.4,1.5,11.1,0.9c5.2-0.9,18.6-1,30.5,16.7C2902.3,2649.7,2941.6,2656.2,2966.4,2645.2z"/>
				</g>
				<g>
					<path class="st11" d="M2933.9,2652.8c-18,0-34.4-4.3-37.7-9.2c-11.3-16.8-24-16.8-28.9-16c-4.2,0.7-8.3,0.4-12-0.9
						c-5.5-1.9-9.3-5.7-10.8-10.7c-1.8-6-0.1-13.2,4.8-19.7c12.3-16.8,35.2-27.3,59.8-27.3c0,0,0.1,0,0.1,0
						c27.3,0,52.3,12.6,68.5,34.7c5.3,7.2,7,16.2,4.7,24.8c-2.2,8.2-7.8,14.8-15.4,18.2l0,0
						C2957.3,2651.1,2945.3,2652.8,2933.9,2652.8z M2870.8,2624.1c6.9,0,18.1,2.7,28.2,17.7c4.1,6.1,42.5,12.7,66.7,1.9
						c6.7-3,11.7-8.8,13.6-16c2-7.6,0.5-15.6-4.2-21.9c-15.6-21.2-39.6-33.3-65.8-33.3c0,0-0.1,0-0.1,0c-23.6,0-45.4,10-57.1,25.9
						c-4.2,5.7-5.8,11.8-4.3,16.8c1.2,4,4.2,6.9,8.8,8.5c3.1,1.1,6.7,1.4,10.3,0.8C2867.9,2624.2,2869.2,2624.1,2870.8,2624.1z"/>
				</g>
			</g>
			<g class="st7">
				<g>
					<path class="st5" d="M2981.2,2626.6c-0.3-0.5-0.7-1-1-1.5c-34.9-47.4-101.3-40.9-125.7-7.4c-1.3,1.7-2.3,3.4-3.1,5.1
						c-7.4-5.4-7.9-15.8-0.7-25.5c24.4-33.4,90.9-40,125.7,7.4C2981.3,2611.3,2982.7,2619.3,2981.2,2626.6z"/>
				</g>
			</g>
			<g>
				<g>
					<path class="st13" d="M2304.2,2805.9c23.3-10.4,30.2-40.1,15.1-60.7c-52.2-71-151.8-61.3-188.4-11.1
						c-12.8,17.1-9.5,35.6,7.9,41.7c5.3,1.9,11.1,2.2,16.7,1.3c7.8-1.3,27.9-1.5,45.7,25C2208.2,2812.5,2267.1,2822.4,2304.2,2805.9
						z"/>
				</g>
				<g>
					<path class="st11" d="M2255.3,2816.5c-26.6,0-50.7-6.3-55.5-13.4c-17.2-25.6-36.6-25.5-44.1-24.3c-6.1,1-12.1,0.5-17.5-1.4
						c-8-2.8-13.5-8.3-15.7-15.5c-2.7-8.8-0.1-19.3,7-28.8c18.2-25,52.3-40.5,88.9-40.6c0.1,0,0.1,0,0.2,0
						c40.7,0,77.8,18.8,102,51.7c7.7,10.5,10.3,23.8,6.9,36.4c-3.2,12-11.4,21.8-22.7,26.8
						C2290.3,2813.9,2272.3,2816.5,2255.3,2816.5z M2161,2775c10.1,0,26.7,4,41.6,26.2c6.2,9.3,64.5,19.4,101,3.1l0,0
						c10.3-4.6,17.9-13.5,20.8-24.6c3.1-11.6,0.7-23.8-6.4-33.5c-23.5-32-59.7-50.3-99.3-50.3c-0.1,0-0.1,0-0.2,0
						c-35.6,0.1-68.6,15.1-86.2,39.2c-6.5,8.7-8.9,18.1-6.5,25.9c1.9,6.2,6.6,10.8,13.6,13.3c4.8,1.7,10.3,2.1,15.9,1.2
						C2156.7,2775.2,2158.7,2775,2161,2775z"/>
				</g>
			</g>
			<g class="st7">
				<g>
					<path class="st5" d="M2326,2779.8c-1.3-3.8-3.2-7.4-5.7-10.9c-52.3-71-151.8-61.3-188.5-11.1c-2.2,3-4,6-5.2,9
						c-5.7-8.6-4.5-21,4.2-32.7c36.7-50.2,136.2-59.9,188.5,11.1C2327,2755.6,2329,2768.3,2326,2779.8z"/>
				</g>
			</g>
			<g>
				<g>
					<path class="st11" d="M2254.9,2824.6c-28.4,0-55.1-6.6-62-16.9c-14.5-21.6-29.9-21.7-35.7-20.7c-7.5,1.2-15,0.6-21.7-1.7
						c-10.5-3.7-18-11.1-21-21c-3.5-11.3-0.4-24.6,8.3-36.3c19.7-27,56.4-43.9,95.6-43.9c0.1,0,0.1,0,0.2,0
						c43.4,0,83,20.1,108.8,55.1c9.3,12.6,12.3,28.4,8.3,43.5c-3.8,14.5-13.8,26.3-27.3,32.3l0,0
						C2293.3,2821.7,2273.7,2824.6,2254.9,2824.6z M2209.3,2796.2c7.7,6.6,58.2,15.1,90.8,0.5c0,0,0,0,0,0
						c8.1-3.6,13.8-10.4,16.1-19.1c2.4-9.2,0.6-18.8-5-26.4c-21.9-29.8-55.7-46.9-92.6-46.9c-0.1,0-0.1,0-0.2,0
						c-32.9,0-63.4,13.8-79.5,35.8c-4.9,6.6-6.8,13.3-5.3,18.5c1.1,3.6,3.9,6.3,8.4,7.8c3.5,1.2,7.6,1.5,11.7,0.8
						C2163.5,2765.6,2188.3,2765.2,2209.3,2796.2z M2209.2,2796L2209.2,2796z"/>
				</g>
			</g>
			<g>
				<g>
					<path class="st11" d="M2933.5,2661.2c-20.1,0-39-5.1-44.2-12.9c-8.6-12.8-17.2-12.9-20.5-12.4c-5.6,0.9-11.1,0.5-16.1-1.3
						c-8-2.8-13.8-8.6-16.1-16.2c-2.6-8.6-0.4-18.5,6.1-27.2c13.8-18.8,39.3-30.6,66.5-30.6c0,0,0.1,0,0.1,0
						c30,0,57.4,13.9,75.3,38.1c6.8,9.2,9,20.8,6.1,31.9c-2.8,10.7-10.2,19.3-20.1,23.8h0
						C2959.8,2659.2,2946.4,2661.2,2933.5,2661.2z M2966.4,2645.2L2966.4,2645.2L2966.4,2645.2z M2905.4,2636.3
						c6.1,3.7,36.9,8.6,56.9-0.3c4.4-2,7.6-5.7,8.9-10.5c1.4-5.1,0.3-10.5-2.8-14.8c-14-19-35.5-29.9-59.1-29.9c0,0-0.1,0-0.1,0
						c-20.9,0-40.2,8.7-50.4,22.5c-3.1,4.1-3.6,7.6-3,9.4c0.2,0.5,0.6,2,3.5,3c1.8,0.6,4,0.8,6.2,0.4
						C2872.5,2615,2890.4,2614.6,2905.4,2636.3z M2905,2636L2905,2636z"/>
				</g>
			</g>
			<g>
				<g>
					<path class="st13" d="M2796.1,2754.5c-13.3-88-109.1-74.4-151.1-10.1c-13,19.9-2.5,46.1,20.6,51.5c32.5,7.5,75.2,4.7,105.2-2.9
						C2787.8,2788.6,2798.7,2771.9,2796.1,2754.5z"/>
				</g>
				<g>
					<path class="st11" d="M2708.8,2801.9c-15,0-30-1.3-43.5-4.5c-11.6-2.7-20.7-10.4-25-21.3s-3.1-22.8,3.4-32.7
						c24.5-37.4,68.1-59,103.7-51.2c27.4,6,45.3,28,50.4,62c2.8,18.4-8.6,35.7-26.5,40.3C2754.2,2798.9,2731.6,2801.9,2708.8,2801.9
						z M2732.2,2694c-31.1,0-65.3,19.9-85.9,51.3c-5.9,9-7,19.8-3.1,29.6c3.9,9.8,12.2,16.9,22.7,19.3c33.6,7.8,76.6,4.2,104.4-2.9
						c16.2-4.1,26.5-19.8,24-36.5l0,0c-4.9-32.6-21.9-53.6-47.9-59.3C2741.9,2694.5,2737.1,2694,2732.2,2694z"/>
				</g>
			</g>
			<g class="st7">
				<g>
					<path class="st5" d="M2789.8,2731.3c-33.5-35.5-98.9-16.2-131.7,33.9c-5.2,7.9-6.6,16.8-5,25c-13.9-10.1-18.5-30-8.2-45.8
						C2682.9,2686.5,2764.4,2669.7,2789.8,2731.3z"/>
				</g>
			</g>
			<g>
				<g>
					<path class="st11" d="M2708.8,2810.4c-15.3,0-30.9-1.4-45.5-4.7c-14.3-3.3-25.5-12.9-30.9-26.3c-5.4-13.4-3.9-28.2,4.1-40.4
						c26.3-40.2,73.6-63.3,112.5-54.8c18,3.9,49.3,18.1,56.9,69l0,0c3.4,22.7-10.6,44-32.7,49.7
						C2756.7,2806.9,2733.2,2810.4,2708.8,2810.4z M2732,2702.3c-28.2,0-59.6,18.5-78.7,47.5c-4.4,6.7-5.2,14.7-2.3,21.9
						c2.9,7.3,9,12.4,16.8,14.2c32.2,7.5,73.7,3.9,100.5-2.9c11.8-3,19.6-14.9,17.8-27.2l0,0c-4.4-29.3-18.7-47.4-41.4-52.3
						C2740.6,2702.8,2736.4,2702.3,2732,2702.3z"/>
				</g>
			</g>
			<g>
				<g>
					<path class="st13" d="M2450.2,2529.8c-15.4-87.9-132.5-73.4-184.5-8.7c-16.1,20-3.4,46.2,24.7,51.3c39.7,7.2,91.8,4,128.6-3.9
						C2439.9,2564,2453.3,2547.2,2450.2,2529.8z"/>
				</g>
				<g>
					<path class="st11" d="M2340.3,2578.1c-17.3,0-34.5-1.2-50.1-4c-15.1-2.8-26.8-11.6-31.3-23.7c-3.8-10.2-1.8-21.2,5.6-30.3
						c32.3-40.1,89.8-61.9,133.8-50.6c29.1,7.5,48.2,28.8,53.7,60.1l0,0c3.2,18.4-10.7,35.9-32.5,40.6
						C2397.9,2574.8,2369.1,2578.1,2340.3,2578.1z M2373.5,2469.8c-38.1,0-80.6,20.1-106.5,52.3c-6.6,8.2-8.4,18-5,27.1
						c4.1,10.9,14.8,19,28.8,21.5c41.1,7.5,93.8,3.4,127.9-3.9c20-4.3,32.8-20.1,29.9-36.7l0,0c-6.7-38.3-31.6-52.3-51.2-57.4
						C2389.8,2470.8,2381.8,2469.8,2373.5,2469.8z"/>
				</g>
			</g>
			<g class="st7">
				<g>
					<path class="st5" d="M2441.5,2504c-41.9-29.8-117.4-9.5-156.3,38.9c-6.6,8.2-8.4,17.4-6.2,25.8c-19.7-9.2-26.8-30.6-13.2-47.6
						C2311.9,2463.7,2409.4,2445.8,2441.5,2504z"/>
				</g>
			</g>
			<g>
				<g>
					<path class="st11" d="M2340.2,2586.5c-17.8,0-35.5-1.2-51.5-4.2c-18-3.3-32.1-14.1-37.6-29c-4.8-13-2.3-27,6.9-38.5
						c34.2-42.5,95.4-65.5,142.4-53.4c32.5,8.4,53.8,32.1,59.8,66.7c4,23-12.7,44.6-39,50.2
						C2399.2,2583.1,2369.7,2586.5,2340.2,2586.5z M2374,2478.3c-35.6,0-76.3,19.2-100.4,49.1c-4.7,5.9-6,12.6-3.7,18.9
						c3,8.1,11.4,14.2,22.4,16.2c39.9,7.3,91.4,3.3,124.6-3.8c15.2-3.3,25.5-15.2,23.4-27.1l0,0c-5.9-33.9-27.8-46.3-45-50.7
						C2388.6,2479.1,2381.4,2478.3,2374,2478.3z"/>
				</g>
			</g>
			<g>
				<g>
					<path class="st13" d="M3102.5,2707.7c-20.3,13.4-36.2,27.2-45.3,41.6c-13.2,21.2-3.8,49.3,19,59.6c33.3,15,64,16.7,89.1-9.5
						c18-18.8,24.3-46.3,16.3-71c-6-18.4-18.2-30.8-40.1-31.9C3127.7,2695.9,3114,2700.1,3102.5,2707.7z"/>
				</g>
				<g>
					<path class="st11" d="M3119.4,2821.3c-13.2,0-27.8-3.6-43.9-10.9c-11.6-5.2-20.4-15.2-24.2-27.5c-3.6-11.7-1.9-24.3,4.4-34.5
						c8.6-13.7,23.5-27.5,45.8-42.1c12.2-8,26.4-12.1,40-11.4c20.8,1,34.8,12.1,41.6,33c8.2,25.1,1.6,53.6-16.6,72.7
						C3153.3,2814.4,3137.7,2821.3,3119.4,2821.3z M3138.7,2698.2c-12,0-24.5,3.8-35.3,11l0,0c-21.8,14.3-36.4,27.8-44.8,41.1
						c-6,9.5-7.4,20.8-4.1,31.8c3.4,11.3,11.6,20.5,22.3,25.4c37.4,16.8,65.1,13.9,87.2-9.2c17.4-18.2,23.7-45.4,15.9-69.3
						c-6.4-19.7-19-29.7-38.6-30.7C3140.5,2698.2,3139.6,2698.2,3138.7,2698.2z"/>
				</g>
			</g>
			<g class="st7">
				<g>
					<path class="st5" d="M3179.4,2722.7c-6-4-13.5-6.4-22.6-6.9c-13.8-0.7-27.4,3.6-39,11.2c-20.3,13.4-36.2,27.2-45.2,41.6
						c-7.2,11.4-7.7,24.9-3.1,36.5c-17.8-12.3-24.1-36.8-12.3-55.8c9-14.4,24.9-28.2,45.3-41.6c11.6-7.6,25.2-11.8,39-11.2
						C3161.1,2697.5,3172.9,2707.5,3179.4,2722.7z"/>
				</g>
			</g>
			<g>
				<g>
					<path class="st13" d="M2523.8,2611.8c-12.5,8.2-22.3,16.7-27.8,25.6c-8.1,13-2.3,30.3,11.7,36.6c20.4,9.2,39.3,10.3,54.8-5.9
						c11-11.5,14.9-28.5,10-43.6c-3.7-11.3-11.2-18.9-24.6-19.6C2539.3,2604.5,2530.9,2607.1,2523.8,2611.8z"/>
				</g>
				<g>
					<path class="st11" d="M2534.3,2682.3c-8.2,0-17.3-2.3-27.3-6.8c-7.3-3.3-12.9-9.6-15.2-17.3c-2.2-7.4-1.2-15.3,2.8-21.8
						c5.3-8.5,14.6-17,28.3-26.1l0,0c7.6-5,16.4-7.5,25-7.1c13.1,0.6,21.9,7.6,26.2,20.7c5.1,15.6,1,33.4-10.4,45.3
						C2555.4,2678,2545.6,2682.3,2534.3,2682.3z M2524.8,2613.2c-13.3,8.8-22.3,17-27.3,25.1c-3.6,5.7-4.4,12.5-2.4,19
						c2.1,6.8,6.9,12.3,13.4,15.2c22.7,10.2,39.5,8.5,52.9-5.5c10.6-11,14.3-27.5,9.6-41.9c-3.9-11.8-11.4-17.8-23.1-18.4
						C2539.9,2606.2,2531.8,2608.6,2524.8,2613.2L2524.8,2613.2z"/>
				</g>
			</g>
			<g class="st7">
				<g>
					<path class="st5" d="M2574.4,2634.6c-4.3-5.6-10.6-9.1-19.5-9.5c-8.5-0.4-16.9,2.2-24,6.9c-12.5,8.2-22.2,16.7-27.8,25.6
						c-2.1,3.3-3.3,7-3.6,10.7c-7.7-8.1-9.7-20.7-3.4-30.8c5.5-8.9,15.3-17.4,27.8-25.6c7.1-4.7,15.5-7.3,24-6.9
						c13.5,0.7,21,8.3,24.6,19.6C2573.5,2627.8,2574.2,2631.2,2574.4,2634.6z"/>
				</g>
			</g>
			<g>
				<g>
					<path class="st11" d="M3119.7,2829.8c-14.4,0-30.2-3.9-47.7-11.8c-13.8-6.2-24.3-18.1-28.7-32.7c-4.3-14-2.3-29.1,5.3-41.4
						c9.2-14.8,25-29.4,48.3-44.7l0,0c13.9-9.1,29.5-13.6,45-12.8c24.3,1.2,41.3,14.6,49.2,38.8c9.3,28.4,2.1,59.5-18.6,81.1
						C3157.6,2822,3140.1,2829.8,3119.7,2829.8z M3138.7,2706.5c-10.4,0-21.2,3.4-30.7,9.6l0,0c-20.8,13.7-34.6,26.3-42.3,38.5
						c-4.7,7.5-5.8,16.3-3.2,24.9c2.7,9,9.2,16.3,17.7,20.2c34.2,15.4,58.2,13.1,77.7-7.3c15.3-16,20.8-39.9,14-60.9
						c-5.3-16.2-15.2-24.1-31-24.9C3140.2,2706.6,3139.4,2706.5,3138.7,2706.5z M3102.5,2707.7L3102.5,2707.7L3102.5,2707.7z"/>
				</g>
			</g>
			<g>
				<g>
					<path class="st11" d="M2534.4,2690.7c-9.4,0-19.7-2.5-30.8-7.5c-9.5-4.3-16.7-12.5-19.8-22.5c-2.9-9.7-1.6-20.1,3.7-28.6
						c6-9.6,16-18.9,30.8-28.6l0,0c9.2-6.1,19.6-9,30-8.5c16.7,0.8,28.3,10,33.7,26.5c6.1,18.8,1.4,39.4-12.3,53.7
						C2559.8,2685.5,2548,2690.7,2534.4,2690.7z M2529.4,2620.2c-12.1,8-20.5,15.5-24.8,22.5c-2.3,3.6-2.8,7.9-1.5,12.1
						c1.4,4.4,4.6,8.1,8.8,10c19.5,8.8,32.5,7.7,43.4-3.6c8.4-8.8,11.5-22,7.7-33.6c-2.8-8.5-7.4-12.2-15.6-12.6
						C2541.2,2614.6,2534.9,2616.6,2529.4,2620.2L2529.4,2620.2z"/>
				</g>
			</g>
			<g>
				<g>
					<polygon class="st12" points="2404.6,2775.4 2426.8,2745.7 2474.1,2733.9 2514.5,2711.3 2481.7,2751.2 2445.8,2758.5 					"/>
				</g>
			</g>
		</g>
		<g>
			<g>
				<g>
					<path class="st9" d="M1840.4,2232.5c49,162.5,366.7,176.4,721.1,69.5c354.4-106.9,611.4-294.2,562.4-456.7
						c-25.8-85.6-128.9-138.6-272.5-153.9c-128.8-13.7-290.3,2.8-457.9,53.4C2240.2,1791,2107,1858,2009,1932.4
						C1880.4,2030,1812.6,2140.2,1840.4,2232.5z"/>
				</g>
			</g>
			<g>
				<g>
					<path class="st10" d="M1902.6,2048.6c21.5-38.3,58.4-78,107.4-116.5c0,0-0.4,0.1-1,0.3c-27.9,21.2-53,43-74.9,65.1
						C1921.5,2014.6,1910.9,2031.6,1902.6,2048.6z"/>
				</g>
				<g>
					<path class="st11" d="M1904,2049.4l-3-1.6c8.3-16.8,19-34.1,31.7-51.3c22-22.3,47.3-44.2,75.2-65.5l0.5-0.3l9.5-2.8l-6.9,5.5
						C1961.4,1972.4,1925.4,2011.4,1904,2049.4z M1943.1,1990.9c-2.7,2.6-5.3,5.2-7.8,7.8c-1.8,2.4-3.5,4.9-5.3,7.3
						C1934.2,2001,1938.5,1995.9,1943.1,1990.9z"/>
				</g>
			</g>
			<g>
				<g>
					<path class="st12" d="M1840.4,2232.5c49,162.5,366.7,176.4,721.1,69.5c354.4-106.9,611.4-294.2,562.4-456.7
						c-25.8-85.6-128.9-138.6-272.5-153.9l-1.9,0.9c103,13.6,174.3,50.9,192.1,109.9c16.6,55.1-18.3,112.5-88.9,167.7
						c-65.3,45-135.6,83.8-210.2,117.3l0.7-29.6c0.2-8-4.8-15.2-12.4-17.8l-27-9.4c-5.1-1.8-10.5-2.2-15.8-1.4l-37.9,6.3
						c-3.9,0.6-3.8,6.3,0.1,6.7l18.6,2.4c5.9,0.7,11.5,3.2,16,7.1l13.2,11.3c6.9,5.9,9,15.6,5.2,23.7l-10.3,22.1
						c-85.4,34.9-176,63.3-271,86.5c-276,70.4-502.2,70.7-536.7-43.9c-19.6-65.1,29.6-144.2,124.8-218.9c0,0-0.4,0.1-1,0.3
						C1880.4,2030,1812.6,2140.2,1840.4,2232.5z"/>
				</g>
			</g>
			<g class="st4">
				<g>
					<path class="st11" d="M1840.4,2232.5c49,162.5,366.7,176.4,721.1,69.5c245.5-74.1,444.2-186.7,526.9-302.9
						c-98.7,97-273.2,187.5-481.5,250.4c-354.4,106.9-672.1,92.9-721.1-69.5c-6.2-20.5-7.6-41.8-4.8-63.7c0,0,0,0,0-0.1
						c1.1-21.5,8.4-44.2,21.3-67.2c0-0.1,0.1-0.2,0.2-0.3c21.5-38.3,58.4-78,107.4-116.5c0,0-0.4,0.1-1,0.3
						c-27.9,21.2-53,43-74.9,65.1C1855.4,2077.1,1818.7,2160.3,1840.4,2232.5z"/>
				</g>
			</g>
			<g>
				<g>
					<path class="st12" d="M2654.5,1822.2l44.2-13.3l22.5-41.6l98.9-12.4l77.3-57l71.2,11.5l-134,58.6l-97.7,21.9l-35.9,41.9
						l-45.3-1.2C2650.8,1830.4,2649.9,1823.6,2654.5,1822.2z"/>
				</g>
			</g>
			<g>
				<g>
					<path class="st12" d="M2210.1,1813.9l54.3,29.2l48.3-5.6c10.2-1.2,20.1,4.3,24.5,13.6l18.5,39c1.6,3.4-2.8,6.4-5.4,3.7
						l-37.1-39.8l-76.5,16.8l-81.6-30L2210.1,1813.9z"/>
				</g>
			</g>
			<g class="st7">
				<g>
					<path class="st5" d="M1839.1,2150.4c25-62.4,81.1-127.1,160.1-187c98-74.4,231.2-141.4,384.4-187.6
						c167.6-50.6,329.1-67.1,457.9-53.4c143.6,15.3,246.7,68.3,272.5,153.9c7.3,24.1,7.8,48.6,2.3,73.5
						c14.7-35.3,17.9-70.4,7.6-104.5c-25.8-85.6-128.9-138.6-272.5-153.9c-128.8-13.7-290.3,2.8-457.9,53.4
						C2240.2,1791,2107,1858,2009,1932.4C1916.8,2002.3,1855.9,2078.7,1839.1,2150.4z"/>
				</g>
			</g>
			<g>
				<g>
					<polygon class="st12" points="2301.5,2054.9 2198.3,2107.6 2187.1,2151.6 2123,2178.7 2037.1,2258.3 2136.5,2258.4 
						2145,2193.8 2227.7,2177.7 2214.3,2117.8 2311.4,2087.7 					"/>
				</g>
			</g>
			<g>
				<g>
					<path class="st11" d="M2149.7,2382.4c-22.3,0-43.7-0.8-64.2-2.5c-142.7-11.5-231.3-61.3-256.3-144.1
						c-25.1-83.2,20.6-181.5,128.7-276.9c105.7-93.2,259.2-173.3,432.2-225.5c173-52.2,345.2-70.3,484.8-51.1
						c142.8,19.7,235.2,76.3,260.3,159.5c48.7,161.5-185.8,355.3-570.2,471.3C2415,2358.5,2270.3,2382.4,2149.7,2382.4z
						 M2759.7,1698.4c-111.9,0-237,19.6-362.9,57.6c-169.8,51.2-320.2,129.6-423.4,220.6c-100.8,88.9-144.1,178.6-121.8,252.5
						c27.7,91.9,143.5,120.1,235.7,127.5c128.6,10.4,295.8-13,470.8-65.8c174.9-52.8,327.1-125.7,428.6-205.5
						c72.7-57.2,153.6-144.6,125.9-236.6c-22.3-73.9-107.9-124.7-241.1-143.1C2836.3,1700.8,2798.8,1698.4,2759.7,1698.4z"/>
				</g>
			</g>
			<g>
				<g>
					<path class="st11" d="M2950.6,1967.2c24.7-26.5,49.6-52.1,66.9-81.6c1.1-1.8,2.2-3.6,3.2-5.5l2.8-5.6c2.1-3.7,3.4-7.7,5.1-11.5
						c1.6-3.9,2.6-7.8,3.9-11.8c0.7-4,2.1-8,2.2-12l0.6-6.1l0-6.1c0.2-4.1-0.7-8-1.1-12.1c-1.6-7.9-3.9-15.8-7.6-23.1
						c-7.1-14.7-18.2-27.5-31.5-38c-13.3-10.5-28.6-18.9-44.6-25.7c-16.1-6.8-32.9-12.1-50-16.4c-17.2-4.2-34.7-7.2-52.3-9.7l-0.2,0
						c-5.5-0.8-9.3-5.9-8.6-11.4s5.9-9.3,11.4-8.6c18.3,2.6,36.5,5.7,54.5,10.1c18,4.5,35.8,10.1,53.1,17.4
						c17.3,7.3,34.1,16.4,49.2,28.4c15.1,11.9,28.4,27,37.1,45c4.5,8.9,7.4,18.5,9.3,28.3c0.5,5,1.6,9.9,1.5,14.9
						c0,2.5,0.1,5,0.1,7.5l-0.6,7.5c-1.8,20-9.4,38.6-19.2,55.1c-10,16.5-22.6,30.7-36.3,43.3c-13.8,12.5-28.8,23.5-44.9,32.6
						c-1.6,0.9-3.7,0.3-4.6-1.3C2949.3,1969.9,2949.6,1968.2,2950.6,1967.2z"/>
				</g>
			</g>
			<g>
				<g>
					<path class="st11" d="M2651.3,2120.2c12.8-8.1,26.2-14.6,39.5-21.1c13.4-6.2,26.9-12.3,40.7-17.7c6.8-2.8,13.6-5.7,20.5-8.3
						c6.8-2.8,13.7-5.4,20.7-8.1c13.9-5.2,27.8-10.4,42.2-14.7c1.8-0.5,3.7,0.5,4.2,2.3c0.4,1.4-0.1,2.9-1.2,3.7
						c-12.2,8.9-25.1,16.6-38.2,23.8c-6.6,3.6-13.2,7-20,10.2c-6.7,3.3-13.5,6.4-20.4,9.4c-13.6,6.2-27.7,11.4-41.9,16.1
						c-14.3,4.5-28.7,8.5-43.8,10.7c-1.9,0.3-3.6-1-3.9-2.9C2649.5,2122.2,2650.2,2120.9,2651.3,2120.2z"/>
				</g>
			</g>
			<g>
				<g>
					<path class="st11" d="M2016.2,1940c-27.1,21.4-52.7,44.7-74.8,70.8c-11,13.1-20.8,26.9-29.3,41.4c-8.5,14.5-14.8,30-18.3,45.9
						c-3.5,15.8-3.7,32.1,0.5,47.3c3.8,15.4,12.4,29,23.8,40c11.4,11.1,25.7,19.6,41.1,26c15.4,6.4,31.8,10.8,48.5,14
						c33.5,6.4,68.2,8.1,102.7,7.3c34.6-0.7,69.3-3.9,103.8-8.2c69.1-8.3,137.8-20.8,207-33c1.8-0.3,3.6,0.9,3.9,2.7
						c0.3,1.7-0.7,3.2-2.2,3.8c-66.8,22.5-135.8,38.5-206,47.7c-35.1,4.4-70.5,7.3-106.1,7.6c-17.8,0.3-35.6-0.3-53.4-1.4
						c-17.8-1.1-35.7-3.3-53.4-6.7c-17.7-3.4-35.4-8.1-52.4-15.2c-17-7.1-33.5-16.7-47.3-30.1c-13.8-13.2-24.6-30.5-29.3-49.2
						c-5.1-18.7-4.8-38.5-0.7-56.8c4.1-18.4,11.3-35.7,20.5-51.5c9.2-15.8,19.8-30.6,31.4-44.4c23.3-27.5,49.9-51.6,77.8-73.7
						c4.4-3.4,10.7-2.7,14.1,1.6S2020.7,1936.5,2016.2,1940L2016.2,1940z"/>
				</g>
			</g>
			<g class="st4">
				<g>
					<path class="st14" d="M2907.1,1883.6c-14.9,120-249.6,170.4-182.5,65.3L2907.1,1883.6z"/>
				</g>
				<g>
					<path class="st11" d="M2749.5,2007.7c-16.2,0-28.3-4.3-34.3-12.6c-5.4-7.4-8.3-21.6,8-47.2l2.8,1.8c-12.1,19-14.9,34-8.1,43.4
						c8.7,12,33.1,14.6,63.7,6.7c56.2-14.5,116.8-59.1,123.9-116.5l3.3,0.4c-7.3,58.9-69.1,104.6-126.4,119.3
						C2770.3,2006.2,2759.2,2007.7,2749.5,2007.7z"/>
				</g>
			</g>
			<g class="st4">
				<g>
					<path class="st14" d="M2710.9,1703.7c-14.9,120-249.6,170.4-182.5,65.3L2710.9,1703.7z"/>
				</g>
				<g>
					<path class="st11" d="M2553.2,1827.9c-16.2,0-28.3-4.3-34.3-12.6c-5.4-7.4-8.3-21.6,8-47.2l2.8,1.8c-12.1,19-14.9,34-8.1,43.4
						c8.7,12,33.1,14.6,63.7,6.7c56.2-14.5,116.8-59.1,123.9-116.5l3.3,0.4c-7.3,58.9-69.1,104.6-126.4,119.3
						C2574,1826.3,2562.9,1827.9,2553.2,1827.9z"/>
				</g>
			</g>
			<g class="st4">
				<g>
					<path class="st14" d="M2428.7,2052.3c-14.9,120-222.2,134.2-155.2,29.1L2428.7,2052.3z"/>
				</g>
				<g>
					<path class="st11" d="M2307.6,2153.8c-19.5,0-35.3-5.9-43.3-16.9c-6.8-9.4-11-26.8,7.8-56.4l2.8,1.8
						c-14.1,22.1-16.8,40.3-7.9,52.6c10.8,14.9,38.7,19.5,69.4,11.6c37.6-9.7,83.8-40.2,90.6-94.4l3.3,0.4
						c-7,55.9-54.5,87.3-93.1,97.3C2326.9,2152.4,2316.8,2153.8,2307.6,2153.8z"/>
				</g>
			</g>
			<g class="st4">
				<g>
					<path class="st14" d="M2182.5,1981.8c-14.9,120-194.3,118.6-127.3,13.5L2182.5,1981.8z"/>
				</g>
				<g>
					<path class="st11" d="M2085,2074.8c-17.4,0-32.1-5.9-40-16.8c-10.9-15-7.8-37.6,8.8-63.5l2.8,1.8
						c-15.8,24.7-18.9,45.9-8.9,59.7c10.3,14.2,33.2,19.1,58.5,12.6c31.9-8.2,68.2-35.4,74.6-87l3.3,0.4
						c-6.6,53.3-44.2,81.3-77.1,89.8C2099.5,2073.8,2092,2074.8,2085,2074.8z"/>
				</g>
			</g>
			<g class="st4">
				<g>
					<path class="st14" d="M2534,1897.5c-8.7,69.7-124.3,79.5-85.4,18.4L2534,1897.5z"/>
				</g>
				<g>
					<path class="st11" d="M2465.7,1958c-10.5,0-19.1-3.2-23.4-9.2c-4-5.6-6.5-15.9,4.9-33.7l2.8,1.8c-8.2,12.8-9.9,23.2-5,30
						c5.6,7.7,19.5,10,35.5,5.9c21.4-5.5,47.8-23.3,51.8-55.4l3.3,0.4c-4.2,33.7-31.9,52.4-54.3,58.2
						C2475.8,1957.3,2470.6,1958,2465.7,1958z"/>
				</g>
			</g>
			<g>
				<g>
					<path class="st13" d="M2076.7,2034.2c-17-1.4-27.8-18.7-22.8-34.9c17.3-56.2,82.2-71.9,116.3-48.4c11.8,8,13.8,20.4,4.2,28
						c-2.9,2.4-6.5,3.8-10.2,4.5c-5.2,0.9-17.9,5.2-23.3,25.8C2138.7,2017.3,2103.8,2036.5,2076.7,2034.2z"/>
				</g>
				<g>
					<path class="st11" d="M2081.2,2036.1c-1.6,0-3.1-0.1-4.7-0.2c-8.3-0.7-15.8-5.1-20.6-12.1c-5-7.3-6.3-16.4-3.7-24.9
						c8.1-26.2,27.5-46.4,53.4-55.4c23.2-8.1,48.3-5.7,65.5,6.1c6.7,4.5,10.7,10.8,11,17.1c0.2,5.2-2.2,10.1-6.7,13.7
						c-3,2.4-6.9,4.1-11,4.8c-4.9,0.8-16.8,4.9-22,24.6C2140.2,2018.4,2108,2036.1,2081.2,2036.1z M2133.5,1942
						c-8.8,0-17.9,1.5-26.7,4.6c-24.8,8.6-43.5,28-51.3,53.2c-2.3,7.5-1.1,15.6,3.3,22.1c4.2,6.2,10.8,10.1,18.1,10.7l0,0
						c26.3,2.2,60.5-16.7,62.4-23.8c5.7-21.5,19.1-26.1,24.7-27c3.6-0.6,6.9-2.1,9.5-4.1c3.7-3,5.6-6.8,5.5-10.9
						c-0.2-5.2-3.7-10.5-9.5-14.4C2159.4,1945.5,2146.8,1942,2133.5,1942z"/>
				</g>
			</g>
			<g class="st7">
				<g>
					<path class="st5" d="M2056.6,2021.6c0.1-0.6,0.3-1.2,0.5-1.8c17.3-56.2,82.2-71.9,116.3-48.4c1.8,1.2,3.3,2.4,4.6,3.8
						c5.3-7.5,2.3-17.5-7.7-24.3c-34.1-23.5-99-7.8-116.3,48.4C2051.5,2007.1,2052.8,2015.1,2056.6,2021.6z"/>
				</g>
			</g>
			<g>
				<g>
					<path class="st13" d="M2754.8,1968c-25.4-2.1-41.7-28-34.2-52.3c26-84.3,123.2-107.8,174.3-72.5c17.7,11.9,20.7,30.5,6.3,42
						c-4.4,3.5-9.8,5.7-15.3,6.7c-7.8,1.4-26.9,7.8-35,38.6C2847.7,1942.7,2795.4,1971.4,2754.8,1968z"/>
				</g>
				<g>
					<path class="st11" d="M2761.7,1970c-2.4,0-4.7-0.1-7-0.3l0,0c-12.2-1-23.2-7.5-30.2-17.8c-7.3-10.8-9.3-24.2-5.4-36.6
						c12-39,41-69.1,79.5-82.4c34.6-12,71.9-8.5,97.3,9c9.9,6.7,15.8,15.7,16.1,24.9c0.3,7.5-3.2,14.5-9.8,19.8
						c-4.5,3.6-10,6-16.1,7c-7.5,1.3-25.8,7.5-33.6,37.4C2849.2,1943.9,2801.4,1970,2761.7,1970z M2755,1966.3
						c39.8,3.3,91.5-25.4,94.3-36.2c8.3-31.8,28.2-38.5,36.3-39.9c5.5-1,10.6-3.2,14.6-6.4c5.8-4.6,8.8-10.5,8.5-17
						c-0.3-8.1-5.7-16.2-14.7-22.3c-24.6-17-60.7-20.3-94.3-8.6c-37.5,13-65.7,42.3-77.4,80.3c-3.5,11.5-1.7,23.8,5,33.8
						C2733.7,1959.4,2743.8,1965.4,2755,1966.3L2755,1966.3z"/>
				</g>
			</g>
			<g class="st7">
				<g>
					<path class="st5" d="M2725.7,1950.5c0-4,0.6-8.1,1.8-12.1c26-84.3,123.2-107.8,174.3-72.5c3.1,2.1,5.7,4.4,7.9,6.8
						c2.6-10-2.6-21.3-14.7-29.5c-51.1-35.3-148.3-11.8-174.3,72.5C2716.9,1928,2719.1,1940.7,2725.7,1950.5z"/>
				</g>
			</g>
			<g>
				<g>
					<path class="st11" d="M2761,1978.3c-2.4,0-4.8-0.1-7-0.3l0,0c-14.8-1.2-28.1-9.1-36.4-21.5c-8.7-12.9-11.1-28.9-6.5-43.8
						c12.8-41.6,43.7-73.6,84.8-87.9c37.1-12.9,77.2-9,104.8,10.1c12,8.1,19.3,19.6,19.7,31.5c0.4,10.2-4.2,19.7-12.9,26.7
						c-5.6,4.4-12.4,7.5-19.9,8.8c-5.9,1-20.3,6.1-26.9,31.3C2855.7,1952,2801.6,1978.3,2761,1978.3z M2755.7,1958
						c35.5,3,80.6-21.6,85.6-30.4c9.6-36.1,33.2-43.9,42.9-45.6c4.1-0.7,7.9-2.3,10.8-4.7c3.7-3,5.5-6.4,5.3-10.2
						c-0.2-5.4-4.2-11.1-11-15.7c-22.5-15.5-55.8-18.5-86.9-7.7c-34.9,12.1-61.2,39.4-72.1,74.8c-2.8,9.1-1.4,18.8,3.9,26.6
						C2739.3,1952.7,2746.9,1957.3,2755.7,1958L2755.7,1958z M2841.4,1927.4L2841.4,1927.4L2841.4,1927.4z"/>
				</g>
			</g>
			<g>
				<g>
					<path class="st11" d="M2081.2,2044.5c-1.8,0-3.6-0.1-5.3-0.2h0c-10.9-0.9-20.6-6.7-26.8-15.8c-6.4-9.5-8.1-21.2-4.8-32.1
						c8.9-28.8,30.3-51,58.7-60.8c25.7-8.9,53.7-6.2,73,7.1c8.9,6,14.3,14.6,14.6,23.6c0.3,7.9-3.2,15.2-9.9,20.6
						c-4.2,3.3-9.3,5.6-14.8,6.5c-3.3,0.6-11.4,3.5-15.3,18.4C2146.9,2025.9,2110.5,2044.5,2081.2,2044.5z M2133.5,1950.4
						c-7.8,0-16,1.4-24,4.1c-22.3,7.7-39.1,25.1-46,47.7c-1.6,5.1-0.8,10.5,2.2,14.9c2.8,4.1,7,6.6,11.8,7h0
						c21.9,1.9,49.3-13,53.8-18.5c7.1-25.4,24-31,31.1-32.2c2.2-0.4,4.2-1.2,5.7-2.4c2.4-1.9,2.3-3.5,2.3-4c-0.1-1.9-1.7-5-5.9-7.8
						C2156.1,1953.4,2145.2,1950.4,2133.5,1950.4z M2131.6,2005.4L2131.6,2005.4L2131.6,2005.4z"/>
				</g>
			</g>
			<g>
				<g>
					<path class="st13" d="M2273.5,2081.4c-16.4-87.5,78.5-106.1,139.3-59.3c18.8,14.5,17.5,42.7-2.6,55.4
						c-28.2,17.8-69.5,29.2-100.3,31.9C2292.5,2110.9,2276.8,2098.6,2273.5,2081.4z"/>
				</g>
				<g>
					<path class="st11" d="M2307,2111.2c-17.1,0-31.9-12.2-35.1-29.5l0,0c-6.4-33.8,3.3-60.5,27.2-75.2c31-19,79.3-13.1,114.8,14.2
						c9.4,7.2,14.5,18.1,14,29.8c-0.5,11.7-6.6,22-16.6,28.3c-29.6,18.7-72.1,29.6-101.1,32.1
						C2309.1,2111.1,2308,2111.2,2307,2111.2z M2341.7,1998.8c-15,0-29.2,3.5-40.9,10.6c-22.6,13.9-31.7,39.4-25.7,71.7l0,0
						c3.1,16.6,18.1,28.1,34.7,26.6c28.6-2.5,70.4-13.2,99.6-31.6c9.1-5.7,14.6-15.1,15.1-25.7c0.5-10.6-4.1-20.4-12.6-27
						C2390.9,2007.3,2365.3,1998.8,2341.7,1998.8z"/>
				</g>
			</g>
			<g class="st7">
				<g>
					<path class="st5" d="M2271.8,2057.5c20-44.6,88.1-47.8,135.5-11.4c7.5,5.7,11.8,13.7,13,21.9c9.8-14.2,7.6-34.4-7.4-46
						C2358,1979.9,2275.5,1990.9,2271.8,2057.5z"/>
				</g>
			</g>
			<g>
				<g>
					<path class="st11" d="M2307,2119.6c-21.1,0-39.4-15-43.4-36.3v0c-9.5-50.6,15.4-74.3,31.1-83.9c33.9-20.8,86.2-14.6,124.3,14.8
						c11.6,8.9,17.9,22.4,17.2,36.8c-0.7,14.5-8.2,27.2-20.5,35c-32.9,20.8-77,31-104.8,33.4
						C2309.6,2119.5,2308.3,2119.6,2307,2119.6z M2341.8,2007.1c-13.5,0-26.2,3.1-36.6,9.5c-19.7,12.1-27.3,33.9-21.8,63
						c0,0,0,0,0,0c2.3,12.2,13.7,20.8,25.7,19.8c27.5-2.4,67.9-12.7,95.8-30.4c6.7-4.3,10.8-11.2,11.2-19c0.4-7.8-3.1-15.1-9.4-20
						C2387.2,2015,2363.5,2007.1,2341.8,2007.1z"/>
				</g>
			</g>
			<g>
				<g>
					<path class="st13" d="M2526.1,1755.4c-14.4-88.1,101-112.9,171.3-69c21.7,13.6,18.4,42.4-6.5,56.6
						c-35.1,19.9-85.4,34-122.7,38.6C2547.2,1784.3,2529,1772.8,2526.1,1755.4z"/>
				</g>
				<g>
					<path class="st11" d="M2562.2,1783.7c-19.3,0-35-11.3-37.8-28c-5.1-31.3,5.9-57.7,30.9-74.4c37.8-25.2,99.3-23.6,143,3.7
						c9.9,6.2,15.5,16,15.2,26.8c-0.3,12.9-8.4,25.1-21.8,32.6c-36.7,20.8-88.4,34.5-123.3,38.8
						C2566.4,1783.6,2564.3,1783.7,2562.2,1783.7z M2620.8,1666.8c-23.5,0-46.1,5.7-63.5,17.3c-16.9,11.2-35.7,32.7-29.5,71l0,0
						c2.7,16.7,20,27.3,40.3,24.9c34.6-4.3,85.7-17.8,122.1-38.4c12.3-7,19.8-18.1,20.1-29.8c0.2-9.6-4.8-18.4-13.7-23.9
						C2674.1,1673.9,2646.9,1666.8,2620.8,1666.8z"/>
				</g>
			</g>
			<g class="st7">
				<g>
					<path class="st5" d="M2525.9,1728.1c29.7-41.9,107.7-47.6,160.4-14.7c8.9,5.6,13.6,13.7,14.4,22.3
						c15.6-15.2,15.3-37.8-3.3-49.3C2635,1647.4,2537.1,1662.6,2525.9,1728.1z"/>
				</g>
			</g>
			<g>
				<g>
					<path class="st11" d="M2562.5,1792.1c-23.3,0-42.9-14.4-46.3-35v0c-5.7-34.7,6.6-64.1,34.5-82.7c40.4-26.9,105.8-25.3,152,3.6
						c12.5,7.8,19.5,20.2,19.2,34.1c-0.3,15.8-10.1,30.7-26,39.7c-37.7,21.4-90.7,35.4-126.4,39.9
						C2567.2,1791.9,2564.8,1792.1,2562.5,1792.1z M2620.7,1675.3c-21.9,0-43,5.2-58.8,15.7c-14.8,9.9-31.4,28.8-25.8,62.7v0
						c2,11.9,15.6,19.8,31,17.9c33.8-4.2,83.6-17.4,119-37.4c9.7-5.5,15.6-14,15.8-22.7c0.1-6.7-3.3-12.6-9.7-16.6
						C2671.3,1682,2645.4,1675.3,2620.7,1675.3z"/>
				</g>
			</g>
			<g>
				<g>
					<path class="st13" d="M1968.8,2138c23.6,5.9,43.2,13.7,56.4,24.4c19.5,15.7,19.8,45.3,1.7,62.5c-26.5,25.1-54.9,36.9-87.3,20.3
						c-23.1-11.8-38.2-35.7-38.7-61.7c-0.4-19.3,7-35,27.4-43.3C1941.1,2135.1,1955.4,2134.7,1968.8,2138z"/>
				</g>
				<g>
					<path class="st11" d="M1969.3,2254.6c-10.1,0-20.3-2.6-30.4-7.8c-23.5-12-39.1-36.8-39.6-63.1c-0.4-22,9.1-37,28.4-44.9
						c12.6-5.1,27.3-5.9,41.6-2.4h0c25.8,6.5,44.5,14.6,57.1,24.7c9.4,7.5,15.1,18.9,15.6,31.2c0.5,12.8-4.5,25.1-13.8,33.9
						C2008,2245.1,1988.6,2254.6,1969.3,2254.6z M1951.7,2137.6c-8,0-15.8,1.4-22.8,4.3c-18.1,7.3-26.8,21-26.3,41.7
						c0.5,25.1,15.3,48.8,37.8,60.2c28.5,14.5,55.6,8.1,85.4-20c8.6-8.1,13.2-19.5,12.7-31.3c-0.5-11.5-5.5-21.6-14.3-28.7
						c-12.2-9.8-30.5-17.7-55.8-24.1C1962.8,2138.3,1957.2,2137.6,1951.7,2137.6z"/>
				</g>
			</g>
			<g class="st7">
				<g>
					<path class="st5" d="M1901.1,2177.6c4.3-5.8,10.6-10.5,19.1-13.9c12.8-5.2,27.1-5.6,40.5-2.3c23.6,5.9,43.1,13.7,56.4,24.4
						c10.5,8.4,15.5,21,15,33.4c12.8-17.5,10.6-42.7-6.8-56.7c-13.3-10.7-32.8-18.5-56.4-24.4c-13.4-3.4-27.7-2.9-40.5,2.3
						C1910.1,2147.7,1902.2,2161,1901.1,2177.6z"/>
				</g>
			</g>
			<g>
				<g>
					<path class="st13" d="M2483.6,1857.1c14.5,3.7,26.5,8.4,34.7,15c12,9.6,12.2,27.9,1,38.4c-16.3,15.4-33.7,22.6-53.6,12.5
						c-14.2-7.2-23.5-22-23.8-37.9c-0.2-11.9,4.3-21.5,16.8-26.6C2466.6,1855.3,2475.4,1855,2483.6,1857.1z"/>
				</g>
				<g>
					<path class="st11" d="M2483.9,1929.3c-6.3,0-12.7-1.6-19-4.9c-14.7-7.5-24.4-22.9-24.7-39.4c-0.3-13.8,5.7-23.3,17.9-28.2
						c7.9-3.2,17.1-3.7,25.9-1.5l0,0c15.9,4,27.5,9,35.3,15.3c5.9,4.8,9.5,11.9,9.8,19.6c0.3,8-2.8,15.8-8.7,21.3
						C2508.1,1923.5,2496,1929.3,2483.9,1929.3z M2473.1,1857.4c-4.8,0-9.5,0.9-13.8,2.6c-10.9,4.4-16,12.6-15.8,25
						c0.3,15.2,9.3,29.5,22.9,36.4c17.2,8.8,33.7,4.9,51.7-12.2c5.1-4.9,7.9-11.7,7.6-18.7c-0.3-6.8-3.3-12.9-8.5-17.2
						c-7.4-6-18.6-10.8-34-14.7C2479.9,1857.8,2476.5,1857.4,2473.1,1857.4z"/>
				</g>
			</g>
			<g class="st7">
				<g>
					<path class="st5" d="M2443.4,1895.2c2.2-6.7,7-12.1,15.3-15.4c7.9-3.2,16.7-3.5,24.9-1.4c14.5,3.7,26.5,8.4,34.7,15
						c3.1,2.5,5.4,5.5,6.9,8.9c4.6-10.2,2.4-22.7-6.9-30.2c-8.1-6.6-20.2-11.4-34.7-15c-8.2-2.1-17-1.8-24.9,1.4
						c-12.5,5.1-17.1,14.7-16.8,26.6C2442,1888.5,2442.5,1891.9,2443.4,1895.2z"/>
				</g>
			</g>
			<g>
				<g>
					<path class="st11" d="M1969.5,2263.1c-11.4,0-22.9-3-34.5-8.8c-26.7-13.6-43.6-40.6-44.2-70.4c-0.5-25.4,11.1-43.7,33.7-52.8
						c14.4-5.8,30.6-6.8,46.7-2.7c0,0,0,0,0,0c27,6.8,46.7,15.4,60.3,26.3c11.3,9.1,18.1,22.7,18.7,37.4
						c0.6,15.2-5.4,29.9-16.4,40.3C2012.1,2252.9,1990.8,2263.1,1969.5,2263.1z M1951.7,2146c-6.9,0-13.6,1.2-19.7,3.7
						c-14.7,6-21.5,16.7-21.1,33.8c0.4,22.1,13.5,42.9,33.2,52.9c25.2,12.9,48.6,7.1,75.8-18.7c6.8-6.4,10.5-15.5,10.1-24.9
						c-0.4-9-4.3-17-11.2-22.5c-11.3-9.1-28.5-16.4-52.6-22.5C1961.5,2146.6,1956.5,2146,1951.7,2146z"/>
				</g>
			</g>
			<g>
				<g>
					<path class="st11" d="M2483.9,1937.7c-7.6,0-15.2-1.9-22.8-5.8c-17.7-9-28.9-26.9-29.3-46.7c-0.3-17.4,7.6-29.9,23.1-36.1
						c9.6-3.9,20.4-4.5,31.1-1.8h0c17.1,4.3,29.7,9.8,38.5,16.9c7.8,6.3,12.5,15.7,12.9,25.8c0.4,10.4-3.7,20.6-11.3,27.7
						C2512.2,1931,2498.1,1937.7,2483.9,1937.7z M2473.1,1865.8c-3.7,0-7.4,0.7-10.6,2c-7.6,3.1-10.7,8.2-10.6,17.1
						c0.2,12.2,7.4,23.6,18.3,29.2c14,7.1,26.6,3.9,42.2-10.8c3.4-3.2,5.2-7.7,5-12.3c-0.2-4.4-2.1-8.3-5.4-11
						c-6.4-5.1-16.8-9.5-30.8-13.1C2478.5,1866.1,2475.8,1865.8,2473.1,1865.8z"/>
				</g>
			</g>
			<g>
				<g>
					<polygon class="st12" points="2650,1972.2 2619.3,1951.6 2570.8,1956 2525.2,1947.9 2569.3,1974.8 2605.6,1969.9 					"/>
				</g>
			</g>
		</g>
	</g>
</g>
</svg>
