<?xml version="1.0" encoding="utf-8"?>
<!-- Generator: Adobe Illustrator 24.3.0, SVG Export Plug-In . SVG Version: 6.00 Build 0)  -->
<svg version="1.1" id="Layer_1" xmlns="http://www.w3.org/2000/svg" xmlns:xlink="http://www.w3.org/1999/xlink" x="0px" y="0px"
	 viewBox="0 0 3214.15 2716.6" style="enable-background:new 0 0 3214.15 2716.6;" xml:space="preserve">
<style type="text/css">
	.st0{fill:#37DBFF;}
	.st1{fill:#000072;}
	.st2{fill:#DBE3EE;}
	.st3{fill:#FFFFFF;}
	.st4{opacity:0.3;}
	.st5{fill:#5E6C7A;}
	.st6{opacity:0.55;}
	.st7{fill:#00A8EA;}
	.st8{opacity:0.3;fill:url(#SVGID_1_);}
	.st9{opacity:0.3;fill:url(#SVGID_2_);}
	.st10{opacity:0.3;fill:url(#SVGID_3_);}
	.st11{fill:#FFC200;}
	.st12{opacity:0.3;fill:#000072;}
	.st13{opacity:0.55;fill:#FFFFFF;}
	.st14{fill:none;stroke:#000072;stroke-width:29.4596;stroke-linecap:round;stroke-linejoin:round;stroke-miterlimit:10;}
	.st15{fill:none;stroke:#000072;stroke-width:25.2511;stroke-linecap:round;stroke-linejoin:round;stroke-miterlimit:10;}
	.st16{fill:#DBE3EE;stroke:#000072;stroke-width:4.9938;stroke-miterlimit:10;}
	.st17{fill:#13D137;stroke:#000072;stroke-width:4.9938;stroke-miterlimit:10;}
	.st18{opacity:0.6;}
	.st19{opacity:0.46;fill:#000072;}
	.st20{opacity:0.2;fill:#000072;}
	.st21{fill:#FFC76E;stroke:#000072;stroke-width:4.9938;stroke-miterlimit:10;}
	.st22{fill:#F15A23;stroke:#000072;stroke-width:4.9938;stroke-miterlimit:10;}
	.st23{fill:#40A3DB;stroke:#000072;stroke-width:4.9938;stroke-miterlimit:10;}
	.st24{fill:#FFFFFF;stroke:#000072;stroke-width:4.9938;stroke-miterlimit:10;}
	.st25{opacity:0.3;fill:#262F6A;stroke:#000072;stroke-width:4.9938;stroke-miterlimit:10;}
	.st26{fill:none;stroke:#000072;stroke-width:24.9688;stroke-linecap:round;stroke-linejoin:round;stroke-miterlimit:10;}
	.st27{fill:#00C3FF;}
	.st28{opacity:0.7;fill:#FFFFFF;}
	.st29{fill:none;stroke:#000072;stroke-width:40.9476;stroke-linecap:round;stroke-linejoin:round;stroke-miterlimit:10;}
	.st30{fill:none;stroke:#000072;stroke-width:39.9501;stroke-linecap:round;stroke-linejoin:round;stroke-miterlimit:10;}
	.st31{fill:none;stroke:#000072;stroke-width:34.9563;stroke-linecap:round;stroke-linejoin:round;stroke-miterlimit:10;}
	.st32{fill:none;stroke:#000072;stroke-width:46.7973;stroke-linecap:round;stroke-linejoin:round;stroke-miterlimit:10;}
	.st33{fill:#0BCBFF;}
	.st34{fill:#428AF9;}
	.st35{fill:#6B184E;}
	.st36{fill:#FF1563;}
	.st37{fill:#2EDB33;}
	.st38{clip-path:url(#SVGID_5_);}
	.st39{fill:#B4B4B4;}
	.st40{fill:#4F114D;}
	.st41{fill:#FF8A30;}
	.st42{fill:#3AB4FF;}
	.st43{fill:none;stroke:#4F114D;stroke-width:45.6987;stroke-linecap:round;stroke-linejoin:round;stroke-miterlimit:10;}
	.st44{opacity:0.25;}
	.st45{fill:#23DB23;}
	.st46{fill:#F43F08;}
	.st47{opacity:0.2;}
	.st48{fill:#DC9AFE;}
	.st49{fill:#FF9F40;}
	.st50{fill:#390075;}
	.st51{fill:#F7C414;}
	.st52{opacity:0.7;}
	.st53{fill:#30CE52;}
	.st54{opacity:0.5;}
	.st55{fill:#8A423A;}
	.st56{fill:#FFB78A;}
	.st57{fill:#F75CB8;}
	.st58{opacity:0.31;}
	.st59{fill:#EA5EE4;}
	.st60{fill:#B8C5D3;}
	.st61{opacity:0.8;}
	.st62{fill:#C7D3E3;}
	.st63{opacity:0.1;}
	.st64{fill:#FFBE06;}
	.st65{fill:#371A45;}
	.st66{fill:#EEEDEE;}
	.st67{fill:#E0DCE0;}
	.st68{fill:#6D194E;}
	.st69{fill:#102770;}
	.st70{fill:#FCE5E5;}
	.st71{fill:#7CFF8F;}
	.st72{fill:#33AEF1;}
	.st73{fill:#F9C710;}
	.st74{fill:#F89F1D;}
	.st75{fill:#FF3E84;}
	.st76{fill:#FFD553;}
	.st77{fill:#35B7EB;}
	.st78{fill:#96A7BC;}
	.st79{fill:#807A84;}
	.st80{opacity:0.4;}
	.st81{fill:#262F6A;}
	.st82{fill:#00BAE5;}
	.st83{fill:#636A87;}
	.st84{fill:#00EDF9;}
	.st85{fill:#F73E0F;}
	.st86{fill:#C6CBDF;}
	.st87{fill:#FCD202;}
	.st88{fill:#3CCD54;}
	.st89{fill:#31D0F4;}
	.st90{opacity:0.65;}
	.st91{fill:#C2C9DC;}
	.st92{fill:#99CE25;}
	.st93{fill:#4089FF;}
	.st94{fill:#EA3442;}
	.st95{fill:#6B6B84;}
	.st96{fill:#FF9C0D;}
	.st97{fill:#DD6819;}
	.st98{fill:#209DD8;}
	.st99{fill:url(#SVGID_6_);}
	.st100{fill:#66142E;}
	.st101{fill:#FFAE4D;}
	.st102{fill:#9EAAB9;}
	.st103{fill:#1FCBDD;}
	.st104{opacity:0.3;fill:url(#SVGID_7_);}
	.st105{opacity:0.3;fill:url(#SVGID_8_);}
	.st106{fill:#EC1C24;}
	.st107{opacity:0.3;fill:url(#SVGID_9_);}
	.st108{opacity:0.3;fill:url(#SVGID_10_);}
	.st109{opacity:0.3;fill:url(#SVGID_11_);}
</style>
<g>
	<g>
		<path class="st0" d="M2950.42,1343.29c0,507.73-281.67,949.65-697.33,1178.09H961.06c-415.67-228.44-697.33-670.36-697.33-1178.09
			C263.73,601.4,865.18,0,1607.07,0S2950.42,601.4,2950.42,1343.29z"/>
		<path class="st1" d="M180.5,2515.76c59.31-8.71,118.62-10.8,177.93-11.87c29.66-0.59,59.31-0.71,88.97-0.55
			c29.66-0.04,59.31,0.36,88.97,0.64c59.31,0.51,118.62,0.64,177.93,0.56h177.93h711.73h711.73h355.86l88.97-0.03l44.48-0.4
			l44.48-0.7c59.31-0.2,118.62,0.31,177.93,12.35c3.1,0.63,5.1,3.65,4.47,6.75c-0.47,2.32-2.29,4.03-4.47,4.47
			c-59.31,12.05-118.62,12.55-177.93,12.36l-44.48-0.7l-44.48-0.4l-88.97-0.03h-355.86h-711.73H892.23H714.3
			c-59.31-0.08-118.62,0.05-177.93,0.56c-29.66,0.29-59.31,0.69-88.97,0.64c-29.66,0.15-59.31,0.04-88.97-0.55
			c-59.31-1.07-118.62-3.16-177.93-11.87c-3.1-0.46-5.24-3.34-4.79-6.44C176.08,2518.01,178.09,2516.12,180.5,2515.76z"/>
		<g>
			<g>
				<path class="st2" d="M2678.18,2521.37H524.78c-128.2,0-232.12-103.93-232.12-232.12v0h2617.64v0
					C2910.31,2417.45,2806.38,2521.37,2678.18,2521.37z"/>
				<path class="st1" d="M2678.18,2523.87H524.79c-129.37,0-234.62-105.25-234.62-234.62v-2.5H2912.8v2.5
					C2912.8,2418.62,2807.55,2523.87,2678.18,2523.87z M295.17,2291.74c1.35,125.47,103.83,227.13,229.62,227.13h2153.39
					c125.78,0,228.27-101.66,229.62-227.13H295.17z"/>
			</g>
			<g>
				<path class="st3" d="M1302.67,2289.25c0,15.81,4.49,30.61,12.33,43.36H296.93c-2.81-14.03-4.27-28.52-4.27-43.36H1302.67z"/>
			</g>
			<g>
				<path class="st3" d="M2921.12,2286.06c0,64.08-27.53,122.13-72.09,164.12c-14.71,13.93-31.31,26.07-49.38,36.07
					c40.18-41.27,64.68-96.37,64.68-156.82h-965.55c7.84-12.75,12.33-27.55,12.33-43.36H2921.12z"/>
			</g>
			<g>
				<path class="st1" d="M2678.18,2538.21H524.79c-137.28,0-248.96-111.68-248.96-248.96c0-9.3,7.54-16.83,16.83-16.83H2910.3
					c9.3,0,16.83,7.54,16.83,16.83C2927.14,2426.52,2815.46,2538.21,2678.18,2538.21z M310.15,2306.08
					c8.62,110.87,101.59,198.46,214.64,198.46h2153.39c113.04,0,206.02-87.58,214.64-198.46H310.15z"/>
			</g>
			<g class="st4">
				<path class="st1" d="M2909.99,2289.25c0,64.08-27.53,122.13-72.09,164.12c-44.51,42.04-106.06,68-173.99,68H538.42
					c-135.91,0-246.08-103.92-246.08-232.12h12.33c32.29,92.59,124.77,159.43,233.75,159.43h2125.48c67.93,0,129.48-25.97,173.99-68
					c26.93-25.35,47.59-56.58,59.76-91.42H2909.99z"/>
			</g>
			<g>
				<path class="st1" d="M1813.57,2392.81H1389.4c-57.1,0-103.56-46.46-103.56-103.56c0-9.3,7.54-16.83,16.83-16.83h597.62
					c9.3,0,16.83,7.54,16.83,16.83C1917.13,2346.35,1870.67,2392.81,1813.57,2392.81z M1321.55,2306.08
					c7.55,30.44,35.11,53.06,67.84,53.06h424.17c32.74,0,60.29-22.62,67.84-53.06H1321.55z"/>
			</g>
			<g class="st4">
				<path class="st1" d="M1885.42,2289.25c0,23.98-10.28,45.61-26.93,61.32c-16.6,15.71-39.64,25.41-65.01,25.41h-68.52
					c25.42,0,48.35-9.69,65.01-25.41c16.66-15.71,26.93-37.34,26.93-61.32H1885.42z"/>
			</g>
			<g>
				<path class="st5" d="M2613.88,2289.25H589.09c-69.62,0-126.07-56.44-126.07-126.07V1150.11c0-69.62,56.44-126.07,126.07-126.07
					h2024.79c69.62,0,126.07,56.44,126.07,126.07v1013.07C2739.94,2232.8,2683.5,2289.25,2613.88,2289.25z"/>
				<path class="st1" d="M2613.88,2291.74H589.09c-70.89,0-128.56-57.67-128.56-128.56V1150.11c0-70.89,57.67-128.56,128.56-128.56
					h2024.79c70.89,0,128.56,57.67,128.56,128.56v1013.07C2742.44,2234.07,2684.77,2291.74,2613.88,2291.74z M589.09,1026.54
					c-68.14,0-123.57,55.43-123.57,123.57v1013.07c0,68.14,55.43,123.57,123.57,123.57h2024.79c68.14,0,123.57-55.43,123.57-123.57
					V1150.11c0-68.14-55.43-123.57-123.57-123.57H589.09z"/>
			</g>
			<g class="st4">
				<path class="st1" d="M2714.82,2241.24c-23.74,26.27-59.11,42.9-98.59,42.9H598.91c-71.66,0-129.8-54.84-129.8-122.44V1141.38
					c0-35.76,16.28-67.95,42.19-90.3c-2.81,8.77-4.33,18.11-4.33,27.8v1070.48c0,53.77,46.19,97.39,103.19,97.39h2070.54
					C2692.65,2246.75,2704.17,2244.81,2714.82,2241.24z"/>
			</g>
			<g class="st6">
				<path class="st3" d="M2735.18,1149.64v1020.33c0,35.56-16.01,67.65-41.7,89.99c2.54-8.37,3.84-17.14,3.84-26.22V1157.29
					c0-52.14-44.78-94.38-100.05-94.38h-85.24c-11.47,33.47-103.3,33.47-114.77,0H520.46c-9.63,0-18.93,1.33-27.74,3.67
					c23.74-24.23,57.71-39.38,95.35-39.38h2017.32C2677.1,1027.2,2735.18,1082.1,2735.18,1149.64z"/>
			</g>
			<g>
				<path class="st1" d="M2613.88,2306.08H589.09c-78.8,0-142.9-64.11-142.9-142.9V1150.11c0-78.8,64.1-142.9,142.9-142.9h2024.79
					c78.8,0,142.9,64.11,142.9,142.9v1013.07C2756.78,2241.97,2692.67,2306.08,2613.88,2306.08z M589.09,1040.87
					c-60.23,0-109.23,49-109.23,109.23v1013.07c0,60.23,49,109.23,109.23,109.23h2024.79c60.23,0,109.23-49,109.23-109.23V1150.11
					c0-60.23-49-109.23-109.23-109.23H589.09z"/>
			</g>
			<g>
				<path class="st7" d="M2590.24,1224.23v864.83c0,33.52-28.83,60.76-64.41,60.76H677.14c-7.36,0-14.44-1.17-21.04-3.32
					c-25.26-8.21-43.38-30.86-43.38-57.44v-864.83c0-33.52,28.83-60.76,64.41-60.76h1848.68
					C2561.41,1163.47,2590.24,1190.71,2590.24,1224.23z"/>
			</g>
			<linearGradient id="SVGID_1_" gradientUnits="userSpaceOnUse" x1="2607.8064" y1="1136.3184" x2="2056.6689" y2="2020.2183">
				<stop  offset="0" style="stop-color:#FFFFFF"/>
				<stop  offset="1" style="stop-color:#FFFFFF;stop-opacity:0"/>
			</linearGradient>
			<path class="st8" d="M2590.24,1224.23v248.81l-505.9,676.78h-300.87l737.27-986.35h5.08
				C2561.41,1163.47,2590.24,1190.71,2590.24,1224.23z"/>
			<linearGradient id="SVGID_2_" gradientUnits="userSpaceOnUse" x1="2101.6851" y1="518.6273" x2="1031.6814" y2="2029.2207">
				<stop  offset="0" style="stop-color:#FFFFFF"/>
				<stop  offset="1" style="stop-color:#FFFFFF;stop-opacity:0"/>
			</linearGradient>
			<path class="st9" d="M1943.33,1163.47l-737.32,986.35H671.23c-7.36,0-14.44-1.17-21.04-3.32l734.83-983.03H1943.33z"/>
			<g class="st4">
				<path class="st1" d="M2635.99,1209.89v801.67c0,32.91-18.28,61.78-45.75,78.16v-865.49c0-33.52-28.83-60.76-64.41-60.76H677.14
					c-1.84,0-3.68,0.05-5.52,0.26c16.87-27.6,48.51-46.17,84.75-46.17H2538.1C2592.19,1117.55,2635.99,1158.93,2635.99,1209.89z"/>
			</g>
			<linearGradient id="SVGID_3_" gradientUnits="userSpaceOnUse" x1="1195.7943" y1="922.386" x2="735.5644" y2="1606.2305">
				<stop  offset="0" style="stop-color:#FFFFFF"/>
				<stop  offset="1" style="stop-color:#FFFFFF;stop-opacity:0"/>
			</linearGradient>
			<polygon class="st10" points="1198.13,1163.47 612.73,1946.72 612.73,1544.2 897.31,1163.47 			"/>
			<g class="st4">
				<path class="st1" d="M2590.24,1224.23v864.83c0,32.4-26.93,58.92-60.84,60.66v-898.04c0-21.02-18.06-38.06-40.29-38.06H613.75
					c5.3-28.47,31.64-50.15,63.39-50.15h1848.68C2561.41,1163.47,2590.24,1190.71,2590.24,1224.23z"/>
			</g>
			<g>
				<path class="st1" d="M2527.68,2166.64H675.29c-43.78,0-79.4-35.62-79.4-79.4v-861.19c0-43.78,35.62-79.4,79.4-79.4h1852.39
					c43.78,0,79.4,35.62,79.4,79.4v861.19C2607.08,2131.02,2571.46,2166.64,2527.68,2166.64z M675.29,1180.32
					c-25.22,0-45.73,20.51-45.73,45.73v861.19c0,25.22,20.51,45.73,45.73,45.73h1852.39c25.22,0,45.73-20.51,45.73-45.73v-861.19
					c0-25.22-20.51-45.73-45.73-45.73H675.29z"/>
			</g>
		</g>
		<g>
			<path class="st11" d="M611.33,2281.26h-155.3c-22.04,0-39.91-17.87-39.91-39.91v-724.42c0-22.04,17.87-39.91,39.91-39.91h155.3
				c22.04,0,39.91,17.87,39.91,39.91v724.42C651.23,2263.4,633.37,2281.26,611.33,2281.26z"/>
			<path class="st12" d="M649.56,2252.77c-4.88,16.46-20.16,28.49-38.26,28.49H456.01c-22.01,0-39.9-17.89-39.9-39.9v-724.45
				c0-17.89,11.78-33.04,27.99-38.09c-1.09,3.62-1.68,7.45-1.68,11.45v569.12c0,107.82,87.37,195.23,195.19,195.23
				C641.78,2254.62,645.78,2253.99,649.56,2252.77z"/>
			<path class="st13" d="M651.25,1516.91v724.45c0,18.01-11.99,33.29-28.45,38.21V1718.2c-38.47-12.29-38.47-90.06,0-102.35v-94.19
				c0-10.31-8.37-18.69-18.69-18.69H418.64c5.64-15.15,20.24-25.97,37.37-25.97h155.29C633.36,1477.02,651.25,1494.9,651.25,1516.91
				z"/>
			<path class="st14" d="M611.33,2281.26h-155.3c-22.04,0-39.91-17.87-39.91-39.91v-724.42c0-22.04,17.87-39.91,39.91-39.91h155.3
				c22.04,0,39.91,17.87,39.91,39.91v724.42C651.23,2263.4,633.37,2281.26,611.33,2281.26z"/>
			<path class="st15" d="M416.12,1564.76h61.02H416.12z"/>
			<path class="st15" d="M416.12,1653.32h61.02H416.12z"/>
			<path class="st15" d="M416.12,1741.87h103.81H416.12z"/>
			<path class="st15" d="M416.12,1830.43h61.02H416.12z"/>
			<path class="st15" d="M416.12,1918.98h61.02H416.12z"/>
			<path class="st15" d="M416.12,2007.53h103.81H416.12z"/>
			<path class="st15" d="M416.12,2096.09h61.02H416.12z"/>
			<path class="st15" d="M416.12,2177.77h61.02H416.12z"/>
		</g>
		<g>
			<path class="st16" d="M1005.37,1781.54v442.27c0,34.05-27.61,61.65-61.7,61.65H621.64c-34.05,0-61.65-27.61-61.65-61.65v-442.27
				c0-34.05,27.61-61.65,61.65-61.65h322.04C977.76,1719.89,1005.37,1747.5,1005.37,1781.54z"/>
			<path class="st17" d="M1005.37,1781.54v38.17H559.98v-38.17c0-34.05,27.61-61.65,61.65-61.65h322.04
				C977.76,1719.89,1005.37,1747.5,1005.37,1781.54z"/>
			<path class="st12" d="M1004.44,2234.42c-5.01,29-30.3,51.05-60.77,51.05H621.63c-34.05,0-61.65-27.61-61.65-61.65v-442.27
				c0-26.3,16.5-48.78,39.69-57.61c-0.63,3.45-0.93,6.99-0.93,10.61v280.67c0,123.31,99.95,223.26,223.26,223.26h160.43
				C990.17,2238.46,997.62,2237.03,1004.44,2234.42z"/>
			<path class="st13" d="M1005.36,1786.54v38.17h-5.77v-15.02c0-34.05-27.61-61.65-61.7-61.65H615.87
				c-24.62,0-45.91,14.44-55.8,35.35c1.64-32.57,28.58-58.5,61.57-58.5h322.03C977.76,1724.88,1005.36,1752.49,1005.36,1786.54z"/>
			<path class="st14" d="M943.68,2285.47H621.65c-34.06,0-61.67-27.61-61.67-61.67v-442.24c0-34.06,27.61-61.67,61.67-61.67h322.04
				c34.06,0,61.67,27.61,61.67,61.67v442.24C1005.35,2257.86,977.74,2285.47,943.68,2285.47z"/>
			<path class="st15" d="M1005.35,1819.73H559.98H1005.35z"/>
			<circle class="st1" cx="626.07" cy="1772.66" r="11.5"/>
			<circle class="st1" cx="662.75" cy="1772.66" r="11.5"/>
			<circle class="st1" cx="700" cy="1772.66" r="11.5"/>
			<g class="st18">
				<path class="st19" d="M921.63,1984.35H648.58c-8.26,0-14.96-6.7-14.96-14.96v-90.35c0-8.26,6.7-14.96,14.96-14.96h273.05
					c8.26,0,14.96,6.7,14.96,14.96v90.35C936.58,1977.66,929.89,1984.35,921.63,1984.35z"/>
				<path class="st19" d="M925.97,2031.12H644.23c-5.86,0-10.61-4.75-10.61-10.61v-5.5c0-5.86,4.75-10.61,10.61-10.61h281.74
					c5.86,0,10.61,4.75,10.61,10.61v5.5C936.58,2026.37,931.83,2031.12,925.97,2031.12z"/>
				<path class="st19" d="M921.63,2177.77H648.58c-8.26,0-14.96-6.7-14.96-14.96v-90.35c0-8.26,6.7-14.96,14.96-14.96h273.05
					c8.26,0,14.96,6.7,14.96,14.96v90.35C936.58,2171.07,929.89,2177.77,921.63,2177.77z"/>
				<path class="st19" d="M925.97,2224.53H644.23c-5.86,0-10.61-4.75-10.61-10.61v-5.5c0-5.86,4.75-10.61,10.61-10.61h281.74
					c5.86,0,10.61,4.75,10.61,10.61v5.5C936.58,2219.78,931.83,2224.53,925.97,2224.53z"/>
			</g>
		</g>
		<g>
			<path class="st16" d="M2769.11,1539.49v746.57h-480.82v-746.57h341.69c0-28.49,17.13-52.99,41.66-63.72
				c8.54-3.79,17.97-5.85,27.9-5.85C2737.97,1469.92,2769.11,1501.07,2769.11,1539.49z"/>
			<rect x="2288.29" y="1539.49" class="st12" width="53.32" height="746.57"/>
			<path class="st14" d="M2769.11,1539.49v746.57h-480.82v-746.57h341.69c0-38.42,31.14-69.57,69.57-69.57
				C2737.97,1469.92,2769.11,1501.07,2769.11,1539.49z"/>
			<path class="st17" d="M2699.54,1469.92c-38.42,0-69.57,31.14-69.57,69.57h-411.26c0-38.42,31.14-69.57,69.57-69.57H2699.54z"/>
			<path class="st13" d="M2699.54,1469.92c-20.66,0-39.18,9.01-51.93,23.27h-359.32c-30.26,0-56.02,19.32-65.57,46.29h-4
				c0-38.42,31.14-69.57,69.57-69.57H2699.54z"/>
			<path class="st12" d="M2350.03,1469.92c-38.42,0-69.57,31.14-69.57,69.57h-61.74c0-38.42,31.14-69.57,69.57-69.57H2350.03z"/>
			<path class="st14" d="M2699.54,1469.92c-38.42,0-69.57,31.14-69.57,69.57h-411.26c0-38.42,31.14-69.57,69.57-69.57H2699.54z"/>
			<path class="st20" d="M2684.59,1732.37h-273.05c-8.26,0-14.96-6.7-14.96-14.96v-90.35c0-8.26,6.7-14.96,14.96-14.96h273.05
				c8.26,0,14.96,6.7,14.96,14.96v90.35C2699.54,1725.67,2692.85,1732.37,2684.59,1732.37z"/>
			<path class="st20" d="M2684.59,1910.98h-273.05c-8.26,0-14.96-6.7-14.96-14.96v-90.35c0-8.26,6.7-14.96,14.96-14.96h273.05
				c8.26,0,14.96,6.7,14.96,14.96v90.35C2699.54,1904.28,2692.85,1910.98,2684.59,1910.98z"/>
		</g>
		<g>
			<path class="st21" d="M2679.76,1726.28V2257c0,18.16-14.72,32.88-32.88,32.88h-15.81c-18.16,0-32.88-14.72-32.88-32.88v-530.72
				l39.45-102.77L2679.76,1726.28z"/>
			<path class="st22" d="M2679.76,2190.4v66.6c0,18.16-14.72,32.88-32.88,32.88h-15.81c-18.16,0-32.88-14.72-32.88-32.88v-66.6
				C2598.18,2223.76,2679.76,2223.05,2679.76,2190.4z"/>
			<path class="st23" d="M2679.76,1726.28v464.12c0,32.64-81.58,33.36-81.58,0v-464.12
				C2598.18,1759.64,2679.76,1758.87,2679.76,1726.28z"/>
			<path class="st13" d="M2679.76,1726.28V2257c0,18.16-14.72,32.88-32.88,32.88l0,0v-559.9l-25.9-63.14l16.65-43.33
				L2679.76,1726.28z"/>
			<path class="st14" d="M2646.88,2289.89h-15.79c-18.16,0-32.88-14.72-32.88-32.88V1726.3l39.41-102.8l42.15,102.8V2257
				C2679.76,2275.17,2665.04,2289.89,2646.88,2289.89z"/>
			<path class="st14" d="M2598.2,1726.3c0,33.34,81.56,32.6,81.56,0H2598.2z"/>
			<path class="st14" d="M2598.2,2190.42c0,33.34,81.56,32.6,81.56,0H2598.2z"/>
			<path class="st14" d="M2637.61,1623.5v-29.23V1623.5z"/>
		</g>
		<g>
			<path class="st24" d="M2356.39,2289.17H850.38c-115.69,3.87-151.59-132.65-60.01-172.8c4.12-1.81,8.5-3.45,13.13-4.8
				c0.08-0.04,0.17-0.08,0.25-0.04v-0.04c4.21-1.26,8.63-2.36,13.3-3.24c-8.42-38.21,34.97-60.43,59.51-47.6
				c-35.9-90.78,65.57-199.27,169.22-150.29c-4.55-91.91,56.94-151.09,136.36-159.21c105.34-16.62,187.7,79.08,171.5,168.05
				c69.9-19.06,121.37,53.78,99.19,110.18c28.91,25.17,86.61,16.79,82.53-41.79v-562.13h136.06v562.13
				c-0.29,4.42-0.25,8.59,0.08,12.42c4.42,47.26,55.72,52.65,82.44,29.38c-22.18-56.39,29.29-129.24,99.19-110.18
				c-16.16-89.01,66.24-184.67,171.54-168.05c79.37,8.12,140.86,67.29,136.31,159.21c104.12-49.16,205.92,60.39,168.85,151.38
				c24.75-12.08,68.18,8.71,59.89,46.5c5.77,1.09,11.15,2.48,16.24,4.21C2510.47,2146.45,2476.25,2293.16,2356.39,2289.17z"/>
			<path class="st24" d="M2356.39,2289.17H850.38c-115.69,3.87-151.59-132.65-60.01-172.8c4.12-1.81,8.5-3.45,13.13-4.8
				c0.08-0.04,0.17-0.08,0.25-0.04v-0.04c3.24-0.97,6.57-1.85,10.06-2.57c1.05-0.25,2.15-0.46,3.24-0.67
				c-1.09-5.01-1.3-9.76-0.8-14.18c0-0.17,0.04-0.29,0.08-0.46c3.75-28.95,39.01-44.06,60.22-32.95
				c-19.99-50.5,2.57-106.52,44.36-137.83c33.33-24.91,78.87-34.17,124.87-12.46c-4.55-91.91,56.94-151.09,136.36-159.21
				c105.34-16.62,187.7,79.08,171.5,168.05c69.9-19.06,121.37,53.78,99.19,110.18c19.49,16.96,52.1,18.69,69.99,0h0.04
				c1.98-2.1,3.79-4.42,5.39-7.03c5.3-8.59,8.12-20.12,7.11-34.76v-562.13h136.06v562.13c-0.29,4.42-0.25,8.59,0.08,12.42
				c4.42,47.26,55.72,52.65,82.44,29.38c-22.18-56.39,29.29-129.24,99.19-110.18c-16.16-89.01,66.24-184.67,171.54-168.05
				c79.37,8.12,140.86,67.29,136.31,159.21c104.12-49.16,205.92,60.39,168.85,151.38c24.75-12.08,68.18,8.71,59.89,46.5
				c5.77,1.09,11.15,2.48,16.24,4.21C2510.47,2146.45,2476.25,2293.16,2356.39,2289.17z"/>
			<path class="st25" d="M2356.39,2289.17H850.38c-115.69,3.87-151.59-132.65-60.01-172.8c4.12-1.81,8.5-3.45,13.13-4.8
				c0.08-0.04,0.17-0.08,0.25-0.04v-0.04c1.26-0.38,2.53-0.74,3.82-1.09c3.03-0.81,5.98,1.54,5.96,4.68
				c-0.45,71.38,96,93.3,125.38,24.75c1.66-3.88,7.14-3.77,8.78,0.13c18.94,44.98,87.22,39.22,104.4-1.7
				c1.72-4.09,7.62-3.83,8.93,0.4c31.12,100.74,166.26,84.6,168.87-28.61c0.1-4.21,5.08-6.28,8.1-3.34
				c18.4,17.83,57.21,23.19,70.84-8.23c1.76-4.05,7.41-3.99,8.93,0.15c7.76,21.03,24.8,38.07,46.66,50.15
				c60.79,33.59,122.2,12.55,152.39-40.16c1.94-3.39,7.03-3.09,8.48,0.53c19.27,48.19,147.26,50.72,161.29-56.79c0,0,0,0,0.04-0.04
				c14.6,74.66,59.68,124.53,145.74,96.46c23.7-7.72,39.7-27.01,46.91-49.28c1.34-4.13,7.09-4.6,8.85-0.63
				c13.78,30.98,52.34,25.6,70.66,7.84c3.03-2.93,8.01-0.87,8.1,3.34c2.6,113.21,137.75,129.35,168.86,28.61
				c1.31-4.24,7.21-4.49,8.93-0.4c17.17,40.92,85.46,46.68,104.4,1.7c1.64-3.9,7.12-4.01,8.78-0.13
				c30.2,70.49,131.32,45.32,125.1-30.91c-0.34-4.76-1.14-9.72-2.44-14.86c0-0.17-0.04-0.29-0.08-0.46
				c-0.13-1.03-0.31-2.04-0.52-3.03c-1.26-5.95,7.32-8.61,9.15-2.81c1.54,4.9,2.11,10.32,1.4,16.19c-0.29,2.4,1.26,4.67,3.62,5.19
				c4.15,0.93,8.11,2.03,11.9,3.31C2510.47,2146.45,2476.25,2293.16,2356.39,2289.17z"/>
			<path class="st14" d="M1771.96,2056.27c-8.33-8.12-14.27-17.25-18.01-26.89L1771.96,2056.27z"/>
			<path class="st14" d="M2160.99,1910.36c-0.8,16.88-3.87,34.85-9.43,53.83L2160.99,1910.36z"/>
			<path class="st14" d="M1866.52,1956.99c-6.69-12.25-11.07-24.96-13.38-37.79L1866.52,1956.99z"/>
			<path class="st14" d="M2329.84,2061.74c-3.37,8.21-7.83,16.29-13.55,24.07L2329.84,2061.74z"/>
			<path class="st14" d="M1452.83,2029.37c-3.75,9.64-9.68,18.77-18.01,26.89L1452.83,2029.37z"/>
			<path class="st14" d="M1055.25,1964.18c-5.6-18.98-8.67-36.95-9.47-53.83L1055.25,1964.18z"/>
			<path class="st14" d="M1353.63,1919.2c-2.31,12.88-6.69,25.59-13.38,37.79L1353.63,1919.2z"/>
			<path class="st14" d="M890.53,2085.81c-5.98-8.12-10.61-16.58-13.97-25.17L890.53,2085.81z"/>
			<path class="st14" d="M2356.39,2289.17H850.38c-125.71,4.21-157.19-157.36-33.33-180.92c-8.42-38.21,34.97-60.43,59.51-47.6
				c-35.9-90.78,65.57-199.27,169.22-150.29c-4.55-91.91,56.94-151.09,136.36-159.21c105.34-16.62,187.7,79.08,171.5,168.05
				c69.9-19.06,121.37,53.78,99.19,110.18c28.91,25.17,86.61,16.79,82.53-41.79v-562.13h136.06v562.13
				c-4.08,58.58,53.62,66.96,82.53,41.79c-22.18-56.39,29.29-129.24,99.19-110.18c-16.16-89.01,66.24-184.67,171.54-168.05
				c79.37,8.12,140.86,67.29,136.31,159.21c104.12-49.16,205.92,60.39,168.85,151.38c24.75-12.08,68.18,8.71,59.89,46.5
				C2513.58,2131.81,2482.1,2293.37,2356.39,2289.17z"/>
			<circle class="st24" cx="1813.63" cy="1680.14" r="47.66"/>
			<path class="st25" d="M1861.3,1680.15c0,26.3-21.34,47.64-47.68,47.64c-26.3,0-47.64-21.34-47.64-47.64
				c0-22.98,16.24-42.13,37.83-46.67c-7.53,6.4-12.33,15.95-12.33,26.64c0,19.28,15.61,34.89,34.89,34.89
				c16.08,0,29.63-10.86,33.67-25.63C1860.88,1672.83,1861.3,1676.45,1861.3,1680.15z"/>
			<circle class="st26" cx="1813.63" cy="1680.14" r="47.66"/>
			<circle class="st24" cx="2362.89" cy="1800.58" r="80.64"/>
			<path class="st25" d="M2443.27,1806.67c-3.07,41.71-37.92,74.57-80.38,74.57c-44.53,0-80.64-36.11-80.64-80.68
				c0-24.37,10.82-46.25,27.94-60.98c-0.17,2.02-0.25,4.04-0.25,6.1c0,44.53,36.11,80.63,80.64,80.63
				C2410.74,1826.32,2429.13,1818.91,2443.27,1806.67z"/>
			<circle class="st14" cx="2362.89" cy="1800.58" r="80.64"/>
			<circle class="st24" cx="803.66" cy="1861.02" r="80.64"/>
			<path class="st25" d="M884.04,1867.11c-3.07,41.71-37.92,74.57-80.38,74.57c-44.53,0-80.64-36.11-80.64-80.68
				c0-24.37,10.82-46.25,27.94-60.98c-0.17,2.02-0.25,4.04-0.25,6.1c0,44.53,36.11,80.63,80.63,80.63
				C851.51,1886.76,869.9,1879.36,884.04,1867.11z"/>
			<circle class="st14" cx="803.66" cy="1861.02" r="80.64"/>
			<circle class="st16" cx="2492.63" cy="1979.2" r="37.5"/>
			<path class="st25" d="M2530.12,1979.2c0,20.71-16.79,37.5-37.5,37.5c-20.71,0-37.5-16.79-37.5-37.5
				c0-18.94,14.06-34.64,32.32-37.12c-6.99,4.84-11.57,12.96-11.57,22.18c0,14.98,12.12,27.14,27.1,27.14
				c12.67,0,23.27-8.63,26.26-20.33C2529.82,1973.69,2530.12,1976.42,2530.12,1979.2z"/>
			<circle class="st15" cx="2492.63" cy="1979.2" r="37.5"/>
			<circle class="st24" cx="1395.79" cy="1667.61" r="37.5"/>
			<path class="st25" d="M1433.28,1667.61c0,20.71-16.79,37.5-37.5,37.5c-20.71,0-37.5-16.79-37.5-37.5
				c0-18.94,14.06-34.64,32.32-37.12c-6.99,4.84-11.57,12.96-11.57,22.18c0,14.98,12.12,27.14,27.1,27.14
				c12.67,0,23.27-8.63,26.26-20.33C1432.98,1662.1,1433.28,1664.83,1433.28,1667.61z"/>
			<circle class="st26" cx="1395.79" cy="1667.61" r="37.5"/>
			<path class="st25" d="M817.05,2108.24c-1.09,0.21-2.19,0.42-3.24,0.67c0.34-4.76,1.14-9.72,2.44-14.86
				C815.74,2098.48,815.95,2103.23,817.05,2108.24z"/>
			<path class="st25" d="M1671.42,1425.45v9.68l-4.63,8.21c0,0-81.1,9.74-81.1,65.85v478.4c0,0,1.6,45.24-62.83,41.79
				c1.98-2.1,3.79-4.42,5.39-7.03c5.3-8.59,8.12-20.12,7.11-34.76v-562.13H1671.42z"/>
		</g>
		<g>
			<path class="st27" d="M1417.55,1068.37h365.86c-7.98,31.82-12.26,64.66-12.26,97.91v118.31c0,25.19-4.37,50.13-13.02,73.81
				l-17.8,49.12c-6.72,18.31-24.18,30.56-43.66,30.56H1504.2c-19.48,0-36.95-12.26-43.66-30.56l-17.8-49.12
				c-8.65-23.68-13.02-48.62-13.02-73.81v-118.31C1429.72,1133.03,1425.52,1100.19,1417.55,1068.37z"/>
			<path class="st28" d="M1783.4,1068.37c-7.98,31.82-12.26,64.66-12.26,97.91v118.31c0,25.19-4.37,50.13-13.02,73.81l-17.8,49.12
				c-6.72,18.31-24.18,30.56-43.66,30.56h-27.04c7.64-5.37,13.69-13.02,17.05-22.17l17.8-49.12c8.65-23.68,13.02-48.62,13.02-73.81
				v-118.31c0-33.25,4.28-66.08,12.26-97.91h-310.18c-0.67-2.86-1.34-5.63-2.02-8.4H1783.4z"/>
			<polygon class="st29" points="1662.01,1056.48 1695.6,776.57 1512.27,776.57 1506.67,776.57 1540.26,1056.48 			"/>
			<path class="st11" d="M1923.72,717.8c0,72.8-24.1,139.98-64.66,193.97c-32.92,43.83-57.77,92.79-72.47,144.68h-372.15
				c-14.53-51.64-39.05-100.34-71.96-143.76c-40.98-54.16-65.33-121.76-65.33-194.89c0-177.93,143.84-322.36,321.6-323.28
				C1777.02,393.59,1923.72,539.61,1923.72,717.8z"/>
			<path class="st12" d="M1816.49,980.2c-12.43,24.43-22.42,49.96-29.89,76.24h-372.15c-14.53-51.64-39.05-100.34-71.96-143.76
				c-40.98-54.16-65.33-121.76-65.33-194.89c0-124.02,69.86-231.67,172.39-285.92c-48.2,56.51-77.25,129.65-77.25,209.67
				c0,73.14,24.35,140.73,65.33,194.89c0.33,0.43,0.66,0.87,0.98,1.3c66.64,88.55,169.48,142.45,280.31,142.45H1816.49z"/>
			<path class="st28" d="M1936.31,717.8c0,72.8-24.1,139.98-64.66,193.97c-32.92,43.83-57.77,92.79-72.47,144.68l-25.4-3.21
				c14.69-37.11,18.93-69.17,43.28-101.59c40.56-53.99,64.66-121.17,64.66-193.97c0-51.14-12.09-99.59-33.5-142.66
				c-69.78,47.11-168.95-62.05-111.6-126.63c-51.64-34.34-113.53-54.33-179.86-53.99c-58.44,0.25-113.28,16.12-160.47,43.5
				c56.93-51.47,132.34-82.88,215.05-83.38C1789.62,393.59,1936.31,539.61,1936.31,717.8z"/>
			<path class="st30" d="M1923.72,717.8c0,72.8-24.1,139.98-64.66,193.97c-55.42,73.81-87.92,162.23-87.92,254.51v118.31
				c0,25.17-4.39,50.14-12.98,73.8l-17.84,49.14c-6.72,18.31-24.18,30.57-43.66,30.57H1504.2c-19.48,0-36.95-12.26-43.66-30.57
				l-17.84-49.14c-8.59-23.66-12.98-48.63-12.98-73.8v-118.31c0-91.9-31.75-180.35-87.24-253.61
				c-41.01-54.14-65.34-121.7-65.34-194.88c0-177.93,143.84-322.36,321.6-323.28C1777.02,393.59,1923.72,539.61,1923.72,717.8z"/>
			<path class="st31" d="M1431.51,1312.25h337.85H1431.51z"/>
			<path class="st32" d="M1414.38,1056.48h372.23H1414.38z"/>
			<path class="st31" d="M1822.95,1121.61l-436.64,44.08L1822.95,1121.61z"/>
			<path class="st31" d="M1822.95,1208.79l-436.64,44.08L1822.95,1208.79z"/>
			<path class="st12" d="M1604.97,1438.09H1504.2c-19.48,0-36.95-12.26-43.66-30.56l-17.8-49.12
				c-8.65-23.68-13.02-48.62-13.02-73.81v-118.31c0-33.25-4.2-66.08-12.18-97.91h44.17l-9.24-11.92h192.04
				c-66.5,9.15-111.26,36.53-114.2,99.59v0.5c0.17,3.19,0.17,6.47,0.17,9.74v118.31c0,25.19,4.37,50.13,13.02,73.81l17.8,49.12
				C1568.02,1425.83,1585.49,1438.09,1604.97,1438.09z"/>
		</g>
		<path class="st12" d="M3174.09,2558.39c-87.21,28.52-272.77,53.56-522.87,72.05c-60.49,48.52-501.51,86.17-1036.64,86.17
			c-531.03,0-969.4-37.08-1035.15-85.09c-257.84-18.56-449.19-44-538.17-73.13c-16.18-5.32-86.01-37.04,3.31-37.04h3126.21
			C3257.38,2521.35,3190.27,2553.07,3174.09,2558.39z"/>
	</g>
</g>
</svg>
