<?xml version="1.0" encoding="utf-8"?>
<!-- Generator: Adobe Illustrator 24.3.0, SVG Export Plug-In . SVG Version: 6.00 Build 0)  -->
<svg version="1.1" id="Layer_1" xmlns="http://www.w3.org/2000/svg" xmlns:xlink="http://www.w3.org/1999/xlink" x="0px" y="0px"
	 viewBox="600 600 2800 2800" style="enable-background:new 0 0 4000 4000;" xml:space="preserve">
<style type="text/css">
	.st0{fill:#FFFFFF;}
	.st1{fill:#FFDB9C;}
	.st2{fill:#FFCA28;}
	.st3{fill:#FF5722;}
	.st4{fill:#8BC34A;}
	.st5{fill:#102770;}
	.st6{fill:#19B5FE;}
	.st7{fill:#5C6A79;}
	.st8{opacity:0.66;}
	.st9{fill:#22A7F0;}
	.st10{opacity:0.3;}
	.st11{filter:url(#Adobe_OpacityMaskFilter);}
	.st12{filter:url(#Adobe_OpacityMaskFilter_1_);}
	.st13{mask:url(#SVGID_1_);fill:url(#SVGID_2_);}
	.st14{opacity:0.3;fill:url(#SVGID_3_);}
	.st15{filter:url(#Adobe_OpacityMaskFilter_2_);}
	.st16{filter:url(#Adobe_OpacityMaskFilter_3_);}
	.st17{mask:url(#SVGID_4_);fill:url(#SVGID_5_);}
	.st18{opacity:0.3;fill:url(#SVGID_6_);}
	.st19{filter:url(#Adobe_OpacityMaskFilter_4_);}
	.st20{filter:url(#Adobe_OpacityMaskFilter_5_);}
	.st21{mask:url(#SVGID_7_);fill:url(#SVGID_8_);}
	.st22{opacity:0.3;fill:url(#SVGID_9_);}
	.st23{fill:#DCE5EE;}
	.st24{fill:#DCDEE0;}
	.st25{fill:#5F5A57;}
	.st26{opacity:0.2;}
	.st27{fill:#F7C714;}
	.st28{fill:#26316B;}
	.st29{fill:#3EDC81;}
	.st30{opacity:0.6;}
	.st31{opacity:0.4;}
</style>
<g>
	<g>
		<circle class="st1" cx="2000" cy="2015" r="1165"/>
	</g>
	<g>
		<path class="st2" d="M3349.3,2298.4L3349.3,2298.4c-3.3,0-6.5-1.3-8.8-3.7l-48-48c-4.9-4.9-4.9-12.8,0-17.7l48-48
			c4.7-4.7,13-4.7,17.7,0l48,48c2.3,2.3,3.7,5.5,3.7,8.8s-1.3,6.5-3.7,8.8l-48,48C3355.8,2297,3352.6,2298.4,3349.3,2298.4z
			 M3319,2237.8l30.4,30.4l30.4-30.4l-30.4-30.4L3319,2237.8z"/>
	</g>
	<g>
		<g>
			<path class="st3" d="M3536.1,2039.4c-6.9,0-12.5-5.6-12.5-12.5v-81.7c0-6.9,5.6-12.5,12.5-12.5s12.5,5.6,12.5,12.5v81.7
				C3548.6,2033.8,3543,2039.4,3536.1,2039.4z"/>
		</g>
		<g>
			<path class="st3" d="M3576.9,1998.6h-81.7c-6.9,0-12.5-5.6-12.5-12.5c0-6.9,5.6-12.5,12.5-12.5h81.7c6.9,0,12.5,5.6,12.5,12.5
				C3589.4,1993,3583.8,1998.6,3576.9,1998.6z"/>
		</g>
	</g>
	<g>
		<g>
			<path class="st4" d="M483.3,1996c-6.9,0-12.5-5.6-12.5-12.5v-81.7c0-6.9,5.6-12.5,12.5-12.5s12.5,5.6,12.5,12.5v81.7
				C495.8,1990.4,490.2,1996,483.3,1996z"/>
		</g>
		<g>
			<path class="st4" d="M524.1,1955.1h-81.7c-6.9,0-12.5-5.6-12.5-12.5s5.6-12.5,12.5-12.5h81.7c6.9,0,12.5,5.6,12.5,12.5
				S531,1955.1,524.1,1955.1z"/>
		</g>
	</g>
	<g>
		<path class="st5" d="M3379.9,1767.6c-27,0-49-22-49-49s22-49,49-49s49,22,49,49S3406.9,1767.6,3379.9,1767.6z M3379.9,1694.7
			c-13.2,0-24,10.7-24,24s10.7,24,24,24s24-10.7,24-24S3393.1,1694.7,3379.9,1694.7z"/>
	</g>
	<g>
		<path class="st5" d="M628.9,2293.2c-32.9,0-59.7-26.8-59.7-59.7c0-32.9,26.8-59.7,59.7-59.7c32.9,0,59.7,26.8,59.7,59.7
			C688.6,2266.4,661.8,2293.2,628.9,2293.2z M628.9,2198.8c-19.1,0-34.7,15.6-34.7,34.7c0,19.1,15.6,34.7,34.7,34.7
			c19.1,0,34.7-15.6,34.7-34.7C663.6,2214.3,648,2198.8,628.9,2198.8z"/>
	</g>
	<g>
		<path class="st6" d="M657.3,1759.1c-3.5,0-6.8-1.4-9.2-4.1l-60.7-66.3c-3-3.3-4-7.9-2.7-12.2c1.3-4.3,4.9-7.5,9.2-8.4l87.8-19.4
			c4.3-1,8.9,0.5,11.9,3.8c3,3.3,4,7.9,2.7,12.2l-27.1,85.7c-1.3,4.3-4.9,7.5-9.2,8.4C659.1,1759,658.2,1759.1,657.3,1759.1z
			 M620.5,1687.8l31.4,34.4l14-44.4L620.5,1687.8z"/>
	</g>
	<g>
		<g>
			<g>
				<path class="st7" d="M2814,2939.4H1186c-80.7,0-146.1-65.4-146.1-146.1v-916.5c0-80.7,65.4-146.1,146.1-146.1h1628
					c80.7,0,146.1,65.4,146.1,146.1v916.5C2960.1,2874,2894.7,2939.4,2814,2939.4z"/>
			</g>
			<g class="st8">
				<path class="st0" d="M2952,1873.6v916.5c0,40.6-16.5,77.3-43.3,103.8c9.4-19.3,14.6-40.9,14.6-63.8v-941.9
					c0-66.6-54-120.7-120.7-120.7H1149.3c-40.1,0-76.4,16.1-102.8,42.4c23.6-48.8,73.6-82.4,131.5-82.4h1628
					C2886.6,1727.5,2952,1793,2952,1873.6z"/>
			</g>
			<g>
				<path class="st5" d="M2814,2957.8H1186c-90.7,0-164.5-73.8-164.5-164.5v-916.5c0-90.7,73.8-164.5,164.5-164.5h1628
					c90.7,0,164.5,73.8,164.5,164.5v916.5C2978.5,2884,2904.7,2957.8,2814,2957.8z M1186,1749c-70.5,0-127.8,57.3-127.8,127.8v916.5
					c0,70.5,57.3,127.8,127.8,127.8h1628c70.5,0,127.8-57.3,127.8-127.8v-916.5c0-70.5-57.3-127.8-127.8-127.8H1186z"/>
			</g>
			<g>
				<path class="st9" d="M2846.2,1912.1v840.6c0,35.3-28.6,63.8-63.8,63.8H1217.6c-35.2,0-63.8-28.5-63.8-63.8v-840.6
					c0-35.2,28.5-63.8,63.8-63.8h1564.8c6,0,11.8,0.8,17.4,2.4C2826.6,1858.2,2846.2,1882.9,2846.2,1912.1z"/>
			</g>
			<g class="st10">
				<path class="st5" d="M2877.5,1874.6v840.6c0,24.5-13.8,45.8-34.1,56.5c1.8-6,2.9-12.4,2.9-19v-840.6c0-29.2-19.7-53.9-46.4-61.4
					c-5.5-1.6-11.4-2.4-17.4-2.4H1217.6c-10.7,0-20.8,2.6-29.7,7.3c8.1-25.9,32.3-44.8,61-44.8h1564.8c6,0,11.8,0.8,17.4,2.4
					C2857.8,1820.7,2877.5,1845.4,2877.5,1874.6z"/>
			</g>
			<g class="st8">
				<path class="st0" d="M1153.8,1912.1v840.6c0,25.7,15.2,47.9,37.1,58h-9.2c-35.2,0-63.8-28.6-63.8-63.9v-840.6
					c0-35.2,28.6-63.9,63.8-63.9h1564.8c6,0,11.9,0.9,17.4,2.4c3.2,0.9,6.4,2,9.3,3.4H1217.6
					C1182.4,1848.3,1153.8,1876.9,1153.8,1912.1z"/>
			</g>
			<g class="st10">
				<path class="st5" d="M2836.2,1922.1v840.6c0,24.9-14.2,46.4-35,56.9v-891.8c0-19.1-15.5-34.5-34.6-34.5H1150.7
					c10.5-20.8,32-35,56.9-35h1564.8C2807.7,1858.3,2836.2,1886.9,2836.2,1922.1z"/>
			</g>
			<defs>
				<filter id="Adobe_OpacityMaskFilter" filterUnits="userSpaceOnUse" x="1153.8" y="1848.3" width="651.9" height="880.4">
					<feFlood  style="flood-color:white;flood-opacity:1" result="back"/>
					<feBlend  in="SourceGraphic" in2="back" mode="normal"/>
				</filter>
			</defs>
			<mask maskUnits="userSpaceOnUse" x="1153.8" y="1848.3" width="651.9" height="880.4" id="SVGID_1_">
				<g class="st11">
					<defs>
						<filter id="Adobe_OpacityMaskFilter_1_" filterUnits="userSpaceOnUse" x="1153.8" y="1848.3" width="651.9" height="880.4">
							<feFlood  style="flood-color:white;flood-opacity:1" result="back"/>
							<feBlend  in="SourceGraphic" in2="back" mode="normal"/>
						</filter>
					</defs>
					<mask maskUnits="userSpaceOnUse" x="1153.8" y="1848.3" width="651.9" height="880.4" id="SVGID_1_">
						<g class="st12">
						</g>
					</mask>
					<linearGradient id="SVGID_2_" gradientUnits="userSpaceOnUse" x1="1731.4094" y1="1501.176" x2="1126.4103" y2="2701.1753">
						<stop  offset="0" style="stop-color:#FFFFFF"/>
						<stop  offset="1" style="stop-color:#000000"/>
					</linearGradient>
					<polygon class="st13" points="1805.7,1848.3 1153.8,2728.6 1153.8,2152.4 1379,1848.3 					"/>
				</g>
			</mask>
			<linearGradient id="SVGID_3_" gradientUnits="userSpaceOnUse" x1="1731.4094" y1="1501.176" x2="1126.4103" y2="2701.1753">
				<stop  offset="0" style="stop-color:#FFFFFF"/>
				<stop  offset="1" style="stop-color:#FFFFFF"/>
			</linearGradient>
			<polygon class="st14" points="1805.7,1848.3 1153.8,2728.6 1153.8,2152.4 1379,1848.3 			"/>
			<defs>
				<filter id="Adobe_OpacityMaskFilter_2_" filterUnits="userSpaceOnUse" x="2084.6" y="1850.7" width="761.7" height="965.9">
					<feFlood  style="flood-color:white;flood-opacity:1" result="back"/>
					<feBlend  in="SourceGraphic" in2="back" mode="normal"/>
				</filter>
			</defs>
			<mask maskUnits="userSpaceOnUse" x="2084.6" y="1850.7" width="761.7" height="965.9" id="SVGID_4_">
				<g class="st15">
					<defs>
						<filter id="Adobe_OpacityMaskFilter_3_" filterUnits="userSpaceOnUse" x="2084.6" y="1850.7" width="761.7" height="965.9">
							<feFlood  style="flood-color:white;flood-opacity:1" result="back"/>
							<feBlend  in="SourceGraphic" in2="back" mode="normal"/>
						</filter>
					</defs>
					<mask maskUnits="userSpaceOnUse" x="2084.6" y="1850.7" width="761.7" height="965.9" id="SVGID_4_">
						<g class="st16">
						</g>
					</mask>
					<linearGradient id="SVGID_5_" gradientUnits="userSpaceOnUse" x1="2754.5017" y1="2016.9852" x2="2149.5027" y2="3216.9844">
						<stop  offset="0" style="stop-color:#FFFFFF"/>
						<stop  offset="1" style="stop-color:#000000"/>
					</linearGradient>
					<path class="st17" d="M2846.2,1912.1v452.2l-334.9,452.2h-426.8l715.2-965.9C2826.6,1858.2,2846.2,1882.9,2846.2,1912.1z"/>
				</g>
			</mask>
			<linearGradient id="SVGID_6_" gradientUnits="userSpaceOnUse" x1="2754.5017" y1="2016.9852" x2="2149.5027" y2="3216.9844">
				<stop  offset="0" style="stop-color:#FFFFFF"/>
				<stop  offset="1" style="stop-color:#FFFFFF"/>
			</linearGradient>
			<path class="st18" d="M2846.2,1912.1v452.2l-334.9,452.2h-426.8l715.2-965.9C2826.6,1858.2,2846.2,1882.9,2846.2,1912.1z"/>
			<defs>
				<filter id="Adobe_OpacityMaskFilter_4_" filterUnits="userSpaceOnUse" x="1351.1" y="1848.3" width="930.3" height="968.3">
					<feFlood  style="flood-color:white;flood-opacity:1" result="back"/>
					<feBlend  in="SourceGraphic" in2="back" mode="normal"/>
				</filter>
			</defs>
			<mask maskUnits="userSpaceOnUse" x="1351.1" y="1848.3" width="930.3" height="968.3" id="SVGID_7_">
				<g class="st19">
					<defs>
						<filter id="Adobe_OpacityMaskFilter_5_" filterUnits="userSpaceOnUse" x="1351.1" y="1848.3" width="930.3" height="968.3">
							<feFlood  style="flood-color:white;flood-opacity:1" result="back"/>
							<feBlend  in="SourceGraphic" in2="back" mode="normal"/>
						</filter>
					</defs>
					<mask maskUnits="userSpaceOnUse" x="1351.1" y="1848.3" width="930.3" height="968.3" id="SVGID_7_">
						<g class="st20">
						</g>
					</mask>
					<linearGradient id="SVGID_8_" gradientUnits="userSpaceOnUse" x1="2133.231" y1="1703.762" x2="1528.231" y2="2903.7627">
						<stop  offset="0" style="stop-color:#FFFFFF"/>
						<stop  offset="1" style="stop-color:#000000"/>
					</linearGradient>
					<polygon class="st21" points="2281.5,1848.3 1564.5,2816.6 1351.1,2816.6 2068.1,1848.3 					"/>
				</g>
			</mask>
			<linearGradient id="SVGID_9_" gradientUnits="userSpaceOnUse" x1="2133.231" y1="1703.762" x2="1528.231" y2="2903.7627">
				<stop  offset="0" style="stop-color:#FFFFFF"/>
				<stop  offset="1" style="stop-color:#FFFFFF"/>
			</linearGradient>
			<polygon class="st22" points="2281.5,1848.3 1564.5,2816.6 1351.1,2816.6 2068.1,1848.3 			"/>
			<g>
				<path class="st5" d="M2782.4,2834.9H1217.6c-45.3,0-82.2-36.9-82.2-82.2v-840.6c0-45.3,36.9-82.2,82.2-82.2h1564.8
					c45.3,0,82.2,36.9,82.2,82.2v840.6C2864.6,2798.1,2827.7,2834.9,2782.4,2834.9z M1217.6,1866.6c-25.1,0-45.5,20.4-45.5,45.5
					v840.6c0,25.1,20.4,45.5,45.5,45.5h1564.8c25.1,0,45.5-20.4,45.5-45.5v-840.6c0-25.1-20.4-45.5-45.5-45.5H1217.6z"/>
			</g>
			<g>
				<path class="st23" d="M2877.3,3155.8H1122.7c-119.5,0-216.4-96.9-216.4-216.4v0h2187.4v0
					C3093.7,3058.9,2996.8,3155.8,2877.3,3155.8z"/>
			</g>
			<g class="st10">
				<path class="st5" d="M3080.7,2939.4c-6.8,47.4-28.9,89.9-61.2,122.1c-39.1,39.2-93.2,63.4-153,63.4H1111.9
					c-88.6,0-164.7-53.2-198.2-129.4c-4.8-17.9-7.3-36.7-7.3-56.1h21.2c33.3,76.7,109.7,130.3,198.6,130.3h1754.6
					c59.8,0,113.9-24.2,153-63.3c19.1-19.1,34.7-41.8,45.6-67H3080.7z"/>
			</g>
			<g>
				<path class="st5" d="M2877.3,3174.1H1122.7c-129.4,0-234.7-105.3-234.7-234.7c0-10.1,8.2-18.4,18.4-18.4h2187.4
					c10.1,0,18.4,8.2,18.4,18.4C3112.1,3068.9,3006.8,3174.1,2877.3,3174.1z M925.5,2957.8c9.3,100.6,94.2,179.7,197.2,179.7h1754.6
					c103,0,187.9-79,197.2-179.7H925.5z"/>
			</g>
			<g>
				<path class="st24" d="M2094.9,3012.4h-189.7c-40.3,0-73-32.7-73-73l0,0h335.7l0,0C2167.9,2979.7,2135.2,3012.4,2094.9,3012.4z"
					/>
			</g>
			<g class="st10">
				<path class="st5" d="M2167.9,2939.4c0,20.2-8.2,38.4-21.4,51.6c-13.3,13.2-31.4,21.4-51.7,21.4h-45c20.2,0,38.4-8.1,51.7-21.4
					c13.2-13.2,21.4-31.4,21.4-51.6H2167.9z"/>
			</g>
			<g>
				<path class="st5" d="M2094.9,3028.1h-189.7c-48.9,0-88.7-39.8-88.7-88.7c0-8.7,7-15.7,15.7-15.7h335.7c8.7,0,15.7,7,15.7,15.7
					C2183.6,2988.3,2143.8,3028.1,2094.9,3028.1z M1850.1,2955.2c6.9,23.9,28.9,41.5,55.1,41.5h189.7c26.1,0,48.2-17.6,55.1-41.5
					H1850.1z"/>
			</g>
			<g class="st10">
				<path class="st25" d="M1291,2410.7c1.1-5.5,2.3-10.8,3.8-15.9C1293.4,2399.9,1292.1,2405.2,1291,2410.7z"/>
			</g>
		</g>
		<g>
			<g>
				<path class="st3" d="M2019.1,2554.1c-14.7,0.1-29.5,8.9-36.8,26.5c-5.9,14.4-20.7,23.2-36,20.5l-466.5-81.6
					c-53.1-9.3-91.9-55.4-91.9-109.4v-59.7c0,53.9,38.8,100,91.9,109.4L2019.1,2554.1z"/>
			</g>
			<g class="st26">
				<path class="st5" d="M2019.1,2554.1c-14.7,0.1-29.5,8.9-36.8,26.5c-5.9,14.4-20.7,23.2-36,20.5l-466.5-81.6
					c-53.1-9.3-91.9-55.4-91.9-109.4v-59.7c0,53.9,38.8,100,91.9,109.4L2019.1,2554.1z"/>
			</g>
			<g>
				<path class="st5" d="M1951.9,2615.3c-2.6,0-5.3-0.2-8-0.7l-466.5-81.6c-59.8-10.4-103.3-62.1-103.3-122.8v-59.7
					c0-7.6,6.1-13.7,13.7-13.7c7.6,0,13.7,6.1,13.7,13.7c0,47.4,33.9,87.7,80.6,95.9l539.2,94.3c7,1.2,11.9,7.6,11.3,14.7
					s-6.5,12.5-13.6,12.5c-10.5,0-19.5,6.8-24.2,18.1C1987.5,2603.9,1970.5,2615.3,1951.9,2615.3z M1403.9,2431.3
					c8.3,37.9,38.7,67.9,78.3,74.8l466.5,81.6c8.8,1.5,17.4-3.5,21-12.2c2.2-5.4,5.1-10.3,8.5-14.6l-500.6-87.5
					C1447.9,2468.1,1422.2,2452.8,1403.9,2431.3z"/>
			</g>
			<g>
				<path class="st3" d="M2650.5,2350.4v59.7c0,54-38.7,100.1-91.9,109.4l-466.5,81.6c-15.4,2.7-30.1-6.1-36-20.5
					c-7.3-17.6-22-26.5-36.7-26.5l539.2-94.3C2611.8,2450.5,2650.5,2404.3,2650.5,2350.4z"/>
			</g>
			<g class="st26">
				<path class="st5" d="M2650.5,2350.4v59.7c0,54-38.7,100.1-91.9,109.4l-466.5,81.6c-15.4,2.7-30.1-6.1-36-20.5
					c-7.3-17.6-22-26.5-36.7-26.5l539.2-94.3C2611.8,2450.5,2650.5,2404.3,2650.5,2350.4z"/>
			</g>
			<g>
				<path class="st5" d="M2086.6,2615.3c-18.6,0-35.6-11.3-43.1-29.4c-4.7-11.3-13.7-18-24.1-18.1c-7.1,0-13-5.5-13.6-12.5
					s4.3-13.4,11.3-14.7l539.2-94.3c46.7-8.2,80.5-48.5,80.5-95.9c0-7.6,6.1-13.7,13.7-13.7s13.7,6.1,13.7,13.7v59.7
					c0,60.8-43.4,112.4-103.2,122.8l-466.5,81.6C2091.9,2615,2089.2,2615.3,2086.6,2615.3z M2060.4,2560.8c3.4,4.3,6.2,9.2,8.4,14.5
					c3.6,8.7,12.3,13.7,21,12.2l466.5-81.6c39.5-6.9,69.9-36.9,78.2-74.7c-18.3,21.5-43.9,36.8-73.5,42L2060.4,2560.8z"/>
			</g>
			<g>
				<path class="st27" d="M2019.3,1612.3v941.7h-0.2l-539.2-94.3c-53.1-9.3-91.9-55.4-91.9-109.4v-772c0-5.7,0.7-11.2,2.1-16.4
					c8.2-31.4,39.5-52.9,73.3-47L2019.3,1612.3z"/>
			</g>
			<g class="st8">
				<path class="st0" d="M2019.3,2529.5v24.5h-0.2l-539.2-94.3c-53.1-9.3-91.9-55.4-91.9-109.4v-772c0-5.7,0.7-11.2,2.1-16.4
					c0.8-2.8,1.7-5.6,2.8-8.3v772.9c0,53.9,38.8,100,91.9,109.4L2019.3,2529.5z"/>
			</g>
			<g>
				<path class="st27" d="M2650.5,1578.5v772c0,53.9-38.7,100-91.9,109.4l-539.2,94.3h-0.2v-941.7l555.9-97.2
					c33.7-5.9,65.1,15.5,73.3,47C2649.8,1567.3,2650.5,1572.8,2650.5,1578.5z"/>
			</g>
			<g class="st8">
				<path class="st0" d="M2650.5,1578.5v772c0,53.9-38.7,100-91.9,109.4l-539.2,94.3h-0.2v-4.9l510.9-89.4
					c53.1-9.3,91.9-55.4,91.9-109.4v-772c0-3.1-0.2-6.2-0.7-9.1c-13.1-8.5-29.4-12.4-46.2-9.4l-555.9,97.2v-44.8l552.6-96.6l3.3-0.6
					c33.7-5.9,65.1,15.5,73.3,47C2649.8,1567.3,2650.5,1572.8,2650.5,1578.5z"/>
			</g>
			<g>
				<path class="st5" d="M2019.3,2567.8c-0.8,0-1.7-0.1-2.5-0.2l-539.2-94.3c-59.8-10.5-103.3-62.2-103.3-122.8v-772
					c0-6.9,0.9-13.6,2.6-20c10.1-38.8,49.1-63.8,88.9-56.8l555.9,97.2c6.6,1.1,11.3,6.8,11.3,13.5v941.7
					C2032.9,2561.6,2026.8,2567.8,2019.3,2567.8z M1452.3,1527.9c-22.6,0-43.2,15.3-49,37.7c-1.1,4.2-1.7,8.5-1.7,12.9v772
					c0,47.4,33.9,87.7,80.6,95.9l523.3,91.5v-914l-544.5-95.2C1458.1,1528.1,1455.2,1527.9,1452.3,1527.9z"/>
			</g>
			<g>
				<path class="st5" d="M2019.4,2567.8c-7.6,0-13.9-6.1-13.9-13.7v-941.7c0-6.7,4.8-12.3,11.3-13.5l555.9-97.2
					c39.7-7,78.8,18.1,88.9,57c1.7,6.2,2.6,12.9,2.6,19.8v772c0,60.7-43.4,112.4-103.2,122.8l-539.2,94.3
					C2021,2567.7,2020.2,2567.8,2019.4,2567.8z M2019.4,2554.1L2019.4,2554.1L2019.4,2554.1z M2032.9,1623.8v914l523.3-91.5
					c46.7-8.2,80.5-48.5,80.5-95.9v-772c0-4.5-0.6-8.8-1.7-12.8c-6.6-25.4-31.9-41.6-57.7-37.1L2032.9,1623.8z"/>
			</g>
			<g>
				<path class="st0" d="M2019.2,2466.2l-527.9-89.1c-26.9-4.5-46.5-27.8-46.5-55v-781.2c0-34.7,31.3-60.9,65.4-55l509,89V2466.2z"
					/>
			</g>
			<g class="st10">
				<path class="st5" d="M2019.3,1583.1v848.2c-0.1-0.2-0.2-0.4-0.2-0.4l-127-21.9c-6.4-1.1-11.1-6.7-11.1-13.2v-791.1
					c0-9.6,8.6-16.9,18-15.4l112.8,17.8C2011.8,1607,2017.7,1593.6,2019.3,1583.1z"/>
			</g>
			<g class="st10">
				<path class="st5" d="M2011.8,2471.6v35.2l-577.3-104.2c-26.8-4.5-46.5-27.8-46.5-55.1v-781.2c0-34.6,31.2-60.9,65.3-55
					c-5.3,8.5-8.4,18.5-8.4,29.4v781.2c0,27.2,19.7,50.5,46.5,55L2011.8,2471.6z"/>
			</g>
			<g>
				<path class="st5" d="M1743,1680.3c-0.7,0-1.4-0.1-2.1-0.2l-226.1-38.8c-6.6-1.1-11-7.4-9.9-13.9c1.1-6.6,7.4-11,13.9-9.9
					l226.1,38.8c6.6,1.1,11,7.4,9.9,13.9C1753.9,1676.1,1748.8,1680.3,1743,1680.3z"/>
			</g>
			<g>
				<path class="st5" d="M1743,1984.2c-0.7,0-1.4-0.1-2.1-0.2l-226.1-38.8c-6.6-1.1-11-7.4-9.9-13.9c1.1-6.6,7.4-11,13.9-9.9
					l226.1,38.8c6.6,1.1,11,7.4,9.9,13.9C1753.9,1980.1,1748.8,1984.2,1743,1984.2z"/>
			</g>
			<g>
				<path class="st5" d="M1877,1813.8c-0.7,0-1.4-0.1-2.1-0.2l-362.4-63.4c-6.6-1.1-11-7.4-9.8-14c1.1-6.6,7.5-10.9,14-9.8
					l362.4,63.4c6.6,1.1,11,7.4,9.8,14C1887.9,1809.7,1882.8,1813.8,1877,1813.8z"/>
			</g>
			<g>
				<path class="st5" d="M1912.2,1882.1c-0.7,0-1.4-0.1-2.1-0.2l-397.6-68.3c-6.6-1.1-11-7.4-9.9-13.9c1.1-6.6,7.3-11,13.9-9.9
					l397.6,68.3c6.6,1.1,11,7.4,9.9,13.9C1923,1878,1917.9,1882.1,1912.2,1882.1z"/>
			</g>
			<g>
				<path class="st5" d="M1937,2286.8c-0.7,0-1.4-0.1-2.1-0.2l-216.7-37.5c-6.6-1.1-11-7.4-9.8-14c1.1-6.6,7.4-11,14-9.8l216.7,37.5
					c6.6,1.1,11,7.4,9.8,14C1947.9,2282.7,1942.8,2286.8,1937,2286.8z"/>
			</g>
			<g>
				<path class="st5" d="M1877,1940.6c-0.7,0-1.4-0.1-2.1-0.2l-362.4-63.4c-6.6-1.1-11-7.4-9.8-14c1.1-6.6,7.5-10.9,14-9.8
					l362.4,63.4c6.6,1.1,11,7.4,9.8,14C1887.9,1936.4,1882.8,1940.6,1877,1940.6z"/>
			</g>
			<g>
				<path class="st0" d="M2593.6,1540.8v781.5c0,27.1-19.5,50.3-46.2,55l-528.2,92.4v-894.8l149.8-26.2l105.8-18.5l253.4-44.3
					c24.6-4.3,47.6,8.1,58.7,28.3C2591.1,1522,2593.6,1531.1,2593.6,1540.8z"/>
			</g>
			<g class="st10">
				<path class="st5" d="M2567,2369.8c0,27.1-19.5,50.2-46.2,55l-492,86.1l-4.6-42.1l523.2-91.5
					C2554.5,2376,2561.1,2373.4,2567,2369.8z"/>
			</g>
			<g class="st10">
				<path class="st5" d="M2425.7,1536.5c15.9-2.8,30.5,9.5,30.5,25.6v749.2c0,27.1-19.5,50.3-46.2,55l-390.7,68.3v-827.8
					L2425.7,1536.5z"/>
			</g>
			<g>
				<path class="st5" d="M2019.2,2478.3c-0.7,0-1.3-0.1-2-0.2l-527.9-89.1c-32.8-5.5-56.6-33.7-56.6-66.9v-781.2
					c0-20.1,8.8-39,24.2-52c15.4-12.9,35.6-18.3,55.4-14.9l509,89c5.8,1,10,6,10,11.9v891.3c0,3.6-1.6,6.9-4.3,9.2
					C2024.8,2477.3,2022.1,2478.3,2019.2,2478.3z M1500.6,1497.1c-10.2,0-20.1,3.6-28.1,10.3c-9.9,8.3-15.6,20.5-15.6,33.5V2322
					c0,21.4,15.3,39.5,36.4,43.1l513.8,86.8V1585l-499-87.3C1505.7,1497.3,1503.2,1497.1,1500.6,1497.1z"/>
			</g>
			<g>
				<path class="st5" d="M2019.2,2481.7c-2.8,0-5.6-1-7.8-2.8c-2.7-2.3-4.3-5.7-4.3-9.2v-894.8c0-5.9,4.2-10.9,10-11.9l509-89
					c28.7-5,57.4,8.8,71.4,34.4c5.4,9.9,8.2,21.1,8.2,32.5v781.5c0,33-23.6,61.2-56.2,66.9l-528.2,92.4
					C2020.6,2481.7,2019.9,2481.7,2019.2,2481.7z M2031.3,1585v870.3l514-89.9c21-3.7,36.2-21.8,36.2-43.1v-781.5
					c0-7.5-1.8-14.5-5.3-20.9c-9-16.5-27.5-25.4-46-22.2L2031.3,1585z"/>
			</g>
			<g>
				<path class="st5" d="M1485.9,2570.1l9.5-256.3c-0.7-5.4-6.2-8.7-11.2-6.9l-212.8,131.8c-4.7,1.7-4.8,8.3-0.1,10.1l74.5,28.6
					l-51,83.2l71.8,44l51-83.2l59.4,53.4C1480.7,2578.1,1486.5,2575.1,1485.9,2570.1z"/>
			</g>
			<g>
				<path class="st5" d="M2092.7,1719.1c-5.8,0-10.9-4.2-11.9-10c-1.1-6.6,3.3-12.8,9.9-13.9l226.1-38.8c6.5-1.1,12.8,3.3,13.9,9.9
					c1.1,6.6-3.3,12.8-9.9,13.9l-226.1,38.8C2094.1,1719,2093.4,1719.1,2092.7,1719.1z"/>
			</g>
			<g>
				<path class="st5" d="M2092.7,1883.9c-5.8,0-10.9-4.2-11.9-10c-1.1-6.6,3.3-12.8,9.9-13.9l278.3-47.7c6.5-1.1,12.8,3.3,13.9,9.9
					c1.1,6.6-3.3,12.8-9.9,13.9l-278.3,47.7C2094.1,1883.9,2093.4,1883.9,2092.7,1883.9z"/>
			</g>
			<g>
				<path class="st5" d="M2092.7,1954.7c-5.8,0-10.9-4.2-11.9-10c-1.1-6.6,3.3-12.8,9.9-13.9l374.2-63.7c6.5-1.1,12.8,3.3,13.9,9.9
					c1.1,6.6-3.3,12.8-9.9,13.9l-374.2,63.7C2094,1954.6,2093.4,1954.7,2092.7,1954.7z"/>
			</g>
			<g>
				<polygon class="st3" points="2274.8,1530.2 2274.8,1794.2 2221.9,1745.9 2169,1811.5 2169,1548.7 				"/>
			</g>
			<g class="st8">
				<path class="st0" d="M2274.8,1526.9v267.4l-26.5-24.1v-181.3c0-14.1-12.7-24.7-26.5-22.3l-52.8,9.2v-30.4L2274.8,1526.9z"/>
			</g>
			<g>
				<path class="st5" d="M2169,1823.6c-1.3,0-2.7-0.2-4-0.7c-4.8-1.7-8.1-6.3-8.1-11.4v-262.8c0-5.9,4.2-10.9,10-11.9l105.8-18.5
					c3.5-0.6,7.1,0.4,9.8,2.6c2.7,2.3,4.3,5.7,4.3,9.2v264.1c0,4.8-2.8,9.1-7.2,11c-4.4,1.9-9.5,1.1-13-2.1l-43.4-39.6l-44.8,55.6
					C2176.1,1822,2172.6,1823.6,2169,1823.6z M2181.1,1558.8v218.5l31.4-38.9c2.1-2.6,5.2-4.2,8.5-4.5c3.4-0.3,6.6,0.9,9.1,3.1
					l32.7,29.8v-222.3L2181.1,1558.8z"/>
			</g>
			<g>
				<path class="st28" d="M2019.3,1583.1v-8.2C2019.8,1577.1,2019.7,1580,2019.3,1583.1z"/>
			</g>
		</g>
		<g>
			<g>
				
					<rect x="2877.6" y="2431.4" transform="matrix(0.6994 -0.7147 0.7147 0.6994 -889.2596 2830.7168)" class="st0" width="86" height="82.2"/>
			</g>
			<g>
				<path class="st5" d="M2919.9,2547c-3.8,0-7.6-1.4-10.5-4.3l-58.8-57.5c-2.8-2.8-4.5-6.6-4.5-10.6c0-4,1.5-7.8,4.3-10.7
					l60.1-61.4c2.8-2.8,6.6-4.5,10.6-4.5c3.8-0.1,7.8,1.5,10.7,4.3l58.8,57.5c2.8,2.8,4.5,6.6,4.5,10.6c0,4-1.5,7.8-4.3,10.7
					l-60.1,61.4C2927.7,2545.5,2923.8,2547,2919.9,2547z M2882.4,2474.3l37.3,36.5l39.1-40l-37.3-36.5L2882.4,2474.3z"/>
			</g>
			<g>
				<path class="st29" d="M2899.6,2113.8c-95.4-93.3-248.4-91.7-341.8,3.7c-93.4,95.4-91.7,248.4,3.7,341.8
					c95.4,93.4,248.4,91.7,341.8-3.7S2995,2207.1,2899.6,2113.8z M2844.8,2398.4c-61.8,63.1-163,64.3-226.1,2.4
					c-63.1-61.7-64.3-163-2.4-226.1c61.7-63.1,163-64.2,226.1-2.4C2905.5,2234,2906.6,2335.3,2844.8,2398.4z"/>
			</g>
			<g class="st8">
				<path class="st0" d="M2899.6,2113.8c-88.6-86.7-226.8-91.4-320.9-15.3c91-50.5,208.1-37.9,286.3,38.6
					c95.4,93.3,97.1,246.4,3.7,341.8c-6.7,6.8-13.7,13.2-20.9,19c20-11.1,38.7-25.2,55.5-42.4
					C2996.6,2360.2,2995,2207.1,2899.6,2113.8z"/>
			</g>
			<g class="st10">
				<path class="st5" d="M2608.1,2403.6c-81.9-80.2-94.7-204.4-37.5-298.3c-4.4,3.9-8.7,8-12.8,12.2
					c-93.4,95.4-91.7,248.4,3.7,341.8c95.4,93.4,248.4,91.7,341.8-3.7c13.1-13.4,24.5-28,33.9-43.5
					C2843.1,2495.2,2699.3,2492.8,2608.1,2403.6z"/>
			</g>
			<g class="st30">
				<circle class="st9" cx="2730.5" cy="2286.5" r="159.9"/>
			</g>
			<g class="st10">
				<path class="st5" d="M2844.8,2398.4c-12,12.2-25.5,22.2-39.9,29.8c61.4-63.1,60.1-164.1-2.9-225.8
					c-50.8-49.8-126.4-58.7-186.2-27.3c0.1-0.1,0.3-0.3,0.5-0.5c61.7-63.1,163-64.2,226.1-2.4
					C2905.5,2234,2906.6,2335.3,2844.8,2398.4z"/>
			</g>
			<g>
				<path class="st5" d="M2730.4,2543.2c-67.5,0-131.1-25.9-179.5-73.2c-49-48-76.4-112.1-77.1-180.7
					c-0.7-68.6,25.3-133.3,73.2-182.3c48-49,112.1-76.4,180.7-77.2c1,0,1.9,0,2.9,0c67.5,0,131.1,25.9,179.5,73.2l0,0
					c49,48,76.4,112.1,77.1,180.7c0.7,68.6-25.3,133.3-73.2,182.3c-48,49-112.1,76.4-180.7,77.2
					C2732.4,2543.2,2731.4,2543.2,2730.4,2543.2z M2730.6,2059.8c-0.8,0-1.7,0-2.5,0c-60.6,0.7-117.2,24.9-159.6,68.1
					c-42.4,43.3-65.3,100.5-64.7,161c0.7,60.6,24.9,117.2,68.1,159.6s100.4,65.4,161,64.7c60.6-0.7,117.2-24.9,159.6-68.1
					c42.4-43.3,65.3-100.5,64.7-161c-0.7-60.6-24.9-117.2-68.1-159.6l0,0C2846.4,2082.7,2790.2,2059.8,2730.6,2059.8z"/>
			</g>
			<g>
				<path class="st5" d="M2730.5,2458.9c-43.5,0-87.1-16.3-120.6-49.1c-68-66.5-69.1-175.9-2.6-243.8
					c32.2-32.9,75.3-51.3,121.4-51.8c46.2-0.6,89.5,17,122.5,49.2v0c32.9,32.2,51.3,75.3,51.8,121.4c0.5,46.1-17,89.5-49.2,122.5
					C2820,2441.6,2775.3,2458.9,2730.5,2458.9z M2730.5,2139.2c-38.3,0-76.5,14.8-105.4,44.2c-56.9,58.1-55.8,151.6,2.3,208.5
					c58.1,56.9,151.6,55.8,208.5-2.3c27.5-28.1,42.5-65.3,42-104.7c-0.4-39.4-16.2-76.2-44.3-103.8c0,0,0,0,0,0
					C2805,2153.1,2767.8,2139.2,2730.5,2139.2z"/>
			</g>
			<g>
				<path class="st3" d="M3209.4,2710.5l-44.6,45.6c-13.6,13.9-35.8,14.1-49.6,0.5l-212-207.5l93.7-95.8l212,207.5
					C3222.7,2674.4,3223,2696.6,3209.4,2710.5z"/>
			</g>
			<g class="st10">
				<path class="st5" d="M3189.4,2725.8l-29.6,30.3c-13.5,13.9-35.8,14.1-49.6,0.5l-212-207.4l93.7-95.8l0.3,0.4l-59.8,61.1
					l212,207.4C3156.8,2734.5,3175.8,2735.6,3189.4,2725.8z"/>
			</g>
			<g class="st8">
				<path class="st0" d="M3214.4,2710.5l-44.6,45.6c-4,4.1-8.8,7-13.9,8.7l30.2-30.9c13.6-13.9,13.3-36.1-0.5-49.7l-209.2-204.7
					l25.5-26.1l212,207.4C3227.7,2674.4,3227.9,2696.6,3214.4,2710.5z"/>
			</g>
			<g>
				<path class="st5" d="M3139.7,2781.6c-12.6,0-25.3-4.7-35-14.3l-193.4-189.3c-16.2-15.8-16.4-41.8-0.6-58l57.3-58.6
					c7.7-7.8,17.9-12.2,28.9-12.3c11,0,21.3,4,29.1,11.7l193.4,189.3c19.7,19.3,20.1,51.1,0.8,70.9l0,0l-44.6,45.6
					C3165.7,2776.6,3152.7,2781.6,3139.7,2781.6z M2997.3,2479.2c0,0-0.1,0-0.1,0c-2.9,0-5.7,1.2-7.8,3.3l-57.3,58.6
					c-4.3,4.3-4.2,11.3,0.2,15.6l193.4,189.3c7.9,7.8,20.7,7.6,28.4-0.3l44.6-45.6c7.8-7.9,7.6-20.7-0.3-28.4L3005,2482.3
					C3002.9,2480.3,3000.2,2479.2,2997.3,2479.2z M3209.4,2710.5L3209.4,2710.5L3209.4,2710.5z"/>
			</g>
			<g class="st31">
				<path class="st0" d="M2744.7,2382.9c-18.9,18-57.8,7.9-86.8-22.5c-29-30.5-37.2-69.8-18.2-87.8c18.9-18,39.2,9.8,68.2,40.3
					C2736.8,2343.3,2763.6,2364.9,2744.7,2382.9z"/>
			</g>
		</g>
	</g>
	<g>
		<path class="st5" d="M3486.9,3178.9H513.1c-10.5,0-18.9-8.5-18.9-18.9s8.5-18.9,18.9-18.9h2973.8c10.5,0,18.9,8.5,18.9,18.9
			S3497.3,3178.9,3486.9,3178.9z"/>
	</g>
</g>
</svg>
