<?xml version="1.0" encoding="utf-8"?>
<!-- Generator: Adobe Illustrator 24.3.0, SVG Export Plug-In . SVG Version: 6.00 Build 0)  -->
<svg version="1.1" id="Layer_1" xmlns="http://www.w3.org/2000/svg" xmlns:xlink="http://www.w3.org/1999/xlink" x="0px" y="0px"
	 viewBox="0 0 3089.22 2265.74" style="enable-background:new 0 0 3089.22 2265.74;" xml:space="preserve">
<style type="text/css">
	.st0{opacity:0.3;}
	.st1{fill:#000072;}
	.st2{fill:#37DBFF;}
	.st3{opacity:0.3;fill:url(#SVGID_1_);}
	.st4{fill:#F2A549;}
	.st5{opacity:0.6;}
	.st6{fill:#FFFFFF;}
	.st7{fill:#F43F08;}
	.st8{fill:#4A83FF;}
	.st9{fill:#FFBE06;}
	.st10{fill:#30CE52;}
	.st11{opacity:0.55;}
	.st12{fill:#262F6A;}
	.st13{fill:#F15A23;}
	.st14{fill:#526A88;}
	.st15{fill:#19AFF9;}
	.st16{opacity:0.29;fill:url(#SVGID_2_);}
	.st17{opacity:0.29;fill:url(#SVGID_3_);}
	.st18{opacity:0.29;fill:url(#SVGID_4_);}
	.st19{fill:#282E6B;}
	.st20{fill:url(#SVGID_5_);}
	.st21{fill:#D2E7F9;}
	.st22{opacity:0.45;}
	.st23{opacity:0.26;}
	.st24{opacity:0.47;}
	.st25{fill:#FCBC06;}
	.st26{opacity:0.65;}
	.st27{fill:#428AF9;}
	.st28{fill:#FFDC9C;}
	.st29{fill:#D16913;}
	.st30{fill:#371A45;}
	.st31{fill:#BAC2D6;}
	.st32{fill:#CECEDD;}
	.st33{fill:#F9B46F;}
	.st34{opacity:0.2;}
	.st35{fill:#00BDFF;}
	.st36{opacity:0.7;}
	.st37{fill:#8895A3;}
	.st38{opacity:0.25;}
	.st39{fill:#263069;}
	.st40{opacity:0.15;}
	.st41{fill:#FF5722;}
	.st42{fill:#40A3DB;}
	.st43{fill:#F7C714;}
	.st44{opacity:0.57;}
	.st45{fill:#FF9F2C;}
	.st46{opacity:0.22;}
	.st47{fill:#0CAE97;}
	.st48{fill:#35EF4B;}
	.st49{fill:#282E6A;}
	.st50{fill:#F0F1F2;}
	.st51{opacity:0.3;fill:url(#SVGID_6_);}
	.st52{opacity:0.3;fill:url(#SVGID_7_);}
	.st53{opacity:0.3;fill:url(#SVGID_8_);}
	.st54{fill:#3D5366;}
	.st55{fill:#F6404F;}
	.st56{fill:#8BC34A;}
	.st57{fill:#102770;}
	.st58{fill:#19B5FE;}
	.st59{fill:#00EDF9;}
	.st60{fill:#390075;}
	.st61{opacity:0.3;fill:#390075;}
	.st62{fill:#24DD3E;}
	.st63{fill:#7289A3;}
	.st64{opacity:0.16;fill:url(#SVGID_9_);}
	.st65{opacity:0.16;fill:url(#SVGID_10_);}
	.st66{fill:none;stroke:#390075;stroke-width:5;stroke-miterlimit:10;}
	.st67{fill:none;stroke:#390075;stroke-width:29.8442;stroke-linecap:round;stroke-linejoin:round;stroke-miterlimit:10;}
	.st68{fill:#32BF50;}
	.st69{fill:#FFEEEE;}
	.st70{opacity:0.35;}
	.st71{fill:#F72872;}
	.st72{fill:#D7DCF0;}
	.st73{opacity:0.5;}
	.st74{opacity:0.29;}
	.st75{fill:#F3F1A5;}
	.st76{fill:#5F5A57;}
	.st77{opacity:0.51;}
	.st78{fill:#EC1C24;}
</style>
<g>
	<g>
		<path class="st59" d="M2500.3,2163.22c205.22-229.63,330.04-532.63,330.04-864.83C2830.35,581.31,2249.04,0,1531.96,0
			S233.57,581.31,233.57,1298.39c0,332.2,124.82,635.21,330.04,864.83H2500.3z"/>
		<g>
			<path class="st60" d="M99.31,2156.09c60.22-7.56,120.44-9.37,180.66-10.3c30.11-0.51,60.22-0.61,90.33-0.48
				c30.11-0.04,60.22,0.31,90.33,0.56c60.22,0.44,120.44,0.56,180.66,0.49h180.66h722.65h722.65h361.32l90.33-0.03l45.17-0.35
				l45.17-0.61c30.11-0.29,60.22,0.12,90.33,1.45c30.11,1.47,60.22,3.77,90.33,9.26c2.69,0.49,4.47,3.07,3.98,5.76
				c-0.38,2.08-2.02,3.62-3.98,3.98c-30.11,5.49-60.22,7.79-90.33,9.26c-30.11,1.34-60.22,1.74-90.33,1.45l-45.17-0.6l-45.17-0.35
				l-90.33-0.03h-361.32h-722.65H821.96H641.3c-60.22-0.07-120.44,0.04-180.66,0.49c-30.11,0.25-60.22,0.59-90.33,0.56
				c-30.11,0.13-60.22,0.03-90.33-0.48c-60.22-0.93-120.44-2.74-180.66-10.3c-2.69-0.34-4.59-2.79-4.26-5.48
				C95.34,2158.07,97.14,2156.36,99.31,2156.09z"/>
			<path class="st61" d="M3089.22,2191.61c0,40.95-691.53,74.13-1544.61,74.13S0,2232.56,0,2191.61c0-12.53,64.4-24.3,178.1-34.6
				h2733.01C3024.82,2167.31,3089.22,2179.08,3089.22,2191.61z"/>
			<g>
				<g>
					<g>
						<g>
							<path class="st13" d="M658.26,1863.21L280.6,2094.33L88.08,1721.06c-1.9-3.61-3.78-7.29-5.66-10.97l-13.8-26.73
								l320.12-195.91L658.26,1863.21z"/>
						</g>
						<g>
							<path class="st60" d="M279.61,2097.86L85.86,1722.21c-1.9-3.6-3.78-7.29-5.67-10.97l-14.87-28.79l324.08-198.33
								l272.45,379.83L279.61,2097.86z M71.9,1684.28l12.74,24.67c1.88,3.68,3.75,7.34,5.65,10.94l191.29,370.9l373.07-228.31
								l-266.6-371.68L71.9,1684.28z"/>
						</g>
					</g>
					<g class="st11">
						<polygon class="st6" points="658.29,1863.18 629.22,1880.97 377.22,1529.66 82.4,1710.1 68.63,1683.38 388.77,1487.45 						
							"/>
					</g>
					<g>
						<path class="st60" d="M280.58,2109.26c-1.35,0-2.7-0.18-4.02-0.55c-3.99-1.12-7.34-3.85-9.24-7.53L63.65,1706.3
							c-8.22-15.93-2.68-35.73,12.61-45.08l289.28-177.05c15.28-9.35,35.43-5.28,45.88,9.28l258.97,361.04
							c2.42,3.37,3.33,7.59,2.5,11.66c-0.82,4.06-3.3,7.6-6.84,9.77l-377.7,231.16C286,2108.52,283.3,2109.26,280.58,2109.26z
							 M383.48,1508.96c-0.81,0-1.62,0.21-2.35,0.66L91.84,1686.67c-2.02,1.23-2.74,3.84-1.66,5.94l196.3,380.62l350.31-214.4
							l-249.62-347.99C386.3,1509.62,384.9,1508.96,383.48,1508.96z"/>
					</g>
					<g>
						<path class="st60" d="M196.02,1690.96c-5.02,0-9.93-2.54-12.74-7.13l-71.93-117.52c-26.96-44.05-13.05-101.82,30.99-128.77
							c44.05-26.96,101.81-13.06,128.77,30.99l71.93,117.52c4.3,7.03,2.09,16.22-4.94,20.52c-7.03,4.3-16.22,2.09-20.52-4.94
							l-71.93-117.52c-18.37-30.01-57.73-39.48-87.74-21.12c-30.01,18.37-39.49,57.73-21.12,87.74l71.93,117.52
							c4.3,7.03,2.09,16.22-4.94,20.52C201.36,1690.25,198.67,1690.96,196.02,1690.96z"/>
					</g>
					<g>
						<path class="st60" d="M218.51,1712.81L218.51,1712.81c-13.74,8.41-31.7,4.09-40.11-9.65h0c-8.41-13.74-4.09-31.7,9.65-40.11h0
							c13.74-8.41,31.7-4.09,40.11,9.65h0C236.57,1686.44,232.25,1704.4,218.51,1712.81z"/>
					</g>
					<g>
						<path class="st60" d="M352.82,1630.61L352.82,1630.61c-13.74,8.41-31.7,4.09-40.11-9.65h0c-8.41-13.74-4.09-31.7,9.65-40.11h0
							c13.74-8.41,31.7-4.09,40.11,9.65h0C370.89,1604.24,366.56,1622.2,352.82,1630.61z"/>
					</g>
					<g class="st0">
						<path class="st60" d="M658.26,1863.21L280.6,2094.33L88.08,1721.06C218.35,1969.2,415.99,1991.27,658.26,1863.21z"/>
					</g>
				</g>
				<g>
					<g>
						<polygon class="st9" points="2995.3,1709.17 2795.21,2126.05 2751.18,2100.81 2411.05,1905.84 2651.08,1550.07 
							2669.65,1522.51 						"/>
					</g>
					<g class="st11">
						<polygon class="st6" points="2795.24,2126.05 2765.67,2109.1 2952.73,1719.32 2652.85,1547.43 2669.66,1522.52 
							2995.3,1709.18 						"/>
					</g>
					<g>
						<path class="st60" d="M2795.22,2140.97c-2.58,0-5.14-0.67-7.42-1.98l-384.18-220.21c-3.6-2.06-6.17-5.53-7.11-9.57
							c-0.94-4.04-0.16-8.29,2.16-11.72l247.73-367.18c10.46-15.5,31.34-20.35,47.56-11.06l291.86,167.3
							c16.21,9.3,22.58,29.78,14.49,46.63l-191.65,399.33c-1.79,3.74-5.06,6.56-9.02,7.79
							C2798.21,2140.74,2796.71,2140.97,2795.22,2140.97z M2432.39,1900.87l356.32,204.25l184.7-384.86
							c1.35-2.82,0.29-6.26-2.43-7.82l-291.86-167.3c-2.72-1.56-6.22-0.75-7.98,1.85L2432.39,1900.87z"/>
					</g>
					<g>
						<path class="st60" d="M2873.9,1723.93c-2.52,0-5.07-0.64-7.41-1.98c-7.15-4.1-9.62-13.22-5.52-20.37l68.52-119.54
							c17.5-30.52,6.9-69.6-23.63-87.1c-30.52-17.5-69.6-6.9-87.09,23.63l-68.52,119.54c-4.1,7.15-13.21,9.62-20.37,5.52
							c-7.15-4.1-9.62-13.22-5.52-20.37l68.52-119.54c25.69-44.8,83.03-60.35,127.83-34.68c44.8,25.69,60.36,83.03,34.68,127.83
							l-68.52,119.54C2884.1,1721.24,2879.07,1723.93,2873.9,1723.93z"/>
					</g>
					<g>
						<path class="st60" d="M2715.85,1668.11L2715.85,1668.11c-13.98-8.01-18.82-25.84-10.8-39.82v0
							c8.01-13.98,25.84-18.82,39.82-10.8l0,0c13.98,8.01,18.82,25.84,10.8,39.82h0
							C2747.66,1671.29,2729.83,1676.12,2715.85,1668.11z"/>
					</g>
					<g>
						<path class="st60" d="M2852.47,1746.42L2852.47,1746.42c-13.98-8.01-18.82-25.84-10.8-39.82l0,0
							c8.01-13.98,25.84-18.82,39.82-10.8l0,0c13.98,8.01,18.82,25.84,10.8,39.82v0C2884.28,1749.6,2866.45,1754.43,2852.47,1746.42
							z"/>
					</g>
					<g class="st0">
						<path class="st60" d="M2751.18,2100.81l-340.12-194.97l240.02-355.77c17.44-8.22,28.08-13.12,29.02-13.54
							C2550.94,1765.57,2566.39,1955.84,2751.18,2100.81z"/>
					</g>
				</g>
				<g>
					<path class="st62" d="M474.16,1757.97c-65.85-18.29-53.34-94.78,35.13-84.18c-30.01-34.88-4.62-73.3,48.67-52.72
						c-17.03-141.13,118.02-188.44,169.49-64.75l54.38,254.69l-126.53,70.57L474.16,1757.97z"/>
				</g>
				<g class="st11">
					<path class="st6" d="M455.66,1750.23c-7.4-26.77,18.06-56.65,75.53-49.79c-30.03-34.85-4.62-73.29,48.67-52.71
						c-14.02-116.31,75.19-168.87,135.83-114.56c-57.62-93.59-173.6-43.51-157.73,87.89c-53.29-20.59-78.69,17.86-48.67,52.71
						C430.31,1664.33,411.86,1724.24,455.66,1750.23z"/>
				</g>
				<g class="st40">
					<path class="st60" d="M474.16,1757.97c-65.85-18.29-53.34-94.78,35.13-84.18c-30.01-34.88-4.62-73.3,48.67-52.72
						c-17.03-141.13,118.02-188.44,169.49-64.75l54.38,254.69l-126.53,70.57L474.16,1757.97z"/>
				</g>
				<g>
					<path class="st60" d="M474.17,1772.58c-1.29,0-2.61-0.17-3.91-0.54c-42.12-11.7-56.21-42.82-51.47-66.79
						c4.53-22.92,26.27-43.95,65.38-46.75c-4.22-13.92-2.6-27.79,5.23-38.88c8.7-12.34,26.49-22.05,52.53-18.02
						c-1.62-73.53,37.56-117.79,77.89-128.39c36.94-9.71,90.83,4.74,121.1,77.5c3.1,7.44-0.42,15.99-7.87,19.09
						c-7.43,3.1-15.99-0.42-19.09-7.87c-18.97-45.6-53.01-69.33-86.72-60.48c-32.22,8.47-63.11,48.97-54.79,117.87
						c0.62,5.09-1.48,10.13-5.53,13.27c-4.05,3.14-9.44,3.94-14.22,2.1c-20.74-8.01-34.76-4.89-39.44,1.76
						c-4.61,6.53-1.82,17.45,7.1,27.81c3.93,4.57,4.65,11.08,1.82,16.39c-2.83,5.32-8.65,8.33-14.62,7.63
						c-37.36-4.47-57.35,8.58-60.12,22.62c-2.21,11.18,6.44,26.27,30.63,33c7.77,2.16,12.32,10.21,10.16,17.97
						C486.43,1768.34,480.57,1772.58,474.17,1772.58z"/>
				</g>
				<g>
					<path class="st62" d="M733.16,2161.14H285.42c-85.94-27.64-25.55-195.61,107.07-174.92c-102.2-77.98-42.18-142.76,65.7-47.45
						c-138.7-203.95,65.7-267.26,150.06-70.97c-50.49-170.94,77.69-167.35,94.86-44.61l183.35,187.37L733.16,2161.14z"/>
				</g>
				<g class="st11">
					<path class="st6" d="M610.83,1842.97c-4.84-85.95,56.84-91.98,89.14-36.43c-25.74-106.05-139.82-101.62-91.74,61.27
						c-77.72-180.9-257.35-141.38-176.61,25.5c-35.06-118.92,82.25-149.91,160.23-43.74C598.04,1858,611.42,1853.41,610.83,1842.97z
						"/>
				</g>
				<g class="st11">
					<path class="st6" d="M440.74,1938.57c-1.93-3.66-3.74-7.26-5.42-10.8c-81.81-64.92-130.91-34.07-91.15,20.59
						c1.01-25.22,34.87-32.04,85.22,0.65C436.24,1953.46,444.56,1945.8,440.74,1938.57z"/>
				</g>
				<g class="st11">
					<path class="st6" d="M249.99,2144.58c-4.57-57.72,53.05-137.29,146.78-122.69c-17.13-13.04-29.69-25.74-38.25-37.38
						C258.66,1985.97,209.36,2097.66,249.99,2144.58z"/>
				</g>
				<g class="st11">
					<g>
						<path class="st6" d="M344.17,1948.35c-0.39,9.73,4.09,22.14,14.36,36.16c7.79-0.15,15.87,0.39,24.24,1.7
							C365.38,1972.98,352.73,1960.13,344.17,1948.35z"/>
					</g>
					<g>
						<path class="st60" d="M392.14,1990.22l-9.77-1.53c-8.02-1.26-16.02-1.81-23.8-1.67l-1.3,0.02l-0.77-1.05
							c-10.14-13.84-15.27-26.89-14.84-37.74l0.29-7.19l4.23,5.82c9.02,12.39,21.83,24.96,38.09,37.34L392.14,1990.22z
							 M360.99,1981.99c4.34,0,8.74,0.21,13.17,0.63c-10.56-8.62-19.51-17.33-26.71-26c1.65,7.65,5.82,16.27,12.35,25.38
							C360.18,1981.99,360.59,1981.99,360.99,1981.99z"/>
					</g>
				</g>
				<g>
					<path class="st60" d="M733.16,2175.74H285.42c-1.52,0-3.02-0.24-4.47-0.7c-41.12-13.23-60.92-55.13-49.26-104.28
						c11.74-49.5,53.43-94.86,114.49-101.25c-14.56-18.53-21.31-37.9-18.63-55.19c2.33-15,11.84-26.55,26.08-31.69
						c16.55-5.97,37.55-2.9,60.91,8.39c-21.1-47.71-23.83-89.77-6.83-119.89c14.05-24.89,39.77-38.21,70.66-36.55
						c30.67,1.66,69.59,19.17,103.5,60.54c0.6-34.71,12.39-52.79,21.73-61.69c13.51-12.87,31.87-16.55,50.37-10.11
						c25.36,8.84,55.38,39.18,63.59,97.85c1.12,7.99-4.45,15.37-12.44,16.48c-7.96,1.11-15.36-4.45-16.48-12.44
						c-5.98-42.77-26.55-68.14-44.28-74.32c-8.16-2.83-15.09-1.6-20.62,3.67c-12.72,12.13-19.8,47.16-1.5,109.1
						c2.19,7.41-1.77,15.24-9.04,17.87c-7.27,2.62-15.32-0.87-18.37-7.97c-33.6-78.18-84.58-108.02-118.03-109.83
						c-19.59-1.07-35.15,6.66-43.65,21.74c-17.48,30.97-3.6,85.21,37.12,145.09c4.14,6.09,3.1,14.3-2.42,19.17
						c-5.52,4.87-13.8,4.86-19.32-0.01c-41.7-36.84-71.83-44.37-84.97-39.62c-4.18,1.51-6.45,4.28-7.14,8.72
						c-1.9,12.2,8.34,33.84,35.49,54.69c5.29,4.06,7.15,11.2,4.53,17.33c-2.63,6.13-9.07,9.7-15.67,8.67
						c-64.66-10.09-109.65,31.6-120.65,77.99c-5.98,25.22-2.16,58.06,27.75,69.04h445.31c8.06,0,14.6,6.54,14.6,14.6
						S741.23,2175.74,733.16,2175.74z"/>
				</g>
				<g>
					<path class="st62" d="M2621.51,1757.97c65.85-18.29,53.34-94.78-35.13-84.18c30.01-34.88,4.62-73.3-48.67-52.72
						c17.03-141.13-118.02-188.44-169.49-64.75l-54.38,254.69l126.53,70.57L2621.51,1757.97z"/>
				</g>
				<g class="st11">
					<path class="st6" d="M2640.01,1750.23c7.4-26.77-18.06-56.65-75.53-49.79c30.03-34.85,4.62-73.29-48.67-52.71
						c14.02-116.31-75.19-168.87-135.83-114.56c57.62-93.59,173.6-43.51,157.73,87.89c53.29-20.59,78.69,17.86,48.67,52.71
						C2665.36,1664.33,2683.81,1724.24,2640.01,1750.23z"/>
				</g>
				<g>
					<path class="st60" d="M2621.5,1772.58c-6.4,0-12.27-4.24-14.06-10.7c-2.16-7.77,2.39-15.82,10.16-17.97
						c24.2-6.72,32.84-21.81,30.63-33c-2.77-14.03-22.79-27.09-60.12-22.62c-6,0.71-11.79-2.31-14.62-7.63
						c-2.83-5.31-2.11-11.82,1.82-16.39c8.92-10.37,11.71-21.28,7.1-27.81c-4.69-6.65-18.7-9.77-39.44-1.76
						c-4.79,1.84-10.18,1.05-14.22-2.1c-4.05-3.15-6.15-8.19-5.53-13.27c8.32-68.89-22.57-109.39-54.79-117.87
						c-33.71-8.87-67.75,14.88-86.72,60.48c-3.1,7.45-11.65,10.97-19.09,7.87c-7.45-3.1-10.97-11.64-7.87-19.09
						c30.27-72.76,84.17-87.21,121.1-77.5c40.33,10.61,79.51,54.86,77.89,128.4c26.05-4.04,43.83,5.67,52.53,18.01
						c7.82,11.1,9.44,24.96,5.23,38.88c39.12,2.79,60.85,23.82,65.38,46.75c4.74,23.97-9.35,55.09-51.47,66.79
						C2624.11,1772.4,2622.79,1772.58,2621.5,1772.58z"/>
				</g>
				<g>
					<path class="st62" d="M2362.51,2161.14h447.74c85.94-27.64,25.55-195.61-107.07-174.92c102.2-77.98,42.18-142.76-65.7-47.45
						c138.7-203.95-65.7-267.26-150.06-70.97c50.49-170.94-77.69-167.35-94.86-44.61l-183.35,187.37L2362.51,2161.14z"/>
				</g>
				<g class="st11">
					<path class="st6" d="M2484.84,1842.97c4.84-85.95-56.84-91.98-89.14-36.43c25.74-106.05,139.82-101.62,91.74,61.27
						c77.72-180.9,257.35-141.38,176.61,25.5c35.06-118.92-82.25-149.91-160.23-43.74C2497.62,1858,2484.25,1853.41,2484.84,1842.97
						z"/>
				</g>
				<g class="st11">
					<path class="st6" d="M2645.19,1938.57c1.93-3.66,3.74-7.26,5.42-10.8c81.81-64.92,130.91-34.07,91.15,20.59
						c-1.01-25.22-34.87-32.04-85.22,0.65C2649.69,1953.46,2641.38,1945.8,2645.19,1938.57z"/>
				</g>
				<g class="st11">
					<path class="st6" d="M2835.94,2144.58c4.57-57.72-53.05-137.29-146.78-122.69c17.13-13.04,29.69-25.74,38.25-37.38
						C2827.28,1985.97,2876.58,2097.66,2835.94,2144.58z"/>
				</g>
				<g class="st11">
					<g>
						<path class="st6" d="M2741.77,1948.35c0.39,9.73-4.09,22.14-14.36,36.16c-7.79-0.15-15.87,0.39-24.24,1.7
							C2720.55,1972.98,2733.2,1960.13,2741.77,1948.35z"/>
					</g>
					<g>
						<path class="st60" d="M2693.8,1990.22l7.86-5.99c16.26-12.39,29.07-24.95,38.09-37.34l4.23-5.82l0.29,7.19
							c0.43,10.84-4.69,23.89-14.84,37.74l-0.77,1.05l-1.3-0.02c-7.79-0.15-15.79,0.42-23.8,1.67L2693.8,1990.22z M2738.5,1956.62
							c-7.21,8.67-16.15,17.38-26.71,26c4.83-0.45,9.62-0.69,14.37-0.62C2732.67,1972.88,2736.85,1964.27,2738.5,1956.62z"/>
					</g>
				</g>
				<g>
					<g>
						<g>
							<path class="st63" d="M2392.53,1105.59v745.68c0,88.38-71.64,160.02-160.02,160.02H860.88
								c-88.38,0-160.02-71.64-160.02-160.02v-745.68c0-88.38,71.64-160.02,160.02-160.02h1371.63
								C2320.9,945.57,2392.53,1017.21,2392.53,1105.59z"/>
						</g>
						<g>
							<path class="st60" d="M2232.52,2013.78H860.89c-89.61,0-162.52-72.91-162.52-162.52v-745.68
								c0-89.61,72.91-162.52,162.52-162.52h1371.63c89.61,0,162.52,72.91,162.52,162.52v745.68
								C2395.03,1940.87,2322.13,2013.78,2232.52,2013.78z M860.89,948.07c-86.86,0-157.52,70.66-157.52,157.52v745.68
								c0,86.86,70.66,157.52,157.52,157.52h1371.63c86.86,0,157.52-70.66,157.52-157.52v-745.68
								c0-86.86-70.66-157.52-157.52-157.52H860.89z"/>
						</g>
					</g>
					<g class="st11">
						<path class="st6" d="M2392.53,1105.62v30.81c0-88.38-71.64-160.02-160.02-160.02H860.88c-88.38,0-160.02,71.64-160.02,160.02
							v-30.81c0-88.38,71.64-160.07,160.02-160.07h1371.63C2320.9,945.56,2392.53,1017.24,2392.53,1105.62z"/>
					</g>
					<g>
						<g>
							<path class="st2" d="M2282.08,1101.98v752.9c0,29.49-23.88,53.37-53.32,53.37H864.65c-29.44,0-53.32-23.88-53.32-53.37
								v-752.9c0-29.49,23.88-53.37,53.32-53.37h1364.12C2258.2,1048.62,2282.08,1072.5,2282.08,1101.98z"/>
						</g>
						<g>
							<path class="st60" d="M2228.76,1910.75H864.65c-30.78,0-55.82-25.06-55.82-55.87v-752.9c0-30.81,25.04-55.87,55.82-55.87
								h1364.12c30.78,0,55.82,25.06,55.82,55.87v752.9C2284.58,1885.69,2259.54,1910.75,2228.76,1910.75z M864.65,1051.12
								c-28.02,0-50.82,22.82-50.82,50.87v752.9c0,28.05,22.8,50.87,50.82,50.87h1364.12c28.02,0,50.82-22.82,50.82-50.87v-752.9
								c0-28.05-22.8-50.87-50.82-50.87H864.65z"/>
						</g>
					</g>
					<g class="st11">
						<path class="st6" d="M2282.06,1854.9v32.41c0,29.49-23.85,53.39-53.29,53.39H864.63c-29.44,0-53.29-23.9-53.29-53.39v-32.41
							c0,29.49,23.85,53.34,53.29,53.34h1364.14C2258.21,1908.24,2282.06,1884.39,2282.06,1854.9z"/>
					</g>
					<g>
						<path class="st60" d="M2232.53,2025.89H860.89c-96.29,0-174.63-78.34-174.63-174.63v-745.65
							c0-96.29,78.34-174.63,174.63-174.63h1371.64c96.29,0,174.63,78.34,174.63,174.63v745.65
							C2407.16,1947.55,2328.82,2025.89,2232.53,2025.89z M860.89,960.18c-80.19,0-145.43,65.24-145.43,145.43v745.65
							c0,80.19,65.24,145.43,145.43,145.43h1371.64c80.19,0,145.43-65.24,145.43-145.43v-745.65c0-80.19-65.24-145.43-145.43-145.43
							H860.89z"/>
					</g>
					<g class="st0">
						<g>
							<path class="st19" d="M2282.11,1101.98v11.63H904.68c-8.18,0-15.57,3.31-20.88,8.71h-13.33c-19.27,0-37.72,8.27-50.56,22.68
								c-0.39,0.39-0.73,0.83-1.07,1.31l-7.49,10.66v-55.04c0-29.44,23.85-53.29,53.29-53.29h1364.14
								C2258.21,1048.64,2282.11,1072.49,2282.11,1101.98z"/>
						</g>
						<g>
							<path class="st60" d="M808.84,1164.88v-62.94c0-30.76,25.03-55.79,55.79-55.79h1364.14c30.79,0,55.84,25.05,55.84,55.84
								v14.13H904.68c-7.27,0-14.05,2.83-19.09,7.96l-0.73,0.75h-14.38c-18.57,0-36.32,7.96-48.7,21.84
								c-0.38,0.39-0.63,0.72-0.88,1.08L808.84,1164.88z M864.63,1051.14c-28.01,0-50.79,22.79-50.79,50.79v47.14l2.95-4.19
								c0.42-0.6,0.85-1.15,1.34-1.64c13.24-14.85,32.35-23.42,52.34-23.42h12.31c5.9-5.62,13.64-8.71,21.9-8.71h1374.92v-9.13
								c0-28.03-22.81-50.84-50.84-50.84H864.63z"/>
						</g>
					</g>
					<g>
						<path class="st63" d="M2395.72,2161.13H690.46c-89.86,0-162.7-72.84-162.7-162.7v0h2030.67v0
							C2558.43,2088.29,2485.58,2161.13,2395.72,2161.13z"/>
					</g>
					<g class="st0">
						<path class="st60" d="M2558.44,1998.42c0,44.92-18.2,85.61-47.65,115.05c-29.44,29.44-70.13,47.65-115.05,47.65H690.45
							c-89.84,0-162.69-72.81-162.69-162.69h13.09c24.87,58.01,82.49,98.65,149.6,98.65h1705.29c44.92,0,85.61-18.2,115.05-47.64
							c14.55-14.55,26.33-31.83,34.55-51H2558.44z"/>
					</g>
					<g class="st11">
						<path class="st6" d="M1309.3,1998.42c0,12.6,3.36,24.43,9.3,34.6H531.46c-2.43-11.14-3.7-22.73-3.7-34.6H1309.3z"/>
					</g>
					<g class="st11">
						<path class="st6" d="M1776.85,2025.19c0,19.13-7.74,36.4-20.25,48.91c-12.51,12.51-29.78,20.25-48.86,20.25h-329.28
							c-38.2,0-69.16-30.95-69.16-69.16h5.4c10.41,24.92,35.04,42.39,63.75,42.39h329.28c19.08,0,36.35-7.74,48.86-20.25
							c6.28-6.28,11.39-13.82,14.84-22.14H1776.85z"/>
					</g>
					<g class="st11">
						<path class="st6" d="M2558.44,1998.42c0,11.87-1.27,23.46-3.7,34.6h-787.19c5.94-10.17,9.3-22,9.3-34.6H2558.44z"/>
					</g>
					<g>
						<path class="st60" d="M2399.33,2175.74H694.06c-97.77,0-177.31-79.54-177.31-177.31c0-8.06,6.54-14.6,14.6-14.6h2030.69
							c8.06,0,14.6,6.54,14.6,14.6c0,47.34-18.45,91.86-51.95,125.36C2491.19,2157.29,2446.67,2175.74,2399.33,2175.74z
							 M546.66,2013.03c7.35,74.84,70.65,133.51,147.4,133.51h1705.27c39.54,0,76.73-15.41,104.71-43.4
							c24.51-24.51,39.38-56.08,42.69-90.11H546.66z"/>
					</g>
					<g>
						<path class="st60" d="M1707.72,2082.18h-329.26c-46.18,0-83.74-37.57-83.74-83.74c0-8.06,6.54-14.6,14.6-14.6h467.54
							c8.06,0,14.6,6.54,14.6,14.6C1791.46,2044.61,1753.9,2082.18,1707.72,2082.18z M1325.91,2013.03
							c6.4,23.01,27.54,39.95,52.56,39.95h329.26c25.02,0,46.16-16.94,52.56-39.95H1325.91z"/>
					</g>
					<g class="st0">
						<path class="st60" d="M1776.87,1998.42c0,19.09-7.76,36.39-20.28,48.92c-12.47,12.47-29.78,20.23-48.87,20.23h-329.27
							c-17.25,0-33.03-6.35-45.13-16.76c2.66,0.33,5.32,0.49,8.08,0.49h329.27c19.09,0,36.39-7.76,48.92-20.23
							c8.84-8.84,15.29-20.07,18.28-32.65H1776.87z"/>
					</g>
					
						<linearGradient id="SVGID_1_" gradientUnits="userSpaceOnUse" x1="5268.7715" y1="1059.1075" x2="4845.0234" y2="1738.8702" gradientTransform="matrix(-1 0 0 1 7220.1455 0)">
						<stop  offset="0" style="stop-color:#FFFFFF"/>
						<stop  offset="1" style="stop-color:#25A9E0;stop-opacity:0"/>
					</linearGradient>
					<polygon style="opacity:0.16;fill:url(#SVGID_1_);" points="1796.1,1048.62 2282.08,1610.44 2282.08,1351.02 2020.51,1048.62 
											"/>
					
						<linearGradient id="SVGID_2_" gradientUnits="userSpaceOnUse" x1="6326.1235" y1="1578.2163" x2="5765.54" y2="2222.6665" gradientTransform="matrix(-1 0 0 1 7220.1455 0)">
						<stop  offset="0" style="stop-color:#FFFFFF"/>
						<stop  offset="1" style="stop-color:#25A9E0;stop-opacity:0"/>
					</linearGradient>
					<polygon style="opacity:0.16;fill:url(#SVGID_2_);" points="811.32,1352.61 811.32,1612.02 1067.56,1908.25 1291.97,1908.25 
											"/>
					<g>
						<path class="st60" d="M2228.76,1922.84H864.66c-37.46,0-67.93-30.48-67.93-67.93v-752.93c0-37.46,30.48-67.94,67.94-67.94
							h1364.1c37.46,0,67.94,30.48,67.94,67.94v752.93C2296.7,1892.36,2266.22,1922.84,2228.76,1922.84z M864.66,1063.23
							c-21.36,0-38.74,17.38-38.74,38.74v752.93c0,21.36,17.38,38.74,38.74,38.74h1364.11c21.36,0,38.73-17.38,38.73-38.74v-752.93
							c0-21.36-17.38-38.74-38.74-38.74H864.66z"/>
					</g>
					<g>
						<g>
							<path class="st6" d="M1544.88,1556.04c-69.03,0-125.03,56-125.03,125.08c0,69.03,56,125.03,125.03,125.03
								c69.08,0,125.08-56,125.08-125.03C1669.95,1612.04,1613.96,1556.04,1544.88,1556.04z M1618.71,1659.7l-30.87-6.07v99.91
								h-85.92v-99.91l-30.87,6.07v-33.32l47.03-17.52c1.58-0.63,3.44,0.18,4.07,1.81c3.58,9.55,9.1,15.75,22.72,15.71
								c13.63,0.05,18.15-6.16,21.55-15.66c0.59-1.67,2.44-2.49,4.07-1.9l48.21,17.56V1659.7z"/>
						</g>
						<g>
							<path class="st6" d="M1875.34,1556.04c-69.03,0-125.03,56-125.03,125.08c0,69.03,56,125.03,125.03,125.03
								c69.08,0,125.08-56,125.08-125.03C2000.41,1612.04,1944.42,1556.04,1875.34,1556.04z M1951.79,1699.54
								c-20.78,1.99-60.84,5.66-76.41,5.66c-15.62,0-55.68-3.62-76.46-5.66c-2.99-0.27-3.44-4.44-0.59-5.43l30.69-10.37l11.45-32.68
								c2.9-8.19,10.64-13.72,19.33-13.72h31.1c8.69,0,16.43,5.52,19.33,13.72l11.5,32.68l30.65,10.37
								C1955.24,1695.1,1954.78,1699.27,1951.79,1699.54z"/>
						</g>
						<g>
							<g>
								<path class="st6" d="M1221.75,1728.24c0,4.03-3.26,7.29-7.29,7.29c-4.07,0-7.33-3.26-7.33-7.29c0-4.03,3.26-7.33,7.33-7.33
									C1218.49,1720.91,1221.75,1724.21,1221.75,1728.24z"/>
							</g>
							<g>
								<path class="st6" d="M1243.66,1642v60.8c0,3.12-2.58,5.7-5.75,5.7h-48.3c-3.17,0-5.7-2.58-5.7-5.7V1642
									c0-3.17,2.54-5.7,5.7-5.7h48.3C1241.08,1636.3,1243.66,1638.84,1243.66,1642z"/>
							</g>
							<g>
								<path class="st6" d="M1214.42,1556.04c-69.03,0-125.03,56-125.03,125.08c0,69.03,56,125.03,125.03,125.03
									c69.08,0,125.08-56,125.08-125.03C1339.49,1612.04,1283.5,1556.04,1214.42,1556.04z M1252.99,1725.98
									c0,8.33-6.74,15.07-15.07,15.07h-48.3c-8.33,0-15.07-6.74-15.07-15.07v-89.77c0-8.33,6.74-15.12,15.07-15.12h48.3
									c8.33,0,15.07,6.79,15.07,15.12V1725.98z"/>
							</g>
							<g>
								<path class="st6" d="M1221.75,1728.24c0,4.03-3.26,7.29-7.29,7.29c-4.07,0-7.33-3.26-7.33-7.29c0-4.03,3.26-7.33,7.33-7.33
									C1218.49,1720.91,1221.75,1724.21,1221.75,1728.24z"/>
							</g>
							<g>
								<path class="st6" d="M1243.66,1642v60.8c0,3.12-2.58,5.7-5.75,5.7h-48.3c-3.17,0-5.7-2.58-5.7-5.7V1642
									c0-3.17,2.54-5.7,5.7-5.7h48.3C1241.08,1636.3,1243.66,1638.84,1243.66,1642z"/>
							</g>
							<g>
								<path class="st6" d="M1243.66,1642v60.8c0,3.12-2.58,5.7-5.75,5.7h-48.3c-3.17,0-5.7-2.58-5.7-5.7V1642
									c0-3.17,2.54-5.7,5.7-5.7h48.3C1241.08,1636.3,1243.66,1638.84,1243.66,1642z"/>
							</g>
							<g>
								<path class="st6" d="M1221.75,1728.24c0,4.03-3.26,7.29-7.29,7.29c-4.07,0-7.33-3.26-7.33-7.29c0-4.03,3.26-7.33,7.33-7.33
									C1218.49,1720.91,1221.75,1724.21,1221.75,1728.24z"/>
							</g>
						</g>
					</g>
					<g class="st0">
						<path class="st60" d="M2392.53,1262.93v215.35c-23.51,16.4-51.49,24.72-79.33,24.72c-50.03,0-100.5-26.86-124.78-78.84
							c-24.43,51.98-75.29,78.84-125.71,78.84c-50.57,0-101.57-27.06-125.9-79.38c-25.02,52.32-77.33,79.38-129.26,79.38
							c-52.12,0-104.73-27.35-129.55-80.2c-14.26,30.37-38.45,53.97-70.96,67.89c-1.7,0.73-3.26,1.36-4.77,1.95
							c-3.46,1.31-7.25,2.63-11.63,3.94c-2.19,0.73-4.77,1.41-7.59,2.04c-1.7,0.44-3.46,0.83-5.26,1.17
							c-1.56,0.29-3.46,0.68-5.3,1.02c-1.9,0.34-3.99,0.63-6.08,0.88l-0.92,0.15c-0.19,0.05-0.44,0.05-0.63,0.1l-2.43,0.19
							c-0.44,0.1-0.88,0.15-1.31,0.15c-1.02,0.15-2,0.19-3.07,0.24c-1.75,0.19-3.46,0.29-5.21,0.34c-1.95,0.1-4.19,0.15-6.47,0.15
							c-2.34,0-4.67-0.05-7.06-0.15c-2.29-0.15-4.62-0.24-6.91-0.44c-1.65-0.15-3.55-0.39-5.45-0.58l-2.63-0.34
							c-1.75-0.24-3.7-0.54-5.69-0.88c-0.19-0.05-0.39-0.1-0.58-0.1c-1.95-0.39-3.84-0.78-5.74-1.17c-1.65-0.34-3.5-0.78-5.3-1.27
							c-0.68-0.15-1.31-0.34-1.95-0.54l-0.49-0.1c-1.75-0.54-3.6-1.02-5.4-1.61c-2.38-0.73-4.53-1.46-6.67-2.29
							c-1.85-0.63-3.99-1.51-6.13-2.38c-1.61-0.63-3.16-1.36-4.72-2.04c-4.96-2.29-9.44-4.62-13.87-7.25
							c-1.8-1.12-3.5-2.19-5.21-3.31l-0.39-0.24c-0.15-0.1-0.29-0.19-0.44-0.29c-4.43-3.02-7.93-5.65-11.1-8.27
							c-1.7-1.36-3.46-2.92-5.21-4.48c-13.24-12.07-23.7-26.33-31.34-42.39c-24.82,52.8-77.38,80.11-129.55,80.11
							c-51.88,0-104.2-27.06-129.21-79.38c-24.33,52.32-75.34,79.38-125.9,79.38c-50.18,0-100.79-26.57-125.37-78.06
							c-7.35,16.3-17.18,30.08-28.66,41.32v441.99h-10.76c-29.44,0-53.29-23.9-53.29-53.34v-354.54
							c-8.52,1.75-17.13,2.63-25.79,2.63c-30.22,0-60.59-10.76-84.68-31.97v-191.21l110.47-156.9l7.49-10.66
							c0.34-0.49,0.68-0.92,1.07-1.31c12.85-14.41,31.29-22.68,50.56-22.68h569.45c1.07-0.19,2.14-0.34,3.21-0.34h205.57
							c1.12,0,2.19,0.15,3.26,0.34h582.59c20.44,0,39.52,9,52.41,24.72c0.2,0.29,0.44,0.58,0.63,0.88l5.01,7.11
							c0.1,0.15,0.19,0.29,0.34,0.49L2392.53,1262.93z"/>
					</g>
				</g>
				<g>
					<g>
						<path class="st7" d="M1045.04,1048.64L902.69,1298.4H666.51l155.93-221.48l7.4-10.51c9.73-10.9,23.9-17.76,39.71-17.76
							H1045.04z"/>
					</g>
					<g>
						<path class="st7" d="M2436.92,1298.4h-244.75l-142.35-249.76h183.82c16.55,0,31.34,7.49,41.07,19.37l5.01,7.11
							c0,0.05,0.05,0.05,0.05,0.1L2436.92,1298.4z"/>
					</g>
					<g>
						<path class="st7" d="M902.69,1298.4c0,180.6-236.18,180.6-236.18,0H902.69z"/>
					</g>
					<g>
						<path class="st7" d="M2436.92,1298.4c0,180.6-249.37,180.6-249.37,0H2436.92z"/>
					</g>
					<g>
						<polygon class="st7" points="1437.35,1048.64 1408.15,1298.4 1149.33,1298.4 1251.53,1048.64 						"/>
					</g>
					<g>
						<polygon class="st7" points="1935.79,1298.4 1672.12,1298.4 1642.92,1048.64 1833.59,1048.64 						"/>
					</g>
					<g class="st11">
						<path class="st6" d="M1045.04,1048.64l-17.71,31.1H869.55c-15.82,0-29.98,6.86-39.71,17.76l-7.4,10.51L688.41,1298.4h-21.9
							l155.93-221.48l7.4-10.51c9.73-10.9,23.9-17.76,39.71-17.76H1045.04z"/>
					</g>
					<g class="st11">
						<path class="st6" d="M2436.92,1298.4h-21.9l-135.25-192.09c0-0.05-0.05-0.05-0.05-0.1l-5.01-7.11
							c-9.73-11.87-24.53-19.37-41.07-19.37h-166.1l-17.71-31.1h183.82c16.55,0,31.34,7.49,41.07,19.37l5.01,7.11
							c0,0.05,0.05,0.05,0.05,0.1L2436.92,1298.4z"/>
					</g>
					<g class="st11">
						<polygon class="st6" points="1437.35,1048.64 1433.7,1079.74 1251.53,1079.74 1162.04,1298.4 1149.33,1298.4 1251.53,1048.64 
													"/>
					</g>
					<g class="st11">
						<polygon class="st6" points="1935.79,1298.4 1923.09,1298.4 1833.59,1079.74 1646.57,1079.74 1642.92,1048.64 
							1833.59,1048.64 						"/>
					</g>
					<g>
						<path class="st7" d="M1408.15,1298.4c0,180.6-258.81,180.6-258.81,0H1408.15z"/>
					</g>
					<g>
						<path class="st7" d="M1931.17,1298.4c0,180.6-258.81,180.6-258.81,0H1931.17z"/>
					</g>
					<g>
						<g>
							<polygon class="st6" points="1251.53,1048.64 1149.33,1298.4 897.82,1298.4 1040.17,1048.64 							"/>
						</g>
						<g>
							<path class="st60" d="M1151.01,1300.9H893.52l145.2-254.76h216.54L1151.01,1300.9z M902.12,1295.9h245.53l100.16-244.76
								h-206.19L902.12,1295.9z"/>
						</g>
					</g>
					<g>
						<path class="st60" d="M897.82,1313H661.64c-5.45,0-10.45-3.04-12.96-7.87c-2.51-4.84-2.12-10.67,1.02-15.13l163.32-231.99
							c0.32-0.46,0.68-0.9,1.05-1.32c12.85-14.39,31.29-22.64,50.6-22.64h175.49c5.2,0,10.01,2.77,12.62,7.26
							c2.61,4.5,2.64,10.05,0.06,14.57l-142.35,249.76C907.91,1310.19,903.07,1313,897.82,1313z M689.78,1283.8h199.56
							l125.71-220.56H864.68c-10.74,0-21.01,4.48-28.3,12.31L689.78,1283.8z"/>
					</g>
					<g>
						<path class="st60" d="M1149.33,1313H897.82c-5.2,0-10.01-2.77-12.62-7.26c-2.61-4.5-2.64-10.05-0.06-14.57l142.35-249.76
							c2.6-4.56,7.44-7.37,12.69-7.37h211.36c4.87,0,9.41,2.42,12.12,6.46c2.71,4.04,3.23,9.17,1.39,13.67l-102.2,249.76
							C1160.6,1309.42,1155.26,1313,1149.33,1313z M922.95,1283.8h216.58l90.25-220.56h-181.13L922.95,1283.8z"/>
					</g>
					<g>
						<path class="st60" d="M1408.15,1313h-258.81c-4.87,0-9.41-2.42-12.12-6.46c-2.71-4.04-3.23-9.17-1.39-13.67l102.2-249.76
							c2.25-5.49,7.59-9.07,13.51-9.07h185.81c4.17,0,8.14,1.78,10.91,4.89c2.77,3.12,4.08,7.26,3.6,11.4l-29.2,249.76
							C1421.79,1307.46,1415.55,1313,1408.15,1313z M1171.08,1283.8h224.07l25.79-220.56h-159.6L1171.08,1283.8z"/>
					</g>
					<g>
						<g>
							<polygon class="st6" points="2187.3,1298.4 1935.79,1298.4 1833.59,1048.64 2044.95,1048.64 							"/>
						</g>
						<g>
							<path class="st60" d="M2191.61,1300.9h-257.49l-0.64-1.55l-103.61-253.21h216.54L2191.61,1300.9z M1937.47,1295.9H2183
								l-139.5-244.76h-206.18L1937.47,1295.9z"/>
						</g>
					</g>
					<g>
						<g>
							<path class="st6" d="M1149.33,1298.4c0,180.6-251.51,180.6-251.51,0H1149.33z"/>
						</g>
						<g>
							<path class="st60" d="M1023.58,1436.36c-33.59,0-64.91-12.27-88.19-34.56c-26.22-25.1-40.07-60.85-40.07-103.4v-2.5h256.51
								v2.5C1151.83,1393.19,1085.35,1436.36,1023.58,1436.36z M900.34,1300.9c1.15,89.61,64.42,130.45,123.24,130.45
								c58.82,0,122.09-40.84,123.24-130.45H900.34z"/>
						</g>
					</g>
					<g>
						<g>
							<path class="st6" d="M2182.68,1298.4c0,180.6-251.51,180.6-251.51,0H2182.68z"/>
						</g>
						<g>
							<path class="st60" d="M2056.92,1436.36c-33.59,0-64.91-12.27-88.18-34.56c-26.22-25.1-40.07-60.85-40.07-103.4v-2.5h256.51
								v2.5C2185.18,1393.19,2118.7,1436.36,2056.92,1436.36z M1933.69,1300.9c1.15,89.61,64.42,130.45,123.24,130.45
								c58.82,0,122.09-40.84,123.24-130.45H1933.69z"/>
						</g>
					</g>
					<g>
						<path class="st60" d="M1935.79,1313h-263.68c-7.41,0-13.64-5.55-14.5-12.91l-29.2-249.76c-0.48-4.14,0.83-8.29,3.6-11.4
							c2.77-3.11,6.74-4.89,10.91-4.89h190.68c5.93,0,11.27,3.58,13.51,9.07l102.2,249.76c1.84,4.5,1.32,9.63-1.39,13.67
							C1945.2,1310.58,1940.66,1313,1935.79,1313z M1685.11,1283.8h228.93l-90.25-220.56h-164.47L1685.11,1283.8z"/>
					</g>
					<g>
						<path class="st60" d="M2187.3,1313h-251.51c-5.93,0-11.27-3.58-13.51-9.07l-102.2-249.76c-1.84-4.5-1.32-9.63,1.39-13.67
							c2.71-4.04,7.26-6.46,12.12-6.46h211.36c5.24,0,10.09,2.81,12.69,7.37l142.35,249.76c2.58,4.52,2.55,10.07-0.06,14.57
							C2197.31,1310.24,2192.51,1313,2187.3,1313z M1945.59,1283.8h216.58l-125.71-220.56h-181.13L1945.59,1283.8z"/>
					</g>
					<g>
						<path class="st60" d="M2432.05,1313H2187.3c-5.24,0-10.09-2.81-12.69-7.37l-142.35-249.76c-2.58-4.52-2.55-10.07,0.06-14.57
							c2.61-4.5,7.42-7.26,12.62-7.26h183.82c20.41,0,39.49,9.01,52.37,24.71c0.22,0.27,0.44,0.55,0.64,0.84l5.01,7.1
							c0.13,0.19,0.27,0.39,0.39,0.58L2443.99,1290c3.14,4.46,3.53,10.29,1.02,15.13C2442.5,1309.97,2437.5,1313,2432.05,1313z
							 M2195.79,1283.8h208.12l-140.95-200.18c-0.13-0.19-0.26-0.37-0.38-0.56l-4.35-6.16c-7.3-8.68-18.02-13.65-29.47-13.65
							h-158.69L2195.79,1283.8z"/>
					</g>
					<g>
						<path class="st60" d="M1642.91,1063.57h-205.57c-8.24,0-14.92-6.68-14.92-14.92s6.68-14.97,14.92-14.97h205.57
							c8.24,0,14.92,6.68,14.92,14.92v0.05C1657.84,1056.89,1651.16,1063.57,1642.91,1063.57z"/>
					</g>
					<g>
						<path class="st60" d="M779.73,1448.78c-66.1,0-133.01-51.65-133.01-150.38c0-8.24,6.68-14.92,14.92-14.92h236.18
							c8.24,0,14.92,6.68,14.92,14.92C912.74,1397.13,845.83,1448.78,779.73,1448.78z M677.17,1313.33
							c6.03,72.44,55.96,105.61,102.56,105.61c46.6,0,96.54-33.17,102.56-105.61H677.17z"/>
					</g>
					<g>
						<path class="st60" d="M1023.58,1448.78c-69.91,0-140.68-51.65-140.68-150.38c0-8.24,6.68-14.92,14.92-14.92h251.51
							c8.24,0,14.92,6.68,14.92,14.92C1164.25,1397.13,1093.49,1448.78,1023.58,1448.78z M913.4,1313.33
							c6.47,72.44,60.12,105.61,110.18,105.61c50.06,0,103.71-33.17,110.18-105.61H913.4z"/>
					</g>
					<g>
						<path class="st60" d="M1278.74,1448.78c-71.72,0-144.33-51.65-144.33-150.38c0-8.24,6.68-14.92,14.92-14.92h258.81
							c8.24,0,14.92,6.68,14.92,14.92C1423.07,1397.13,1350.46,1448.78,1278.74,1448.78z M1164.93,1313.33
							c6.68,72.44,62.1,105.61,113.81,105.61s107.13-33.17,113.81-105.61H1164.93z"/>
					</g>
					<g>
						<g>
							<polygon class="st6" points="1672.12,1298.4 1408.15,1298.4 1437.35,1048.64 1642.92,1048.64 							"/>
						</g>
						<g>
							<path class="st60" d="M1674.93,1300.9h-269.59l29.79-254.76h210.02L1674.93,1300.9z M1410.96,1295.9h258.35l-28.62-244.76
								h-201.12L1410.96,1295.9z"/>
						</g>
					</g>
					<g>
						<g>
							<path class="st6" d="M1672.12,1298.4c0,64.39-33.53,105.8-76.75,124.34c-1.41,0.58-2.82,1.17-4.23,1.7
								c-3.5,1.36-7.06,2.53-10.61,3.6c-2.24,0.73-4.48,1.31-6.72,1.8c-1.51,0.39-3.02,0.73-4.57,1.02
								c-1.65,0.34-3.36,0.68-5.06,0.97c-1.85,0.34-3.7,0.58-5.55,0.83c-0.34,0.05-0.68,0.1-1.02,0.15c-0.97,0.1-2,0.19-2.97,0.29
								c-0.19,0.05-0.39,0.05-0.58,0.05c-0.97,0.15-1.9,0.19-2.87,0.24c-1.56,0.15-3.07,0.24-4.62,0.29c-2,0.1-3.99,0.15-5.99,0.15
								c-2.14,0-4.23-0.05-6.38-0.15c-2.04-0.1-4.14-0.19-6.18-0.39c-1.75-0.15-3.5-0.34-5.26-0.54c-0.73-0.1-1.41-0.19-2.09-0.29
								c-1.9-0.24-3.75-0.54-5.6-0.88h-0.05c-1.8-0.34-3.55-0.68-5.3-1.07c-1.65-0.34-3.31-0.73-4.92-1.17
								c-0.44-0.1-0.88-0.19-1.31-0.34c-1.9-0.54-3.84-1.07-5.74-1.65c-1.95-0.63-3.89-1.27-5.84-2c-1.95-0.68-3.84-1.46-5.74-2.24
								c-1.41-0.58-2.82-1.22-4.23-1.85c-4.23-1.95-8.32-4.09-12.31-6.47c-1.75-1.07-3.5-2.19-5.26-3.31
								c-3.41-2.34-6.76-4.77-9.98-7.45c-1.61-1.31-3.21-2.68-4.77-4.09c-24.72-22.58-41.22-56.45-41.22-101.57H1672.12z"/>
						</g>
						<g>
							<path class="st60" d="M1540.57,1436.35c-2.18,0-4.31-0.05-6.49-0.15c-2.18-0.1-4.27-0.21-6.3-0.4
								c-1.74-0.14-3.5-0.34-5.27-0.54l-2.19-0.3c-1.91-0.25-3.81-0.55-5.7-0.89c-1.89-0.35-3.67-0.69-5.45-1.09
								c-1.67-0.34-3.37-0.74-5.03-1.19c-0.41-0.09-0.93-0.21-1.45-0.38l-0.92-0.25c-1.58-0.44-3.19-0.9-4.77-1.38
								c-2.14-0.7-4.06-1.33-5.98-2.05c-1.93-0.68-3.87-1.47-5.81-2.27c-1.41-0.58-2.81-1.21-4.21-1.84
								c-4.52-2.08-8.62-4.24-12.67-6.65c-1.79-1.09-3.55-2.22-5.32-3.35c-4.16-2.86-7.39-5.27-10.23-7.63
								c-1.62-1.32-3.26-2.71-4.85-4.15c-27.5-25.13-42.04-60.89-42.04-103.42v-2.5h268.73v2.5c0,59.14-28.53,105.3-78.26,126.64
								c-1.46,0.61-2.9,1.2-4.33,1.74c-3.18,1.24-6.61,2.4-10.77,3.66c-2.14,0.7-4.41,1.31-6.91,1.85
								c-1.47,0.38-3.03,0.73-4.64,1.04c-1.64,0.34-3.37,0.69-5.1,0.98c-1.86,0.34-3.75,0.6-5.64,0.84l-4.07,0.45
								c-0.14,0.06-0.55,0.06-0.83,0.06c-0.69,0.13-1.69,0.19-2.74,0.24c-1.51,0.14-3.06,0.24-4.68,0.29
								C1544.64,1436.3,1542.6,1436.35,1540.57,1436.35z M1410.91,1300.9c0.56,39.99,14.49,73.57,40.39,97.22
								c1.52,1.37,3.09,2.71,4.67,4c2.77,2.31,5.79,4.56,9.81,7.32c1.67,1.07,3.41,2.18,5.15,3.24c3.86,2.31,7.81,4.38,12.05,6.33
								c1.43,0.64,2.79,1.25,4.15,1.81c1.85,0.76,3.71,1.52,5.61,2.19c1.9,0.71,3.75,1.32,5.6,1.92c1.68,0.52,3.25,0.96,4.79,1.39
								l1.04,0.29c0.47,0.15,0.82,0.23,1.18,0.31c1.67,0.45,3.27,0.83,4.88,1.16c1.77,0.39,3.49,0.73,5.27,1.06
								c1.84,0.33,3.65,0.62,5.5,0.85l2.1,0.29c1.69,0.19,3.41,0.38,5.13,0.52c1.99,0.19,3.99,0.28,5.96,0.38
								c4.31,0.19,8.2,0.2,12.26,0c1.55-0.05,3.01-0.14,4.51-0.29c1-0.05,1.84-0.09,2.73-0.22l4.59-0.49
								c1.83-0.24,3.64-0.48,5.45-0.81c1.71-0.29,3.38-0.63,5.01-0.96c1.54-0.29,3-0.62,4.45-0.99c2.42-0.53,4.54-1.1,6.57-1.76
								c4.09-1.23,7.4-2.36,10.48-3.55c1.41-0.54,2.8-1.11,4.19-1.68c47.08-20.2,74.39-63.69,75.19-119.54H1410.91z"/>
						</g>
					</g>
					<g class="st0">
						<path class="st60" d="M669.04,1329.5h231.12C876.31,1468.64,692.89,1468.64,669.04,1329.5z"/>
					</g>
					<g class="st0">
						<g>
							<path class="st19" d="M902.69,1298.4c0,10.56-0.83,20.49-2.34,29.83c-1.65-9.34-2.53-19.27-2.53-29.83H902.69z"/>
						</g>
						<g>
							<path class="st60" d="M900.47,1343.21l-2.58-14.54c-1.71-9.63-2.57-19.81-2.57-30.27v-2.5h9.87v2.5
								c0,10.33-0.8,20.5-2.37,30.23L900.47,1343.21z"/>
						</g>
					</g>
					<g class="st0">
						<path class="st60" d="M2434.19,1329.5c-25.11,139.14-218.81,139.14-243.92,0H2434.19z"/>
					</g>
					<g class="st0">
						<path class="st60" d="M1405.32,1329.5c-26.09,139.14-227.08,139.14-253.17,0H1405.32z"/>
					</g>
					<g class="st0">
						<path class="st60" d="M1928.35,1329.5c-26.09,139.14-227.08,139.14-253.17,0H1928.35z"/>
					</g>
					<g class="st0">
						<g>
							<path class="st19" d="M902.69,1298.4c0,10.56-0.83,20.49-2.34,29.83c-1.65-9.34-2.53-19.27-2.53-29.83H902.69z"/>
						</g>
						<g>
							<path class="st60" d="M900.47,1343.21l-2.58-14.54c-1.71-9.63-2.57-19.81-2.57-30.27v-2.5h9.87v2.5
								c0,10.33-0.8,20.5-2.37,30.23L900.47,1343.21z"/>
						</g>
					</g>
					<g class="st0">
						<path class="st60" d="M1146.61,1329.5c-25.36,139.14-220.7,139.14-246.06,0H1146.61z"/>
					</g>
					<g class="st0">
						<path class="st60" d="M2179.96,1329.5c-25.36,139.14-220.7,139.14-246.06,0H2179.96z"/>
					</g>
					<g class="st0">
						<path class="st60" d="M1669.24,1329.5c-8.91,46.82-38.06,77.87-73.88,93.25c-1.41,0.58-2.82,1.17-4.23,1.7
							c-3.5,1.36-7.06,2.53-10.61,3.6c-2.24,0.73-4.48,1.31-6.72,1.8c-1.51,0.39-3.02,0.73-4.57,1.02
							c-1.65,0.34-3.36,0.68-5.06,0.97c-1.85,0.34-3.7,0.58-5.55,0.83c-0.34,0.05-0.68,0.1-1.02,0.15c-0.97,0.1-2,0.19-2.97,0.29
							c-0.19,0.05-0.39,0.05-0.58,0.05c-0.97,0.15-1.9,0.19-2.87,0.24c-1.56,0.15-3.07,0.24-4.62,0.29c-2,0.1-3.99,0.15-5.99,0.15
							c-2.14,0-4.23-0.05-6.38-0.15c-2.04-0.1-4.14-0.19-6.18-0.39c-1.75-0.15-3.5-0.34-5.26-0.54c-0.73-0.1-1.41-0.19-2.09-0.29
							c-1.9-0.24-3.75-0.54-5.6-0.88h-0.05c-1.8-0.34-3.55-0.68-5.3-1.07c-1.65-0.34-3.31-0.73-4.92-1.17
							c-0.44-0.1-0.88-0.19-1.31-0.34c-1.9-0.54-3.84-1.07-5.74-1.65c-1.95-0.63-3.89-1.27-5.84-2c-1.95-0.68-3.84-1.46-5.74-2.24
							c-1.41-0.58-2.82-1.22-4.23-1.85c-4.23-1.95-8.32-4.09-12.31-6.47c-1.75-1.07-3.5-2.19-5.26-3.31
							c-3.41-2.34-6.76-4.77-9.98-7.45c-1.61-1.31-3.21-2.68-4.77-4.09c-18.69-17.03-32.66-40.54-38.35-70.47H1669.24z"/>
					</g>
					<g>
						<path class="st60" d="M1672.12,1313.33h-263.97c-4.26,0-8.32-1.82-11.15-5c-2.83-3.18-4.17-7.42-3.67-11.65l29.2-249.76
							c0.88-7.52,7.25-13.19,14.82-13.19h205.57c7.57,0,13.94,5.67,14.82,13.19l29.2,249.76c0.49,4.23-0.84,8.47-3.67,11.65
							C1680.43,1311.51,1676.38,1313.33,1672.12,1313.33z M1424.91,1283.48h230.43l-25.71-219.91h-179.01L1424.91,1283.48z"/>
					</g>
					<g>
						<path class="st60" d="M1540.57,1448.77c-2.37,0-4.69-0.05-7.05-0.16c-2.4-0.11-4.68-0.23-6.9-0.44
							c-1.72-0.14-3.6-0.35-5.48-0.56l-2.53-0.35c-1.86-0.24-3.81-0.54-5.77-0.89c-0.2-0.03-0.4-0.06-0.59-0.1
							c-1.96-0.37-3.87-0.74-5.77-1.17c-1.62-0.33-3.46-0.76-5.26-1.25c-0.67-0.15-1.33-0.32-1.99-0.53l-0.79-0.22
							c-1.68-0.47-3.39-0.95-5.06-1.46c-2.52-0.82-4.61-1.51-6.7-2.29c-1.88-0.66-4.03-1.53-6.17-2.41
							c-1.55-0.64-3.06-1.31-4.57-1.99c-5.04-2.32-9.53-4.68-13.96-7.32c-1.98-1.21-3.81-2.38-5.64-3.55
							c-4.83-3.3-8.35-5.94-11.5-8.56c-1.69-1.38-3.49-2.91-5.23-4.48c-30.19-27.58-46.12-66.51-46.12-112.63
							c0-8.24,6.68-14.92,14.92-14.92h263.73c8.24,0,14.92,6.68,14.92,14.92c0,64.35-31.27,114.67-85.79,138.06
							c-1.72,0.71-3.27,1.35-4.81,1.94c-3.41,1.33-7.12,2.59-11.6,3.94c-2.2,0.72-4.78,1.42-7.58,2.03
							c-1.74,0.44-3.48,0.83-5.27,1.17c-1.58,0.32-3.44,0.7-5.31,1.02c-1.9,0.35-4.01,0.64-6.12,0.91l-0.83,0.12
							c-0.21,0.03-0.42,0.06-0.63,0.08l-2.5,0.25c-0.46,0.06-0.88,0.1-1.27,0.13c-1.03,0.12-2.03,0.19-3.07,0.25
							c-1.76,0.16-3.46,0.26-5.23,0.32C1545.05,1448.71,1542.81,1448.77,1540.57,1448.77z M1517.35,1416.86
							c0.14,0.02,0.27,0.04,0.41,0.07c1.59,0.29,3.18,0.54,4.8,0.75l2.17,0.3c1.31,0.14,2.92,0.32,4.52,0.46
							c1.93,0.18,3.74,0.26,5.51,0.35c3.87,0.18,7.4,0.19,11.06,0.01c1.51-0.05,2.71-0.13,3.96-0.24c0.21-0.02,0.43-0.04,0.65-0.05
							c0.47-0.02,0.92-0.02,1.4-0.1c0.42-0.06,0.84-0.11,1.27-0.14c0.01,0,0.03,0,0.05,0l3.37-0.36c1.76-0.23,3.35-0.43,4.94-0.73
							c1.75-0.3,3.28-0.61,4.78-0.92c1.46-0.28,2.65-0.54,3.83-0.85c0.19-0.05,0.38-0.1,0.58-0.14c1.91-0.42,3.63-0.87,5.25-1.4
							c4.04-1.22,7.06-2.25,9.83-3.32c1.38-0.52,2.66-1.05,3.94-1.58c38.65-16.58,62.51-51.01,66.82-95.63H1424
							c2.93,30.91,15.11,56.85,35.67,75.63c1.33,1.2,2.74,2.4,4.15,3.55c2.55,2.13,5.29,4.17,8.97,6.69
							c1.27,0.8,2.94,1.87,4.61,2.89c3.36,2.01,6.93,3.88,10.76,5.64c1.2,0.53,2.45,1.1,3.7,1.61c1.62,0.66,3.27,1.35,4.97,1.94
							c1.99,0.74,3.67,1.29,5.35,1.83c1.38,0.42,2.85,0.83,4.3,1.24l1.05,0.3c0.22,0.06,0.45,0.13,0.67,0.21
							c0.23,0.05,0.29,0.04,0.52,0.1c1.3,0.35,2.64,0.67,3.99,0.94C1514.39,1416.29,1515.86,1416.58,1517.35,1416.86z
							 M1551.03,1418.64c0,0-0.01,0-0.01,0C1551.02,1418.64,1551.02,1418.64,1551.03,1418.64z"/>
					</g>
					<g>
						<path class="st60" d="M1801.76,1448.78c-71.72,0-144.33-51.65-144.33-150.38c0-8.24,6.68-14.92,14.92-14.92h258.81
							c8.24,0,14.92,6.68,14.92,14.92C1946.09,1397.13,1873.49,1448.78,1801.76,1448.78z M1687.95,1313.33
							c6.68,72.44,62.1,105.61,113.81,105.61c51.71,0,107.13-33.17,113.81-105.61H1687.95z"/>
					</g>
					<g>
						<path class="st60" d="M2056.92,1448.78c-69.91,0-140.68-51.65-140.68-150.38c0-8.24,6.68-14.92,14.92-14.92h251.51
							c8.24,0,14.92,6.68,14.92,14.92C2197.6,1397.13,2126.83,1448.78,2056.92,1448.78z M1946.74,1313.33
							c6.47,72.44,60.12,105.61,110.18,105.61c50.07,0,103.71-33.17,110.18-105.61H1946.74z"/>
					</g>
					<g>
						<path class="st60" d="M2307.37,1448.78c-69.38,0-139.61-51.65-139.61-150.38c0-8.24,6.68-14.92,14.92-14.92h249.37
							c8.24,0,14.92,6.68,14.92,14.92C2446.97,1397.13,2376.74,1448.78,2307.37,1448.78z M2198.25,1313.33
							c6.41,72.44,59.54,105.61,109.12,105.61s102.71-33.17,109.12-105.61H2198.25z"/>
					</g>
				</g>
				<g>
					<path class="st60" d="M2810.24,2175.74h-447.74c-8.06,0-14.6-6.54-14.6-14.6s6.54-14.6,14.6-14.6h445.31
						c29.91-10.98,33.73-43.82,27.74-69.04c-11-46.39-55.99-88.09-120.65-77.99c-6.6,1.03-13.04-2.54-15.67-8.67
						c-2.63-6.13-0.76-13.27,4.53-17.33c27.15-20.85,37.39-42.5,35.49-54.69c-0.69-4.44-2.96-7.21-7.14-8.72
						c-13.14-4.75-43.27,2.78-84.97,39.62c-5.52,4.88-13.8,4.88-19.32,0.01c-5.52-4.87-6.56-13.08-2.42-19.17
						c40.72-59.88,54.6-114.11,37.12-145.09c-8.51-15.08-23.99-22.82-43.65-21.74c-33.45,1.8-84.44,31.65-118.03,109.83
						c-3.05,7.1-11.1,10.59-18.37,7.97c-7.27-2.62-11.23-10.46-9.04-17.87c18.3-61.94,11.22-96.97-1.5-109.1
						c-5.54-5.28-12.48-6.51-20.62-3.67c-17.73,6.18-38.3,31.55-44.28,74.32c-1.12,7.98-8.44,13.54-16.48,12.44
						c-7.98-1.12-13.55-8.5-12.44-16.48c8.21-58.67,38.23-89.01,63.59-97.85c18.5-6.45,36.86-2.77,50.37,10.11
						c9.34,8.9,21.13,26.98,21.73,61.69c33.91-41.36,72.84-58.88,103.51-60.54c30.82-1.67,56.61,11.66,70.66,36.55
						c17,30.12,14.26,72.19-6.83,119.89c23.36-11.28,44.36-14.36,60.9-8.39c14.24,5.14,23.75,16.69,26.08,31.69
						c2.69,17.29-4.07,36.66-18.63,55.19c61.07,6.39,102.75,51.75,114.49,101.25c11.66,49.15-8.13,91.06-49.26,104.28
						C2813.27,2175.5,2811.76,2175.74,2810.24,2175.74z"/>
				</g>
			</g>
		</g>
	</g>
</g>
</svg>
