<?xml version="1.0" encoding="utf-8"?>
<!-- Generator: Adobe Illustrator 24.3.0, SVG Export Plug-In . SVG Version: 6.00 Build 0)  -->
<svg version="1.1" id="Layer_1" xmlns="http://www.w3.org/2000/svg" xmlns:xlink="http://www.w3.org/1999/xlink" x="0px" y="0px"
	 viewBox="400 400 3200 3200" style="enable-background:new 0 0 4000 4000;" xml:space="preserve">
<style type="text/css">
	.st0{fill:#37DBFF;}
	.st1{opacity:0.2;}
	.st2{fill:#6B184E;}
	.st3{fill:#FFC928;}
	.st4{fill:#FEA727;}
	.st5{opacity:0.55;}
	.st6{fill:#FFFFFF;}
	.st7{fill:#647584;}
	.st8{opacity:0.3;}
	.st9{fill:#2CBEFF;}
	.st10{fill:#EF3D30;}
	.st11{fill:#7C6B6A;}
	.st12{fill:#95C4FC;}
	.st13{opacity:0.35;}
	.st14{fill:#371A45;}
	.st15{fill:#22A7F0;}
	.st16{fill:none;stroke:#293856;stroke-width:25.6;stroke-linecap:round;stroke-linejoin:round;stroke-miterlimit:10;}
	.st17{opacity:0.6;}
	.st18{fill:#AFAFB2;}
	.st19{fill:#F92323;}
	.st20{fill:#FFCE00;}
	.st21{fill:#3AAAFF;}
	.st22{fill:#181558;}
	.st23{fill:#60F4E9;}
	.st24{fill:#ED4F4F;}
	.st25{fill:#220F2D;}
	.st26{opacity:0.7;}
	.st27{opacity:0.8;}
	.st28{fill:#9FE8FF;}
	.st29{fill:#EAA549;}
	.st30{fill:#F2BE7E;}
	.st31{fill:#111A28;}
	.st32{fill:#934745;}
	.st33{fill:#FFF2BD;}
	.st34{fill:#102770;}
	.st35{opacity:0.5;}
	.st36{fill:#FCE85B;}
	.st37{fill:#33AEF1;}
	.st38{fill:#BF6325;}
	.st39{fill:#BE9577;}
	.st40{fill:#FDFFFE;}
	.st41{fill:#FCC59C;}
	.st42{opacity:0.4;}
	.st43{fill:#650000;}
	.st44{fill:#9EEF79;}
	.st45{fill:#390075;}
	.st46{fill:#DBE3EE;}
	.st47{opacity:0.3;fill:url(#SVGID_1_);}
	.st48{opacity:0.3;fill:url(#SVGID_2_);}
	.st49{opacity:0.3;fill:url(#SVGID_3_);}
	.st50{fill:url(#SVGID_4_);}
	.st51{fill:#D36C0F;}
	.st52{fill:#FFCA29;}
	.st53{fill:#1EBC61;}
	.st54{fill:#282E6B;}
	.st55{fill:#EC1C24;}
	.st56{fill:#418BF9;}
	.st57{fill:#01D3EC;}
	.st58{fill:#F9C710;}
	.st59{fill:#F89F1D;}
	.st60{fill:#67E9FF;}
	.st61{fill:#5E2323;}
	.st62{fill:#D46051;}
	.st63{fill:#E36836;}
	.st64{fill:#FFBF00;}
	.st65{fill:#E93B47;}
	.st66{fill:#FEC828;}
	.st67{fill:#FFBB34;}
	.st68{fill:#F6B041;}
	.st69{fill:#8CC34B;}
	.st70{fill:#C3512C;}
	.st71{fill:#FFCC80;}
	.st72{opacity:0.25;}
	.st73{fill:#760153;}
	.st74{fill:#F28E0A;}
	.st75{fill:#792937;}
	.st76{opacity:0.59;}
	.st77{fill:#FFA9DE;}
	.st78{fill:#FBC100;}
	.st79{fill:#955447;}
	.st80{fill:#B68662;}
	.st81{fill:#ED2957;}
	.st82{fill:#86CC2B;}
	.st83{fill:#AAB2CE;}
	.st84{fill:#818CA5;}
	.st85{fill:#80869E;}
	.st86{fill:#3AB4FF;}
	.st87{fill:#DC9AFE;}
	.st88{fill:#FF9F40;}
	.st89{opacity:0.65;}
	.st90{fill:#262F6A;}
	.st91{fill:none;stroke:#6B184E;stroke-width:32.0087;stroke-linecap:round;stroke-linejoin:round;stroke-miterlimit:10;}
	.st92{fill:#96A7BC;}
	.st93{fill:#FF3E84;}
	.st94{fill:#FCD559;}
	.st95{fill:none;stroke:#6B184E;stroke-width:30.3404;stroke-linecap:round;stroke-linejoin:round;stroke-miterlimit:10;}
	.st96{fill:#F15A23;}
	.st97{fill:#FED176;}
	.st98{fill:#00AAFF;}
	.st99{fill:#DC60FC;}
	.st100{fill:#C3B9C0;}
	.st101{fill:#685161;}
	.st102{fill:#E67E22;}
	.st103{opacity:0.15;}
	.st104{fill:#808891;}
	.st105{fill:#DAE2ED;}
	.st106{fill:#FF6CA8;}
	.st107{fill:#F9F6C3;}
	.st108{fill:#F7C714;}
	.st109{fill:#F89E1D;}
	.st110{fill:#FCE5E5;}
	.st111{fill:#F9DD6A;}
	.st112{opacity:0.27;clip-path:url(#SVGID_6_);}
	.st113{opacity:0.27;clip-path:url(#SVGID_8_);}
	.st114{opacity:0.27;clip-path:url(#SVGID_10_);}
	.st115{fill:#FDA8F3;}
	.st116{fill:#EF185B;}
	.st117{fill:#87F230;}
	.st118{opacity:0.66;}
	.st119{fill:#88F28C;}
	.st120{fill:#8E97A3;}
	.st121{fill:#A2AEBA;}
	.st122{fill:#2BD63F;}
	.st123{opacity:0.45;}
	.st124{fill:#28BF2C;}
	.st125{fill:#6E4D42;}
	.st126{fill:#FFD553;}
	.st127{fill:#7C6774;}
	.st128{fill:#B0D8FD;}
	.st129{fill:#F7C414;}
	.st130{fill:#EA3442;}
	.st131{fill:none;stroke:#6B184E;stroke-width:28.2634;stroke-linecap:round;stroke-linejoin:round;stroke-miterlimit:10;}
</style>
<g>
	<g class="st8">
		<path class="st45" d="M3602.85,3237.85c0,42.45-706.8,76.8-1578.65,76.8c-871.9,0-1578.65-34.35-1578.65-76.8
			c0-14.1,77.95-27.3,213.95-38.6h2729.4C3524.95,3210.6,3602.85,3223.75,3602.85,3237.85z"/>
	</g>
	<g>
		<g>
			<path class="st46" d="M2965.59,3199.26H1082.3c-112.12,0-203.01-90.89-203.01-203.01v0h2289.3v0
				C3168.59,3108.37,3077.7,3199.26,2965.59,3199.26z"/>
		</g>
		<g>
			<path class="st6" d="M1762.61,2996.26c0,13.83,3.93,26.77,10.78,37.92H883.03c-2.46-12.27-3.74-24.94-3.74-37.92H1762.61z"/>
		</g>
		<g>
			<path class="st6" d="M3178.05,2993.47c0,56.04-24.08,106.81-63.05,143.53c-12.87,12.18-27.39,22.8-43.18,31.54
				c35.14-36.1,56.57-84.28,56.57-137.15h-844.44c6.86-11.15,10.78-24.09,10.78-37.92H3178.05z"/>
		</g>
		<g>
			<path class="st45" d="M2965.59,3213.99H1082.3c-120.06,0-217.73-97.67-217.73-217.73c0-8.13,6.59-14.72,14.72-14.72H3168.6
				c8.13,0,14.72,6.59,14.72,14.72C3183.32,3116.31,3085.65,3213.99,2965.59,3213.99z M894.58,3010.98
				c7.53,96.97,88.85,173.56,187.71,173.56h1883.29c98.87,0,180.18-76.6,187.71-173.56H894.58z"/>
		</g>
		<g class="st8">
			<path class="st45" d="M3168.31,2996.26c0,56.04-24.08,106.81-63.05,143.53c-38.93,36.76-92.75,59.47-152.16,59.47H1094.22
				c-118.86,0-215.21-90.89-215.21-203.01h10.78c28.24,80.98,109.12,139.43,204.43,139.43H2953.1c59.41,0,113.24-22.71,152.16-59.47
				c23.56-22.17,41.62-49.48,52.27-79.95H3168.31z"/>
		</g>
		<g>
			<path class="st45" d="M2209.42,3086.83h-370.96c-49.94,0-90.57-40.63-90.57-90.57c0-8.13,6.59-14.72,14.72-14.72h522.66
				c8.13,0,14.72,6.59,14.72,14.72C2299.99,3046.2,2259.36,3086.83,2209.42,3086.83z M1779.12,3010.98
				c6.61,26.62,30.7,46.41,59.34,46.41h370.96c28.63,0,52.73-19.79,59.34-46.41H1779.12z"/>
		</g>
		<g class="st8">
			<path class="st45" d="M2209.42,3072.1h-370.96c-41.89,0-75.85-33.96-75.85-75.85l0,0h522.66l0,0
				C2285.27,3038.15,2251.31,3072.1,2209.42,3072.1z"/>
		</g>
		<g class="st8">
			<path class="st45" d="M2272.27,2996.26c0,20.97-8.99,39.89-23.56,53.63c-14.52,13.74-34.67,22.22-56.85,22.22h-59.93
				c22.23,0,42.29-8.48,56.85-22.22c14.57-13.74,23.56-32.66,23.56-53.63H2272.27z"/>
		</g>
		<g>
			<path class="st46" d="M2909.35,2996.26H1138.54c-60.89,0-110.25-49.36-110.25-110.25V1847.14c0-60.89,49.36-110.25,110.25-110.25
				h1770.81c60.89,0,110.25,49.36,110.25,110.25V2886C3019.6,2946.89,2970.24,2996.26,2909.35,2996.26z"/>
			<path class="st45" d="M2909.35,2998.76H1138.54c-62.17,0-112.75-50.58-112.75-112.75V1847.14c0-62.17,50.58-112.75,112.75-112.75
				h1770.81c62.17,0,112.75,50.58,112.75,112.75V2886C3022.1,2948.17,2971.52,2998.76,2909.35,2998.76z M1138.54,1739.39
				c-59.41,0-107.75,48.34-107.75,107.75V2886c0,59.42,48.34,107.75,107.75,107.75h1770.81c59.41,0,107.75-48.34,107.75-107.75
				V1847.14c0-59.42-48.34-107.75-107.75-107.75H1138.54z"/>
		</g>
		<g class="st8">
			<path class="st45" d="M2997.63,2954.27c-20.76,22.98-51.7,37.52-86.23,37.52H1147.12c-62.67,0-113.52-47.96-113.52-107.08
				v-1045.2c0-31.28,14.24-59.43,36.89-78.97c-2.46,7.67-3.78,15.84-3.78,24.32v1089.06c0,47.03,40.39,85.17,90.25,85.17h1810.82
				C2978.24,2959.09,2988.31,2957.39,2997.63,2954.27z"/>
		</g>
		<g class="st17">
			<path class="st6" d="M3015.44,1846.74v1045.2c0,31.1-14,59.16-36.47,78.7c2.22-7.32,3.36-14.99,3.36-22.93V1853.43
				c0-45.6-39.16-82.54-87.5-82.54h-74.54c-10.03,29.27-90.34,29.27-100.37,0H1078.52c-8.42,0-16.55,1.16-24.26,3.21
				c20.76-21.19,50.47-34.44,83.39-34.44h1764.28C2964.64,1739.66,3015.44,1787.66,3015.44,1846.74z"/>
		</g>
		<g>
			<path class="st45" d="M2909.35,3010.98H1138.54c-68.91,0-124.98-56.06-124.98-124.98V1847.14c0-68.91,56.06-124.98,124.98-124.98
				h1770.81c68.91,0,124.98,56.06,124.98,124.98V2886C3034.32,2954.91,2978.26,3010.98,2909.35,3010.98z M1138.54,1751.61
				c-52.68,0-95.53,42.86-95.53,95.53V2886c0,52.68,42.86,95.53,95.53,95.53h1770.81c52.68,0,95.53-42.86,95.53-95.53V1847.14
				c0-52.68-42.86-95.53-95.53-95.53H1138.54z"/>
		</g>
		<g>
			<path class="st37" d="M2888.68,1911.97v909.21c0,29.31-25.21,53.14-56.33,53.14h-1616.8c-6.43,0-12.63-1.03-18.4-2.9
				c-22.09-7.18-37.93-26.99-37.93-50.24v-909.21c0-29.31,25.21-53.14,56.33-53.14h1616.8
				C2863.46,1858.83,2888.68,1882.65,2888.68,1911.97z"/>
		</g>
		<linearGradient id="SVGID_1_" gradientUnits="userSpaceOnUse" x1="2949.3584" y1="1856.4198" x2="2409.7009" y2="2721.9082">
			<stop  offset="0" style="stop-color:#FFFFFF"/>
			<stop  offset="1" style="stop-color:#FFFFFF;stop-opacity:0"/>
		</linearGradient>
		<path class="st47" d="M2888.68,1911.97v217.6l-442.44,744.75h-263.13l644.79-1015.49h4.45
			C2863.46,1858.83,2888.68,1882.65,2888.68,1911.97z"/>
		<linearGradient id="SVGID_2_" gradientUnits="userSpaceOnUse" x1="2526.1528" y1="1279.8044" x2="1504.235" y2="2722.512">
			<stop  offset="0" style="stop-color:#FFFFFF"/>
			<stop  offset="1" style="stop-color:#FFFFFF;stop-opacity:0"/>
		</linearGradient>
		<path class="st48" d="M2322.91,1858.83l-644.84,1015.49h-467.7c-6.43,0-12.63-1.03-18.4-2.9l642.66-1012.59H2322.91z"/>
		<g class="st8">
			<path class="st45" d="M2928.69,1899.43v853.97c0,28.78-15.99,54.03-40.02,68.35v-909.79c0-29.31-25.21-53.14-56.33-53.14h-1616.8
				c-1.61,0-3.22,0.04-4.82,0.22c14.76-24.14,42.43-40.38,74.12-40.38h1558.24C2890.38,1818.67,2928.69,1854.86,2928.69,1899.43z"/>
		</g>
		<linearGradient id="SVGID_3_" gradientUnits="userSpaceOnUse" x1="1701.4117" y1="1638.6067" x2="1239.1515" y2="2325.468">
			<stop  offset="0" style="stop-color:#FFFFFF"/>
			<stop  offset="1" style="stop-color:#FFFFFF;stop-opacity:0"/>
		</linearGradient>
		<polygon class="st49" points="1671.18,1858.83 1159.21,2696.7 1159.21,2191.81 1408.1,1858.83 		"/>
		<g class="st8">
			<path class="st45" d="M2888.68,1911.97v909.21c0,28.33-23.56,51.53-53.21,53.05v-938.25c0-18.38-15.8-33.28-35.24-33.28H1160.11
				c4.64-24.9,27.67-43.86,55.44-43.86h1616.8C2863.46,1858.83,2888.68,1882.65,2888.68,1911.97z"/>
		</g>
		<g>
			<path class="st45" d="M2833.96,2889.02H1213.92c-38.29,0-69.44-31.15-69.44-69.44v-906.03c0-38.29,31.15-69.44,69.44-69.44
				h1620.04c38.29,0,69.44,31.15,69.44,69.44v906.03C2903.4,2857.88,2872.25,2889.02,2833.96,2889.02z M1213.92,1873.57
				c-22.05,0-40,17.94-40,39.99v906.03c0,22.05,17.94,39.99,40,39.99h1620.04c22.05,0,40-17.94,40-39.99v-906.03
				c0-22.05-17.94-39.99-40-39.99H1213.92z"/>
		</g>
	</g>
	<g>
		<linearGradient id="SVGID_4_" gradientUnits="userSpaceOnUse" x1="1960.1572" y1="3008.8105" x2="2353.2207" y2="1916.9674">
			<stop  offset="0" style="stop-color:#F47C00"/>
			<stop  offset="1" style="stop-color:#FFCA29"/>
		</linearGradient>
		<path class="st50" d="M2708.88,2984.75H1171.77c-69.7-62.75-12.18-193.47,26.14-223.12v101.08
			c67.98-176.01,215.28-299.52,357.35-196.87h0.05c28.18-28.76,65.73-44.08,102.02-40.52c42.15-170.46,137.21-348.25,256.95-529.49
			L1745.23,2230c112.53-206.23,270.18-371.26,450.63-456.86c0,0,99.72-40.89,100.81,99.04c-0.52,1.05-1.05,2.14-1.57,3.19
			c-103.74,210.31-143.69,581.78-59.45,720.19c0.47,0.84,0.99,1.67,1.52,2.51c38.07-13.91,81.89-6.8,93.6,33.52
			c60.19-48,153.05-11.19,161.58,56.05c37.54-28.08,80.47-44.5,122.88-49.26c113-12.81,222.65,56.68,219.36,206.91l57.52-62.75
			C2895.39,2925.66,2815.65,2971.1,2708.88,2984.75z"/>
		<g class="st5">
			<path class="st6" d="M1197.91,2761.63v69.55c-22.54,44.29-36.92,107.82-11.03,153.58h-15.11
				C1102.07,2922,1159.58,2791.28,1197.91,2761.63z"/>
		</g>
		<g class="st5">
			<path class="st6" d="M1849.39,2197.89l98.88-78.49c-119.74,181.24-214.81,359.02-256.95,529.49
				c-36.29-3.56-73.83,11.77-102.02,40.52h-0.05c-142.07-102.64-289.37,20.86-357.35,196.87v-95.69
				c76.24-134.75,201.68-212.66,323.36-124.76h0.05c28.18-28.76,65.73-44.08,102.02-40.52
				C1691.53,2486.95,1760.6,2343.83,1849.39,2197.89z"/>
		</g>
		<g class="st5">
			<path class="st6" d="M2229.85,1796.73c-151.27,71.74-286.55,199.33-392.59,360.22l-92.03,73.05
				c112.53-206.23,270.18-371.26,450.63-456.86c0,0,52.45-21.49,81.68,20.03C2253.28,1787.11,2229.85,1796.73,2229.85,1796.73z"/>
		</g>
		<g class="st5">
			<path class="st6" d="M1231.9,2790.6v-5.39c-10.88,8.42-23.37,25.05-33.99,45.96L1231.9,2790.6z"/>
			<path class="st45" d="M1197.91,2833.68c-0.48,0-0.96-0.13-1.38-0.41c-1.06-0.7-1.43-2.08-0.85-3.22
				c10.61-20.9,23.25-37.96,34.69-46.81c0.76-0.58,1.78-0.69,2.63-0.27c0.85,0.42,1.4,1.29,1.4,2.24v5.39
				c0,0.59-0.21,1.15-0.59,1.61l-33.99,40.58C1199.34,2833.37,1198.63,2833.68,1197.91,2833.68z M1224.09,2796.03
				c-1.71,1.89-3.43,3.95-5.15,6.14L1224.09,2796.03z M1231.9,2790.6h0.05H1231.9z"/>
		</g>
		<g>
			<path class="st51" d="M2708.88,2984.75h-667.84c83.82-10.46,142.02-41.26,167.17-98.46c58.2,49.31,104.32,19.97,145.31-42.72
				c37.28,60.76,70.49,62.75,97.62-22.69c147.51-1.88,202.2-62.75,164.09-182.49c113-12.81,222.65,56.68,219.36,206.91l57.52-62.75
				C2895.39,2925.66,2815.65,2971.1,2708.88,2984.75z"/>
		</g>
		<g>
			<path class="st45" d="M1568.11,2673.01c-7.4,8.99-14.59,18.28-21.64,27.8c-7.13,9.48-13.81,19.36-21.6,28.81
				c-0.78,0.94-2.17,1.08-3.11,0.3c-0.73-0.61-0.98-1.58-0.68-2.43l0.03-0.1c3.85-10.97,6.74-22.6,10.21-34.1
				c3.38-11.54,7.04-23.11,11.08-34.64l0.03-0.1c2.73-7.8,11.27-11.91,19.07-9.18c7.8,2.73,11.91,11.27,9.18,19.06
				C1570.1,2670.14,1569.19,2671.7,1568.11,2673.01z"/>
		</g>
		<g>
			<path class="st45" d="M1728,2676.24c-11.72-8.49-24.62-15.43-37.56-21.75c-12.98-6.28-26.31-11.64-39.65-15.99
				c-7.81-2.55-12.08-10.95-9.53-18.76s10.95-12.08,18.76-9.53c1.35,0.44,2.6,1.06,3.73,1.82l0.14,0.1
				c12.82,8.76,24.79,18.22,36.03,28.36c11.19,10.19,21.92,20.74,31.18,32.67c0.75,0.96,0.57,2.34-0.39,3.09
				c-0.79,0.62-1.87,0.61-2.64,0.05L1728,2676.24z"/>
		</g>
		<g>
			<path class="st45" d="M2708.87,2999.75H1171.77c-3.71,0-7.28-1.37-10.03-3.85c-26.11-23.51-39.11-57.67-37.57-98.79
				c2.24-59.99,35.2-124.62,64.58-147.34c4.53-3.5,10.66-4.12,15.79-1.6c5.14,2.52,8.39,7.74,8.39,13.47v32.18
				c47.55-89,113.53-151.75,183.82-172.59c53.11-15.74,107.16-6.94,157.05,25.43c26.91-23.6,59.4-36.6,92.01-36.85
				c34.5-132.42,101.02-275.99,207-446.02l-98.24,77.97c-5.59,4.43-13.52,4.33-18.98-0.27c-5.46-4.59-6.93-12.4-3.51-18.66
				c116.91-214.27,279.35-378.78,457.37-463.22c0.24-0.11,0.49-0.22,0.74-0.33c1.8-0.73,44.43-17.79,79.77,5.72
				c27.28,18.14,41.32,54.17,41.74,107.08c0.02,2.37-0.52,4.71-1.58,6.83c-106.74,213.42-138.83,566.4-65.99,701.33
				c24.19-6.23,47.94-4.58,66.62,4.88c11.13,5.64,20.08,13.86,26.48,24.21c30.81-17.03,68.75-19.32,103-5.41
				c29.29,11.89,51.01,33.24,61.25,59.27c75.73-47.87,168.16-55.2,240.89-17.77c60.32,31.05,97.67,89.35,105.68,163.02l33.01-36.02
				c4.15-4.51,10.6-6.06,16.34-3.9c5.73,2.15,9.58,7.58,9.72,13.7c3.96,171.89-110.15,206.41-196.32,217.42
				C2710.14,2999.71,2709.51,2999.75,2708.87,2999.75z M1177.81,2969.75h1530.11c106.34-13.81,158.33-58.53,167.72-147.04l-30,32.72
				c-4.21,4.6-10.85,6.12-16.65,3.78c-5.8-2.33-9.54-8-9.4-14.25c1.77-80.38-30.54-141.77-90.97-172.88
				c-67.45-34.72-158.8-23.64-227.29,27.57c-4.28,3.2-9.93,3.88-14.84,1.79c-4.92-2.08-8.35-6.63-9.02-11.92
				c-3.19-25.17-21.34-46.78-48.54-57.83c-30.33-12.32-64.37-7.87-88.8,11.62c-3.92,3.12-9.13,4.08-13.89,2.57
				c-4.77-1.51-8.47-5.31-9.86-10.11c-3.21-11.04-9.67-19.08-19.2-23.91c-14.17-7.18-34.67-7.07-54.85,0.3
				c-6.62,2.42-14.05-0.1-17.82-6.07c-42.17-66.68-58.42-192.29-44.59-344.61c13.01-143.31,50.97-289.75,101.72-392.71
				c-0.84-39.7-10.55-66.88-28.14-78.7c-20.77-13.95-48.51-4.31-51.69-3.13c-152.75,72.61-293.93,206.66-403.31,381.65l106.47-84.5
				c5.77-4.58,14.01-4.29,19.46,0.69c5.43,4.98,6.44,13.17,2.38,19.33c-136.44,206.51-217.44,373.27-254.9,524.82
				c-1.79,7.23-8.64,12.07-16.02,11.33c-31.13-3.07-64.7,10.44-89.84,36.09c-5.03,5.13-13.72,5.87-19.55,1.66
				c-45.52-32.88-93.05-42.3-141.22-28.02c-76,22.54-150.09,106.12-193.35,218.13c-2.6,6.74-9.65,10.65-16.74,9.34
				c-7.1-1.32-12.25-7.52-12.25-14.75v-58.82c-14.58,24.95-27.5,60.01-28.77,94.34C1153.02,2928.34,1160.97,2952.37,1177.81,2969.75
				z"/>
		</g>
		<g>
			<path class="st45" d="M2501.15,2699.44c-5.59,2.91-11.44,6.46-17.07,10.13c-5.66,3.69-11.23,7.59-16.66,11.69
				c-10.83,8.25-21.14,17.28-30.11,27.78l-0.02,0.03c-0.79,0.93-2.18,1.04-3.11,0.24c-0.75-0.64-0.97-1.68-0.59-2.55
				c5.66-13.12,13.27-25.5,21.67-37.25c4.23-5.87,8.67-11.59,13.33-17.19c4.69-5.61,9.46-11.03,14.95-16.48l0.21-0.21
				c5.84-5.81,15.29-5.78,21.09,0.07s5.78,15.29-0.06,21.09C2503.7,2697.86,2502.43,2698.76,2501.15,2699.44z"/>
		</g>
		<g>
			<path class="st45" d="M2285.5,2690.52c0.6-6.37,2.53-12.53,4.89-18.37c2.38-5.85,5.22-11.49,8.3-16.97
				c3.09-5.48,6.42-10.82,10-16.04c3.67-5.27,7.19-10.21,12.16-15.63l-5.58,11.54V2635c0-8.13,6.59-14.72,14.72-14.72
				c8.13,0,14.73,6.59,14.73,14.72v0.05v2.55c0,3.94-2.28,7.35-5.58,8.99c-4.2,2.08-9.2,5.4-13.76,8.64
				c-4.64,3.31-9.18,6.85-13.54,10.57c-4.35,3.74-8.54,7.67-12.38,11.9c-3.82,4.24-7.29,8.77-9.73,13.88l-0.04,0.09
				c-0.53,1.1-1.84,1.57-2.94,1.04C2285.89,2692.31,2285.42,2691.42,2285.5,2690.52z"/>
		</g>
		<g>
			<path class="st45" d="M2243.77,2611.23c-9.78,2.69-18.73,6.34-26.12,13.22c-7.52,6.77-13.53,17.18-20.71,26.56
				c-0.75,0.97-2.14,1.15-3.11,0.41c-0.75-0.58-1.03-1.56-0.77-2.41c1.67-5.49,2.94-11.06,4.49-16.79
				c1.54-5.72,3.42-11.69,6.36-17.6c2.91-5.91,6.9-11.59,11.54-16.54c4.64-4.97,9.8-9.25,15.12-13.16l0.33-0.24
				c6.68-4.91,16.07-3.48,20.98,3.2c4.91,6.68,3.48,16.07-3.2,20.98C2247.18,2609.95,2245.48,2610.75,2243.77,2611.23z"/>
		</g>
		<g>
			<path class="st45" d="M2330.77,2649.24c-9.74,0-17.63-7.87-17.63-17.6v-0.05c0-9.73,7.89-17.63,17.63-17.63
				s17.63,7.89,17.63,17.63S2340.51,2649.24,2330.77,2649.24z"/>
		</g>
		<g>
			<path class="st52" d="M2215.49,1797.97c-68.92,54.7-130.98,128.25-187.9,215.92l64.06-44.45
				c-72.84,111.85-138.52,261.92-201.32,427.47l69.28-100.66c-64.84,170.17-75.82,310.25-75.82,432.26l119.39-329.43l34.86,69.72
				c25.03-149.9,129.21-531.97,228.25-620.11l-56.43-57.52L2215.49,1797.97z"/>
		</g>
		<g class="st1">
			<path class="st6" d="M1462.49,2736.15c-12.13-11.35-56.29,0.11-88.75,34.82c-32.47,34.71-40.95,79.53-28.81,90.88
				c12.13,11.35,40.45-14.93,72.91-49.64C1450.3,2777.5,1474.62,2747.49,1462.49,2736.15z"/>
		</g>
	</g>
	<g>
		<path class="st45" d="M3448.75,3204.25c-59.32,7.76-118.64,9.62-177.97,10.58c-29.66,0.52-59.32,0.63-88.98,0.49
			c-29.66,0.04-59.32-0.32-88.98-0.57c-59.32-0.46-118.64-0.57-177.97-0.5h-177.97H2025h-711.88H957.19l-88.98,0.03l-44.49,0.36
			l-44.49,0.62c-29.66,0.3-59.32-0.12-88.98-1.49c-29.66-1.51-59.32-3.87-88.98-9.51c-2.76-0.53-4.57-3.19-4.05-5.95
			c0.4-2.11,2.07-3.66,4.05-4.05c29.66-5.64,59.33-8.01,88.98-9.52c29.66-1.37,59.33-1.79,88.98-1.49l44.49,0.62l44.49,0.36
			l88.98,0.03h355.94H2025h711.87h177.97c59.33,0.07,118.65-0.04,177.97-0.5c29.66-0.25,59.33-0.61,88.98-0.57
			c29.66-0.13,59.33-0.03,88.98,0.49c59.33,0.95,118.65,2.81,177.97,10.58c2.76,0.36,4.71,2.89,4.35,5.65
			C3452.79,3202.22,3450.96,3203.96,3448.75,3204.25z"/>
	</g>
	<g>
		<g>
			<path class="st53" d="M3282.45,2327.04l28.23,216.42c0.88,6.78-3.06,13.23-9.43,15.63c-12.27,4.65-24.62,8.66-37.14,12.07
				c-9.72,2.67-19.53,5.02-29.37,7.05c-40.55,8.39-81.89,11.63-122.36,12.74c-21.59,0.59-42.9,0.52-63.72,0.31
				c-62.54-0.71-120.59-3.17-167.59,4.49c-18.07,2.93-34.45,7.34-48.86,13.93c-8.96,4.1-19.35-1.56-20.63-11.38l-28.1-215.4
				c-0.76-5.84,1.98-11.69,7.13-14.59c16.53-9.34,36.2-15.16,58.35-18.75c46.96-7.65,105.06-5.2,167.59-4.49
				c59.85,0.69,123.83-0.18,186.08-13.05c20.34-4.18,40.47-9.65,60.25-16.78C3271.7,2312.06,3281.23,2317.75,3282.45,2327.04z"/>
		</g>
		<g class="st8">
			<path class="st54" d="M3307.71,2520.71l3.56,27.31c0.88,6.78-3.06,13.23-9.43,15.63c-12.27,4.65-24.62,8.66-37.14,12.07
				c-9.72,2.67-19.53,5.02-29.37,7.05c-40.55,8.39-81.89,11.63-122.36,12.74c-21.59,0.59-42.9,0.52-63.72,0.31
				c-62.54-0.71-120.59-3.17-167.59,4.49c-18.07,2.93-34.45,7.34-48.86,13.93c-8.96,4.1-19.35-1.56-20.63-11.38l-3.56-27.31
				c1.28,9.82,11.68,15.48,20.63,11.38c14.41-6.58,30.8-10.99,48.86-13.93c47-7.66,105.06-5.2,167.59-4.49
				c20.83,0.21,42.13,0.28,63.72-0.31c40.47-1.11,81.81-4.36,122.36-12.74c9.85-2.03,19.65-4.38,29.37-7.05
				c12.51-3.41,24.87-7.41,37.14-12.07C3304.65,2533.94,3308.6,2527.49,3307.71,2520.71z"/>
			<path class="st45" d="M2826.64,2618.1c-2.86,0-5.7-0.73-8.31-2.17c-4.79-2.65-7.94-7.3-8.66-12.75l-3.56-27.31c0,0,0,0,0,0
				c-0.18-1.37,0.79-2.62,2.16-2.8c1.32-0.17,2.62,0.79,2.8,2.15v0c0.5,3.85,2.73,7.14,6.12,9.02c3.42,1.9,7.43,2.05,11,0.41
				c13.89-6.35,30.08-10.97,49.5-14.12c39.98-6.51,88.31-5.75,139.48-4.93c9.39,0.15,18.92,0.3,28.54,0.41
				c18.84,0.19,41.14,0.31,63.63-0.31c47.63-1.31,86.37-5.34,121.92-12.69c9.77-2.01,19.59-4.37,29.21-7.01
				c12.49-3.4,24.9-7.44,36.91-11.99c5.35-2.01,8.56-7.33,7.85-12.95l0-0.03c0,0,0,0,0,0c-0.18-1.37,0.79-2.62,2.16-2.8
				c1.35-0.17,2.62,0.79,2.8,2.15v0c0,0.01,0,0.02,0,0.03l3.56,27.28c1.04,7.94-3.5,15.46-11.04,18.3
				c-12.2,4.63-24.78,8.71-37.36,12.14c-9.68,2.66-19.61,5.05-29.52,7.09c-35.84,7.41-74.86,11.47-122.79,12.8
				c-22.58,0.61-44.95,0.5-63.82,0.31c-9.66-0.11-19.21-0.26-28.63-0.41c-50.93-0.81-99.02-1.57-138.54,4.87
				c-18.96,3.08-34.74,7.57-48.23,13.73C2831.52,2617.57,2829.07,2618.1,2826.64,2618.1z M2812.64,2587.23l2,15.31
				c0.5,3.86,2.73,7.15,6.12,9.02c3.42,1.89,7.43,2.05,10.99,0.41c13.9-6.35,30.09-10.97,49.51-14.12
				c39.96-6.51,88.29-5.75,139.42-4.93c9.41,0.15,18.96,0.3,28.6,0.41c18.84,0.19,41.13,0.31,63.63-0.31
				c47.63-1.31,86.37-5.34,121.92-12.69c9.8-2.02,19.63-4.38,29.21-7.01c12.44-3.39,24.86-7.42,36.91-11.99
				c5.36-2.02,8.57-7.35,7.84-12.98l-2-15.3c-1.91,2.49-4.52,4.47-7.64,5.64c-12.15,4.61-24.73,8.7-37.36,12.14
				c-9.72,2.67-19.66,5.06-29.53,7.09c-35.84,7.41-74.86,11.48-122.79,12.8c-22.57,0.62-44.93,0.5-63.82,0.31
				c-9.64-0.11-19.17-0.26-28.57-0.41c-50.94-0.81-99.05-1.58-138.59,4.87c-18.97,3.08-34.75,7.57-48.22,13.73
				c-5.02,2.3-10.67,2.09-15.5-0.59C2814.02,2588.2,2813.31,2587.74,2812.64,2587.23z"/>
		</g>
		<g class="st5">
			<path class="st6" d="M3281.2,2333.53l2.91,22.32c-1.21-9.29-10.75-14.98-19.58-11.81c-19.79,7.12-39.92,12.6-60.25,16.78
				c-62.25,12.87-126.23,13.74-186.08,13.05c-62.54-0.71-120.64-3.16-167.59,4.49c-22.15,3.59-41.82,9.42-58.35,18.75
				c-5.15,2.9-7.9,8.75-7.13,14.59l-2.91-22.32c-0.76-5.84,1.98-11.69,7.13-14.59c16.53-9.34,36.2-15.16,58.35-18.75
				c46.96-7.65,105.06-5.2,167.59-4.49c59.85,0.69,123.83-0.18,186.08-13.05c20.34-4.18,40.47-9.65,60.25-16.78
				C3270.45,2318.54,3279.99,2324.23,3281.2,2333.53z"/>
		</g>
		<g>
			<path class="st45" d="M2826.05,2623.56c-4.53,0-9.03-1.15-13.16-3.44c-7.59-4.21-12.6-11.57-13.72-20.2l-28.11-215.42
				c-1.44-11.04,3.81-21.67,13.38-27.07c49.17-27.74,120.84-26.59,203.86-25.28c85.54,1.36,182.53,2.91,270.33-28.69
				c7.83-2.82,16.39-1.96,23.47,2.36c7.03,4.29,11.67,11.44,12.74,19.61l28.23,216.39c1.64,12.54-5.52,24.45-17.4,28.96
				c-12.43,4.72-25.31,8.89-38.3,12.42c-44.22,12.18-93.38,18.61-154.67,20.23c-31.85,0.87-62.88,0.39-92.88-0.09
				c-74.51-1.17-138.88-2.18-182.41,17.71C2833.76,2622.73,2829.9,2623.56,2826.05,2623.56z M2938,2356.61
				c-57.97,0-107.37,3.47-141.26,22.6c-0.63,0.36-0.99,1.21-0.88,2.07l28.1,215.41c0.09,0.7,0.45,1.23,1.06,1.57
				c0.43,0.24,1.15,0.45,2,0.06c48.67-22.23,115.62-21.19,193.19-19.96c29.76,0.47,60.51,0.95,91.81,0.09
				c59.23-1.57,106.49-7.72,148.76-19.35c12.25-3.32,24.35-7.25,36.01-11.68c1.01-0.38,1.62-1.35,1.49-2.35l-28.23-216.39
				c-0.09-0.66-0.42-1.16-0.98-1.51c-0.42-0.26-1.11-0.5-1.98-0.18c-92.09,33.15-191.51,31.57-279.19,30.17
				C2970.72,2356.88,2954.03,2356.61,2938,2356.61z"/>
		</g>
		<g>
			<path class="st44" d="M3234.39,2412.64l9.07,69.49c-22.4,2.92-38.19,23.42-35.27,45.81c0.19,1.49,0.46,2.92,0.83,4.35
				c-10.23,2.05-20.81,3.81-31.95,5.26c-21.39,2.79-44.71,4.47-71.21,5.17c-28.12,0.76-56.01,0.32-82.96-0.09
				c-42.13-0.66-82.06-1.27-117.75,2.82l-0.1-0.78c-2.92-22.4-23.45-38.15-45.84-35.23l-9.04-69.3
				c22.36-2.92,38.16-23.41,35.28-45.78c30.69-3.36,67.89-2.78,107.07-2.15c50.57,0.81,107.88,1.72,164.81-5.71
				c10.99-1.43,21.65-3.13,31.97-5.12C3193.97,2401.63,3213.36,2415.38,3234.39,2412.64z"/>
			<path class="st45" d="M2905.14,2547.95c-1.24,0-2.32-0.93-2.48-2.19l-0.1-0.78c-2.74-20.96-21.99-35.78-43.04-33.06
				c-0.67,0.08-1.32-0.09-1.85-0.5c-0.53-0.41-0.87-1-0.96-1.66l-9.04-69.3c-0.18-1.37,0.79-2.62,2.16-2.8
				c20.96-2.74,35.82-22.02,33.12-42.98c-0.08-0.67,0.1-1.34,0.52-1.87s1.03-0.87,1.69-0.94c30.94-3.39,68.08-2.79,107.39-2.16
				c50.48,0.8,107.68,1.71,164.45-5.69c11.07-1.45,21.77-3.16,31.82-5.09c1.37-0.24,2.61,0.58,2.91,1.89
				c4.46,19.29,22.66,31.89,42.34,29.33c1.31-0.2,2.62,0.79,2.8,2.16l9.07,69.49c0.08,0.66-0.09,1.32-0.5,1.85
				c-0.41,0.53-1,0.87-1.66,0.95c-21,2.74-35.85,22.04-33.12,43.01c0.18,1.38,0.42,2.72,0.77,4.04c0.18,0.66,0.07,1.37-0.3,1.96
				s-0.95,0.99-1.63,1.13c-10.57,2.12-21.07,3.85-32.12,5.29c-21.37,2.79-44.75,4.49-71.46,5.2c-27.88,0.75-55.52,0.33-82.25-0.08
				l-0.83-0.01c-42.04-0.66-81.74-1.28-117.43,2.8C2905.33,2547.95,2905.24,2547.95,2905.14,2547.95z M2864.53,2506.6
				c20.91,0,39.19,15.14,42.75,36.1c35.37-3.82,74.39-3.22,115.65-2.57l0.82,0.01c26.68,0.41,54.26,0.83,82.04,0.08
				c26.54-0.7,49.75-2.39,70.95-5.15c10.06-1.31,19.67-2.87,29.28-4.74c-0.12-0.68-0.23-1.37-0.32-2.06
				c-2.98-22.88,12.55-43.99,34.96-48.23l-8.44-64.67c-20.53,1.51-39.07-11.4-44.77-31.09c-9.47,1.77-19.49,3.35-29.81,4.7
				c-57.13,7.45-114.53,6.54-165.18,5.73c-38.1-0.61-74.16-1.19-104.3,1.87c1.52,21.86-13.67,41.56-35.21,45.63l8.41,64.49
				C2862.42,2506.64,2863.48,2506.6,2864.53,2506.6z"/>
		</g>
		<g class="st5">
			<path class="st6" d="M3234.39,2412.63l2.21,16.92c-21.02,2.74-40.44-11.03-45.1-31.26c-10.3,2-20.98,3.69-31.98,5.12
				c-56.93,7.43-114.25,6.53-164.8,5.69c-39.21-0.62-76.38-1.18-107.06,2.16c2.88,22.37-12.94,42.88-35.3,45.79l-2.21-16.92
				c22.36-2.92,38.17-23.43,35.3-45.79c30.68-3.34,67.86-2.75,107.07-2.12c50.54,0.79,107.86,1.69,164.79-5.73
				c11-1.43,21.67-3.12,31.98-5.12C3193.96,2401.65,3213.37,2415.37,3234.39,2412.63z"/>
		</g>
		<g>
			<path class="st45" d="M2905.13,2555.45c-4.98,0-9.28-3.7-9.91-8.75l-0.1-0.78c-2.2-16.82-17.72-28.78-34.63-26.56
				c-2.61,0.34-5.29-0.38-7.39-1.99c-2.1-1.62-3.48-4-3.82-6.63l-9.04-69.3c-0.71-5.48,3.14-10.5,8.62-11.21
				c16.87-2.2,28.82-17.71,26.65-34.58c-0.34-2.66,0.4-5.35,2.06-7.46s4.1-3.46,6.77-3.76c31.41-3.44,68.77-2.84,108.33-2.2
				c50.21,0.8,107.14,1.71,163.36-5.63c10.92-1.42,21.47-3.11,31.37-5.02c5.26-1.02,10.42,2.33,11.63,7.57
				c3.59,15.51,18.3,25.67,34.06,23.58c5.48-0.69,10.49,3.14,11.21,8.62l9.07,69.49c0.34,2.63-0.37,5.29-1.99,7.39
				c-1.62,2.1-4,3.48-6.63,3.82c-16.89,2.2-28.85,17.73-26.65,34.6c0.14,1.06,0.32,2.09,0.59,3.12c0.69,2.66,0.26,5.49-1.2,7.82
				c-1.46,2.33-3.81,3.96-6.51,4.5c-10.73,2.15-21.41,3.91-32.62,5.38c-21.64,2.82-45.26,4.54-72.24,5.25
				c-28.03,0.76-55.75,0.33-82.56-0.08l-0.82-0.01c-41.79-0.66-81.25-1.27-116.46,2.75
				C2905.9,2555.43,2905.51,2555.45,2905.13,2555.45z M2867.95,2499.21c20.76,1.4,38.76,15.49,45.06,35.38
				c34.04-3.15,71.04-2.57,110.03-1.95l0.82,0.01c26.6,0.41,54.1,0.83,81.72,0.08c26.28-0.69,49.24-2.36,70.18-5.09
				c7.56-0.98,14.85-2.11,22.09-3.41c-0.7-22.47,13.56-42.64,34.51-49.75l-6.73-51.6c-18.85-1.22-35.45-12.81-43.06-30.1
				c-7.72,1.35-15.75,2.56-23.96,3.64c-57.68,7.52-115.37,6.61-166.27,5.79c-35.07-0.56-68.4-1.1-96.72,1.22
				c-1.54,20.24-15.15,37.81-34.38,44.35L2867.95,2499.21z"/>
		</g>
		<g>
			<circle class="st53" cx="3050.98" cy="2469.01" r="48.48"/>
		</g>
		<g>
			<circle class="st53" cx="3159.98" cy="2461.66" r="19.98"/>
		</g>
		<g>
			<circle class="st53" cx="2939.89" cy="2470.22" r="19.98"/>
		</g>
	</g>
	<g>
		<g>
			<path class="st53" d="M2938.95,2013.52l65.26,208.26c2.04,6.52,8.34,10.73,15.13,10.23c13.09-0.93,25.98-2.48,38.77-4.64
				c9.94-1.66,19.83-3.64,29.62-5.94c40.32-9.42,79.21-23.83,116.4-39.82c19.84-8.53,39.15-17.54,57.96-26.48
				c56.45-26.91,108.11-53.52,153.98-66.31c17.63-4.92,34.35-7.81,50.2-7.88c9.85-0.04,16.91-9.54,13.95-18.99l-64.96-207.29
				c-1.76-5.62-6.71-9.78-12.6-10.25c-18.92-1.53-39.22,1.44-60.83,7.48c-45.83,12.78-97.53,39.4-153.98,66.31
				c-54.03,25.76-112.46,51.84-174.36,66.3c-20.21,4.75-40.78,8.23-61.73,10.08C2942.41,1995.41,2936.15,2004.58,2938.95,2013.52z"
				/>
		</g>
		<g class="st8">
			<path class="st54" d="M2997.35,2199.89l8.24,26.28c2.04,6.52,8.34,10.73,15.13,10.23c13.09-0.93,25.98-2.48,38.77-4.64
				c9.94-1.66,19.83-3.64,29.62-5.94c40.32-9.42,79.21-23.83,116.4-39.82c19.84-8.53,39.15-17.54,57.96-26.48
				c56.45-26.91,108.11-53.52,153.98-66.31c17.63-4.92,34.35-7.81,50.2-7.88c9.85-0.04,16.91-9.54,13.95-18.99l-8.24-26.28
				c2.96,9.45-4.1,18.95-13.95,18.99c-15.84,0.08-32.57,2.96-50.2,7.88c-45.87,12.79-97.53,39.4-153.98,66.31
				c-18.81,8.94-38.12,17.95-57.96,26.48c-37.19,15.99-76.07,30.4-116.4,39.82c-9.79,2.3-19.67,4.28-29.62,5.94
				c-12.79,2.16-25.68,3.72-38.77,4.64C3005.69,2210.62,2999.4,2206.42,2997.35,2199.89z"/>
			<path class="st45" d="M3019.6,2238.94c-7.5,0-14.14-4.8-16.4-12.02l-8.23-26.25c0-0.01,0-0.02-0.01-0.02v0
				c-0.41-1.32,0.32-2.72,1.64-3.13c1.33-0.41,2.72,0.32,3.13,1.64c1.69,5.41,6.7,8.9,12.56,8.48c12.85-0.91,25.82-2.46,38.54-4.62
				c9.81-1.64,19.72-3.62,29.46-5.91c35.36-8.26,72.21-20.87,115.98-39.68c20.68-8.9,40.86-18.36,57.87-26.44
				c8.7-4.15,17.29-8.29,25.76-12.37c46.08-22.22,89.61-43.21,128.63-54.08c18.94-5.29,35.57-7.9,50.85-7.98
				c3.93-0.02,7.5-1.84,9.81-4.99c2.28-3.12,2.92-7.04,1.77-10.75l0-0.01c-0.41-1.32,0.32-2.72,1.64-3.13
				c1.32-0.41,2.72,0.32,3.13,1.64l8.24,26.28c1.64,5.24,0.73,10.78-2.5,15.2c-3.25,4.45-8.29,7.01-13.82,7.04
				c-14.82,0.07-31.03,2.62-49.53,7.79c-38.58,10.75-81.92,31.65-127.8,53.77c-8.48,4.09-17.08,8.23-25.79,12.38
				c-17.06,8.11-37.29,17.6-58.05,26.52c-44.03,18.93-81.15,31.63-116.82,39.96c-9.83,2.31-19.85,4.31-29.77,5.97
				c-12.88,2.18-26.01,3.75-39.01,4.67C3020.46,2238.93,3020.03,2238.94,3019.6,2238.94z M3003.36,2210.7l4.62,14.73
				c1.69,5.41,6.78,8.9,12.56,8.48c12.85-0.91,25.81-2.46,38.54-4.62c9.82-1.64,19.73-3.62,29.46-5.91
				c35.37-8.26,72.22-20.87,115.98-39.68c20.68-8.89,40.86-18.36,57.88-26.44c8.7-4.15,17.29-8.29,25.76-12.37
				c46.08-22.22,89.61-43.21,128.63-54.08c18.94-5.29,35.57-7.9,50.85-7.98c3.93-0.02,7.5-1.84,9.81-4.99
				c2.29-3.13,2.93-7.05,1.76-10.76l-4.61-14.73c-0.4,0.74-0.84,1.46-1.35,2.16c-3.25,4.45-8.29,7.01-13.82,7.04
				c-14.82,0.07-31.03,2.62-49.53,7.79c-38.58,10.75-81.92,31.65-127.8,53.77c-8.48,4.09-17.08,8.23-25.79,12.38
				c-17.05,8.11-37.29,17.59-58.05,26.52c-44.04,18.93-81.16,31.63-116.82,39.96c-9.84,2.31-19.86,4.32-29.78,5.97
				c-12.87,2.18-26,3.75-39.01,4.67C3009.37,2212.85,3006.14,2212.16,3003.36,2210.7z"/>
		</g>
		<g class="st5">
			<path class="st6" d="M2942.81,2018.88l6.73,21.48c-2.8-8.94,3.46-18.11,12.81-18.94c20.95-1.85,41.52-5.33,61.73-10.08
				c61.9-14.47,120.33-40.54,174.36-66.3c56.45-26.91,108.15-53.53,153.98-66.31c21.61-6.04,41.91-9.01,60.83-7.48
				c5.89,0.47,10.84,4.62,12.6,10.25l-6.73-21.48c-1.76-5.62-6.71-9.78-12.6-10.25c-18.92-1.53-39.22,1.44-60.83,7.48
				c-45.83,12.78-97.53,39.4-153.98,66.31c-54.03,25.76-112.46,51.84-174.36,66.3c-20.21,4.75-40.78,8.23-61.73,10.08
				C2946.26,2000.77,2940,2009.94,2942.81,2018.88z"/>
		</g>
		<g>
			<path class="st45" d="M3018.27,2244.56c-11.89,0-22.41-7.61-25.99-19.05l-65.26-208.24v0c-2.47-7.87-1.25-16.31,3.33-23.15
				c4.61-6.89,12.01-11.26,20.3-11.99c92.94-8.19,180.3-50.32,257.38-87.49c74.77-36.06,139.38-67.19,195.62-62.67
				c10.96,0.88,20.19,8.32,23.52,18.95l64.96,207.3c2.6,8.3,1.15,17.08-3.97,24.09c-5.15,7.04-13.11,11.1-21.85,11.15
				c-47.86,0.24-105.85,28.18-172.99,60.54c-27.04,13.03-55,26.51-84.26,39.09c-56.29,24.27-103.61,39.07-148.9,46.6
				c-13.22,2.25-26.67,3.87-39.92,4.8C3019.58,2244.53,3018.92,2244.56,3018.27,2244.56z M2950.88,2009.8l65.26,208.24
				c0.3,0.97,1.35,1.55,2.34,1.51c12.44-0.88,25.07-2.4,37.54-4.52c43.29-7.19,88.76-21.46,143.16-44.91
				c28.77-12.37,56.49-25.73,83.29-38.65c69.87-33.67,130.21-62.75,183.72-63.02c0.94,0,1.5-0.49,1.79-0.9
				c0.42-0.56,0.51-1.19,0.3-1.87l-64.96-207.3c-0.26-0.83-0.94-1.45-1.67-1.51c-49.51-3.94-111.26,25.79-182.76,60.27
				c-79.01,38.1-168.56,81.28-266.05,89.87c-0.92,0.08-1.45,0.58-1.72,0.99C2950.77,2008.57,2950.68,2009.16,2950.88,2009.8
				L2950.88,2009.8z"/>
		</g>
		<g>
			<path class="st44" d="M3018.51,2071.02l20.96,66.87c21.55-6.75,44.5,5.21,51.25,26.76c0.45,1.43,0.81,2.85,1.07,4.3
				c10.15-2.43,20.48-5.28,31.21-8.64c20.59-6.45,42.45-14.72,66.8-25.21c25.84-11.12,50.97-23.23,75.25-34.93
				c37.96-18.29,73.94-35.61,108.05-46.89l-0.24-0.75c-6.75-21.55,5.26-44.47,26.81-51.22l-20.9-66.69
				c-21.52,6.74-44.46-5.22-51.24-26.73c-29.26,9.84-62.78,25.99-98.07,43.02c-45.56,21.97-97.18,46.86-151.98,64.03
				c-10.58,3.32-20.96,6.26-31.16,8.78C3050.57,2044.06,3038.74,2064.68,3018.51,2071.02z"/>
			<path class="st45" d="M3091.79,2171.45c-0.48,0-0.96-0.14-1.37-0.41c-0.58-0.38-0.97-0.98-1.09-1.66
				c-0.23-1.34-0.58-2.65-0.99-3.98c-3.07-9.79-9.76-17.79-18.85-22.53s-19.48-5.67-29.27-2.6c-1.31,0.42-2.71-0.32-3.13-1.64
				l-20.96-66.87c-0.41-1.32,0.32-2.72,1.64-3.13c18.94-5.94,30.16-25.02,26.11-44.4c-0.28-1.32,0.54-2.61,1.85-2.94
				c9.92-2.46,20.35-5.4,31.02-8.74c54.66-17.13,106.18-41.98,151.64-63.9c35.42-17.08,68.87-33.22,98.36-43.14
				c0.63-0.21,1.33-0.16,1.93,0.14s1.05,0.84,1.25,1.48c6.36,20.16,27.96,31.41,48.11,25.1c1.31-0.41,2.72,0.32,3.13,1.64
				l20.9,66.69c0.41,1.32-0.32,2.72-1.64,3.13c-9.79,3.07-17.8,9.76-22.55,18.84c-4.75,9.08-5.68,19.47-2.61,29.26l0.23,0.75
				c0.41,1.3-0.31,2.69-1.6,3.12c-34.11,11.28-69.88,28.52-107.75,46.77l-0.72,0.35c-24.09,11.6-49,23.59-74.63,34.62
				c-24.57,10.59-46.49,18.86-67.04,25.3c-10.65,3.34-20.91,6.18-31.37,8.69C3092.18,2171.43,3091.98,2171.45,3091.79,2171.45z
				 M3051.68,2133.52c18.47,0,35.62,11.88,41.43,30.4c0.21,0.67,0.4,1.34,0.58,2.01c9.5-2.33,18.87-4.96,28.56-7.99
				c20.38-6.38,42.14-14.6,66.55-25.12c25.54-10.99,50.4-22.96,74.44-34.54l0.72-0.35c37.17-17.92,72.32-34.86,106.04-46.24
				c-2.89-10.58-1.69-21.7,3.43-31.47c4.99-9.52,13.13-16.72,23.12-20.47l-19.45-62.06c-21.23,5.35-43.33-6.14-51.12-26.63
				c-28.63,9.87-61.11,25.54-95.44,42.1c-45.61,22-97.3,46.93-152.31,64.17c-9.95,3.12-19.7,5.89-29.03,8.25
				c3.1,20.26-8.35,39.79-27.57,47.01l19.51,62.23C3044.65,2133.94,3048.19,2133.52,3051.68,2133.52z"/>
		</g>
		<g class="st5">
			<path class="st6" d="M3018.51,2071.02l5.1,16.28c20.23-6.34,32.07-26.99,27.8-47.31c10.19-2.51,20.59-5.47,31.17-8.78
				c54.79-17.17,106.43-42.06,151.95-64.04c35.32-17.03,68.82-33.15,98.07-43c6.78,21.51,29.75,33.48,51.26,26.74l-5.1-16.28
				c-21.52,6.74-44.48-5.23-51.27-26.74c-29.25,9.85-62.74,26.01-98.06,43.04c-45.53,21.94-97.17,46.83-151.96,64
				c-10.58,3.32-20.98,6.27-31.17,8.78C3050.59,2044.06,3038.74,2064.68,3018.51,2071.02z"/>
		</g>
		<g>
			<path class="st45" d="M3091.79,2178.95c-1.93,0-3.84-0.56-5.49-1.64c-2.31-1.52-3.89-3.92-4.36-6.64
				c-0.18-1.02-0.44-2.01-0.76-3.02c-5.09-16.25-22.45-25.32-38.72-20.22c-5.24,1.65-10.88-1.28-12.53-6.55l-20.96-66.87
				c-1.66-5.27,1.28-10.88,6.55-12.53c15.24-4.78,24.27-20.12,21.01-35.71c-1.1-5.27,2.16-10.46,7.38-11.75
				c9.77-2.42,20.06-5.32,30.58-8.62c54.14-16.97,105.39-41.68,150.62-63.49c35.64-17.19,69.3-33.43,99.23-43.49
				c2.55-0.86,5.33-0.65,7.72,0.56c2.39,1.22,4.2,3.34,5,5.91c5.11,16.22,22.48,25.28,38.72,20.19c5.25-1.64,10.88,1.28,12.53,6.55
				l20.9,66.69c1.65,5.27-1.28,10.88-6.55,12.53c-7.88,2.47-14.33,7.85-18.15,15.16c-3.82,7.3-4.57,15.66-2.1,23.53l0.24,0.77
				c1.63,5.21-1.23,10.76-6.41,12.47c-33.65,11.12-69.2,28.26-106.85,46.4l-0.72,0.35c-24.16,11.63-49.15,23.66-74.93,34.76
				c-24.8,10.69-46.97,19.05-67.76,25.57c-10.82,3.39-21.24,6.27-31.86,8.82C3093.35,2178.86,3092.57,2178.95,3091.79,2178.95z
				 M3051.77,2125.99c8.1,0,16.12,1.95,23.5,5.8c10.56,5.51,18.68,14.33,23.26,25.16c7.1-1.86,14.19-3.9,21.47-6.18
				c20.13-6.3,41.66-14.43,65.83-24.85c25.4-10.93,50.19-22.86,74.16-34.41l0.72-0.34c35.11-16.93,68.45-32.99,100.67-44.43
				c-1.33-10.25,0.51-20.65,5.41-30c4.73-9.03,11.88-16.27,20.64-21.05l-15.5-49.48c-20.26,2.14-39.94-8.09-49.83-25.8
				c-26.67,9.79-56.68,24.27-88.29,39.51c-45.84,22.11-97.8,47.17-153.33,64.57c-7.91,2.48-15.71,4.75-23.28,6.77
				c0.36,18.88-9.84,36.37-26.44,45.4l15.56,49.65C3048.13,2126.09,3049.96,2125.99,3051.77,2125.99z"/>
		</g>
		<g>
			<circle class="st53" cx="3208.64" cy="2045.16" r="48.48"/>
		</g>
		<g>
			<circle class="st53" cx="3106.63" cy="2084.26" r="19.98"/>
		</g>
		<g>
			<circle class="st53" cx="3309.96" cy="1999.6" r="19.98"/>
		</g>
	</g>
	<g>
		<g>
			<path class="st53" d="M828.75,2517.73l89.83,198.9c2.81,6.23,9.57,9.65,16.25,8.33c12.88-2.5,25.5-5.59,37.93-9.27
				c9.67-2.84,19.25-6,28.69-9.46c38.9-14.2,75.76-33.19,110.76-53.53c18.67-10.86,36.75-22.12,54.36-33.26
				c52.81-33.5,100.89-66.13,144.89-84.34c16.91-7.01,33.16-11.88,48.88-13.86c9.77-1.23,15.64-11.51,11.56-20.53l-89.41-197.97
				c-2.43-5.37-7.84-8.9-13.74-8.66c-18.97,0.75-38.76,6.15-59.49,14.74c-43.96,18.19-92.08,50.84-144.89,84.34
				c-50.54,32.07-105.41,64.99-165.12,86.79c-19.5,7.14-39.49,13.08-60.07,17.43C830.01,2499.33,824.9,2509.19,828.75,2517.73z"/>
		</g>
		<g class="st8">
			<path class="st54" d="M909.14,2695.73l11.34,25.1c2.81,6.23,9.57,9.65,16.25,8.33c12.88-2.5,25.5-5.59,37.93-9.27
				c9.67-2.84,19.25-6,28.69-9.46c38.9-14.2,75.76-33.19,110.76-53.53c18.67-10.86,36.75-22.12,54.36-33.26
				c52.81-33.51,100.89-66.13,144.89-84.34c16.91-7.01,33.16-11.88,48.88-13.86c9.77-1.23,15.64-11.51,11.56-20.53l-11.34-25.1
				c4.08,9.03-1.79,19.31-11.56,20.53c-15.72,1.98-31.98,6.85-48.88,13.86c-44,18.21-92.08,50.84-144.89,84.34
				c-17.6,11.14-35.68,22.4-54.36,33.26c-35,20.34-71.87,39.33-110.76,53.53c-9.44,3.46-19.02,6.61-28.69,9.45
				c-12.44,3.69-25.05,6.78-37.93,9.27C918.71,2705.37,911.96,2701.96,909.14,2695.73z"/>
			<path class="st45" d="M933.83,2731.95c-6.67,0-12.81-3.84-15.63-10.09l-11.34-25.1c0,0,0,0,0,0c-0.57-1.26,0-2.74,1.25-3.31
				c1.27-0.57,2.73-0.01,3.31,1.25v0c2.33,5.16,7.86,8.01,13.49,6.91c12.65-2.45,25.33-5.55,37.71-9.22
				c9.59-2.82,19.19-5.98,28.54-9.41c34.11-12.45,69.18-29.4,110.37-53.34c19.57-11.38,38.42-23.18,54.27-33.21
				c8.15-5.17,16.2-10.33,24.14-15.41c43.06-27.59,83.74-53.65,121.14-69.13c18.18-7.53,34.38-12.12,49.53-14.03
				c3.89-0.49,7.22-2.72,9.13-6.13c1.89-3.38,2.07-7.35,0.46-10.9c-0.57-1.26,0-2.74,1.25-3.31c1.26-0.57,2.73-0.01,3.31,1.25
				l11.33,25.1c2.26,5,2.02,10.62-0.66,15.4c-2.7,4.81-7.39,7.96-12.87,8.65c-14.7,1.85-30.48,6.33-48.24,13.69
				c-37.02,15.32-77.53,41.28-120.43,68.77c-7.92,5.07-15.94,10.22-24.08,15.38c-15.97,10.1-34.93,21.96-54.44,33.31
				c-41.45,24.09-76.77,41.16-111.16,53.72c-9.47,3.47-19.17,6.67-28.85,9.5c-12.5,3.71-25.34,6.85-38.16,9.33
				C936.08,2731.84,934.94,2731.95,933.83,2731.95z M916.41,2705.74l6.35,14.06c2.33,5.17,7.84,8.01,13.49,6.91
				c12.67-2.46,25.35-5.56,37.7-9.22c9.58-2.81,19.17-5.98,28.54-9.41c34.11-12.45,69.18-29.4,110.37-53.34
				c19.44-11.3,38.34-23.13,54.27-33.21c8.13-5.16,16.15-10.3,24.06-15.37c43.09-27.61,83.78-53.69,121.21-69.18
				c18.18-7.53,34.38-12.12,49.53-14.03c3.9-0.49,7.22-2.72,9.14-6.13c1.89-3.38,2.06-7.35,0.46-10.89l-6.35-14.07
				c-0.3,0.79-0.66,1.56-1.08,2.31c-2.7,4.8-7.38,7.95-12.87,8.64c-14.7,1.85-30.48,6.33-48.24,13.69
				c-37,15.31-77.49,41.25-120.36,68.72c-7.94,5.09-15.99,10.25-24.16,15.43c-15.9,10.06-34.79,21.89-54.44,33.31
				c-41.45,24.09-76.77,41.16-111.16,53.72c-9.45,3.46-19.15,6.66-28.85,9.5c-12.51,3.71-25.36,6.85-38.16,9.33
				C922.61,2707.16,919.33,2706.84,916.41,2705.74z"/>
		</g>
		<g class="st5">
			<path class="st6" d="M833.23,2522.59l9.26,20.51c-3.86-8.54,1.26-18.4,10.44-20.34c20.58-4.35,40.57-10.29,60.07-17.43
				c59.71-21.8,114.58-54.71,165.12-86.79c52.81-33.5,100.93-66.15,144.89-84.34c20.72-8.6,40.52-13.99,59.49-14.74
				c5.91-0.24,11.32,3.29,13.74,8.66l-9.26-20.51c-2.43-5.37-7.84-8.9-13.74-8.66c-18.97,0.75-38.76,6.15-59.49,14.74
				c-43.96,18.19-92.08,50.84-144.89,84.34c-50.54,32.07-105.41,64.99-165.12,86.79c-19.5,7.14-39.49,13.08-60.07,17.43
				C834.48,2504.19,829.37,2514.05,833.23,2522.59z"/>
		</g>
		<g>
			<path class="st45" d="M931.96,2737.75c-10.57,0-20.3-6.09-24.77-15.98l-89.82-198.89v0.01c-3.39-7.51-3.21-16.04,0.51-23.38
				c3.75-7.4,10.57-12.64,18.72-14.36c91.28-19.3,172.94-71.63,245-117.8c69.9-44.79,130.26-83.47,186.67-85.74
				c11-0.4,21.04,5.83,25.62,15.98l89.42,197.98c3.58,7.93,3.2,16.82-1.05,24.4c-4.26,7.61-11.68,12.6-20.35,13.69
				c-47.48,5.99-101.68,40.7-164.44,80.9c-25.28,16.19-51.42,32.93-78.96,48.94c-52.96,30.85-98.15,51.25-142.22,64.17
				c-12.85,3.82-26.01,7.05-39.06,9.57C935.47,2737.59,933.7,2737.75,931.96,2737.75z M1269.34,2306.59c-0.02,0-0.04,0-0.06,0
				c-49.64,2-107.36,38.98-174.19,81.81c-73.86,47.32-157.56,100.96-253.31,121.21c-0.91,0.19-1.37,0.76-1.59,1.2
				c-0.3,0.58-0.31,1.18-0.03,1.78c0,0,0,0,0,0.01l89.82,198.89c0.42,0.92,1.45,1.42,2.51,1.22c12.25-2.37,24.61-5.4,36.72-9
				c42.12-12.35,85.55-31.99,136.72-61.8c27.08-15.75,52.99-32.34,78.05-48.39c65.31-41.83,121.71-77.95,174.8-84.65
				c0.93-0.12,1.42-0.67,1.67-1.1c0.34-0.61,0.37-1.25,0.07-1.89l-89.42-197.98C1270.76,2307.11,1270.04,2306.59,1269.34,2306.59z"
				/>
		</g>
		<g>
			<path class="st44" d="M914.66,2565.25l28.85,63.87c20.58-9.3,44.8-0.18,54.1,20.41c0.62,1.37,1.15,2.73,1.58,4.14
				c9.78-3.64,19.7-7.71,29.94-12.33c19.66-8.88,40.37-19.71,63.28-33.06c24.31-14.15,47.81-29.19,70.51-43.72
				c35.48-22.72,69.12-44.25,101.62-59.54l-0.32-0.72c-9.3-20.58-0.13-44.78,20.46-54.08l-28.77-63.7
				c-20.55,9.28-44.77,0.16-54.08-20.37c-27.87,13.28-59.2,33.35-92.19,54.5c-42.58,27.29-90.84,58.21-143.17,81.84
				c-10.1,4.56-20.06,8.73-29.88,12.47C943.24,2534.62,933.98,2556.52,914.66,2565.25z"/>
			<path class="st45" d="M999.18,2656.16c-0.38,0-0.76-0.09-1.11-0.26c-0.62-0.31-1.08-0.85-1.28-1.51
				c-0.4-1.31-0.89-2.57-1.46-3.84c-8.71-19.28-31.5-27.87-50.79-19.16c-1.25,0.57-2.74,0.01-3.31-1.25l-28.85-63.87
				c-0.27-0.61-0.29-1.29-0.06-1.91s0.71-1.12,1.31-1.39c18.09-8.17,26.93-28.47,20.58-47.22c-0.43-1.27,0.22-2.66,1.48-3.14
				c9.5-3.62,19.51-7.79,29.74-12.41c52.18-23.57,100.35-54.44,142.85-81.67c33.1-21.22,64.36-41.25,92.47-54.65
				c0.61-0.29,1.3-0.32,1.93-0.09c0.63,0.23,1.14,0.71,1.42,1.32c8.73,19.25,31.51,27.82,50.77,19.13c1.27-0.57,2.74-0.01,3.31,1.25
				l28.77,63.69c0.27,0.61,0.29,1.29,0.06,1.91s-0.71,1.12-1.31,1.39c-9.35,4.22-16.5,11.83-20.13,21.41
				c-3.63,9.59-3.3,20.01,0.92,29.36l0.32,0.73c0.56,1.24,0.02,2.71-1.22,3.29c-32.46,15.27-65.92,36.7-101.34,59.38l-0.65,0.42
				c-22.52,14.42-45.82,29.33-69.95,43.36c-23.07,13.44-43.84,24.3-63.51,33.18c-10.15,4.58-20,8.64-30.1,12.4
				C999.77,2656.1,999.47,2656.16,999.18,2656.16z M960.29,2622.99c16.54,0,32.36,9.49,39.59,25.5c0.29,0.64,0.56,1.28,0.81,1.93
				c9.17-3.46,18.15-7.19,27.4-11.37c19.51-8.81,40.13-19.59,63.05-32.94c24.04-13.98,47.29-28.86,69.77-43.25l0.65-0.41
				c34.77-22.27,67.66-43.33,99.72-58.66c-4.14-10.16-4.29-21.34-0.38-31.65c3.8-10.05,11.03-18.17,20.49-23.11l-26.77-59.27
				c-20.46,7.87-43.75-0.89-53.95-20.29c-27.26,13.25-57.61,32.71-89.69,53.27c-42.64,27.33-90.98,58.3-143.49,82.02
				c-9.54,4.31-18.89,8.23-27.83,11.68c5.52,19.74-3.51,40.5-21.72,49.99l26.85,59.44C949.86,2623.92,955.11,2622.99,960.29,2622.99
				z"/>
		</g>
		<g class="st5">
			<path class="st6" d="M914.65,2565.24l7.02,15.55c19.32-8.73,28.59-30.65,21.91-50.31c9.82-3.72,19.78-7.9,29.89-12.47
				c52.33-23.63,100.6-54.55,143.15-81.85c33.02-21.15,64.34-41.18,92.19-54.48c9.32,20.53,33.56,29.66,54.11,20.38l-7.02-15.55
				c-20.55,9.28-44.79,0.16-54.11-20.38c-27.85,13.3-59.16,33.36-92.17,54.52c-42.56,27.26-90.84,58.18-143.16,81.81
				c-10.11,4.56-20.07,8.75-29.89,12.47C943.26,2534.63,933.97,2556.51,914.65,2565.24z"/>
		</g>
		<g>
			<path class="st45" d="M999.18,2663.66c-1.52,0-3.04-0.35-4.43-1.04c-2.47-1.22-4.33-3.41-5.13-6.04c-0.31-1-0.69-1.97-1.13-2.94
				c-7.01-15.51-25.33-22.41-40.86-15.4c-5.04,2.27-10.96,0.04-13.23-5l-28.85-63.87c-1.09-2.42-1.18-5.17-0.24-7.65
				c0.94-2.48,2.82-4.49,5.24-5.58c14.55-6.57,21.67-22.9,16.56-37.98c-1.72-5.1,0.89-10.64,5.92-12.55
				c9.36-3.56,19.23-7.68,29.32-12.23c51.68-23.34,99.6-54.05,141.89-81.15c33.3-21.34,64.76-41.51,93.29-55.1
				c2.43-1.15,5.21-1.29,7.73-0.37c2.52,0.92,4.57,2.82,5.68,5.26c7.02,15.49,25.35,22.4,40.85,15.39c5.04-2.27,10.95-0.04,13.23,5
				l28.77,63.7c1.09,2.42,1.18,5.17,0.24,7.65c-0.94,2.48-2.82,4.49-5.24,5.58c-7.52,3.4-13.28,9.52-16.2,17.23
				s-2.66,16.1,0.74,23.62l0.33,0.74c2.24,4.98,0.07,10.82-4.86,13.14c-32.02,15.07-65.28,36.36-100.49,58.91l-0.65,0.42
				c-22.59,14.46-45.95,29.41-70.21,43.53c-23.29,13.57-44.29,24.54-64.19,33.53c-10.31,4.66-20.31,8.77-30.57,12.59
				C1001.54,2663.45,1000.35,2663.66,999.18,2663.66z M960.28,2615.49c17.8,0,34.9,9.38,44.15,25.45c6.84-2.7,13.63-5.58,20.58-8.72
				c19.27-8.7,39.67-19.36,62.36-32.59c23.9-13.91,47.08-28.74,69.5-43.09l0.65-0.42c32.85-21.04,64.02-41,94.6-56.22
				c-2.54-10.01-1.97-20.56,1.76-30.43c3.61-9.53,9.84-17.59,17.96-23.38l-21.35-47.26c-19.79,4.58-40.62-3.22-52.57-19.62
				c-25.32,12.93-53.37,30.91-82.9,49.84c-42.86,27.47-91.44,58.6-144.45,82.54c-7.58,3.42-15.05,6.61-22.29,9.51
				c2.62,18.7-5.4,37.29-20.79,48.25l21.42,47.42C952.68,2615.91,956.5,2615.49,960.28,2615.49z"/>
		</g>
		<g>
			<circle class="st53" cx="1100.29" cy="2516.71" r="48.48"/>
		</g>
		<g>
			<circle class="st53" cx="1003.73" cy="2567.79" r="19.98"/>
		</g>
		<g>
			<circle class="st53" cx="1195.4" cy="2459.3" r="19.98"/>
		</g>
	</g>
	<g>
		<g>
			<path class="st53" d="M1094.7,2090.52l-65.26,208.26c-2.04,6.52-8.34,10.73-15.13,10.23c-13.09-0.93-25.98-2.48-38.77-4.64
				c-9.94-1.66-19.83-3.64-29.62-5.94c-40.32-9.42-79.21-23.83-116.4-39.82c-19.84-8.53-39.15-17.54-57.96-26.48
				c-56.45-26.91-108.11-53.52-153.98-66.31c-17.63-4.92-34.35-7.81-50.2-7.88c-9.85-0.04-16.91-9.54-13.95-18.99l64.96-207.29
				c1.76-5.62,6.71-9.78,12.6-10.25c18.92-1.53,39.22,1.44,60.83,7.48c45.83,12.78,97.53,39.4,153.98,66.31
				c54.03,25.76,112.46,51.84,174.36,66.3c20.21,4.75,40.78,8.23,61.73,10.08C1091.24,2072.41,1097.5,2081.58,1094.7,2090.52z"/>
		</g>
		<g class="st8">
			<path class="st45" d="M1036.29,2276.9l-8.24,26.28c-2.04,6.52-8.34,10.73-15.13,10.23c-13.09-0.93-25.98-2.48-38.77-4.64
				c-9.94-1.66-19.83-3.64-29.62-5.94c-40.32-9.42-79.21-23.83-116.4-39.82c-19.84-8.53-39.15-17.54-57.96-26.48
				c-56.45-26.91-108.11-53.52-153.98-66.31c-17.63-4.92-34.35-7.81-50.2-7.88c-9.85-0.04-16.91-9.54-13.95-18.99l8.24-26.28
				c-2.96,9.45,4.1,18.95,13.95,18.99c15.84,0.08,32.57,2.96,50.2,7.88c45.87,12.79,97.53,39.4,153.98,66.31
				c18.81,8.94,38.12,17.95,57.96,26.48c37.19,15.99,76.07,30.4,116.4,39.82c9.79,2.3,19.67,4.28,29.62,5.94
				c12.79,2.16,25.68,3.72,38.77,4.64C1027.96,2287.62,1034.25,2283.42,1036.29,2276.9z"/>
		</g>
		<g class="st5">
			<path class="st6" d="M1090.84,2095.88l-6.73,21.48c2.8-8.94-3.46-18.11-12.81-18.94c-20.95-1.85-41.52-5.33-61.73-10.08
				c-61.9-14.47-120.33-40.54-174.36-66.3c-56.45-26.91-108.15-53.53-153.98-66.31c-21.61-6.04-41.91-9.01-60.83-7.48
				c-5.89,0.47-10.84,4.62-12.6,10.25l6.73-21.48c1.76-5.62,6.71-9.78,12.6-10.25c18.92-1.53,39.22,1.44,60.83,7.48
				c45.83,12.78,97.53,39.4,153.98,66.31c54.03,25.76,112.46,51.84,174.36,66.3c20.21,4.75,40.78,8.23,61.73,10.08
				C1087.38,2077.77,1093.64,2086.94,1090.84,2095.88z"/>
		</g>
		<g>
			<path class="st45" d="M1015.38,2321.56c-0.66,0-1.32-0.02-1.98-0.07c-13.24-0.94-26.69-2.55-39.97-4.81
				c-45.25-7.52-92.57-22.33-148.87-46.6c-29.25-12.58-57.22-26.05-84.25-39.08c-67.14-32.36-125.13-60.3-172.99-60.54
				c-8.74-0.04-16.7-4.11-21.85-11.15c-5.13-7.01-6.57-15.79-3.97-24.09l64.96-207.3c3.33-10.63,12.56-18.06,23.52-18.95
				c56.3-4.53,120.86,26.61,195.63,62.67c77.08,37.17,164.44,79.3,257.38,87.49c8.29,0.73,15.69,5.1,20.3,11.99
				c4.58,6.85,5.8,15.29,3.33,23.15v0l-65.26,208.24C1037.78,2313.96,1027.26,2321.56,1015.38,2321.56z M641.12,1933.53
				c-3.09,0-6.13,0.12-9.14,0.36c-0.72,0.06-1.41,0.68-1.67,1.5l-64.96,207.3c-0.21,0.68-0.11,1.31,0.3,1.87
				c0.3,0.41,0.85,0.89,1.79,0.9c53.5,0.26,113.84,29.34,183.72,63.02c26.8,12.92,54.51,26.27,83.28,38.64
				c54.4,23.45,99.88,37.72,143.13,44.91c12.52,2.13,25.15,3.65,37.59,4.53c1.01,0.02,2.04-0.54,2.34-1.51l65.26-208.24v0
				c0.2-0.63,0.11-1.23-0.25-1.78c-0.27-0.41-0.79-0.91-1.72-1c-97.49-8.59-187.04-51.77-266.04-89.87
				C747.59,1961.77,689.02,1933.53,641.12,1933.53z M1094.69,2090.54h0.05H1094.69z"/>
		</g>
		<g>
			<path class="st44" d="M1015.13,2148.02l-20.96,66.87c-21.55-6.75-44.5,5.21-51.25,26.76c-0.45,1.43-0.81,2.85-1.07,4.3
				c-10.15-2.43-20.48-5.28-31.21-8.64c-20.59-6.45-42.45-14.72-66.8-25.21c-25.84-11.12-50.97-23.23-75.25-34.93
				c-37.96-18.29-73.94-35.61-108.05-46.89l0.24-0.75c6.75-21.55-5.26-44.47-26.81-51.23l20.9-66.69
				c21.52,6.74,44.46-5.22,51.24-26.73c29.26,9.84,62.78,25.99,98.07,43.02c45.56,21.97,97.18,46.86,151.97,64.03
				c10.58,3.32,20.96,6.26,31.16,8.78C983.07,2121.06,994.9,2141.68,1015.13,2148.02z"/>
			<path class="st45" d="M941.85,2248.46c-0.2,0-0.39-0.02-0.58-0.07c-10.48-2.51-20.74-5.36-31.37-8.69
				c-20.58-6.45-42.51-14.72-67.04-25.3c-25.59-11.01-50.45-22.98-74.5-34.56l-0.84-0.41c-37.88-18.25-73.65-35.5-107.75-46.77
				c-1.29-0.43-2.01-1.82-1.6-3.12l0.23-0.75c6.33-20.19-4.97-41.76-25.17-48.09c-1.32-0.41-2.05-1.82-1.64-3.13l20.9-66.69
				c0.2-0.63,0.64-1.16,1.23-1.47c0.59-0.31,1.27-0.37,1.9-0.17c20.19,6.32,41.75-4.94,48.11-25.1c0.2-0.64,0.65-1.17,1.25-1.48
				c0.6-0.31,1.29-0.35,1.93-0.14c29.51,9.92,62.95,26.05,98.36,43.14c45.47,21.93,97.01,46.78,151.64,63.9
				c10.68,3.35,21.12,6.29,31.02,8.74c1.31,0.32,2.12,1.62,1.85,2.94c-4.05,19.38,7.17,38.46,26.11,44.4
				c0.63,0.2,1.16,0.64,1.47,1.23c0.31,0.59,0.37,1.27,0.17,1.9l-20.96,66.87c-0.42,1.32-1.82,2.05-3.13,1.64
				c-9.79-3.07-20.19-2.14-29.27,2.6c-9.09,4.74-15.78,12.74-18.84,22.53c-0.42,1.33-0.76,2.64-1,3.99
				c-0.12,0.68-0.52,1.27-1.09,1.65C942.81,2248.32,942.34,2248.46,941.85,2248.46z M663.65,2128.68
				c33.7,11.38,68.86,28.33,106.04,46.24l0.84,0.41c24,11.56,48.82,23.51,74.31,34.48c24.38,10.51,46.14,18.73,66.56,25.12
				c9.68,3.03,19.05,5.66,28.56,7.99c0.18-0.67,0.37-1.34,0.58-2.01c6.89-22.01,29.88-34.64,51.97-29.08l19.51-62.23
				c-19.22-7.23-30.67-26.75-27.57-47.01c-9.32-2.36-19.07-5.13-29.03-8.25c-54.98-17.23-106.69-42.16-152.31-64.17
				c-34.33-16.56-66.8-32.23-95.45-42.1c-7.79,20.49-29.85,31.98-51.12,26.63l-19.45,62.06
				C657.92,2084.6,669.5,2107.14,663.65,2128.68z"/>
		</g>
		<g class="st5">
			<path class="st6" d="M1015.14,2148.02l-5.1,16.28c-20.23-6.34-32.07-26.99-27.8-47.31c-10.19-2.51-20.59-5.47-31.17-8.78
				c-54.79-17.17-106.43-42.06-151.95-64.04c-35.32-17.03-68.82-33.15-98.07-43c-6.78,21.51-29.75,33.48-51.26,26.74l5.1-16.28
				c21.52,6.74,44.48-5.23,51.26-26.74c29.25,9.85,62.74,26.01,98.06,43.04c45.53,21.94,97.17,46.83,151.96,64
				c10.58,3.32,20.98,6.27,31.17,8.78C983.06,2121.07,994.91,2141.68,1015.14,2148.02z"/>
		</g>
		<g>
			<path class="st45" d="M941.85,2255.96c-0.78,0-1.56-0.09-2.33-0.28c-10.65-2.55-21.07-5.44-31.86-8.82
				c-20.83-6.53-42.99-14.89-67.76-25.57c-25.73-11.07-50.67-23.08-74.79-34.69l-0.84-0.41c-37.66-18.14-73.22-35.28-106.85-46.4
				c-5.19-1.71-8.03-7.27-6.41-12.48l0.23-0.75c5.09-16.25-3.99-33.61-20.25-38.7c-5.27-1.65-8.2-7.26-6.55-12.53l20.9-66.69
				c0.79-2.53,2.56-4.64,4.91-5.87c2.35-1.23,5.08-1.48,7.63-0.68c16.21,5.09,33.59-3.97,38.71-20.19c0.81-2.56,2.61-4.69,5-5.91
				c2.4-1.22,5.18-1.42,7.72-0.57c29.95,10.07,63.6,26.3,99.23,43.49c45.24,21.81,96.51,46.54,150.62,63.49
				c10.54,3.3,20.83,6.2,30.58,8.62c5.22,1.3,8.48,6.49,7.38,11.76c-3.26,15.58,5.77,30.93,21.01,35.71
				c2.53,0.79,4.64,2.56,5.87,4.91c1.23,2.35,1.47,5.09,0.68,7.62l-20.96,66.87c-1.66,5.27-7.29,8.19-12.53,6.55
				c-16.27-5.1-33.63,3.97-38.72,20.21c-0.32,1.02-0.59,2.03-0.77,3.06c-0.48,2.71-2.07,5.1-4.37,6.61
				C945.69,2255.4,943.78,2255.96,941.85,2255.96z M672.26,2123.73c32.22,11.44,65.55,27.51,100.68,44.44l0.84,0.41
				c23.93,11.52,48.68,23.44,74.02,34.35c24.14,10.41,45.67,18.53,65.83,24.85c7.27,2.28,14.37,4.32,21.48,6.18
				c8.78-20.69,30.18-33.02,52.21-30.65l15.56-49.66c-16.6-9.03-26.8-26.51-26.44-45.4c-7.56-2.02-15.36-4.28-23.28-6.77
				c-55.5-17.39-107.47-42.46-153.33-64.57c-31.6-15.24-61.61-29.72-88.29-39.51c-9.89,17.72-29.6,27.95-49.83,25.81l-15.51,49.49
				C664.47,2082.69,674.89,2103.05,672.26,2123.73z"/>
		</g>
		<g>
			<circle class="st53" cx="825.01" cy="2122.16" r="48.48"/>
		</g>
		<g>
			<circle class="st53" cx="927.01" cy="2161.26" r="19.98"/>
		</g>
		<g>
			<circle class="st53" cx="723.68" cy="2076.6" r="19.98"/>
		</g>
	</g>
	<g>
		<g>
			<g>
				<path class="st55" d="M2276.49,1403.1c2.08,5.22,2.1,11.33-0.5,16.9l-105.16,226.31c-5.78,12.41-21.43,16.12-32.41,7.95
					c-68.38-50.86-172.43-55.97-253.93-49.83c-19.09,1.4-36.96,3.46-52.81,5.68c-20.96,2.93-32.89-23.08-17.13-37.2
					c240.7-215.48,394.04-199.14,448.54-182.31C2269.53,1392.58,2274.25,1397.35,2276.49,1403.1z"/>
			</g>
		</g>
		<g class="st17">
			<g>
				<path class="st6" d="M2272.51,1397.43c-220.3-1.87-389.24,155.61-404.03,170.64c-14.22,14.47,0.62,25.21,12.02,30.7
					c-19.09,1.4-36.96,3.46-52.81,5.68c-20.96,2.93-32.89-23.08-17.13-37.2c240.7-215.48,394.04-199.14,448.54-182.31
					C2265.55,1386.92,2270.27,1391.68,2272.51,1397.43z"/>
			</g>
		</g>
		<g>
			<g>
				<path class="st45" d="M2158.88,1687.01c-3.97,0-7.83-1.58-10.67-4.46c-77.13-78.1-231.41-69.42-316.5-57.28
					c-15.67,2.22-30.68-5.92-37.38-20.29c-6.7-14.36-3.31-31.1,8.45-41.66c311.88-280.18,483.31-180.73,490.45-176.36
					c6.5,3.98,8.99,12.2,5.78,19.12l-126.52,272.25c-2.07,4.46-6.19,7.62-11.04,8.46
					C2160.59,1686.94,2159.73,1687.01,2158.88,1687.01z M1936.53,1587.48c75.24,0,159.3,12.95,217.3,59.79l111.55-240.02
					c-17.05-6.18-51.61-14.7-102.49-8.32c-70.11,8.79-186.01,48.32-340.07,186.72c-2.71,2.43-1.99,5.21-1.32,6.65
					c0.68,1.45,2.33,3.82,5.97,3.27C1857.52,1591.29,1895.73,1587.48,1936.53,1587.48z"/>
			</g>
		</g>
		<g>
			<g>
				<path class="st55" d="M2667.73,1774.83c9.46,25.9,20.03,74.85,5.55,146.92c-15.53,77.04-59.68,180.51-164.42,310.44
					c-13.28,16.47-39.89,5.91-38.02-15.19c5.04-57.55,6.48-140.67-14.55-213.43c-9.72-33.6-24.24-64.98-45.43-90.59
					c-8.71-10.56-5.81-26.38,6.27-32.79l220.55-116.73C2649.09,1757.43,2663.3,1762.69,2667.73,1774.83z"/>
			</g>
		</g>
		<g class="st13">
			<g>
				<path class="st45" d="M2667.73,1774.83c9.46,25.9,6.21,26.04,9.81,95.16c-39.42,44.83-137.82,105.87-221.25,133.58
					c-9.72-33.6-24.24-64.98-45.43-90.59c-8.71-10.56-5.81-26.38,6.27-32.79l220.55-116.73
					C2649.09,1757.43,2663.3,1762.69,2667.73,1774.83z"/>
			</g>
		</g>
		<g>
			<g>
				<path class="st45" d="M2491.42,2256.7c-4.53,0-9.11-0.86-13.54-2.66c-14.69-5.95-23.61-20.53-22.19-36.29
					c7.71-85.61,8.4-240.12-73.59-313.11c-3.67-3.27-5.51-8.12-4.92-13c0.59-4.88,3.53-9.16,7.88-11.46l265.34-140.44
					c6.73-3.57,15.07-1.51,19.39,4.78c4.74,6.91,112.93,172.95-150.74,498.92C2512.11,2252.04,2501.93,2256.7,2491.42,2256.7z
					 M2417.05,1897.2c76.77,85.6,76.26,237.29,68.53,323.25c-0.33,3.65,2.1,5.19,3.57,5.79c1.47,0.6,4.29,1.17,6.58-1.66
					c130.24-161.01,163.72-278.81,168.87-349.28c3.74-51.13-6.56-85.22-13.62-101.92L2417.05,1897.2z"/>
			</g>
		</g>
		<g>
			<g>
				<path class="st6" d="M2145.54,1935.03c35.32,32.3,88.24,41.4,152.67,30.43c6.69-1.18,13.55-2.54,20.52-4.1
					c12.36-2.8,25.11-6.29,38.19-10.47c31.48-9.96,64.9-23.77,99.68-41.07c25.08-12.5,50.86-26.85,77.18-42.97
					c23.66-14.48,47.78-30.37,72.13-47.59c22.53-15.94,45.3-32.98,68.17-51.2c73-57.94,147.15-126.92,218.58-205.03
					c116.7-127.59,196.45-271.24,246.95-400.17c75.12-191.67,85.64-350.96,57-377.14c-29.59-27.03-183.69-3.04-364.7,86.58
					c-2.16,1.06-4.32,2.13-6.48,3.23c-112.75,56.57-235.44,138.51-344.66,249.27c-10.56,10.7-21.02,21.69-31.3,32.93
					c-67.49,73.79-126.67,149.3-176.19,223.08c-2.88,4.31-5.74,8.61-8.56,12.91c-1.88,2.8-3.69,5.59-5.49,8.37
					c-14,21.57-27.14,42.96-39.41,64.09c-14.98,25.78-28.66,51.22-40.98,76.1c-13.7,27.66-25.67,54.61-35.93,80.69
					c-9.48,24.21-17.42,47.66-23.75,70.17c-3.03,10.77-5.73,21.32-7.99,31.65c-4.82,21.32-7.97,41.71-9.54,60.91
					C2096.43,1850.84,2110.2,1902.75,2145.54,1935.03z"/>
			</g>
		</g>
		<g class="st13">
			<g>
				<path d="M2355.41,1946.93c0.52,1.33,1.03,2.64,1.51,3.97c-13.09,4.17-25.83,7.65-38.2,10.46c-6.55,1.48-13.01,2.78-19.33,3.89
					l3.58-5.53l-0.11-0.1C2319.64,1956.71,2337.19,1952.49,2355.41,1946.93z"/>
			</g>
			<g>
				<path class="st45" d="M2299.4,1966.97c-0.58,0-1.12-0.29-1.45-0.77c-0.38-0.57-0.38-1.32-0.01-1.9l3.32-5.13
					c0-0.01,0.01-0.02,0.01-0.04c0.2-0.62,0.66-1.12,1.3-1.23c16.69-2.87,34.3-7.12,52.33-12.62c0.88-0.27,1.79,0.18,2.12,1.02
					c0.53,1.35,1.04,2.67,1.52,4.01c0.16,0.44,0.14,0.93-0.07,1.36c-0.21,0.42-0.58,0.74-1.03,0.89
					c-13.02,4.15-25.92,7.68-38.34,10.49c-6.73,1.52-13.26,2.83-19.41,3.91C2299.6,1966.96,2299.49,1966.97,2299.4,1966.97z
					 M2304.1,1961.15l-1.08,1.68c4.92-0.92,10.06-1.98,15.32-3.16c11.77-2.67,23.98-5.98,36.32-9.87c-0.1-0.25-0.19-0.5-0.29-0.74
					C2337.08,1954.27,2320.18,1958.33,2304.1,1961.15z"/>
			</g>
		</g>
		<g class="st13">
			<g>
				<path class="st45" d="M3143.36,1156.12c-50.36,128.98-129.95,272.68-246.51,400.43c-71.35,78.2-145.41,147.27-218.36,205.29
					c-22.83,18.2-45.58,35.28-68.09,51.26c-24.35,17.26-48.42,33.17-72.1,47.7c-26.29,16.12-52.05,30.48-77.11,43.03
					c-37.07,18.51-72.53,32.98-105.78,43.12c-18.22,5.56-35.77,9.79-52.54,12.67l0.11,0.1l-3.58,5.53c-0.01,0-0.01,0.01-0.02,0.01
					c-46.04,8.01-86.25,5.82-118.42-7.76c-13.23-5.54-25.08-13.01-35.42-22.45c-35.33-32.29-49.11-84.18-43.9-149.34
					c1.54-19.2,4.71-39.57,9.52-60.89c44.49,12.5,96.68,42.55,144.91,86.48c7.12,6.48,13.94,13.09,20.46,19.77
					c18.84,19.3,47.87,24.63,71.96,12.51c214.96-108.15,376.89-243.35,498.46-380.72c7.98-9.03-0.62-22.89-12.28-19.83
					c-57.68,15.15-121.64,1.68-169-41.54c-74.23-67.7-79.49-182.78-11.78-256.99c67.74-74.22,182.78-79.49,257-11.76
					c38.62,35.25,58.58,83.32,59.27,131.8c0.19,11.93,15.95,16.28,22.43,6.23c37.41-57.95,68.39-114.12,93.94-166.52
					c91.05-186.64,113.39-325.35,113.39-325.35C3228.59,805.06,3218.25,964.33,3143.36,1156.12z"/>
			</g>
		</g>
		<g>
			<g>
				<path class="st55" d="M3206.07,786.16c0.31,0.77,0.6,1.6,0.9,2.45c0.56,1.59,1.07,3.28,1.54,5.1c0.26,0.95,0.48,1.89,0.73,2.88
					c1.61,6.85,2.75,14.97,3.37,24.25c0.1,1.34,0.2,2.67,0.26,4.04c0.53,9.59,0.55,20.3,0.01,32.06c-0.06,1.66-0.16,3.38-0.25,5.1
					c-0.2,3.93-0.48,7.96-0.81,12.12c-0.14,1.81-0.32,3.66-0.48,5.53c-0.99,11.4-2.45,23.54-4.33,36.36
					c-0.27,1.87-0.57,3.76-0.87,5.69c-1.81,11.85-4.02,24.23-6.62,37.07c-0.45,2.28-0.91,4.59-1.41,6.9
					c-2.65,12.78-5.7,26-9.14,39.63c-0.62,2.5-1.26,5.01-1.93,7.54c-7.83,30.3-17.54,62.48-29.3,95.95c-0.97,2.81-1.98,5.6-2.99,8.4
					c-2.01,5.62-4.08,11.25-6.2,16.96c-1.06,2.83-2.14,5.68-3.23,8.53c-0.31,0.84-0.65,1.68-0.96,2.52l-0.02-0.02
					c-13.81-20.16-31.4-41.54-49.28-61.63c-16.33-18.34-32.91-35.59-47.05-49.79c-41.37-58.69-96.7-106.75-161.44-139.52
					l-18.51-9.36l-40.56-20.56c172.83-87.02,322.38-114.36,364.42-94.53c1.54,0.71,2.93,1.52,4.17,2.36
					c0.91,0.61,1.73,1.25,2.48,1.93C3201.47,776.78,3203.99,780.83,3206.07,786.16z"/>
			</g>
		</g>
		<g class="st17">
			<g>
				<path class="st6" d="M3185.1,771.14c-31.2,7.87-118.41,30.88-197.45,61.32c-51.09,19.66-95.6,39.42-126.4,53.76l-40.56-20.56
					C2993.52,778.65,3143.06,751.31,3185.1,771.14z"/>
			</g>
		</g>
		<g class="st13">
			<g>
				<path class="st45" d="M3206.07,786.16c0.31,0.77,0.6,1.6,0.9,2.45c0.56,1.59,1.07,3.28,1.54,5.1c0.26,0.95,0.48,1.89,0.73,2.88
					c1.61,6.85,2.75,14.97,3.37,24.25c0.1,1.34,0.2,2.67,0.26,4.04c0.53,9.59,0.55,20.3,0.01,32.06c-0.06,1.66-0.16,3.38-0.25,5.1
					c-0.2,3.93-0.48,7.96-0.81,12.12c-0.14,1.81-0.32,3.66-0.48,5.53c-0.99,11.4-2.45,23.54-4.33,36.36
					c-0.27,1.87-0.57,3.76-0.87,5.69c-1.81,11.85-4.02,24.23-6.62,37.07c-0.45,2.28-0.91,4.59-1.41,6.9
					c-2.65,12.78-5.7,26-9.14,39.63c-0.62,2.5-1.26,5.01-1.93,7.54c-7.83,30.3-17.54,62.48-29.3,95.95c-0.97,2.81-1.98,5.6-2.99,8.4
					c-2.01,5.62-4.08,11.25-6.2,16.96c-1.06,2.83-2.14,5.68-3.23,8.53c-0.31,0.84-0.63,1.66-0.97,2.49
					c-13.81-20.16-31.4-41.54-49.28-61.63c34.16-77.05,104.51-244.79,101.03-311.4c0.91,0.61,1.73,1.25,2.48,1.93
					C3201.47,776.78,3203.99,780.83,3206.07,786.16z"/>
			</g>
		</g>
		<g>
			<g>
				<path class="st45" d="M2251.51,1974.41c-46.76,0-84.58-12.95-112.83-38.73c-38.16-34.83-54.61-89.19-48.89-161.57
					c3.87-49.11,18.02-105.31,42.08-167.03c10.38-26.53,22.6-54.09,36.35-81.92c12.45-25.22,26.36-51.13,41.36-77.01
					c14.18-24.45,29.41-49.09,45.26-73.23c53.11-80.94,115.67-161.04,185.96-238.07c132.12-144.8,279.55-235.41,379.97-285.91
					c169.15-85.17,346.8-125.43,387.92-87.91c40.39,36.86,16.25,217.17-52.71,393.74c-41.03,105.07-117.6,260.64-249.4,405.09l0,0
					c-70.27,77.02-144.32,146.64-220.09,206.93c-22.62,18.01-45.76,35.43-68.77,51.76c-24.47,17.33-49,33.56-72.92,48.23
					c-26.45,16.22-52.77,30.91-78.25,43.67c-59.28,29.6-113.95,48.83-162.5,57.17C2285.44,1972.81,2267.92,1974.41,2251.51,1974.41z
					 M3154.39,778.25c-56.81,0-174.95,26.38-320.15,99.49c-98.16,49.37-242.25,137.91-371.29,279.33
					c-69.21,75.85-130.8,154.69-183.03,234.31c-15.56,23.69-30.49,47.85-44.39,71.81c-14.65,25.3-28.25,50.62-40.41,75.25
					c-13.37,27.07-25.24,53.83-35.3,79.55c-22.98,58.96-36.47,112.29-40.11,158.47c-4.96,62.68,8.23,108.78,39.21,137.05
					c30.97,28.26,78.08,37.18,140.05,26.53c45.66-7.84,97.53-26.16,154.17-54.44c24.69-12.36,50.25-26.63,75.98-42.41
					c23.36-14.33,47.34-30.18,71.25-47.13c22.55-16,45.24-33.08,67.44-50.75c74.54-59.31,147.41-127.84,216.62-203.68l0,0
					c128.7-141.04,203.52-293.08,243.61-395.78c78.99-202.26,78.16-344.48,60.43-360.67
					C3183.61,780.76,3171.91,778.25,3154.39,778.25z"/>
			</g>
		</g>
		<g>
			<g>
				<path class="st56" d="M2893.34,1359.78c-46.2,50.62-116.7,65.89-177.46,44.22c-20.02-7.14-39.02-18.31-55.71-33.55
					c-6.21-5.65-11.9-11.68-17.04-18.03c-50.65-62.35-49.45-154.03,6.35-215.16c3.67-4.05,7.49-7.85,11.49-11.42
					c51-46.05,124.61-54.9,184.33-24.96c13.28,6.63,25.87,15.21,37.37,25.69C2950.02,1188.02,2954.8,1292.44,2893.34,1359.78z"/>
			</g>
			<g>
				<path class="st45" d="M2771.51,1416.15c-18.89,0-37.97-3.2-56.47-9.8c-20.98-7.48-40-18.94-56.55-34.06
					c-6.25-5.69-12.07-11.84-17.29-18.3c-51.79-63.75-49.02-157.65,6.45-218.42c3.74-4.12,7.67-8.02,11.67-11.6
					c50.75-45.82,125.95-56,187.11-25.32c13.69,6.84,26.46,15.61,37.94,26.07c33.06,30.17,52.4,71.42,54.44,116.13
					c2.05,44.72-13.45,87.55-43.62,120.61l0,0C2862.78,1396.97,2817.73,1416.15,2771.51,1416.15z M2771.76,1086.08
					c-39.55,0-78.81,14.26-109.1,41.61c-3.88,3.47-7.69,7.24-11.31,11.24c-53.81,58.96-56.51,150.05-6.26,211.9
					c5.07,6.27,10.72,12.24,16.78,17.76c16.06,14.68,34.52,25.79,54.86,33.05c61.88,22.07,130.48,4.98,174.78-43.55l0,0
					c29.27-32.08,44.3-73.63,42.31-117.01c-1.98-43.38-20.74-83.39-52.81-112.67c-11.14-10.15-23.53-18.66-36.81-25.3
					C2821.35,1091.67,2796.5,1086.08,2771.76,1086.08z M2893.34,1359.78h0.05H2893.34z"/>
			</g>
		</g>
		<g>
			<g>
				<path class="st56" d="M2893.34,1359.78c-46.2,50.62-116.7,65.89-177.46,44.22c-20.02-7.14-39.02-18.31-55.71-33.55
					c-6.21-5.65-11.9-11.68-17.04-18.03c-50.65-62.35-49.45-154.03,6.35-215.16c3.67-4.05,7.49-7.85,11.49-11.42
					c51-46.05,124.61-54.9,184.33-24.96c13.28,6.63,25.87,15.21,37.37,25.69C2950.02,1188.02,2954.8,1292.44,2893.34,1359.78z"/>
			</g>
		</g>
		<g class="st17">
			<g>
				<path class="st6" d="M2888.95,1147.55c-11.5-10.48-24.1-19.05-37.37-25.69c-59.72-29.94-133.33-21.09-184.33,24.96
					c-4,3.57-7.81,7.37-11.49,11.42c-37.89,41.51-50.58,97.09-38.98,148.02c-20.92-56.14-10.46-121.71,32.71-169.01
					c3.67-4.05,7.49-7.85,11.49-11.42c51-46.05,124.61-54.9,184.33-24.96c13.28,6.63,25.87,15.21,37.37,25.69
					c25.85,23.59,42.44,53.51,49.64,85.23C2923.47,1187.99,2909.01,1165.86,2888.95,1147.55z"/>
			</g>
		</g>
		<g>
			<g>
				<path class="st45" d="M2771.23,1424.15c-43.87,0-85.57-16.13-118.19-45.9c-34.65-31.62-54.92-74.84-57.07-121.71
					c-2.14-46.87,14.09-91.76,45.71-126.41c31.62-34.66,74.84-54.92,121.7-57.07c46.87-2.15,91.76,14.09,126.42,45.71
					c34.65,31.62,54.92,74.84,57.07,121.71c2.14,46.87-14.09,91.76-45.71,126.41h0c-31.62,34.66-74.84,54.92-121.71,57.07
					C2776.71,1424.09,2773.96,1424.15,2771.23,1424.15z M2771.59,1094.01c-2.4,0-4.81,0.06-7.23,0.17
					c-41.23,1.89-79.25,19.71-107.06,50.2c-27.82,30.49-42.1,69.98-40.21,111.2c1.89,41.23,19.72,79.25,50.21,107.06
					c30.48,27.81,69.95,42.08,111.2,40.21c41.23-1.89,79.25-19.71,107.06-50.2c0,0,0,0,0,0c27.82-30.49,42.09-69.98,40.21-111.2
					c-1.89-41.23-19.72-79.25-50.21-107.06C2846.86,1108.2,2810.18,1094.01,2771.59,1094.01z"/>
			</g>
		</g>
		<g>
			<g>
				<path class="st57" d="M2881.23,1254.87c-3.51,60.64-55.52,106.96-116.16,103.46c-30.04-1.74-56.58-15.39-75.28-36.06
					c-19.04-21.12-29.94-49.5-28.18-80.1c3.51-60.64,55.52-106.96,116.16-103.46c43.07,2.49,78.91,29.44,94.82,66.57
					C2879.09,1220.44,2882.24,1237.3,2881.23,1254.87z"/>
			</g>
			<g>
				<path class="st45" d="M2771.57,1361.01c-2.21,0-4.42-0.06-6.64-0.19c-29.69-1.72-57.03-14.81-76.99-36.88
					c-20.34-22.56-30.57-51.65-28.81-81.92c1.73-29.99,15.04-57.52,37.49-77.5s51.25-30.04,81.31-28.3
					c42.88,2.48,80.04,28.56,96.97,68.08c6.88,16.04,9.85,33.11,8.83,50.72c-1.73,29.99-15.04,57.52-37.49,77.5
					C2825.46,1351.02,2799.16,1361.01,2771.57,1361.01z M2771.28,1141.02c-26.37,0-51.49,9.54-71.35,27.23
					c-21.44,19.1-34.16,45.4-35.82,74.06c-1.67,28.93,8.11,56.73,27.53,78.28c19.07,21.08,45.2,33.6,73.57,35.24
					c28.61,1.64,56.25-7.95,77.69-27.05c21.44-19.1,34.16-45.4,35.82-74.06l2.5,0.14l-2.5-0.14c0.97-16.83-1.87-33.13-8.44-48.46
					c-16.18-37.76-51.68-62.69-92.67-65.06C2775.51,1141.08,2773.39,1141.02,2771.28,1141.02z"/>
			</g>
		</g>
		<g class="st8">
			<path class="st6" d="M2817.44,1343.95c16.1-9.17,29.49-24.1,37.88-43.26l-55.07-151.19c-1.55-0.66-3.15-1.28-4.76-1.86
				c-17.15-6.15-34.42-6.37-50.13-1.68L2817.44,1343.95z"/>
		</g>
		<g class="st8">
			<path class="st6" d="M2753.14,1356.11c11.92,3.12,23.54,3.23,34.28,0.65l-76.3-194.46c-9.65,5.69-18.03,13.93-24.47,24.31
				L2753.14,1356.11z"/>
		</g>
		<g class="st13">
			<g>
				<path class="st45" d="M2792,1171.04c-60.64-3.51-112.65,42.82-116.16,103.46c-0.68,11.7,0.51,23.07,3.29,33.83
					c-12.31-18.98-18.92-41.86-17.51-66.16c3.51-60.64,55.52-106.96,116.16-103.46c43.07,2.49,78.91,29.44,94.82,66.57
					c2.18,5.09,3.96,10.39,5.35,15.83C2859.53,1192.73,2828.37,1173.14,2792,1171.04z"/>
			</g>
		</g>
		<g>
			<g>
				<path class="st45" d="M2771.58,1369.08c-2.36,0-4.74-0.07-7.11-0.21c-31.82-1.84-61.12-15.88-82.51-39.52
					c-21.8-24.18-32.76-55.35-30.88-87.8c1.86-32.14,16.12-61.64,40.17-83.06s55.02-32.17,87.14-30.33
					c45.96,2.66,85.78,30.61,103.92,72.95c7.38,17.2,10.57,35.49,9.47,54.36l0,0c-1.86,32.14-16.12,61.64-40.17,83.06
					C2829.33,1358.37,2801.15,1369.08,2771.58,1369.08z M2771.29,1149.09c-24.39,0-47.63,8.83-65.99,25.19
					c-19.83,17.66-31.6,41.99-33.13,68.5c-1.55,26.76,7.5,52.47,25.47,72.41c17.63,19.49,41.8,31.07,68.05,32.59
					c26.57,1.56,52.03-7.35,71.86-25.01c19.83-17.67,31.6-41.99,33.13-68.5c0.9-15.57-1.72-30.64-7.8-44.81
					c-14.97-34.93-47.81-57.99-85.72-60.18C2775.2,1149.15,2773.24,1149.09,2771.29,1149.09z M2881.23,1254.87h0.05H2881.23z"/>
			</g>
		</g>
		<g class="st8">
			<g>
				<g>
					<path class="st45" d="M2856.83,1230.85c4.08,14.7,2.76,30.78-2.41,45.59c-5.21,14.84-14.43,28.45-26.34,39.06
						c-11.88,10.62-26.48,18.22-41.83,21.69c-15.32,3.44-31.45,2.89-45.58-2.89c14.63-4.17,27.55-8.71,39.42-14.76
						c11.86-5.98,22.54-13.27,32.17-21.78c9.59-8.56,18.07-18.35,25.38-29.43C2845.05,1257.23,2851.04,1244.91,2856.83,1230.85z"/>
				</g>
			</g>
		</g>
		<g>
			<g>
				<path class="st55" d="M2209.35,2005.35l-151.64-132.61c-18.33-16.03-15.81-47.03,5.28-65.05l30.48-26.04l201.4,176.13
					l-21.75,33.68C2258.07,2014.76,2227.68,2021.38,2209.35,2005.35z"/>
			</g>
		</g>
		<g class="st35">
			<g>
				<g>
					<path class="st6" d="M2066.96,1813.36l30.48-26.04l201.4,176.13l-0.87,1.34l-185.76-162.45l-30.48,26.04
						c-18.01,15.39-22.42,40.23-11.92,57.14l-8.13-7.11C2043.36,1862.38,2045.87,1831.37,2066.96,1813.36z"/>
				</g>
			</g>
		</g>
		<g class="st13">
			<g>
				<path class="st45" d="M2294.87,1957.77l-21.75,33.67c-15.06,23.31-45.44,29.95-63.76,13.92l-54.93-48.04
					c16.28,2.27,34.55-5.86,45.15-22.29l21.77-33.68l-132.45-115.82l4.56-3.88L2294.87,1957.77z"/>
			</g>
		</g>
		<g>
			<g>
				<path class="st45" d="M2235.13,2032.81c-11.15,0-21.53-3.81-29.8-11.04l-163.36-142.86c-9.99-8.73-15.44-21.19-15.36-35.1
					c0.09-15.83,7.34-31.05,19.88-41.77l37.23-31.8c5.65-4.84,14.01-4.79,19.61,0.11l201.4,176.13c5.61,4.9,6.77,13.17,2.73,19.43
					l-26.55,41.13c-8.95,13.86-23.07,23.07-38.75,25.27C2239.8,2032.64,2237.45,2032.81,2235.13,2032.81z M2093.35,1801.47
					l-27.36,23.38c-5.83,4.98-9.33,12.13-9.37,19.13c-0.01,2.93,0.62,8.43,5.11,12.34l163.36,142.86l0,0
					c4.48,3.92,10.04,3.83,12.92,3.42c6.93-0.97,13.55-5.4,17.71-11.84l19.52-30.24L2093.35,1801.47z"/>
			</g>
		</g>
		<g>
			<g>
				<path class="st45" d="M2669.48,1773.12c-2.92,0-5.83-1.28-7.8-3.74l-76.89-95.71c-68.37-85.11-149.29-158.69-240.51-218.69
					l-89.4-58.81c-4.61-3.03-5.9-9.24-2.86-13.85c3.03-4.61,9.25-5.89,13.85-2.86l89.4,58.81
					c92.96,61.15,175.43,136.14,245.12,222.88l76.89,95.71c3.46,4.3,2.77,10.6-1.53,14.06
					C2673.89,1772.4,2671.67,1773.12,2669.48,1773.12z"/>
			</g>
		</g>
		<g class="st13">
			<g>
				<path class="st45" d="M2893.34,1359.78c-46.2,50.62-116.7,65.89-177.46,44.22c-13.33-6.67-25.97-15.25-37.52-25.8
					c-0.82-0.74-1.62-1.5-2.42-2.26c60.56,21.21,130.61,5.85,176.58-44.53c60.69-66.5,56.78-169.18-8.21-230.9
					c0.33,0.13,0.69,0.23,1,0.38c13.28,6.63,25.87,15.21,37.37,25.69C2950.02,1188.02,2954.8,1292.44,2893.34,1359.78z"/>
			</g>
		</g>
		<g class="st8">
			<g>
				<path class="st45" d="M1866.69,1599.92c0,0,69.06-36,144.18-34.76c54.69,0.9,106.26-24.86,140.18-67.76
					c22.9-28.97,54.61-64.65,98.17-106.5l15.5,2.84c0,0-124.87,175.46-131.53,256.35C2133.19,1650.07,2009,1571.66,1866.69,1599.92z
					"/>
			</g>
		</g>
		<g>
			<g>
				<path class="st45" d="M3145.01,1160c-3.27,0-6.46-1.59-8.38-4.53c-155.57-238.23-312.5-280.37-314.07-280.77
					c-5.35-1.36-8.59-6.79-7.25-12.14c1.34-5.35,6.72-8.6,12.11-7.26c6.68,1.67,165.64,43.77,325.95,289.23
					c3.02,4.62,1.72,10.82-2.91,13.84C3148.78,1159.48,3146.88,1160,3145.01,1160z"/>
			</g>
		</g>
	</g>
	<g>
		<g>
			<g>
				<circle class="st58" cx="2919.79" cy="3040.75" r="150.99"/>
			</g>
			<g class="st5">
				<path class="st6" d="M3026.04,3145.39c13.83-22.89,21.85-49.67,21.85-78.36c0-31.63-9.77-61.03-26.46-85.27
					c-25.51,17.56-56.34-15.18-39.34-39.34c-24.24-16.61-53.56-26.38-85.19-26.38c-41.4,0-78.75,16.61-106.01,43.63
					c26.46-43.39,74.3-72.4,128.9-72.4c83.36,0,150.99,67.63,150.99,150.99C3070.78,3080.14,3053.69,3118.13,3026.04,3145.39z"/>
			</g>
			<g>
				<circle class="st59" cx="2919.79" cy="3040.75" r="79.16"/>
			</g>
			<g class="st5">
				<path class="st6" d="M2974.98,3097.41c-14.46,18.2-36.79,29.8-61.83,29.8c-17.96,0-34.57-5.96-47.84-16.05
					c-16.61,10.73-35.44-12.08-22.33-26.38c-5.8-10.97-9.06-23.44-9.06-36.71c0-22.33,9.3-42.59,24.24-56.9
					c-10.97,13.51-17.56,30.83-17.56,49.59c0,43.71,35.44,79.15,79.23,79.15C2941.28,3119.9,2960.75,3111.31,2974.98,3097.41z"/>
			</g>
			<g class="st8">
				<path class="st45" d="M2998.98,3040.75c0,23.6-10.33,44.82-26.78,59.2c9.77-13.11,15.5-29.4,15.5-46.97
					c0-43.71-35.44-79.15-79.15-79.15c-20.18,0-38.62,7.63-52.61,20.11c14.38-19.63,37.67-32.34,63.89-32.34
					C2963.53,2961.6,2998.98,2997.04,2998.98,3040.75z"/>
			</g>
			<g>
				<path class="st45" d="M2919.79,3206.75c-91.53,0-166-74.47-166-166c0-91.54,74.47-166.01,166-166.01s166.01,74.47,166.01,166.01
					C3085.79,3132.28,3011.32,3206.75,2919.79,3206.75z M2919.79,2904.77c-74.98,0-135.97,61-135.97,135.98s61,135.97,135.97,135.97
					c74.98,0,135.98-61,135.98-135.97S2994.77,2904.77,2919.79,2904.77z"/>
			</g>
		</g>
		<g>
			<g>
				<path class="st58" d="M3235.63,2881.13h-244.88c-14.25,0-25.81-11.56-25.81-25.81v-49.51c0-14.25,11.56-25.81,25.81-25.81
					h244.88c14.25,0,25.81,11.55,25.81,25.81v49.51C3261.44,2869.57,3249.89,2881.13,3235.63,2881.13z"/>
			</g>
			<g class="st5">
				<rect x="3147.29" y="2781.04" class="st6" width="42.5" height="96.95"/>
			</g>
			<g>
				<rect x="2968.07" y="2781.04" class="st59" width="78.57" height="96.95"/>
			</g>
			<g class="st5">
				<rect x="3207.58" y="2783.13" class="st6" width="24.71" height="96.95"/>
			</g>
			<g>
				<path class="st45" d="M3235.63,2896.13h-244.88c-22.5,0-40.81-18.31-40.81-40.81v-49.51c0-22.5,18.31-40.81,40.81-40.81h244.88
					c22.5,0,40.81,18.31,40.81,40.81v49.51C3276.44,2877.82,3258.14,2896.13,3235.63,2896.13z M2990.75,2795
					c-5.96,0-10.81,4.85-10.81,10.81v49.51c0,5.96,4.85,10.81,10.81,10.81h244.88c5.96,0,10.81-4.85,10.81-10.81v-49.51
					c0-5.96-4.85-10.81-10.81-10.81H2990.75z"/>
			</g>
		</g>
		<g>
			<g>
				<path class="st58" d="M3277.15,2988.4h-244.88c-14.25,0-25.81-11.56-25.81-25.81v-49.51c0-14.25,11.55-25.81,25.81-25.81h244.88
					c14.25,0,25.81,11.55,25.81,25.81v49.51C3302.96,2976.85,3291.4,2988.4,3277.15,2988.4z"/>
			</g>
			<g class="st5">
				<rect x="3188.8" y="2888.32" class="st6" width="42.5" height="96.95"/>
			</g>
			<g>
				<rect x="3009.59" y="2888.32" class="st59" width="78.57" height="96.95"/>
			</g>
			<g class="st5">
				<rect x="3249.09" y="2890.41" class="st6" width="24.71" height="96.95"/>
			</g>
			<g>
				<path class="st45" d="M3277.15,3003.42h-244.89c-22.51,0-40.82-18.31-40.82-40.82v-49.51c0-22.51,18.31-40.82,40.82-40.82
					h244.89c22.51,0,40.82,18.31,40.82,40.82v49.51C3317.97,2985.1,3299.66,3003.42,3277.15,3003.42z M3032.26,2902.29
					c-5.95,0-10.79,4.84-10.79,10.79v49.51c0,5.95,4.84,10.79,10.79,10.79h244.89c5.95,0,10.79-4.84,10.79-10.79v-49.51
					c0-5.95-4.84-10.79-10.79-10.79H3032.26z"/>
			</g>
		</g>
		<g>
			<g>
				<path class="st58" d="M3222.51,3091.11h-244.88c-14.25,0-25.81-11.56-25.81-25.81v-49.51c0-14.25,11.55-25.81,25.81-25.81
					h244.88c14.25,0,25.81,11.55,25.81,25.81v49.51C3248.32,3079.56,3236.76,3091.11,3222.51,3091.11z"/>
			</g>
			<g class="st5">
				<rect x="3134.16" y="2991.03" class="st6" width="42.5" height="96.95"/>
			</g>
			<g>
				<rect x="2954.95" y="2991.03" class="st59" width="78.57" height="96.95"/>
			</g>
			<g class="st5">
				<rect x="3194.45" y="2993.12" class="st6" width="24.71" height="96.95"/>
			</g>
			<g>
				<path class="st45" d="M3222.51,3106.13h-244.88c-22.51,0-40.83-18.32-40.83-40.83v-49.51c0-22.51,18.32-40.83,40.83-40.83
					h244.88c22.51,0,40.83,18.32,40.83,40.83v49.51C3263.33,3087.81,3245.02,3106.13,3222.51,3106.13z M2977.62,3005
					c-5.95,0-10.8,4.84-10.8,10.8v49.51c0,5.95,4.84,10.8,10.8,10.8h244.88c5.95,0,10.8-4.84,10.8-10.8v-49.51
					c0-5.95-4.84-10.8-10.8-10.8H2977.62z"/>
			</g>
		</g>
		<g>
			<g>
				<path class="st58" d="M3277.15,3192.24h-244.88c-14.25,0-25.81-11.55-25.81-25.81v-49.51c0-14.25,11.55-25.81,25.81-25.81
					h244.88c14.25,0,25.81,11.55,25.81,25.81v49.51C3302.96,3180.69,3291.4,3192.24,3277.15,3192.24z"/>
			</g>
			<g class="st5">
				<rect x="3188.8" y="3092.16" class="st6" width="42.5" height="96.95"/>
			</g>
			<g>
				<rect x="3009.59" y="3092.16" class="st59" width="78.57" height="96.95"/>
			</g>
			<g class="st5">
				<rect x="3249.09" y="3094.25" class="st6" width="24.71" height="96.95"/>
			</g>
			<g>
				<path class="st45" d="M3277.15,3207.25h-244.89c-22.51,0-40.82-18.31-40.82-40.82v-49.51c0-22.51,18.31-40.82,40.82-40.82
					h244.89c22.51,0,40.82,18.31,40.82,40.82v49.51C3317.97,3188.94,3299.66,3207.25,3277.15,3207.25z M3032.26,3106.13
					c-5.95,0-10.79,4.84-10.79,10.79v49.51c0,5.95,4.84,10.79,10.79,10.79h244.89c5.95,0,10.79-4.84,10.79-10.79v-49.51
					c0-5.95-4.84-10.79-10.79-10.79H3032.26z"/>
			</g>
		</g>
	</g>
	<g>
		<g>
			<path class="st58" d="M1284.95,3189.4h-270.97c-15.77,0-28.56-12.79-28.56-28.56v-54.78c0-15.77,12.79-28.56,28.56-28.56h270.97
				c15.77,0,28.56,12.79,28.56,28.56v54.78C1313.51,3176.61,1300.72,3189.4,1284.95,3189.4z"/>
			<path class="st45" d="M1284.95,3191.9h-270.97c-17.12,0-31.06-13.93-31.06-31.06v-54.78c0-17.12,13.94-31.06,31.06-31.06h270.97
				c17.12,0,31.06,13.93,31.06,31.06v54.78C1316.01,3177.96,1302.07,3191.9,1284.95,3191.9z M1013.98,3080
				c-14.37,0-26.06,11.69-26.06,26.06v54.78c0,14.37,11.69,26.06,26.06,26.06h270.97c14.37,0,26.06-11.69,26.06-26.06v-54.78
				c0-14.37-11.69-26.06-26.06-26.06H1013.98z"/>
		</g>
		<g class="st5">
			<rect x="1187.2" y="3078.65" class="st6" width="47.03" height="107.28"/>
		</g>
		<g>
			<rect x="988.89" y="3078.65" class="st59" width="86.94" height="107.28"/>
		</g>
		<g class="st5">
			<rect x="1253.91" y="3080.96" class="st6" width="27.34" height="107.28"/>
		</g>
		<g>
			<path class="st45" d="M1284.95,3206.01h-270.97c-24.91,0-45.17-20.27-45.17-45.17v-54.78c0-24.91,20.26-45.17,45.17-45.17h270.97
				c24.91,0,45.17,20.26,45.17,45.17v54.78C1330.12,3185.74,1309.86,3206.01,1284.95,3206.01z M1013.98,3094.11
				c-6.59,0-11.95,5.36-11.95,11.94v54.78c0,6.59,5.36,11.95,11.95,11.95h270.97c6.59,0,11.95-5.36,11.95-11.95v-54.78
				c0-6.59-5.36-11.94-11.95-11.94H1013.98z"/>
		</g>
	</g>
	<g>
		<g>
			<path class="st58" d="M1065.56,3054.83L825.1,3179.75c-14,7.27-31.24,1.82-38.51-12.18l-25.25-48.61
				c-7.27-14-1.82-31.24,12.18-38.51l240.46-124.91c14-7.27,31.24-1.82,38.51,12.18l25.25,48.61
				C1085.01,3030.32,1079.56,3047.56,1065.56,3054.83z"/>
		</g>
		<g class="st5">
			
				<rect x="949.84" y="2984.74" transform="matrix(0.8874 -0.461 0.461 0.8874 -1291.0669 790.8095)" class="st6" width="47.03" height="107.28"/>
		</g>
		<g>
			
				<rect x="771.61" y="3066.96" transform="matrix(0.8874 -0.461 0.461 0.8874 -1346.7888 727.106)" class="st59" width="86.94" height="107.28"/>
		</g>
		<g class="st5">
			
				<rect x="1011.21" y="2960.58" transform="matrix(0.8874 -0.461 0.461 0.8874 -1274.1252 811.8438)" class="st6" width="27.34" height="107.28"/>
		</g>
		<g>
			<path class="st45" d="M811.99,3199.6c-4.58,0-9.18-0.71-13.67-2.12c-11.5-3.64-20.9-11.54-26.46-22.25l-25.25-48.61
				c-5.56-10.71-6.62-22.94-2.99-34.44c3.64-11.51,11.54-20.91,22.25-26.47l240.46-124.91c22.09-11.48,49.42-2.84,60.9,19.26
				l25.26,48.62c11.48,22.1,2.84,49.42-19.26,60.91c0,0,0,0,0,0l-240.46,124.91C826.23,3197.88,819.14,3199.6,811.99,3199.6z
				 M1027.12,2968.93c-1.86,0-3.73,0.43-5.49,1.34l-240.46,124.91c-2.83,1.47-4.92,3.96-5.88,7c-0.96,3.04-0.68,6.28,0.79,9.11
				l25.25,48.61c1.47,2.83,3.96,4.92,7,5.88c3.04,0.95,6.27,0.68,9.11-0.79l240.47-124.92c5.84-3.03,8.12-10.26,5.09-16.1
				l-25.26-48.62C1035.62,2971.28,1031.44,2968.93,1027.12,2968.93z M1065.56,3054.83h0.05H1065.56z"/>
		</g>
	</g>
</g>
</svg>
