<?xml version="1.0" encoding="utf-8"?>
<!-- Generator: Adobe Illustrator 18.0.0, SVG Export Plug-In . SVG Version: 6.00 Build 0)  -->
<!DOCTYPE svg PUBLIC "-//W3C//DTD SVG 1.1//EN" "http://www.w3.org/Graphics/SVG/1.1/DTD/svg11.dtd">
<svg version="1.1" id="Layer_1" xmlns="http://www.w3.org/2000/svg" xmlns:xlink="http://www.w3.org/1999/xlink" x="0px" y="0px"
	 viewBox="0 0 3053.7 2437.7" style="enable-background:new 0 0 3053.7 2437.7;" xml:space="preserve">
<style type="text/css">
	.st0{fill:#FFCC80;}
	.st1{opacity:0.2;}
	.st2{fill:#232323;}
	.st3{opacity:0.3;}
	.st4{fill:#F5F5F5;}
	.st5{fill:#D0D0D0;}
	.st6{opacity:0.5;}
	.st7{fill:#FFFFFF;}
	.st8{opacity:0.4;clip-path:url(#SVGID_2_);}
	.st9{clip-path:url(#SVGID_4_);fill:#FFFFFF;}
	.st10{clip-path:url(#SVGID_4_);fill:#FEFFFF;}
	.st11{clip-path:url(#SVGID_4_);fill:#FDFEFF;}
	.st12{clip-path:url(#SVGID_4_);fill:#FCFEFF;}
	.st13{clip-path:url(#SVGID_4_);fill:#FBFEFF;}
	.st14{clip-path:url(#SVGID_4_);fill:#FAFDFF;}
	.st15{clip-path:url(#SVGID_4_);fill:#F9FDFF;}
	.st16{clip-path:url(#SVGID_4_);fill:#F8FDFF;}
	.st17{clip-path:url(#SVGID_4_);fill:#F7FCFF;}
	.st18{clip-path:url(#SVGID_4_);fill:#F6FCFF;}
	.st19{clip-path:url(#SVGID_4_);fill:#F5FCFF;}
	.st20{clip-path:url(#SVGID_4_);fill:#F4FBFF;}
	.st21{clip-path:url(#SVGID_4_);fill:#F4FBFE;}
	.st22{clip-path:url(#SVGID_4_);fill:#F3FBFE;}
	.st23{clip-path:url(#SVGID_4_);fill:#F2FBFE;}
	.st24{clip-path:url(#SVGID_4_);fill:#F1FAFE;}
	.st25{clip-path:url(#SVGID_4_);fill:#F0FAFE;}
	.st26{clip-path:url(#SVGID_4_);fill:#EFFAFE;}
	.st27{clip-path:url(#SVGID_4_);fill:#EEF9FE;}
	.st28{clip-path:url(#SVGID_4_);fill:#EDF9FE;}
	.st29{clip-path:url(#SVGID_4_);fill:#ECF9FE;}
	.st30{clip-path:url(#SVGID_4_);fill:#ECF8FE;}
	.st31{clip-path:url(#SVGID_4_);fill:#EBF8FE;}
	.st32{clip-path:url(#SVGID_4_);fill:#EAF8FE;}
	.st33{clip-path:url(#SVGID_4_);fill:#E9F8FE;}
	.st34{clip-path:url(#SVGID_4_);fill:#E9F7FE;}
	.st35{clip-path:url(#SVGID_4_);fill:#E8F7FE;}
	.st36{clip-path:url(#SVGID_4_);fill:#E7F7FE;}
	.st37{clip-path:url(#SVGID_4_);fill:#E6F7FE;}
	.st38{clip-path:url(#SVGID_4_);fill:#E6F6FE;}
	.st39{clip-path:url(#SVGID_4_);fill:#E5F6FE;}
	.st40{clip-path:url(#SVGID_4_);fill:#E4F6FE;}
	.st41{clip-path:url(#SVGID_4_);fill:#E3F6FE;}
	.st42{clip-path:url(#SVGID_4_);fill:#E2F5FE;}
	.st43{clip-path:url(#SVGID_4_);fill:#E1F5FE;}
	.st44{clip-path:url(#SVGID_4_);fill:#E0F4FE;}
	.st45{clip-path:url(#SVGID_4_);fill:#DFF4FE;}
	.st46{clip-path:url(#SVGID_4_);fill:#DEF4FE;}
	.st47{clip-path:url(#SVGID_4_);fill:#DDF4FD;}
	.st48{clip-path:url(#SVGID_4_);fill:#DDF3FD;}
	.st49{clip-path:url(#SVGID_4_);fill:#DCF3FD;}
	.st50{clip-path:url(#SVGID_4_);fill:#DBF3FD;}
	.st51{clip-path:url(#SVGID_4_);fill:#DAF2FD;}
	.st52{clip-path:url(#SVGID_4_);fill:#D9F2FD;}
	.st53{clip-path:url(#SVGID_4_);fill:#D8F2FD;}
	.st54{clip-path:url(#SVGID_4_);fill:#D7F1FD;}
	.st55{clip-path:url(#SVGID_4_);fill:#D6F1FD;}
	.st56{clip-path:url(#SVGID_4_);fill:#D5F1FD;}
	.st57{clip-path:url(#SVGID_4_);fill:#D4F0FD;}
	.st58{clip-path:url(#SVGID_4_);fill:#D3F0FD;}
	.st59{clip-path:url(#SVGID_4_);fill:#D2F0FD;}
	.st60{clip-path:url(#SVGID_4_);fill:#D1EFFD;}
	.st61{clip-path:url(#SVGID_4_);fill:#D0EFFD;}
	.st62{clip-path:url(#SVGID_4_);fill:#CFEFFD;}
	.st63{clip-path:url(#SVGID_4_);fill:#CEEEFD;}
	.st64{clip-path:url(#SVGID_4_);fill:#CDEEFD;}
	.st65{clip-path:url(#SVGID_4_);fill:#CCEEFD;}
	.st66{clip-path:url(#SVGID_4_);fill:#CBEDFD;}
	.st67{clip-path:url(#SVGID_4_);fill:#CAEDFD;}
	.st68{clip-path:url(#SVGID_4_);fill:#C9EDFD;}
	.st69{clip-path:url(#SVGID_4_);fill:#C8ECFD;}
	.st70{clip-path:url(#SVGID_4_);fill:#C7ECFC;}
	.st71{clip-path:url(#SVGID_4_);fill:#C6ECFC;}
	.st72{clip-path:url(#SVGID_4_);fill:#C5EBFC;}
	.st73{clip-path:url(#SVGID_4_);fill:#C4EBFC;}
	.st74{clip-path:url(#SVGID_4_);fill:#C3EBFC;}
	.st75{clip-path:url(#SVGID_4_);fill:#C2EAFC;}
	.st76{clip-path:url(#SVGID_4_);fill:#C1EAFC;}
	.st77{clip-path:url(#SVGID_4_);fill:#C0E9FC;}
	.st78{clip-path:url(#SVGID_4_);fill:#BFE9FC;}
	.st79{clip-path:url(#SVGID_4_);fill:#BEE9FC;}
	.st80{clip-path:url(#SVGID_4_);fill:#BCE8FC;}
	.st81{clip-path:url(#SVGID_4_);fill:#BBE8FC;}
	.st82{clip-path:url(#SVGID_4_);fill:#BAE8FC;}
	.st83{clip-path:url(#SVGID_4_);fill:#B9E7FC;}
	.st84{clip-path:url(#SVGID_4_);fill:#B8E7FC;}
	.st85{clip-path:url(#SVGID_4_);fill:#B7E6FC;}
	.st86{clip-path:url(#SVGID_4_);fill:#B5E6FC;}
	.st87{clip-path:url(#SVGID_4_);fill:#B4E6FC;}
	.st88{clip-path:url(#SVGID_4_);fill:#B3E5FC;}
	.st89{clip-path:url(#SVGID_4_);fill:#B2E5FB;}
	.st90{clip-path:url(#SVGID_4_);fill:#B1E4FB;}
	.st91{clip-path:url(#SVGID_4_);fill:#B0E4FB;}
	.st92{clip-path:url(#SVGID_4_);fill:#AEE3FB;}
	.st93{clip-path:url(#SVGID_4_);fill:#ADE3FB;}
	.st94{clip-path:url(#SVGID_4_);fill:#ACE3FB;}
	.st95{clip-path:url(#SVGID_4_);fill:#ABE2FB;}
	.st96{clip-path:url(#SVGID_4_);fill:#A9E2FB;}
	.st97{clip-path:url(#SVGID_4_);fill:#A8E1FB;}
	.st98{clip-path:url(#SVGID_4_);fill:#A7E1FB;}
	.st99{clip-path:url(#SVGID_4_);fill:#A6E1FB;}
	.st100{clip-path:url(#SVGID_4_);fill:#A4E0FB;}
	.st101{clip-path:url(#SVGID_4_);fill:#A3E0FB;}
	.st102{clip-path:url(#SVGID_4_);fill:#A2DFFB;}
	.st103{clip-path:url(#SVGID_4_);fill:#A0DFFB;}
	.st104{clip-path:url(#SVGID_4_);fill:#9FDEFB;}
	.st105{clip-path:url(#SVGID_4_);fill:#9EDEFB;}
	.st106{clip-path:url(#SVGID_4_);fill:#9DDDFB;}
	.st107{clip-path:url(#SVGID_4_);fill:#9BDDFA;}
	.st108{clip-path:url(#SVGID_4_);fill:#9ADDFA;}
	.st109{clip-path:url(#SVGID_4_);fill:#99DCFA;}
	.st110{clip-path:url(#SVGID_4_);fill:#97DCFA;}
	.st111{clip-path:url(#SVGID_4_);fill:#96DBFA;}
	.st112{clip-path:url(#SVGID_4_);fill:#94DBFA;}
	.st113{clip-path:url(#SVGID_4_);fill:#93DAFA;}
	.st114{clip-path:url(#SVGID_4_);fill:#92DAFA;}
	.st115{clip-path:url(#SVGID_4_);fill:#90D9FA;}
	.st116{clip-path:url(#SVGID_4_);fill:#8FD9FA;}
	.st117{clip-path:url(#SVGID_4_);fill:#8ED8FA;}
	.st118{clip-path:url(#SVGID_4_);fill:#8CD8FA;}
	.st119{clip-path:url(#SVGID_4_);fill:#8BD7FA;}
	.st120{clip-path:url(#SVGID_4_);fill:#89D7FA;}
	.st121{clip-path:url(#SVGID_4_);fill:#88D6FA;}
	.st122{clip-path:url(#SVGID_4_);fill:#87D6FA;}
	.st123{clip-path:url(#SVGID_4_);fill:#85D5F9;}
	.st124{clip-path:url(#SVGID_4_);fill:#84D5F9;}
	.st125{clip-path:url(#SVGID_4_);fill:#82D4F9;}
	.st126{clip-path:url(#SVGID_4_);fill:#81D4F9;}
	.st127{clip-path:url(#SVGID_4_);fill:#7FD3F9;}
	.st128{clip-path:url(#SVGID_4_);fill:#7ED3F9;}
	.st129{clip-path:url(#SVGID_4_);fill:#7CD2F9;}
	.st130{clip-path:url(#SVGID_4_);fill:#7BD2F9;}
	.st131{clip-path:url(#SVGID_4_);fill:#79D1F9;}
	.st132{clip-path:url(#SVGID_4_);fill:#78D1F9;}
	.st133{clip-path:url(#SVGID_4_);fill:#76D0F9;}
	.st134{clip-path:url(#SVGID_4_);fill:#75D0F9;}
	.st135{clip-path:url(#SVGID_4_);fill:#73CFF9;}
	.st136{clip-path:url(#SVGID_4_);fill:#72CFF9;}
	.st137{clip-path:url(#SVGID_4_);fill:#70CEF9;}
	.st138{clip-path:url(#SVGID_4_);fill:#6FCEF8;}
	.st139{clip-path:url(#SVGID_4_);fill:#6DCDF8;}
	.st140{clip-path:url(#SVGID_4_);fill:#6CCDF8;}
	.st141{clip-path:url(#SVGID_4_);fill:#6ACCF8;}
	.st142{clip-path:url(#SVGID_4_);fill:#69CCF8;}
	.st143{clip-path:url(#SVGID_4_);fill:#67CBF8;}
	.st144{clip-path:url(#SVGID_4_);fill:#66CBF8;}
	.st145{clip-path:url(#SVGID_4_);fill:#64CAF8;}
	.st146{clip-path:url(#SVGID_4_);fill:#62CAF8;}
	.st147{clip-path:url(#SVGID_4_);fill:#61C9F8;}
	.st148{clip-path:url(#SVGID_4_);fill:#5FC9F8;}
	.st149{clip-path:url(#SVGID_4_);fill:#5EC8F8;}
	.st150{clip-path:url(#SVGID_4_);fill:#5CC7F8;}
	.st151{clip-path:url(#SVGID_4_);fill:#5AC7F8;}
	.st152{clip-path:url(#SVGID_4_);fill:#59C6F7;}
	.st153{clip-path:url(#SVGID_4_);fill:#57C6F7;}
	.st154{clip-path:url(#SVGID_4_);fill:#56C5F7;}
	.st155{clip-path:url(#SVGID_4_);fill:#54C5F7;}
	.st156{clip-path:url(#SVGID_4_);fill:#52C4F7;}
	.st157{clip-path:url(#SVGID_4_);fill:#51C4F7;}
	.st158{clip-path:url(#SVGID_4_);fill:#4FC3F7;}
	.st159{clip-path:url(#SVGID_7_);fill:#FFFFFF;}
	.st160{clip-path:url(#SVGID_7_);fill:#FEFFFF;}
	.st161{clip-path:url(#SVGID_7_);fill:#FDFEFF;}
	.st162{clip-path:url(#SVGID_7_);fill:#FCFEFF;}
	.st163{clip-path:url(#SVGID_7_);fill:#FBFEFF;}
	.st164{clip-path:url(#SVGID_7_);fill:#FAFDFF;}
	.st165{clip-path:url(#SVGID_7_);fill:#F9FDFF;}
	.st166{clip-path:url(#SVGID_7_);fill:#F8FDFF;}
	.st167{clip-path:url(#SVGID_7_);fill:#F7FCFF;}
	.st168{clip-path:url(#SVGID_7_);fill:#F6FCFF;}
	.st169{clip-path:url(#SVGID_7_);fill:#F5FCFF;}
	.st170{clip-path:url(#SVGID_7_);fill:#F4FBFF;}
	.st171{clip-path:url(#SVGID_7_);fill:#F4FBFE;}
	.st172{clip-path:url(#SVGID_7_);fill:#F3FBFE;}
	.st173{clip-path:url(#SVGID_7_);fill:#F2FBFE;}
	.st174{clip-path:url(#SVGID_7_);fill:#F1FAFE;}
	.st175{clip-path:url(#SVGID_7_);fill:#F0FAFE;}
	.st176{clip-path:url(#SVGID_7_);fill:#EFFAFE;}
	.st177{clip-path:url(#SVGID_7_);fill:#EEF9FE;}
	.st178{clip-path:url(#SVGID_7_);fill:#EDF9FE;}
	.st179{clip-path:url(#SVGID_7_);fill:#ECF9FE;}
	.st180{clip-path:url(#SVGID_7_);fill:#ECF8FE;}
	.st181{clip-path:url(#SVGID_7_);fill:#EBF8FE;}
	.st182{clip-path:url(#SVGID_7_);fill:#EAF8FE;}
	.st183{clip-path:url(#SVGID_7_);fill:#E9F8FE;}
	.st184{clip-path:url(#SVGID_7_);fill:#E9F7FE;}
	.st185{clip-path:url(#SVGID_7_);fill:#E8F7FE;}
	.st186{clip-path:url(#SVGID_7_);fill:#E7F7FE;}
	.st187{clip-path:url(#SVGID_7_);fill:#E6F7FE;}
	.st188{clip-path:url(#SVGID_7_);fill:#E6F6FE;}
	.st189{clip-path:url(#SVGID_7_);fill:#E5F6FE;}
	.st190{clip-path:url(#SVGID_7_);fill:#E4F6FE;}
	.st191{clip-path:url(#SVGID_7_);fill:#E3F6FE;}
	.st192{clip-path:url(#SVGID_7_);fill:#E2F5FE;}
	.st193{clip-path:url(#SVGID_7_);fill:#E1F5FE;}
	.st194{clip-path:url(#SVGID_7_);fill:#E0F4FE;}
	.st195{clip-path:url(#SVGID_7_);fill:#DFF4FE;}
	.st196{clip-path:url(#SVGID_7_);fill:#DEF4FE;}
	.st197{clip-path:url(#SVGID_7_);fill:#DDF4FD;}
	.st198{clip-path:url(#SVGID_7_);fill:#DDF3FD;}
	.st199{clip-path:url(#SVGID_7_);fill:#DCF3FD;}
	.st200{clip-path:url(#SVGID_7_);fill:#DBF3FD;}
	.st201{clip-path:url(#SVGID_7_);fill:#DAF2FD;}
	.st202{clip-path:url(#SVGID_7_);fill:#D9F2FD;}
	.st203{clip-path:url(#SVGID_7_);fill:#D8F2FD;}
	.st204{clip-path:url(#SVGID_7_);fill:#D7F1FD;}
	.st205{clip-path:url(#SVGID_7_);fill:#D6F1FD;}
	.st206{clip-path:url(#SVGID_7_);fill:#D5F1FD;}
	.st207{clip-path:url(#SVGID_7_);fill:#D4F0FD;}
	.st208{clip-path:url(#SVGID_7_);fill:#D3F0FD;}
	.st209{clip-path:url(#SVGID_7_);fill:#D2F0FD;}
	.st210{clip-path:url(#SVGID_7_);fill:#D1EFFD;}
	.st211{clip-path:url(#SVGID_7_);fill:#D0EFFD;}
	.st212{clip-path:url(#SVGID_7_);fill:#CFEFFD;}
	.st213{clip-path:url(#SVGID_7_);fill:#CEEEFD;}
	.st214{clip-path:url(#SVGID_7_);fill:#CDEEFD;}
	.st215{clip-path:url(#SVGID_7_);fill:#CCEEFD;}
	.st216{clip-path:url(#SVGID_7_);fill:#CBEDFD;}
	.st217{clip-path:url(#SVGID_7_);fill:#CAEDFD;}
	.st218{clip-path:url(#SVGID_7_);fill:#C9EDFD;}
	.st219{clip-path:url(#SVGID_7_);fill:#C8ECFD;}
	.st220{clip-path:url(#SVGID_7_);fill:#C7ECFC;}
	.st221{clip-path:url(#SVGID_7_);fill:#C6ECFC;}
	.st222{clip-path:url(#SVGID_7_);fill:#C5EBFC;}
	.st223{clip-path:url(#SVGID_7_);fill:#C4EBFC;}
	.st224{clip-path:url(#SVGID_7_);fill:#C3EBFC;}
	.st225{clip-path:url(#SVGID_7_);fill:#C2EAFC;}
	.st226{clip-path:url(#SVGID_7_);fill:#C1EAFC;}
	.st227{clip-path:url(#SVGID_7_);fill:#C0E9FC;}
	.st228{clip-path:url(#SVGID_7_);fill:#BFE9FC;}
	.st229{clip-path:url(#SVGID_7_);fill:#BEE9FC;}
	.st230{clip-path:url(#SVGID_7_);fill:#BCE8FC;}
	.st231{clip-path:url(#SVGID_7_);fill:#BBE8FC;}
	.st232{clip-path:url(#SVGID_7_);fill:#BAE8FC;}
	.st233{clip-path:url(#SVGID_7_);fill:#B9E7FC;}
	.st234{clip-path:url(#SVGID_7_);fill:#B8E7FC;}
	.st235{clip-path:url(#SVGID_7_);fill:#B7E6FC;}
	.st236{clip-path:url(#SVGID_7_);fill:#B5E6FC;}
	.st237{clip-path:url(#SVGID_7_);fill:#B4E6FC;}
	.st238{clip-path:url(#SVGID_7_);fill:#B3E5FC;}
	.st239{clip-path:url(#SVGID_7_);fill:#B2E5FB;}
	.st240{clip-path:url(#SVGID_7_);fill:#B1E4FB;}
	.st241{clip-path:url(#SVGID_7_);fill:#B0E4FB;}
	.st242{clip-path:url(#SVGID_7_);fill:#AEE3FB;}
	.st243{clip-path:url(#SVGID_7_);fill:#ADE3FB;}
	.st244{clip-path:url(#SVGID_7_);fill:#ACE3FB;}
	.st245{clip-path:url(#SVGID_7_);fill:#ABE2FB;}
	.st246{clip-path:url(#SVGID_7_);fill:#A9E2FB;}
	.st247{clip-path:url(#SVGID_7_);fill:#A8E1FB;}
	.st248{clip-path:url(#SVGID_7_);fill:#A7E1FB;}
	.st249{clip-path:url(#SVGID_7_);fill:#A6E1FB;}
	.st250{clip-path:url(#SVGID_7_);fill:#A4E0FB;}
	.st251{clip-path:url(#SVGID_7_);fill:#A3E0FB;}
	.st252{clip-path:url(#SVGID_7_);fill:#A2DFFB;}
	.st253{clip-path:url(#SVGID_7_);fill:#A0DFFB;}
	.st254{clip-path:url(#SVGID_7_);fill:#9FDEFB;}
	.st255{clip-path:url(#SVGID_7_);fill:#9EDEFB;}
	.st256{clip-path:url(#SVGID_7_);fill:#9DDDFB;}
	.st257{clip-path:url(#SVGID_7_);fill:#9BDDFA;}
	.st258{clip-path:url(#SVGID_7_);fill:#9ADDFA;}
	.st259{clip-path:url(#SVGID_7_);fill:#99DCFA;}
	.st260{clip-path:url(#SVGID_7_);fill:#97DCFA;}
	.st261{clip-path:url(#SVGID_7_);fill:#96DBFA;}
	.st262{clip-path:url(#SVGID_7_);fill:#94DBFA;}
	.st263{clip-path:url(#SVGID_7_);fill:#93DAFA;}
	.st264{clip-path:url(#SVGID_7_);fill:#92DAFA;}
	.st265{clip-path:url(#SVGID_7_);fill:#90D9FA;}
	.st266{clip-path:url(#SVGID_7_);fill:#8FD9FA;}
	.st267{clip-path:url(#SVGID_7_);fill:#8ED8FA;}
	.st268{clip-path:url(#SVGID_7_);fill:#8CD8FA;}
	.st269{clip-path:url(#SVGID_7_);fill:#8BD7FA;}
	.st270{clip-path:url(#SVGID_7_);fill:#89D7FA;}
	.st271{clip-path:url(#SVGID_7_);fill:#88D6FA;}
	.st272{clip-path:url(#SVGID_7_);fill:#87D6FA;}
	.st273{clip-path:url(#SVGID_7_);fill:#85D5F9;}
	.st274{clip-path:url(#SVGID_7_);fill:#84D5F9;}
	.st275{clip-path:url(#SVGID_7_);fill:#82D4F9;}
	.st276{clip-path:url(#SVGID_7_);fill:#81D4F9;}
	.st277{clip-path:url(#SVGID_7_);fill:#7FD3F9;}
	.st278{clip-path:url(#SVGID_7_);fill:#7ED3F9;}
	.st279{clip-path:url(#SVGID_7_);fill:#7CD2F9;}
	.st280{clip-path:url(#SVGID_7_);fill:#7BD2F9;}
	.st281{clip-path:url(#SVGID_7_);fill:#79D1F9;}
	.st282{clip-path:url(#SVGID_7_);fill:#78D1F9;}
	.st283{clip-path:url(#SVGID_7_);fill:#76D0F9;}
	.st284{clip-path:url(#SVGID_7_);fill:#75D0F9;}
	.st285{clip-path:url(#SVGID_7_);fill:#73CFF9;}
	.st286{clip-path:url(#SVGID_7_);fill:#72CFF9;}
	.st287{clip-path:url(#SVGID_7_);fill:#70CEF9;}
	.st288{clip-path:url(#SVGID_7_);fill:#6FCEF8;}
	.st289{clip-path:url(#SVGID_7_);fill:#6DCDF8;}
	.st290{clip-path:url(#SVGID_7_);fill:#6CCDF8;}
	.st291{clip-path:url(#SVGID_7_);fill:#6ACCF8;}
	.st292{clip-path:url(#SVGID_7_);fill:#69CCF8;}
	.st293{clip-path:url(#SVGID_7_);fill:#67CBF8;}
	.st294{clip-path:url(#SVGID_7_);fill:#66CBF8;}
	.st295{clip-path:url(#SVGID_7_);fill:#64CAF8;}
	.st296{clip-path:url(#SVGID_7_);fill:#62CAF8;}
	.st297{clip-path:url(#SVGID_7_);fill:#61C9F8;}
	.st298{clip-path:url(#SVGID_7_);fill:#5FC9F8;}
	.st299{clip-path:url(#SVGID_7_);fill:#5EC8F8;}
	.st300{clip-path:url(#SVGID_7_);fill:#5CC7F8;}
	.st301{clip-path:url(#SVGID_7_);fill:#5AC7F8;}
	.st302{clip-path:url(#SVGID_7_);fill:#59C6F7;}
	.st303{clip-path:url(#SVGID_7_);fill:#57C6F7;}
	.st304{clip-path:url(#SVGID_7_);fill:#56C5F7;}
	.st305{clip-path:url(#SVGID_7_);fill:#54C5F7;}
	.st306{clip-path:url(#SVGID_7_);fill:#52C4F7;}
	.st307{clip-path:url(#SVGID_7_);fill:#51C4F7;}
	.st308{clip-path:url(#SVGID_7_);fill:#4FC3F7;}
	.st309{opacity:0.4;}
	.st310{fill:#808080;}
	.st311{fill:#EEEEEE;}
	.st312{opacity:0.8;}
	.st313{fill:#B2EBF2;}
	.st314{fill:#7BC61A;}
	.st315{fill:#E0E0E0;}
	.st316{fill:#F0B27A;}
	.st317{fill:#E3724B;}
	.st318{fill:#FF5CB9;}
	.st319{fill:#FF3600;}
	.st320{fill:#FEF5E7;}
	.st321{fill:#FF4DB3;}
	.st322{fill:#FFCE00;}
	.st323{fill:#FFF176;}
	.st324{fill:#FF8CC8;}
</style>
<g>
	<g>
		<g>
			<path class="st0" d="M2347.3,2309.6c292.9-238.5,480.1-601.9,480.1-1009C2827.4,582.3,2245.1,0,1526.8,0
				S226.3,582.3,226.3,1300.6c0,407.2,187.1,770.6,480.1,1009c237-5.6,518.5-8.9,820.5-8.9S2110.4,2304,2347.3,2309.6z"/>
		</g>
		<g class="st1">
			<path class="st2" d="M1304,2239.3L1304,2239.3l-6.1,14.9l-2.8,6.9h-30l-54.8-20.8c-1.7-0.6-3.6-0.9-5.4-1l-258.7,1v-0.2v-191.3
				h55v0H1382L1304,2239.3z"/>
		</g>
		<g class="st3">
			<path class="st2" d="M3053.7,2357.5c0-31.4-683.6-56.8-1526.8-56.8S0,2326.2,0,2357.5c0,18.1,228.4,34.3,584.1,44.7
				c76.7,20.3,374.3,35.5,729.7,35.5c297.6,0,554.6-10.6,675.4-26C2606.4,2404.4,3053.7,2382.9,3053.7,2357.5z"/>
		</g>
		<g>
			<g>
				<line class="st4" x1="141.3" y1="2319.6" x2="2912.3" y2="2319.6"/>
			</g>
			<g>
				<path class="st2" d="M141.3,2314.2c0,0,10.8-1.8,31.1-4c20.3-2.2,50.1-4.6,87.9-6.1c37.9-1.3,83.9-2.1,136.7-2
					c52.8,0.1,112.3,1.2,177.2,1.3c259.8,0,606.2,0,952.5,0c346.4,0,692.7,0,952.5,0c64.9,0,124.5,0,177.2,0
					c26.4-0.1,51.1-0.6,73.9-1c22.8-0.4,43.8-0.3,62.7,0.2c18.9,0.5,35.9,1.2,50.6,2.4c14.7,1.1,27.2,2.5,37.4,3.8
					c20.3,2.7,31.1,5.3,31.1,5.3c3,0.7,4.8,3.7,4.1,6.7c-0.5,2.1-2.1,3.6-4.1,4.1c0,0-10.8,2.6-31.1,5.3
					c-10.1,1.3-22.7,2.7-37.4,3.8c-14.7,1.1-31.6,1.9-50.6,2.4c-18.9,0.5-39.9,0.6-62.7,0.2c-22.8-0.3-47.5-0.9-73.9-1
					c-52.8,0-112.3,0-177.2,0c-259.8,0-606.2,0-952.5,0c-346.4,0-692.7,0-952.5,0c-64.9,0-124.5,1.1-177.2,1.3
					c-52.8,0.1-98.8-0.7-136.7-2c-37.9-1.4-67.7-3.9-87.9-6.1c-20.3-2.2-31.1-4-31.1-4c-3-0.5-5-3.3-4.5-6.3
					C137.3,2316.4,139.1,2314.6,141.3,2314.2z"/>
			</g>
		</g>
		<g>
			<g>
				<g>
					<polygon class="st5" points="1792.3,1960.1 1589.1,1960.1 1570,1960.1 1366.8,1960.1 1236.5,2278.4 1570,2278.4 1589.1,2278.4 
						1922.7,2278.4 					"/>
					<path class="st2" d="M1922.7,2295.9h-686.2c-5.8,0-11.3-2.9-14.5-7.7c-3.3-4.8-3.9-11-1.7-16.4l130.3-318.3
						c2.7-6.6,9.1-10.9,16.2-10.9h425.5c7.1,0,13.5,4.3,16.2,10.9l130.3,318.3c2.2,5.4,1.6,11.5-1.7,16.4
						C1933.9,2293,1928.5,2295.9,1922.7,2295.9z M1262.5,2260.9h634.1l-116-283.3h-402L1262.5,2260.9z"/>
				</g>
				<g class="st1">
					<polygon class="st2" points="1792.3,1960.1 1589.1,1960.1 1570,1960.1 1366.8,1960.1 1236.5,2278.4 1570,2278.4 1589.1,2278.4 
						1922.7,2278.4 					"/>
				</g>
				<g class="st6">
					<polygon class="st7" points="1378.5,1977.6 1262.5,2260.9 1302.5,2260.9 1418.5,1977.6 					"/>
				</g>
				<g>
					<path class="st5" d="M2082.5,2308.8H1076.6c-21.1,0-38.2-17.1-38.2-38.2v-6.2c0-21.1,17.1-38.2,38.2-38.2h1005.9
						c21.1,0,38.2,17.1,38.2,38.2v6.2C2120.7,2291.7,2103.6,2308.8,2082.5,2308.8z"/>
					<path class="st2" d="M2082.5,2323.8H1076.6c-29.4,0-53.2-23.9-53.2-53.2v-6.2c0-29.4,23.9-53.2,53.2-53.2h1005.9
						c29.4,0,53.2,23.9,53.2,53.2v6.2C2135.7,2299.9,2111.9,2323.8,2082.5,2323.8z M1076.6,2241.1c-12.8,0-23.2,10.4-23.2,23.2v6.2
						c0,12.8,10.4,23.2,23.2,23.2h1005.9c12.8,0,23.2-10.4,23.2-23.2v-6.2c0-12.8-10.4-23.2-23.2-23.2H1076.6z"/>
				</g>
				<g class="st6">
					<path class="st7" d="M1058.4,2279.4c0-12.8,10.4-23.2,23.2-23.2h1005.9c7.4,0,14,3.6,18.2,9v-0.8c0-12.8-10.4-23.2-23.2-23.2
						H1076.6c-12.8,0-23.2,10.4-23.2,23.2v6.2c0,5.4,1.9,10.3,5,14.2V2279.4z"/>
				</g>
				<g class="st1">
					<path class="st2" d="M1838.4,2231.1c0,0-260,75-750,55v26.8c0,0,1029.7,7.2,1022.5,0c-7.2-7.2,10-49.3,10-49.3l-22.8-36.2
						L1838.4,2231.1z"/>
				</g>
				<g>
					<path class="st2" d="M2435.9,1998.8H744.4c-81.6,0-148-66.4-148-148V817.2c0-81.6,66.4-148,148-148h1691.5
						c81.6,0,148,66.4,148,148v1033.6C2583.9,1932.4,2517.5,1998.8,2435.9,1998.8z M744.4,704.2c-62.3,0-113,50.7-113,113v1033.6
						c0,62.3,50.7,113,113,113h1691.5c62.3,0,113-50.7,113-113V817.2c0-62.3-50.7-113-113-113H744.4z"/>
				</g>
				<g>
					<defs>
						<path id="SVGID_1_" d="M2548.9,817.2c0-62.3-50.7-113-113-113H744.4c-62.3,0-113,50.7-113,113v923.5h1917.5V817.2z"/>
					</defs>
					<use xlink:href="#SVGID_1_"  style="overflow:visible;fill:#29C5FF;"/>
					<clipPath id="SVGID_2_">
						<use xlink:href="#SVGID_1_"  style="overflow:visible;"/>
					</clipPath>
					<g class="st8">
						<g>
							<defs>
								
									<rect id="SVGID_3_" x="1038.7" y="284.4" transform="matrix(0.7916 0.611 -0.611 0.7916 906.9581 -504.3351)" width="308.3" height="1586"/>
							</defs>
							<clipPath id="SVGID_4_">
								<use xlink:href="#SVGID_3_"  style="overflow:visible;"/>
							</clipPath>
							<polygon class="st9" points="1555.4,355.5 586.2,355.5 586.2,355.5 							"/>
							<polygon class="st9" points="1799.4,363.7 586.2,363.7 586.2,355.5 1555.4,355.5 1799.4,355.5 							"/>
							<rect x="586.2" y="363.7" class="st9" width="1213.2" height="8.2"/>
							<rect x="586.2" y="371.9" class="st9" width="1213.2" height="8.2"/>
							<rect x="586.2" y="380.1" class="st9" width="1213.2" height="8.2"/>
							<rect x="586.2" y="388.3" class="st9" width="1213.2" height="8.2"/>
							<rect x="586.2" y="396.5" class="st10" width="1213.2" height="8.2"/>
							<rect x="586.2" y="404.7" class="st10" width="1213.2" height="8.2"/>
							<rect x="586.2" y="412.9" class="st10" width="1213.2" height="8.2"/>
							<rect x="586.2" y="421.1" class="st10" width="1213.2" height="8.2"/>
							<rect x="586.2" y="429.3" class="st10" width="1213.2" height="8.2"/>
							<rect x="586.2" y="437.5" class="st11" width="1213.2" height="8.2"/>
							<rect x="586.2" y="445.7" class="st11" width="1213.2" height="8.2"/>
							<rect x="586.2" y="453.9" class="st11" width="1213.2" height="8.2"/>
							<rect x="586.2" y="462.1" class="st11" width="1213.2" height="8.2"/>
							<rect x="586.2" y="470.4" class="st12" width="1213.2" height="8.2"/>
							<rect x="586.2" y="478.6" class="st12" width="1213.2" height="8.2"/>
							<rect x="586.2" y="486.8" class="st12" width="1213.2" height="8.2"/>
							<rect x="586.2" y="495" class="st13" width="1213.2" height="8.2"/>
							<rect x="586.2" y="503.2" class="st13" width="1213.2" height="8.2"/>
							<rect x="586.2" y="511.4" class="st14" width="1213.2" height="8.2"/>
							<rect x="586.2" y="519.6" class="st14" width="1213.2" height="8.2"/>
							<rect x="586.2" y="527.8" class="st14" width="1213.2" height="8.2"/>
							<rect x="586.2" y="536" class="st15" width="1213.2" height="8.2"/>
							<rect x="586.2" y="544.2" class="st15" width="1213.2" height="8.2"/>
							<rect x="586.2" y="552.4" class="st16" width="1213.2" height="8.2"/>
							<rect x="586.2" y="560.6" class="st16" width="1213.2" height="8.2"/>
							<rect x="586.2" y="568.8" class="st17" width="1213.2" height="8.2"/>
							<rect x="586.2" y="577" class="st17" width="1213.2" height="8.2"/>
							<rect x="586.2" y="585.2" class="st18" width="1213.2" height="8.2"/>
							<rect x="586.2" y="593.4" class="st18" width="1213.2" height="8.2"/>
							<rect x="586.2" y="601.6" class="st19" width="1213.2" height="8.2"/>
							<rect x="586.2" y="609.8" class="st19" width="1213.2" height="8.2"/>
							<rect x="586.2" y="618" class="st20" width="1213.2" height="8.2"/>
							<rect x="586.2" y="626.2" class="st21" width="1213.2" height="8.2"/>
							<rect x="586.2" y="634.4" class="st22" width="1213.2" height="8.2"/>
							<rect x="586.2" y="642.6" class="st22" width="1213.2" height="8.2"/>
							<rect x="586.2" y="650.8" class="st23" width="1213.2" height="8.2"/>
							<rect x="586.2" y="659" class="st24" width="1213.2" height="8.2"/>
							<rect x="586.2" y="667.2" class="st24" width="1213.2" height="8.2"/>
							<rect x="586.2" y="675.4" class="st25" width="1213.2" height="8.2"/>
							<rect x="586.2" y="683.7" class="st25" width="1213.2" height="8.2"/>
							<rect x="586.2" y="691.9" class="st26" width="1213.2" height="8.2"/>
							<rect x="586.2" y="700.1" class="st27" width="1213.2" height="8.2"/>
							<rect x="586.2" y="708.3" class="st27" width="1213.2" height="8.2"/>
							<rect x="586.2" y="716.5" class="st28" width="1213.2" height="8.2"/>
							<rect x="586.2" y="724.7" class="st29" width="1213.2" height="8.2"/>
							<rect x="586.2" y="732.9" class="st30" width="1213.2" height="8.2"/>
							<rect x="586.2" y="741.1" class="st31" width="1213.2" height="8.2"/>
							<rect x="586.2" y="749.3" class="st32" width="1213.2" height="8.2"/>
							<rect x="586.2" y="757.5" class="st33" width="1213.2" height="8.2"/>
							<rect x="586.2" y="765.7" class="st34" width="1213.2" height="8.2"/>
							<rect x="586.2" y="773.9" class="st35" width="1213.2" height="8.2"/>
							<rect x="586.2" y="782.1" class="st36" width="1213.2" height="8.2"/>
							<rect x="586.2" y="790.3" class="st37" width="1213.2" height="8.2"/>
							<rect x="586.2" y="798.5" class="st38" width="1213.2" height="8.2"/>
							<rect x="586.2" y="806.7" class="st39" width="1213.2" height="8.2"/>
							<rect x="586.2" y="814.9" class="st40" width="1213.2" height="8.2"/>
							<rect x="586.2" y="823.1" class="st41" width="1213.2" height="8.2"/>
							<rect x="586.2" y="831.3" class="st42" width="1213.2" height="8.2"/>
							<rect x="586.2" y="839.5" class="st42" width="1213.2" height="8.2"/>
							<rect x="586.2" y="847.7" class="st43" width="1213.2" height="8.2"/>
							<rect x="586.2" y="855.9" class="st44" width="1213.2" height="8.2"/>
							<rect x="586.2" y="864.1" class="st45" width="1213.2" height="8.2"/>
							<rect x="586.2" y="872.3" class="st46" width="1213.2" height="8.2"/>
							<rect x="586.2" y="880.5" class="st47" width="1213.2" height="8.2"/>
							<rect x="586.2" y="888.8" class="st48" width="1213.2" height="8.2"/>
							<rect x="586.2" y="897" class="st49" width="1213.2" height="8.2"/>
							<rect x="586.2" y="905.2" class="st50" width="1213.2" height="8.2"/>
							<rect x="586.2" y="913.4" class="st51" width="1213.2" height="8.2"/>
							<rect x="586.2" y="921.6" class="st52" width="1213.2" height="8.2"/>
							<rect x="586.2" y="929.8" class="st53" width="1213.2" height="8.2"/>
							<rect x="586.2" y="938" class="st54" width="1213.2" height="8.2"/>
							<rect x="586.2" y="946.2" class="st55" width="1213.2" height="8.2"/>
							<rect x="586.2" y="954.4" class="st56" width="1213.2" height="8.2"/>
							<rect x="586.2" y="962.6" class="st57" width="1213.2" height="8.2"/>
							<rect x="586.2" y="970.8" class="st58" width="1213.2" height="8.2"/>
							<rect x="586.2" y="979" class="st59" width="1213.2" height="8.2"/>
							<rect x="586.2" y="987.2" class="st60" width="1213.2" height="8.2"/>
							<rect x="586.2" y="995.4" class="st61" width="1213.2" height="8.2"/>
							<rect x="586.2" y="1003.6" class="st62" width="1213.2" height="8.2"/>
							<rect x="586.2" y="1011.8" class="st63" width="1213.2" height="8.2"/>
							<rect x="586.2" y="1020" class="st64" width="1213.2" height="8.2"/>
							<rect x="586.2" y="1028.2" class="st65" width="1213.2" height="8.2"/>
							<rect x="586.2" y="1036.4" class="st66" width="1213.2" height="8.2"/>
							<rect x="586.2" y="1044.6" class="st67" width="1213.2" height="8.2"/>
							<rect x="586.2" y="1052.8" class="st68" width="1213.2" height="8.2"/>
							<rect x="586.2" y="1061" class="st69" width="1213.2" height="8.2"/>
							<rect x="586.2" y="1069.2" class="st70" width="1213.2" height="8.2"/>
							<rect x="586.2" y="1077.4" class="st71" width="1213.2" height="8.2"/>
							<rect x="586.2" y="1085.6" class="st72" width="1213.2" height="8.2"/>
							<rect x="586.2" y="1093.9" class="st73" width="1213.2" height="8.2"/>
							<rect x="586.2" y="1102.1" class="st74" width="1213.2" height="8.2"/>
							<rect x="586.2" y="1110.3" class="st75" width="1213.2" height="8.2"/>
							<rect x="586.2" y="1118.5" class="st76" width="1213.2" height="8.2"/>
							<rect x="586.2" y="1126.7" class="st77" width="1213.2" height="8.2"/>
							<rect x="586.2" y="1134.9" class="st78" width="1213.2" height="8.2"/>
							<rect x="586.2" y="1143.1" class="st79" width="1213.2" height="8.2"/>
							<rect x="586.2" y="1151.3" class="st80" width="1213.2" height="8.2"/>
							<rect x="586.2" y="1159.5" class="st81" width="1213.2" height="8.2"/>
							<rect x="586.2" y="1167.7" class="st82" width="1213.2" height="8.2"/>
							<rect x="586.2" y="1175.9" class="st83" width="1213.2" height="8.2"/>
							<rect x="586.2" y="1184.1" class="st84" width="1213.2" height="8.2"/>
							<rect x="586.2" y="1192.3" class="st85" width="1213.2" height="8.2"/>
							<rect x="586.2" y="1200.5" class="st86" width="1213.2" height="8.2"/>
							<rect x="586.2" y="1208.7" class="st87" width="1213.2" height="8.2"/>
							<rect x="586.2" y="1216.9" class="st88" width="1213.2" height="8.2"/>
							<rect x="586.2" y="1225.1" class="st89" width="1213.2" height="8.2"/>
							<rect x="586.2" y="1233.3" class="st90" width="1213.2" height="8.2"/>
							<rect x="586.2" y="1241.5" class="st91" width="1213.2" height="8.2"/>
							<rect x="586.2" y="1249.7" class="st92" width="1213.2" height="8.2"/>
							<rect x="586.2" y="1257.9" class="st93" width="1213.2" height="8.2"/>
							<rect x="586.2" y="1266.1" class="st94" width="1213.2" height="8.2"/>
							<rect x="586.2" y="1274.3" class="st95" width="1213.2" height="8.2"/>
							<rect x="586.2" y="1282.5" class="st96" width="1213.2" height="8.2"/>
							<rect x="586.2" y="1290.7" class="st97" width="1213.2" height="8.2"/>
							<rect x="586.2" y="1299" class="st98" width="1213.2" height="8.2"/>
							<rect x="586.2" y="1307.2" class="st99" width="1213.2" height="8.2"/>
							<rect x="586.2" y="1315.4" class="st100" width="1213.2" height="8.2"/>
							<rect x="586.2" y="1323.6" class="st101" width="1213.2" height="8.2"/>
							<rect x="586.2" y="1331.8" class="st102" width="1213.2" height="8.2"/>
							<rect x="586.2" y="1340" class="st103" width="1213.2" height="8.2"/>
							<rect x="586.2" y="1348.2" class="st104" width="1213.2" height="8.2"/>
							<rect x="586.2" y="1356.4" class="st105" width="1213.2" height="8.2"/>
							<rect x="586.2" y="1364.6" class="st106" width="1213.2" height="8.2"/>
							<rect x="586.2" y="1372.8" class="st107" width="1213.2" height="8.2"/>
							<rect x="586.2" y="1381" class="st108" width="1213.2" height="8.2"/>
							<rect x="586.2" y="1389.2" class="st109" width="1213.2" height="8.2"/>
							<rect x="586.2" y="1397.4" class="st110" width="1213.2" height="8.2"/>
							<rect x="586.2" y="1405.6" class="st111" width="1213.2" height="8.2"/>
							<rect x="586.2" y="1413.8" class="st112" width="1213.2" height="8.2"/>
							<rect x="586.2" y="1422" class="st113" width="1213.2" height="8.2"/>
							<rect x="586.2" y="1430.2" class="st114" width="1213.2" height="8.2"/>
							<rect x="586.2" y="1438.4" class="st115" width="1213.2" height="8.2"/>
							<rect x="586.2" y="1446.6" class="st116" width="1213.2" height="8.2"/>
							<rect x="586.2" y="1454.8" class="st117" width="1213.2" height="8.2"/>
							<rect x="586.2" y="1463" class="st118" width="1213.2" height="8.2"/>
							<rect x="586.2" y="1471.2" class="st119" width="1213.2" height="8.2"/>
							<rect x="586.2" y="1479.4" class="st120" width="1213.2" height="8.2"/>
							<rect x="586.2" y="1487.6" class="st121" width="1213.2" height="8.2"/>
							<rect x="586.2" y="1495.8" class="st122" width="1213.2" height="8.2"/>
							<rect x="586.2" y="1504" class="st123" width="1213.2" height="8.2"/>
							<rect x="586.2" y="1512.3" class="st124" width="1213.2" height="8.2"/>
							<rect x="586.2" y="1520.5" class="st125" width="1213.2" height="8.2"/>
							<rect x="586.2" y="1528.7" class="st126" width="1213.2" height="8.2"/>
							<rect x="586.2" y="1536.9" class="st127" width="1213.2" height="8.2"/>
							<rect x="586.2" y="1545.1" class="st128" width="1213.2" height="8.2"/>
							<rect x="586.2" y="1553.3" class="st129" width="1213.2" height="8.2"/>
							<rect x="586.2" y="1561.5" class="st130" width="1213.2" height="8.2"/>
							<rect x="586.2" y="1569.7" class="st131" width="1213.2" height="8.2"/>
							<rect x="586.2" y="1577.9" class="st132" width="1213.2" height="8.2"/>
							<rect x="586.2" y="1586.1" class="st133" width="1213.2" height="8.2"/>
							<rect x="586.2" y="1594.3" class="st134" width="1213.2" height="8.2"/>
							<rect x="586.2" y="1602.5" class="st135" width="1213.2" height="8.2"/>
							<rect x="586.2" y="1610.7" class="st136" width="1213.2" height="8.2"/>
							<rect x="586.2" y="1618.9" class="st137" width="1213.2" height="8.2"/>
							<rect x="586.2" y="1627.1" class="st138" width="1213.2" height="8.2"/>
							<rect x="586.2" y="1635.3" class="st139" width="1213.2" height="8.2"/>
							<rect x="586.2" y="1643.5" class="st140" width="1213.2" height="8.2"/>
							<rect x="586.2" y="1651.7" class="st141" width="1213.2" height="8.2"/>
							<rect x="586.2" y="1659.9" class="st142" width="1213.2" height="8.2"/>
							<rect x="586.2" y="1668.1" class="st143" width="1213.2" height="8.2"/>
							<rect x="586.2" y="1676.3" class="st144" width="1213.2" height="8.2"/>
							<rect x="586.2" y="1684.5" class="st145" width="1213.2" height="8.2"/>
							<rect x="586.2" y="1692.7" class="st146" width="1213.2" height="8.2"/>
							<rect x="586.2" y="1700.9" class="st147" width="1213.2" height="8.2"/>
							<rect x="586.2" y="1709.1" class="st148" width="1213.2" height="8.2"/>
							<rect x="586.2" y="1717.4" class="st149" width="1213.2" height="8.2"/>
							<rect x="586.2" y="1725.6" class="st150" width="1213.2" height="8.2"/>
							<rect x="586.2" y="1733.8" class="st151" width="1213.2" height="8.2"/>
							<rect x="586.2" y="1742" class="st152" width="1213.2" height="8.2"/>
							<rect x="586.2" y="1750.2" class="st153" width="1213.2" height="8.2"/>
							<rect x="586.2" y="1758.4" class="st154" width="1213.2" height="8.2"/>
							<rect x="586.2" y="1766.6" class="st155" width="1213.2" height="8.2"/>
							<rect x="586.2" y="1774.8" class="st156" width="1213.2" height="8.2"/>
							<rect x="586.2" y="1783" class="st157" width="1213.2" height="8.2"/>
							<polygon class="st158" points="1799.4,1799.4 830.3,1799.4 586.2,1799.4 586.2,1791.2 1799.4,1791.2 							"/>
							<polygon class="st158" points="830.3,1799.4 1799.4,1799.4 1799.4,1799.4 							"/>
						</g>
					</g>
					<g class="st8">
						<g>
							<defs>
								
									<rect id="SVGID_6_" x="1506" y="435.8" transform="matrix(0.7916 0.611 -0.611 0.7916 1142.8792 -697.7609)" width="176.8" height="1781.6"/>
							</defs>
							<clipPath id="SVGID_7_">
								<use xlink:href="#SVGID_6_"  style="overflow:visible;"/>
							</clipPath>
							<polygon class="st159" points="2068.7,567.4 980.1,567.4 980.1,567.4 							"/>
							<polygon class="st159" points="2208.6,576.1 980.1,576.1 980.1,567.4 2068.7,567.4 2208.6,567.4 							"/>
							<rect x="980.1" y="576.1" class="st159" width="1228.6" height="8.6"/>
							<rect x="980.1" y="584.7" class="st159" width="1228.6" height="8.6"/>
							<rect x="980.1" y="593.3" class="st159" width="1228.6" height="8.6"/>
							<rect x="980.1" y="601.9" class="st159" width="1228.6" height="8.6"/>
							<rect x="980.1" y="610.6" class="st160" width="1228.6" height="8.6"/>
							<rect x="980.1" y="619.2" class="st160" width="1228.6" height="8.6"/>
							<rect x="980.1" y="627.8" class="st160" width="1228.6" height="8.6"/>
							<rect x="980.1" y="636.5" class="st160" width="1228.6" height="8.6"/>
							<rect x="980.1" y="645.1" class="st160" width="1228.6" height="8.6"/>
							<rect x="980.1" y="653.7" class="st161" width="1228.6" height="8.6"/>
							<rect x="980.1" y="662.3" class="st161" width="1228.6" height="8.6"/>
							<rect x="980.1" y="671" class="st161" width="1228.6" height="8.6"/>
							<rect x="980.1" y="679.6" class="st161" width="1228.6" height="8.6"/>
							<rect x="980.1" y="688.2" class="st162" width="1228.6" height="8.6"/>
							<rect x="980.1" y="696.8" class="st162" width="1228.6" height="8.6"/>
							<rect x="980.1" y="705.5" class="st162" width="1228.6" height="8.6"/>
							<rect x="980.1" y="714.1" class="st163" width="1228.6" height="8.6"/>
							<rect x="980.1" y="722.7" class="st163" width="1228.6" height="8.6"/>
							<rect x="980.1" y="731.3" class="st164" width="1228.6" height="8.6"/>
							<rect x="980.1" y="740" class="st164" width="1228.6" height="8.6"/>
							<rect x="980.1" y="748.6" class="st164" width="1228.6" height="8.6"/>
							<rect x="980.1" y="757.2" class="st165" width="1228.6" height="8.6"/>
							<rect x="980.1" y="765.9" class="st165" width="1228.6" height="8.6"/>
							<rect x="980.1" y="774.5" class="st166" width="1228.6" height="8.6"/>
							<rect x="980.1" y="783.1" class="st166" width="1228.6" height="8.6"/>
							<rect x="980.1" y="791.7" class="st167" width="1228.6" height="8.6"/>
							<rect x="980.1" y="800.4" class="st167" width="1228.6" height="8.6"/>
							<rect x="980.1" y="809" class="st168" width="1228.6" height="8.6"/>
							<rect x="980.1" y="817.6" class="st168" width="1228.6" height="8.6"/>
							<rect x="980.1" y="826.2" class="st169" width="1228.6" height="8.6"/>
							<rect x="980.1" y="834.9" class="st169" width="1228.6" height="8.6"/>
							<rect x="980.1" y="843.5" class="st170" width="1228.6" height="8.6"/>
							<rect x="980.1" y="852.1" class="st171" width="1228.6" height="8.6"/>
							<rect x="980.1" y="860.7" class="st172" width="1228.6" height="8.6"/>
							<rect x="980.1" y="869.4" class="st172" width="1228.6" height="8.6"/>
							<rect x="980.1" y="878" class="st173" width="1228.6" height="8.6"/>
							<rect x="980.1" y="886.6" class="st174" width="1228.6" height="8.6"/>
							<rect x="980.1" y="895.3" class="st174" width="1228.6" height="8.6"/>
							<rect x="980.1" y="903.9" class="st175" width="1228.6" height="8.6"/>
							<rect x="980.1" y="912.5" class="st175" width="1228.6" height="8.6"/>
							<rect x="980.1" y="921.1" class="st176" width="1228.6" height="8.6"/>
							<rect x="980.1" y="929.8" class="st177" width="1228.6" height="8.6"/>
							<rect x="980.1" y="938.4" class="st177" width="1228.6" height="8.6"/>
							<rect x="980.1" y="947" class="st178" width="1228.6" height="8.6"/>
							<rect x="980.1" y="955.6" class="st179" width="1228.6" height="8.6"/>
							<rect x="980.1" y="964.3" class="st180" width="1228.6" height="8.6"/>
							<rect x="980.1" y="972.9" class="st181" width="1228.6" height="8.6"/>
							<rect x="980.1" y="981.5" class="st182" width="1228.6" height="8.6"/>
							<rect x="980.1" y="990.2" class="st183" width="1228.6" height="8.6"/>
							<rect x="980.1" y="998.8" class="st184" width="1228.6" height="8.6"/>
							<rect x="980.1" y="1007.4" class="st185" width="1228.6" height="8.6"/>
							<rect x="980.1" y="1016" class="st186" width="1228.6" height="8.6"/>
							<rect x="980.1" y="1024.7" class="st187" width="1228.6" height="8.6"/>
							<rect x="980.1" y="1033.3" class="st188" width="1228.6" height="8.6"/>
							<rect x="980.1" y="1041.9" class="st189" width="1228.6" height="8.6"/>
							<rect x="980.1" y="1050.5" class="st190" width="1228.6" height="8.6"/>
							<rect x="980.1" y="1059.2" class="st191" width="1228.6" height="8.6"/>
							<rect x="980.1" y="1067.8" class="st192" width="1228.6" height="8.6"/>
							<rect x="980.1" y="1076.4" class="st192" width="1228.6" height="8.6"/>
							<rect x="980.1" y="1085" class="st193" width="1228.6" height="8.6"/>
							<rect x="980.1" y="1093.7" class="st194" width="1228.6" height="8.6"/>
							<rect x="980.1" y="1102.3" class="st195" width="1228.6" height="8.6"/>
							<rect x="980.1" y="1110.9" class="st196" width="1228.6" height="8.6"/>
							<rect x="980.1" y="1119.6" class="st197" width="1228.6" height="8.6"/>
							<rect x="980.1" y="1128.2" class="st198" width="1228.6" height="8.6"/>
							<rect x="980.1" y="1136.8" class="st199" width="1228.6" height="8.6"/>
							<rect x="980.1" y="1145.4" class="st200" width="1228.6" height="8.6"/>
							<rect x="980.1" y="1154.1" class="st201" width="1228.6" height="8.6"/>
							<rect x="980.1" y="1162.7" class="st202" width="1228.6" height="8.6"/>
							<rect x="980.1" y="1171.3" class="st203" width="1228.6" height="8.6"/>
							<rect x="980.1" y="1179.9" class="st204" width="1228.6" height="8.6"/>
							<rect x="980.1" y="1188.6" class="st205" width="1228.6" height="8.6"/>
							<rect x="980.1" y="1197.2" class="st206" width="1228.6" height="8.6"/>
							<rect x="980.1" y="1205.8" class="st207" width="1228.6" height="8.6"/>
							<rect x="980.1" y="1214.4" class="st208" width="1228.6" height="8.6"/>
							<rect x="980.1" y="1223.1" class="st209" width="1228.6" height="8.6"/>
							<rect x="980.1" y="1231.7" class="st210" width="1228.6" height="8.6"/>
							<rect x="980.1" y="1240.3" class="st211" width="1228.6" height="8.6"/>
							<rect x="980.1" y="1249" class="st212" width="1228.6" height="8.6"/>
							<rect x="980.1" y="1257.6" class="st213" width="1228.6" height="8.6"/>
							<rect x="980.1" y="1266.2" class="st214" width="1228.6" height="8.6"/>
							<rect x="980.1" y="1274.8" class="st215" width="1228.6" height="8.6"/>
							<rect x="980.1" y="1283.5" class="st216" width="1228.6" height="8.6"/>
							<rect x="980.1" y="1292.1" class="st217" width="1228.6" height="8.6"/>
							<rect x="980.1" y="1300.7" class="st218" width="1228.6" height="8.6"/>
							<rect x="980.1" y="1309.3" class="st219" width="1228.6" height="8.6"/>
							<rect x="980.1" y="1318" class="st220" width="1228.6" height="8.6"/>
							<rect x="980.1" y="1326.6" class="st221" width="1228.6" height="8.6"/>
							<rect x="980.1" y="1335.2" class="st222" width="1228.6" height="8.6"/>
							<rect x="980.1" y="1343.8" class="st223" width="1228.6" height="8.6"/>
							<rect x="980.1" y="1352.5" class="st224" width="1228.6" height="8.6"/>
							<rect x="980.1" y="1361.1" class="st225" width="1228.6" height="8.6"/>
							<rect x="980.1" y="1369.7" class="st226" width="1228.6" height="8.6"/>
							<rect x="980.1" y="1378.4" class="st227" width="1228.6" height="8.6"/>
							<rect x="980.1" y="1387" class="st228" width="1228.6" height="8.6"/>
							<rect x="980.1" y="1395.6" class="st229" width="1228.6" height="8.6"/>
							<rect x="980.1" y="1404.2" class="st230" width="1228.6" height="8.6"/>
							<rect x="980.1" y="1412.9" class="st231" width="1228.6" height="8.6"/>
							<rect x="980.1" y="1421.5" class="st232" width="1228.6" height="8.6"/>
							<rect x="980.1" y="1430.1" class="st233" width="1228.6" height="8.6"/>
							<rect x="980.1" y="1438.7" class="st234" width="1228.6" height="8.6"/>
							<rect x="980.1" y="1447.4" class="st235" width="1228.6" height="8.6"/>
							<rect x="980.1" y="1456" class="st236" width="1228.6" height="8.6"/>
							<rect x="980.1" y="1464.6" class="st237" width="1228.6" height="8.6"/>
							<rect x="980.1" y="1473.2" class="st238" width="1228.6" height="8.6"/>
							<rect x="980.1" y="1481.9" class="st239" width="1228.6" height="8.6"/>
							<rect x="980.1" y="1490.5" class="st240" width="1228.6" height="8.6"/>
							<rect x="980.1" y="1499.1" class="st241" width="1228.6" height="8.6"/>
							<rect x="980.1" y="1507.8" class="st242" width="1228.6" height="8.6"/>
							<rect x="980.1" y="1516.4" class="st243" width="1228.6" height="8.6"/>
							<rect x="980.1" y="1525" class="st244" width="1228.6" height="8.6"/>
							<rect x="980.1" y="1533.6" class="st245" width="1228.6" height="8.6"/>
							<rect x="980.1" y="1542.3" class="st246" width="1228.6" height="8.6"/>
							<rect x="980.1" y="1550.9" class="st247" width="1228.6" height="8.6"/>
							<rect x="980.1" y="1559.5" class="st248" width="1228.6" height="8.6"/>
							<rect x="980.1" y="1568.1" class="st249" width="1228.6" height="8.6"/>
							<rect x="980.1" y="1576.8" class="st250" width="1228.6" height="8.6"/>
							<rect x="980.1" y="1585.4" class="st251" width="1228.6" height="8.6"/>
							<rect x="980.1" y="1594" class="st252" width="1228.6" height="8.6"/>
							<rect x="980.1" y="1602.7" class="st253" width="1228.6" height="8.6"/>
							<rect x="980.1" y="1611.3" class="st254" width="1228.6" height="8.6"/>
							<rect x="980.1" y="1619.9" class="st255" width="1228.6" height="8.6"/>
							<rect x="980.1" y="1628.5" class="st256" width="1228.6" height="8.6"/>
							<rect x="980.1" y="1637.2" class="st257" width="1228.6" height="8.6"/>
							<rect x="980.1" y="1645.8" class="st258" width="1228.6" height="8.6"/>
							<rect x="980.1" y="1654.4" class="st259" width="1228.6" height="8.6"/>
							<rect x="980.1" y="1663" class="st260" width="1228.6" height="8.6"/>
							<rect x="980.1" y="1671.7" class="st261" width="1228.6" height="8.6"/>
							<rect x="980.1" y="1680.3" class="st262" width="1228.6" height="8.6"/>
							<rect x="980.1" y="1688.9" class="st263" width="1228.6" height="8.6"/>
							<rect x="980.1" y="1697.5" class="st264" width="1228.6" height="8.6"/>
							<rect x="980.1" y="1706.2" class="st265" width="1228.6" height="8.6"/>
							<rect x="980.1" y="1714.8" class="st266" width="1228.6" height="8.6"/>
							<rect x="980.1" y="1723.4" class="st267" width="1228.6" height="8.6"/>
							<rect x="980.1" y="1732.1" class="st268" width="1228.6" height="8.6"/>
							<rect x="980.1" y="1740.7" class="st269" width="1228.6" height="8.6"/>
							<rect x="980.1" y="1749.3" class="st270" width="1228.6" height="8.6"/>
							<rect x="980.1" y="1757.9" class="st271" width="1228.6" height="8.6"/>
							<rect x="980.1" y="1766.6" class="st272" width="1228.6" height="8.6"/>
							<rect x="980.1" y="1775.2" class="st273" width="1228.6" height="8.6"/>
							<rect x="980.1" y="1783.8" class="st274" width="1228.6" height="8.6"/>
							<rect x="980.1" y="1792.4" class="st275" width="1228.6" height="8.6"/>
							<rect x="980.1" y="1801.1" class="st276" width="1228.6" height="8.6"/>
							<rect x="980.1" y="1809.7" class="st277" width="1228.6" height="8.6"/>
							<rect x="980.1" y="1818.3" class="st278" width="1228.6" height="8.6"/>
							<rect x="980.1" y="1826.9" class="st279" width="1228.6" height="8.6"/>
							<rect x="980.1" y="1835.6" class="st280" width="1228.6" height="8.6"/>
							<rect x="980.1" y="1844.2" class="st281" width="1228.6" height="8.6"/>
							<rect x="980.1" y="1852.8" class="st282" width="1228.6" height="8.6"/>
							<rect x="980.1" y="1861.5" class="st283" width="1228.6" height="8.6"/>
							<rect x="980.1" y="1870.1" class="st284" width="1228.6" height="8.6"/>
							<rect x="980.1" y="1878.7" class="st285" width="1228.6" height="8.6"/>
							<rect x="980.1" y="1887.3" class="st286" width="1228.6" height="8.6"/>
							<rect x="980.1" y="1896" class="st287" width="1228.6" height="8.6"/>
							<rect x="980.1" y="1904.6" class="st288" width="1228.6" height="8.6"/>
							<rect x="980.1" y="1913.2" class="st289" width="1228.6" height="8.6"/>
							<rect x="980.1" y="1921.8" class="st290" width="1228.6" height="8.6"/>
							<rect x="980.1" y="1930.5" class="st291" width="1228.6" height="8.6"/>
							<rect x="980.1" y="1939.1" class="st292" width="1228.6" height="8.6"/>
							<rect x="980.1" y="1947.7" class="st293" width="1228.6" height="8.6"/>
							<rect x="980.1" y="1956.3" class="st294" width="1228.6" height="8.6"/>
							<rect x="980.1" y="1965" class="st295" width="1228.6" height="8.6"/>
							<rect x="980.1" y="1973.6" class="st296" width="1228.6" height="8.6"/>
							<rect x="980.1" y="1982.2" class="st297" width="1228.6" height="8.6"/>
							<rect x="980.1" y="1990.9" class="st298" width="1228.6" height="8.6"/>
							<rect x="980.1" y="1999.5" class="st299" width="1228.6" height="8.6"/>
							<rect x="980.1" y="2008.1" class="st300" width="1228.6" height="8.6"/>
							<rect x="980.1" y="2016.7" class="st301" width="1228.6" height="8.6"/>
							<rect x="980.1" y="2025.4" class="st302" width="1228.6" height="8.6"/>
							<rect x="980.1" y="2034" class="st303" width="1228.6" height="8.6"/>
							<rect x="980.1" y="2042.6" class="st304" width="1228.6" height="8.6"/>
							<rect x="980.1" y="2051.2" class="st305" width="1228.6" height="8.6"/>
							<rect x="980.1" y="2059.9" class="st306" width="1228.6" height="8.6"/>
							<rect x="980.1" y="2068.5" class="st307" width="1228.6" height="8.6"/>
							<polygon class="st308" points="2208.6,2085.7 1120,2085.7 980.1,2085.7 980.1,2077.1 2208.6,2077.1 							"/>
							<polygon class="st308" points="1120,2085.7 2208.6,2085.7 2208.6,2085.7 							"/>
						</g>
					</g>
				</g>
				<g>
					<g class="st1">
						<path class="st2" d="M2420.9,704.2h-90c62.3,0,113,50.7,113,113l-0.4,299.2c-0.3,212.5-125,406-319.6,491.3
							c-156.2,68.5-384.5,123.4-715.5,123.4h1035.6v9.6h90V817.2C2533.9,754.8,2483.3,704.2,2420.9,704.2z"/>
					</g>
				</g>
				<g class="st309">
					<path class="st7" d="M666.4,852.2c0-62.3,50.7-113,113-113h1691.5c22.2,0,42.9,6.5,60.4,17.6c-20.1-31.6-55.3-52.6-95.4-52.6
						H744.4c-62.3,0-113,50.7-113,113v923.5h35V852.2z"/>
				</g>
				<g>
					<path class="st310" d="M631.4,1740.8v110c0,62.3,50.7,113,113,113h1691.5c62.3,0,113-50.7,113-113v-110H631.4z"/>
				</g>
				<g class="st1">
					<path class="st2" d="M2298.4,1756.1c0,0-710,185-1595,165v67.5h1867.5c0,0,15-235,0-235S2298.4,1756.1,2298.4,1756.1z"/>
				</g>
				<g class="st309">
					<path class="st7" d="M673.9,1893.3v-110h1875v-42.5H631.4v110c0,42.1,23.1,78.8,57.3,98.3
						C679.3,1932.6,673.9,1913.5,673.9,1893.3z"/>
				</g>
				<g>
					<line class="st311" x1="628.1" y1="1740.8" x2="2566.4" y2="1740.8"/>
					<path class="st2" d="M2566.4,1755.8H628.1c-8.3,0-15-6.7-15-15s6.7-15,15-15h1938.3c8.3,0,15,6.7,15,15
						S2574.7,1755.8,2566.4,1755.8z"/>
				</g>
				<g>
					<circle class="st2" cx="1590.2" cy="1857.3" r="45"/>
				</g>
				<g class="st309">
					<path class="st7" d="M1569.3,1861.4c0-14,11.3-25.3,25.3-25.3c3.6,0,7,0.8,10.1,2.1c-4.6-4.4-10.7-7.1-17.6-7.1
						c-14,0-25.3,11.3-25.3,25.3c0,10.4,6.2,19.3,15.2,23.2C1572.2,1875,1569.3,1868.6,1569.3,1861.4z"/>
				</g>
				<g class="st3">
					<polygon class="st2" points="1333.4,2026.1 1835.5,2051.1 1799.7,1980.4 1368.4,1976.1 					"/>
				</g>
				<g class="st1">
					<path class="st2" d="M1713.4,1981.1c0,0,10,145-430,205l-20.3,37.6h636.8c0,0-94-250.1-99-245.1S1713.4,1981.1,1713.4,1981.1z"
						/>
				</g>
			</g>
			<g class="st1">
				<path class="st2" d="M2489.7,1988.6h81.2c0,0,2.6-40.8,4.6-88.5c5.5-15.5,8.5-32.1,8.5-49.4v-221.9l-14.3-14.3
					c-9-9-21-14-33.8-14c-8.7,0-17.2,2.4-24.6,6.8c-1.8,1.1-22.8,13.7-40.2,24.1c-3.7-1.7-7.5-3.2-11.3-4.7l-5.5-22.3l-5.5-22.2
					l-1.7-6.9c-0.2-0.9-0.5-1.7-0.7-2.6l0.1,0c-5.3-21.4-24.4-36.4-46.4-36.4h-71.3c-22.1,0-41.2,15-46.4,36.4l-13.3,54
					c-4.7,1.8-9.3,3.8-13.8,5.9l-5.2-3.1l-10.3-6.2l-26.7-16c-7.4-4.5-15.9-6.8-24.6-6.8c-12.8,0-24.8,5-33.8,14l-50.4,50.4
					c-15.5,15.5-18.5,39.6-7.2,58.4l1.6,2.7c4.1,6.8,14.9,24.9,25,41.6c-1,2.4-2,4.9-3,7.3c-23.2,5.7-51.9,12.8-53.9,13.3
					c-21.5,5.3-36.5,24.4-36.5,46.5v71.3c0,22.1,15,41.2,36.4,46.4l1.4,0.3c6.1,1.5,31.5,7.7,52.6,12.9c1.6,4.1,3.3,8.2,5.1,12.2
					l-12.5,20.8h322.6C2454.9,1998.8,2473,1995.2,2489.7,1988.6z M2364.3,1965.1c-52.2,0-94.7-42.5-94.7-94.7
					c0-52.2,42.5-94.7,94.7-94.7c52.2,0,94.7,42.5,94.7,94.7C2459,1922.6,2416.5,1965.1,2364.3,1965.1z"/>
			</g>
			<g class="st1">
				<path class="st2" d="M1422.2,2262.4c0.1-6.3-3.8-12-9.7-14.2l-152.3-57.9c-1.7-0.6-3.5-1-5.3-1c0,0,0,0-0.1,0l-0.8,0l-8.9,21.8
					h-168.5c-29.4,0-53.2,23.9-53.2,53.2v6.2c0,29.4,23.9,53.2,53.2,53.2h201.1l134.4-47.5
					C1418.1,2274.2,1422.1,2268.7,1422.2,2262.4z M1349.7,2256.4l-86.3-32.8v0L1349.7,2256.4L1349.7,2256.4z"/>
			</g>
			<g class="st1">
				<path class="st2" d="M2005.7,669.2c12.1,5.5,25.6,8.6,39.7,8.6h22.1l-8.2,107.5c-1.4,18,7.8,34.1,23.9,42.2
					c6.4,3.2,13.1,4.8,19.8,4.8c10.2,0,20.1-3.7,28.4-10.8l165.8-143.8h188.5c-15.5-5.6-32.3-8.6-49.7-8.6H2005.7z"/>
			</g>
			<g class="st1">
				<path class="st2" d="M1013.4,1786.1c0-35.8-29.2-65-65-65h-89.3l128.7-341.4l7.4,3c21.6,8.8,32.2,32.8,24.2,54.7l-85.5,233.3
					c-2.9,7.8,1.1,16.4,8.9,19.2c1.7,0.6,3.4,0.9,5.2,0.9c6.1,0,11.9-3.8,14.1-9.8l85.5-233.3c13.6-37.2-4.4-77.9-41.1-92.8
					l-8.1-3.3l5.3-14.1c14.5-38.5-5-81.6-43.5-96.1c-18.6-7-38.9-6.4-57,1.8c-18.1,8.2-32,23-39,41.6l-114,302.4v-436.6
					c0-29.7-24.2-53.9-53.9-53.9h-99.7v753.8c0,81.6,66.4,148,148,148h206.7V1851C985.7,1849.5,1013.4,1821,1013.4,1786.1z
					 M932.1,1266.8c-17.4,0.7-33.5,11.6-40,28.8C898.7,1278.4,914.8,1267.5,932.1,1266.8z"/>
			</g>
			<g class="st6">
				<path class="st7" d="M2647.2,2024.1c-0.5-0.8-1-1.7-1.6-2.6C2646.1,2022.4,2646.7,2023.2,2647.2,2024.1z"/>
			</g>
			<g>
				<g>
					<g>
						<path class="st5" d="M2378.7,2189.5c-15.2,0-28.3-10.3-31.9-25l-15.2-61.7c-8.7-3.1-17.2-6.7-25.5-10.7
							c-17.9,10.7-44.3,26.6-44.8,26.9c-5.1,3.1-11,4.7-16.9,4.7c-8.8,0-17-3.4-23.2-9.6l-50.4-50.4c-10.7-10.7-12.7-27.1-4.9-40.1
							l26.8-44.7c-4.1-8.4-7.7-17-10.8-25.8c-20.3-5-48.5-11.9-60.7-14.9l-1-0.2c-14.7-3.6-25-16.7-25-31.9v-71.3
							c0-15.2,10.3-28.3,25-31.9l0.6-0.1c9.7-2.4,39.9-9.8,61.1-15c2.5-7.1,5.4-14.2,8.6-21c-11.7-19.6-26.3-43.8-29.8-49.7
							l-0.8-1.4c-7.7-12.9-5.7-29.4,4.9-40.1l50.4-50.4c6.2-6.2,14.4-9.6,23.2-9.6c5.9,0,11.8,1.6,16.9,4.7l49,29.4
							c8.8-4.4,18-8.3,27.3-11.6c4.4-17.7,11-44.6,15.2-61.7c3.6-14.7,16.7-25,31.9-25h71.3c15.1,0,28.2,10.3,31.9,25l0,0
							c0,0.1,0.1,0.3,0.1,0.4l15.1,61.3c8.5,3,16.8,6.5,24.9,10.4c18.7-11.2,46.7-28,47.1-28.2c5.1-3.1,10.9-4.7,16.9-4.7
							c8.8,0,17,3.4,23.2,9.6l50.4,50.4c10.7,10.7,12.7,27.1,4.9,40.1l-28.2,47c4,8.2,7.5,16.6,10.5,25.1l61.7,15.2
							c14.7,3.6,25,16.7,25,31.9v71.3c0,15.1-10.3,28.3-25,31.9c-0.2,0.1-38.2,9.4-61.7,15.2c-2.9,8.2-6.3,16.3-10.1,24.2l27.8,46.3
							c7.8,12.9,5.7,29.4-4.9,40.1L2609,2114c-6.2,6.2-14.4,9.6-23.2,9.6c0,0,0,0,0,0c-5.9,0-11.8-1.6-16.9-4.7l-45.6-27.4
							c-8.5,4.2-17.4,8-26.4,11.2l-15.2,61.7c-3.6,14.7-16.7,25-31.9,25H2378.7z M2414.3,1760.7c-60.5,0-109.7,49.2-109.7,109.7
							c0,60.5,49.2,109.7,109.7,109.7s109.7-49.2,109.7-109.7C2524,1809.9,2474.8,1760.7,2414.3,1760.7z"/>
					</g>
					<g>
						<path class="st2" d="M2450,1566.4c8.2,0,15.3,5.6,17.3,13.6c0,0,11.9,48.3,17.2,69.7c13.1,4.2,25.9,9.5,38.1,16
							c17.6-10.6,53.7-32.2,54.2-32.5c2.8-1.7,6-2.5,9.2-2.5c4.6,0,9.2,1.8,12.6,5.2l50.4,50.4c5.8,5.8,6.9,14.8,2.7,21.8
							c0,0-22,36.7-32.5,54.1c6.5,12.3,11.9,25.1,16.1,38.3l69.7,17.1c8,2,13.6,9.1,13.6,17.3v71.3c0,8.2-5.6,15.3-13.6,17.3
							c-0.6,0.1-48.5,11.9-69.7,17.1c-4.1,12.9-9.3,25.4-15.6,37.4c10.3,17.2,32,53.4,32,53.4c4.2,7,3.1,16-2.7,21.8l-50.4,50.4
							c-3.4,3.4-8,5.2-12.6,5.2c-3.1,0-6.3-0.8-9.2-2.5c0,0-35.6-21.4-52.8-31.7c-12.6,6.8-25.8,12.4-39.5,16.8l-17.1,69.7
							c-2,8-9.1,13.6-17.3,13.6h-71.3c-8.2,0-15.3-5.6-17.3-13.6l-17.1-69.7c-13.3-4.2-26.3-9.7-38.7-16.3
							c-17,10.2-51.5,30.9-52,31.1c-2.8,1.7-6,2.5-9.2,2.5c-4.6,0-9.2-1.8-12.6-5.2l-50.4-50.4c-5.8-5.8-6.9-14.8-2.7-21.8
							l31.1-51.9c-6.7-12.5-12.2-25.5-16.4-38.9c-24.1-6-69.2-17-69.7-17.1c-8-2-13.6-9.1-13.6-17.3v-71.3c0-8.2,5.6-15.3,13.6-17.3
							c0.5-0.1,45.9-11.3,69.7-17.2c3.7-11.8,8.4-23.3,14-34.3c-13.6-22.8-34.5-57.6-34.8-58c-4.2-7-3.1-16,2.7-21.8l50.4-50.4
							c3.4-3.4,8-5.2,12.6-5.2c3.1,0,6.3,0.8,9.2,2.5l26.7,16c10.5,6.3,21.9,13.1,29.5,17.7c12.9-7,26.4-12.8,40.4-17.2
							c4.1-16.5,12.3-49.8,17.2-69.7c2-8,9.1-13.6,17.3-13.6H2450 M2414.3,1995.1c68.8,0,124.7-55.9,124.7-124.7
							s-55.9-124.7-124.7-124.7s-124.7,55.9-124.7,124.7S2345.6,1995.1,2414.3,1995.1 M2450,1536.4h-71.3c-22.1,0-41.2,15-46.4,36.4
							c-3.6,14.7-9.1,36.8-13.3,54c-4.7,1.8-9.3,3.8-13.8,5.9l-4.3-2.6l-11.2-6.7l-26.7-16c-7.4-4.5-15.9-6.8-24.6-6.8
							c-12.8,0-24.8,5-33.8,14l-50.4,50.4c-15.5,15.5-18.5,39.6-7.2,58.4l1,1.7c11.4,19,19.7,32.8,25.6,42.7c-1,2.4-2,4.9-3,7.3
							c-21.5,5.3-47.6,11.7-53.7,13.2l-0.2,0.1c-21.4,5.3-36.4,24.4-36.4,46.4v71.3c0,22.1,15,41.2,36.4,46.4l0.9,0.2
							c10.8,2.6,33.9,8.3,53.1,13c1.6,4.1,3.3,8.2,5.1,12.2l-22.7,37.9c-11.3,18.9-8.4,42.9,7.2,58.4l50.4,50.4c9,9,21,14,33.8,14
							c8.7,0,17.2-2.4,24.6-6.8c0.7-0.4,20.9-12.6,38-22.8c3.9,1.8,7.9,3.4,11.9,5l13.3,54c5.3,21.4,24.4,36.4,46.4,36.4h71.3
							c22.1,0,41.2-15,46.4-36.4l13.3-54c4.3-1.7,8.6-3.5,12.9-5.5l38.7,23.2c7.4,4.5,15.9,6.8,24.6,6.8c12.8,0,24.8-5,33.8-14
							l50.4-50.4c15.5-15.5,18.5-39.6,7.2-58.4l-23.7-39.5c1.6-3.5,3-7,4.4-10.6c23.2-5.7,53.7-13.2,54-13.3
							c21.5-5.3,36.4-24.4,36.4-46.4v-71.3c0-22.1-15-41.2-36.4-46.4l-54-13.3c-1.5-3.9-3.1-7.7-4.8-11.5l24.1-40.2
							c11.3-18.8,8.4-42.9-7.2-58.4l-50.4-50.4c-9-9-21-14-33.8-14c-8.7,0-17.2,2.4-24.6,6.8l-0.2,0.1c-2.5,1.5-23,13.8-40,24
							c-3.7-1.7-7.5-3.2-11.3-4.7l-7.7-31.2l-4-16.2l-1.2-4.8l-0.3-1.3c0-0.1-0.1-0.3-0.1-0.4l0,0
							C2491.1,1551.3,2472,1536.4,2450,1536.4L2450,1536.4z M2414.3,1965.1c-52.2,0-94.7-42.5-94.7-94.7s42.5-94.7,94.7-94.7
							c52.2,0,94.7,42.5,94.7,94.7S2466.5,1965.1,2414.3,1965.1L2414.3,1965.1z"/>
					</g>
				</g>
				<g>
					<g class="st6">
						<path class="st7" d="M2650.1,1825.4l68.2,16.8v-7.3c0-8.2-5.6-15.3-13.6-17.3l-63.7-15.7
							C2644.5,1809.5,2647.6,1817.4,2650.1,1825.4z"/>
					</g>
					<g class="st6">
						<path class="st7" d="M2554,1895.4c0-28.6-9.7-55-26-76c7,15.6,11,32.9,11,51c0,68.8-55.9,124.7-124.7,124.7
							c-40.2,0-75.9-19.1-98.7-48.7c19.5,43.4,63.2,73.7,113.7,73.7C2498.1,2020.1,2554,1964.2,2554,1895.4z"/>
					</g>
					<g class="st6">
						<path class="st7" d="M2499.4,1674.6c13.1,4.2,25.9,9.5,38.1,16c17.6-10.6,53.7-32.2,54.2-32.5c7-4.2,16-3.1,21.8,2.7
							l40.4,40.4c0.7-5.4-1-11-5-15l-50.4-50.4c-5.8-5.8-14.8-6.9-21.8-2.7c-0.5,0.3-36.6,21.9-54.2,32.5
							c-9.2-4.9-18.7-9.1-28.4-12.7C2496.1,1661.1,2498,1668.9,2499.4,1674.6z"/>
					</g>
					<g class="st6">
						<path class="st7" d="M2359.3,2116.2c-3.2-1-6.5-2.1-9.7-3.3l11.8,48c1.5,6.2,6.2,10.9,12,12.7L2359.3,2116.2z"/>
					</g>
					<g class="st6">
						<path class="st7" d="M2193.8,2056.3l31.1-51.9c-6.7-12.5-12.2-25.5-16.4-38.9c-1.9-0.5-3.9-1-6.1-1.5
							c2.3,5.2,4.8,10.4,7.5,15.4l-31.1,51.9c-4.2,7-3.1,16,2.7,21.8l10,10C2191.8,2060.7,2192.6,2058.4,2193.8,2056.3z"/>
					</g>
					<g class="st6">
						<path class="st7" d="M2125.3,1859.8c0-8.2,5.6-15.3,13.6-17.3c0.5-0.1,45.9-11.3,69.7-17.2c3.7-11.8,8.4-23.3,14-34.3
							c-13.6-22.8-34.5-57.6-34.8-58c-4.2-7-3.1-16,2.7-21.8l50.4-50.4c5.8-5.8,14.8-6.9,21.8-2.7l26.7,16
							c10.5,6.3,21.9,13.1,29.5,17.7c12.9-7,26.4-12.8,40.4-17.2c4.1-16.5,12.3-49.8,17.2-69.7c2-8,9.1-13.6,17.3-13.6h71.3
							c1.8,0,3.6,0.3,5.3,0.9c-1.8-7.4-3-12.3-3-12.3c-2-8-9.1-13.6-17.3-13.6h-71.3c-8.2,0-15.3,5.6-17.3,13.6
							c-4.9,19.9-13.1,53.2-17.2,69.7c-14,4.4-27.5,10.2-40.4,17.2c-7.6-4.6-19-11.4-29.5-17.7l-26.7-16c-7-4.2-16-3.1-21.8,2.7
							l-50.4,50.4c-5.8,5.8-6.9,14.8-2.7,21.8c0.2,0.4,21.1,35.2,34.8,58c-5.6,11.1-10.3,22.5-14,34.3c-23.8,5.9-69.1,17-69.7,17.2
							c-8,2-13.6,9.1-13.6,17.3v71.3c0,8.2,5.6,15.3,13.6,17.3c0,0,0.6,0.2,1.4,0.3V1859.8z"/>
					</g>
				</g>
				<g>
					<g class="st1">
						<path class="st2" d="M2583.4,2100.1l50.4-50.4c5.8-5.8,6.9-14.8,2.7-21.8c0,0-21.7-36.2-32-53.4c6.3-12,11.5-24.5,15.6-37.4
							c21.2-5.2,69.1-17,69.7-17.1c8-2,13.6-9.1,13.6-17.3v-71.3c0-8.2-5.6-15.3-13.6-17.3l-69.7-17.1c-4.2-13.2-9.6-26-16.1-38.3
							c10.4-17.4,32.5-54.1,32.5-54.1c4.2-7,3.1-16-2.7-21.8l-26.1-26.1c0,0,0,0,0-0.1c-15.5,37-42.6,95.2-82.4,157
							c8.8,17,13.7,36.3,13.7,56.8c0,68.8-55.9,124.7-124.7,124.7c-11.9,0-23.4-1.8-34.3-4.9c-2.9-0.5-5.8-1-8.6-1.7
							c-48.8,38.6-105.1,69.4-169.3,85.1l29.8,29.8c1.1,1.1,2.4,2.1,3.8,2.8c-0.7-0.4-1.5-0.9-2.1-1.4c1.8-0.4,3.5-1.1,5.1-2
							c0.4-0.3,35-21,52-31.1c3.7,2,7.5,3.8,11.3,5.6c-1,0.6-2,1.2-3.1,1.8c2.5-1.5,4.8-2.9,6.8-4.1c12.4,6.6,25.3,12,38.7,16.3
							l17.1,69.7c1,4.3,3.6,7.8,7,10.2h66.5c8.2,0,15.3-5.6,17.3-13.6l17.1-69.7c13.7-4.3,26.9-10,39.5-16.8
							c2.9,1.7,6.3,3.8,9.9,5.9c1.7-0.9,3.4-1.7,5.1-2.6c17.1,10.3,52.8,31.7,52.8,31.7s-0.8-0.5-2.1-1.2
							C2577.9,2104.2,2580.9,2102.6,2583.4,2100.1z"/>
					</g>
				</g>
			</g>
			<g>
				<g>
					<g>
						<path class="st311" d="M641.2,1835.6H536.3c-21.5,0-38.9-17.4-38.9-38.9v-660.8c0-21.5,17.4-38.9,38.9-38.9h104.8
							c21.5,0,38.9,17.4,38.9,38.9v660.8C680.1,1818.2,662.7,1835.6,641.2,1835.6z"/>
						<path class="st2" d="M641.2,1850.6H536.3c-29.7,0-53.9-24.2-53.9-53.9v-660.8c0-29.7,24.2-53.9,53.9-53.9h104.8
							c29.7,0,53.9,24.2,53.9,53.9v660.8C695.1,1826.4,670.9,1850.6,641.2,1850.6z M536.3,1112c-13.2,0-23.9,10.7-23.9,23.9v660.8
							c0,13.2,10.7,23.9,23.9,23.9h104.8c13.2,0,23.9-10.7,23.9-23.9v-660.8c0-13.2-10.7-23.9-23.9-23.9H536.3z"/>
					</g>
					<g class="st312">
						<path class="st7" d="M537.4,1806.7v-660.8c0-13.2,10.7-23.9,23.9-23.9h99.2c-4.3-6-11.4-10-19.4-10H536.3
							c-13.2,0-23.9,10.7-23.9,23.9v660.8c0,13.2,10.7,23.9,23.9,23.9h5.6C539.1,1816.7,537.4,1811.9,537.4,1806.7z"/>
					</g>
					<g>
						<g>
							<line class="st311" x1="509" y1="1168.1" x2="566.9" y2="1168.1"/>
							<path class="st2" d="M566.9,1178.1H509c-5.5,0-10-4.5-10-10s4.5-10,10-10h57.9c5.5,0,10,4.5,10,10S572.4,1178.1,566.9,1178.1
								z"/>
						</g>
						<g>
							<line class="st311" x1="509" y1="1236.5" x2="540.6" y2="1236.5"/>
							<path class="st2" d="M540.6,1246.5H509c-5.5,0-10-4.5-10-10s4.5-10,10-10h31.6c5.5,0,10,4.5,10,10S546.1,1246.5,540.6,1246.5
								z"/>
						</g>
						<g>
							<line class="st311" x1="509" y1="1304.9" x2="566.9" y2="1304.9"/>
							<path class="st2" d="M566.9,1314.9H509c-5.5,0-10-4.5-10-10c0-5.5,4.5-10,10-10h57.9c5.5,0,10,4.5,10,10
								C576.9,1310.4,572.4,1314.9,566.9,1314.9z"/>
						</g>
						<g>
							<line class="st311" x1="509" y1="1373.3" x2="540.6" y2="1373.3"/>
							<path class="st2" d="M540.6,1383.3H509c-5.5,0-10-4.5-10-10c0-5.5,4.5-10,10-10h31.6c5.5,0,10,4.5,10,10
								C550.6,1378.9,546.1,1383.3,540.6,1383.3z"/>
						</g>
						<g>
							<line class="st311" x1="509" y1="1441.8" x2="566.9" y2="1441.8"/>
							<path class="st2" d="M566.9,1451.8H509c-5.5,0-10-4.5-10-10c0-5.5,4.5-10,10-10h57.9c5.5,0,10,4.5,10,10
								C576.9,1447.3,572.4,1451.8,566.9,1451.8z"/>
						</g>
						<g>
							<line class="st311" x1="509" y1="1510.2" x2="540.6" y2="1510.2"/>
							<path class="st2" d="M540.6,1520.2H509c-5.5,0-10-4.5-10-10c0-5.5,4.5-10,10-10h31.6c5.5,0,10,4.5,10,10
								C550.6,1515.7,546.1,1520.2,540.6,1520.2z"/>
						</g>
						<g>
							<line class="st311" x1="509" y1="1578.6" x2="566.9" y2="1578.6"/>
							<path class="st2" d="M566.9,1588.6H509c-5.5,0-10-4.5-10-10s4.5-10,10-10h57.9c5.5,0,10,4.5,10,10S572.4,1588.6,566.9,1588.6
								z"/>
						</g>
					</g>
					<g>
						<path class="st2" d="M734.2,1864.1c-1.8,0-3.6-0.3-5.3-1l-111.5-42c-7.8-2.9-11.7-11.6-8.7-19.3L809.1,1270
							c10.9-28.9,38.9-48.3,69.8-48.3c9,0,17.8,1.6,26.3,4.8c38.5,14.5,58,57.6,43.5,96.1l-200.4,531.8c-1.4,3.7-4.2,6.7-7.9,8.4
							C738.4,1863.7,736.3,1864.1,734.2,1864.1z M642,1798.3l83.4,31.4l195.1-517.7c8.7-23-3-48.8-26-57.4
							c-5.1-1.9-10.4-2.9-15.7-2.9c-18.4,0-35.2,11.6-41.7,28.9L642,1798.3z"/>
					</g>
					<g>
						<polygon class="st313" points="642,1798.3 725.4,1829.8 809.9,1605.5 726.3,1574.7 						"/>
					</g>
					<g>
						<path class="st313" d="M894.6,1254.6c-23-8.7-48.8,3-57.4,26l-9.2,24.5l83.1,32.3l9.5-25.3
							C929.2,1289.1,917.6,1263.3,894.6,1254.6z"/>
					</g>
					<g class="st6">
						<path class="st7" d="M852.2,1290.6c8.7-23,34.4-34.6,57.4-26c0.3,0.1,0.6,0.3,0.9,0.4c-4.4-4.4-9.7-8.1-15.9-10.4
							c-23-8.7-48.8,3-57.4,26l-9.2,24.5l16.4,6.4L852.2,1290.6z"/>
					</g>
					<g>
						<polygon class="st314" points="726.3,1574.7 809.9,1605.5 911,1337.4 827.9,1305.1 						"/>
					</g>
					<g class="st6">
						<path class="st7" d="M913.4,1346.1l-70.5-30.8l0.1-0.2l66.7,25.9l1.4-3.6l-83.1-32.3l-7.4,19.5l-0.4,0.4l0.2,0.1l-94.1,249.6
							l16.5,6.1l91.6-243c1.9-5,7.2-7.9,12.5-6.7L913.4,1346.1z"/>
					</g>
					<g>
						<path class="st2" d="M892.9,1675.9c-1.7,0-3.5-0.3-5.2-0.9c-7.8-2.9-11.8-11.5-8.9-19.2l85.5-233.3c8-21.9-2.6-45.9-24.2-54.7
							l-21.6-8.8c-7.7-3.1-11.4-11.9-8.2-19.5c3.1-7.7,11.9-11.4,19.5-8.2l21.6,8.8c17.6,7.2,31.6,20.7,39.3,38.1
							c7.7,17.4,8.3,36.8,1.8,54.7L907,1666.1C904.8,1672.2,899,1675.9,892.9,1675.9z"/>
					</g>
					<g>
						<line class="st311" x1="819.6" y1="1301.8" x2="914.3" y2="1338.7"/>
						<path class="st2" d="M914.3,1348.7c-1.2,0-2.4-0.2-3.6-0.7l-94.7-36.8c-5.1-2-7.7-7.8-5.7-12.9c2-5.1,7.8-7.7,12.9-5.7
							l94.7,36.8c5.1,2,7.7,7.8,5.7,12.9C922.1,1346.3,918.3,1348.7,914.3,1348.7z"/>
					</g>
					<g>
						<line class="st311" x1="714.3" y1="1570.3" x2="814.3" y2="1607.1"/>
						<path class="st2" d="M814.3,1617.1c-1.1,0-2.3-0.2-3.5-0.6l-100-36.8c-5.2-1.9-7.8-7.7-5.9-12.8c1.9-5.2,7.7-7.8,12.8-5.9
							l100,36.8c5.2,1.9,7.8,7.7,5.9,12.8C822.2,1614.6,818.4,1617.1,814.3,1617.1z"/>
					</g>
					<g>
						<g>
							<polygon class="st315" points="464.5,1573.9 326.9,1605.8 314.1,1436.9 401.7,1416.6 							"/>
							<path class="st2" d="M326.9,1618.3c-2.6,0-5.2-0.8-7.4-2.4c-2.9-2.2-4.8-5.5-5.1-9.1l-12.8-168.9c-0.5-6.2,3.6-11.7,9.6-13.1
								l87.6-20.3c6-1.4,12.1,1.8,14.4,7.5l62.8,157.3c1.4,3.4,1.2,7.2-0.5,10.4c-1.7,3.2-4.7,5.6-8.3,6.4L329.7,1618
								C328.8,1618.2,327.8,1618.3,326.9,1618.3z M327.3,1446.7l10.9,143.7l109.2-25.3l-53.4-133.8L327.3,1446.7z"/>
						</g>
						<g class="st6">
							<polygon class="st7" points="347.3,1446.7 395.8,1435.5 394.1,1431.2 327.3,1446.7 338.2,1590.3 357.9,1585.8 							"/>
						</g>
						<g>
							
								<rect x="384" y="1628.9" transform="matrix(0.9742 -0.2257 0.2257 0.9742 -404.4909 150.1684)" class="st316" width="141.2" height="431"/>
							<path class="st2" d="M434.5,2082.8c-2.3,0-4.6-0.6-6.6-1.9c-2.8-1.8-4.8-4.6-5.6-7.8L325,1653.3c-1.6-6.7,2.6-13.4,9.4-15
								l137.6-31.9c3.2-0.7,6.6-0.2,9.4,1.6c2.8,1.8,4.8,4.6,5.6,7.8l97.3,419.9c1.6,6.7-2.6,13.4-9.4,15l-137.6,31.9
								C436.4,2082.7,435.4,2082.8,434.5,2082.8z M352.2,1659.8l91.6,395.5l113.2-26.2l-91.6-395.5L352.2,1659.8z"/>
						</g>
						<g class="st1">
							<path class="st2" d="M338.4,1681.1l75.7-7.2c14.5-1.4,23.4,15.8,13.6,26.7c-11.4,12.7-30.9,26.6-64.4,35.5h147.5l-39.2-105.4
								l-135.8,32.9L338.4,1681.1z"/>
						</g>
						<g class="st6">
							<polygon class="st7" points="372.2,1659.8 466.5,1638 465.4,1633.6 352.2,1659.8 443.8,2055.3 462.8,2050.9 							"/>
						</g>
						<g>
							<path class="st315" d="M478,1627.5l-139.8,32.4c-10.6,2.5-21.2-4.1-23.7-14.8l-3.7-15.9c-2.5-10.6,4.1-21.2,14.8-23.7
								l139.8-32.4c10.6-2.5,21.2,4.1,23.6,14.8l3.7,15.9C495.2,1614.4,488.6,1625,478,1627.5z"/>
							<path class="st2" d="M333.8,1672.9c-15.1,0-28-10.3-31.4-24.9l-3.7-15.9c-1.9-8.4-0.5-17,4.1-24.3
								c4.6-7.3,11.7-12.4,20.1-14.3l139.8-32.4c2.4-0.6,4.8-0.8,7.3-0.8c15.1,0,28,10.3,31.4,24.9l3.7,15.9
								c1.9,8.4,0.5,17-4.1,24.3c-4.6,7.3-11.7,12.4-20.1,14.3L341.1,1672C338.7,1672.6,336.2,1672.9,333.8,1672.9z M469.9,1585.2
								c-0.5,0-1.1,0.1-1.6,0.2l-139.8,32.4c-1.9,0.4-3.5,1.6-4.5,3.2c-1,1.6-1.3,3.6-0.9,5.4l3.7,15.9c0.8,3.2,3.7,5.6,7,5.6
								c0.5,0,1.1-0.1,1.6-0.2l139.8-32.4c1.9-0.4,3.5-1.6,4.5-3.2c1-1.6,1.3-3.6,0.9-5.4l-3.7-15.9
								C476.2,1587.6,473.2,1585.2,469.9,1585.2z"/>
						</g>
						<g class="st6">
							<path class="st7" d="M351.8,1642.3l-3.7-15.9c-0.4-1.9-0.1-3.8,0.9-5.4c1-1.6,2.6-2.8,4.5-3.2l122.8-28.4
								c-1.2-2.5-3.7-4.1-6.4-4.1c-0.5,0-1.1,0.1-1.6,0.2l-139.8,32.4c-1.9,0.4-3.5,1.6-4.5,3.2c-1,1.6-1.3,3.6-0.9,5.4l3.7,15.9
								c0.4,1.9,1.6,3.5,3.2,4.5c1.6,1,3.6,1.3,5.4,0.9l17-3.9C352.2,1643.3,351.9,1642.8,351.8,1642.3z"/>
						</g>
						<g>
							<path class="st317" d="M267,1368c-33.7-35.7-72.4-108-3.6-222.3c7.5-12.4,23-17.6,36.4-12.1c44.1,18.1,133,70.9,113.4,199.2
								c-3.2,20.8-19.3,37.7-40.4,43.1l-40.4,10.3C308.5,1392.4,283.4,1385.4,267,1368z"/>
							<path class="st2" d="M315.3,1403.5c-22.5,0-44.1-9.2-59.1-25.1c-34.3-36.3-80.5-115.8-5.5-240.3c8-13.3,22.6-21.5,38.1-21.5
								c5.8,0,11.4,1.1,16.8,3.3c44,18,144,75.1,122.6,215.3c-4.1,26.7-24.3,48.4-51.6,55.4l-40.4,10.3
								C329.3,1402.6,322.3,1403.5,315.3,1403.5z M288.7,1146.5c-5.1,0-9.8,2.7-12.4,7c-61.6,102.2-33.1,167.5,1.6,204.2
								c9.4,10,23,15.7,37.3,15.7c4.5,0,9-0.6,13.4-1.7l40.4-10.3c15.3-3.9,27.1-16.3,29.3-30.8c17.6-114.9-57.8-164-104.3-183.1
								C292.4,1146.9,290.6,1146.5,288.7,1146.5z"/>
						</g>
						<g class="st309">
							<path class="st7" d="M297.9,1357.7c-35.9-38-63.6-104.5,0.9-208.3c-6.3-2.7-11.8-4.7-16.1-6.2
								c-69.5,107.4-41.4,175.8-4.8,214.5c11.9,12.6,29.7,18,47.3,14.7C314.8,1370.5,305.3,1365.5,297.9,1357.7z"/>
						</g>
						<g>
							<path class="st315" d="M394.9,1418.2l-74.1,17.2c-12.8,3-25.6-5-28.6-17.8l0,0c-3-12.8,5-25.6,17.8-28.6l74.1-17.2
								c12.8-3,25.6,5,28.6,17.8l0,0C415.7,1402.4,407.7,1415.2,394.9,1418.2z"/>
							<path class="st2" d="M315.4,1448.5c-17,0-31.5-11.6-35.4-28.1c-4.5-19.5,7.7-39.1,27.2-43.6l74.1-17.2
								c2.7-0.6,5.5-0.9,8.2-0.9c17,0,31.5,11.6,35.4,28.1c4.5,19.5-7.7,39.1-27.2,43.6l-74.1,17.2
								C321,1448.1,318.2,1448.5,315.4,1448.5z M389.6,1383.6c-0.9,0-1.7,0.1-2.6,0.3l-74.1,17.2c-6.1,1.4-9.9,7.5-8.5,13.6
								c1.2,5.2,5.7,8.8,11,8.8c0.9,0,1.7-0.1,2.6-0.3l74.1-17.2c2.9-0.7,5.4-2.5,7.1-5c1.6-2.6,2.1-5.6,1.4-8.5
								C399.4,1387.3,394.9,1383.6,389.6,1383.6z"/>
						</g>
						<g class="st6">
							<path class="st7" d="M324.4,1414.7c-0.7-2.9-0.2-6,1.4-8.5c1.6-2.6,4.1-4.4,7.1-5l63.9-14.8c-2-1.7-4.6-2.7-7.2-2.7
								c-0.8,0-1.7,0.1-2.6,0.3l-74.1,17.2c-2.9,0.7-5.4,2.5-7.1,5c-1.6,2.6-2.1,5.6-1.4,8.5c1.4,6.1,7.5,9.9,13.6,8.5l10.2-2.4
								C326.4,1419.3,325,1417.2,324.4,1414.7z"/>
						</g>
						<g>
							<g>
								<path class="st318" d="M275.5,1219.6c7.2-14.1,25-19.9,38.9-12.3c10,5.4,21.9,13.8,34.6,26.9c0,0,24.2,28.1,48.1,7.4
									c2.4-2,4.7-5.1,7-8.9c-24.6-61.7-81.1-90.2-110-101.1c-10.4-3.9-21.9,0.3-27.8,9.7c-33.4,53.7-43.1,98.4-40.6,134.4
									C233.2,1277.9,254.8,1260,275.5,1219.6z"/>
								<path class="st2" d="M227.2,1285.8C227.2,1285.8,227.2,1285.8,227.2,1285.8c-1.6,0-3.1-0.2-4.5-0.7
									c-3.9-1.2-6.7-4.7-6.9-8.8c-3-43.4,11.1-90.6,42.1-140.4c6.1-9.8,16.9-15.8,28.3-15.8c3.9,0,7.8,0.7,11.5,2.1
									c32.2,12.2,90,42.2,115.8,106.8c1.2,2.9,0.9,6.2-0.8,8.9c-3,4.9-6,8.6-9,11.3c-7.7,6.7-16.3,10.1-25.5,10.1
									c-19.5,0-34.1-15.4-36.5-18.2c-10.3-10.6-21.1-18.9-32-24.9c-2.6-1.4-5.5-2.1-8.5-2.1c-7,0-13.6,4-16.8,10.2
									c-9.2,18.1-19.5,33.5-29.8,44.6C244.2,1280,234.9,1285.8,227.2,1285.8z M286.1,1140c-4.5,0-8.8,2.5-11.3,6.4
									c-25,40.3-38.3,78.3-39.4,113.3c7.7-7.2,19.2-21.2,31.2-44.7c6.5-12.8,20.1-21.1,34.6-21.1c6.3,0,12.5,1.6,18,4.5
									c12.8,6.9,25.3,16.6,37,28.7c0.1,0.1,0.3,0.3,0.4,0.4c2.8,3.2,12.2,11.5,21.6,11.5c4.3,0,8.3-1.7,12.3-5.2
									c0.6-0.5,1.3-1.3,2.3-2.5c-23.8-54.1-73.9-79.9-102.2-90.6C289.2,1140.3,287.6,1140,286.1,1140z"/>
							</g>
						</g>
						<g class="st309">
							<g>
								<path class="st7" d="M289.8,1156.4c2.5-4.1,6.9-6.4,11.3-6.4c1.5,0,3,0.3,4.4,0.8c9.7,3.7,22.1,9.2,35,17
									c-18.2-13.3-36.6-21.9-50-27c-1.4-0.5-2.9-0.8-4.4-0.8c-4.5,0-8.8,2.3-11.3,6.4c-25,40.3-38.3,78.3-39.4,113.3
									c5.3-4.9,12.4-13.2,20.1-25.4C261.6,1209.5,273,1183.5,289.8,1156.4z"/>
							</g>
							<g>
								<path class="st7" d="M371.6,1237.6c-0.1-0.2-0.3-0.3-0.4-0.4c-10.8-11.1-22.1-20-33.8-26.8c6.4,4.9,12.7,10.5,18.8,16.8
									c0.1,0.1,0.3,0.3,0.4,0.4c1.1,1.2,7.3,7.9,15.4,10.4C371.8,1237.9,371.7,1237.7,371.6,1237.6z"/>
							</g>
						</g>
						<g>
							<path class="st2" d="M363.4,1296.1c0,0,2.6,3.9,5.8,10.3c1.6,3.2,3.3,7,4.9,11.2c0.8,2.1,1.6,4.3,2.3,6.6
								c0.4,1.1,0.7,2.3,1,3.5c0.3,1.2,0.6,2.4,0.9,3.6c0.6,2.4,1.1,4.8,1.4,7.3c0.2,1.2,0.4,2.4,0.5,3.7c0.2,1.2,0.2,2.4,0.3,3.6
								c0.2,2.4,0.2,4.7,0.1,7c0,1.1-0.1,2.2-0.2,3.3c0,0.5-0.1,1.1-0.1,1.6c-0.1,0.5-0.1,1-0.2,1.5c-0.2,2-0.6,3.8-0.9,5.4
								c-0.3,1.6-0.7,3-1,4.2c-0.7,2.3-1.1,3.6-1.1,3.6c-1.6,5.3-7.3,8.3-12.6,6.7c-5.3-1.6-8.3-7.3-6.7-12.6
								c0.3-0.9,0.7-1.7,1.1-2.5l0.1-0.1c0,0,0.5-0.8,1.4-2.2c0.4-0.7,0.9-1.6,1.5-2.7c0.5-1.1,1.2-2.3,1.7-3.7
								c0.1-0.4,0.3-0.7,0.4-1.1c0.1-0.4,0.3-0.8,0.4-1.1c0.3-0.8,0.6-1.6,0.8-2.5c0.5-1.7,1-3.6,1.4-5.5c0.2-1,0.4-2,0.6-3
								c0.2-1,0.3-2.1,0.4-3.1c0.3-2.1,0.4-4.3,0.5-6.6c0-1.1,0-2.2,0.1-3.3c0-1.1,0-2.2-0.1-3.3c-0.1-2.2-0.2-4.4-0.4-6.5
								c-0.4-4.3-1.1-8.2-1.7-11.7C364.9,1300.6,363.4,1296.1,363.4,1296.1z"/>
						</g>
						<g>
							<path class="st2" d="M298.4,1336.1c0,0,1.5,3,4.1,7.1c2.6,4.1,6.4,9.4,10.8,13.8c1.1,1.1,2.2,2.1,3.3,3.1
								c0.5,0.5,1.1,0.9,1.7,1.4c0.5,0.4,1.1,0.8,1.6,1.2c1.1,0.8,2.1,1.4,3.1,1.9c1,0.5,1.9,0.9,2.8,1.2c0.8,0.3,1.6,0.5,2.2,0.6
								c0.6,0.1,1.2,0.1,1.6,0.2c0.4,0,0.7,0,0.9,0c0.2,0,0.3,0,0.3,0c5.7-0.2,10.6,4.2,10.8,10c0.2,5.7-4.2,10.6-10,10.8
								c-1.6,0.1-3.1-0.2-4.5-0.8l-1.2-0.5c0,0-0.3-0.1-0.8-0.3c-0.5-0.2-1.3-0.5-2.2-1c-0.9-0.5-2-1.1-3.1-1.9
								c-1.2-0.8-2.3-1.7-3.5-2.8c-1.2-1.1-2.3-2.3-3.4-3.6c-1.1-1.3-2.1-2.7-3.1-4.2c-0.5-0.7-1-1.5-1.4-2.3
								c-0.5-0.8-0.9-1.6-1.3-2.4c-0.8-1.6-1.6-3.2-2.2-4.9c-2.7-6.5-4.3-13.1-5.2-18C298.6,1339.4,298.4,1336.1,298.4,1336.1z"/>
						</g>
						<g class="st1">
							<path class="st2" d="M338.4,1156.1c0,0,40,155-95,180l52.5,57.5l110-30C405.9,1363.6,430.9,1188.6,338.4,1156.1z"/>
						</g>
						<g class="st1">
							<path class="st2" d="M373.4,1381.1c0,0-15,45-75,45l22.5,7.5l85-25l5-30L373.4,1381.1z"/>
						</g>
						<g class="st1">
							<path class="st2" d="M373.4,1431.1c0,0,45,135-45,160l-2.5,7.5l135-30l-61-152.2L373.4,1431.1z"/>
						</g>
					</g>
					<g class="st1">
						<path class="st2" d="M423.4,1591.1c0,0-15,40-100,50l10,15l152.5-32.5l5-10l-15-35L423.4,1591.1z"/>
					</g>
					<g class="st1">
						<path class="st2" d="M633.4,1106.1c0,0,35,545-130,565l-2.3,49.2l154.8-6.7l27.3-64.3l-6.5-526.8
							C676.7,1122.6,655.9,1108.6,633.4,1106.1z"/>
					</g>
					<g class="st1">
						<path class="st2" d="M923.4,1271.1c0,0-10,35-95,15l-7.5,12.5l105,40C925.9,1338.6,935.9,1273.6,923.4,1271.1z"/>
					</g>
				</g>
				<g>
					<path class="st319" d="M811.3,2313.8h-438c-42,0-76.1-34.1-76.1-76.1v-435c0-41.4,33.6-75,75-75h431.4c41.4,0,75,33.6,75,75
						v443.8C878.6,2283.7,848.5,2313.8,811.3,2313.8z"/>
					<path class="st2" d="M811.3,2331.3h-438c-51.6,0-93.6-42-93.6-93.6v-435c0-51,41.5-92.5,92.5-92.5h431.4
						c51,0,92.5,41.5,92.5,92.5v443.8C896.1,2293.2,858.1,2331.3,811.3,2331.3z M372.3,1745.1c-31.7,0-57.5,25.8-57.5,57.5v435
						c0,32.3,26.3,58.6,58.6,58.6h438c27.5,0,49.8-22.3,49.8-49.8v-443.8c0-31.7-25.8-57.5-57.5-57.5H372.3z"/>
				</g>
				<g class="st6">
					<path class="st7" d="M339.8,2237.7v-212.4c11-9.6,18.6-30.2,18.6-54.2c0-23.9-7.6-44.5-18.6-54.2v-114.3
						c0-31.7,25.8-57.5,57.5-57.5h-25c-31.7,0-57.5,25.8-57.5,57.5v102.1v112.7v220.2c0,32.3,26.3,58.6,58.6,58.6h25
						C366.1,2296.3,339.8,2270,339.8,2237.7z"/>
				</g>
				<g>
					<path class="st2" d="M508.4,2007.8v-70.6c0-17.4,18.8-28.2,33.9-19.6l61.1,35.3l61.1,35.3c15,8.7,15,30.4,0,39.1l-61.1,35.3
						l-61.1,35.3c-15,8.7-33.9-2.2-33.9-19.6V2007.8z"/>
				</g>
				<g class="st1">
					<path class="st2" d="M888.4,1331.1c0,0-55,180-155,185l-20,55l105,35l100-265L888.4,1331.1z"/>
				</g>
				<g class="st1">
					<path class="st2" d="M713.4,1591.1l31,16.9c16.5,9,21.7,30.7,10.3,45.6c-12.5,16.3-36.3,32.5-81.3,32.5l-17.5,27.5l125,5
						l40-110L720,1574.4L713.4,1591.1z"/>
				</g>
				<g>
					<path class="st319" d="M893.4,1818.6h-610c-26.2,0-47.5-21.3-47.5-47.5v0c0-26.2,21.3-47.5,47.5-47.5h610
						c26.2,0,47.5,21.3,47.5,47.5v0C940.9,1797.4,919.6,1818.6,893.4,1818.6z"/>
					<path class="st2" d="M893.4,1836.1h-610c-35.8,0-65-29.2-65-65c0-35.8,29.2-65,65-65h610c35.8,0,65,29.2,65,65
						C958.4,1807,929.2,1836.1,893.4,1836.1z M283.4,1741.1c-16.5,0-30,13.5-30,30c0,16.5,13.5,30,30,30h610c16.5,0,30-13.5,30-30
						c0-16.5-13.5-30-30-30H283.4z"/>
				</g>
				<g class="st6">
					<path class="st7" d="M268.4,1786.1c0-16.5,13.5-30,30-30h610c4.4,0,8.6,1,12.3,2.7c-4.7-10.4-15.2-17.7-27.3-17.7h-610
						c-16.5,0-30,13.5-30,30c0,12.1,7.3,22.6,17.7,27.3C269.3,1794.7,268.4,1790.5,268.4,1786.1z"/>
				</g>
				<g class="st1">
					<path class="st2" d="M763.4,1726.1c0,0-120.8,68.5-520,65l32.5,22.5h630C905.9,1813.6,1044.6,1714.6,763.4,1726.1z"/>
				</g>
				<g class="st1">
					<path class="st2" d="M841.1,2246.5v-427.5l20-0.2l-546.4,4.7v35.2l392.2,37.5c28.9,2.8,48.6,31,40.8,59
						c-26.8,96.1-119.1,287.8-430.4,299.7c7.4,23.9,29.7,41.4,56,41.4h418C818.8,2296.3,841.1,2273.9,841.1,2246.5z"/>
				</g>
			</g>
			<g>
				<g>
					<path class="st7" d="M2591.9,166.1h-546.5c-45.2,0-81.9,36.7-81.9,81.9v272.8c0,45.2,36.7,81.9,81.9,81.9h38.3l-9.4,123.7
						c-1.9,25.5,27.9,40.5,47.2,23.8l170-147.4h300.5c45.2,0,81.9-36.7,81.9-81.9V248.1C2673.8,202.8,2637.2,166.1,2591.9,166.1z"/>
					<path class="st2" d="M2102.9,772.3c-12.2,0-24-5.2-32.3-14.1c-8.2-8.9-12.2-20.5-11.3-32.8l8.2-107.5h-22.1
						c-53.4,0-96.9-43.5-96.9-96.9V248.1c0-53.4,43.5-96.9,96.9-96.9h546.5c53.4,0,96.9,43.5,96.9,96.9v272.8
						c0,53.4-43.5,96.9-96.9,96.9h-294.9l-165.8,143.8C2123.2,768.6,2113.4,772.3,2102.9,772.3z M2045.4,181.1
						c-36.9,0-66.9,30-66.9,66.9v272.8c0,36.9,30,66.9,66.9,66.9h38.3c4.2,0,8.2,1.7,11,4.8c2.8,3.1,4.3,7.2,4,11.3l-9.4,123.7
						c-0.4,4.9,1.6,8.2,3.4,10.1c2.6,2.8,6.5,4.5,10.3,4.5c3.2,0,6.1-1.1,8.7-3.4l170-147.4c2.7-2.4,6.2-3.7,9.8-3.7h300.5
						c36.9,0,66.9-30,66.9-66.9V248.1c0-36.9-30-66.9-66.9-66.9H2045.4z"/>
				</g>
				<g>
					<g>
						<circle class="st2" cx="2174.1" cy="374.8" r="38.9"/>
					</g>
					<g>
						<circle class="st2" cx="2318.7" cy="374.8" r="38.9"/>
					</g>
					<g>
						<circle class="st2" cx="2463.2" cy="374.8" r="38.9"/>
					</g>
				</g>
				<g>
					<g>
						<line class="st320" x1="2283.4" y1="601.1" x2="2195.9" y2="601.1"/>
					</g>
					<g>
						<path class="st2" d="M2283.4,613.6l-87.5-12.5l87.5-12.5c6.9-1,13.3,3.8,14.3,10.7c1,6.9-3.8,13.3-10.7,14.3
							C2285.7,613.8,2284.5,613.8,2283.4,613.6z"/>
					</g>
				</g>
				<g class="st1">
					<path class="st2" d="M2573.4,171.1c0,0,100,410-290,420l-7.7,9.4l317.7-4.4l47.1-15.2l34-48.3l-11.1-311.5l-46.1-44.4
						L2573.4,171.1z"/>
				</g>
				<g class="st1">
					<path class="st2" d="M2215.9,600.8c0,0-52.6,80.3-142.6,80.3l2.2,56.8l27.6,20.2l176.5-156.3L2215.9,600.8z"/>
				</g>
			</g>
			<g class="st1">
				<path class="st2" d="M896.1,2246.5v-56.4l-374.6,1.4c-0.3,0-0.6,0.1-0.9,0.1l-73.3,0.3c-15.1,0.1-29.4,6-40,16.8
					s-16.5,25-16.5,40.1l0.1,28.1c0.1,15.1,6,29.4,16.8,40c7,6.9,15.5,11.8,24.7,14.3h378.9C858.1,2331.3,896.1,2293.2,896.1,2246.5
					z"/>
			</g>
			<g>
				<g>
					<path class="st321" d="M599.5,2206.5l0.4,111.5l-102.1,0.4c-23,0.1-41.8-18.5-41.8-41.5l-0.1-28.1c-0.1-23,18.5-41.8,41.5-41.8
						L599.5,2206.5z"/>
					<path class="st2" d="M497.7,2333.4c-31.1,0-56.6-25.3-56.7-56.5l-0.1-28.1c-0.1-15.1,5.8-29.4,16.5-40.1
						c10.7-10.7,24.9-16.7,40-16.8l102.1-0.4c0,0,0,0,0.1,0c8.3,0,15,6.7,15,14.9l0.4,111.5c0,4-1.6,7.8-4.4,10.6
						c-2.8,2.8-6.6,4.4-10.6,4.4L497.7,2333.4z M584.5,2221.6l-87.1,0.3c-7.1,0-13.8,2.8-18.8,7.9c-5,5.1-7.8,11.8-7.7,18.9
						l0.1,28.1c0.1,14.7,12,26.6,26.7,26.6l0.1,0l87.1-0.3L584.5,2221.6z"/>
				</g>
				<g class="st6">
					<path class="st7" d="M584.6,2236.6l-87.1,0.3c-7.1,0-13.8,2.8-18.8,7.9c-4.9,4.9-7.6,11.4-7.7,18.3l-0.1-14.4
						c0-7.1,2.7-13.8,7.7-18.9c5-5.1,11.7-7.9,18.8-7.9l87.1-0.3l0.3,81.5h-0.1L584.6,2236.6z"/>
				</g>
				<g>
					<path class="st2" d="M572,2333c-8.3,0-15-6.7-15-14.9l-0.4-111.5c0-4,1.6-7.8,4.4-10.6c2.8-2.8,6.6-4.4,10.6-4.4l583.3-2.2
						c1.8,0,3.7,0.3,5.4,1l152.3,57.9c5.9,2.2,9.7,7.9,9.7,14.2c-0.1,6.3-4.1,11.9-10,14l-151.9,53.6c-1.6,0.6-3.3,0.8-4.9,0.9
						L572,2333C572.1,2333,572,2333,572,2333z M586.7,2221.5l0.3,81.5l565.7-2.2l110.9-39.1l-111.5-42.3L586.7,2221.5z"/>
				</g>
				<g>
					<polygon class="st320" points="1152.1,2219.3 1263.6,2261.7 1152.7,2300.8 1150.9,2300.8 1150.9,2219.3 					"/>
				</g>
				<g>
					<polygon class="st322" points="586.7,2221.5 1150.9,2219.3 1150.9,2300.8 587,2303 					"/>
				</g>
				<g class="st6">
					<polygon class="st7" points="586.7,2221.5 1150.9,2219.3 1150.9,2234.3 586.7,2236.5 					"/>
				</g>
				<g>
					<line class="st323" x1="1150.9" y1="2204.9" x2="1150.9" y2="2308.6"/>
					<path class="st2" d="M1150.9,2321.1c-6.9,0-12.5-5.6-12.5-12.5v-103.7c0-6.9,5.6-12.5,12.5-12.5s12.5,5.6,12.5,12.5v103.7
						C1163.4,2315.5,1157.8,2321.1,1150.9,2321.1z"/>
				</g>
				<g>
					<line class="st324" x1="574.7" y1="2256.1" x2="1144.7" y2="2256.1"/>
					<path class="st2" d="M1144.7,2263.6h-570c-4.1,0-7.5-3.4-7.5-7.5s3.4-7.5,7.5-7.5h570c4.1,0,7.5,3.4,7.5,7.5
						S1148.9,2263.6,1144.7,2263.6z"/>
				</g>
				<g>
					<polygon class="st2" points="1249.7,2241.1 1249.7,2281.1 1304.7,2261.1 					"/>
				</g>
				<g class="st1">
					<path class="st2" d="M1154.7,2226.1c0,0,25,65,120,40l-117.5,37.5L1154.7,2226.1z"/>
				</g>
				<g class="st1">
					<path class="st2" d="M669.7,2211.1c0,0,55,75,470,70l7.5,32.5l-575,5l5.4-110.9L669.7,2211.1z"/>
				</g>
				<g class="st1">
					<path class="st2" d="M464.7,2231.1c0,0,5,45,100,40v45l-92.5-2.5l-15-25L464.7,2231.1z"/>
				</g>
			</g>
		</g>
	</g>
</g>
</svg>
