<svg width="85" height="20" viewBox="0 0 85 20" fill="none" xmlns="http://www.w3.org/2000/svg">
<g clip-path="url(#clip0_2915_4743)">
<path d="M10.0734 0.015492C9.86672 0.0684953 9.77303 0.174503 9.48644 0.665482C8.53301 2.29742 7.94882 4.04374 7.72561 5.92676C7.65673 6.51817 7.65673 8.09432 7.72561 8.6662C7.83584 9.55889 7.98189 10.2702 8.21611 11.0402C8.47514 11.891 8.64599 12.2649 10.4509 15.9081C11.4071 17.8414 12.2173 19.4594 12.2531 19.5068C12.2889 19.557 12.3716 19.6211 12.4377 19.6547L12.5562 19.7132H16.0366C19.4039 19.7132 19.5169 19.7104 19.6161 19.6603C19.8255 19.5514 19.9302 19.3812 19.9275 19.1469C19.9275 19.027 19.7731 18.7033 18.4201 15.9667C13.4849 5.98814 10.6493 0.272141 10.5914 0.19124C10.4812 0.0405994 10.2635 -0.0347217 10.0734 0.015492Z" fill="#046380"/>
<path d="M48.1117 5.5753C47.6763 5.60879 47.3319 5.73432 47.0206 5.97144C46.3785 6.46242 46.1691 7.35231 46.5191 8.09994C46.6458 8.37333 47.0095 8.73319 47.2933 8.87267C47.6792 9.05958 48.0539 9.13211 48.5252 9.10421C48.8861 9.08189 49.1093 9.0289 49.4096 8.88383C49.5998 8.79178 49.6853 8.72762 49.8644 8.54349C50.2199 8.18363 50.3741 7.80144 50.3741 7.29652C50.3741 6.98408 50.3355 6.80554 50.2225 6.56005C49.8918 5.86264 49.1121 5.4972 48.1117 5.5753Z" fill="#046380"/>
<path d="M55.9681 6.5182C54.1963 6.67442 52.992 7.68985 52.6587 9.30506C52.6118 9.54218 52.5512 10.1559 52.5512 10.4293V10.5353H51.8622H51.1734V11.7906V13.046H51.8622H52.5512V16.3935V19.7412H54.2045H55.8579V16.3935V13.046H56.9464H58.0349V11.7906V10.5353H56.8995H55.7669L55.7835 10.248C55.8276 9.46686 56.183 9.08189 56.8637 9.0791C57.1585 9.07631 57.3652 9.11815 57.6326 9.22695C57.7399 9.27437 57.8391 9.31343 57.8529 9.31622C57.8833 9.3218 58.6934 7.01754 58.6742 6.98129C58.6493 6.93665 58.269 6.77206 58.0321 6.70231C57.4672 6.53772 56.6184 6.46241 55.9681 6.5182Z" fill="#046380"/>
<path d="M34.557 13.1994V19.7412H36.2103H37.8637V17.3559C37.8637 15.8467 37.8748 14.8704 37.894 14.7003C37.9629 14.0642 38.1723 13.6151 38.5526 13.2831C38.8777 13.0013 39.2469 12.8786 39.7679 12.8786C40.5642 12.8786 40.9885 13.205 41.2311 14.0028C41.2944 14.2037 41.2944 14.2037 41.3027 16.9711L41.311 19.7412H42.9615H44.615V16.7841C44.615 14.9374 44.6039 13.7238 44.5874 13.5537C44.4689 12.4434 44.1216 11.6372 43.4989 11.043C42.9974 10.5632 42.405 10.2647 41.6527 10.1141C41.2118 10.0248 40.3217 10.0192 39.889 10.1001C39.1891 10.2312 38.5526 10.513 38.0759 10.9063L37.8774 11.0709L37.8691 8.86429L37.8637 6.65768H36.2103H34.557V13.1994Z" fill="#046380"/>
<path d="M27.7231 7.16258C26.6125 7.20722 25.706 7.41923 24.9261 7.81815C23.7908 8.39282 23.1047 9.25482 22.8567 10.4097C22.796 10.6831 22.7768 11.3554 22.8153 11.6651C22.9145 12.4155 23.215 13.032 23.7027 13.4755C24.0994 13.8382 24.5045 14.0948 24.9675 14.2761C25.356 14.4296 26.1276 14.6556 26.8 14.8173C28.784 15.2916 29.1753 15.4199 29.4729 15.699C29.6521 15.8663 29.7209 16.0281 29.7182 16.282C29.7182 16.5358 29.6355 16.7228 29.4536 16.8789C29.0651 17.2165 28.2025 17.3559 27.1169 17.2583C26.0477 17.1607 24.7912 16.7451 23.9038 16.1955C23.8019 16.1341 23.7109 16.0922 23.6999 16.1062C23.6889 16.1174 23.4408 16.6753 23.1488 17.342C22.8567 18.0088 22.6059 18.5778 22.595 18.6029C22.5757 18.642 22.6114 18.6754 22.8043 18.7927C24.4246 19.7829 27.1361 20.2321 29.2662 19.8638C30.1453 19.7104 30.8948 19.4203 31.5369 18.9823C31.8648 18.7563 32.3525 18.2626 32.5564 17.9474C33.0607 17.1746 33.2371 16.1927 33.0414 15.2275C32.9202 14.6221 32.7108 14.2343 32.2588 13.7852C31.9668 13.4922 31.592 13.2189 31.2613 13.0571C30.7349 12.8005 29.8669 12.5326 28.6876 12.2676C26.9047 11.8631 26.439 11.6734 26.2599 11.2773C26.1965 11.1322 26.1909 10.8449 26.2516 10.6636C26.3563 10.3539 26.7421 10.0638 27.2161 9.94386C27.4366 9.88807 27.5302 9.88249 28.1502 9.8797C28.7371 9.8797 28.8915 9.89086 29.1836 9.94107C29.8118 10.0527 30.4979 10.2842 31.1897 10.619C31.3798 10.711 31.5452 10.778 31.5561 10.7668C31.5671 10.7529 31.8097 10.181 32.0935 9.49194C32.6805 8.06363 32.6556 8.23659 32.3112 8.06085C31.0601 7.41643 29.4151 7.09563 27.7231 7.16258Z" fill="#046380"/>
<path d="M59.6606 9.29388V10.5353H58.9579H58.2552V11.7906V13.046H58.9579H59.6606V14.8815C59.6606 15.989 59.6716 16.8091 59.6882 16.9514C59.8067 17.9167 60.209 18.6755 60.8676 19.1832C61.2258 19.4594 61.8072 19.7048 62.3474 19.808C63.1382 19.9616 64.1743 19.9308 64.91 19.7271C65.3178 19.6156 65.7918 19.4035 65.7698 19.3422C65.7643 19.3226 65.5797 18.801 65.3647 18.1789C65.147 17.5568 64.9679 17.0464 64.9652 17.0436C64.9624 17.0379 64.8742 17.0798 64.7695 17.1328C64.4775 17.2807 64.2762 17.3225 63.9208 17.3086C63.6562 17.3002 63.5956 17.2863 63.4744 17.2249C63.1988 17.0798 63.0141 16.7896 62.9674 16.4187C62.9536 16.3043 62.9398 15.5009 62.9398 14.6277V13.046H64.0283H65.1167V11.7906V10.5353H64.0283H62.9398V9.29388V8.05249H61.3002H59.6606V9.29388Z" fill="#046380"/>
<path d="M5.55968 8.91727C5.33923 8.98423 5.4412 8.79452 2.84816 14.014L0.401184 18.9461V19.1608C0.401184 19.3562 0.406695 19.3812 0.486608 19.4816C0.533454 19.5403 0.618878 19.6156 0.6795 19.649L0.786969 19.7132H4.28109C7.66222 19.7132 7.77795 19.7104 7.87716 19.6603C8.03423 19.5794 8.09209 19.4985 8.22436 19.1749C8.48614 18.5472 8.65424 17.9055 8.75344 17.1607C8.81406 16.7115 8.82233 15.5315 8.76997 15.0684C8.52472 12.9539 7.76142 11.0625 6.54344 9.54215C6.09428 8.98143 5.85453 8.82801 5.55968 8.91727Z" fill="#046380"/>
<path d="M71.0964 10.0499C71.0578 10.0554 70.9172 10.075 70.7795 10.0917C69.2529 10.2842 67.8585 11.1908 67.1145 12.4741C66.332 13.8243 66.2602 15.6543 66.9382 17.0909C67.7483 18.8094 69.4982 19.8248 71.7715 19.9001C73.2623 19.9475 74.5161 19.6156 75.4089 18.935C75.6349 18.7647 75.971 18.4578 76.0041 18.3965C76.0289 18.3491 75.8361 18.1342 74.4058 16.6362L74.3039 16.5302L74.1303 16.6725C73.8795 16.8761 73.5324 17.077 73.254 17.1746C72.4191 17.4759 71.3195 17.4006 70.6693 17.0017C70.4544 16.8677 70.2532 16.6837 70.1182 16.494C69.9914 16.3154 69.8454 16.0224 69.8123 15.883L69.7957 15.8077H73.2264H76.66L76.6793 15.7016C76.715 15.5176 76.7069 14.3598 76.6682 14.1339C76.4643 12.9567 76.0619 12.1393 75.3208 11.4084C74.5961 10.6998 73.5709 10.2228 72.4384 10.075C72.1463 10.0387 71.2948 10.022 71.0964 10.0499ZM72.1242 12.4434C72.7965 12.5745 73.3394 13.071 73.5433 13.7434C73.5764 13.8438 73.6068 13.9525 73.6178 13.9861L73.6342 14.0503H71.6888H69.7407L69.7599 13.9581C69.8922 13.3221 70.3496 12.753 70.8979 12.5439C71.2617 12.4043 71.7247 12.368 72.1242 12.4434Z" fill="#046380"/>
<path d="M84.0064 10.0527C83.3451 10.1392 82.8876 10.2703 82.4495 10.4962C82.0995 10.6776 81.8571 10.8589 81.6146 11.1211C81.5126 11.2271 81.4244 11.3164 81.4162 11.3164C81.4079 11.3164 81.4024 11.0598 81.4024 10.7445V10.1726L79.84 10.1782L78.2748 10.1866L78.2665 14.9625L78.261 19.7412H79.9143H81.5678V17.4732C81.5678 16.2289 81.5816 15.0936 81.5952 14.9569C81.6311 14.6166 81.7137 14.3041 81.835 14.0531C81.9839 13.7434 82.3282 13.4002 82.6451 13.2469C83.0529 13.046 83.2679 13.0042 83.8549 13.0042C84.1359 13.0042 84.4171 13.0126 84.4832 13.0265L84.5989 13.046V11.5396V10.0332L84.3453 10.036C84.2049 10.0387 84.0533 10.0471 84.0064 10.0527Z" fill="#046380"/>
<path d="M46.7092 14.9569V19.7412H48.3626H50.0159V14.9569V10.1727H48.3626H46.7092V14.9569Z" fill="#046380"/>
</g>
<defs>
<clipPath id="clip0_2915_4743">
<rect width="84.1977" height="20" fill="white" transform="translate(0.401184)"/>
</clipPath>
</defs>
</svg>
